%FSLAX45Y45*%
G04 Gerber Fmt 4.5, Leading zero omitted, Abs format (unit mm)*
G04 Created by KiCad (PCBNEW (5.1.7)-1) date 2020-12-07 21:31:36*
%MOMM*%
%LPD*%
G01*
G04 APERTURE LIST*
%TA.AperFunction,Profile*%
%ADD10C,0.050000*%
%TD*%
%ADD11C,0.200000*%
%ADD12C,0.300000*%
G04 APERTURE END LIST*
D10*
X2755900Y-5372100D02*
X2755900Y-2374900D01*
X8166100Y-5372100D02*
X2755900Y-5372100D01*
X8166100Y-2374900D02*
X8166100Y-5372100D01*
X2755900Y-2374900D02*
X8166100Y-2374900D01*
D11*
X4102700Y-3061300D02*
X4177700Y-3136300D01*
X4177700Y-3061300D02*
X4102700Y-3136300D01*
X4229700Y-3061300D02*
X4304700Y-3136300D01*
X4304700Y-3061300D02*
X4229700Y-3136300D01*
X4356700Y-3061300D02*
X4431700Y-3136300D01*
X4431700Y-3061300D02*
X4356700Y-3136300D01*
X6771000Y-2590800D02*
G75*
G03*
X6771000Y-2590800I-40000J0D01*
G01*
X6771000Y-3606800D02*
G75*
G03*
X6771000Y-3606800I-40000J0D01*
G01*
X7279000Y-2590800D02*
G75*
G03*
X7279000Y-2590800I-40000J0D01*
G01*
X7279000Y-3606800D02*
G75*
G03*
X7279000Y-3606800I-40000J0D01*
G01*
X5158100Y-4457700D02*
G75*
G03*
X5158100Y-4457700I-40000J0D01*
G01*
X6174100Y-4457700D02*
G75*
G03*
X6174100Y-4457700I-40000J0D01*
G01*
X3723000Y-4673600D02*
G75*
G03*
X3723000Y-4673600I-40000J0D01*
G01*
X3923000Y-4673600D02*
G75*
G03*
X3923000Y-4673600I-40000J0D01*
G01*
X5158100Y-4775200D02*
G75*
G03*
X5158100Y-4775200I-40000J0D01*
G01*
X6174100Y-4775200D02*
G75*
G03*
X6174100Y-4775200I-40000J0D01*
G01*
X5145400Y-3175000D02*
G75*
G03*
X5145400Y-3175000I-40000J0D01*
G01*
X6161400Y-3175000D02*
G75*
G03*
X6161400Y-3175000I-40000J0D01*
G01*
X3773800Y-2628900D02*
G75*
G03*
X3773800Y-2628900I-40000J0D01*
G01*
X3773800Y-3644900D02*
G75*
G03*
X3773800Y-3644900I-40000J0D01*
G01*
X6529700Y-4153100D02*
G75*
G03*
X6529700Y-4153100I-40000J0D01*
G01*
X6529700Y-4940100D02*
G75*
G03*
X6529700Y-4940100I-40000J0D01*
G01*
X6783700Y-4153100D02*
G75*
G03*
X6783700Y-4153100I-40000J0D01*
G01*
X6783700Y-4940100D02*
G75*
G03*
X6783700Y-4940100I-40000J0D01*
G01*
X7037700Y-4153100D02*
G75*
G03*
X7037700Y-4153100I-40000J0D01*
G01*
X7037700Y-4940100D02*
G75*
G03*
X7037700Y-4940100I-40000J0D01*
G01*
X7291700Y-4153100D02*
G75*
G03*
X7291700Y-4153100I-40000J0D01*
G01*
X7291700Y-4940100D02*
G75*
G03*
X7291700Y-4940100I-40000J0D01*
G01*
X5145400Y-3492500D02*
G75*
G03*
X5145400Y-3492500I-40000J0D01*
G01*
X6161400Y-3492500D02*
G75*
G03*
X6161400Y-3492500I-40000J0D01*
G01*
X3632200Y-4026700D02*
X3632200Y-4126700D01*
X3582200Y-4076700D02*
X3682200Y-4076700D01*
X4132200Y-4026700D02*
X4132200Y-4126700D01*
X4082200Y-4076700D02*
X4182200Y-4076700D01*
X3136900Y-2680500D02*
X3136900Y-2780500D01*
X3086900Y-2730500D02*
X3186900Y-2730500D01*
X3136900Y-2934500D02*
X3136900Y-3034500D01*
X3086900Y-2984500D02*
X3186900Y-2984500D01*
X3136900Y-3188500D02*
X3136900Y-3288500D01*
X3086900Y-3238500D02*
X3186900Y-3238500D01*
X3136900Y-3442500D02*
X3136900Y-3542500D01*
X3086900Y-3492500D02*
X3186900Y-3492500D01*
X3136900Y-3696500D02*
X3136900Y-3796500D01*
X3086900Y-3746500D02*
X3186900Y-3746500D01*
X3136900Y-3950500D02*
X3136900Y-4050500D01*
X3086900Y-4000500D02*
X3186900Y-4000500D01*
X3136900Y-4204500D02*
X3136900Y-4304500D01*
X3086900Y-4254500D02*
X3186900Y-4254500D01*
X3136900Y-4458500D02*
X3136900Y-4558500D01*
X3086900Y-4508500D02*
X3186900Y-4508500D01*
X3136900Y-4712500D02*
X3136900Y-4812500D01*
X3086900Y-4762500D02*
X3186900Y-4762500D01*
X3136900Y-4966500D02*
X3136900Y-5066500D01*
X3086900Y-5016500D02*
X3186900Y-5016500D01*
X7785100Y-2680500D02*
X7785100Y-2780500D01*
X7735100Y-2730500D02*
X7835100Y-2730500D01*
X7785100Y-2934500D02*
X7785100Y-3034500D01*
X7735100Y-2984500D02*
X7835100Y-2984500D01*
X7785100Y-3188500D02*
X7785100Y-3288500D01*
X7735100Y-3238500D02*
X7835100Y-3238500D01*
X7785100Y-3442500D02*
X7785100Y-3542500D01*
X7735100Y-3492500D02*
X7835100Y-3492500D01*
X7785100Y-3696500D02*
X7785100Y-3796500D01*
X7735100Y-3746500D02*
X7835100Y-3746500D01*
X7785100Y-3950500D02*
X7785100Y-4050500D01*
X7735100Y-4000500D02*
X7835100Y-4000500D01*
X7785100Y-4204500D02*
X7785100Y-4304500D01*
X7735100Y-4254500D02*
X7835100Y-4254500D01*
X7785100Y-4458500D02*
X7785100Y-4558500D01*
X7735100Y-4508500D02*
X7835100Y-4508500D01*
X7785100Y-4712500D02*
X7785100Y-4812500D01*
X7735100Y-4762500D02*
X7835100Y-4762500D01*
X7785100Y-4966500D02*
X7785100Y-5066500D01*
X7735100Y-5016500D02*
X7835100Y-5016500D01*
X5308600Y-2578900D02*
X5308600Y-2678900D01*
X5258600Y-2628900D02*
X5358600Y-2628900D01*
X5562600Y-2578900D02*
X5562600Y-2678900D01*
X5512600Y-2628900D02*
X5612600Y-2628900D01*
X5816600Y-2578900D02*
X5816600Y-2678900D01*
X5766600Y-2628900D02*
X5866600Y-2628900D01*
X4686300Y-3620300D02*
X4686300Y-3720300D01*
X4636300Y-3670300D02*
X4736300Y-3670300D01*
X4686300Y-3874300D02*
X4686300Y-3974300D01*
X4636300Y-3924300D02*
X4736300Y-3924300D01*
X4686300Y-4128300D02*
X4686300Y-4228300D01*
X4636300Y-4178300D02*
X4736300Y-4178300D01*
X4178300Y-4991900D02*
X4178300Y-5091900D01*
X4128300Y-5041900D02*
X4228300Y-5041900D01*
X4432300Y-4991900D02*
X4432300Y-5091900D01*
X4382300Y-5041900D02*
X4482300Y-5041900D01*
X4686300Y-4991900D02*
X4686300Y-5091900D01*
X4636300Y-5041900D02*
X4736300Y-5041900D01*
D12*
X3039828Y-5840314D02*
X3039828Y-5540314D01*
X3111257Y-5540314D01*
X3154114Y-5554600D01*
X3182686Y-5583172D01*
X3196971Y-5611743D01*
X3211257Y-5668886D01*
X3211257Y-5711743D01*
X3196971Y-5768886D01*
X3182686Y-5797457D01*
X3154114Y-5826029D01*
X3111257Y-5840314D01*
X3039828Y-5840314D01*
X3339828Y-5840314D02*
X3339828Y-5640314D01*
X3339828Y-5697457D02*
X3354114Y-5668886D01*
X3368400Y-5654600D01*
X3396971Y-5640314D01*
X3425543Y-5640314D01*
X3525543Y-5840314D02*
X3525543Y-5640314D01*
X3525543Y-5540314D02*
X3511257Y-5554600D01*
X3525543Y-5568886D01*
X3539828Y-5554600D01*
X3525543Y-5540314D01*
X3525543Y-5568886D01*
X3711257Y-5840314D02*
X3682686Y-5826029D01*
X3668400Y-5797457D01*
X3668400Y-5540314D01*
X3868400Y-5840314D02*
X3839828Y-5826029D01*
X3825543Y-5797457D01*
X3825543Y-5540314D01*
X4211257Y-5840314D02*
X4211257Y-5540314D01*
X4311257Y-5754600D01*
X4411257Y-5540314D01*
X4411257Y-5840314D01*
X4682686Y-5840314D02*
X4682686Y-5683171D01*
X4668400Y-5654600D01*
X4639828Y-5640314D01*
X4582686Y-5640314D01*
X4554114Y-5654600D01*
X4682686Y-5826029D02*
X4654114Y-5840314D01*
X4582686Y-5840314D01*
X4554114Y-5826029D01*
X4539828Y-5797457D01*
X4539828Y-5768886D01*
X4554114Y-5740314D01*
X4582686Y-5726029D01*
X4654114Y-5726029D01*
X4682686Y-5711743D01*
X4825543Y-5640314D02*
X4825543Y-5940314D01*
X4825543Y-5654600D02*
X4854114Y-5640314D01*
X4911257Y-5640314D01*
X4939828Y-5654600D01*
X4954114Y-5668886D01*
X4968400Y-5697457D01*
X4968400Y-5783171D01*
X4954114Y-5811743D01*
X4939828Y-5826029D01*
X4911257Y-5840314D01*
X4854114Y-5840314D01*
X4825543Y-5826029D01*
X5096971Y-5811743D02*
X5111257Y-5826029D01*
X5096971Y-5840314D01*
X5082686Y-5826029D01*
X5096971Y-5811743D01*
X5096971Y-5840314D01*
X5096971Y-5654600D02*
X5111257Y-5668886D01*
X5096971Y-5683171D01*
X5082686Y-5668886D01*
X5096971Y-5654600D01*
X5096971Y-5683171D01*
X2678400Y-6297100D02*
X2753400Y-6372100D01*
X2753400Y-6297100D02*
X2678400Y-6372100D01*
X3096971Y-6170314D02*
X3125543Y-6170314D01*
X3154114Y-6184600D01*
X3168400Y-6198886D01*
X3182686Y-6227457D01*
X3196971Y-6284600D01*
X3196971Y-6356029D01*
X3182686Y-6413171D01*
X3168400Y-6441743D01*
X3154114Y-6456029D01*
X3125543Y-6470314D01*
X3096971Y-6470314D01*
X3068400Y-6456029D01*
X3054114Y-6441743D01*
X3039828Y-6413171D01*
X3025543Y-6356029D01*
X3025543Y-6284600D01*
X3039828Y-6227457D01*
X3054114Y-6198886D01*
X3068400Y-6184600D01*
X3096971Y-6170314D01*
X3325543Y-6441743D02*
X3339828Y-6456029D01*
X3325543Y-6470314D01*
X3311257Y-6456029D01*
X3325543Y-6441743D01*
X3325543Y-6470314D01*
X3439828Y-6170314D02*
X3639828Y-6170314D01*
X3511257Y-6470314D01*
X3896971Y-6170314D02*
X3754114Y-6170314D01*
X3739828Y-6313171D01*
X3754114Y-6298886D01*
X3782686Y-6284600D01*
X3854114Y-6284600D01*
X3882686Y-6298886D01*
X3896971Y-6313171D01*
X3911257Y-6341743D01*
X3911257Y-6413171D01*
X3896971Y-6441743D01*
X3882686Y-6456029D01*
X3854114Y-6470314D01*
X3782686Y-6470314D01*
X3754114Y-6456029D01*
X3739828Y-6441743D01*
X4039828Y-6470314D02*
X4039828Y-6270314D01*
X4039828Y-6298886D02*
X4054114Y-6284600D01*
X4082686Y-6270314D01*
X4125543Y-6270314D01*
X4154114Y-6284600D01*
X4168400Y-6313171D01*
X4168400Y-6470314D01*
X4168400Y-6313171D02*
X4182686Y-6284600D01*
X4211257Y-6270314D01*
X4254114Y-6270314D01*
X4282686Y-6284600D01*
X4296971Y-6313171D01*
X4296971Y-6470314D01*
X4439828Y-6470314D02*
X4439828Y-6270314D01*
X4439828Y-6298886D02*
X4454114Y-6284600D01*
X4482686Y-6270314D01*
X4525543Y-6270314D01*
X4554114Y-6284600D01*
X4568400Y-6313171D01*
X4568400Y-6470314D01*
X4568400Y-6313171D02*
X4582686Y-6284600D01*
X4611257Y-6270314D01*
X4654114Y-6270314D01*
X4682686Y-6284600D01*
X4696971Y-6313171D01*
X4696971Y-6470314D01*
X5282686Y-6156029D02*
X5025543Y-6541743D01*
X5668400Y-6170314D02*
X5696971Y-6170314D01*
X5725543Y-6184600D01*
X5739828Y-6198886D01*
X5754114Y-6227457D01*
X5768400Y-6284600D01*
X5768400Y-6356029D01*
X5754114Y-6413171D01*
X5739828Y-6441743D01*
X5725543Y-6456029D01*
X5696971Y-6470314D01*
X5668400Y-6470314D01*
X5639828Y-6456029D01*
X5625543Y-6441743D01*
X5611257Y-6413171D01*
X5596971Y-6356029D01*
X5596971Y-6284600D01*
X5611257Y-6227457D01*
X5625543Y-6198886D01*
X5639828Y-6184600D01*
X5668400Y-6170314D01*
X5896971Y-6441743D02*
X5911257Y-6456029D01*
X5896971Y-6470314D01*
X5882686Y-6456029D01*
X5896971Y-6441743D01*
X5896971Y-6470314D01*
X6096971Y-6170314D02*
X6125543Y-6170314D01*
X6154114Y-6184600D01*
X6168400Y-6198886D01*
X6182686Y-6227457D01*
X6196971Y-6284600D01*
X6196971Y-6356029D01*
X6182686Y-6413171D01*
X6168400Y-6441743D01*
X6154114Y-6456029D01*
X6125543Y-6470314D01*
X6096971Y-6470314D01*
X6068400Y-6456029D01*
X6054114Y-6441743D01*
X6039828Y-6413171D01*
X6025543Y-6356029D01*
X6025543Y-6284600D01*
X6039828Y-6227457D01*
X6054114Y-6198886D01*
X6068400Y-6184600D01*
X6096971Y-6170314D01*
X6296971Y-6170314D02*
X6482686Y-6170314D01*
X6382686Y-6284600D01*
X6425543Y-6284600D01*
X6454114Y-6298886D01*
X6468400Y-6313171D01*
X6482686Y-6341743D01*
X6482686Y-6413171D01*
X6468400Y-6441743D01*
X6454114Y-6456029D01*
X6425543Y-6470314D01*
X6339828Y-6470314D01*
X6311257Y-6456029D01*
X6296971Y-6441743D01*
X6668400Y-6170314D02*
X6696971Y-6170314D01*
X6725543Y-6184600D01*
X6739828Y-6198886D01*
X6754114Y-6227457D01*
X6768400Y-6284600D01*
X6768400Y-6356029D01*
X6754114Y-6413171D01*
X6739828Y-6441743D01*
X6725543Y-6456029D01*
X6696971Y-6470314D01*
X6668400Y-6470314D01*
X6639828Y-6456029D01*
X6625543Y-6441743D01*
X6611257Y-6413171D01*
X6596971Y-6356029D01*
X6596971Y-6284600D01*
X6611257Y-6227457D01*
X6625543Y-6198886D01*
X6639828Y-6184600D01*
X6668400Y-6170314D01*
X6882686Y-6170314D02*
X6882686Y-6227457D01*
X6996971Y-6170314D02*
X6996971Y-6227457D01*
X7439828Y-6584600D02*
X7425543Y-6570314D01*
X7396971Y-6527457D01*
X7382686Y-6498886D01*
X7368400Y-6456029D01*
X7354114Y-6384600D01*
X7354114Y-6327457D01*
X7368400Y-6256029D01*
X7382686Y-6213171D01*
X7396971Y-6184600D01*
X7425543Y-6141743D01*
X7439828Y-6127457D01*
X7525543Y-6170314D02*
X7711257Y-6170314D01*
X7611257Y-6284600D01*
X7654114Y-6284600D01*
X7682686Y-6298886D01*
X7696971Y-6313171D01*
X7711257Y-6341743D01*
X7711257Y-6413171D01*
X7696971Y-6441743D01*
X7682686Y-6456029D01*
X7654114Y-6470314D01*
X7568400Y-6470314D01*
X7539828Y-6456029D01*
X7525543Y-6441743D01*
X8068400Y-6470314D02*
X8068400Y-6170314D01*
X8196971Y-6470314D02*
X8196971Y-6313171D01*
X8182686Y-6284600D01*
X8154114Y-6270314D01*
X8111257Y-6270314D01*
X8082686Y-6284600D01*
X8068400Y-6298886D01*
X8382686Y-6470314D02*
X8354114Y-6456029D01*
X8339828Y-6441743D01*
X8325543Y-6413171D01*
X8325543Y-6327457D01*
X8339828Y-6298886D01*
X8354114Y-6284600D01*
X8382686Y-6270314D01*
X8425543Y-6270314D01*
X8454114Y-6284600D01*
X8468400Y-6298886D01*
X8482686Y-6327457D01*
X8482686Y-6413171D01*
X8468400Y-6441743D01*
X8454114Y-6456029D01*
X8425543Y-6470314D01*
X8382686Y-6470314D01*
X8654114Y-6470314D02*
X8625543Y-6456029D01*
X8611257Y-6427457D01*
X8611257Y-6170314D01*
X8882686Y-6456029D02*
X8854114Y-6470314D01*
X8796971Y-6470314D01*
X8768400Y-6456029D01*
X8754114Y-6427457D01*
X8754114Y-6313171D01*
X8768400Y-6284600D01*
X8796971Y-6270314D01*
X8854114Y-6270314D01*
X8882686Y-6284600D01*
X8896971Y-6313171D01*
X8896971Y-6341743D01*
X8754114Y-6370314D01*
X9011257Y-6456029D02*
X9039828Y-6470314D01*
X9096971Y-6470314D01*
X9125543Y-6456029D01*
X9139828Y-6427457D01*
X9139828Y-6413171D01*
X9125543Y-6384600D01*
X9096971Y-6370314D01*
X9054114Y-6370314D01*
X9025543Y-6356029D01*
X9011257Y-6327457D01*
X9011257Y-6313171D01*
X9025543Y-6284600D01*
X9054114Y-6270314D01*
X9096971Y-6270314D01*
X9125543Y-6284600D01*
X9239828Y-6584600D02*
X9254114Y-6570314D01*
X9282686Y-6527457D01*
X9296971Y-6498886D01*
X9311257Y-6456029D01*
X9325543Y-6384600D01*
X9325543Y-6327457D01*
X9311257Y-6256029D01*
X9296971Y-6213171D01*
X9282686Y-6184600D01*
X9254114Y-6141743D01*
X9239828Y-6127457D01*
X2753400Y-6730600D02*
G75*
G03*
X2753400Y-6730600I-40000J0D01*
G01*
X3096971Y-6566314D02*
X3125543Y-6566314D01*
X3154114Y-6580600D01*
X3168400Y-6594886D01*
X3182686Y-6623457D01*
X3196971Y-6680600D01*
X3196971Y-6752029D01*
X3182686Y-6809171D01*
X3168400Y-6837743D01*
X3154114Y-6852029D01*
X3125543Y-6866314D01*
X3096971Y-6866314D01*
X3068400Y-6852029D01*
X3054114Y-6837743D01*
X3039828Y-6809171D01*
X3025543Y-6752029D01*
X3025543Y-6680600D01*
X3039828Y-6623457D01*
X3054114Y-6594886D01*
X3068400Y-6580600D01*
X3096971Y-6566314D01*
X3325543Y-6837743D02*
X3339828Y-6852029D01*
X3325543Y-6866314D01*
X3311257Y-6852029D01*
X3325543Y-6837743D01*
X3325543Y-6866314D01*
X3511257Y-6694886D02*
X3482686Y-6680600D01*
X3468400Y-6666314D01*
X3454114Y-6637743D01*
X3454114Y-6623457D01*
X3468400Y-6594886D01*
X3482686Y-6580600D01*
X3511257Y-6566314D01*
X3568400Y-6566314D01*
X3596971Y-6580600D01*
X3611257Y-6594886D01*
X3625543Y-6623457D01*
X3625543Y-6637743D01*
X3611257Y-6666314D01*
X3596971Y-6680600D01*
X3568400Y-6694886D01*
X3511257Y-6694886D01*
X3482686Y-6709171D01*
X3468400Y-6723457D01*
X3454114Y-6752029D01*
X3454114Y-6809171D01*
X3468400Y-6837743D01*
X3482686Y-6852029D01*
X3511257Y-6866314D01*
X3568400Y-6866314D01*
X3596971Y-6852029D01*
X3611257Y-6837743D01*
X3625543Y-6809171D01*
X3625543Y-6752029D01*
X3611257Y-6723457D01*
X3596971Y-6709171D01*
X3568400Y-6694886D01*
X3811257Y-6566314D02*
X3839828Y-6566314D01*
X3868400Y-6580600D01*
X3882686Y-6594886D01*
X3896971Y-6623457D01*
X3911257Y-6680600D01*
X3911257Y-6752029D01*
X3896971Y-6809171D01*
X3882686Y-6837743D01*
X3868400Y-6852029D01*
X3839828Y-6866314D01*
X3811257Y-6866314D01*
X3782686Y-6852029D01*
X3768400Y-6837743D01*
X3754114Y-6809171D01*
X3739828Y-6752029D01*
X3739828Y-6680600D01*
X3754114Y-6623457D01*
X3768400Y-6594886D01*
X3782686Y-6580600D01*
X3811257Y-6566314D01*
X4039828Y-6866314D02*
X4039828Y-6666314D01*
X4039828Y-6694886D02*
X4054114Y-6680600D01*
X4082686Y-6666314D01*
X4125543Y-6666314D01*
X4154114Y-6680600D01*
X4168400Y-6709171D01*
X4168400Y-6866314D01*
X4168400Y-6709171D02*
X4182686Y-6680600D01*
X4211257Y-6666314D01*
X4254114Y-6666314D01*
X4282686Y-6680600D01*
X4296971Y-6709171D01*
X4296971Y-6866314D01*
X4439828Y-6866314D02*
X4439828Y-6666314D01*
X4439828Y-6694886D02*
X4454114Y-6680600D01*
X4482686Y-6666314D01*
X4525543Y-6666314D01*
X4554114Y-6680600D01*
X4568400Y-6709171D01*
X4568400Y-6866314D01*
X4568400Y-6709171D02*
X4582686Y-6680600D01*
X4611257Y-6666314D01*
X4654114Y-6666314D01*
X4682686Y-6680600D01*
X4696971Y-6709171D01*
X4696971Y-6866314D01*
X5282686Y-6552029D02*
X5025543Y-6937743D01*
X5668400Y-6566314D02*
X5696971Y-6566314D01*
X5725543Y-6580600D01*
X5739828Y-6594886D01*
X5754114Y-6623457D01*
X5768400Y-6680600D01*
X5768400Y-6752029D01*
X5754114Y-6809171D01*
X5739828Y-6837743D01*
X5725543Y-6852029D01*
X5696971Y-6866314D01*
X5668400Y-6866314D01*
X5639828Y-6852029D01*
X5625543Y-6837743D01*
X5611257Y-6809171D01*
X5596971Y-6752029D01*
X5596971Y-6680600D01*
X5611257Y-6623457D01*
X5625543Y-6594886D01*
X5639828Y-6580600D01*
X5668400Y-6566314D01*
X5896971Y-6837743D02*
X5911257Y-6852029D01*
X5896971Y-6866314D01*
X5882686Y-6852029D01*
X5896971Y-6837743D01*
X5896971Y-6866314D01*
X6096971Y-6566314D02*
X6125543Y-6566314D01*
X6154114Y-6580600D01*
X6168400Y-6594886D01*
X6182686Y-6623457D01*
X6196971Y-6680600D01*
X6196971Y-6752029D01*
X6182686Y-6809171D01*
X6168400Y-6837743D01*
X6154114Y-6852029D01*
X6125543Y-6866314D01*
X6096971Y-6866314D01*
X6068400Y-6852029D01*
X6054114Y-6837743D01*
X6039828Y-6809171D01*
X6025543Y-6752029D01*
X6025543Y-6680600D01*
X6039828Y-6623457D01*
X6054114Y-6594886D01*
X6068400Y-6580600D01*
X6096971Y-6566314D01*
X6296971Y-6566314D02*
X6482686Y-6566314D01*
X6382686Y-6680600D01*
X6425543Y-6680600D01*
X6454114Y-6694886D01*
X6468400Y-6709171D01*
X6482686Y-6737743D01*
X6482686Y-6809171D01*
X6468400Y-6837743D01*
X6454114Y-6852029D01*
X6425543Y-6866314D01*
X6339828Y-6866314D01*
X6311257Y-6852029D01*
X6296971Y-6837743D01*
X6768400Y-6866314D02*
X6596971Y-6866314D01*
X6682686Y-6866314D02*
X6682686Y-6566314D01*
X6654114Y-6609171D01*
X6625543Y-6637743D01*
X6596971Y-6652029D01*
X6882686Y-6566314D02*
X6882686Y-6623457D01*
X6996971Y-6566314D02*
X6996971Y-6623457D01*
X7439828Y-6980600D02*
X7425543Y-6966314D01*
X7396971Y-6923457D01*
X7382686Y-6894886D01*
X7368400Y-6852029D01*
X7354114Y-6780600D01*
X7354114Y-6723457D01*
X7368400Y-6652029D01*
X7382686Y-6609171D01*
X7396971Y-6580600D01*
X7425543Y-6537743D01*
X7439828Y-6523457D01*
X7539828Y-6594886D02*
X7554114Y-6580600D01*
X7582686Y-6566314D01*
X7654114Y-6566314D01*
X7682686Y-6580600D01*
X7696971Y-6594886D01*
X7711257Y-6623457D01*
X7711257Y-6652029D01*
X7696971Y-6694886D01*
X7525543Y-6866314D01*
X7711257Y-6866314D01*
X7968400Y-6666314D02*
X7968400Y-6866314D01*
X7896971Y-6552029D02*
X7825543Y-6766314D01*
X8011257Y-6766314D01*
X8354114Y-6866314D02*
X8354114Y-6566314D01*
X8482686Y-6866314D02*
X8482686Y-6709171D01*
X8468400Y-6680600D01*
X8439828Y-6666314D01*
X8396971Y-6666314D01*
X8368400Y-6680600D01*
X8354114Y-6694886D01*
X8668400Y-6866314D02*
X8639828Y-6852029D01*
X8625543Y-6837743D01*
X8611257Y-6809171D01*
X8611257Y-6723457D01*
X8625543Y-6694886D01*
X8639828Y-6680600D01*
X8668400Y-6666314D01*
X8711257Y-6666314D01*
X8739828Y-6680600D01*
X8754114Y-6694886D01*
X8768400Y-6723457D01*
X8768400Y-6809171D01*
X8754114Y-6837743D01*
X8739828Y-6852029D01*
X8711257Y-6866314D01*
X8668400Y-6866314D01*
X8939828Y-6866314D02*
X8911257Y-6852029D01*
X8896971Y-6823457D01*
X8896971Y-6566314D01*
X9168400Y-6852029D02*
X9139828Y-6866314D01*
X9082686Y-6866314D01*
X9054114Y-6852029D01*
X9039828Y-6823457D01*
X9039828Y-6709171D01*
X9054114Y-6680600D01*
X9082686Y-6666314D01*
X9139828Y-6666314D01*
X9168400Y-6680600D01*
X9182686Y-6709171D01*
X9182686Y-6737743D01*
X9039828Y-6766314D01*
X9296971Y-6852029D02*
X9325543Y-6866314D01*
X9382686Y-6866314D01*
X9411257Y-6852029D01*
X9425543Y-6823457D01*
X9425543Y-6809171D01*
X9411257Y-6780600D01*
X9382686Y-6766314D01*
X9339828Y-6766314D01*
X9311257Y-6752029D01*
X9296971Y-6723457D01*
X9296971Y-6709171D01*
X9311257Y-6680600D01*
X9339828Y-6666314D01*
X9382686Y-6666314D01*
X9411257Y-6680600D01*
X9525543Y-6980600D02*
X9539828Y-6966314D01*
X9568400Y-6923457D01*
X9582686Y-6894886D01*
X9596971Y-6852029D01*
X9611257Y-6780600D01*
X9611257Y-6723457D01*
X9596971Y-6652029D01*
X9582686Y-6609171D01*
X9568400Y-6580600D01*
X9539828Y-6537743D01*
X9525543Y-6523457D01*
X2703400Y-7076600D02*
X2703400Y-7176600D01*
X2653400Y-7126600D02*
X2753400Y-7126600D01*
X3196971Y-7262314D02*
X3025543Y-7262314D01*
X3111257Y-7262314D02*
X3111257Y-6962314D01*
X3082686Y-7005171D01*
X3054114Y-7033743D01*
X3025543Y-7048029D01*
X3325543Y-7233743D02*
X3339828Y-7248029D01*
X3325543Y-7262314D01*
X3311257Y-7248029D01*
X3325543Y-7233743D01*
X3325543Y-7262314D01*
X3525543Y-6962314D02*
X3554114Y-6962314D01*
X3582686Y-6976600D01*
X3596971Y-6990886D01*
X3611257Y-7019457D01*
X3625543Y-7076600D01*
X3625543Y-7148029D01*
X3611257Y-7205171D01*
X3596971Y-7233743D01*
X3582686Y-7248029D01*
X3554114Y-7262314D01*
X3525543Y-7262314D01*
X3496971Y-7248029D01*
X3482686Y-7233743D01*
X3468400Y-7205171D01*
X3454114Y-7148029D01*
X3454114Y-7076600D01*
X3468400Y-7019457D01*
X3482686Y-6990886D01*
X3496971Y-6976600D01*
X3525543Y-6962314D01*
X3811257Y-6962314D02*
X3839828Y-6962314D01*
X3868400Y-6976600D01*
X3882686Y-6990886D01*
X3896971Y-7019457D01*
X3911257Y-7076600D01*
X3911257Y-7148029D01*
X3896971Y-7205171D01*
X3882686Y-7233743D01*
X3868400Y-7248029D01*
X3839828Y-7262314D01*
X3811257Y-7262314D01*
X3782686Y-7248029D01*
X3768400Y-7233743D01*
X3754114Y-7205171D01*
X3739828Y-7148029D01*
X3739828Y-7076600D01*
X3754114Y-7019457D01*
X3768400Y-6990886D01*
X3782686Y-6976600D01*
X3811257Y-6962314D01*
X4039828Y-7262314D02*
X4039828Y-7062314D01*
X4039828Y-7090886D02*
X4054114Y-7076600D01*
X4082686Y-7062314D01*
X4125543Y-7062314D01*
X4154114Y-7076600D01*
X4168400Y-7105171D01*
X4168400Y-7262314D01*
X4168400Y-7105171D02*
X4182686Y-7076600D01*
X4211257Y-7062314D01*
X4254114Y-7062314D01*
X4282686Y-7076600D01*
X4296971Y-7105171D01*
X4296971Y-7262314D01*
X4439828Y-7262314D02*
X4439828Y-7062314D01*
X4439828Y-7090886D02*
X4454114Y-7076600D01*
X4482686Y-7062314D01*
X4525543Y-7062314D01*
X4554114Y-7076600D01*
X4568400Y-7105171D01*
X4568400Y-7262314D01*
X4568400Y-7105171D02*
X4582686Y-7076600D01*
X4611257Y-7062314D01*
X4654114Y-7062314D01*
X4682686Y-7076600D01*
X4696971Y-7105171D01*
X4696971Y-7262314D01*
X5282686Y-6948029D02*
X5025543Y-7333743D01*
X5668400Y-6962314D02*
X5696971Y-6962314D01*
X5725543Y-6976600D01*
X5739828Y-6990886D01*
X5754114Y-7019457D01*
X5768400Y-7076600D01*
X5768400Y-7148029D01*
X5754114Y-7205171D01*
X5739828Y-7233743D01*
X5725543Y-7248029D01*
X5696971Y-7262314D01*
X5668400Y-7262314D01*
X5639828Y-7248029D01*
X5625543Y-7233743D01*
X5611257Y-7205171D01*
X5596971Y-7148029D01*
X5596971Y-7076600D01*
X5611257Y-7019457D01*
X5625543Y-6990886D01*
X5639828Y-6976600D01*
X5668400Y-6962314D01*
X5896971Y-7233743D02*
X5911257Y-7248029D01*
X5896971Y-7262314D01*
X5882686Y-7248029D01*
X5896971Y-7233743D01*
X5896971Y-7262314D01*
X6096971Y-6962314D02*
X6125543Y-6962314D01*
X6154114Y-6976600D01*
X6168400Y-6990886D01*
X6182686Y-7019457D01*
X6196971Y-7076600D01*
X6196971Y-7148029D01*
X6182686Y-7205171D01*
X6168400Y-7233743D01*
X6154114Y-7248029D01*
X6125543Y-7262314D01*
X6096971Y-7262314D01*
X6068400Y-7248029D01*
X6054114Y-7233743D01*
X6039828Y-7205171D01*
X6025543Y-7148029D01*
X6025543Y-7076600D01*
X6039828Y-7019457D01*
X6054114Y-6990886D01*
X6068400Y-6976600D01*
X6096971Y-6962314D01*
X6296971Y-6962314D02*
X6482686Y-6962314D01*
X6382686Y-7076600D01*
X6425543Y-7076600D01*
X6454114Y-7090886D01*
X6468400Y-7105171D01*
X6482686Y-7133743D01*
X6482686Y-7205171D01*
X6468400Y-7233743D01*
X6454114Y-7248029D01*
X6425543Y-7262314D01*
X6339828Y-7262314D01*
X6311257Y-7248029D01*
X6296971Y-7233743D01*
X6625543Y-7262314D02*
X6682686Y-7262314D01*
X6711257Y-7248029D01*
X6725543Y-7233743D01*
X6754114Y-7190886D01*
X6768400Y-7133743D01*
X6768400Y-7019457D01*
X6754114Y-6990886D01*
X6739828Y-6976600D01*
X6711257Y-6962314D01*
X6654114Y-6962314D01*
X6625543Y-6976600D01*
X6611257Y-6990886D01*
X6596971Y-7019457D01*
X6596971Y-7090886D01*
X6611257Y-7119457D01*
X6625543Y-7133743D01*
X6654114Y-7148029D01*
X6711257Y-7148029D01*
X6739828Y-7133743D01*
X6754114Y-7119457D01*
X6768400Y-7090886D01*
X6882686Y-6962314D02*
X6882686Y-7019457D01*
X6996971Y-6962314D02*
X6996971Y-7019457D01*
X7439828Y-7376600D02*
X7425543Y-7362314D01*
X7396971Y-7319457D01*
X7382686Y-7290886D01*
X7368400Y-7248029D01*
X7354114Y-7176600D01*
X7354114Y-7119457D01*
X7368400Y-7048029D01*
X7382686Y-7005171D01*
X7396971Y-6976600D01*
X7425543Y-6933743D01*
X7439828Y-6919457D01*
X7525543Y-6962314D02*
X7711257Y-6962314D01*
X7611257Y-7076600D01*
X7654114Y-7076600D01*
X7682686Y-7090886D01*
X7696971Y-7105171D01*
X7711257Y-7133743D01*
X7711257Y-7205171D01*
X7696971Y-7233743D01*
X7682686Y-7248029D01*
X7654114Y-7262314D01*
X7568400Y-7262314D01*
X7539828Y-7248029D01*
X7525543Y-7233743D01*
X7996971Y-7262314D02*
X7825543Y-7262314D01*
X7911257Y-7262314D02*
X7911257Y-6962314D01*
X7882686Y-7005171D01*
X7854114Y-7033743D01*
X7825543Y-7048029D01*
X8354114Y-7262314D02*
X8354114Y-6962314D01*
X8482686Y-7262314D02*
X8482686Y-7105171D01*
X8468400Y-7076600D01*
X8439828Y-7062314D01*
X8396971Y-7062314D01*
X8368400Y-7076600D01*
X8354114Y-7090886D01*
X8668400Y-7262314D02*
X8639828Y-7248029D01*
X8625543Y-7233743D01*
X8611257Y-7205171D01*
X8611257Y-7119457D01*
X8625543Y-7090886D01*
X8639828Y-7076600D01*
X8668400Y-7062314D01*
X8711257Y-7062314D01*
X8739828Y-7076600D01*
X8754114Y-7090886D01*
X8768400Y-7119457D01*
X8768400Y-7205171D01*
X8754114Y-7233743D01*
X8739828Y-7248029D01*
X8711257Y-7262314D01*
X8668400Y-7262314D01*
X8939828Y-7262314D02*
X8911257Y-7248029D01*
X8896971Y-7219457D01*
X8896971Y-6962314D01*
X9168400Y-7248029D02*
X9139828Y-7262314D01*
X9082686Y-7262314D01*
X9054114Y-7248029D01*
X9039828Y-7219457D01*
X9039828Y-7105171D01*
X9054114Y-7076600D01*
X9082686Y-7062314D01*
X9139828Y-7062314D01*
X9168400Y-7076600D01*
X9182686Y-7105171D01*
X9182686Y-7133743D01*
X9039828Y-7162314D01*
X9296971Y-7248029D02*
X9325543Y-7262314D01*
X9382686Y-7262314D01*
X9411257Y-7248029D01*
X9425543Y-7219457D01*
X9425543Y-7205171D01*
X9411257Y-7176600D01*
X9382686Y-7162314D01*
X9339828Y-7162314D01*
X9311257Y-7148029D01*
X9296971Y-7119457D01*
X9296971Y-7105171D01*
X9311257Y-7076600D01*
X9339828Y-7062314D01*
X9382686Y-7062314D01*
X9411257Y-7076600D01*
X9525543Y-7376600D02*
X9539828Y-7362314D01*
X9568400Y-7319457D01*
X9582686Y-7290886D01*
X9596971Y-7248029D01*
X9611257Y-7176600D01*
X9611257Y-7119457D01*
X9596971Y-7048029D01*
X9582686Y-7005171D01*
X9568400Y-6976600D01*
X9539828Y-6933743D01*
X9525543Y-6919457D01*
M02*
