%FSLAX45Y45*%
G04 Gerber Fmt 4.5, Leading zero omitted, Abs format (unit mm)*
G04 Created by KiCad (PCBNEW (5.1.7)-1) date 2020-12-07 21:31:36*
%MOMM*%
%LPD*%
G01*
G04 APERTURE LIST*
%TA.AperFunction,Profile*%
%ADD10C,0.050000*%
%TD*%
%ADD11C,0.200000*%
%ADD12C,0.300000*%
G04 APERTURE END LIST*
D10*
X2755900Y-5372100D02*
X2755900Y-2374900D01*
X8166100Y-5372100D02*
X2755900Y-5372100D01*
X8166100Y-2374900D02*
X8166100Y-5372100D01*
X2755900Y-2374900D02*
X8166100Y-2374900D01*
D11*
D12*
X3039828Y-5840314D02*
X3039828Y-5540314D01*
X3111257Y-5540314D01*
X3154114Y-5554600D01*
X3182686Y-5583172D01*
X3196971Y-5611743D01*
X3211257Y-5668886D01*
X3211257Y-5711743D01*
X3196971Y-5768886D01*
X3182686Y-5797457D01*
X3154114Y-5826029D01*
X3111257Y-5840314D01*
X3039828Y-5840314D01*
X3339828Y-5840314D02*
X3339828Y-5640314D01*
X3339828Y-5697457D02*
X3354114Y-5668886D01*
X3368400Y-5654600D01*
X3396971Y-5640314D01*
X3425543Y-5640314D01*
X3525543Y-5840314D02*
X3525543Y-5640314D01*
X3525543Y-5540314D02*
X3511257Y-5554600D01*
X3525543Y-5568886D01*
X3539828Y-5554600D01*
X3525543Y-5540314D01*
X3525543Y-5568886D01*
X3711257Y-5840314D02*
X3682686Y-5826029D01*
X3668400Y-5797457D01*
X3668400Y-5540314D01*
X3868400Y-5840314D02*
X3839828Y-5826029D01*
X3825543Y-5797457D01*
X3825543Y-5540314D01*
X4211257Y-5840314D02*
X4211257Y-5540314D01*
X4311257Y-5754600D01*
X4411257Y-5540314D01*
X4411257Y-5840314D01*
X4682686Y-5840314D02*
X4682686Y-5683171D01*
X4668400Y-5654600D01*
X4639828Y-5640314D01*
X4582686Y-5640314D01*
X4554114Y-5654600D01*
X4682686Y-5826029D02*
X4654114Y-5840314D01*
X4582686Y-5840314D01*
X4554114Y-5826029D01*
X4539828Y-5797457D01*
X4539828Y-5768886D01*
X4554114Y-5740314D01*
X4582686Y-5726029D01*
X4654114Y-5726029D01*
X4682686Y-5711743D01*
X4825543Y-5640314D02*
X4825543Y-5940314D01*
X4825543Y-5654600D02*
X4854114Y-5640314D01*
X4911257Y-5640314D01*
X4939828Y-5654600D01*
X4954114Y-5668886D01*
X4968400Y-5697457D01*
X4968400Y-5783171D01*
X4954114Y-5811743D01*
X4939828Y-5826029D01*
X4911257Y-5840314D01*
X4854114Y-5840314D01*
X4825543Y-5826029D01*
X5096971Y-5811743D02*
X5111257Y-5826029D01*
X5096971Y-5840314D01*
X5082686Y-5826029D01*
X5096971Y-5811743D01*
X5096971Y-5840314D01*
X5096971Y-5654600D02*
X5111257Y-5668886D01*
X5096971Y-5683171D01*
X5082686Y-5668886D01*
X5096971Y-5654600D01*
X5096971Y-5683171D01*
M02*
