<?xml version="1.0" encoding="UTF-8" standalone="no"?>
<svg
   xmlns:dc="http://purl.org/dc/elements/1.1/"
   xmlns:cc="http://creativecommons.org/ns#"
   xmlns:rdf="http://www.w3.org/1999/02/22-rdf-syntax-ns#"
   xmlns:svg="http://www.w3.org/2000/svg"
   xmlns="http://www.w3.org/2000/svg"
   xmlns:sodipodi="http://sodipodi.sourceforge.net/DTD/sodipodi-0.dtd"
   xmlns:inkscape="http://www.inkscape.org/namespaces/inkscape"
   version="1.1"
   id="svg1039"
   xml:space="preserve"
   width="433.33334"
   height="694.66669"
   viewBox="0 0 433.33334 694.66669"
   sodipodi:docname="AccSMagnet.svg"
   inkscape:version="1.0.1 (3bc2e813f5, 2020-09-07)"><metadata
     id="metadata1045"><rdf:RDF><cc:Work
         rdf:about=""><dc:format>image/svg+xml</dc:format><dc:type
           rdf:resource="http://purl.org/dc/dcmitype/StillImage" /><dc:title></dc:title></cc:Work></rdf:RDF></metadata><defs
     id="defs1043" /><sodipodi:namedview
     pagecolor="#ffffff"
     bordercolor="#666666"
     borderopacity="1"
     objecttolerance="10"
     gridtolerance="10"
     guidetolerance="10"
     inkscape:pageopacity="0"
     inkscape:pageshadow="2"
     inkscape:window-width="1145"
     inkscape:window-height="480"
     id="namedview1041"
     showgrid="false"
     inkscape:zoom="0.80038385"
     inkscape:cx="216.66667"
     inkscape:cy="347.33334"
     inkscape:window-x="0"
     inkscape:window-y="0"
     inkscape:window-maximized="0"
     inkscape:current-layer="g1047" /><g
     id="g1047"
     inkscape:groupmode="layer"
     inkscape:label="ink_ext_XXXXXX"
     transform="matrix(1.3333333,0,0,-1.3333333,0,694.66667)"><g
       id="g1049"
       transform="scale(0.1)"><path
         d="m 2206.05,414.449 c 0,0 -125.5,-126.789 -166.6,-183.117 h -294.1 c -41.09,56.328 -166.6,183.117 -166.6,183.117 h -461.29 c 0,0 -125.511,-126.789 -166.601,-183.117 h -299.3 C 610.43,287.66 485.039,414.449 485.039,414.449 H 251.762 V 4.33984 H 2439.26 V 414.449 h -233.21"
         style="fill:#ce402c;fill-opacity:1;fill-rule:nonzero;stroke:none"
         id="path1051" /><path
         d="m 251.762,4.32813 h 2187.5 v 81.0234 h -2187.5 z"
         style="fill:#a03024;fill-opacity:1;fill-rule:nonzero;stroke:none"
         id="path1053" /><path
         d="m 2290.43,4.33203 h 148.832 v 410.117 H 2290.43 Z"
         style="fill:#a03024;fill-opacity:1;fill-rule:nonzero;stroke:none"
         id="path1055" /><path
         d="m 108.238,1365.86 h 2466.21 V 3043.83 H 108.238 Z"
         style="fill:#ce402c;fill-opacity:1;fill-rule:nonzero;stroke:none"
         id="path1057" /><path
         d="M 108.238,2968.09 H 2574.45 l -0.19,68.24 1.79,442.22 h -3.71 l -0.39,101.41 c 1.88,611.52 -542.11,779.34 -1215.39,783.2 -688.861,0 -1252.072,-161.44 -1248.669,-783.2 l -0.352,-101.41 0.781,-442.22 -0.121,-68.24"
         style="fill:#ce402c;fill-opacity:1;fill-rule:nonzero;stroke:none"
         id="path1059" /><path
         d="m 1348.63,4222.54 638.32,31.09 c 0,0 -140.82,20.82 -285.19,148.6 -94.92,83.9 -81.02,203 -81.02,203 h -554.8 c 0,0 13.83,-119.1 -81.1,-203 -144.41,-127.78 -285.192,-148.6 -285.192,-148.6 l 638.402,-31.09 v -0.51 l 5.31,0.2 5.27,-0.2 v 0.51"
         style="fill:#ce402c;fill-opacity:1;fill-rule:nonzero;stroke:none"
         id="path1061" /><path
         d="M 2102.85,5201.64 H 538.75 v -68.71 h 58.199 V 4049.65 h 258.91 V 5132.93 H 1785.86 V 4049.65 h 258.91 v 1083.28 h 58.08 v 68.71"
         style="fill:#ce402c;fill-opacity:1;fill-rule:nonzero;stroke:none"
         id="path1063" /><path
         d="m 596.949,5069.53 h 258.91 v 63.3984 h -258.91 z"
         style="fill:#a03024;fill-opacity:1;fill-rule:nonzero;stroke:none"
         id="path1065" /><path
         d="m 1785.86,5069.53 h 258.91 v 63.3984 h -258.91 z"
         style="fill:#a03024;fill-opacity:1;fill-rule:nonzero;stroke:none"
         id="path1067" /><path
         d="m 1248.75,4534.53 h 193.52 v 300 h -193.52 z"
         style="fill:#9b7f31;fill-opacity:1;fill-rule:nonzero;stroke:none"
         id="path1069" /><path
         d="m 1033.75,4834.53 h 598.91 v 94.7305 h -598.91 z"
         style="fill:#a5a58e;fill-opacity:1;fill-rule:nonzero;stroke:none"
         id="path1071" /><path
         d="m 1345.43,4987.54 c -43.98,0 -79.57,-26.09 -79.57,-58.28 h 159.3 c 0,32.19 -35.71,58.28 -79.73,58.28"
         style="fill:#7a7a6a;fill-opacity:1;fill-rule:nonzero;stroke:none"
         id="path1073" /><path
         d="m 1078.36,4834.53 h 54.1797 v 94.7305 H 1078.36 Z"
         style="fill:#d3d2b8;fill-opacity:1;fill-rule:nonzero;stroke:none"
         id="path1075" /><path
         d="m 1248.75,4834.53 h 84.4883 v 94.7305 H 1248.75 Z"
         style="fill:#d3d2b8;fill-opacity:1;fill-rule:nonzero;stroke:none"
         id="path1077" /><path
         d="m 1248.75,4834.53 v -31.8 l 193.52,-63 v 94.8 h -193.52"
         style="fill:#776026;fill-opacity:1;fill-rule:nonzero;stroke:none"
         id="path1079" /><path
         d="m 1374.65,4534.53 h 35 v 300 h -35 z"
         style="fill:#776026;fill-opacity:1;fill-rule:nonzero;stroke:none"
         id="path1081" /><path
         d="m 2576.09,3478.55 -0.35,98.4 c 1.17,390.9 -184.53,600.28 -536.33,696.06 220.2,-115.9 303.68,-309.69 302.66,-607.5 l 4.1,-98.87 -1.79,-431.09 -0.4,-149.22 h 230.47 l -0.31,61.13 1.91,431.09"
         style="fill:#a03024;fill-opacity:1;fill-rule:nonzero;stroke:none"
         id="path1083" /><path
         d="m 1029.77,4535.55 h 627.07 v 73.9805 h -627.07 z"
         style="fill:#ce402c;fill-opacity:1;fill-rule:nonzero;stroke:none"
         id="path1085" /><path
         d="m 1595.66,4834.53 h 36.9492 v 94.7305 H 1595.66 Z"
         style="fill:#7a7a6a;fill-opacity:1;fill-rule:nonzero;stroke:none"
         id="path1087" /><path
         d="m 1409.65,4834.53 h 50.3906 v 94.7305 H 1409.65 Z"
         style="fill:#7a7a6a;fill-opacity:1;fill-rule:nonzero;stroke:none"
         id="path1089" /><path
         d="m 665.27,4080.31 288.48,3.67 c 0,0 -87.031,-311.68 -102.27,-570.35 -8.39,-141.29 -8.82,-696.29 -8.82,-696.29 l -375.199,0.2 c 0,0 -8.012,634.53 12.699,770 50.891,332.58 185.11,492.77 185.11,492.77"
         style="fill:#ff6643;fill-opacity:1;fill-rule:nonzero;stroke:none"
         id="path1091" /><path
         d="m 1061.05,4535.55 h 564.5 l 13.79,-45.12 -583.99,22.5 5.7,22.62"
         style="fill:#a03024;fill-opacity:1;fill-rule:nonzero;stroke:none"
         id="path1093" /><path
         d="m 655.039,5148.75 h 423.32 v 38.7891 h -423.32 z"
         style="fill:#ff6643;fill-opacity:1;fill-rule:nonzero;stroke:none"
         id="path1095" /><path
         d="m 855.859,4150.94 v 95.11 l 482.191,-23.51 v -0.51 l 5.31,0.2 5.27,-0.2 v 0.51 l 437.23,21.29 v -89.57 l -930.001,-3.32 m 1188.911,4.29 v 23.13 l 44.88,-23.01 -44.88,-0.12"
         style="fill:#eb573a;fill-opacity:1;fill-rule:nonzero;stroke:none"
         id="path1097" /><path
         d="m 1348.63,4222.03 -5.27,0.2 -5.31,-0.2 v 0.51 l -482.191,23.51 v 24.3 l 13.2,6.6 h 916.801 v -33.12 l -437.23,-21.29 v -0.51"
         style="fill:#eb573a;fill-opacity:1;fill-rule:nonzero;stroke:none"
         id="path1099" /><path
         d="m 615.43,4150.04 240.429,120.31 v -119.41 l -240.429,-0.9 m 1170.43,4.22 v 122.69 h 65.98 l 192.93,-98.63 v -23.09 l -258.91,-0.97"
         style="fill:#eb573a;fill-opacity:1;fill-rule:nonzero;stroke:none"
         id="path1101" /><path
         d="M 2574.45,1459.65 H 108.238 l 0.121,-71.72 -0.699,-465.508 1.602,-106.563 C 108.441,652.031 142.93,518.629 206.051,410.621 H 2474.26 c 63.32,108.129 98.2,241.527 97.73,405.238 l 0.39,106.563 h 3.67 l -1.79,465.508 0.19,71.72"
         style="fill:#ce402c;fill-opacity:1;fill-rule:nonzero;stroke:none"
         id="path1103" /><path
         d="m 2343.98,1311.52 1.06,-293.98 -4.02,-106.599 c 0.46,-163.711 -34.14,-297.109 -96.84,-405.199 L 163.32,498.711 c 12.731,-33.59 25.551,-58.359 42.731,-88.09 H 2474.26 c 62.81,108.129 101.91,161.488 101.44,325.199 l 0.39,81.129 -0.04,105.473 -1.56,443.438 -230.51,-0.35"
         style="fill:#a03024;fill-opacity:1;fill-rule:nonzero;stroke:none"
         id="path1105" /><path
         d="M 467.461,573.039 H 842.66 v 774.262 H 467.461 Z"
         style="fill:#ff6643;fill-opacity:1;fill-rule:nonzero;stroke:none"
         id="path1107" /><path
         d="M 108.199,2317.15 H 2574.53 v -108.99 l -2466.331,54.5 v 54.49"
         style="fill:#a03024;fill-opacity:1;fill-rule:nonzero;stroke:none"
         id="path1109" /><path
         d="m 2674.38,2364.8 c 0,-26.44 -35.43,-47.85 -79.03,-47.85 H 87.2695 c -43.5976,0 -78.91012,21.41 -78.91012,47.85 v 47.97 c 0,26.45 35.31252,47.89 78.91012,47.89 H 2595.35 c 43.6,0 79.03,-21.44 79.03,-47.89 v -47.97"
         style="fill:#ce402c;fill-opacity:1;fill-rule:nonzero;stroke:none"
         id="path1111" /><path
         d="m 2640.35,2420.08 c 0,-8.4 -6.87,-15.31 -15.27,-15.31 H 66.3711 c -8.4023,0 -15.3203,6.91 -15.3203,15.31 0,8.4 6.918,15.27 15.3203,15.27 H 2625.08 c 8.4,0 15.27,-6.87 15.27,-15.27"
         style="fill:#ff6643;fill-opacity:1;fill-rule:nonzero;stroke:none"
         id="path1113" /><path
         d="m 2343.98,1346.29 h 230.469 v 905.043 H 2343.98 Z"
         style="fill:#a03024;fill-opacity:1;fill-rule:nonzero;stroke:none"
         id="path1115" /><path
         d="M 842.66,1307.54 H 467.461 v 947.07 l 375.199,-8.2 v -938.87"
         style="fill:#ff6643;fill-opacity:1;fill-rule:nonzero;stroke:none"
         id="path1117" /><path
         d="m 2343.98,2460.67 h 230.469 v 525.66 H 2343.98 Z"
         style="fill:#a03024;fill-opacity:1;fill-rule:nonzero;stroke:none"
         id="path1119" /><path
         d="M 842.66,2460.78 H 467.461 v 382.11 l 375.199,0.04 v -382.15"
         style="fill:#ff6643;fill-opacity:1;fill-rule:nonzero;stroke:none"
         id="path1121" /><path
         d="m 2777.34,1402.23 h 34.0586 v 193.199 H 2777.34 Z"
         style="fill:#212121;fill-opacity:1;fill-rule:nonzero;stroke:none"
         id="path1123" /><path
         d="m 2430,1192.66 c 0,1.48 -3.32,6.68 -7.38,11.52 -9.77,11.6 -106.96,105.66 -109.18,105.66 -2.85,0 1.44,-6.48 11.83,-18 40,-44.14 98.44,-101.92 103.13,-101.92 0.86,0 1.6,1.21 1.6,2.74 z m 43.44,26.6 c 0,2.73 -16.45,15.78 -45.2,35.86 -40.39,28.24 -93.47,68.32 -103.98,78.43 -10.24,9.89 -11.02,13.99 -3.36,17.66 6.48,3.09 52.07,6.17 74.8,5.04 17.85,-0.9 23.44,0.55 11.29,2.97 -11.01,2.19 -64.84,18.87 -71.01,21.99 -8.6,4.41 -16.68,14.1 -19.07,22.93 -2.42,8.98 -1.13,30.86 3.83,63.91 3.32,22.34 10.98,61.56 13.05,66.99 0.55,1.41 0.19,2.54 -0.66,2.54 -2.5,0 -11.68,-28.67 -20.4,-63.79 -8.98,-36.13 -10.23,-55.27 -4.92,-74.22 3.56,-12.66 13.32,-23.4 27.11,-29.84 l 9.06,-4.22 h -6.21 c -9.49,0 -26.36,-3.48 -30.74,-6.29 -4.53,-2.89 -5.08,-9.02 -1.48,-15.98 3.63,-6.95 24.02,-25.9 42.77,-39.69 9.06,-6.68 25.51,-18.78 36.48,-26.91 18.01,-13.28 76.33,-52.46 85.12,-57.15 2.11,-1.13 3.52,-1.21 3.52,-0.23 z"
         style="fill:#000000;fill-opacity:1;fill-rule:nonzero;stroke:none"
         id="path1125" /><path
         d="m 2160.2,1264.45 c 7.96,15.86 35.19,97.97 33.78,102 -0.93,2.73 -16.68,-28.6 -25.62,-51.02 -3.83,-9.69 -8.95,-25.08 -11.33,-34.26 -3.75,-14.49 -4.02,-17.03 -1.83,-19.22 2.14,-2.15 2.81,-1.83 5,2.5 z m 15.46,75.86 c 10.51,18.52 12.86,24.49 14.34,36.41 1.41,11.33 -1.05,22.58 -6.05,27.58 -6.22,6.21 -22.5,3.86 -36.92,-5.28 l -8.2,-5.23 3.44,6.8 c 6.13,11.99 12.22,32.65 12.22,41.28 0,17.66 -12.46,26.92 -36.01,26.88 -16.06,0 -23.44,-2.42 -44.14,-14.26 -14.42,-8.28 -22.23,-14.41 -14.42,-11.33 1.84,0.71 12.38,3.91 23.44,7.11 41.64,12.03 62.46,11.06 62.46,-2.93 0,-12.65 -11.21,-40.86 -26.84,-67.54 -6.52,-11.13 -7.3,-16.64 -2.69,-19.45 1.95,-1.21 5.94,1.72 16.48,12.11 15.08,14.84 31.92,24.77 41.96,24.77 4.8,0 5.97,-0.78 6.91,-4.57 1.49,-6.06 -3.48,-28.75 -10.78,-49.03 -6.56,-18.08 -6.45,-17.65 -4.61,-17.65 0.7,0 4.96,6.44 9.41,14.33 z"
         style="fill:#000000;fill-opacity:1;fill-rule:nonzero;stroke:none"
         id="path1127" /><path
         d="M 1899.49,1219.14 1651.41,726.871 c -1.41,-2.851 -1.64,-6.172 -0.59,-9.211 1.06,-3.051 3.32,-5.551 6.21,-6.918 l 82.19,-38.32 c 2.93,-1.371 6.29,-1.481 9.3,-0.352 3,1.129 5.43,3.481 6.68,6.41 l 217.77,506.4 c 2.54,5.9 -0.08,12.78 -5.9,15.51 l -51.91,24.18 c -5.82,2.7 -12.78,0.31 -15.67,-5.43"
         style="fill:#616e7d;fill-opacity:1;fill-rule:nonzero;stroke:none"
         id="path1129" /><path
         d="m 1782.07,1270.04 295.82,-137.93 94.45,202.62 c 0.94,1.99 2.15,3.75 3.32,5.58 l -296.95,138.48 c -0.66,-2.07 -1.25,-4.14 -2.15,-6.13 l -94.49,-202.62"
         style="fill:#616e7d;fill-opacity:1;fill-rule:nonzero;stroke:none"
         id="path1131" /><path
         d="m 2175.66,1340.31 c -1.17,-1.83 -2.38,-3.59 -3.32,-5.58 l -94.45,-202.62 -1.37,-2.85 c -11.32,-24.34 -0.82,-53.24 23.52,-64.61 24.34,-11.33 53.24,-0.78 64.57,23.51 l 95.82,205.47 c 11.33,24.34 0.82,53.24 -23.52,64.57 -22.3,10.43 -48.32,2.31 -61.25,-17.89"
         style="fill:#aad4c8;fill-opacity:1;fill-rule:nonzero;stroke:none"
         id="path1133" /><path
         d="m 1788.44,1513.71 -95.78,-205.43 c -11.37,-24.33 -0.82,-53.28 23.51,-64.61 24.3,-11.33 53.21,-0.82 64.57,23.52 l 1.33,2.85 94.49,202.62 c 0.9,1.99 1.49,4.06 2.15,6.13 7.11,22.89 -3.36,48.05 -25.66,58.44 -24.34,11.36 -53.25,0.82 -64.61,-23.52"
         style="fill:#aad4c8;fill-opacity:1;fill-rule:nonzero;stroke:none"
         id="path1135" /><path
         d="m 2819.3,1352.66 c 0.39,0 0.9,0 1.44,0 49.92,0.19 66.02,3.24 71.14,5.11 3,1.06 5.54,2.27 8.2,3.6 6.37,3.04 13.59,6.52 29.57,8.59 11.17,1.49 24.53,2.15 37.62,2.03 13.94,-0.19 26.95,-1.29 36.68,-3.24 15.85,-3.09 21.13,-7.58 25.82,-11.56 1.01,-0.9 2.03,-1.72 3.08,-2.54 4.73,-3.48 14.96,-7.07 27.31,-6.99 13.9,0 24.22,4.45 27.03,5.86 1.25,0.62 2.5,1.25 3.79,1.91 6.56,3.4 14.06,7.27 29.84,9.77 11.72,1.83 26.72,2.57 42.19,2.07 14.29,-0.51 27.89,-1.92 38.24,-4.07 17.62,-3.71 27.73,-9.41 28.52,-16.01 l -28.25,-0.2 c -0.35,2.85 -3.36,8.17 -19.68,11.6 -12.7,2.66 -32.74,3.28 -44.73,1.41 -9.26,-1.45 -14.57,-4.18 -20.16,-7.07 -1.32,-0.66 -2.65,-1.37 -4.06,-2.07 -3.55,-1.72 -9.73,-4.18 -18.75,-6.17 -9.96,-2.19 -21.64,-3.32 -33.75,-3.36 -28.87,0 -47.15,5.94 -54.65,11.56 -1.21,0.9 -2.26,1.8 -3.32,2.7 -4.02,3.39 -7.81,6.6 -17.3,8.47 -10.12,1.99 -27.85,2.19 -41.21,0.47 -8.28,-1.09 -12.86,-3.28 -18.17,-5.86 -2.89,-1.4 -5.9,-2.85 -9.84,-4.26 -9.65,-3.43 -27.11,-5.82 -51.95,-7.07 -18.21,-0.93 -35.4,-0.97 -42.74,-1.01 h -1.33 c 0,0 -10.15,0.31 -10.15,3.08 0,3.17 9.57,3.21 9.57,3.21"
         style="fill:#4a6ac6;fill-opacity:1;fill-rule:nonzero;stroke:none"
         id="path1137" /><path
         d="m 2812.34,1365.43 c 25.04,0.31 43.09,-2.66 57.62,-5.04 10.51,-1.72 19.61,-3.2 29.1,-3.32 15.04,-0.12 28.44,1.64 43.99,3.75 13.24,1.84 26.87,3.67 43.4,4.57 13.16,0.7 27.26,0.63 40.74,-0.19 13.47,-0.83 25.74,-2.39 35.47,-4.46 14.22,-3.08 23.63,-4.22 36.09,-4.26 10.2,0 15.04,0.94 25.9,3.25 3.2,0.66 6.8,1.4 10.82,2.18 5.04,0.94 9.92,3.13 15.12,5.43 11.64,5.2 27.61,12.31 66.13,14.18 l 6.52,-6.6 c -24.29,-1.17 -35,-5.97 -45.39,-10.58 -6.64,-2.97 -12.85,-5.75 -22.69,-7.58 -3.36,-0.67 -6.49,-1.33 -9.5,-1.96 -11.36,-2.42 -24.29,-5.15 -47.34,-5.07 -25.47,0.07 -42.42,3 -56.91,6.13 -12.35,2.69 -31.1,3.83 -47.86,2.93 -11.87,-0.63 -22.92,-2.11 -34.64,-3.71 -17.31,-2.35 -36.88,-5 -61.18,-4.77 -18.75,0.2 -33.16,2.54 -45.89,4.65 -12.74,2.11 -23.75,3.91 -37.86,3.75 l -1.64,6.76"
         style="fill:#edda2b;fill-opacity:1;fill-rule:nonzero;stroke:none"
         id="path1139" /><path
         d="m 2819.3,1345.86 v 6.76 c 18.16,0 29.33,1.75 42.3,3.79 11.6,1.79 23.6,3.67 40.12,4.02 30.31,0.66 50.58,-1.33 68.48,-3.05 9.64,-0.93 18.75,-1.79 29.45,-2.34 20.51,-1.02 33.75,-0.55 45.7,1.52 19.57,3.44 44.73,3.87 54.61,3.87 17.19,0 33.56,-1.64 54.65,-5.47 30.7,-5.62 57.15,-7.89 80.82,-6.91 l 5.35,-6.68 c -19.45,-0.78 -40.08,-0.08 -61.29,2.03 -14.29,1.44 -28.75,3.51 -44.18,6.33 -14.96,2.73 -25.82,3.94 -35.23,3.9 -5.24,0 -23.4,-0.19 -35.82,-2.38 -25,-4.38 -51.21,-3.79 -71.25,-2.81 -13.52,0.66 -24.42,1.72 -34.96,2.73 -16.57,1.6 -30.9,3.01 -53.4,2.5 -8.56,-0.19 -16.06,-1.33 -25.59,-2.81 -14.26,-2.23 -31.99,-5 -59.76,-5"
         style="fill:#e22814;fill-opacity:1;fill-rule:nonzero;stroke:none"
         id="path1141" /><path
         d="m 2811.41,1341.33 h 20.6289 v 315 H 2811.41 Z"
         style="fill:#217b21;fill-opacity:1;fill-rule:nonzero;stroke:none"
         id="path1143" /><path
         d="m 2574.49,1438.59 h 202.852 v 120.469 H 2574.49 Z"
         style="fill:#c8c8c8;fill-opacity:1;fill-rule:nonzero;stroke:none"
         id="path1145" /><g
         id="g1147"
         transform="scale(10)"><text
           transform="matrix(1,0,0,-1,205.011,189.466)"
           style="font-variant:normal;font-weight:normal;font-size:6.99999px;font-family:Verdana;-inkscape-font-specification:Verdana;writing-mode:lr-tb;fill:#000000;fill-opacity:1;fill-rule:nonzero;stroke:none"
           id="text1151"><tspan
             x="0 4.787993 8.434988 12.081983 16.253977 18.171974 22.343967 25.332964 29.581957 36.392948 40.564941 43.322937 47.49493"
             y="0"
             sodipodi:role="line"
             id="tspan1149">Accelerometer</tspan></text></g><path
         d="m 2767.38,1539.61 10.71,31.76 8.94,-50.94 -51.64,7.27 z"
         style="fill:#000000;fill-opacity:1;fill-rule:nonzero;stroke:none"
         id="path1153" /><path
         d="M 2767.54,1539.77 2416.02,1884.1"
         style="fill:none;stroke:#000000;stroke-width:7.49999;stroke-linecap:butt;stroke-linejoin:miter;stroke-miterlimit:4;stroke-dasharray:none;stroke-opacity:1"
         id="path1155" /><path
         d="m 2685.78,1435.12 -10.7,-31.76 -8.99,50.94 51.64,-7.27 z"
         style="fill:#000000;fill-opacity:1;fill-rule:nonzero;stroke:none"
         id="path1157" /><path
         d="m 2685.78,1435.12 351.52,-344.3"
         style="fill:none;stroke:#000000;stroke-width:7.49999;stroke-linecap:butt;stroke-linejoin:miter;stroke-miterlimit:4;stroke-dasharray:none;stroke-opacity:1"
         id="path1159" /><g
         id="g1161"
         transform="scale(10)"><text
           transform="matrix(0.920941,0,0,-1,293.098,102.861)"
           style="font-variant:normal;font-weight:normal;font-size:6.25224px;font-family:Verdana;-inkscape-font-specification:Verdana;writing-mode:lr-tb;fill:#000000;fill-opacity:1;fill-rule:nonzero;stroke:none"
           id="text1165"><tspan
             x="0 5.2706385 9.0282345 12.92338 16.881048 20.607384"
             y="0"
             sodipodi:role="line"
             id="tspan1163">Magnet</tspan></text></g></g></g></svg>
