<?xml version="1.0" encoding="UTF-8" standalone="no"?>
<svg
   xmlns:dc="http://purl.org/dc/elements/1.1/"
   xmlns:cc="http://creativecommons.org/ns#"
   xmlns:rdf="http://www.w3.org/1999/02/22-rdf-syntax-ns#"
   xmlns:svg="http://www.w3.org/2000/svg"
   xmlns="http://www.w3.org/2000/svg"
   xmlns:sodipodi="http://sodipodi.sourceforge.net/DTD/sodipodi-0.dtd"
   xmlns:inkscape="http://www.inkscape.org/namespaces/inkscape"
   version="1.1"
   id="svg10"
   xml:space="preserve"
   width="488"
   height="404"
   viewBox="0 0 488 404"
   sodipodi:docname="AcImAuBot.svg"
   inkscape:version="1.0.1 (3bc2e813f5, 2020-09-07)"><metadata
     id="metadata16"><rdf:RDF><cc:Work
         rdf:about=""><dc:format>image/svg+xml</dc:format><dc:type
           rdf:resource="http://purl.org/dc/dcmitype/StillImage" /><dc:title></dc:title></cc:Work></rdf:RDF></metadata><defs
     id="defs14" /><sodipodi:namedview
     pagecolor="#ffffff"
     bordercolor="#666666"
     borderopacity="1"
     objecttolerance="10"
     gridtolerance="10"
     guidetolerance="10"
     inkscape:pageopacity="0"
     inkscape:pageshadow="2"
     inkscape:window-width="747"
     inkscape:window-height="480"
     id="namedview12"
     showgrid="false"
     inkscape:zoom="1.4207921"
     inkscape:cx="244"
     inkscape:cy="202"
     inkscape:window-x="0"
     inkscape:window-y="0"
     inkscape:window-maximized="0"
     inkscape:current-layer="g18" /><g
     id="g18"
     inkscape:groupmode="layer"
     inkscape:label="AcImAuBot"
     transform="matrix(1.3333333,0,0,-1.3333333,0,404)"><g
       id="g20"
       transform="matrix(0.125,0,0,-0.125,0,303)"><g
         id="g22"
         transform="matrix(6,0,0,6,-205,-81.375038)"><path
           d="M 0,0 H 560 V 420 H 0 Z"
           style="fill:#ffffff;fill-opacity:1;fill-rule:nonzero;stroke:none"
           id="path24" /></g><g
         id="g26"
         transform="matrix(6,0,0,6,-205,-81.375038)"><path
           d="M 73,374 H 507 V 31 H 73 Z"
           style="fill:#ffffff;fill-opacity:1;fill-rule:nonzero;stroke:none"
           id="path28" /></g><g
         id="g30"
         transform="matrix(6,0,0,6,-205,-81.375038)"><path
           d="M 73,374 H 507"
           style="fill:none;stroke:#262626;stroke-width:0.666667;stroke-linecap:square;stroke-linejoin:round;stroke-miterlimit:10;stroke-dasharray:none;stroke-opacity:1"
           id="path32" /></g><g
         id="g34"
         transform="matrix(6,0,0,6,-205,-81.375038)"><path
           d="M 73,31 H 507"
           style="fill:none;stroke:#262626;stroke-width:0.666667;stroke-linecap:square;stroke-linejoin:round;stroke-miterlimit:10;stroke-dasharray:none;stroke-opacity:1"
           id="path36" /></g><g
         id="g38"
         transform="matrix(6,0,0,6,-205,-81.375038)"><path
           d="m 73,374 v -4.34"
           style="fill:none;stroke:#262626;stroke-width:0.666667;stroke-linecap:square;stroke-linejoin:round;stroke-miterlimit:10;stroke-dasharray:none;stroke-opacity:1"
           id="path40" /></g><g
         id="g42"
         transform="matrix(6,0,0,6,-205,-81.375038)"><path
           d="m 116.4,374 v -4.34"
           style="fill:none;stroke:#262626;stroke-width:0.666667;stroke-linecap:square;stroke-linejoin:round;stroke-miterlimit:10;stroke-dasharray:none;stroke-opacity:1"
           id="path44" /></g><g
         id="g46"
         transform="matrix(6,0,0,6,-205,-81.375038)"><path
           d="m 159.8,374 v -4.34"
           style="fill:none;stroke:#262626;stroke-width:0.666667;stroke-linecap:square;stroke-linejoin:round;stroke-miterlimit:10;stroke-dasharray:none;stroke-opacity:1"
           id="path48" /></g><g
         id="g50"
         transform="matrix(6,0,0,6,-205,-81.375038)"><path
           d="m 203.2,374 v -4.34"
           style="fill:none;stroke:#262626;stroke-width:0.666667;stroke-linecap:square;stroke-linejoin:round;stroke-miterlimit:10;stroke-dasharray:none;stroke-opacity:1"
           id="path52" /></g><g
         id="g54"
         transform="matrix(6,0,0,6,-205,-81.375038)"><path
           d="m 246.60001,374 v -4.34"
           style="fill:none;stroke:#262626;stroke-width:0.666667;stroke-linecap:square;stroke-linejoin:round;stroke-miterlimit:10;stroke-dasharray:none;stroke-opacity:1"
           id="path56" /></g><g
         id="g58"
         transform="matrix(6,0,0,6,-205,-81.375038)"><path
           d="m 290,374 v -4.34"
           style="fill:none;stroke:#262626;stroke-width:0.666667;stroke-linecap:square;stroke-linejoin:round;stroke-miterlimit:10;stroke-dasharray:none;stroke-opacity:1"
           id="path60" /></g><g
         id="g62"
         transform="matrix(6,0,0,6,-205,-81.375038)"><path
           d="m 333.39999,374 v -4.34"
           style="fill:none;stroke:#262626;stroke-width:0.666667;stroke-linecap:square;stroke-linejoin:round;stroke-miterlimit:10;stroke-dasharray:none;stroke-opacity:1"
           id="path64" /></g><g
         id="g66"
         transform="matrix(6,0,0,6,-205,-81.375038)"><path
           d="m 376.79999,374 v -4.34"
           style="fill:none;stroke:#262626;stroke-width:0.666667;stroke-linecap:square;stroke-linejoin:round;stroke-miterlimit:10;stroke-dasharray:none;stroke-opacity:1"
           id="path68" /></g><g
         id="g70"
         transform="matrix(6,0,0,6,-205,-81.375038)"><path
           d="m 420.20001,374 v -4.34"
           style="fill:none;stroke:#262626;stroke-width:0.666667;stroke-linecap:square;stroke-linejoin:round;stroke-miterlimit:10;stroke-dasharray:none;stroke-opacity:1"
           id="path72" /></g><g
         id="g74"
         transform="matrix(6,0,0,6,-205,-81.375038)"><path
           d="m 463.60001,374 v -4.34"
           style="fill:none;stroke:#262626;stroke-width:0.666667;stroke-linecap:square;stroke-linejoin:round;stroke-miterlimit:10;stroke-dasharray:none;stroke-opacity:1"
           id="path76" /></g><g
         id="g78"
         transform="matrix(6,0,0,6,-205,-81.375038)"><path
           d="m 507,374 v -4.34"
           style="fill:none;stroke:#262626;stroke-width:0.666667;stroke-linecap:square;stroke-linejoin:round;stroke-miterlimit:10;stroke-dasharray:none;stroke-opacity:1"
           id="path80" /></g><g
         id="g82"
         transform="matrix(6,0,0,6,-205,-81.375038)"><path
           d="m 73,31 v 4.339989"
           style="fill:none;stroke:#262626;stroke-width:0.666667;stroke-linecap:square;stroke-linejoin:round;stroke-miterlimit:10;stroke-dasharray:none;stroke-opacity:1"
           id="path84" /></g><g
         id="g86"
         transform="matrix(6,0,0,6,-205,-81.375038)"><path
           d="m 116.4,31 v 4.339989"
           style="fill:none;stroke:#262626;stroke-width:0.666667;stroke-linecap:square;stroke-linejoin:round;stroke-miterlimit:10;stroke-dasharray:none;stroke-opacity:1"
           id="path88" /></g><g
         id="g90"
         transform="matrix(6,0,0,6,-205,-81.375038)"><path
           d="m 159.8,31 v 4.339989"
           style="fill:none;stroke:#262626;stroke-width:0.666667;stroke-linecap:square;stroke-linejoin:round;stroke-miterlimit:10;stroke-dasharray:none;stroke-opacity:1"
           id="path92" /></g><g
         id="g94"
         transform="matrix(6,0,0,6,-205,-81.375038)"><path
           d="m 203.2,31 v 4.339989"
           style="fill:none;stroke:#262626;stroke-width:0.666667;stroke-linecap:square;stroke-linejoin:round;stroke-miterlimit:10;stroke-dasharray:none;stroke-opacity:1"
           id="path96" /></g><g
         id="g98"
         transform="matrix(6,0,0,6,-205,-81.375038)"><path
           d="m 246.60001,31 v 4.339989"
           style="fill:none;stroke:#262626;stroke-width:0.666667;stroke-linecap:square;stroke-linejoin:round;stroke-miterlimit:10;stroke-dasharray:none;stroke-opacity:1"
           id="path100" /></g><g
         id="g102"
         transform="matrix(6,0,0,6,-205,-81.375038)"><path
           d="m 290,31 v 4.339989"
           style="fill:none;stroke:#262626;stroke-width:0.666667;stroke-linecap:square;stroke-linejoin:round;stroke-miterlimit:10;stroke-dasharray:none;stroke-opacity:1"
           id="path104" /></g><g
         id="g106"
         transform="matrix(6,0,0,6,-205,-81.375038)"><path
           d="m 333.39999,31 v 4.339989"
           style="fill:none;stroke:#262626;stroke-width:0.666667;stroke-linecap:square;stroke-linejoin:round;stroke-miterlimit:10;stroke-dasharray:none;stroke-opacity:1"
           id="path108" /></g><g
         id="g110"
         transform="matrix(6,0,0,6,-205,-81.375038)"><path
           d="m 376.79999,31 v 4.339989"
           style="fill:none;stroke:#262626;stroke-width:0.666667;stroke-linecap:square;stroke-linejoin:round;stroke-miterlimit:10;stroke-dasharray:none;stroke-opacity:1"
           id="path112" /></g><g
         id="g114"
         transform="matrix(6,0,0,6,-205,-81.375038)"><path
           d="m 420.20001,31 v 4.339989"
           style="fill:none;stroke:#262626;stroke-width:0.666667;stroke-linecap:square;stroke-linejoin:round;stroke-miterlimit:10;stroke-dasharray:none;stroke-opacity:1"
           id="path116" /></g><g
         id="g118"
         transform="matrix(6,0,0,6,-205,-81.375038)"><path
           d="m 463.60001,31 v 4.339989"
           style="fill:none;stroke:#262626;stroke-width:0.666667;stroke-linecap:square;stroke-linejoin:round;stroke-miterlimit:10;stroke-dasharray:none;stroke-opacity:1"
           id="path120" /></g><g
         id="g122"
         transform="matrix(6,0,0,6,-205,-81.375038)"><path
           d="m 507,31 v 4.339989"
           style="fill:none;stroke:#262626;stroke-width:0.666667;stroke-linecap:square;stroke-linejoin:round;stroke-miterlimit:10;stroke-dasharray:none;stroke-opacity:1"
           id="path124" /></g><g
         id="g126"><g
           id="g128"
           transform="matrix(6,0,0,6,233,2194.625)"><text
             transform="translate(-4,14)"
             style="font-variant:normal;font-weight:normal;font-size:13.333px;font-family:Helvetica;-inkscape-font-specification:Helvetica;writing-mode:lr-tb;fill:#262626;fill-opacity:1;fill-rule:nonzero;stroke:none"
             id="text132"><tspan
               x="0"
               y="0"
               id="tspan130">0</tspan></text></g></g><g
         id="g134"><g
           id="g136"
           transform="matrix(6,0,0,6,493.40001,2194.625)"><text
             transform="translate(-11.5,14)"
             style="font-variant:normal;font-weight:normal;font-size:13.333px;font-family:Helvetica;-inkscape-font-specification:Helvetica;writing-mode:lr-tb;fill:#262626;fill-opacity:1;fill-rule:nonzero;stroke:none"
             id="text140"><tspan
               x="0 7.4131479 14.826296"
               y="0"
               sodipodi:role="line"
               id="tspan138">200</tspan></text></g></g><g
         id="g142"><g
           id="g144"
           transform="matrix(6,0,0,6,753.80002,2194.625)"><text
             transform="translate(-11.5,14)"
             style="font-variant:normal;font-weight:normal;font-size:13.333px;font-family:Helvetica;-inkscape-font-specification:Helvetica;writing-mode:lr-tb;fill:#262626;fill-opacity:1;fill-rule:nonzero;stroke:none"
             id="text148"><tspan
               x="0 7.4131479 14.826296"
               y="0"
               sodipodi:role="line"
               id="tspan146">400</tspan></text></g></g><g
         id="g150"><g
           id="g152"
           transform="matrix(6,0,0,6,1014.2,2194.625)"><text
             transform="translate(-11.5,14)"
             style="font-variant:normal;font-weight:normal;font-size:13.333px;font-family:Helvetica;-inkscape-font-specification:Helvetica;writing-mode:lr-tb;fill:#262626;fill-opacity:1;fill-rule:nonzero;stroke:none"
             id="text156"><tspan
               x="0 7.4131479 14.826296"
               y="0"
               sodipodi:role="line"
               id="tspan154">600</tspan></text></g></g><g
         id="g158"><g
           id="g160"
           transform="matrix(6,0,0,6,1274.6,2194.625)"><text
             transform="translate(-11.5,14)"
             style="font-variant:normal;font-weight:normal;font-size:13.333px;font-family:Helvetica;-inkscape-font-specification:Helvetica;writing-mode:lr-tb;fill:#262626;fill-opacity:1;fill-rule:nonzero;stroke:none"
             id="text164"><tspan
               x="0 7.4131479 14.826296"
               y="0"
               sodipodi:role="line"
               id="tspan162">800</tspan></text></g></g><g
         id="g166"><g
           id="g168"
           transform="matrix(6,0,0,6,1535,2194.625)"><text
             transform="translate(-15,14)"
             style="font-variant:normal;font-weight:normal;font-size:13.333px;font-family:Helvetica;-inkscape-font-specification:Helvetica;writing-mode:lr-tb;fill:#262626;fill-opacity:1;fill-rule:nonzero;stroke:none"
             id="text172"><tspan
               x="0 7.4131479 14.826296 22.239445"
               y="0"
               sodipodi:role="line"
               id="tspan170">1000</tspan></text></g></g><g
         id="g174"><g
           id="g176"
           transform="matrix(6,0,0,6,1795.4,2194.625)"><text
             transform="translate(-15,14)"
             style="font-variant:normal;font-weight:normal;font-size:13.333px;font-family:Helvetica;-inkscape-font-specification:Helvetica;writing-mode:lr-tb;fill:#262626;fill-opacity:1;fill-rule:nonzero;stroke:none"
             id="text180"><tspan
               x="0 7.4131479 14.826296 22.239445"
               y="0"
               sodipodi:role="line"
               id="tspan178">1200</tspan></text></g></g><g
         id="g182"><g
           id="g184"
           transform="matrix(6,0,0,6,2055.7999,2194.625)"><text
             transform="translate(-15,14)"
             style="font-variant:normal;font-weight:normal;font-size:13.333px;font-family:Helvetica;-inkscape-font-specification:Helvetica;writing-mode:lr-tb;fill:#262626;fill-opacity:1;fill-rule:nonzero;stroke:none"
             id="text188"><tspan
               x="0 7.4131479 14.826296 22.239445"
               y="0"
               sodipodi:role="line"
               id="tspan186">1400</tspan></text></g></g><g
         id="g190"><g
           id="g192"
           transform="matrix(6,0,0,6,2316.2001,2194.625)"><text
             transform="translate(-15,14)"
             style="font-variant:normal;font-weight:normal;font-size:13.333px;font-family:Helvetica;-inkscape-font-specification:Helvetica;writing-mode:lr-tb;fill:#262626;fill-opacity:1;fill-rule:nonzero;stroke:none"
             id="text196"><tspan
               x="0 7.4131479 14.826296 22.239445"
               y="0"
               sodipodi:role="line"
               id="tspan194">1600</tspan></text></g></g><g
         id="g198"><g
           id="g200"
           transform="matrix(6,0,0,6,2576.6,2194.625)"><text
             transform="translate(-15,14)"
             style="font-variant:normal;font-weight:normal;font-size:13.333px;font-family:Helvetica;-inkscape-font-specification:Helvetica;writing-mode:lr-tb;fill:#262626;fill-opacity:1;fill-rule:nonzero;stroke:none"
             id="text204"><tspan
               x="0 7.4131479 14.826296 22.239445"
               y="0"
               sodipodi:role="line"
               id="tspan202">1800</tspan></text></g></g><g
         id="g206"><g
           id="g208"
           transform="matrix(6,0,0,6,2837,2194.625)"><text
             transform="translate(-15,14)"
             style="font-variant:normal;font-weight:normal;font-size:13.333px;font-family:Helvetica;-inkscape-font-specification:Helvetica;writing-mode:lr-tb;fill:#262626;fill-opacity:1;fill-rule:nonzero;stroke:none"
             id="text212"><tspan
               x="0 7.4131479 14.826296 22.239445"
               y="0"
               sodipodi:role="line"
               id="tspan210">2000</tspan></text></g></g><g
         id="g214"><g
           id="g216"
           transform="matrix(6,0,0,6,1535.0013,2304.6249)"><text
             transform="translate(-48.5,15)"
             style="font-variant:normal;font-weight:normal;font-size:14.667px;font-family:Helvetica;-inkscape-font-specification:Helvetica;writing-mode:lr-tb;fill:#262626;fill-opacity:1;fill-rule:nonzero;stroke:none"
             id="text220"><tspan
               x="0 8.9615374 13.845648 22.0005 30.155352 38.310204 46.465057 54.619907 61.953407 69.286911 74.171021 84.76059 92.094093"
               y="0"
               sodipodi:role="line"
               id="tspan218">Frequency(Hz)</tspan></text></g></g><g
         id="g222"
         transform="matrix(6,0,0,6,-205,-81.375038)"><path
           d="M 73,374 V 31"
           style="fill:none;stroke:#262626;stroke-width:0.666667;stroke-linecap:square;stroke-linejoin:round;stroke-miterlimit:10;stroke-dasharray:none;stroke-opacity:1"
           id="path224" /></g><g
         id="g226"
         transform="matrix(6,0,0,6,-205,-81.375038)"><path
           d="M 507,374 V 31"
           style="fill:none;stroke:#262626;stroke-width:0.666667;stroke-linecap:square;stroke-linejoin:round;stroke-miterlimit:10;stroke-dasharray:none;stroke-opacity:1"
           id="path228" /></g><g
         id="g230"
         transform="matrix(6,0,0,6,-205,-81.375038)"><path
           d="m 73,374 h 4.339996"
           style="fill:none;stroke:#262626;stroke-width:0.666667;stroke-linecap:square;stroke-linejoin:round;stroke-miterlimit:10;stroke-dasharray:none;stroke-opacity:1"
           id="path232" /></g><g
         id="g234"
         transform="matrix(6,0,0,6,-205,-81.375038)"><path
           d="m 73,316.83334 h 4.339996"
           style="fill:none;stroke:#262626;stroke-width:0.666667;stroke-linecap:square;stroke-linejoin:round;stroke-miterlimit:10;stroke-dasharray:none;stroke-opacity:1"
           id="path236" /></g><g
         id="g238"
         transform="matrix(6,0,0,6,-205,-81.375038)"><path
           d="m 73,259.66666 h 4.339996"
           style="fill:none;stroke:#262626;stroke-width:0.666667;stroke-linecap:square;stroke-linejoin:round;stroke-miterlimit:10;stroke-dasharray:none;stroke-opacity:1"
           id="path240" /></g><g
         id="g242"
         transform="matrix(6,0,0,6,-205,-81.375038)"><path
           d="m 73,202.5 h 4.339996"
           style="fill:none;stroke:#262626;stroke-width:0.666667;stroke-linecap:square;stroke-linejoin:round;stroke-miterlimit:10;stroke-dasharray:none;stroke-opacity:1"
           id="path244" /></g><g
         id="g246"
         transform="matrix(6,0,0,6,-205,-81.375038)"><path
           d="m 73,145.33333 h 4.339996"
           style="fill:none;stroke:#262626;stroke-width:0.666667;stroke-linecap:square;stroke-linejoin:round;stroke-miterlimit:10;stroke-dasharray:none;stroke-opacity:1"
           id="path248" /></g><g
         id="g250"
         transform="matrix(6,0,0,6,-205,-81.375038)"><path
           d="m 73,88.166664 h 4.339996"
           style="fill:none;stroke:#262626;stroke-width:0.666667;stroke-linecap:square;stroke-linejoin:round;stroke-miterlimit:10;stroke-dasharray:none;stroke-opacity:1"
           id="path252" /></g><g
         id="g254"
         transform="matrix(6,0,0,6,-205,-81.375038)"><path
           d="m 73,31 h 4.339996"
           style="fill:none;stroke:#262626;stroke-width:0.666667;stroke-linecap:square;stroke-linejoin:round;stroke-miterlimit:10;stroke-dasharray:none;stroke-opacity:1"
           id="path256" /></g><g
         id="g258"
         transform="matrix(6,0,0,6,-205,-81.375038)"><path
           d="m 507,374 h -4.34"
           style="fill:none;stroke:#262626;stroke-width:0.666667;stroke-linecap:square;stroke-linejoin:round;stroke-miterlimit:10;stroke-dasharray:none;stroke-opacity:1"
           id="path260" /></g><g
         id="g262"
         transform="matrix(6,0,0,6,-205,-81.375038)"><path
           d="m 507,316.83334 h -4.34"
           style="fill:none;stroke:#262626;stroke-width:0.666667;stroke-linecap:square;stroke-linejoin:round;stroke-miterlimit:10;stroke-dasharray:none;stroke-opacity:1"
           id="path264" /></g><g
         id="g266"
         transform="matrix(6,0,0,6,-205,-81.375038)"><path
           d="m 507,259.66666 h -4.34"
           style="fill:none;stroke:#262626;stroke-width:0.666667;stroke-linecap:square;stroke-linejoin:round;stroke-miterlimit:10;stroke-dasharray:none;stroke-opacity:1"
           id="path268" /></g><g
         id="g270"
         transform="matrix(6,0,0,6,-205,-81.375038)"><path
           d="m 507,202.5 h -4.34"
           style="fill:none;stroke:#262626;stroke-width:0.666667;stroke-linecap:square;stroke-linejoin:round;stroke-miterlimit:10;stroke-dasharray:none;stroke-opacity:1"
           id="path272" /></g><g
         id="g274"
         transform="matrix(6,0,0,6,-205,-81.375038)"><path
           d="m 507,145.33333 h -4.34"
           style="fill:none;stroke:#262626;stroke-width:0.666667;stroke-linecap:square;stroke-linejoin:round;stroke-miterlimit:10;stroke-dasharray:none;stroke-opacity:1"
           id="path276" /></g><g
         id="g278"
         transform="matrix(6,0,0,6,-205,-81.375038)"><path
           d="m 507,88.166664 h -4.34"
           style="fill:none;stroke:#262626;stroke-width:0.666667;stroke-linecap:square;stroke-linejoin:round;stroke-miterlimit:10;stroke-dasharray:none;stroke-opacity:1"
           id="path280" /></g><g
         id="g282"
         transform="matrix(6,0,0,6,-205,-81.375038)"><path
           d="m 507,31 h -4.34"
           style="fill:none;stroke:#262626;stroke-width:0.666667;stroke-linecap:square;stroke-linejoin:round;stroke-miterlimit:10;stroke-dasharray:none;stroke-opacity:1"
           id="path284" /></g><g
         id="g286"><g
           id="g288"
           transform="matrix(6,0,0,6,200.99998,2162.625)"><text
             transform="translate(-8,5.5)"
             style="font-variant:normal;font-weight:normal;font-size:13.333px;font-family:Helvetica;-inkscape-font-specification:Helvetica;writing-mode:lr-tb;fill:#262626;fill-opacity:1;fill-rule:nonzero;stroke:none"
             id="text292"><tspan
               x="0"
               y="0"
               id="tspan290">0</tspan></text></g></g><g
         id="g294"><g
           id="g296"
           transform="matrix(6,0,0,6,200.99998,1819.625)"><text
             transform="translate(-8,5.5)"
             style="font-variant:normal;font-weight:normal;font-size:13.333px;font-family:Helvetica;-inkscape-font-specification:Helvetica;writing-mode:lr-tb;fill:#262626;fill-opacity:1;fill-rule:nonzero;stroke:none"
             id="text300"><tspan
               x="0"
               y="0"
               id="tspan298">5</tspan></text></g></g><g
         id="g302"><g
           id="g304"
           transform="matrix(6,0,0,6,200.99998,1476.6249)"><text
             transform="translate(-15,5.5)"
             style="font-variant:normal;font-weight:normal;font-size:13.333px;font-family:Helvetica;-inkscape-font-specification:Helvetica;writing-mode:lr-tb;fill:#262626;fill-opacity:1;fill-rule:nonzero;stroke:none"
             id="text308"><tspan
               x="0 7.4131479"
               y="0"
               sodipodi:role="line"
               id="tspan306">10</tspan></text></g></g><g
         id="g310"><g
           id="g312"
           transform="matrix(6,0,0,6,200.99998,1133.625)"><text
             transform="translate(-15,5.5)"
             style="font-variant:normal;font-weight:normal;font-size:13.333px;font-family:Helvetica;-inkscape-font-specification:Helvetica;writing-mode:lr-tb;fill:#262626;fill-opacity:1;fill-rule:nonzero;stroke:none"
             id="text316"><tspan
               x="0 7.4131479"
               y="0"
               sodipodi:role="line"
               id="tspan314">15</tspan></text></g></g><g
         id="g318"><g
           id="g320"
           transform="matrix(6,0,0,6,200.99998,790.62493)"><text
             transform="translate(-15,5.5)"
             style="font-variant:normal;font-weight:normal;font-size:13.333px;font-family:Helvetica;-inkscape-font-specification:Helvetica;writing-mode:lr-tb;fill:#262626;fill-opacity:1;fill-rule:nonzero;stroke:none"
             id="text324"><tspan
               x="0 7.4131479"
               y="0"
               sodipodi:role="line"
               id="tspan322">20</tspan></text></g></g><g
         id="g326"><g
           id="g328"
           transform="matrix(6,0,0,6,200.99998,447.62495)"><text
             transform="translate(-15,5.5)"
             style="font-variant:normal;font-weight:normal;font-size:13.333px;font-family:Helvetica;-inkscape-font-specification:Helvetica;writing-mode:lr-tb;fill:#262626;fill-opacity:1;fill-rule:nonzero;stroke:none"
             id="text332"><tspan
               x="0 7.4131479"
               y="0"
               sodipodi:role="line"
               id="tspan330">25</tspan></text></g></g><g
         id="g334"><g
           id="g336"
           transform="matrix(6,0,0,6,200.99998,104.62496)"><text
             transform="translate(-15,5.5)"
             style="font-variant:normal;font-weight:normal;font-size:13.333px;font-family:Helvetica;-inkscape-font-specification:Helvetica;writing-mode:lr-tb;fill:#262626;fill-opacity:1;fill-rule:nonzero;stroke:none"
             id="text340"><tspan
               x="0 7.4131479"
               y="0"
               sodipodi:role="line"
               id="tspan338">30</tspan></text></g></g><g
         id="g342"><g
           id="g344"
           transform="matrix(-2.6e-7,-6,6,-2.6e-7,87.000008,1133.624)"><text
             transform="translate(-33,-4)"
             style="font-variant:normal;font-weight:normal;font-size:14.667px;font-family:Helvetica;-inkscape-font-specification:Helvetica;writing-mode:lr-tb;fill:#262626;fill-opacity:1;fill-rule:nonzero;stroke:none"
             id="text348"><tspan
               x="0 9.7828894 22.0005 30.155352 33.411427 36.6675 40.744926 48.899776 57.05463"
               y="0"
               sodipodi:role="line"
               id="tspan346">Amplitude</tspan></text></g></g><g
         id="g350"><g
           id="g352"
           transform="matrix(6,0,0,6,1535.0016,88.124996)"><text
             transform="translate(-202.5,-4)"
             style="font-variant:normal;font-weight:bold;font-size:14.667px;font-family:Helvetica;-inkscape-font-specification:Helvetica-Bold;writing-mode:lr-tb;fill:#000000;fill-opacity:1;fill-rule:nonzero;stroke:none"
             id="text356"><tspan
               x="0 9.7828894 18.744427 26.899279 35.054131 39.93824 45.643703 54.60524 67.644203 71.721626 80.683167 85.567276 89.644707 94.528816 103.49035 111.6452 115.72263 120.60674 129.56828 135.27374 143.42859 151.58345 155.66087 166.25044 175.21198 180.0961 184.98021 189.05763 197.21248 205.36734 209.44476 213.52219 224.11176 232.26662 240.42146 248.57631 252.65375 260.80859 266.51407 275.47559 288.51456 296.6694 301.55353 309.70837 315.41385 319.49127 330.90219 334.97961 339.86374 348.82526 352.90268 365.94165 374.0965 383.05804 392.01956 400.17444"
               y="0"
               sodipodi:role="line"
               id="tspan354">Spectrum of the three Bottles, Accelerometer with magnet</tspan></text></g></g><g
         id="g358"
         transform="matrix(6,0,0,6,-205,-81.375038)"><path
           d="m 73.847656,236.25655 0.847656,-50.88266 0.847657,6.16229 0.847656,-10.44631 0.847656,123.48652 0.847656,-96.06598 0.847657,52.18753 0.847656,47.211 0.847656,24.32479 0.847656,12.27045 0.847657,-167.76189 0.847656,71.01799 0.847656,-26.92967 0.847656,17.40509 0.847657,127.00554 0.847656,-97.99518 0.847656,6.97785 0.847656,-46.17562 0.847657,9.15407 0.847656,-79.84768 0.847656,118.03637 0.847656,-29.84233 0.847657,-58.16153 0.847656,143.31337 0.847656,-7.05166 0.847656,-109.2884 0.847657,102.24283 0.847656,-71.50792 0.847656,-16.68675 0.847656,77.70511 0.847657,8.54758 0.847656,-0.28662 0.84766,-5.86933 0.84765,32.45944 0.84766,-20.22146 0.84766,12.9256 0.84765,-28.24314 0.84766,12.68784 0.84765,27.34515 0.84766,-122.55896 0.84766,67.8085 0.84765,-88.87429 0.84766,157.04061 0.84766,-40.81304 0.84765,-11.04703 0.84766,-8.72925 0.84765,-39.6427 0.84766,110.41986 0.84766,-76.54578 0.84765,-106.7113 0.84766,2.9173 0.84766,130.71741 0.84765,-101.22112 0.84766,3.10426 0.84765,-35.86332 0.84766,59.3826 0.84766,-47.3133 0.84765,-17.12427 0.84766,87.48 0.84765,59.31027 0.84766,-34.7879 0.84766,-4.87338 0.84765,0.53762 0.84766,-10.30725 0.84766,30.50348 0.84765,35.55298 0.84766,-124.23176 0.84765,132.53788 0.84766,-6.07284 0.84766,-135.67116 0.84765,49.49358 0.84766,-13.96924 0.84766,52.76458 0.84765,-13.87359 0.84766,-37.28929 0.84765,8.28808 0.84766,-23.91015 0.84766,17.41908 0.84765,6.02493 0.84766,50.15686 0.84766,36.31827 0.84765,-16.86056 0.84766,9.39575 0.84765,-28.98856 0.84766,30.74533 0.84766,-71.16839 0.84765,-47.82485 0.84766,73.71633 0.84766,-7.89768 0.84765,-55.55311 0.84766,77.52916 0.84765,10.33023 0.84766,-28.77912 0.84766,-94.80949 0.84765,121.29817 0.84766,-4.88904 0.84766,0.39993 0.84765,-35.82183 0.84766,-11.88166 0.84765,65.44327 0.84766,-13.86233 0.84766,-38.06754 0.84765,62.10135 0.84766,-31.68366 0.84766,37.15558 0.84765,-20.17892 0.84766,-7.91556 0.84765,29.15067 0.84766,-15.28159 0.84766,-86.6835 0.84765,91.92264 0.84766,39.44598 0.84766,-50.81451 0.84765,16.98663 0.84766,-18.65369 0.84766,8.69174 0.84765,12.47028 0.84766,-63.41498 0.84765,61.68375 0.84766,-26.0105 0.84766,40.95764 0.84765,-92.35586 0.84766,-15.38738 0.84765,68.34078 0.84766,11.37753 0.84766,-0.99152 0.84765,-155.11134 0.84766,96.66518 0.84766,85.68072 0.84765,9.09564 0.84766,-86.6506 0.84765,18.11462 0.84766,14.12598 0.84766,12.18091 0.84765,-52.64762 0.84766,33.49326 0.84766,43.43607 0.84765,-38.71637 0.84766,-25.10196 0.84765,-5.65445 0.84766,27.03955 0.84766,-46.18779 0.84765,18.73775 0.84766,-5.98298 0.84766,50.30848 0.84765,-10.59421 0.84766,11.3396 0.84765,-48.71875 0.84766,4.66183 0.84766,18.47721 0.84765,-27.17569 0.84766,-76.88462 0.84766,1.42202 0.84765,165.9961 0.84766,-90.83767 0.84765,-23.77565 0.84766,-2.58173 0.84766,-79.81793 0.84765,-12.93236 0.84766,117.5394 0.84766,-39.99361 0.84765,15.80072 0.84766,23.00719 0.84765,73.78153 0.84766,15.92517 0.84766,-25.12369 0.84765,19.36722 0.84766,-69.76499 0.84766,9.2146 0.84765,10.3086 0.84766,27.58569 0.84765,-52.72418 0.84766,-72.12271 0.84766,37.10063 0.84765,59.75471 0.84766,-103.59466 0.84766,171.43435 0.84765,-24.82119 0.84766,-74.89481 0.84765,45.10788 0.84766,32.43066 0.84766,-58.0917 0.84765,69.84897 0.84766,2.22824 0.84766,-22.41648 0.84765,3.93564 0.84766,14.1709 0.84765,2.15311 0.84766,-84.72788 0.84766,64.35965 0.84765,-3.23861 0.84766,-32.93869 0.84766,48.686 0.84765,-19.28305 0.84766,-40.91797 0.84765,-5.3656 0.84766,14.86194 0.84766,25.26282 0.84765,22.45425 0.84766,-28.66333 0.84766,32.08395 0.84765,-3.37805 0.84766,20.14817 0.84765,-44.92197 0.84766,-50.36795 0.84766,67.19745 0.84765,18.2117 0.84766,-18.43875 0.84766,-39.21189 0.84765,-6.72827 0.84766,61.91385 0.84765,12.87787 0.84766,-8.54987 0.84766,-58.46493 0.84765,42.44201 0.84766,-37.59329 0.84766,2.36624 0.84765,56.25107 0.84766,-35.79169 0.84765,-5.8948 0.84766,13.54407 0.84766,18.49304 0.84765,-21.29038 0.84766,27.24146 0.84766,-14.35965 0.84765,-49.08902 0.84766,67.07455 0.84765,-21.55777 0.84766,22.22651 0.84766,-64.28208 0.84765,59.81967 0.84766,-56.77124 0.84766,23.66992 0.84765,-42.37164 0.84766,41.03964 0.84765,-82.6119 0.84766,103.02459 0.84766,7.61566 0.84765,-1.97009 0.84766,-70.15295 0.84766,53.10864 0.84765,-23.23276 0.84766,-23.29516 0.84765,52.20376 0.84766,-48.54507 0.84766,35.54382 0.84765,-15.84732 0.84766,41.27667 0.84766,5.84677 0.84765,-56.39727 0.84766,55.07602 0.84765,-26.92685 0.84766,-9.05436 0.84766,-159.08746 0.84765,117.08927 0.84766,72.44787 0.84766,-4.05151 0.84765,5.24835 0.84766,-13.91553 0.84765,11.02832 0.84766,-85.03311 0.84766,77.85748 0.84765,-15.87402 0.84766,27.83206 0.84766,-3.02804 0.84765,-1.47913 0.84766,-23.61813 0.84765,39.41189 0.84766,4.91846 0.84766,-11.05243 0.84765,-3.35037 0.84766,-30.08481 0.84766,-8.49442 0.84765,52.4535 0.84766,-15.28156 0.84765,-12.34045 0.84766,11.7659 0.84766,-31.62937 0.84765,-31.62094 0.84766,52.71118 0.84766,17.10672 0.84765,-3.71621 0.84766,-73.39209 0.84765,69.15451 0.84766,-29.00379 0.84766,41.50189 0.84765,-54.20645 0.84766,9.78516 0.84766,9.59323 0.84765,24.35663 0.84766,-7.39929 0.84765,-10.00876 0.84766,31.46753 0.84766,-60.87692 0.84765,29.52297 0.84766,-6.85943 0.84766,39.2605 0.84765,-72.15103 0.84766,39.89776 0.84765,32.64407 0.84766,-22.32 0.84766,-21.22409 0.84765,21.73092 0.84766,-6.68179 0.84766,-21.87238 0.84765,1.93656 0.84766,46.87698 0.84765,-43.28689 0.84766,17.09704 0.84766,-17.61633 0.84765,-31.98236 0.84766,36.13635 0.84766,-7.51205 0.84765,27.16943 0.84766,-42.75311 0.84765,10.85562 0.84766,53.29858 0.84766,-8.0151 0.84765,-13.0903 0.84766,13.49951 0.84766,-8.2143 0.84765,-30.28369 0.84766,9.40564 0.84766,2.04004 0.84765,33.09601 0.84766,-42.16605 0.84765,14.03156 0.84766,5.71832 0.84766,-9.48315 0.84765,11.54217 0.84766,-8.19488 0.84765,-5.67975 0.84766,16.22876 0.84766,16.09671 0.84765,-62.29016 0.84766,23.84658 0.84766,32.87052 0.84765,-32.98075 0.84766,5.9361 0.84765,11.67166 0.84766,4.33496 0.84766,-16.92956 0.84765,17.42489 0.84766,-28.68051 0.84766,1.49387 0.84765,41.86731 0.84766,-22.66507 0.84765,8.44708 0.84766,6.62354 0.84766,-9.87003 0.84765,-33.18311 0.84766,48.37485 0.84766,-36.10797 0.84765,0.21982 0.84766,-21.18836 0.84765,-12.31314 0.84766,56.28202 0.84766,-33.61087 0.84765,33.43856 0.84766,5.11771 0.84766,-34.03833 0.84765,-31.01892 0.84766,38.34631 0.84765,-7.86541 0.84766,-9.97434 0.84766,23.08545 0.84765,19.31583 0.84766,-11.5586 0.84766,-41.25461 0.84765,52.24091 0.84766,10.37311 0.84765,-47.11844 0.84766,56.74637 0.84766,-28.56485 0.84765,-30.99494 0.84766,-31.98925 0.84766,-5.35883 0.84765,85.39816 0.84766,-48.36709 0.84765,46.61514 0.84766,-43.42758 0.84766,56.22134 0.84765,-28.67791 0.84766,-10.89359 0.84766,-15.52704 0.84765,36.20923 0.84766,-13.36713 0.84765,23.0651 0.84766,-5.28495 0.84766,-0.56661 0.84765,-5.24253 0.84766,-12.37134 0.84766,24.02286 0.84765,-6.6654 0.84766,-65.95636 0.84765,76.05047 0.84766,-24.81927 0.84766,2.9162 0.84765,14.13885 0.84766,-28.09033 0.84766,-1.5683 0.84765,11.17362 0.84766,27.73489 0.84765,-18.23529 0.84766,-45.46042 0.84766,46.78732 0.84765,15.82102 0.84766,-0.0761 0.84766,-41.78598 0.84765,0.93042 0.84766,44.62399 0.84765,-89.06162 0.84766,89.84766 0.84766,-14.82834 0.84765,-27.0661 0.84766,10.31775 0.84766,8.35877 0.84765,5.6192 0.84766,13.55798 0.84765,-32.75641 0.84766,29.51035 0.84766,-37.18616 0.84765,27.47699 0.84766,-8.82007 0.84766,20.01709 0.84765,-24.31253 0.84766,-0.48547 0.84765,5.9331 0.84766,-4.22052 0.84766,-0.57071 0.84765,-0.0508 0.84766,-2.8605 0.84766,-43.77338 0.84765,48.5224 0.84766,15.0195 0.84765,-5.49374 0.84766,-4.81336 0.84766,-0.54999 0.84765,-63.17349 0.84766,51.87589 0.84766,21.57654 0.84765,-15.28617 0.84766,0.14276 0.84765,10.54648 0.84766,15.90723 0.84766,-17.39453 0.84765,12.64615 0.84766,-14.18296 0.84766,-4.40619 0.84765,-15.09951 0.84766,7.82641 0.84766,9.37665 0.84765,15.31976 0.84766,-27.38431 0.84765,16.05698 0.84766,-19.35922 0.84766,-5.55762 0.84765,39.04801 0.84766,-65.26035 0.84765,53.79691 0.84766,-16.38898 0.84766,-20.79248 0.84765,34.33087 0.84766,19.10049 0.84766,-14.05914 0.84765,-9.92398 0.84766,8.1532 0.84765,-39.65427 0.84766,44.79813 0.84766,-11.13986 0.84765,-33.4831 0.84766,44.01093 0.84766,-31.21994 0.84765,16.92853 0.84766,-17.43753 0.84765,13.31774 0.84766,13.72016 0.84766,10.0246 0.84765,-20.40873 0.84766,0.94834 0.84766,22.25525 0.84765,-5.80954 0.84766,-25.58023 0.84765,4.5249 0.84766,-15.65106 0.84766,9.45446 0.84765,-2.60537 0.84766,19.62381 0.84766,-21.95371 0.84765,31.35947 0.84766,-6.60901 0.84765,-18.28531 0.84766,1.08634 0.84766,-30.84595 0.84765,56.48312 0.84766,-28.44589 0.84766,3.48917 0.84765,29.35086 0.84766,-23.44431 0.84765,-20.73428 0.84766,42.84082 0.84766,-21.53495 0.84765,18.7743 0.84766,1.59189 0.84766,0.98944 0.84765,-7.53577 0.84766,2.47147 0.84765,4.8518 0.84766,-16.51565 0.84766,-9.29669 0.84765,-20.47324 L 507,332.75516"
           style="fill:none;stroke:#0000ff;stroke-width:0.666667;stroke-linecap:butt;stroke-linejoin:round;stroke-miterlimit:10;stroke-dasharray:none;stroke-opacity:1"
           id="path360" /></g><g
         id="g362"
         transform="matrix(6,0,0,6,-205,-81.375038)"><path
           d="m 73.847656,205.80763 0.847656,-25.01574 0.847657,116.41737 0.847656,-46.44212 0.847656,48.22544 0.847656,7.53589 0.847657,42.8627 0.847656,-5.40475 0.847656,-2.93594 0.847656,-29.02341 0.847657,27.76175 0.847656,-18.31598 0.847656,24.36948 0.847656,-51.84501 0.847657,30.85172 0.847656,-41.87439 0.847656,46.89453 0.847656,-16.99441 0.847657,-18.88837 0.847656,26.23407 0.847656,9.14471 0.847656,9.84442 0.847657,9.064 0.847656,-36.95724 0.847656,35.40338 0.847656,-44.89685 0.847657,41.24353 0.847656,11.42559 0.847656,-24.37933 0.847656,27.70889 0.847657,-30.38308 0.847656,-1.08316 0.84766,-1.92563 0.84765,10.04754 0.84766,-46.2355 0.84766,66.38342 0.84765,-30.93875 0.84766,34.69196 0.84765,-5.14374 0.84766,-24.43201 0.84766,-39.41241 0.84765,24.9191 0.84766,-8.52222 0.84766,60.47418 0.84765,-56.46023 0.84766,-15.94114 0.84765,67.30216 0.84766,-31.09537 0.84766,40.91995 0.84765,-18.86908 0.84766,14.68268 0.84766,-30.75027 0.84765,5.69876 0.84766,-20.89466 0.84765,35.75675 0.84766,-47.27585 0.84766,47.12991 0.84765,0.3942 0.84766,-7.58572 0.84765,-21.32398 0.84766,8.10776 0.84766,-0.39783 0.84765,7.64261 0.84766,-4.26199 0.84766,14.28637 0.84765,6.82496 0.84766,-39.63804 0.84765,26.43927 0.84766,5.28357 0.84766,-12.01696 0.84765,-19.20206 0.84766,-27.48004 0.84766,-26.15094 0.84765,70.79413 0.84766,-1.72577 0.84765,13.19702 0.84766,-29.47992 0.84766,21.48379 0.84765,-15.74347 0.84766,16.3639 0.84766,-40.20514 0.84765,39.28396 0.84766,2.73447 0.84765,7.03732 0.84766,-5.75323 0.84766,-8.11148 0.84765,0.25961 0.84766,11.94229 0.84766,-30.23776 0.84765,3.05218 0.84766,6.99018 0.84765,-20.71451 0.84766,7.01242 0.84766,39.20789 0.84765,-48.80542 0.84766,20.04193 0.84766,-25.03784 0.84765,27.17587 0.84766,20.93731 0.84765,-50.97589 0.84766,41.70636 0.84766,-19.35891 0.84765,-2.17527 0.84766,33.26062 0.84766,0.70487 0.84765,5.49997 0.84766,-45.83893 0.84765,22.65561 0.84766,19.61938 0.84766,-20.264 0.84765,26.86471 0.84766,-42.121 0.84766,38.65811 0.84765,-6.72864 0.84766,-21.81369 0.84766,-4.12783 0.84765,0.34106 0.84766,21.76755 0.84765,-66.08142 0.84766,58.93954 0.84766,-6.84589 0.84765,-21.16043 0.84766,26.92603 0.84765,-26.37537 0.84766,43.9408 0.84766,-56.86185 0.84765,17.79901 0.84766,-2.12301 0.84766,31.85565 0.84765,-21.04804 0.84766,-11.21685 0.84765,33.55059 0.84766,-20.18441 0.84766,14.12899 0.84765,9.9227 0.84766,-21.56515 0.84766,18.73269 0.84765,-15.94851 0.84766,26.02121 0.84765,-24.04468 0.84766,13.35602 0.84766,18.94119 0.84765,-13.64224 0.84766,-11.6724 0.84766,9.8342 0.84765,-27.07895 0.84766,41.59848 0.84765,-15.8258 0.84766,-42.77915 0.84766,23.54026 0.84765,-29.80524 0.84766,53.59436 0.84766,-12.10501 0.84765,-58.50983 0.84766,78.92414 0.84765,-5.03504 0.84766,8.35782 0.84766,-16.27353 0.84765,-15.9555 0.84766,-31.41874 0.84766,55.87204 0.84765,-26.14492 0.84766,12.38958 0.84765,19.29645 0.84766,-33.87482 0.84766,12.18259 0.84765,-23.05286 0.84766,17.36841 0.84766,-17.49759 0.84765,7.81678 0.84766,19.46923 0.84765,-21.60009 0.84766,-19.8721 0.84766,15.82089 0.84765,22.79272 0.84766,7.57566 0.84766,-19.38132 0.84765,-1.13873 0.84766,21.75424 0.84765,-26.83106 0.84766,30.42804 0.84766,-42.18823 0.84765,40.6792 0.84766,7.39044 0.84766,-13.97848 0.84765,-18.94403 0.84766,22.85009 0.84765,-27.75934 0.84766,10.73533 0.84766,24.54644 0.84765,-46.63827 0.84766,35.13333 0.84766,-13.7514 0.84765,4.53292 0.84766,29.26563 0.84765,-65.08576 0.84766,46.26264 0.84766,-18.82733 0.84765,18.24447 0.84766,-21.79406 0.84766,-1.32642 0.84765,24.07452 0.84766,-22.06063 0.84765,9.29901 0.84766,-10.65897 0.84766,8.51862 0.84765,7.15323 0.84766,-27.23441 0.84766,-4.91458 0.84765,41.67654 0.84766,16.66324 0.84765,-21.71759 0.84766,13.96161 0.84766,-24.09061 0.84765,2.9632 0.84766,1.34051 0.84766,29.24778 0.84765,-41.70884 0.84766,4.38858 0.84765,7.96589 0.84766,-10.00852 0.84766,0.38568 0.84765,33.10691 0.84766,-49.58451 0.84766,3.32822 0.84765,28.25085 0.84766,-23.31234 0.84765,28.75485 0.84766,-2.78793 0.84766,-0.74024 0.84765,-43.46359 0.84766,29.97839 0.84766,-18.32644 0.84765,17.46133 0.84766,-7.69229 0.84765,16.89279 0.84766,-9.5033 0.84766,-40.88266 0.84765,8.7324 0.84766,14.64926 0.84766,0.40307 0.84765,16.28647 0.84766,7.59772 0.84765,-8.68878 0.84766,9.82501 0.84766,4.15036 0.84765,10.41406 0.84766,6.125 0.84766,1.34455 0.84765,-22.61008 0.84766,-9.05948 0.84765,-10.01468 0.84766,-4.15607 0.84766,33.35575 0.84765,-18.57703 0.84766,22.45673 0.84766,-21.94104 0.84765,-15.88983 0.84766,31.43747 0.84765,-35.86207 0.84766,30.92957 0.84766,-7.49258 0.84765,8.87173 0.84766,-32.45563 0.84766,8.38285 0.84765,35.97207 0.84766,-10.49182 0.84765,20.00665 0.84766,-46.41906 0.84766,32.83944 0.84765,13.5698 0.84766,-35.91693 0.84766,23.38214 0.84765,0.10174 0.84766,-27.63894 0.84765,43.06671 0.84766,-42.43546 0.84766,36.13715 0.84765,-14.36286 0.84766,17.78998 0.84766,-35.51202 0.84765,30.42007 0.84766,-6.44912 0.84765,1.65271 0.84766,-32.03119 0.84766,-1.19306 0.84765,-27.57138 0.84766,63.07901 0.84766,-28.02325 0.84765,33.55627 0.84766,-5.55194 0.84765,4.4133 0.84766,-47.0661 0.84766,47.78943 0.84765,-14.93689 0.84766,-21.24057 0.84766,-8.33261 0.84765,7.88046 0.84766,29.62595 0.84765,-20.91578 0.84766,3.4376 0.84766,-6.94718 0.84765,9.00266 0.84766,-20.07611 0.84766,-11.05872 0.84765,42.9885 0.84766,-8.5282 0.84765,6.06781 0.84766,-33.59439 0.84766,-6.74048 0.84765,48.42648 0.84766,-44.84607 0.84766,36.7814 0.84765,-39.31247 0.84766,6.21952 0.84765,29.72058 0.84766,-39.7193 0.84766,37.3855 0.84765,-40.45581 0.84766,48.14486 0.84766,-20.03811 0.84765,19.561 0.84766,-31.85034 0.84766,16.36844 0.84765,-4.32639 0.84766,-16.68539 0.84765,39.9704 0.84766,-29.12116 0.84766,28.99945 0.84765,-40.44879 0.84766,30.95294 0.84765,7.48294 0.84766,-23.79953 0.84766,-14.74774 0.84765,0.5947 0.84766,18.11984 0.84766,6.05975 0.84765,4.74836 0.84766,-4.68241 0.84765,18.01288 0.84766,-39.55218 0.84766,40.36139 0.84765,-8.8978 0.84766,-28.29938 0.84766,28.0585 0.84765,-5.76687 0.84766,-43.00626 0.84765,10.58734 0.84766,3.14136 0.84766,31.17651 0.84765,-41.76065 0.84766,55.68793 0.84766,-12.93018 0.84765,-0.51705 0.84766,8.51193 0.84765,-5.97531 0.84766,-27.00217 0.84766,26.95041 0.84765,2.13833 0.84766,5.58576 0.84766,-13.66214 0.84765,2.29468 0.84766,2.92086 0.84765,17.45981 0.84766,-65.6864 0.84766,33.70981 0.84765,5.71851 0.84766,-11.40921 0.84766,10.80902 0.84765,8.80401 0.84766,-10.45886 0.84765,-13.45126 0.84766,21.29165 0.84766,-42.56228 0.84765,34.79794 0.84766,-1.35055 0.84766,8.13684 0.84765,-8.35361 0.84766,11.12155 0.84765,22.20007 0.84766,-29.9674 0.84766,-51.74286 0.84765,19.76645 0.84766,51.47693 0.84766,-28.55933 0.84765,10.16879 0.84766,-8.1781 0.84765,-8.9888 0.84766,2.35208 0.84766,11.92383 0.84765,4.81085 0.84766,9.89051 0.84766,-4.49436 0.84765,-20.83459 0.84766,-21.13758 0.84765,-1.88015 0.84766,54.7969 0.84766,-10.38513 0.84765,-10.78818 0.84766,-11.90298 0.84766,10.37625 0.84765,34.92316 0.84766,-73.71961 0.84765,38.14655 0.84766,6.94751 0.84766,-47.98844 0.84765,29.71732 0.84766,28.00256 0.84766,-23.64035 0.84765,33.07294 0.84766,6.80819 0.84765,-18.027 0.84766,-11.7573 0.84766,-10.61288 0.84765,18.51565 0.84766,-11.082 0.84766,-14.319 0.84765,32.92301 0.84766,0.0599 0.84765,-17.08584 0.84766,16.74643 0.84766,-3.15412 0.84765,-28.02386 0.84766,9.67877 0.84766,31.06964 0.84765,-27.54324 0.84766,4.75403 0.84765,4.68225 0.84766,-42.96637 0.84766,49.73608 0.84765,-8.03454 0.84766,-6.11103 0.84766,25.85691 0.84765,-7.78788 0.84766,-38.70184 0.84765,24.94131 0.84766,-21.3439 0.84766,27.30832 0.84765,-14.88379 0.84766,-16.81256 0.84766,6.20801 0.84765,36.81705 0.84766,-17.52768 0.84765,-2.99784 0.84766,-30.49826 0.84766,29.50012 0.84765,13.20868 0.84766,-45.096 0.84766,56.14129 0.84765,-1.90298 0.84766,-12.73706 0.84766,2.94592 0.84765,-17.32404 0.84766,26.57895 0.84765,-10.41781 0.84766,-18.83945 0.84766,31.89871 0.84765,-15.49722 0.84766,15.71161 0.84765,-80.08872 0.84766,67.52213 0.84766,6.66128 0.84765,-20.16848 0.84766,-34.16922 0.84766,19.22577 0.84765,20.4949 0.84766,4.33295 0.84765,-9.54248 0.84766,11.62084 0.84766,2.83866 0.84765,-1.24039 0.84766,-17.27383 0.84766,26.03839 0.84765,-17.26776 0.84766,18.68023 0.84765,-5.59994 0.84766,-41.54129 0.84766,40.08719 0.84765,-74.65644 0.84766,81.24881 0.84766,-40.91839 0.84765,22.06106 0.84766,-32.28756 0.84765,29.70361 0.84766,11.88242 0.84766,-1.13086 0.84765,-52.55396 0.84766,5.14835 0.84766,8.76541 0.84765,51.77435 0.84766,-2.08917 0.84765,-43.46753 0.84766,8.08206 0.84766,-40.77948 0.84765,45.96335 0.84766,-6.86258 0.84766,3.28229 0.84765,-36.68939 0.84766,48.41931 0.84765,-7.52307 0.84766,-10.04721 0.84766,19.49847 0.84765,-27.90302 0.84766,21.54593 0.84766,21.07999 0.84765,-10.39188 0.84766,-7.24841 0.84765,-23.5881 0.84766,-47.00983 0.84766,66.21884 0.84765,-6.78287 L 507,319.62466"
           style="fill:none;stroke:#000000;stroke-width:0.666667;stroke-linecap:butt;stroke-linejoin:round;stroke-miterlimit:10;stroke-dasharray:none;stroke-opacity:1"
           id="path364" /></g><g
         id="g366"
         transform="matrix(6,0,0,6,-205,-81.375038)"><path
           d="m 73.847656,176.66907 0.847656,18.24237 0.847657,29.99069 0.847656,-11.71385 0.847656,38.40262 0.847656,-55.34801 0.847657,72.95935 0.847656,65.79166 0.847656,-7.0257 0.847656,-27.29404 0.847657,6.33457 0.847656,-1.68585 0.847656,-0.89203 0.847656,-16.67203 0.847657,-24.55109 0.847656,18.47745 0.847656,9.23697 0.847656,26.46408 0.847657,24.24085 0.847656,-5.54981 0.847656,-15.03036 0.847656,18.69512 0.847657,-29.90386 0.847656,-16.65842 0.847656,-38.11122 0.847656,-41.25055 0.847657,53.03254 0.847656,97.86176 0.847656,-74.72559 0.847656,9.57727 0.847657,22.87885 0.847656,-19.83716 0.84766,31.78302 0.84765,-38.517 0.84766,3.4925 0.84766,5.9017 0.84765,40.0043 0.84766,-15.05557 0.84765,-10.79269 0.84766,1.52975 0.84766,34.06033 0.84765,-49.78216 0.84766,-147.19203 0.84766,-40.61628 0.84765,12.40004 0.84766,84.72445 0.84765,34.9958 0.84766,17.04733 0.84766,-72.01636 0.84765,35.73209 0.84766,44.33148 0.84766,0.34351 0.84765,-2.92175 0.84766,62.7709 0.84765,-65.76978 0.84766,2.58671 0.84766,34.58456 0.84765,10.80575 0.84766,-19.71316 0.84765,39.23492 0.84766,-33.37591 0.84766,-37.14624 0.84765,-15.07616 0.84766,28.42247 0.84766,62.38199 0.84765,-24.79724 0.84766,27.93466 0.84765,-43.53982 0.84766,-37.51944 0.84766,-49.03667 0.84765,-47.39237 0.84766,63.10109 0.84766,4.41657 0.84765,61.45492 0.84766,-93.54094 0.84765,-10.69439 0.84766,109.90956 0.84766,-1.12531 0.84765,2.89396 0.84766,50.54608 0.84766,-1.45212 0.84765,-13.27341 0.84766,-41.63336 0.84765,2.82309 0.84766,-57.88945 0.84766,36.26387 0.84765,29.59604 0.84766,-11.48911 0.84766,22.25553 0.84765,6.77414 0.84766,26.60959 0.84765,-25.3176 0.84766,36.64841 0.84766,-29.19712 0.84765,25.44532 0.84766,10.74282 0.84766,-11.63482 0.84765,-18.50998 0.84766,16.36694 0.84765,-0.20859 0.84766,-27.57556 0.84766,15.00885 0.84765,-10.95654 0.84766,17.13711 0.84766,-8.54675 0.84765,1.5203 0.84766,-3.0152 0.84765,-17.51859 0.84766,36.55142 0.84766,-3.61688 0.84765,-23.00174 0.84766,-21.87326 0.84766,45.55194 0.84765,-58.68094 0.84766,0.0269 0.84766,37.56735 0.84765,13.70295 0.84766,-21.27777 0.84765,-6.72611 0.84766,5.68259 0.84766,32.37338 0.84765,-26.45126 0.84766,-28.52985 0.84765,4.8222 0.84766,53.80222 0.84766,-51.44415 0.84765,-14.83829 0.84766,19.59064 0.84766,-20.21527 0.84765,7.65289 0.84766,-3.71957 0.84765,-15.38562 0.84766,0.8016 0.84766,43.29065 0.84765,-48.17423 0.84766,33.4195 0.84766,8.71194 0.84765,17.27478 0.84766,-16.36398 0.84765,34.33594 0.84766,-2.88321 0.84766,4.19568 0.84765,-31.47132 0.84766,-4.98336 0.84766,30.10553 0.84765,-34.09558 0.84766,19.85723 0.84765,9.49131 0.84766,-56.36002 0.84766,-51.91643 0.84765,30.48391 0.84766,31.37786 0.84766,-64.05191 0.84765,63.08683 0.84766,15.34167 0.84765,-11.76373 0.84766,17.57626 0.84766,-64.08694 0.84765,7.83069 0.84766,-31.36321 0.84766,-1.79213 0.84765,10.09857 0.84766,19.49478 0.84765,28.31632 0.84766,-1.98941 0.84766,33.6221 0.84765,31.05749 0.84766,3.92505 0.84766,-52.40677 0.84765,4.8787 0.84766,7.7597 0.84765,32.03311 0.84766,9.91031 0.84766,-28.78219 0.84765,15.11529 0.84766,-56.80273 0.84766,61.53164 0.84765,-30.3182 0.84766,-30.13553 0.84765,4.74692 0.84766,6.85073 0.84766,-7.86618 0.84765,49.24036 0.84766,-10.44107 0.84766,2.75577 0.84765,15.7568 0.84766,-4.03619 0.84765,-8.46097 0.84766,-30.72418 0.84766,47.35422 0.84765,-2.8497 0.84766,5.72094 0.84766,8.60541 0.84765,-2.33704 0.84766,-27.60888 0.84765,6.40042 0.84766,-16.02457 0.84766,-12.15048 0.84765,2.53409 0.84766,28.01724 0.84766,11.14508 0.84765,3.28851 0.84766,1.51035 0.84765,4.82712 0.84766,-0.60843 0.84766,-26.03372 0.84765,14.315 0.84766,-7.28391 0.84766,-26.19052 0.84765,38.09177 0.84766,4.2323 0.84765,-0.0827 0.84766,-11.65268 0.84766,12.01217 0.84765,-8.79675 0.84766,8.50137 0.84766,6.45289 0.84765,-5.43012 0.84766,-3.17786 0.84765,-26.14627 0.84766,-9.15612 0.84766,23.15536 0.84765,-12.65958 0.84766,20.5069 0.84766,-10.54245 0.84765,17.11142 0.84766,-40.92538 0.84765,-10.37909 0.84766,25.82147 0.84766,15.69495 0.84765,-5.74408 0.84766,18.05877 0.84766,-6.45614 0.84765,-26.57331 0.84766,22.70163 0.84765,9.64954 0.84766,1.78692 0.84766,-5.61181 0.84765,-2.33289 0.84766,-13.84704 0.84766,7.14352 0.84765,10.62384 0.84766,-9.61343 0.84765,-16.20948 0.84766,1.63352 0.84766,12.02777 0.84765,-2.224 0.84766,9.56635 0.84766,-8.25873 0.84765,-14.81848 0.84766,10.42245 0.84765,10.40631 0.84766,-0.68731 0.84766,-3.56238 0.84765,2.79376 0.84766,-12.65274 0.84766,-20.61816 0.84765,29.27368 0.84766,-0.42984 0.84765,5.75195 0.84766,-8.53345 0.84766,9.02509 0.84765,0.48077 0.84766,-18.60077 0.84766,-17.39215 0.84765,24.3794 0.84766,-13.14264 0.84765,25.72998 0.84766,-16.75302 0.84766,8.09646 0.84765,-23.52734 0.84766,21.48291 0.84766,3.62451 0.84765,6.73367 0.84766,9.6167 0.84765,-23.71777 0.84766,-7.23859 0.84766,23.02713 0.84765,-0.31469 0.84766,-11.39215 0.84766,-26.48066 0.84765,3.81986 0.84766,29.19635 0.84765,-43.93137 0.84766,-20.8862 0.84766,4.90061 0.84765,10.4136 0.84766,51.20627 0.84766,-17.2933 0.84765,11.57833 0.84766,-10.60888 0.84765,13.24725 0.84766,-10.65643 0.84766,12.78009 0.84765,1.19058 0.84766,-21.40634 0.84766,22.22137 0.84765,-19.22415 0.84766,-1.06012 0.84765,21.77631 0.84766,-30.71192 0.84766,24.25147 0.84765,-43.00229 0.84766,29.82242 0.84766,21.06857 0.84765,-42.1542 0.84766,17.60186 0.84765,4.34464 0.84766,-19.51575 0.84766,-7.38226 0.84765,17.3324 0.84766,27.10751 0.84766,-1.45792 0.84765,-18.22238 0.84766,16.00171 0.84765,5.05743 0.84766,3.94797 0.84766,-30.58291 0.84765,17.51171 0.84766,-5.82687 0.84766,-13.75107 0.84765,30.56064 0.84766,4.84329 0.84766,-18.50857 0.84765,-24.64011 0.84766,27.05014 0.84765,-3.42767 0.84766,3.06125 0.84766,24.10837 0.84765,-33.73032 0.84766,-10.2666 0.84765,-1.9971 0.84766,-20.1976 0.84766,53.40274 0.84765,5.92114 0.84766,-22.64224 0.84766,12.03976 0.84765,-38.38611 0.84766,-33.14038 0.84765,21.80255 0.84766,54.41004 0.84766,-43.37348 0.84765,-7.92007 0.84766,51.60452 0.84766,-25.12851 0.84765,14.5267 0.84766,-41.18689 0.84765,41.25831 0.84766,-22.64505 0.84766,-20.87711 0.84765,54.7034 0.84766,-42.27676 0.84766,26.40542 0.84765,-1.39679 0.84766,21.1904 0.84765,-86.30749 0.84766,-12.17075 0.84766,90.5014 0.84765,-22.44906 0.84766,29.91244 0.84766,-24.11776 0.84765,-1.49796 0.84766,-9.17245 0.84765,-19.39344 0.84766,-5.0791 0.84766,41.91947 0.84765,-40.75568 0.84766,59.48996 0.84766,-22.41995 0.84765,-21.88797 0.84766,-13.38089 0.84765,15.83343 0.84766,32.37497 0.84766,0.14688 0.84765,-18.15701 0.84766,14.81796 0.84766,-3.61496 0.84765,16.04926 0.84766,-26.59726 0.84765,-7.27374 0.84766,16.77258 0.84766,3.57049 0.84765,-10.57721 0.84766,6.80753 0.84766,6.03265 0.84765,-28.35647 0.84766,29.23007 0.84765,1.18131 0.84766,-35.17258 0.84766,31.86917 0.84765,-25.40616 0.84766,40.13764 0.84766,-19.65546 0.84765,7.34149 0.84766,-2.74335 0.84765,20.37827 0.84766,-30.47647 0.84766,12.47958 0.84765,-12.71557 0.84766,-9.16526 0.84766,35.51538 0.84765,-4.1802 0.84766,-18.7356 0.84765,23.10037 0.84766,-8.91842 0.84766,-21.49933 0.84765,-6.97965 0.84766,28.98053 0.84766,-15.4927 0.84765,-42.35688 0.84766,-15.92364 0.84765,63.94507 0.84766,-4.47751 0.84766,0.80508 0.84765,12.53534 0.84766,12.54019 0.84766,-9.83956 0.84765,-32.55549 0.84766,11.22324 0.84765,4.89716 0.84766,-8.86832 0.84766,24.00772 0.84765,-17.40204 0.84766,-12.781 0.84766,3.87487 0.84765,23.01661 0.84766,6.95739 0.84765,-11.84805 0.84766,11.16107 0.84766,-5.10843 0.84765,-11.17675 0.84766,10.78631 0.84766,-4.5325 0.84765,3.51797 0.84766,-2.40661 0.84765,-15.22049 0.84766,0.49097 0.84766,26.7948 0.84765,1.61712 0.84766,-16.24499 0.84766,-14.8118 0.84765,19.67477 0.84766,-11.15075 0.84765,18.89972 0.84766,-19.46888 0.84766,20.60208 0.84765,-0.0965 0.84766,-62.31632 0.84766,-30.04876 0.84765,53.81448 0.84766,23.07272 0.84766,7.19013 0.84765,-10.85382 0.84766,11.72162 0.84765,-19.97062 0.84766,3.04129 0.84766,-12.2124 0.84765,16.78839 0.84766,11.80698 0.84765,-3.71784 0.84766,8.67328 0.84766,-4.4057 0.84765,-4.98681 0.84766,0.5892 0.84766,3.32678 0.84765,-12.76175 0.84766,-0.13348 0.84765,5.78378 0.84766,-2.06485 0.84766,-10.0766 0.84765,-11.25833 0.84766,8.5358 0.84766,5.46237 0.84765,-1.72794 0.84766,8.27991 0.84765,-33.82678 0.84766,24.02408 0.84766,-19.89307 0.84765,52.32196 0.84766,-20.63165 0.84766,-16.06076 0.84765,25.81451 0.84766,-6.01379 0.84765,-23.99411 0.84766,30.83005 0.84766,-25.56937 0.84765,17.48083 0.84766,4.30478 0.84766,-8.73205 0.84765,9.92447 0.84766,-28.38788 0.84765,9.49518 0.84766,11.93609 0.84766,14.17758 0.84765,-62.51535 0.84766,43.08149 0.84766,-4.87809 0.84765,13.97986 0.84766,4.67392 0.84765,-6.3486 0.84766,-6.83643 0.84766,15.98124 0.84765,-39.88233 0.84766,17.47186 0.84766,24.56116 0.84765,4.47711 0.84766,-13.77328 0.84765,-11.26404 0.84766,-2.87671 0.84766,-7.03161 0.84765,18.22482 L 507,340.77188"
           style="fill:none;stroke:#ff0000;stroke-width:0.666667;stroke-linecap:butt;stroke-linejoin:round;stroke-miterlimit:10;stroke-dasharray:none;stroke-opacity:1"
           id="path368" /></g><g
         id="g370"
         transform="matrix(6,0,0,6,-205,-81.375038)"><path
           d="M 496,95 V 42 h -80 v 53 z"
           style="fill:#ffffff;fill-opacity:1;fill-rule:nonzero;stroke:none"
           id="path372" /></g><g
         id="g374"><g
           id="g376"
           transform="matrix(6,0,0,6,2573,230.62496)"><text
             transform="translate(0,5)"
             style="font-variant:normal;font-weight:normal;font-size:12px;font-family:Helvetica;-inkscape-font-specification:Helvetica;writing-mode:lr-tb;fill:#000000;fill-opacity:1;fill-rule:nonzero;stroke:none"
             id="text380"><tspan
               x="0 8.0039997 18 24.672001"
               y="0"
               sodipodi:role="line"
               id="tspan378">Empt</tspan></text></g></g><g
         id="g382"
         transform="matrix(6,0,0,6,-205,-81.375038)"><path
           d="m 420,52 h 40"
           style="fill:none;stroke:#0000ff;stroke-width:0.666667;stroke-linecap:butt;stroke-linejoin:round;stroke-miterlimit:10;stroke-dasharray:none;stroke-opacity:1"
           id="path384" /></g><g
         id="g386"><g
           id="g388"
           transform="matrix(6,0,0,6,2573,329.62496)"><text
             transform="translate(0,5)"
             style="font-variant:normal;font-weight:normal;font-size:12px;font-family:Helvetica;-inkscape-font-specification:Helvetica;writing-mode:lr-tb;fill:#000000;fill-opacity:1;fill-rule:nonzero;stroke:none"
             id="text392"><tspan
               x="0 8.6639996 15.336 18"
               y="0"
               sodipodi:role="line"
               id="tspan390">Half</tspan></text></g></g><g
         id="g394"
         transform="matrix(6,0,0,6,-205,-81.375038)"><path
           d="m 420,68.5 h 40"
           style="fill:none;stroke:#000000;stroke-width:0.666667;stroke-linecap:butt;stroke-linejoin:round;stroke-miterlimit:10;stroke-dasharray:none;stroke-opacity:1"
           id="path396" /></g><g
         id="g398"><g
           id="g400"
           transform="matrix(6,0,0,6,2573,428.62496)"><text
             transform="translate(0,5)"
             style="font-variant:normal;font-weight:normal;font-size:12px;font-family:Helvetica;-inkscape-font-specification:Helvetica;writing-mode:lr-tb;fill:#000000;fill-opacity:1;fill-rule:nonzero;stroke:none"
             id="text404"><tspan
               x="0 7.3319998 14.004 16.667999"
               y="0"
               sodipodi:role="line"
               id="tspan402">Full</tspan></text></g></g><g
         id="g406"
         transform="matrix(6,0,0,6,-205,-81.375038)"><path
           d="m 420,85 h 40"
           style="fill:none;stroke:#ff0000;stroke-width:0.666667;stroke-linecap:butt;stroke-linejoin:round;stroke-miterlimit:10;stroke-dasharray:none;stroke-opacity:1"
           id="path408" /></g><g
         id="g410"
         transform="matrix(6,0,0,6,-205,-81.375038)"><path
           d="M 416,95 V 42 h 80 v 53 z"
           style="fill:none;stroke:#262626;stroke-width:0.666667;stroke-linecap:butt;stroke-linejoin:miter;stroke-miterlimit:10;stroke-dasharray:none;stroke-opacity:1"
           id="path412" /></g></g></g></svg>
