<?xml version="1.0" encoding="UTF-8" standalone="no"?>
<svg
   xmlns:dc="http://purl.org/dc/elements/1.1/"
   xmlns:cc="http://creativecommons.org/ns#"
   xmlns:rdf="http://www.w3.org/1999/02/22-rdf-syntax-ns#"
   xmlns:svg="http://www.w3.org/2000/svg"
   xmlns="http://www.w3.org/2000/svg"
   xmlns:sodipodi="http://sodipodi.sourceforge.net/DTD/sodipodi-0.dtd"
   xmlns:inkscape="http://www.inkscape.org/namespaces/inkscape"
   version="1.1"
   id="svg10"
   xml:space="preserve"
   width="496"
   height="404"
   viewBox="0 0 496 404"
   sodipodi:docname="AcImMaBot.svg"
   inkscape:version="1.0.1 (3bc2e813f5, 2020-09-07)"><metadata
     id="metadata16"><rdf:RDF><cc:Work
         rdf:about=""><dc:format>image/svg+xml</dc:format><dc:type
           rdf:resource="http://purl.org/dc/dcmitype/StillImage" /><dc:title></dc:title></cc:Work></rdf:RDF></metadata><defs
     id="defs14" /><sodipodi:namedview
     pagecolor="#ffffff"
     bordercolor="#666666"
     borderopacity="1"
     objecttolerance="10"
     gridtolerance="10"
     guidetolerance="10"
     inkscape:pageopacity="0"
     inkscape:pageshadow="2"
     inkscape:window-width="749"
     inkscape:window-height="480"
     id="namedview12"
     showgrid="false"
     inkscape:zoom="1.4207921"
     inkscape:cx="248"
     inkscape:cy="202"
     inkscape:window-x="0"
     inkscape:window-y="0"
     inkscape:window-maximized="0"
     inkscape:current-layer="g18" /><g
     id="g18"
     inkscape:groupmode="layer"
     inkscape:label="AcImMaBot"
     transform="matrix(1.3333333,0,0,-1.3333333,0,404)"><g
       id="g20"
       transform="matrix(0.125,0,0,-0.125,0,303)"><g
         id="g22"
         transform="matrix(6,0,0,6,-157,-81.374977)"><path
           d="M 0,0 H 560 V 420 H 0 Z"
           style="fill:#ffffff;fill-opacity:1;fill-rule:nonzero;stroke:none"
           id="path24" /></g><g
         id="g26"
         transform="matrix(6,0,0,6,-157,-81.374977)"><path
           d="M 73,374 H 507 V 31 H 73 Z"
           style="fill:#ffffff;fill-opacity:1;fill-rule:nonzero;stroke:none"
           id="path28" /></g><g
         id="g30"
         transform="matrix(6,0,0,6,-157,-81.374977)"><path
           d="M 73,374 H 507"
           style="fill:none;stroke:#262626;stroke-width:0.666667;stroke-linecap:square;stroke-linejoin:round;stroke-miterlimit:10;stroke-dasharray:none;stroke-opacity:1"
           id="path32" /></g><g
         id="g34"
         transform="matrix(6,0,0,6,-157,-81.374977)"><path
           d="M 73,31 H 507"
           style="fill:none;stroke:#262626;stroke-width:0.666667;stroke-linecap:square;stroke-linejoin:round;stroke-miterlimit:10;stroke-dasharray:none;stroke-opacity:1"
           id="path36" /></g><g
         id="g38"
         transform="matrix(6,0,0,6,-157,-81.374977)"><path
           d="m 73,374 v -4.34"
           style="fill:none;stroke:#262626;stroke-width:0.666667;stroke-linecap:square;stroke-linejoin:round;stroke-miterlimit:10;stroke-dasharray:none;stroke-opacity:1"
           id="path40" /></g><g
         id="g42"
         transform="matrix(6,0,0,6,-157,-81.374977)"><path
           d="m 116.4,374 v -4.34"
           style="fill:none;stroke:#262626;stroke-width:0.666667;stroke-linecap:square;stroke-linejoin:round;stroke-miterlimit:10;stroke-dasharray:none;stroke-opacity:1"
           id="path44" /></g><g
         id="g46"
         transform="matrix(6,0,0,6,-157,-81.374977)"><path
           d="m 159.8,374 v -4.34"
           style="fill:none;stroke:#262626;stroke-width:0.666667;stroke-linecap:square;stroke-linejoin:round;stroke-miterlimit:10;stroke-dasharray:none;stroke-opacity:1"
           id="path48" /></g><g
         id="g50"
         transform="matrix(6,0,0,6,-157,-81.374977)"><path
           d="m 203.2,374 v -4.34"
           style="fill:none;stroke:#262626;stroke-width:0.666667;stroke-linecap:square;stroke-linejoin:round;stroke-miterlimit:10;stroke-dasharray:none;stroke-opacity:1"
           id="path52" /></g><g
         id="g54"
         transform="matrix(6,0,0,6,-157,-81.374977)"><path
           d="m 246.60001,374 v -4.34"
           style="fill:none;stroke:#262626;stroke-width:0.666667;stroke-linecap:square;stroke-linejoin:round;stroke-miterlimit:10;stroke-dasharray:none;stroke-opacity:1"
           id="path56" /></g><g
         id="g58"
         transform="matrix(6,0,0,6,-157,-81.374977)"><path
           d="m 290,374 v -4.34"
           style="fill:none;stroke:#262626;stroke-width:0.666667;stroke-linecap:square;stroke-linejoin:round;stroke-miterlimit:10;stroke-dasharray:none;stroke-opacity:1"
           id="path60" /></g><g
         id="g62"
         transform="matrix(6,0,0,6,-157,-81.374977)"><path
           d="m 333.39999,374 v -4.34"
           style="fill:none;stroke:#262626;stroke-width:0.666667;stroke-linecap:square;stroke-linejoin:round;stroke-miterlimit:10;stroke-dasharray:none;stroke-opacity:1"
           id="path64" /></g><g
         id="g66"
         transform="matrix(6,0,0,6,-157,-81.374977)"><path
           d="m 376.79999,374 v -4.34"
           style="fill:none;stroke:#262626;stroke-width:0.666667;stroke-linecap:square;stroke-linejoin:round;stroke-miterlimit:10;stroke-dasharray:none;stroke-opacity:1"
           id="path68" /></g><g
         id="g70"
         transform="matrix(6,0,0,6,-157,-81.374977)"><path
           d="m 420.20001,374 v -4.34"
           style="fill:none;stroke:#262626;stroke-width:0.666667;stroke-linecap:square;stroke-linejoin:round;stroke-miterlimit:10;stroke-dasharray:none;stroke-opacity:1"
           id="path72" /></g><g
         id="g74"
         transform="matrix(6,0,0,6,-157,-81.374977)"><path
           d="m 463.60001,374 v -4.34"
           style="fill:none;stroke:#262626;stroke-width:0.666667;stroke-linecap:square;stroke-linejoin:round;stroke-miterlimit:10;stroke-dasharray:none;stroke-opacity:1"
           id="path76" /></g><g
         id="g78"
         transform="matrix(6,0,0,6,-157,-81.374977)"><path
           d="m 507,374 v -4.34"
           style="fill:none;stroke:#262626;stroke-width:0.666667;stroke-linecap:square;stroke-linejoin:round;stroke-miterlimit:10;stroke-dasharray:none;stroke-opacity:1"
           id="path80" /></g><g
         id="g82"
         transform="matrix(6,0,0,6,-157,-81.374977)"><path
           d="m 73,31 v 4.339996"
           style="fill:none;stroke:#262626;stroke-width:0.666667;stroke-linecap:square;stroke-linejoin:round;stroke-miterlimit:10;stroke-dasharray:none;stroke-opacity:1"
           id="path84" /></g><g
         id="g86"
         transform="matrix(6,0,0,6,-157,-81.374977)"><path
           d="m 116.4,31 v 4.339996"
           style="fill:none;stroke:#262626;stroke-width:0.666667;stroke-linecap:square;stroke-linejoin:round;stroke-miterlimit:10;stroke-dasharray:none;stroke-opacity:1"
           id="path88" /></g><g
         id="g90"
         transform="matrix(6,0,0,6,-157,-81.374977)"><path
           d="m 159.8,31 v 4.339996"
           style="fill:none;stroke:#262626;stroke-width:0.666667;stroke-linecap:square;stroke-linejoin:round;stroke-miterlimit:10;stroke-dasharray:none;stroke-opacity:1"
           id="path92" /></g><g
         id="g94"
         transform="matrix(6,0,0,6,-157,-81.374977)"><path
           d="m 203.2,31 v 4.339996"
           style="fill:none;stroke:#262626;stroke-width:0.666667;stroke-linecap:square;stroke-linejoin:round;stroke-miterlimit:10;stroke-dasharray:none;stroke-opacity:1"
           id="path96" /></g><g
         id="g98"
         transform="matrix(6,0,0,6,-157,-81.374977)"><path
           d="m 246.60001,31 v 4.339996"
           style="fill:none;stroke:#262626;stroke-width:0.666667;stroke-linecap:square;stroke-linejoin:round;stroke-miterlimit:10;stroke-dasharray:none;stroke-opacity:1"
           id="path100" /></g><g
         id="g102"
         transform="matrix(6,0,0,6,-157,-81.374977)"><path
           d="m 290,31 v 4.339996"
           style="fill:none;stroke:#262626;stroke-width:0.666667;stroke-linecap:square;stroke-linejoin:round;stroke-miterlimit:10;stroke-dasharray:none;stroke-opacity:1"
           id="path104" /></g><g
         id="g106"
         transform="matrix(6,0,0,6,-157,-81.374977)"><path
           d="m 333.39999,31 v 4.339996"
           style="fill:none;stroke:#262626;stroke-width:0.666667;stroke-linecap:square;stroke-linejoin:round;stroke-miterlimit:10;stroke-dasharray:none;stroke-opacity:1"
           id="path108" /></g><g
         id="g110"
         transform="matrix(6,0,0,6,-157,-81.374977)"><path
           d="m 376.79999,31 v 4.339996"
           style="fill:none;stroke:#262626;stroke-width:0.666667;stroke-linecap:square;stroke-linejoin:round;stroke-miterlimit:10;stroke-dasharray:none;stroke-opacity:1"
           id="path112" /></g><g
         id="g114"
         transform="matrix(6,0,0,6,-157,-81.374977)"><path
           d="m 420.20001,31 v 4.339996"
           style="fill:none;stroke:#262626;stroke-width:0.666667;stroke-linecap:square;stroke-linejoin:round;stroke-miterlimit:10;stroke-dasharray:none;stroke-opacity:1"
           id="path116" /></g><g
         id="g118"
         transform="matrix(6,0,0,6,-157,-81.374977)"><path
           d="m 463.60001,31 v 4.339996"
           style="fill:none;stroke:#262626;stroke-width:0.666667;stroke-linecap:square;stroke-linejoin:round;stroke-miterlimit:10;stroke-dasharray:none;stroke-opacity:1"
           id="path120" /></g><g
         id="g122"
         transform="matrix(6,0,0,6,-157,-81.374977)"><path
           d="m 507,31 v 4.339996"
           style="fill:none;stroke:#262626;stroke-width:0.666667;stroke-linecap:square;stroke-linejoin:round;stroke-miterlimit:10;stroke-dasharray:none;stroke-opacity:1"
           id="path124" /></g><g
         id="g126"><g
           id="g128"
           transform="matrix(6,0,0,6,281,2194.6251)"><text
             transform="translate(-4,14)"
             style="font-variant:normal;font-weight:normal;font-size:13.333px;font-family:Helvetica;-inkscape-font-specification:Helvetica;writing-mode:lr-tb;fill:#262626;fill-opacity:1;fill-rule:nonzero;stroke:none"
             id="text132"><tspan
               x="0"
               y="0"
               id="tspan130">0</tspan></text></g></g><g
         id="g134"><g
           id="g136"
           transform="matrix(6,0,0,6,541.40001,2194.6251)"><text
             transform="translate(-11.5,14)"
             style="font-variant:normal;font-weight:normal;font-size:13.333px;font-family:Helvetica;-inkscape-font-specification:Helvetica;writing-mode:lr-tb;fill:#262626;fill-opacity:1;fill-rule:nonzero;stroke:none"
             id="text140"><tspan
               x="0 7.4131479 14.826296"
               y="0"
               sodipodi:role="line"
               id="tspan138">200</tspan></text></g></g><g
         id="g142"><g
           id="g144"
           transform="matrix(6,0,0,6,801.80002,2194.6251)"><text
             transform="translate(-11.5,14)"
             style="font-variant:normal;font-weight:normal;font-size:13.333px;font-family:Helvetica;-inkscape-font-specification:Helvetica;writing-mode:lr-tb;fill:#262626;fill-opacity:1;fill-rule:nonzero;stroke:none"
             id="text148"><tspan
               x="0 7.4131479 14.826296"
               y="0"
               sodipodi:role="line"
               id="tspan146">400</tspan></text></g></g><g
         id="g150"><g
           id="g152"
           transform="matrix(6,0,0,6,1062.2,2194.6251)"><text
             transform="translate(-11.5,14)"
             style="font-variant:normal;font-weight:normal;font-size:13.333px;font-family:Helvetica;-inkscape-font-specification:Helvetica;writing-mode:lr-tb;fill:#262626;fill-opacity:1;fill-rule:nonzero;stroke:none"
             id="text156"><tspan
               x="0 7.4131479 14.826296"
               y="0"
               sodipodi:role="line"
               id="tspan154">600</tspan></text></g></g><g
         id="g158"><g
           id="g160"
           transform="matrix(6,0,0,6,1322.6,2194.6251)"><text
             transform="translate(-11.5,14)"
             style="font-variant:normal;font-weight:normal;font-size:13.333px;font-family:Helvetica;-inkscape-font-specification:Helvetica;writing-mode:lr-tb;fill:#262626;fill-opacity:1;fill-rule:nonzero;stroke:none"
             id="text164"><tspan
               x="0 7.4131479 14.826296"
               y="0"
               sodipodi:role="line"
               id="tspan162">800</tspan></text></g></g><g
         id="g166"><g
           id="g168"
           transform="matrix(6,0,0,6,1583,2194.6251)"><text
             transform="translate(-15,14)"
             style="font-variant:normal;font-weight:normal;font-size:13.333px;font-family:Helvetica;-inkscape-font-specification:Helvetica;writing-mode:lr-tb;fill:#262626;fill-opacity:1;fill-rule:nonzero;stroke:none"
             id="text172"><tspan
               x="0 7.4131479 14.826296 22.239445"
               y="0"
               sodipodi:role="line"
               id="tspan170">1000</tspan></text></g></g><g
         id="g174"><g
           id="g176"
           transform="matrix(6,0,0,6,1843.4,2194.6251)"><text
             transform="translate(-15,14)"
             style="font-variant:normal;font-weight:normal;font-size:13.333px;font-family:Helvetica;-inkscape-font-specification:Helvetica;writing-mode:lr-tb;fill:#262626;fill-opacity:1;fill-rule:nonzero;stroke:none"
             id="text180"><tspan
               x="0 7.4131479 14.826296 22.239445"
               y="0"
               sodipodi:role="line"
               id="tspan178">1200</tspan></text></g></g><g
         id="g182"><g
           id="g184"
           transform="matrix(6,0,0,6,2103.7999,2194.6251)"><text
             transform="translate(-15,14)"
             style="font-variant:normal;font-weight:normal;font-size:13.333px;font-family:Helvetica;-inkscape-font-specification:Helvetica;writing-mode:lr-tb;fill:#262626;fill-opacity:1;fill-rule:nonzero;stroke:none"
             id="text188"><tspan
               x="0 7.4131479 14.826296 22.239445"
               y="0"
               sodipodi:role="line"
               id="tspan186">1400</tspan></text></g></g><g
         id="g190"><g
           id="g192"
           transform="matrix(6,0,0,6,2364.2001,2194.6251)"><text
             transform="translate(-15,14)"
             style="font-variant:normal;font-weight:normal;font-size:13.333px;font-family:Helvetica;-inkscape-font-specification:Helvetica;writing-mode:lr-tb;fill:#262626;fill-opacity:1;fill-rule:nonzero;stroke:none"
             id="text196"><tspan
               x="0 7.4131479 14.826296 22.239445"
               y="0"
               sodipodi:role="line"
               id="tspan194">1600</tspan></text></g></g><g
         id="g198"><g
           id="g200"
           transform="matrix(6,0,0,6,2624.6,2194.6251)"><text
             transform="translate(-15,14)"
             style="font-variant:normal;font-weight:normal;font-size:13.333px;font-family:Helvetica;-inkscape-font-specification:Helvetica;writing-mode:lr-tb;fill:#262626;fill-opacity:1;fill-rule:nonzero;stroke:none"
             id="text204"><tspan
               x="0 7.4131479 14.826296 22.239445"
               y="0"
               sodipodi:role="line"
               id="tspan202">1800</tspan></text></g></g><g
         id="g206"><g
           id="g208"
           transform="matrix(6,0,0,6,2885,2194.6251)"><text
             transform="translate(-15,14)"
             style="font-variant:normal;font-weight:normal;font-size:13.333px;font-family:Helvetica;-inkscape-font-specification:Helvetica;writing-mode:lr-tb;fill:#262626;fill-opacity:1;fill-rule:nonzero;stroke:none"
             id="text212"><tspan
               x="0 7.4131479 14.826296 22.239445"
               y="0"
               sodipodi:role="line"
               id="tspan210">2000</tspan></text></g></g><g
         id="g214"><g
           id="g216"
           transform="matrix(6,0,0,6,1583.0013,2304.625)"><text
             transform="translate(-48.5,15)"
             style="font-variant:normal;font-weight:normal;font-size:14.667px;font-family:Helvetica;-inkscape-font-specification:Helvetica;writing-mode:lr-tb;fill:#262626;fill-opacity:1;fill-rule:nonzero;stroke:none"
             id="text220"><tspan
               x="0 8.9615374 13.845648 22.0005 30.155352 38.310204 46.465057 54.619907 61.953407 69.286911 74.171021 84.76059 92.094093"
               y="0"
               sodipodi:role="line"
               id="tspan218">Frequency(Hz)</tspan></text></g></g><g
         id="g222"
         transform="matrix(6,0,0,6,-157,-81.374977)"><path
           d="M 73,374 V 31"
           style="fill:none;stroke:#262626;stroke-width:0.666667;stroke-linecap:square;stroke-linejoin:round;stroke-miterlimit:10;stroke-dasharray:none;stroke-opacity:1"
           id="path224" /></g><g
         id="g226"
         transform="matrix(6,0,0,6,-157,-81.374977)"><path
           d="M 507,374 V 31"
           style="fill:none;stroke:#262626;stroke-width:0.666667;stroke-linecap:square;stroke-linejoin:round;stroke-miterlimit:10;stroke-dasharray:none;stroke-opacity:1"
           id="path228" /></g><g
         id="g230"
         transform="matrix(6,0,0,6,-157,-81.374977)"><path
           d="m 73,374 h 4.339996"
           style="fill:none;stroke:#262626;stroke-width:0.666667;stroke-linecap:square;stroke-linejoin:round;stroke-miterlimit:10;stroke-dasharray:none;stroke-opacity:1"
           id="path232" /></g><g
         id="g234"
         transform="matrix(6,0,0,6,-157,-81.374977)"><path
           d="m 73,339.70001 h 4.339996"
           style="fill:none;stroke:#262626;stroke-width:0.666667;stroke-linecap:square;stroke-linejoin:round;stroke-miterlimit:10;stroke-dasharray:none;stroke-opacity:1"
           id="path236" /></g><g
         id="g238"
         transform="matrix(6,0,0,6,-157,-81.374977)"><path
           d="m 73,305.39999 h 4.339996"
           style="fill:none;stroke:#262626;stroke-width:0.666667;stroke-linecap:square;stroke-linejoin:round;stroke-miterlimit:10;stroke-dasharray:none;stroke-opacity:1"
           id="path240" /></g><g
         id="g242"
         transform="matrix(6,0,0,6,-157,-81.374977)"><path
           d="m 73,271.10001 h 4.339996"
           style="fill:none;stroke:#262626;stroke-width:0.666667;stroke-linecap:square;stroke-linejoin:round;stroke-miterlimit:10;stroke-dasharray:none;stroke-opacity:1"
           id="path244" /></g><g
         id="g246"
         transform="matrix(6,0,0,6,-157,-81.374977)"><path
           d="m 73,236.8 h 4.339996"
           style="fill:none;stroke:#262626;stroke-width:0.666667;stroke-linecap:square;stroke-linejoin:round;stroke-miterlimit:10;stroke-dasharray:none;stroke-opacity:1"
           id="path248" /></g><g
         id="g250"
         transform="matrix(6,0,0,6,-157,-81.374977)"><path
           d="m 73,202.5 h 4.339996"
           style="fill:none;stroke:#262626;stroke-width:0.666667;stroke-linecap:square;stroke-linejoin:round;stroke-miterlimit:10;stroke-dasharray:none;stroke-opacity:1"
           id="path252" /></g><g
         id="g254"
         transform="matrix(6,0,0,6,-157,-81.374977)"><path
           d="m 73,168.2 h 4.339996"
           style="fill:none;stroke:#262626;stroke-width:0.666667;stroke-linecap:square;stroke-linejoin:round;stroke-miterlimit:10;stroke-dasharray:none;stroke-opacity:1"
           id="path256" /></g><g
         id="g258"
         transform="matrix(6,0,0,6,-157,-81.374977)"><path
           d="m 73,133.89999 h 4.339996"
           style="fill:none;stroke:#262626;stroke-width:0.666667;stroke-linecap:square;stroke-linejoin:round;stroke-miterlimit:10;stroke-dasharray:none;stroke-opacity:1"
           id="path260" /></g><g
         id="g262"
         transform="matrix(6,0,0,6,-157,-81.374977)"><path
           d="m 73,99.599998 h 4.339996"
           style="fill:none;stroke:#262626;stroke-width:0.666667;stroke-linecap:square;stroke-linejoin:round;stroke-miterlimit:10;stroke-dasharray:none;stroke-opacity:1"
           id="path264" /></g><g
         id="g266"
         transform="matrix(6,0,0,6,-157,-81.374977)"><path
           d="m 73,65.300003 h 4.339996"
           style="fill:none;stroke:#262626;stroke-width:0.666667;stroke-linecap:square;stroke-linejoin:round;stroke-miterlimit:10;stroke-dasharray:none;stroke-opacity:1"
           id="path268" /></g><g
         id="g270"
         transform="matrix(6,0,0,6,-157,-81.374977)"><path
           d="m 73,31 h 4.339996"
           style="fill:none;stroke:#262626;stroke-width:0.666667;stroke-linecap:square;stroke-linejoin:round;stroke-miterlimit:10;stroke-dasharray:none;stroke-opacity:1"
           id="path272" /></g><g
         id="g274"
         transform="matrix(6,0,0,6,-157,-81.374977)"><path
           d="m 507,374 h -4.34"
           style="fill:none;stroke:#262626;stroke-width:0.666667;stroke-linecap:square;stroke-linejoin:round;stroke-miterlimit:10;stroke-dasharray:none;stroke-opacity:1"
           id="path276" /></g><g
         id="g278"
         transform="matrix(6,0,0,6,-157,-81.374977)"><path
           d="m 507,339.70001 h -4.34"
           style="fill:none;stroke:#262626;stroke-width:0.666667;stroke-linecap:square;stroke-linejoin:round;stroke-miterlimit:10;stroke-dasharray:none;stroke-opacity:1"
           id="path280" /></g><g
         id="g282"
         transform="matrix(6,0,0,6,-157,-81.374977)"><path
           d="m 507,305.39999 h -4.34"
           style="fill:none;stroke:#262626;stroke-width:0.666667;stroke-linecap:square;stroke-linejoin:round;stroke-miterlimit:10;stroke-dasharray:none;stroke-opacity:1"
           id="path284" /></g><g
         id="g286"
         transform="matrix(6,0,0,6,-157,-81.374977)"><path
           d="m 507,271.10001 h -4.34"
           style="fill:none;stroke:#262626;stroke-width:0.666667;stroke-linecap:square;stroke-linejoin:round;stroke-miterlimit:10;stroke-dasharray:none;stroke-opacity:1"
           id="path288" /></g><g
         id="g290"
         transform="matrix(6,0,0,6,-157,-81.374977)"><path
           d="m 507,236.8 h -4.34"
           style="fill:none;stroke:#262626;stroke-width:0.666667;stroke-linecap:square;stroke-linejoin:round;stroke-miterlimit:10;stroke-dasharray:none;stroke-opacity:1"
           id="path292" /></g><g
         id="g294"
         transform="matrix(6,0,0,6,-157,-81.374977)"><path
           d="m 507,202.5 h -4.34"
           style="fill:none;stroke:#262626;stroke-width:0.666667;stroke-linecap:square;stroke-linejoin:round;stroke-miterlimit:10;stroke-dasharray:none;stroke-opacity:1"
           id="path296" /></g><g
         id="g298"
         transform="matrix(6,0,0,6,-157,-81.374977)"><path
           d="m 507,168.2 h -4.34"
           style="fill:none;stroke:#262626;stroke-width:0.666667;stroke-linecap:square;stroke-linejoin:round;stroke-miterlimit:10;stroke-dasharray:none;stroke-opacity:1"
           id="path300" /></g><g
         id="g302"
         transform="matrix(6,0,0,6,-157,-81.374977)"><path
           d="m 507,133.89999 h -4.34"
           style="fill:none;stroke:#262626;stroke-width:0.666667;stroke-linecap:square;stroke-linejoin:round;stroke-miterlimit:10;stroke-dasharray:none;stroke-opacity:1"
           id="path304" /></g><g
         id="g306"
         transform="matrix(6,0,0,6,-157,-81.374977)"><path
           d="m 507,99.599998 h -4.34"
           style="fill:none;stroke:#262626;stroke-width:0.666667;stroke-linecap:square;stroke-linejoin:round;stroke-miterlimit:10;stroke-dasharray:none;stroke-opacity:1"
           id="path308" /></g><g
         id="g310"
         transform="matrix(6,0,0,6,-157,-81.374977)"><path
           d="m 507,65.300003 h -4.34"
           style="fill:none;stroke:#262626;stroke-width:0.666667;stroke-linecap:square;stroke-linejoin:round;stroke-miterlimit:10;stroke-dasharray:none;stroke-opacity:1"
           id="path312" /></g><g
         id="g314"
         transform="matrix(6,0,0,6,-157,-81.374977)"><path
           d="m 507,31 h -4.34"
           style="fill:none;stroke:#262626;stroke-width:0.666667;stroke-linecap:square;stroke-linejoin:round;stroke-miterlimit:10;stroke-dasharray:none;stroke-opacity:1"
           id="path316" /></g><g
         id="g318"><g
           id="g320"
           transform="matrix(6,0,0,6,248.99998,2162.625)"><text
             transform="translate(-8,5.5)"
             style="font-variant:normal;font-weight:normal;font-size:13.333px;font-family:Helvetica;-inkscape-font-specification:Helvetica;writing-mode:lr-tb;fill:#262626;fill-opacity:1;fill-rule:nonzero;stroke:none"
             id="text324"><tspan
               x="0"
               y="0"
               id="tspan322">0</tspan></text></g></g><g
         id="g326"><g
           id="g328"
           transform="matrix(6,0,0,6,248.99998,1956.8251)"><text
             transform="translate(-15,5.5)"
             style="font-variant:normal;font-weight:normal;font-size:13.333px;font-family:Helvetica;-inkscape-font-specification:Helvetica;writing-mode:lr-tb;fill:#262626;fill-opacity:1;fill-rule:nonzero;stroke:none"
             id="text332"><tspan
               x="0 7.4131479"
               y="0"
               sodipodi:role="line"
               id="tspan330">10</tspan></text></g></g><g
         id="g334"><g
           id="g336"
           transform="matrix(6,0,0,6,248.99998,1751.025)"><text
             transform="translate(-15,5.5)"
             style="font-variant:normal;font-weight:normal;font-size:13.333px;font-family:Helvetica;-inkscape-font-specification:Helvetica;writing-mode:lr-tb;fill:#262626;fill-opacity:1;fill-rule:nonzero;stroke:none"
             id="text340"><tspan
               x="0 7.4131479"
               y="0"
               sodipodi:role="line"
               id="tspan338">20</tspan></text></g></g><g
         id="g342"><g
           id="g344"
           transform="matrix(6,0,0,6,248.99998,1545.2251)"><text
             transform="translate(-15,5.5)"
             style="font-variant:normal;font-weight:normal;font-size:13.333px;font-family:Helvetica;-inkscape-font-specification:Helvetica;writing-mode:lr-tb;fill:#262626;fill-opacity:1;fill-rule:nonzero;stroke:none"
             id="text348"><tspan
               x="0 7.4131479"
               y="0"
               sodipodi:role="line"
               id="tspan346">30</tspan></text></g></g><g
         id="g350"><g
           id="g352"
           transform="matrix(6,0,0,6,248.99998,1339.425)"><text
             transform="translate(-15,5.5)"
             style="font-variant:normal;font-weight:normal;font-size:13.333px;font-family:Helvetica;-inkscape-font-specification:Helvetica;writing-mode:lr-tb;fill:#262626;fill-opacity:1;fill-rule:nonzero;stroke:none"
             id="text356"><tspan
               x="0 7.4131479"
               y="0"
               sodipodi:role="line"
               id="tspan354">40</tspan></text></g></g><g
         id="g358"><g
           id="g360"
           transform="matrix(6,0,0,6,248.99998,1133.625)"><text
             transform="translate(-15,5.5)"
             style="font-variant:normal;font-weight:normal;font-size:13.333px;font-family:Helvetica;-inkscape-font-specification:Helvetica;writing-mode:lr-tb;fill:#262626;fill-opacity:1;fill-rule:nonzero;stroke:none"
             id="text364"><tspan
               x="0 7.4131479"
               y="0"
               sodipodi:role="line"
               id="tspan362">50</tspan></text></g></g><g
         id="g366"><g
           id="g368"
           transform="matrix(6,0,0,6,248.99998,927.825)"><text
             transform="translate(-15,5.5)"
             style="font-variant:normal;font-weight:normal;font-size:13.333px;font-family:Helvetica;-inkscape-font-specification:Helvetica;writing-mode:lr-tb;fill:#262626;fill-opacity:1;fill-rule:nonzero;stroke:none"
             id="text372"><tspan
               x="0 7.4131479"
               y="0"
               sodipodi:role="line"
               id="tspan370">60</tspan></text></g></g><g
         id="g374"><g
           id="g376"
           transform="matrix(6,0,0,6,248.99998,722.02499)"><text
             transform="translate(-15,5.5)"
             style="font-variant:normal;font-weight:normal;font-size:13.333px;font-family:Helvetica;-inkscape-font-specification:Helvetica;writing-mode:lr-tb;fill:#262626;fill-opacity:1;fill-rule:nonzero;stroke:none"
             id="text380"><tspan
               x="0 7.4131479"
               y="0"
               sodipodi:role="line"
               id="tspan378">70</tspan></text></g></g><g
         id="g382"><g
           id="g384"
           transform="matrix(6,0,0,6,248.99998,516.22501)"><text
             transform="translate(-15,5.5)"
             style="font-variant:normal;font-weight:normal;font-size:13.333px;font-family:Helvetica;-inkscape-font-specification:Helvetica;writing-mode:lr-tb;fill:#262626;fill-opacity:1;fill-rule:nonzero;stroke:none"
             id="text388"><tspan
               x="0 7.4131479"
               y="0"
               sodipodi:role="line"
               id="tspan386">80</tspan></text></g></g><g
         id="g390"><g
           id="g392"
           transform="matrix(6,0,0,6,248.99998,310.42504)"><text
             transform="translate(-15,5.5)"
             style="font-variant:normal;font-weight:normal;font-size:13.333px;font-family:Helvetica;-inkscape-font-specification:Helvetica;writing-mode:lr-tb;fill:#262626;fill-opacity:1;fill-rule:nonzero;stroke:none"
             id="text396"><tspan
               x="0 7.4131479"
               y="0"
               sodipodi:role="line"
               id="tspan394">90</tspan></text></g></g><g
         id="g398"><g
           id="g400"
           transform="matrix(6,0,0,6,248.99998,104.62502)"><text
             transform="translate(-23,5.5)"
             style="font-variant:normal;font-weight:normal;font-size:13.333px;font-family:Helvetica;-inkscape-font-specification:Helvetica;writing-mode:lr-tb;fill:#262626;fill-opacity:1;fill-rule:nonzero;stroke:none"
             id="text404"><tspan
               x="0 7.4131479 14.826296"
               y="0"
               sodipodi:role="line"
               id="tspan402">100</tspan></text></g></g><g
         id="g406"><g
           id="g408"
           transform="matrix(-2.6e-7,-6,6,-2.6e-7,87.000008,1133.6241)"><text
             transform="translate(-33,-4)"
             style="font-variant:normal;font-weight:normal;font-size:14.667px;font-family:Helvetica;-inkscape-font-specification:Helvetica;writing-mode:lr-tb;fill:#262626;fill-opacity:1;fill-rule:nonzero;stroke:none"
             id="text412"><tspan
               x="0 9.7828894 22.0005 30.155352 33.411427 36.6675 40.744926 48.899776 57.05463"
               y="0"
               sodipodi:role="line"
               id="tspan410">Amplitude</tspan></text></g></g><g
         id="g414"><g
           id="g416"
           transform="matrix(6,0,0,6,1583.0016,88.125)"><text
             transform="translate(-202.5,-4)"
             style="font-variant:normal;font-weight:bold;font-size:14.667px;font-family:Helvetica;-inkscape-font-specification:Helvetica-Bold;writing-mode:lr-tb;fill:#000000;fill-opacity:1;fill-rule:nonzero;stroke:none"
             id="text420"><tspan
               x="0 9.7828894 18.744427 26.899279 35.054131 39.93824 45.643703 54.60524 67.644203 71.721626 80.683167 85.567276 89.644707 94.528816 103.49035 111.6452 115.72263 120.60674 129.56828 135.27374 143.42859 151.58345 155.66087 166.25044 175.21198 180.0961 184.98021 189.05763 197.21248 205.36734 209.44476 213.52219 224.11176 232.26662 240.42146 248.57631 252.65375 260.80859 266.51407 275.47559 288.51456 296.6694 301.55353 309.70837 315.41385 319.49127 330.90219 334.97961 339.86374 348.82526 352.90268 365.94165 374.0965 383.05804 392.01956 400.17444"
               y="0"
               sodipodi:role="line"
               id="tspan418">Spectrum of the three Bottles, Accelerometer with magnet</tspan></text></g></g><g
         id="g422"
         transform="matrix(6,0,0,6,-157,-81.374977)"><path
           d="m 73.847656,362.4693 0.847656,5.08517 0.847657,-2.23993 0.847656,-16.80325 0.847656,4.22189 0.847656,-9.44439 0.847657,4.76086 0.847656,5.35758 0.847656,3.45675 0.847656,-0.0935 0.847657,-2.06693 0.847656,-40.82644 0.847656,-0.88724 0.847656,40.6626 0.847657,-4.75748 0.847656,-2.0365 0.847656,9.27255 0.847656,7.36099 0.847657,-24.43609 0.847656,-4.08771 0.847656,0.49335 0.847656,35.31238 0.847657,-30.448 0.847656,10.46011 0.847656,6.35022 0.847656,13.29242 0.847657,-19.57953 0.847656,-1.24399 0.847656,-9.60711 0.847656,16.37384 0.847657,-5.39014 0.847656,-5.22507 0.84766,-14.72192 0.84765,24.04044 0.84766,-0.43879 0.84766,1.12122 0.84765,6.4454 0.84766,-5.05639 0.84765,8.77826 0.84766,-13.41227 0.84766,-0.7434 0.84765,-6.94989 0.84766,14.23788 0.84766,-27.60638 0.84765,20.07794 0.84766,-2.17746 0.84765,20.74621 0.84766,-13.05163 0.84766,-5.90482 0.84765,7.32764 0.84766,2.5773 0.84766,-10.71185 0.84765,9.32763 0.84766,4.79743 0.84765,-13.14496 0.84766,13.38782 0.84766,-9.44702 0.84765,0.52917 0.84766,8.77725 0.84765,-4.8529 0.84766,-4.26059 0.84766,2.84198 0.84765,-4.20459 0.84766,-0.84946 0.84766,-20.5285 0.84765,30.75464 0.84766,-6.96756 0.84765,-1.59043 0.84766,2.14161 0.84766,8.40744 0.84765,-21.45697 0.84766,20.372 0.84766,-2.43417 0.84765,5.56543 0.84766,-9.89313 0.84765,-4.59445 0.84766,-7.85425 0.84766,15.81891 0.84765,-2.53152 0.84766,-8.68964 0.84766,-0.65771 0.84765,6.83337 0.84766,0.53992 0.84765,5.7623 0.84766,3.38345 0.84766,-0.63205 0.84765,7.80759 0.84766,-7.88425 0.84766,1.3522 0.84765,-25.83358 0.84766,19.05676 0.84765,-6.2731 0.84766,10.75549 0.84766,-8.41562 0.84765,4.74719 0.84766,-6.24395 0.84766,-11.55649 0.84765,9.96493 0.84766,4.7471 0.84765,2.98706 0.84766,1.08249 0.84766,6.32569 0.84765,-8.96216 0.84766,-12.81409 0.84766,7.07334 0.84765,-7.00235 0.84766,17.71441 0.84765,-0.0924 0.84766,-4.80874 0.84766,-32.92758 0.84765,40.32577 0.84766,1.2323 0.84766,-4.13995 0.84765,6.22937 0.84766,-15.87567 0.84766,6.45675 0.84765,-1.57119 0.84766,11.89947 0.84765,-5.02521 0.84766,-12.13797 0.84766,11.76157 0.84765,-11.47235 0.84766,7.30392 0.84765,-14.78885 0.84766,7.04331 0.84766,-0.0116 0.84765,-15.14444 0.84766,23.27072 0.84766,-0.82281 0.84765,-2.04968 0.84766,6.44967 0.84765,-2.92633 0.84766,-3.49948 0.84766,2.68036 0.84765,-5.15585 0.84766,1.97131 0.84766,0.6676 0.84765,10.65247 0.84766,-8.57443 0.84765,-28.46122 0.84766,21.36289 0.84766,16.66196 0.84765,-14.88047 0.84766,14.65534 0.84766,0.25766 0.84765,-0.55631 0.84766,-12.58191 0.84765,10.78153 0.84766,-6.68015 0.84766,4.27222 0.84765,-6.25665 0.84766,-7.58619 0.84766,14.0691 0.84765,-14.86814 0.84766,6.71274 0.84765,-4.92935 0.84766,4.99094 0.84766,10.75946 0.84765,-10.51835 0.84766,-0.56393 0.84766,1.54779 0.84765,3.965 0.84766,-24.19394 0.84765,21.91299 0.84766,-0.47976 0.84766,0.85611 0.84765,1.20059 0.84766,-7.48712 0.84766,4.64596 0.84765,4.55313 0.84766,6.88684 0.84765,-1.87942 0.84766,1.21124 0.84766,-53.51456 0.84765,45.1041 0.84766,-1.74762 0.84766,-6.09613 0.84765,11.63629 0.84766,5.70337 0.84765,-17.13367 0.84766,12.12213 0.84766,-7.10043 0.84765,10.93228 0.84766,-8.76599 0.84766,-6.67792 0.84765,6.08429 0.84766,2.25162 0.84765,-12.21405 0.84766,11.39188 0.84766,4.7001 0.84765,5.72537 0.84766,-21.53061 0.84766,17.00754 0.84765,-1.88696 0.84766,-1.70834 0.84765,-7.99189 0.84766,7.034 0.84766,-7.41 0.84765,10.67062 0.84766,-4.52866 0.84766,-1.55993 0.84765,4.66525 0.84766,-0.87653 0.84765,-4.40237 0.84766,-7.60284 0.84766,-1.16022 0.84765,15.987 0.84766,-6.32102 0.84766,5.08887 0.84765,-1.55939 0.84766,-1.24746 0.84765,-1.77515 0.84766,-11.85599 0.84766,20.50626 0.84765,1.06766 0.84766,-10.01102 0.84766,1.97427 0.84765,-23.0679 0.84766,19.16989 0.84765,-9.28378 0.84766,10.4187 0.84766,-1.0751 0.84765,-2.73722 0.84766,-14.13681 0.84766,-0.75415 0.84765,6.44748 0.84766,12.02426 0.84765,-101.98959 0.84766,36.92496 0.84766,61.83053 0.84765,12.788 0.84766,-23.59287 0.84766,10.20539 0.84765,-3.97516 0.84766,15.97467 0.84765,-1.68723 0.84766,-1.55121 0.84766,-4.3717 0.84765,1.54892 0.84766,-17.23248 0.84766,-3.38883 0.84765,14.26688 0.84766,6.323 0.84765,-10.91324 0.84766,8.00842 0.84766,-3.86215 0.84765,-3.93024 0.84766,-1.68579 0.84766,12.30554 0.84765,-8.78866 0.84766,-1.50186 0.84765,1.00824 0.84766,6.59182 0.84766,-8.36938 0.84765,-5.40146 0.84766,5.28705 0.84766,8.5777 0.84765,-9.23737 0.84766,-14.73663 0.84765,9.39511 0.84766,17.96127 0.84766,-27.33411 0.84765,37.4119 0.84766,-19.46124 0.84766,-0.21094 0.84765,2.13705 0.84766,-12.42419 0.84765,-8.02939 0.84766,-33.22418 0.84766,46.24548 0.84765,22.01349 0.84766,-22.15979 0.84766,15.82376 0.84765,3.94907 0.84766,-5.66351 0.84765,-17.4524 0.84766,14.8526 0.84766,-6.20288 0.84765,11.78006 0.84766,-17.13138 0.84766,11.69648 0.84765,-20.85666 0.84766,19.84207 0.84765,3.20645 0.84766,-6.15668 0.84766,7.35227 0.84765,-4.09616 0.84766,4.64898 0.84766,2.30146 0.84765,-4.04126 0.84766,-12.823 0.84765,11.32028 0.84766,-10.35602 0.84766,12.07898 0.84765,3.94583 0.84766,-6.89105 0.84766,1.34787 0.84765,-5.89896 0.84766,-4.98996 0.84765,6.52643 0.84766,10.36365 0.84766,1.63757 0.84765,0.38053 0.84766,-24.20597 0.84766,21.2284 0.84765,-0.0276 0.84766,-21.88687 0.84765,13.05267 0.84766,2.85117 0.84766,-15.61597 0.84765,15.63837 0.84766,-3.64493 0.84766,10.86062 0.84765,4.36322 0.84766,-5.08569 0.84765,-5.38974 0.84766,-6.36029 0.84766,2.34277 0.84765,0.28247 0.84766,5.36676 0.84766,5.28415 0.84765,-4.2695 0.84766,-19.06454 0.84766,24.58475 0.84765,-17.42438 0.84766,11.97674 0.84765,-16.87106 0.84766,26.07352 0.84766,-7.81378 0.84765,-7.21082 0.84766,2.16418 0.84765,4.91807 0.84766,-7.72138 0.84766,6.09244 0.84765,-7.79141 0.84766,9.40567 0.84766,-1.41306 0.84765,-17.2453 0.84766,14.52985 0.84765,-3.66956 0.84766,7.42847 0.84766,6.15808 0.84765,-17.56021 0.84766,-58.95557 0.84766,65.27466 0.84765,-1.47983 0.84766,7.25867 0.84765,-2.22202 0.84766,-17.14526 0.84766,-4.02881 0.84765,11.26398 0.84766,-11.74426 0.84766,8.68133 0.84765,-6.974 0.84766,1.89237 0.84765,3.49075 0.84766,14.14011 0.84766,-18.88428 0.84765,-1.20624 0.84766,11.96674 0.84766,-7.81284 0.84765,2.73941 0.84766,3.12821 0.84765,4.1347 0.84766,-6.96661 0.84766,6.64557 0.84765,-8.74598 0.84766,5.49475 0.84766,18.62211 0.84765,-19.28888 0.84766,4.17059 0.84765,-3.30457 0.84766,7.11567 0.84766,-9.21708 0.84765,4.75916 0.84766,-5.47757 0.84766,14.05698 0.84765,-2.55863 0.84766,-0.62955 0.84765,-3.7189 0.84766,-6.66272 0.84766,11.09046 0.84765,6.12088 0.84766,-4.67652 0.84766,-0.40191 0.84765,-2.97028 0.84766,-5.12204 0.84765,-11.51614 0.84766,14.96655 0.84766,6.15988 0.84765,-19.28033 0.84766,8.84204 0.84766,10.38891 0.84765,-4.54449 0.84766,4.44253 0.84765,-19.793 0.84766,21.05671 0.84766,-5.10019 0.84765,-2.19608 0.84766,12.00488 0.84766,-16.40075 0.84765,4.46655 0.84766,-9.26184 0.84765,-0.16144 0.84766,-0.50583 0.84766,17.76367 0.84765,-25.10021 0.84766,12.41494 0.84766,7.05673 0.84765,-2.66546 0.84766,3.02447 0.84765,-5.737 0.84766,11.57114 0.84766,1.90796 0.84765,-8.12418 0.84766,-11.25506 0.84766,13.67358 0.84765,-93.53778 0.84766,59.55893 0.84765,42.70929 0.84766,-14.82144 0.84766,-7.72855 0.84765,0.31507 0.84766,11.52301 0.84766,-10.46903 0.84765,6.09235 0.84766,6.06424 0.84765,-13.58066 0.84766,2.36908 0.84766,-35.24335 0.84765,44.09622 0.84766,-26.91644 0.84766,37.27713 0.84765,-13.60611 0.84766,-4.2583 0.84765,16.23727 0.84766,-19.57235 0.84766,5.39019 0.84765,-9.72088 0.84766,24.26742 0.84766,-29.17788 0.84765,24.2597 0.84766,-1.17904 0.84765,4.48687 0.84766,-16.12939 0.84766,10.58996 0.84765,-5.28585 0.84766,-0.61155 0.84766,-1.466 0.84765,-2.12176 0.84766,5.81625 0.84766,7.70669 0.84765,-3.47769 0.84766,-5.37707 0.84765,12.56094 0.84766,-25.55548 0.84766,5.12546 0.84765,22.62228 0.84766,-8.72003 0.84765,5.09845 0.84766,-14.87848 0.84766,-36.28485 0.84765,37.19351 0.84766,16.46918 0.84766,-7.7475 0.84765,2.25379 0.84766,-6.46918 0.84765,2.93243 0.84766,10.34088 0.84766,-14.04672 0.84765,-11.41595 0.84766,14.867 0.84766,-67.77072 0.84765,47.50375 0.84766,27.21427 0.84765,-8.94538 0.84766,-0.30535 0.84766,3.17709 0.84765,-13.30341 0.84766,16.75824 0.84766,-18.87887 0.84765,-0.89499 0.84766,-17.44031 0.84765,-153.90553 0.84766,84.79988 0.84766,73.88397 0.84765,17.06351 0.84766,17.02084 0.84766,-4.2597 0.84765,4.41977 0.84766,2.62225 0.84765,-22.54004 0.84766,8.24747 0.84766,-29.87467 0.84765,-50.02575 0.84766,-82.43857 0.84766,137.44699 0.84765,8.67767 0.84766,8.81204 0.84765,16.91193 0.84766,-2.30936 0.84766,-3.36578 0.84765,3.48102 0.84766,-3.61389 0.84766,-4.96469 0.84765,-25.71393 0.84766,-25.39585 0.84765,55.2074 0.84766,11.03482 0.84766,-5.42569 0.84765,5.56897 L 507,363.55591"
           style="fill:none;stroke:#0000ff;stroke-width:0.666667;stroke-linecap:butt;stroke-linejoin:round;stroke-miterlimit:10;stroke-dasharray:none;stroke-opacity:1"
           id="path424" /></g><g
         id="g426"
         transform="matrix(6,0,0,6,-157,-81.374977)"><path
           d="m 73.847656,305.44199 0.847656,-20.46811 0.847657,26.07632 0.847656,10.36798 0.847656,14.42472 0.847656,23.38638 0.847657,-25.08692 0.847656,0.18299 0.847656,-21.37464 0.847656,1.8873 0.847657,3.52298 0.847656,22.21948 0.847656,-15.8876 0.847656,23.75263 0.847657,18.86474 0.847656,-23.11725 0.847656,2.81046 0.847656,-8.44812 0.847657,30.11703 0.847656,-5.44528 0.847656,4.19562 0.847656,0.0345 0.847657,-10.4981 0.847656,-8.05716 0.847656,-15.31958 0.847656,9.53848 0.847657,2.08014 0.847656,-4.13425 0.847656,10.70163 0.847656,-20.3565 0.847657,24.62771 0.847656,4.89801 0.84766,-10.15652 0.84765,2.50491 0.84766,-3.66901 0.84766,3.29151 0.84765,-4.75937 0.84766,9.51804 0.84765,-10.07596 0.84766,11.80456 0.84766,-25.36087 0.84765,16.74481 0.84766,15.67148 0.84766,-3.13003 0.84765,-24.87928 0.84766,-10.45355 0.84765,6.57785 0.84766,-16.9454 0.84766,25.54663 0.84765,25.51971 0.84766,-2.03036 0.84766,-13.02185 0.84765,16.70129 0.84766,-3.97336 0.84765,-8.28222 0.84766,0.30273 0.84766,-3.2503 0.84765,5.72735 0.84766,-10.41107 0.84765,-1.9201 0.84766,13.86032 0.84766,-18.74063 0.84765,8.81411 0.84766,7.47083 0.84766,-3.95487 0.84765,9.91101 0.84766,4.4152 0.84765,-5.18454 0.84766,-13.5369 0.84766,-10.57999 0.84765,6.27866 0.84766,-8.78607 0.84766,4.9899 0.84765,23.99777 0.84766,-25.62878 0.84765,-5.63767 0.84766,21.67246 0.84766,9.13827 0.84765,-10.2279 0.84766,3.00222 0.84766,-7.61923 0.84765,13.22232 0.84766,-3.41128 0.84765,-7.03815 0.84766,17.39517 0.84766,-14.77179 0.84765,5.1611 0.84766,-5.45535 0.84766,-1.0835 0.84765,-9.01617 0.84766,4.72815 0.84765,20.83173 0.84766,-11.67292 0.84766,8.44678 0.84765,-15.04861 0.84766,11.8768 0.84766,-11.72715 0.84765,13.09717 0.84766,0.34668 0.84765,-18.99615 0.84766,17.4924 0.84766,-7.91046 0.84765,3.63025 0.84766,-6.89518 0.84766,-6.00372 0.84765,12.64658 0.84766,9.11276 0.84765,-12.61264 0.84766,-1.91803 0.84766,1.06421 0.84765,-12.2963 0.84766,18.48822 0.84766,-1.73217 0.84765,-11.29996 0.84766,5.1416 0.84766,-2.43262 0.84765,-3.69656 0.84766,23.83197 0.84765,-10.788 0.84766,-9.60876 0.84766,-4.87259 0.84765,17.5502 0.84766,-0.0305 0.84765,-12.8901 0.84766,1.53631 0.84766,14.20881 0.84765,-5.22751 0.84766,1.89651 0.84766,-19.45978 0.84765,-6.82449 0.84766,-6.09274 0.84765,16.06238 0.84766,7.63195 0.84766,-16.67242 0.84765,26.76187 0.84766,4.13632 0.84766,-22.54217 0.84765,9.25076 0.84766,2.31543 0.84765,-26.10965 0.84766,7.4256 0.84766,-0.22446 0.84765,8.06897 0.84766,7.99765 0.84766,8.82395 0.84765,-8.65897 0.84766,1.95892 0.84765,-8.43667 0.84766,18.28137 0.84766,-10.64047 0.84765,3.04742 0.84766,-13.3938 0.84766,21.29331 0.84765,-11.19278 0.84766,-4.62784 0.84765,7.50473 0.84766,-3.02274 0.84766,0.75238 0.84765,-10.45218 0.84766,21.29087 0.84766,-3.59989 0.84765,-8.92227 0.84766,5.73184 0.84765,-11.36908 0.84766,1.58939 0.84766,8.43793 0.84765,-2.71848 0.84766,-1.79782 0.84766,-12.34021 0.84765,2.07486 0.84766,1.15485 0.84765,11.77786 0.84766,4.79575 0.84766,-2.98603 0.84765,-14.62014 0.84766,3.84927 0.84766,-6.12125 0.84765,2.16565 0.84766,-9.99832 0.84765,20.0452 0.84766,-3.63755 0.84766,-6.21652 0.84765,-6.43799 0.84766,21.81159 0.84766,-9.27439 0.84765,10.62735 0.84766,-4.74136 0.84765,-0.60669 0.84766,14.16727 0.84766,-6.44528 0.84765,-30.92279 0.84766,21.81057 0.84766,2.61881 0.84765,-12.41654 0.84766,16.61847 0.84765,5.2891 0.84766,-11.54093 0.84766,-155.02295 0.84765,67.54505 0.84766,86.47949 0.84766,-0.29685 0.84765,2.6565 0.84766,4.19836 0.84765,-5.36203 0.84766,-5.49432 0.84766,8.25339 0.84765,-39.71045 0.84766,-1.05106 0.84766,39.58396 0.84765,-2.07956 0.84766,7.92999 0.84765,-4.34381 0.84766,-12.75772 0.84766,4.42263 0.84765,17.31189 0.84766,-5.74954 0.84766,4.16458 0.84765,-9.08526 0.84766,-0.50434 0.84765,4.12552 0.84766,2.31195 0.84766,-11.51684 0.84765,9.12112 0.84766,-5.52923 0.84766,3.81332 0.84765,6.43661 0.84766,-11.4728 0.84765,-7.74707 0.84766,12.81649 0.84766,-10.02108 0.84765,12.54638 0.84766,-20.27582 0.84766,25.77375 0.84765,-15.42163 0.84766,-10.77582 0.84765,-90.55496 0.84766,-100.87587 0.84766,157.37745 0.84765,36.46894 0.84766,4.42941 0.84766,-12.61655 0.84765,-22.81384 0.84766,11.51785 0.84765,31.16062 0.84766,-6.12751 0.84766,-7.68438 0.84765,-2.96561 0.84766,20.36453 0.84766,-5.92102 0.84765,14.01801 0.84766,-9.366 0.84765,5.32907 0.84766,-14.43356 0.84766,10.42105 0.84765,-7.60275 0.84766,-46.49411 0.84766,28.11932 0.84765,7.17972 0.84766,25.30151 0.84765,-16.76529 0.84766,12.58844 0.84766,-16.55597 0.84765,-6.81161 0.84766,20.96698 0.84766,-41.95462 0.84765,25.57638 0.84766,-47.26791 0.84765,37.98389 0.84766,24.37707 0.84766,-0.95459 0.84765,10.77738 0.84766,-12.47309 0.84766,-16.71411 0.84765,17.02112 0.84766,-0.75589 0.84765,-12.88998 0.84766,-13.4628 0.84766,26.00088 0.84765,13.28104 0.84766,-13.73612 0.84766,-7.32489 0.84765,-12.34491 0.84766,7.65204 0.84765,6.08469 0.84766,-6.39716 0.84766,17.55783 0.84765,-1.78598 0.84766,-2.53216 0.84766,10.40707 0.84765,-26.8435 0.84766,-39.49024 0.84765,-3.58191 0.84766,56.07852 0.84766,7.86673 0.84765,10.98285 0.84766,-13.67172 0.84766,-1.58148 0.84765,7.08679 0.84766,1.5871 0.84765,-8.02542 0.84766,7.53292 0.84766,-7.65026 0.84765,0.76535 0.84766,1.5365 0.84766,-2.72019 0.84765,8.32404 0.84766,-15.36191 0.84765,18.59256 0.84766,-25.60962 0.84766,24.7279 0.84765,-8.67242 0.84766,-2.03595 0.84766,1.43057 0.84765,-4.39309 0.84766,3.44445 0.84765,-0.96389 0.84766,-1.22171 0.84766,13.25055 0.84765,-15.79401 0.84766,9.05206 0.84766,3.66461 0.84765,6.36304 0.84766,-9.47977 0.84766,-2.23028 0.84765,-10.69489 0.84766,1.97068 0.84765,19.75839 0.84766,-12.9213 0.84766,-20.61783 0.84765,22.87745 0.84766,-0.9704 0.84765,-27.38971 0.84766,31.11743 0.84766,1.86884 0.84765,2.75253 0.84766,-3.41751 0.84766,-0.9198 0.84765,1.4299 0.84766,-3.01813 0.84765,-12.69775 0.84766,23.15249 0.84766,-20.46725 0.84765,14.58212 0.84766,-7.64099 0.84766,-5.89087 0.84765,-34.3529 0.84766,33.24859 0.84765,13.64872 0.84766,-10.04819 0.84766,8.60925 0.84765,-5.8616 0.84766,6.30929 0.84766,6.8172 0.84765,-7.66687 0.84766,5.73911 0.84765,1.26105 0.84766,-8.59546 0.84766,-11.85047 0.84765,21.05075 0.84766,-14.43725 0.84766,0.75671 0.84765,-8.90845 0.84766,-19.54959 0.84765,10.40464 0.84766,-3.6417 0.84766,36.24979 0.84765,-9.05066 0.84766,-32.29907 0.84766,-34.95096 0.84765,39.50113 0.84766,32.25015 0.84765,-29.87988 0.84766,1.80878 0.84766,17.49423 0.84765,-8.66342 0.84766,17.37817 0.84766,3.2612 0.84765,1.91513 0.84766,-5.28253 0.84765,0.91617 0.84766,6.12194 0.84766,-11.8247 0.84765,3.37561 0.84766,-14.25531 0.84766,-4.06662 0.84765,7.60425 0.84766,-14.71738 0.84765,-21.99799 0.84766,-35.81536 0.84766,33.82284 0.84765,26.3233 0.84766,-12.92947 0.84766,28.4917 0.84765,-8.4892 0.84766,-2.49988 0.84765,-25.68689 0.84766,24.71174 0.84766,1.78762 0.84765,9.04114 0.84766,8.88819 0.84766,-15.20954 0.84765,18.87332 0.84766,-15.00564 0.84765,1.6578 0.84766,5.27033 0.84766,-10.97125 0.84765,9.62396 0.84766,2.40295 0.84766,-3.00686 0.84765,2.48288 0.84766,5.44638 0.84765,-77.61789 0.84766,31.89535 0.84766,18.31708 0.84765,22.9089 0.84766,-0.43347 0.84766,5.78073 0.84765,-2.22073 0.84766,-22.43753 0.84765,15.1882 0.84766,0.82862 0.84766,10.90234 0.84765,2.93909 0.84766,-16.23328 0.84766,12.03357 0.84765,-4.17847 0.84766,-5.46652 0.84765,12.2699 0.84766,-8.61334 0.84766,4.70388 0.84765,-9.85852 0.84766,-24.94693 0.84766,30.48868 0.84765,-0.005 0.84766,-60.41513 0.84765,50.34137 0.84766,-25.1836 0.84766,13.04255 0.84765,-6.8884 0.84766,25.25217 0.84766,-49.62946 0.84765,21.31573 0.84766,-38.53689 0.84765,37.86062 0.84766,-8.8999 0.84766,-0.53167 0.84765,13.9346 0.84766,11.7651 0.84766,-8.26074 0.84765,-27.72681 0.84766,-113.8921 0.84766,25.28706 0.84765,65.35993 0.84766,47.30218 0.84765,-17.11111 0.84766,6.27783 0.84766,10.52737 0.84765,-13.09555 0.84766,30.13779 0.84765,-1.79306 0.84766,-12.23364 0.84766,-2.04288 0.84765,-6.3457 0.84766,10.44174 0.84766,-3.36829 0.84765,1.7475 0.84766,-8.39636 0.84765,26.25741 0.84766,13.04523 0.84766,-14.06998 0.84765,-8.04477 0.84766,24.05582 0.84766,-8.12448 0.84765,-9.51477 0.84766,21.66553 0.84765,-33.43634 0.84766,-8.47571 0.84766,18.56592 0.84765,6.89019 0.84766,3.03751 0.84766,-24.76984 0.84765,4.96344 0.84766,5.92136 0.84765,15.37122 0.84766,4.43173 0.84766,-3.84125 0.84765,-10.53857 0.84766,-0.67063 0.84766,-4.8757 0.84765,7.89874 0.84766,1.80222 0.84765,-7.88651 0.84766,-7.23257 0.84766,25.46625 0.84765,-31.07401 0.84766,-17.23135 0.84766,31.18457 0.84765,-17.57575 0.84766,25.4765 0.84765,0.10294 0.84766,-2.03119 0.84766,-0.26303 0.84765,-46.24875 0.84766,-136.21689 0.84766,87.37766 0.84765,40.98291 0.84766,-4.19013 0.84765,0.24985 0.84766,-11.9595 0.84766,-97.94087 0.73309,-155.525618"
           style="fill:none;stroke:#000000;stroke-width:0.666667;stroke-linecap:butt;stroke-linejoin:round;stroke-miterlimit:10;stroke-dasharray:none;stroke-opacity:1"
           id="path428" /></g><g
         id="g430"
         transform="matrix(6,0,0,6,-157,-81.374977)"><path
           d="M 506.25742,30.959112 507,202.75458"
           style="fill:none;stroke:#000000;stroke-width:0.666667;stroke-linecap:butt;stroke-linejoin:round;stroke-miterlimit:10;stroke-dasharray:none;stroke-opacity:1"
           id="path432" /></g><g
         id="g434"
         transform="matrix(6,0,0,6,-157,-81.374977)"><path
           d="m 73.847656,362.92569 0.847656,1.38983 0.847657,-12.60486 0.847656,-0.42206 0.847656,17.04541 0.847656,-11.19195 0.847657,2.53934 0.847656,0.24441 0.847656,-1.75046 0.847656,4.17655 0.847657,-14.10605 0.847656,-4.11557 0.847656,-0.86603 0.847656,25.51407 0.847657,-13.07388 0.847656,17.40939 0.847656,-12.97531 0.847656,1.93738 0.847657,3.85211 0.847656,-15.34601 0.847656,16.995 0.847656,-3.64917 0.847657,-5.56467 0.847656,2.10092 0.847656,-4.70273 0.847656,16.17328 0.847657,-18.31238 0.847656,14.17539 0.847656,-8.84033 0.847656,-9.8248 0.847657,5.48919 0.847656,9.53971 0.84766,0.85898 0.84765,-6.64298 0.84766,12.35861 0.84766,-12.0173 0.84765,-7.0769 0.84766,4.09384 0.84765,-3.19989 0.84766,0.38208 0.84766,1.84347 0.84765,-8.3663 0.84766,17.57327 0.84766,-0.0378 0.84765,0.89523 0.84766,-14.71371 0.84765,10.46667 0.84766,6.17692 0.84766,-8.72602 0.84765,-1.69186 0.84766,7.07858 0.84766,-3.8519 0.84765,-7.02353 0.84766,-6.84222 0.84765,14.03128 0.84766,3.69986 0.84766,-31.93079 0.84765,30.29953 0.84766,2.00855 0.84765,-12.67111 0.84766,-0.74826 0.84766,16.46453 0.84765,-3.74334 0.84766,-0.83994 0.84766,-4.8847 0.84765,-5.9859 0.84766,11.99051 0.84765,-11.62281 0.84766,10.03488 0.84766,-5.95874 0.84765,4.68283 0.84766,6.61051 0.84766,-8.7446 0.84765,-5.85995 0.84766,13.71112 0.84765,-6.5355 0.84766,-9.5047 0.84766,4.13288 0.84765,10.94076 0.84766,-4.40484 0.84766,-10.13715 0.84765,5.73969 0.84766,13.41012 0.84765,0.57425 0.84766,-10.75729 0.84766,7.78549 0.84765,-12.13214 0.84766,10.68942 0.84766,3.96649 0.84765,-11.32995 0.84766,4.82654 0.84765,0.82745 0.84766,-7.66083 0.84766,-4.88785 0.84765,15.76746 0.84766,2.06592 0.84766,-9.60507 0.84765,-4.09467 0.84766,7.17313 0.84765,0.67462 0.84766,4.9432 0.84766,-3.37631 0.84765,0.33203 0.84766,-14.64145 0.84766,4.07129 0.84765,-1.40246 0.84766,1.29455 0.84765,2.07138 0.84766,5.14066 0.84766,-3.77716 0.84765,1.10718 0.84766,3.97995 0.84766,-24.90107 0.84765,21.57734 0.84766,7.23816 0.84766,-5.32392 0.84765,-6.31845 0.84766,14.1041 0.84765,-1.70469 0.84766,-10.69924 0.84766,-22.56546 0.84765,29.89465 0.84766,1.63363 0.84765,-3.71008 0.84766,-4.86761 0.84766,2.54825 0.84765,1.01876 0.84766,5.81171 0.84766,-16.54266 0.84765,9.9248 0.84766,-20.3706 0.84765,23.11428 0.84766,-12.39941 0.84766,6.19403 0.84765,8.3335 0.84766,0.46298 0.84766,-0.25885 0.84765,-12.28836 0.84766,-0.91709 0.84765,11.9917 0.84766,0.7967 0.84766,-3.63852 0.84765,0.61517 0.84766,-11.21411 0.84766,0.55157 0.84765,15.67829 0.84766,-15.14505 0.84765,8.95819 0.84766,11.08887 0.84766,-25.82166 0.84765,8.17328 0.84766,5.75696 0.84766,-4.74533 0.84765,7.8551 0.84766,0.30792 0.84765,-12.12421 0.84766,3.28193 0.84766,10.29705 0.84765,-9.58191 0.84766,8.75034 0.84766,-0.6557 0.84765,5.73477 0.84766,-0.93866 0.84765,-0.72537 0.84766,-7.69864 0.84766,-0.12854 0.84765,4.49088 0.84766,-14.28205 0.84766,5.87467 0.84765,-0.52405 0.84766,-3.0083 0.84765,10.26034 0.84766,9.59738 0.84766,-14.58767 0.84765,8.91531 0.84766,-16.12274 0.84766,-19.79535 0.84765,2.19513 0.84766,5.86862 0.84765,6.42035 0.84766,-11.15219 0.84766,8.45959 0.84765,-157.26927 0.84766,164.81124 0.84766,-0.1651 0.84765,3.14834 0.84766,1.29352 0.84765,-6.34207 0.84766,12.71127 0.84766,0.68094 0.84765,6.88861 0.84766,-10.36111 0.84766,-5.27521 0.84765,-41.77737 0.84766,45.38665 0.84765,-1.71457 0.84766,-1.08239 0.84766,13.62039 0.84765,-6.30087 0.84766,-4.52112 0.84766,-9.37204 0.84765,-1.41138 0.84766,9.78864 0.84765,-21.74314 0.84766,7.76352 0.84766,-31.64816 0.84765,-18.36722 0.84766,53.4736 0.84766,5.37448 0.84765,19.69107 0.84766,-13.66647 0.84765,0.62076 0.84766,3.8002 0.84766,-19.08285 0.84765,18.51095 0.84766,-17.55798 0.84766,-5.23029 0.84765,9.47098 0.84766,11.31775 0.84765,0.83334 0.84766,0.64933 0.84766,9.33697 0.84765,-15.96396 0.84766,16.22116 0.84766,-13.10193 0.84765,-5.41803 0.84766,8.00803 0.84765,-3.22748 0.84766,-35.20761 0.84766,30.20117 0.84765,15.86853 0.84766,-11.52005 0.84766,-0.59085 0.84765,2.26981 0.84766,-14.78955 0.84765,20.66955 0.84766,-9.38803 0.84766,-4.6759 0.84765,-21.45044 0.84766,27.67078 0.84766,-10.301 0.84765,-14.22476 0.84766,-61.24481 0.84765,7.94949 0.84766,90.8147 0.84766,0.37201 0.84765,-14.2132 0.84766,11.98764 0.84766,-10.08639 0.84765,-3.01383 0.84766,-1.63342 0.84765,7.56351 0.84766,-7.48398 0.84766,9.02203 0.84765,-39.94049 0.84766,42.62762 0.84766,-12.54711 0.84765,-11.42188 0.84766,17.3465 0.84765,-4.23886 0.84766,8.71002 0.84766,-19.87824 0.84765,31.05289 0.84766,-11.39325 0.84766,-12.53839 0.84765,14.9072 0.84766,-3.45975 0.84765,-18.01373 0.84766,-65.31366 0.84766,13.78225 0.84765,60.3042 0.84766,-3.68435 0.84766,12.85107 0.84765,-42.71387 0.84766,48.57529 0.84765,-10.85486 0.84766,0.35825 0.84766,-5.78998 0.84765,21.8512 0.84766,-8.14341 0.84766,-46.71194 0.84765,38.13013 0.84766,2.62265 0.84765,-10.45377 0.84766,-2.49133 0.84766,27.84179 0.84765,-19.09784 0.84766,8.12198 0.84766,-6.40191 0.84765,-11.39197 0.84766,0.37399 0.84765,-4.16427 0.84766,29.67367 0.84766,-42.18002 0.84765,6.67904 0.84766,-144.65341 0.84766,143.04727 0.84765,-1.84884 0.84766,17.71609 0.84765,-2.14779 0.84766,14.80975 0.84766,9.41009 0.84765,-24.8652 0.84766,7.03711 0.84766,12.87564 0.84765,-30.36487 0.84766,-6.83889 0.84765,1.17941 0.84766,34.63534 0.84766,-8.01367 0.84765,-5.10934 0.84766,2.16931 0.84766,15.02692 0.84765,-2.45136 0.84766,2.92822 0.84765,1.30216 0.84766,-44.0943 0.84766,17.86877 0.84765,4.87378 0.84766,1.80503 0.84766,17.29617 0.84765,-11.5633 0.84766,-2.04229 0.84766,10.39358 0.84765,-14.57446 0.84766,2.45352 0.84765,7.46607 0.84766,-40.75333 0.84766,4.737 0.84765,-28.91916 0.84766,63.16122 0.84765,12.72669 0.84766,-27.3226 0.84766,14.9837 0.84765,-9.79245 0.84766,17.17185 0.84766,-2.84143 0.84765,7.51763 0.84766,-23.73242 0.84765,-15.54864 0.84766,-13.84803 0.84766,12.55375 0.84765,11.01272 0.84766,17.3642 0.84766,-5.75946 0.84765,12.25485 0.84766,-4.7793 0.84765,-5.50836 0.84766,11.27823 0.84766,-22.88107 0.84765,13.62655 0.84766,-10.16442 0.84766,12.39819 0.84765,-14.14908 0.84766,-5.49182 0.84765,6.56934 0.84766,11.81652 0.84766,-0.1029 0.84765,-3.81241 0.84766,-4.17184 0.84766,1.17358 0.84765,12.75696 0.84766,-11.77945 0.84765,11.23001 0.84766,-19.88925 0.84766,9.78918 0.84765,-8.06613 0.84766,22.36771 0.84766,-4.59632 0.84765,-5.8703 0.84766,-0.67956 0.84765,-28.82822 0.84766,31.83774 0.84766,2.52524 0.84765,-39.80527 0.84766,10.71811 0.84766,16.15884 0.84765,15.26529 0.84766,-19.95718 0.84765,16.88135 0.84766,6.97976 0.84766,-5.05029 0.84765,-20.7554 0.84766,-19.50144 0.84766,9.36621 0.84765,-1.64959 0.84766,-5.78617 0.84765,29.79001 0.84766,6.37369 0.84766,-12.66531 0.84765,15.09427 0.84766,-0.87168 0.84766,5.71478 0.84765,3.57514 0.84766,-20.81186 0.84765,12.82773 0.84766,1.37472 0.84766,-46.08197 0.84765,44.27445 0.84766,-10.64636 0.84766,4.69833 0.84765,5.00925 0.84766,-8.94416 0.84765,10.40149 0.84766,2.52539 0.84766,-3.10251 0.84765,5.74817 0.84766,-5.7799 0.84766,6.3479 0.84765,-21.67694 0.84766,16.64267 0.84765,2.92962 0.84766,-19.51819 0.84766,22.33231 0.84765,-12.19766 0.84766,-15.4954 0.84766,17.77472 0.84765,-0.19107 0.84766,7.28351 0.84765,-1.6784 0.84766,2.67709 0.84766,6.35245 0.84765,-35.17667 0.84766,29.20065 0.84766,-28.08123 0.84765,20.69119 0.84766,-3.7804 0.84765,1.35349 0.84766,9.60013 0.84766,-3.27552 0.84765,-0.61901 0.84766,1.36764 0.84766,-8.92648 0.84765,-17.43836 0.84766,24.17227 0.84765,7.88834 0.84766,-44.47702 0.84766,16.74307 0.84765,11.3324 0.84766,-5.06616 0.84766,21.52811 0.84765,-13.30085 0.84766,4.5719 0.84765,-0.14358 0.84766,-20.78891 0.84766,21.09921 0.84765,2.62668 0.84766,-14.1807 0.84766,21.26151 0.84765,-21.52057 0.84766,-5.7623 0.84766,13.14505 0.84765,3.19016 0.84766,-11.23471 0.84765,0.14706 0.84766,15.02762 0.84766,-20.59686 0.84765,6.57107 0.84766,14.17044 0.84765,-2.43609 0.84766,-16.94391 0.84766,5.41986 0.84765,-18.14499 0.84766,25.8739 0.84766,9.94592 0.84765,-13.24121 0.84766,10.40759 0.84765,-10.82009 0.84766,13.91839 0.84766,-0.12317 0.84765,-18.39584 0.84766,4.71814 0.84766,0.54419 0.84765,-5.85303 0.84766,-1.89914 0.84765,18.93497 0.84766,-18.29038 0.84766,15.71659 0.84765,-5.59021 0.84766,3.40176 0.84766,3.76721 0.84765,-8.85775 0.84766,8.65777 0.84765,5.37494 0.84766,-13.7392 0.84766,4.16388 0.84765,-8.40576 0.84766,2.22342 0.84766,-13.01797 0.84765,2.64132 0.84766,8.51694 0.84765,9.81335 0.84766,-14.95449 0.84766,10.60565 0.84765,2.21832 0.84766,-8.26245 0.84766,13.31299 0.84765,0.28537 0.84766,-16.4512 0.84765,16.23587 0.84766,-9.44761 0.84766,8.87647 0.84765,-0.96573 0.84766,1.14468 0.84766,-9.57022 0.84765,0.067 0.84766,-0.20612 0.84765,1.59333 0.84766,14.97961 0.84766,-13.96191 0.84765,1.0119 0.84766,-2.3901"
           style="fill:none;stroke:#ff0000;stroke-width:0.666667;stroke-linecap:butt;stroke-linejoin:round;stroke-miterlimit:10;stroke-dasharray:none;stroke-opacity:1"
           id="path436" /></g><g
         id="g438"
         transform="matrix(6,0,0,6,-157,-81.374977)"><path
           d="M 496,95 V 42 h -80 v 53 z"
           style="fill:#ffffff;fill-opacity:1;fill-rule:nonzero;stroke:none"
           id="path440" /></g><g
         id="g442"><g
           id="g444"
           transform="matrix(6,0,0,6,2621,230.62502)"><text
             transform="translate(0,5)"
             style="font-variant:normal;font-weight:normal;font-size:12px;font-family:Helvetica;-inkscape-font-specification:Helvetica;writing-mode:lr-tb;fill:#000000;fill-opacity:1;fill-rule:nonzero;stroke:none"
             id="text448"><tspan
               x="0 8.0039997 18 24.672001"
               y="0"
               sodipodi:role="line"
               id="tspan446">Empt</tspan></text></g></g><g
         id="g450"
         transform="matrix(6,0,0,6,-157,-81.374977)"><path
           d="m 420,52 h 40"
           style="fill:none;stroke:#0000ff;stroke-width:0.666667;stroke-linecap:butt;stroke-linejoin:round;stroke-miterlimit:10;stroke-dasharray:none;stroke-opacity:1"
           id="path452" /></g><g
         id="g454"><g
           id="g456"
           transform="matrix(6,0,0,6,2621,329.62502)"><text
             transform="translate(0,5)"
             style="font-variant:normal;font-weight:normal;font-size:12px;font-family:Helvetica;-inkscape-font-specification:Helvetica;writing-mode:lr-tb;fill:#000000;fill-opacity:1;fill-rule:nonzero;stroke:none"
             id="text460"><tspan
               x="0 8.6639996 15.336 18"
               y="0"
               sodipodi:role="line"
               id="tspan458">Half</tspan></text></g></g><g
         id="g462"
         transform="matrix(6,0,0,6,-157,-81.374977)"><path
           d="m 420,68.5 h 40"
           style="fill:none;stroke:#000000;stroke-width:0.666667;stroke-linecap:butt;stroke-linejoin:round;stroke-miterlimit:10;stroke-dasharray:none;stroke-opacity:1"
           id="path464" /></g><g
         id="g466"><g
           id="g468"
           transform="matrix(6,0,0,6,2621,428.62502)"><text
             transform="translate(0,5)"
             style="font-variant:normal;font-weight:normal;font-size:12px;font-family:Helvetica;-inkscape-font-specification:Helvetica;writing-mode:lr-tb;fill:#000000;fill-opacity:1;fill-rule:nonzero;stroke:none"
             id="text472"><tspan
               x="0 7.3319998 14.004 16.667999"
               y="0"
               sodipodi:role="line"
               id="tspan470">Full</tspan></text></g></g><g
         id="g474"
         transform="matrix(6,0,0,6,-157,-81.374977)"><path
           d="m 420,85 h 40"
           style="fill:none;stroke:#ff0000;stroke-width:0.666667;stroke-linecap:butt;stroke-linejoin:round;stroke-miterlimit:10;stroke-dasharray:none;stroke-opacity:1"
           id="path476" /></g><g
         id="g478"
         transform="matrix(6,0,0,6,-157,-81.374977)"><path
           d="M 416,95 V 42 h 80 v 53 z"
           style="fill:none;stroke:#262626;stroke-width:0.666667;stroke-linecap:butt;stroke-linejoin:miter;stroke-miterlimit:10;stroke-dasharray:none;stroke-opacity:1"
           id="path480" /></g></g></g></svg>
