<?xml version="1.0" encoding="UTF-8" standalone="no"?>
<svg
   xmlns:dc="http://purl.org/dc/elements/1.1/"
   xmlns:cc="http://creativecommons.org/ns#"
   xmlns:rdf="http://www.w3.org/1999/02/22-rdf-syntax-ns#"
   xmlns:svg="http://www.w3.org/2000/svg"
   xmlns="http://www.w3.org/2000/svg"
   xmlns:sodipodi="http://sodipodi.sourceforge.net/DTD/sodipodi-0.dtd"
   xmlns:inkscape="http://www.inkscape.org/namespaces/inkscape"
   version="1.1"
   id="svg2810"
   xml:space="preserve"
   width="482.66666"
   height="400"
   viewBox="0 0 482.66666 400"
   sodipodi:docname="BotMidAcImMa18_05fID.svg"
   inkscape:version="1.0.1 (3bc2e813f5, 2020-09-07)"><metadata
     id="metadata2816"><rdf:RDF><cc:Work
         rdf:about=""><dc:format>image/svg+xml</dc:format><dc:type
           rdf:resource="http://purl.org/dc/dcmitype/StillImage" /><dc:title></dc:title></cc:Work></rdf:RDF></metadata><defs
     id="defs2814" /><sodipodi:namedview
     pagecolor="#ffffff"
     bordercolor="#666666"
     borderopacity="1"
     objecttolerance="10"
     gridtolerance="10"
     guidetolerance="10"
     inkscape:pageopacity="0"
     inkscape:pageshadow="2"
     inkscape:window-width="810"
     inkscape:window-height="480"
     id="namedview2812"
     showgrid="false"
     inkscape:zoom="1.435"
     inkscape:cx="241.33333"
     inkscape:cy="200"
     inkscape:window-x="0"
     inkscape:window-y="0"
     inkscape:window-maximized="0"
     inkscape:current-layer="g2818" /><g
     id="g2818"
     inkscape:groupmode="layer"
     inkscape:label="BotMidAcImMa18_05fID"
     transform="matrix(1.3333333,0,0,-1.3333333,0,400)"><g
       id="g2820"
       transform="matrix(0.125,0,0,-0.125,0,300)"><g
         id="g2822"
         transform="matrix(6,0,0,6,-157.00003,-82.499908)"><path
           d="M 0,0 H 560 V 420 H 0 Z"
           style="fill:#ffffff;fill-opacity:1;fill-rule:nonzero;stroke:none"
           id="path2824" /></g><g
         id="g2826"
         transform="matrix(6,0,0,6,-157.00003,-82.499908)"><path
           d="M 73,374 H 507 V 31 H 73 Z"
           style="fill:#ffffff;fill-opacity:1;fill-rule:nonzero;stroke:none"
           id="path2828" /></g><g
         id="g2830"
         transform="matrix(6,0,0,6,-157.00003,-82.499908)"><path
           d="M 99.649124,374 V 31"
           style="fill:none;stroke:#262626;stroke-width:0.666667;stroke-linecap:butt;stroke-linejoin:round;stroke-miterlimit:10;stroke-dasharray:none;stroke-opacity:0.14902"
           id="path2832" /></g><g
         id="g2834"
         transform="matrix(6,0,0,6,-157.00003,-82.499908)"><path
           d="M 290,374 V 31"
           style="fill:none;stroke:#262626;stroke-width:0.666667;stroke-linecap:butt;stroke-linejoin:round;stroke-miterlimit:10;stroke-dasharray:none;stroke-opacity:0.14902"
           id="path2836" /></g><g
         id="g2838"
         transform="matrix(6,0,0,6,-157.00003,-82.499908)"><path
           d="M 480.35089,374 V 31"
           style="fill:none;stroke:#262626;stroke-width:0.666667;stroke-linecap:butt;stroke-linejoin:round;stroke-miterlimit:10;stroke-dasharray:none;stroke-opacity:0.14902"
           id="path2840" /></g><g
         id="g2842"
         transform="matrix(6,0,0,6,-157.00003,-82.499908)"><path
           d="M 507.00003,374 H 73"
           style="fill:none;stroke:#262626;stroke-width:0.666667;stroke-linecap:butt;stroke-linejoin:round;stroke-miterlimit:10;stroke-dasharray:none;stroke-opacity:0.14902"
           id="path2844" /></g><g
         id="g2846"
         transform="matrix(6,0,0,6,-157.00003,-82.499908)"><path
           d="M 507.00003,331.125 H 73"
           style="fill:none;stroke:#262626;stroke-width:0.666667;stroke-linecap:butt;stroke-linejoin:round;stroke-miterlimit:10;stroke-dasharray:none;stroke-opacity:0.14902"
           id="path2848" /></g><g
         id="g2850"
         transform="matrix(6,0,0,6,-157.00003,-82.499908)"><path
           d="M 507.00003,288.25 H 73"
           style="fill:none;stroke:#262626;stroke-width:0.666667;stroke-linecap:butt;stroke-linejoin:round;stroke-miterlimit:10;stroke-dasharray:none;stroke-opacity:0.14902"
           id="path2852" /></g><g
         id="g2854"
         transform="matrix(6,0,0,6,-157.00003,-82.499908)"><path
           d="M 507.00003,245.375 H 73"
           style="fill:none;stroke:#262626;stroke-width:0.666667;stroke-linecap:butt;stroke-linejoin:round;stroke-miterlimit:10;stroke-dasharray:none;stroke-opacity:0.14902"
           id="path2856" /></g><g
         id="g2858"
         transform="matrix(6,0,0,6,-157.00003,-82.499908)"><path
           d="M 507.00003,202.5 H 73"
           style="fill:none;stroke:#262626;stroke-width:0.666667;stroke-linecap:butt;stroke-linejoin:round;stroke-miterlimit:10;stroke-dasharray:none;stroke-opacity:0.14902"
           id="path2860" /></g><g
         id="g2862"
         transform="matrix(6,0,0,6,-157.00003,-82.499908)"><path
           d="M 507.00003,159.625 H 73"
           style="fill:none;stroke:#262626;stroke-width:0.666667;stroke-linecap:butt;stroke-linejoin:round;stroke-miterlimit:10;stroke-dasharray:none;stroke-opacity:0.14902"
           id="path2864" /></g><g
         id="g2866"
         transform="matrix(6,0,0,6,-157.00003,-82.499908)"><path
           d="M 507.00003,116.75 H 73"
           style="fill:none;stroke:#262626;stroke-width:0.666667;stroke-linecap:butt;stroke-linejoin:round;stroke-miterlimit:10;stroke-dasharray:none;stroke-opacity:0.14902"
           id="path2868" /></g><g
         id="g2870"
         transform="matrix(6,0,0,6,-157.00003,-82.499908)"><path
           d="M 507.00003,73.875 H 73"
           style="fill:none;stroke:#262626;stroke-width:0.666667;stroke-linecap:butt;stroke-linejoin:round;stroke-miterlimit:10;stroke-dasharray:none;stroke-opacity:0.14902"
           id="path2872" /></g><g
         id="g2874"
         transform="matrix(6,0,0,6,-157.00003,-82.499908)"><path
           d="M 507.00003,31 H 73"
           style="fill:none;stroke:#262626;stroke-width:0.666667;stroke-linecap:butt;stroke-linejoin:round;stroke-miterlimit:10;stroke-dasharray:none;stroke-opacity:0.14902"
           id="path2876" /></g><g
         id="g2878"
         transform="matrix(6,0,0,6,-157.00003,-82.499908)"><path
           d="M 73,374 H 507.00003"
           style="fill:none;stroke:#262626;stroke-width:0.666667;stroke-linecap:square;stroke-linejoin:round;stroke-miterlimit:10;stroke-dasharray:none;stroke-opacity:1"
           id="path2880" /></g><g
         id="g2882"
         transform="matrix(6,0,0,6,-157.00003,-82.499908)"><path
           d="m 99.649124,374 v -4.33997"
           style="fill:none;stroke:#262626;stroke-width:0.666667;stroke-linecap:square;stroke-linejoin:round;stroke-miterlimit:10;stroke-dasharray:none;stroke-opacity:1"
           id="path2884" /></g><g
         id="g2886"
         transform="matrix(6,0,0,6,-157.00003,-82.499908)"><path
           d="m 290,374 v -4.33997"
           style="fill:none;stroke:#262626;stroke-width:0.666667;stroke-linecap:square;stroke-linejoin:round;stroke-miterlimit:10;stroke-dasharray:none;stroke-opacity:1"
           id="path2888" /></g><g
         id="g2890"
         transform="matrix(6,0,0,6,-157.00003,-82.499908)"><path
           d="m 480.35089,374 v -4.33997"
           style="fill:none;stroke:#262626;stroke-width:0.666667;stroke-linecap:square;stroke-linejoin:round;stroke-miterlimit:10;stroke-dasharray:none;stroke-opacity:1"
           id="path2892" /></g><g
         id="g2894"><g
           id="g2896"
           transform="matrix(6,0,0,6,440.89471,2193.5002)"><text
             transform="translate(-11,14)"
             style="font-variant:normal;font-weight:normal;font-size:13.333px;font-family:Helvetica;-inkscape-font-specification:Helvetica;writing-mode:lr-tb;fill:#262626;fill-opacity:1;fill-rule:nonzero;stroke:none"
             id="text2900"><tspan
               x="0 8.1464634 15.559611 18.519537"
               y="0"
               sodipodi:role="line"
               id="tspan2898">Full</tspan></text></g></g><g
         id="g2902"><g
           id="g2904"
           transform="matrix(6,0,0,6,1583,2193.5002)"><text
             transform="translate(-12,14)"
             style="font-variant:normal;font-weight:normal;font-size:13.333px;font-family:Helvetica;-inkscape-font-specification:Helvetica;writing-mode:lr-tb;fill:#262626;fill-opacity:1;fill-rule:nonzero;stroke:none"
             id="text2908"><tspan
               x="0 9.6264257 17.039574 19.9995"
               y="0"
               sodipodi:role="line"
               id="tspan2906">Half</tspan></text></g></g><g
         id="g2910"><g
           id="g2912"
           transform="matrix(6,0,0,6,2725.1053,2193.5002)"><text
             transform="translate(-16,14)"
             style="font-variant:normal;font-weight:normal;font-size:13.333px;font-family:Helvetica;-inkscape-font-specification:Helvetica;writing-mode:lr-tb;fill:#262626;fill-opacity:1;fill-rule:nonzero;stroke:none"
             id="text2916"><tspan
               x="0 8.8931112 19.9995 27.412647"
               y="0"
               sodipodi:role="line"
               id="tspan2914">Empt</tspan></text></g></g><g
         id="g2918"><g
           id="g2920"
           transform="matrix(6,0,0,6,1583.0013,2303.5002)"><text
             transform="translate(-19,15)"
             style="font-variant:normal;font-weight:normal;font-size:14.667px;font-family:Helvetica;-inkscape-font-specification:Helvetica;writing-mode:lr-tb;fill:#262626;fill-opacity:1;fill-rule:nonzero;stroke:none"
             id="text2924"><tspan
               x="0 9.7828894 17.93774 22.015167 26.092592 29.348667"
               y="0"
               sodipodi:role="line"
               id="tspan2922">Bottle</tspan></text></g></g><g
         id="g2926"
         transform="matrix(6,0,0,6,-157.00003,-82.499908)"><path
           d="M 73,374 V 31"
           style="fill:none;stroke:#262626;stroke-width:0.666667;stroke-linecap:square;stroke-linejoin:round;stroke-miterlimit:10;stroke-dasharray:none;stroke-opacity:1"
           id="path2928" /></g><g
         id="g2930"
         transform="matrix(6,0,0,6,-157.00003,-82.499908)"><path
           d="m 73,374 h 4.340012"
           style="fill:none;stroke:#262626;stroke-width:0.666667;stroke-linecap:square;stroke-linejoin:round;stroke-miterlimit:10;stroke-dasharray:none;stroke-opacity:1"
           id="path2932" /></g><g
         id="g2934"
         transform="matrix(6,0,0,6,-157.00003,-82.499908)"><path
           d="m 73,331.125 h 4.340012"
           style="fill:none;stroke:#262626;stroke-width:0.666667;stroke-linecap:square;stroke-linejoin:round;stroke-miterlimit:10;stroke-dasharray:none;stroke-opacity:1"
           id="path2936" /></g><g
         id="g2938"
         transform="matrix(6,0,0,6,-157.00003,-82.499908)"><path
           d="m 73,288.25 h 4.340012"
           style="fill:none;stroke:#262626;stroke-width:0.666667;stroke-linecap:square;stroke-linejoin:round;stroke-miterlimit:10;stroke-dasharray:none;stroke-opacity:1"
           id="path2940" /></g><g
         id="g2942"
         transform="matrix(6,0,0,6,-157.00003,-82.499908)"><path
           d="m 73,245.375 h 4.340012"
           style="fill:none;stroke:#262626;stroke-width:0.666667;stroke-linecap:square;stroke-linejoin:round;stroke-miterlimit:10;stroke-dasharray:none;stroke-opacity:1"
           id="path2944" /></g><g
         id="g2946"
         transform="matrix(6,0,0,6,-157.00003,-82.499908)"><path
           d="m 73,202.5 h 4.340012"
           style="fill:none;stroke:#262626;stroke-width:0.666667;stroke-linecap:square;stroke-linejoin:round;stroke-miterlimit:10;stroke-dasharray:none;stroke-opacity:1"
           id="path2948" /></g><g
         id="g2950"
         transform="matrix(6,0,0,6,-157.00003,-82.499908)"><path
           d="m 73,159.625 h 4.340012"
           style="fill:none;stroke:#262626;stroke-width:0.666667;stroke-linecap:square;stroke-linejoin:round;stroke-miterlimit:10;stroke-dasharray:none;stroke-opacity:1"
           id="path2952" /></g><g
         id="g2954"
         transform="matrix(6,0,0,6,-157.00003,-82.499908)"><path
           d="m 73,116.75 h 4.340012"
           style="fill:none;stroke:#262626;stroke-width:0.666667;stroke-linecap:square;stroke-linejoin:round;stroke-miterlimit:10;stroke-dasharray:none;stroke-opacity:1"
           id="path2956" /></g><g
         id="g2958"
         transform="matrix(6,0,0,6,-157.00003,-82.499908)"><path
           d="m 73,73.875 h 4.340012"
           style="fill:none;stroke:#262626;stroke-width:0.666667;stroke-linecap:square;stroke-linejoin:round;stroke-miterlimit:10;stroke-dasharray:none;stroke-opacity:1"
           id="path2960" /></g><g
         id="g2962"
         transform="matrix(6,0,0,6,-157.00003,-82.499908)"><path
           d="m 73,31 h 4.340012"
           style="fill:none;stroke:#262626;stroke-width:0.666667;stroke-linecap:square;stroke-linejoin:round;stroke-miterlimit:10;stroke-dasharray:none;stroke-opacity:1"
           id="path2964" /></g><g
         id="g2966"><g
           id="g2968"
           transform="matrix(6,0,0,6,249,2161.5001)"><text
             transform="translate(-15,5.5)"
             style="font-variant:normal;font-weight:normal;font-size:13.333px;font-family:Helvetica;-inkscape-font-specification:Helvetica;writing-mode:lr-tb;fill:#262626;fill-opacity:1;fill-rule:nonzero;stroke:none"
             id="text2972"><tspan
               x="0 7.4131479"
               y="0"
               sodipodi:role="line"
               id="tspan2970">85</tspan></text></g></g><g
         id="g2974"><g
           id="g2976"
           transform="matrix(6,0,0,6,249,1904.2501)"><text
             transform="translate(-15,5.5)"
             style="font-variant:normal;font-weight:normal;font-size:13.333px;font-family:Helvetica;-inkscape-font-specification:Helvetica;writing-mode:lr-tb;fill:#262626;fill-opacity:1;fill-rule:nonzero;stroke:none"
             id="text2980"><tspan
               x="0 7.4131479"
               y="0"
               sodipodi:role="line"
               id="tspan2978">90</tspan></text></g></g><g
         id="g2982"><g
           id="g2984"
           transform="matrix(6,0,0,6,249,1647.0001)"><text
             transform="translate(-15,5.5)"
             style="font-variant:normal;font-weight:normal;font-size:13.333px;font-family:Helvetica;-inkscape-font-specification:Helvetica;writing-mode:lr-tb;fill:#262626;fill-opacity:1;fill-rule:nonzero;stroke:none"
             id="text2988"><tspan
               x="0 7.4131479"
               y="0"
               sodipodi:role="line"
               id="tspan2986">95</tspan></text></g></g><g
         id="g2990"><g
           id="g2992"
           transform="matrix(6,0,0,6,249,1389.7501)"><text
             transform="translate(-23,5.5)"
             style="font-variant:normal;font-weight:normal;font-size:13.333px;font-family:Helvetica;-inkscape-font-specification:Helvetica;writing-mode:lr-tb;fill:#262626;fill-opacity:1;fill-rule:nonzero;stroke:none"
             id="text2996"><tspan
               x="0 7.4131479 14.826296"
               y="0"
               sodipodi:role="line"
               id="tspan2994">100</tspan></text></g></g><g
         id="g2998"><g
           id="g3000"
           transform="matrix(6,0,0,6,249,1132.5001)"><text
             transform="translate(-23,5.5)"
             style="font-variant:normal;font-weight:normal;font-size:13.333px;font-family:Helvetica;-inkscape-font-specification:Helvetica;writing-mode:lr-tb;fill:#262626;fill-opacity:1;fill-rule:nonzero;stroke:none"
             id="text3004"><tspan
               x="0 7.4131479 14.826296"
               y="0"
               sodipodi:role="line"
               id="tspan3002">105</tspan></text></g></g><g
         id="g3006"><g
           id="g3008"
           transform="matrix(6,0,0,6,249,875.25009)"><text
             transform="translate(-23,5.5)"
             style="font-variant:normal;font-weight:normal;font-size:13.333px;font-family:Helvetica;-inkscape-font-specification:Helvetica;writing-mode:lr-tb;fill:#262626;fill-opacity:1;fill-rule:nonzero;stroke:none"
             id="text3012"><tspan
               x="0 7.4131479 14.826296"
               y="0"
               sodipodi:role="line"
               id="tspan3010">110</tspan></text></g></g><g
         id="g3014"><g
           id="g3016"
           transform="matrix(6,0,0,6,249,618.00009)"><text
             transform="translate(-23,5.5)"
             style="font-variant:normal;font-weight:normal;font-size:13.333px;font-family:Helvetica;-inkscape-font-specification:Helvetica;writing-mode:lr-tb;fill:#262626;fill-opacity:1;fill-rule:nonzero;stroke:none"
             id="text3020"><tspan
               x="0 7.4131479 14.826296"
               y="0"
               sodipodi:role="line"
               id="tspan3018">115</tspan></text></g></g><g
         id="g3022"><g
           id="g3024"
           transform="matrix(6,0,0,6,249,360.75009)"><text
             transform="translate(-23,5.5)"
             style="font-variant:normal;font-weight:normal;font-size:13.333px;font-family:Helvetica;-inkscape-font-specification:Helvetica;writing-mode:lr-tb;fill:#262626;fill-opacity:1;fill-rule:nonzero;stroke:none"
             id="text3028"><tspan
               x="0 7.4131479 14.826296"
               y="0"
               sodipodi:role="line"
               id="tspan3026">120</tspan></text></g></g><g
         id="g3030"><g
           id="g3032"
           transform="matrix(6,0,0,6,249,103.50009)"><text
             transform="translate(-23,5.5)"
             style="font-variant:normal;font-weight:normal;font-size:13.333px;font-family:Helvetica;-inkscape-font-specification:Helvetica;writing-mode:lr-tb;fill:#262626;fill-opacity:1;fill-rule:nonzero;stroke:none"
             id="text3036"><tspan
               x="0 7.4131479 14.826296"
               y="0"
               sodipodi:role="line"
               id="tspan3034">125</tspan></text></g></g><g
         id="g3038"><g
           id="g3040"
           transform="matrix(-2.6e-7,-6,6,-2.6e-7,87,1132.4993)"><text
             transform="translate(-11,-4)"
             style="font-variant:normal;font-weight:normal;font-size:14.667px;font-family:Helvetica;-inkscape-font-specification:Helvetica;writing-mode:lr-tb;fill:#262626;fill-opacity:1;fill-rule:nonzero;stroke:none"
             id="text3044"><tspan
               x="0 4.077426 14.667"
               y="0"
               sodipodi:role="line"
               id="tspan3042">IDs</tspan></text></g></g><g
         id="g3046"><g
           id="g3048"
           transform="matrix(6,0,0,6,1583.0016,87)"><text
             transform="translate(-25.5,-4)"
             style="font-variant:normal;font-weight:bold;font-size:14.667px;font-family:Helvetica;-inkscape-font-specification:Helvetica-Bold;writing-mode:lr-tb;fill:#000000;fill-opacity:1;fill-rule:nonzero;stroke:none"
             id="text3052"><tspan
               x="0 8.9615374 13.038963 18.744427 26.899279 31.783388 35.860813 39.93824"
               y="0"
               sodipodi:role="line"
               id="tspan3050">First ID</tspan></text></g></g><g
         id="g3054"
         transform="matrix(6,0,0,6,440.89471,257.85008)"><path
           d="m 0,-3.6666667 c 2.0250441,0 3.6666667,1.6416226 3.6666667,3.6666667 V 0 C 3.6666667,2.0250441 2.0250441,3.6666667 0,3.6666667 -2.0250441,3.6666667 -3.6666667,2.0250441 -3.6666667,0 c 0,-2.0250441 1.6416226,-3.6666667 3.6666667,-3.6666667 z m 0,-0.6666666 c -2.3932339,0 -4.3333333,1.9400994 -4.3333333,4.3333333 0,2.3932339 1.9400994,4.3333333 4.3333333,4.3333333 C 2.3932339,4.3333333 4.3333333,2.3932339 4.3333333,0 V 0 C 4.3333333,-2.3932339 2.3932339,-4.3333333 0,-4.3333333 Z"
           style="fill:#0000ff;fill-opacity:1;fill-rule:nonzero;stroke:none"
           id="path3056" /></g><g
         id="g3058"
         transform="matrix(6,0,0,6,440.89471,1801.3501)"><path
           d="m 0,-3.6666667 c 2.0250441,0 3.6666667,1.6416226 3.6666667,3.6666667 V 0 C 3.6666667,2.0250441 2.0250441,3.6666667 0,3.6666667 -2.0250441,3.6666667 -3.6666667,2.0250441 -3.6666667,0 c 0,-2.0250441 1.6416226,-3.6666667 3.6666667,-3.6666667 z m 0,-0.6666666 c -2.3932339,0 -4.3333333,1.9400994 -4.3333333,4.3333333 0,2.3932339 1.9400994,4.3333333 4.3333333,4.3333333 C 2.3932339,4.3333333 4.3333333,2.3932339 4.3333333,0 V 0 C 4.3333333,-2.3932339 2.3932339,-4.3333333 0,-4.3333333 Z"
           style="fill:#0000ff;fill-opacity:1;fill-rule:nonzero;stroke:none"
           id="path3060" /></g><g
         id="g3062"
         transform="matrix(6,0,0,6,440.89471,1852.8)"><path
           d="m 0,-3.6666667 c 2.0250441,0 3.6666667,1.6416226 3.6666667,3.6666667 V 0 C 3.6666667,2.0250441 2.0250441,3.6666667 0,3.6666667 -2.0250441,3.6666667 -3.6666667,2.0250441 -3.6666667,0 c 0,-2.0250441 1.6416226,-3.6666667 3.6666667,-3.6666667 z m 0,-0.6666666 c -2.3932339,0 -4.3333333,1.9400994 -4.3333333,4.3333333 0,2.3932339 1.9400994,4.3333333 4.3333333,4.3333333 C 2.3932339,4.3333333 4.3333333,2.3932339 4.3333333,0 V 0 C 4.3333333,-2.3932339 2.3932339,-4.3333333 0,-4.3333333 Z"
           style="fill:#0000ff;fill-opacity:1;fill-rule:nonzero;stroke:none"
           id="path3064" /></g><g
         id="g3066"
         transform="matrix(6,0,0,6,440.89471,1852.8)"><path
           d="m 0,-3.6666667 c 2.0250441,0 3.6666667,1.6416226 3.6666667,3.6666667 V 0 C 3.6666667,2.0250441 2.0250441,3.6666667 0,3.6666667 -2.0250441,3.6666667 -3.6666667,2.0250441 -3.6666667,0 c 0,-2.0250441 1.6416226,-3.6666667 3.6666667,-3.6666667 z m 0,-0.6666666 c -2.3932339,0 -4.3333333,1.9400994 -4.3333333,4.3333333 0,2.3932339 1.9400994,4.3333333 4.3333333,4.3333333 C 2.3932339,4.3333333 4.3333333,2.3932339 4.3333333,0 V 0 C 4.3333333,-2.3932339 2.3932339,-4.3333333 0,-4.3333333 Z"
           style="fill:#0000ff;fill-opacity:1;fill-rule:nonzero;stroke:none"
           id="path3068" /></g><g
         id="g3070"
         transform="matrix(6,0,0,6,440.89471,1852.8)"><path
           d="m 0,-3.6666667 c 2.0250441,0 3.6666667,1.6416226 3.6666667,3.6666667 V 0 C 3.6666667,2.0250441 2.0250441,3.6666667 0,3.6666667 -2.0250441,3.6666667 -3.6666667,2.0250441 -3.6666667,0 c 0,-2.0250441 1.6416226,-3.6666667 3.6666667,-3.6666667 z m 0,-0.6666666 c -2.3932339,0 -4.3333333,1.9400994 -4.3333333,4.3333333 0,2.3932339 1.9400994,4.3333333 4.3333333,4.3333333 C 2.3932339,4.3333333 4.3333333,2.3932339 4.3333333,0 V 0 C 4.3333333,-2.3932339 2.3932339,-4.3333333 0,-4.3333333 Z"
           style="fill:#0000ff;fill-opacity:1;fill-rule:nonzero;stroke:none"
           id="path3072" /></g><g
         id="g3074"
         transform="matrix(6,0,0,6,440.89471,1801.3501)"><path
           d="m 0,-3.6666667 c 2.0250441,0 3.6666667,1.6416226 3.6666667,3.6666667 V 0 C 3.6666667,2.0250441 2.0250441,3.6666667 0,3.6666667 -2.0250441,3.6666667 -3.6666667,2.0250441 -3.6666667,0 c 0,-2.0250441 1.6416226,-3.6666667 3.6666667,-3.6666667 z m 0,-0.6666666 c -2.3932339,0 -4.3333333,1.9400994 -4.3333333,4.3333333 0,2.3932339 1.9400994,4.3333333 4.3333333,4.3333333 C 2.3932339,4.3333333 4.3333333,2.3932339 4.3333333,0 V 0 C 4.3333333,-2.3932339 2.3932339,-4.3333333 0,-4.3333333 Z"
           style="fill:#0000ff;fill-opacity:1;fill-rule:nonzero;stroke:none"
           id="path3076" /></g><g
         id="g3078"
         transform="matrix(6,0,0,6,440.89471,1852.8)"><path
           d="m 0,-3.6666667 c 2.0250441,0 3.6666667,1.6416226 3.6666667,3.6666667 V 0 C 3.6666667,2.0250441 2.0250441,3.6666667 0,3.6666667 -2.0250441,3.6666667 -3.6666667,2.0250441 -3.6666667,0 c 0,-2.0250441 1.6416226,-3.6666667 3.6666667,-3.6666667 z m 0,-0.6666666 c -2.3932339,0 -4.3333333,1.9400994 -4.3333333,4.3333333 0,2.3932339 1.9400994,4.3333333 4.3333333,4.3333333 C 2.3932339,4.3333333 4.3333333,2.3932339 4.3333333,0 V 0 C 4.3333333,-2.3932339 2.3932339,-4.3333333 0,-4.3333333 Z"
           style="fill:#0000ff;fill-opacity:1;fill-rule:nonzero;stroke:none"
           id="path3080" /></g><g
         id="g3082"
         transform="matrix(6,0,0,6,440.89471,1852.8)"><path
           d="m 0,-3.6666667 c 2.0250441,0 3.6666667,1.6416226 3.6666667,3.6666667 V 0 C 3.6666667,2.0250441 2.0250441,3.6666667 0,3.6666667 -2.0250441,3.6666667 -3.6666667,2.0250441 -3.6666667,0 c 0,-2.0250441 1.6416226,-3.6666667 3.6666667,-3.6666667 z m 0,-0.6666666 c -2.3932339,0 -4.3333333,1.9400994 -4.3333333,4.3333333 0,2.3932339 1.9400994,4.3333333 4.3333333,4.3333333 C 2.3932339,4.3333333 4.3333333,2.3932339 4.3333333,0 V 0 C 4.3333333,-2.3932339 2.3932339,-4.3333333 0,-4.3333333 Z"
           style="fill:#0000ff;fill-opacity:1;fill-rule:nonzero;stroke:none"
           id="path3084" /></g><g
         id="g3086"
         transform="matrix(6,0,0,6,440.89471,1801.3501)"><path
           d="m 0,-3.6666667 c 2.0250441,0 3.6666667,1.6416226 3.6666667,3.6666667 V 0 C 3.6666667,2.0250441 2.0250441,3.6666667 0,3.6666667 -2.0250441,3.6666667 -3.6666667,2.0250441 -3.6666667,0 c 0,-2.0250441 1.6416226,-3.6666667 3.6666667,-3.6666667 z m 0,-0.6666666 c -2.3932339,0 -4.3333333,1.9400994 -4.3333333,4.3333333 0,2.3932339 1.9400994,4.3333333 4.3333333,4.3333333 C 2.3932339,4.3333333 4.3333333,2.3932339 4.3333333,0 V 0 C 4.3333333,-2.3932339 2.3932339,-4.3333333 0,-4.3333333 Z"
           style="fill:#0000ff;fill-opacity:1;fill-rule:nonzero;stroke:none"
           id="path3088" /></g><g
         id="g3090"
         transform="matrix(6,0,0,6,440.89471,1852.8)"><path
           d="m 0,-3.6666667 c 2.0250441,0 3.6666667,1.6416226 3.6666667,3.6666667 V 0 C 3.6666667,2.0250441 2.0250441,3.6666667 0,3.6666667 -2.0250441,3.6666667 -3.6666667,2.0250441 -3.6666667,0 c 0,-2.0250441 1.6416226,-3.6666667 3.6666667,-3.6666667 z m 0,-0.6666666 c -2.3932339,0 -4.3333333,1.9400994 -4.3333333,4.3333333 0,2.3932339 1.9400994,4.3333333 4.3333333,4.3333333 C 2.3932339,4.3333333 4.3333333,2.3932339 4.3333333,0 V 0 C 4.3333333,-2.3932339 2.3932339,-4.3333333 0,-4.3333333 Z"
           style="fill:#0000ff;fill-opacity:1;fill-rule:nonzero;stroke:none"
           id="path3092" /></g><g
         id="g3094"
         transform="matrix(6,0,0,6,1583,1441.2001)"><path
           d="m 0,-3.6666667 c 2.0250441,0 3.6666667,1.6416226 3.6666667,3.6666667 V 0 C 3.6666667,2.0250441 2.0250441,3.6666667 0,3.6666667 -2.0250441,3.6666667 -3.6666667,2.0250441 -3.6666667,0 c 0,-2.0250441 1.6416226,-3.6666667 3.6666667,-3.6666667 z m 0,-0.6666666 c -2.3932339,0 -4.3333333,1.9400994 -4.3333333,4.3333333 0,2.3932339 1.9400994,4.3333333 4.3333333,4.3333333 C 2.3932339,4.3333333 4.3333333,2.3932339 4.3333333,0 V 0 C 4.3333333,-2.3932339 2.3932339,-4.3333333 0,-4.3333333 Z"
           style="fill:#000000;fill-opacity:1;fill-rule:nonzero;stroke:none"
           id="path3096" /></g><g
         id="g3098"
         transform="matrix(6,0,0,6,1583,463.6501)"><path
           d="m 0,-3.6666667 c 2.0250441,0 3.6666667,1.6416226 3.6666667,3.6666667 V 0 C 3.6666667,2.0250441 2.0250441,3.6666667 0,3.6666667 -2.0250441,3.6666667 -3.6666667,2.0250441 -3.6666667,0 c 0,-2.0250441 1.6416226,-3.6666667 3.6666667,-3.6666667 z m 0,-0.6666666 c -2.3932339,0 -4.3333333,1.9400994 -4.3333333,4.3333333 0,2.3932339 1.9400994,4.3333333 4.3333333,4.3333333 C 2.3932339,4.3333333 4.3333333,2.3932339 4.3333333,0 V 0 C 4.3333333,-2.3932339 2.3932339,-4.3333333 0,-4.3333333 Z"
           style="fill:#000000;fill-opacity:1;fill-rule:nonzero;stroke:none"
           id="path3100" /></g><g
         id="g3102"
         transform="matrix(6,0,0,6,1583,1441.2001)"><path
           d="m 0,-3.6666667 c 2.0250441,0 3.6666667,1.6416226 3.6666667,3.6666667 V 0 C 3.6666667,2.0250441 2.0250441,3.6666667 0,3.6666667 -2.0250441,3.6666667 -3.6666667,2.0250441 -3.6666667,0 c 0,-2.0250441 1.6416226,-3.6666667 3.6666667,-3.6666667 z m 0,-0.6666666 c -2.3932339,0 -4.3333333,1.9400994 -4.3333333,4.3333333 0,2.3932339 1.9400994,4.3333333 4.3333333,4.3333333 C 2.3932339,4.3333333 4.3333333,2.3932339 4.3333333,0 V 0 C 4.3333333,-2.3932339 2.3932339,-4.3333333 0,-4.3333333 Z"
           style="fill:#000000;fill-opacity:1;fill-rule:nonzero;stroke:none"
           id="path3104" /></g><g
         id="g3106"
         transform="matrix(6,0,0,6,1583,1441.2001)"><path
           d="m 0,-3.6666667 c 2.0250441,0 3.6666667,1.6416226 3.6666667,3.6666667 V 0 C 3.6666667,2.0250441 2.0250441,3.6666667 0,3.6666667 -2.0250441,3.6666667 -3.6666667,2.0250441 -3.6666667,0 c 0,-2.0250441 1.6416226,-3.6666667 3.6666667,-3.6666667 z m 0,-0.6666666 c -2.3932339,0 -4.3333333,1.9400994 -4.3333333,4.3333333 0,2.3932339 1.9400994,4.3333333 4.3333333,4.3333333 C 2.3932339,4.3333333 4.3333333,2.3932339 4.3333333,0 V 0 C 4.3333333,-2.3932339 2.3932339,-4.3333333 0,-4.3333333 Z"
           style="fill:#000000;fill-opacity:1;fill-rule:nonzero;stroke:none"
           id="path3108" /></g><g
         id="g3110"
         transform="matrix(6,0,0,6,1583,1441.2001)"><path
           d="m 0,-3.6666667 c 2.0250441,0 3.6666667,1.6416226 3.6666667,3.6666667 V 0 C 3.6666667,2.0250441 2.0250441,3.6666667 0,3.6666667 -2.0250441,3.6666667 -3.6666667,2.0250441 -3.6666667,0 c 0,-2.0250441 1.6416226,-3.6666667 3.6666667,-3.6666667 z m 0,-0.6666666 c -2.3932339,0 -4.3333333,1.9400994 -4.3333333,4.3333333 0,2.3932339 1.9400994,4.3333333 4.3333333,4.3333333 C 2.3932339,4.3333333 4.3333333,2.3932339 4.3333333,0 V 0 C 4.3333333,-2.3932339 2.3932339,-4.3333333 0,-4.3333333 Z"
           style="fill:#000000;fill-opacity:1;fill-rule:nonzero;stroke:none"
           id="path3112" /></g><g
         id="g3114"
         transform="matrix(6,0,0,6,1583,1441.2001)"><path
           d="m 0,-3.6666667 c 2.0250441,0 3.6666667,1.6416226 3.6666667,3.6666667 V 0 C 3.6666667,2.0250441 2.0250441,3.6666667 0,3.6666667 -2.0250441,3.6666667 -3.6666667,2.0250441 -3.6666667,0 c 0,-2.0250441 1.6416226,-3.6666667 3.6666667,-3.6666667 z m 0,-0.6666666 c -2.3932339,0 -4.3333333,1.9400994 -4.3333333,4.3333333 0,2.3932339 1.9400994,4.3333333 4.3333333,4.3333333 C 2.3932339,4.3333333 4.3333333,2.3932339 4.3333333,0 V 0 C 4.3333333,-2.3932339 2.3932339,-4.3333333 0,-4.3333333 Z"
           style="fill:#000000;fill-opacity:1;fill-rule:nonzero;stroke:none"
           id="path3116" /></g><g
         id="g3118"
         transform="matrix(6,0,0,6,1583,1441.2001)"><path
           d="m 0,-3.6666667 c 2.0250441,0 3.6666667,1.6416226 3.6666667,3.6666667 V 0 C 3.6666667,2.0250441 2.0250441,3.6666667 0,3.6666667 -2.0250441,3.6666667 -3.6666667,2.0250441 -3.6666667,0 c 0,-2.0250441 1.6416226,-3.6666667 3.6666667,-3.6666667 z m 0,-0.6666666 c -2.3932339,0 -4.3333333,1.9400994 -4.3333333,4.3333333 0,2.3932339 1.9400994,4.3333333 4.3333333,4.3333333 C 2.3932339,4.3333333 4.3333333,2.3932339 4.3333333,0 V 0 C 4.3333333,-2.3932339 2.3932339,-4.3333333 0,-4.3333333 Z"
           style="fill:#000000;fill-opacity:1;fill-rule:nonzero;stroke:none"
           id="path3120" /></g><g
         id="g3122"
         transform="matrix(6,0,0,6,1583,1441.2001)"><path
           d="m 0,-3.6666667 c 2.0250441,0 3.6666667,1.6416226 3.6666667,3.6666667 V 0 C 3.6666667,2.0250441 2.0250441,3.6666667 0,3.6666667 -2.0250441,3.6666667 -3.6666667,2.0250441 -3.6666667,0 c 0,-2.0250441 1.6416226,-3.6666667 3.6666667,-3.6666667 z m 0,-0.6666666 c -2.3932339,0 -4.3333333,1.9400994 -4.3333333,4.3333333 0,2.3932339 1.9400994,4.3333333 4.3333333,4.3333333 C 2.3932339,4.3333333 4.3333333,2.3932339 4.3333333,0 V 0 C 4.3333333,-2.3932339 2.3932339,-4.3333333 0,-4.3333333 Z"
           style="fill:#000000;fill-opacity:1;fill-rule:nonzero;stroke:none"
           id="path3124" /></g><g
         id="g3126"
         transform="matrix(6,0,0,6,1583,1441.2001)"><path
           d="m 0,-3.6666667 c 2.0250441,0 3.6666667,1.6416226 3.6666667,3.6666667 V 0 C 3.6666667,2.0250441 2.0250441,3.6666667 0,3.6666667 -2.0250441,3.6666667 -3.6666667,2.0250441 -3.6666667,0 c 0,-2.0250441 1.6416226,-3.6666667 3.6666667,-3.6666667 z m 0,-0.6666666 c -2.3932339,0 -4.3333333,1.9400994 -4.3333333,4.3333333 0,2.3932339 1.9400994,4.3333333 4.3333333,4.3333333 C 2.3932339,4.3333333 4.3333333,2.3932339 4.3333333,0 V 0 C 4.3333333,-2.3932339 2.3932339,-4.3333333 0,-4.3333333 Z"
           style="fill:#000000;fill-opacity:1;fill-rule:nonzero;stroke:none"
           id="path3128" /></g><g
         id="g3130"
         transform="matrix(6,0,0,6,1583,1441.2001)"><path
           d="m 0,-3.6666667 c 2.0250441,0 3.6666667,1.6416226 3.6666667,3.6666667 V 0 C 3.6666667,2.0250441 2.0250441,3.6666667 0,3.6666667 -2.0250441,3.6666667 -3.6666667,2.0250441 -3.6666667,0 c 0,-2.0250441 1.6416226,-3.6666667 3.6666667,-3.6666667 z m 0,-0.6666666 c -2.3932339,0 -4.3333333,1.9400994 -4.3333333,4.3333333 0,2.3932339 1.9400994,4.3333333 4.3333333,4.3333333 C 2.3932339,4.3333333 4.3333333,2.3932339 4.3333333,0 V 0 C 4.3333333,-2.3932339 2.3932339,-4.3333333 0,-4.3333333 Z"
           style="fill:#000000;fill-opacity:1;fill-rule:nonzero;stroke:none"
           id="path3132" /></g><g
         id="g3134"
         transform="matrix(6,0,0,6,2725.1053,2058.6001)"><path
           d="m 0,-3.6666667 c 2.0250441,0 3.6666667,1.6416226 3.6666667,3.6666667 V 0 C 3.6666667,2.0250441 2.0250441,3.6666667 0,3.6666667 -2.0250441,3.6666667 -3.6666667,2.0250441 -3.6666667,0 c 0,-2.0250441 1.6416226,-3.6666667 3.6666667,-3.6666667 z m 0,-0.6666666 c -2.3932339,0 -4.3333333,1.9400994 -4.3333333,4.3333333 0,2.3932339 1.9400994,4.3333333 4.3333333,4.3333333 C 2.3932339,4.3333333 4.3333333,2.3932339 4.3333333,0 V 0 C 4.3333333,-2.3932339 2.3932339,-4.3333333 0,-4.3333333 Z"
           style="fill:#ff0000;fill-opacity:1;fill-rule:nonzero;stroke:none"
           id="path3136" /></g><g
         id="g3138"
         transform="matrix(6,0,0,6,2725.1053,669.45007)"><path
           d="m 0,-3.6666667 c 2.0250441,0 3.6666667,1.6416226 3.6666667,3.6666667 V 0 C 3.6666667,2.0250441 2.0250441,3.6666667 0,3.6666667 -2.0250441,3.6666667 -3.6666667,2.0250441 -3.6666667,0 c 0,-2.0250441 1.6416226,-3.6666667 3.6666667,-3.6666667 z m 0,-0.6666666 c -2.3932339,0 -4.3333333,1.9400994 -4.3333333,4.3333333 0,2.3932339 1.9400994,4.3333333 4.3333333,4.3333333 C 2.3932339,4.3333333 4.3333333,2.3932339 4.3333333,0 V 0 C 4.3333333,-2.3932339 2.3932339,-4.3333333 0,-4.3333333 Z"
           style="fill:#ff0000;fill-opacity:1;fill-rule:nonzero;stroke:none"
           id="path3140" /></g><g
         id="g3142"
         transform="matrix(6,0,0,6,2725.1053,669.45007)"><path
           d="m 0,-3.6666667 c 2.0250441,0 3.6666667,1.6416226 3.6666667,3.6666667 V 0 C 3.6666667,2.0250441 2.0250441,3.6666667 0,3.6666667 -2.0250441,3.6666667 -3.6666667,2.0250441 -3.6666667,0 c 0,-2.0250441 1.6416226,-3.6666667 3.6666667,-3.6666667 z m 0,-0.6666666 c -2.3932339,0 -4.3333333,1.9400994 -4.3333333,4.3333333 0,2.3932339 1.9400994,4.3333333 4.3333333,4.3333333 C 2.3932339,4.3333333 4.3333333,2.3932339 4.3333333,0 V 0 C 4.3333333,-2.3932339 2.3932339,-4.3333333 0,-4.3333333 Z"
           style="fill:#ff0000;fill-opacity:1;fill-rule:nonzero;stroke:none"
           id="path3144" /></g><g
         id="g3146"
         transform="matrix(6,0,0,6,2725.1053,669.45007)"><path
           d="m 0,-3.6666667 c 2.0250441,0 3.6666667,1.6416226 3.6666667,3.6666667 V 0 C 3.6666667,2.0250441 2.0250441,3.6666667 0,3.6666667 -2.0250441,3.6666667 -3.6666667,2.0250441 -3.6666667,0 c 0,-2.0250441 1.6416226,-3.6666667 3.6666667,-3.6666667 z m 0,-0.6666666 c -2.3932339,0 -4.3333333,1.9400994 -4.3333333,4.3333333 0,2.3932339 1.9400994,4.3333333 4.3333333,4.3333333 C 2.3932339,4.3333333 4.3333333,2.3932339 4.3333333,0 V 0 C 4.3333333,-2.3932339 2.3932339,-4.3333333 0,-4.3333333 Z"
           style="fill:#ff0000;fill-opacity:1;fill-rule:nonzero;stroke:none"
           id="path3148" /></g><g
         id="g3150"
         transform="matrix(6,0,0,6,2725.1053,669.45007)"><path
           d="m 0,-3.6666667 c 2.0250441,0 3.6666667,1.6416226 3.6666667,3.6666667 V 0 C 3.6666667,2.0250441 2.0250441,3.6666667 0,3.6666667 -2.0250441,3.6666667 -3.6666667,2.0250441 -3.6666667,0 c 0,-2.0250441 1.6416226,-3.6666667 3.6666667,-3.6666667 z m 0,-0.6666666 c -2.3932339,0 -4.3333333,1.9400994 -4.3333333,4.3333333 0,2.3932339 1.9400994,4.3333333 4.3333333,4.3333333 C 2.3932339,4.3333333 4.3333333,2.3932339 4.3333333,0 V 0 C 4.3333333,-2.3932339 2.3932339,-4.3333333 0,-4.3333333 Z"
           style="fill:#ff0000;fill-opacity:1;fill-rule:nonzero;stroke:none"
           id="path3152" /></g><g
         id="g3154"
         transform="matrix(6,0,0,6,2725.1053,618.00009)"><path
           d="m 0,-3.6666667 c 2.0250441,0 3.6666667,1.6416226 3.6666667,3.6666667 V 0 C 3.6666667,2.0250441 2.0250441,3.6666667 0,3.6666667 -2.0250441,3.6666667 -3.6666667,2.0250441 -3.6666667,0 c 0,-2.0250441 1.6416226,-3.6666667 3.6666667,-3.6666667 z m 0,-0.6666666 c -2.3932339,0 -4.3333333,1.9400994 -4.3333333,4.3333333 0,2.3932339 1.9400994,4.3333333 4.3333333,4.3333333 C 2.3932339,4.3333333 4.3333333,2.3932339 4.3333333,0 V 0 C 4.3333333,-2.3932339 2.3932339,-4.3333333 0,-4.3333333 Z"
           style="fill:#ff0000;fill-opacity:1;fill-rule:nonzero;stroke:none"
           id="path3156" /></g><g
         id="g3158"
         transform="matrix(6,0,0,6,2725.1053,669.45007)"><path
           d="m 0,-3.6666667 c 2.0250441,0 3.6666667,1.6416226 3.6666667,3.6666667 V 0 C 3.6666667,2.0250441 2.0250441,3.6666667 0,3.6666667 -2.0250441,3.6666667 -3.6666667,2.0250441 -3.6666667,0 c 0,-2.0250441 1.6416226,-3.6666667 3.6666667,-3.6666667 z m 0,-0.6666666 c -2.3932339,0 -4.3333333,1.9400994 -4.3333333,4.3333333 0,2.3932339 1.9400994,4.3333333 4.3333333,4.3333333 C 2.3932339,4.3333333 4.3333333,2.3932339 4.3333333,0 V 0 C 4.3333333,-2.3932339 2.3932339,-4.3333333 0,-4.3333333 Z"
           style="fill:#ff0000;fill-opacity:1;fill-rule:nonzero;stroke:none"
           id="path3160" /></g><g
         id="g3162"
         transform="matrix(6,0,0,6,2725.1053,618.00009)"><path
           d="m 0,-3.6666667 c 2.0250441,0 3.6666667,1.6416226 3.6666667,3.6666667 V 0 C 3.6666667,2.0250441 2.0250441,3.6666667 0,3.6666667 -2.0250441,3.6666667 -3.6666667,2.0250441 -3.6666667,0 c 0,-2.0250441 1.6416226,-3.6666667 3.6666667,-3.6666667 z m 0,-0.6666666 c -2.3932339,0 -4.3333333,1.9400994 -4.3333333,4.3333333 0,2.3932339 1.9400994,4.3333333 4.3333333,4.3333333 C 2.3932339,4.3333333 4.3333333,2.3932339 4.3333333,0 V 0 C 4.3333333,-2.3932339 2.3932339,-4.3333333 0,-4.3333333 Z"
           style="fill:#ff0000;fill-opacity:1;fill-rule:nonzero;stroke:none"
           id="path3164" /></g><g
         id="g3166"
         transform="matrix(6,0,0,6,2725.1053,669.45007)"><path
           d="m 0,-3.6666667 c 2.0250441,0 3.6666667,1.6416226 3.6666667,3.6666667 V 0 C 3.6666667,2.0250441 2.0250441,3.6666667 0,3.6666667 -2.0250441,3.6666667 -3.6666667,2.0250441 -3.6666667,0 c 0,-2.0250441 1.6416226,-3.6666667 3.6666667,-3.6666667 z m 0,-0.6666666 c -2.3932339,0 -4.3333333,1.9400994 -4.3333333,4.3333333 0,2.3932339 1.9400994,4.3333333 4.3333333,4.3333333 C 2.3932339,4.3333333 4.3333333,2.3932339 4.3333333,0 V 0 C 4.3333333,-2.3932339 2.3932339,-4.3333333 0,-4.3333333 Z"
           style="fill:#ff0000;fill-opacity:1;fill-rule:nonzero;stroke:none"
           id="path3168" /></g><g
         id="g3170"
         transform="matrix(6,0,0,6,2725.1053,669.45007)"><path
           d="m 0,-3.6666667 c 2.0250441,0 3.6666667,1.6416226 3.6666667,3.6666667 V 0 C 3.6666667,2.0250441 2.0250441,3.6666667 0,3.6666667 -2.0250441,3.6666667 -3.6666667,2.0250441 -3.6666667,0 c 0,-2.0250441 1.6416226,-3.6666667 3.6666667,-3.6666667 z m 0,-0.6666666 c -2.3932339,0 -4.3333333,1.9400994 -4.3333333,4.3333333 0,2.3932339 1.9400994,4.3333333 4.3333333,4.3333333 C 2.3932339,4.3333333 4.3333333,2.3932339 4.3333333,0 V 0 C 4.3333333,-2.3932339 2.3932339,-4.3333333 0,-4.3333333 Z"
           style="fill:#ff0000;fill-opacity:1;fill-rule:nonzero;stroke:none"
           id="path3172" /></g></g></g></svg>
