<?xml version="1.0" encoding="UTF-8" standalone="no"?>
<svg
   xmlns:dc="http://purl.org/dc/elements/1.1/"
   xmlns:cc="http://creativecommons.org/ns#"
   xmlns:rdf="http://www.w3.org/1999/02/22-rdf-syntax-ns#"
   xmlns:svg="http://www.w3.org/2000/svg"
   xmlns="http://www.w3.org/2000/svg"
   xmlns:sodipodi="http://sodipodi.sourceforge.net/DTD/sodipodi-0.dtd"
   xmlns:inkscape="http://www.inkscape.org/namespaces/inkscape"
   version="1.1"
   id="svg2430"
   xml:space="preserve"
   width="482.66666"
   height="400"
   viewBox="0 0 482.66666 400"
   sodipodi:docname="BotMidAcImMa18_05domID.svg"
   inkscape:version="1.0.1 (3bc2e813f5, 2020-09-07)"><metadata
     id="metadata2436"><rdf:RDF><cc:Work
         rdf:about=""><dc:format>image/svg+xml</dc:format><dc:type
           rdf:resource="http://purl.org/dc/dcmitype/StillImage" /><dc:title></dc:title></cc:Work></rdf:RDF></metadata><defs
     id="defs2434" /><sodipodi:namedview
     pagecolor="#ffffff"
     bordercolor="#666666"
     borderopacity="1"
     objecttolerance="10"
     gridtolerance="10"
     guidetolerance="10"
     inkscape:pageopacity="0"
     inkscape:pageshadow="2"
     inkscape:window-width="827"
     inkscape:window-height="480"
     id="namedview2432"
     showgrid="false"
     inkscape:zoom="1.435"
     inkscape:cx="241.33333"
     inkscape:cy="200"
     inkscape:window-x="0"
     inkscape:window-y="0"
     inkscape:window-maximized="0"
     inkscape:current-layer="g2438" /><g
     id="g2438"
     inkscape:groupmode="layer"
     inkscape:label="BotMidAcImMa18_05domID"
     transform="matrix(1.3333333,0,0,-1.3333333,0,400)"><g
       id="g2440"
       transform="matrix(0.125,0,0,-0.125,0,300)"><g
         id="g2442"
         transform="matrix(6,0,0,6,-157.00003,-82.500038)"><path
           d="M 0,0 H 560 V 420 H 0 Z"
           style="fill:#ffffff;fill-opacity:1;fill-rule:nonzero;stroke:none"
           id="path2444" /></g><g
         id="g2446"
         transform="matrix(6,0,0,6,-157.00003,-82.500038)"><path
           d="M 73,374 H 507 V 31 H 73 Z"
           style="fill:#ffffff;fill-opacity:1;fill-rule:nonzero;stroke:none"
           id="path2448" /></g><g
         id="g2450"
         transform="matrix(6,0,0,6,-157.00003,-82.500038)"><path
           d="M 99.649124,374 V 31"
           style="fill:none;stroke:#262626;stroke-width:0.666667;stroke-linecap:butt;stroke-linejoin:round;stroke-miterlimit:10;stroke-dasharray:none;stroke-opacity:0.14902"
           id="path2452" /></g><g
         id="g2454"
         transform="matrix(6,0,0,6,-157.00003,-82.500038)"><path
           d="M 290,374 V 31"
           style="fill:none;stroke:#262626;stroke-width:0.666667;stroke-linecap:butt;stroke-linejoin:round;stroke-miterlimit:10;stroke-dasharray:none;stroke-opacity:0.14902"
           id="path2456" /></g><g
         id="g2458"
         transform="matrix(6,0,0,6,-157.00003,-82.500038)"><path
           d="M 480.35089,374 V 31"
           style="fill:none;stroke:#262626;stroke-width:0.666667;stroke-linecap:butt;stroke-linejoin:round;stroke-miterlimit:10;stroke-dasharray:none;stroke-opacity:0.14902"
           id="path2460" /></g><g
         id="g2462"
         transform="matrix(6,0,0,6,-157.00003,-82.500038)"><path
           d="M 507.00003,374 H 73"
           style="fill:none;stroke:#262626;stroke-width:0.666667;stroke-linecap:butt;stroke-linejoin:round;stroke-miterlimit:10;stroke-dasharray:none;stroke-opacity:0.14902"
           id="path2464" /></g><g
         id="g2466"
         transform="matrix(6,0,0,6,-157.00003,-82.500038)"><path
           d="M 507.00003,335.88889 H 73"
           style="fill:none;stroke:#262626;stroke-width:0.666667;stroke-linecap:butt;stroke-linejoin:round;stroke-miterlimit:10;stroke-dasharray:none;stroke-opacity:0.14902"
           id="path2468" /></g><g
         id="g2470"
         transform="matrix(6,0,0,6,-157.00003,-82.500038)"><path
           d="M 507.00003,297.77777 H 73"
           style="fill:none;stroke:#262626;stroke-width:0.666667;stroke-linecap:butt;stroke-linejoin:round;stroke-miterlimit:10;stroke-dasharray:none;stroke-opacity:0.14902"
           id="path2472" /></g><g
         id="g2474"
         transform="matrix(6,0,0,6,-157.00003,-82.500038)"><path
           d="M 507.00003,259.66666 H 73"
           style="fill:none;stroke:#262626;stroke-width:0.666667;stroke-linecap:butt;stroke-linejoin:round;stroke-miterlimit:10;stroke-dasharray:none;stroke-opacity:0.14902"
           id="path2476" /></g><g
         id="g2478"
         transform="matrix(6,0,0,6,-157.00003,-82.500038)"><path
           d="M 507.00003,221.55556 H 73"
           style="fill:none;stroke:#262626;stroke-width:0.666667;stroke-linecap:butt;stroke-linejoin:round;stroke-miterlimit:10;stroke-dasharray:none;stroke-opacity:0.14902"
           id="path2480" /></g><g
         id="g2482"
         transform="matrix(6,0,0,6,-157.00003,-82.500038)"><path
           d="M 507.00003,183.44444 H 73"
           style="fill:none;stroke:#262626;stroke-width:0.666667;stroke-linecap:butt;stroke-linejoin:round;stroke-miterlimit:10;stroke-dasharray:none;stroke-opacity:0.14902"
           id="path2484" /></g><g
         id="g2486"
         transform="matrix(6,0,0,6,-157.00003,-82.500038)"><path
           d="M 507.00003,145.33333 H 73"
           style="fill:none;stroke:#262626;stroke-width:0.666667;stroke-linecap:butt;stroke-linejoin:round;stroke-miterlimit:10;stroke-dasharray:none;stroke-opacity:0.14902"
           id="path2488" /></g><g
         id="g2490"
         transform="matrix(6,0,0,6,-157.00003,-82.500038)"><path
           d="M 507.00003,107.22222 H 73"
           style="fill:none;stroke:#262626;stroke-width:0.666667;stroke-linecap:butt;stroke-linejoin:round;stroke-miterlimit:10;stroke-dasharray:none;stroke-opacity:0.14902"
           id="path2492" /></g><g
         id="g2494"
         transform="matrix(6,0,0,6,-157.00003,-82.500038)"><path
           d="M 507.00003,69.111115 H 73"
           style="fill:none;stroke:#262626;stroke-width:0.666667;stroke-linecap:butt;stroke-linejoin:round;stroke-miterlimit:10;stroke-dasharray:none;stroke-opacity:0.14902"
           id="path2496" /></g><g
         id="g2498"
         transform="matrix(6,0,0,6,-157.00003,-82.500038)"><path
           d="M 507.00003,31 H 73"
           style="fill:none;stroke:#262626;stroke-width:0.666667;stroke-linecap:butt;stroke-linejoin:round;stroke-miterlimit:10;stroke-dasharray:none;stroke-opacity:0.14902"
           id="path2500" /></g><g
         id="g2502"
         transform="matrix(6,0,0,6,-157.00003,-82.500038)"><path
           d="M 73,374 H 507.00003"
           style="fill:none;stroke:#262626;stroke-width:0.666667;stroke-linecap:square;stroke-linejoin:round;stroke-miterlimit:10;stroke-dasharray:none;stroke-opacity:1"
           id="path2504" /></g><g
         id="g2506"
         transform="matrix(6,0,0,6,-157.00003,-82.500038)"><path
           d="m 99.649124,374 v -4.34003"
           style="fill:none;stroke:#262626;stroke-width:0.666667;stroke-linecap:square;stroke-linejoin:round;stroke-miterlimit:10;stroke-dasharray:none;stroke-opacity:1"
           id="path2508" /></g><g
         id="g2510"
         transform="matrix(6,0,0,6,-157.00003,-82.500038)"><path
           d="m 290,374 v -4.34003"
           style="fill:none;stroke:#262626;stroke-width:0.666667;stroke-linecap:square;stroke-linejoin:round;stroke-miterlimit:10;stroke-dasharray:none;stroke-opacity:1"
           id="path2512" /></g><g
         id="g2514"
         transform="matrix(6,0,0,6,-157.00003,-82.500038)"><path
           d="m 480.35089,374 v -4.34003"
           style="fill:none;stroke:#262626;stroke-width:0.666667;stroke-linecap:square;stroke-linejoin:round;stroke-miterlimit:10;stroke-dasharray:none;stroke-opacity:1"
           id="path2516" /></g><g
         id="g2518"><g
           id="g2520"
           transform="matrix(6,0,0,6,440.89471,2193.4998)"><text
             transform="translate(-11,14)"
             style="font-variant:normal;font-weight:normal;font-size:13.333px;font-family:Helvetica;-inkscape-font-specification:Helvetica;writing-mode:lr-tb;fill:#262626;fill-opacity:1;fill-rule:nonzero;stroke:none"
             id="text2524"><tspan
               x="0 8.1464634 15.559611 18.519537"
               y="0"
               sodipodi:role="line"
               id="tspan2522">Full</tspan></text></g></g><g
         id="g2526"><g
           id="g2528"
           transform="matrix(6,0,0,6,1583,2193.4998)"><text
             transform="translate(-12,14)"
             style="font-variant:normal;font-weight:normal;font-size:13.333px;font-family:Helvetica;-inkscape-font-specification:Helvetica;writing-mode:lr-tb;fill:#262626;fill-opacity:1;fill-rule:nonzero;stroke:none"
             id="text2532"><tspan
               x="0 9.6264257 17.039574 19.9995"
               y="0"
               sodipodi:role="line"
               id="tspan2530">Half</tspan></text></g></g><g
         id="g2534"><g
           id="g2536"
           transform="matrix(6,0,0,6,2725.1053,2193.4998)"><text
             transform="translate(-16,14)"
             style="font-variant:normal;font-weight:normal;font-size:13.333px;font-family:Helvetica;-inkscape-font-specification:Helvetica;writing-mode:lr-tb;fill:#262626;fill-opacity:1;fill-rule:nonzero;stroke:none"
             id="text2540"><tspan
               x="0 8.8931112 19.9995 27.412647"
               y="0"
               sodipodi:role="line"
               id="tspan2538">Empt</tspan></text></g></g><g
         id="g2542"><g
           id="g2544"
           transform="matrix(6,0,0,6,1583.0013,2303.5001)"><text
             transform="translate(-19,15)"
             style="font-variant:normal;font-weight:normal;font-size:14.667px;font-family:Helvetica;-inkscape-font-specification:Helvetica;writing-mode:lr-tb;fill:#262626;fill-opacity:1;fill-rule:nonzero;stroke:none"
             id="text2548"><tspan
               x="0 9.7828894 17.93774 22.015167 26.092592 29.348667"
               y="0"
               sodipodi:role="line"
               id="tspan2546">Bottle</tspan></text></g></g><g
         id="g2550"
         transform="matrix(6,0,0,6,-157.00003,-82.500038)"><path
           d="M 73,374 V 31"
           style="fill:none;stroke:#262626;stroke-width:0.666667;stroke-linecap:square;stroke-linejoin:round;stroke-miterlimit:10;stroke-dasharray:none;stroke-opacity:1"
           id="path2552" /></g><g
         id="g2554"
         transform="matrix(6,0,0,6,-157.00003,-82.500038)"><path
           d="m 73,374 h 4.340012"
           style="fill:none;stroke:#262626;stroke-width:0.666667;stroke-linecap:square;stroke-linejoin:round;stroke-miterlimit:10;stroke-dasharray:none;stroke-opacity:1"
           id="path2556" /></g><g
         id="g2558"
         transform="matrix(6,0,0,6,-157.00003,-82.500038)"><path
           d="m 73,335.88889 h 4.340012"
           style="fill:none;stroke:#262626;stroke-width:0.666667;stroke-linecap:square;stroke-linejoin:round;stroke-miterlimit:10;stroke-dasharray:none;stroke-opacity:1"
           id="path2560" /></g><g
         id="g2562"
         transform="matrix(6,0,0,6,-157.00003,-82.500038)"><path
           d="m 73,297.77777 h 4.340012"
           style="fill:none;stroke:#262626;stroke-width:0.666667;stroke-linecap:square;stroke-linejoin:round;stroke-miterlimit:10;stroke-dasharray:none;stroke-opacity:1"
           id="path2564" /></g><g
         id="g2566"
         transform="matrix(6,0,0,6,-157.00003,-82.500038)"><path
           d="m 73,259.66666 h 4.340012"
           style="fill:none;stroke:#262626;stroke-width:0.666667;stroke-linecap:square;stroke-linejoin:round;stroke-miterlimit:10;stroke-dasharray:none;stroke-opacity:1"
           id="path2568" /></g><g
         id="g2570"
         transform="matrix(6,0,0,6,-157.00003,-82.500038)"><path
           d="m 73,221.55556 h 4.340012"
           style="fill:none;stroke:#262626;stroke-width:0.666667;stroke-linecap:square;stroke-linejoin:round;stroke-miterlimit:10;stroke-dasharray:none;stroke-opacity:1"
           id="path2572" /></g><g
         id="g2574"
         transform="matrix(6,0,0,6,-157.00003,-82.500038)"><path
           d="m 73,183.44444 h 4.340012"
           style="fill:none;stroke:#262626;stroke-width:0.666667;stroke-linecap:square;stroke-linejoin:round;stroke-miterlimit:10;stroke-dasharray:none;stroke-opacity:1"
           id="path2576" /></g><g
         id="g2578"
         transform="matrix(6,0,0,6,-157.00003,-82.500038)"><path
           d="m 73,145.33333 h 4.340012"
           style="fill:none;stroke:#262626;stroke-width:0.666667;stroke-linecap:square;stroke-linejoin:round;stroke-miterlimit:10;stroke-dasharray:none;stroke-opacity:1"
           id="path2580" /></g><g
         id="g2582"
         transform="matrix(6,0,0,6,-157.00003,-82.500038)"><path
           d="m 73,107.22222 h 4.340012"
           style="fill:none;stroke:#262626;stroke-width:0.666667;stroke-linecap:square;stroke-linejoin:round;stroke-miterlimit:10;stroke-dasharray:none;stroke-opacity:1"
           id="path2584" /></g><g
         id="g2586"
         transform="matrix(6,0,0,6,-157.00003,-82.500038)"><path
           d="m 73,69.111115 h 4.340012"
           style="fill:none;stroke:#262626;stroke-width:0.666667;stroke-linecap:square;stroke-linejoin:round;stroke-miterlimit:10;stroke-dasharray:none;stroke-opacity:1"
           id="path2588" /></g><g
         id="g2590"
         transform="matrix(6,0,0,6,-157.00003,-82.500038)"><path
           d="m 73,31 h 4.340012"
           style="fill:none;stroke:#262626;stroke-width:0.666667;stroke-linecap:square;stroke-linejoin:round;stroke-miterlimit:10;stroke-dasharray:none;stroke-opacity:1"
           id="path2592" /></g><g
         id="g2594"><g
           id="g2596"
           transform="matrix(6,0,0,6,249,2161.5)"><text
             transform="translate(-15,5.5)"
             style="font-variant:normal;font-weight:normal;font-size:13.333px;font-family:Helvetica;-inkscape-font-specification:Helvetica;writing-mode:lr-tb;fill:#262626;fill-opacity:1;fill-rule:nonzero;stroke:none"
             id="text2600"><tspan
               x="0 7.4131479"
               y="0"
               sodipodi:role="line"
               id="tspan2598">80</tspan></text></g></g><g
         id="g2602"><g
           id="g2604"
           transform="matrix(6,0,0,6,249,1932.8333)"><text
             transform="translate(-15,5.5)"
             style="font-variant:normal;font-weight:normal;font-size:13.333px;font-family:Helvetica;-inkscape-font-specification:Helvetica;writing-mode:lr-tb;fill:#262626;fill-opacity:1;fill-rule:nonzero;stroke:none"
             id="text2608"><tspan
               x="0 7.4131479"
               y="0"
               sodipodi:role="line"
               id="tspan2606">90</tspan></text></g></g><g
         id="g2610"><g
           id="g2612"
           transform="matrix(6,0,0,6,249,1704.1666)"><text
             transform="translate(-23,5.5)"
             style="font-variant:normal;font-weight:normal;font-size:13.333px;font-family:Helvetica;-inkscape-font-specification:Helvetica;writing-mode:lr-tb;fill:#262626;fill-opacity:1;fill-rule:nonzero;stroke:none"
             id="text2616"><tspan
               x="0 7.4131479 14.826296"
               y="0"
               sodipodi:role="line"
               id="tspan2614">100</tspan></text></g></g><g
         id="g2618"><g
           id="g2620"
           transform="matrix(6,0,0,6,249,1475.4999)"><text
             transform="translate(-23,5.5)"
             style="font-variant:normal;font-weight:normal;font-size:13.333px;font-family:Helvetica;-inkscape-font-specification:Helvetica;writing-mode:lr-tb;fill:#262626;fill-opacity:1;fill-rule:nonzero;stroke:none"
             id="text2624"><tspan
               x="0 7.4131479 14.826296"
               y="0"
               sodipodi:role="line"
               id="tspan2622">110</tspan></text></g></g><g
         id="g2626"><g
           id="g2628"
           transform="matrix(6,0,0,6,249,1246.8333)"><text
             transform="translate(-23,5.5)"
             style="font-variant:normal;font-weight:normal;font-size:13.333px;font-family:Helvetica;-inkscape-font-specification:Helvetica;writing-mode:lr-tb;fill:#262626;fill-opacity:1;fill-rule:nonzero;stroke:none"
             id="text2632"><tspan
               x="0 7.4131479 14.826296"
               y="0"
               sodipodi:role="line"
               id="tspan2630">120</tspan></text></g></g><g
         id="g2634"><g
           id="g2636"
           transform="matrix(6,0,0,6,249,1018.1666)"><text
             transform="translate(-23,5.5)"
             style="font-variant:normal;font-weight:normal;font-size:13.333px;font-family:Helvetica;-inkscape-font-specification:Helvetica;writing-mode:lr-tb;fill:#262626;fill-opacity:1;fill-rule:nonzero;stroke:none"
             id="text2640"><tspan
               x="0 7.4131479 14.826296"
               y="0"
               sodipodi:role="line"
               id="tspan2638">130</tspan></text></g></g><g
         id="g2642"><g
           id="g2644"
           transform="matrix(6,0,0,6,249,789.49993)"><text
             transform="translate(-23,5.5)"
             style="font-variant:normal;font-weight:normal;font-size:13.333px;font-family:Helvetica;-inkscape-font-specification:Helvetica;writing-mode:lr-tb;fill:#262626;fill-opacity:1;fill-rule:nonzero;stroke:none"
             id="text2648"><tspan
               x="0 7.4131479 14.826296"
               y="0"
               sodipodi:role="line"
               id="tspan2646">140</tspan></text></g></g><g
         id="g2650"><g
           id="g2652"
           transform="matrix(6,0,0,6,249,560.83329)"><text
             transform="translate(-23,5.5)"
             style="font-variant:normal;font-weight:normal;font-size:13.333px;font-family:Helvetica;-inkscape-font-specification:Helvetica;writing-mode:lr-tb;fill:#262626;fill-opacity:1;fill-rule:nonzero;stroke:none"
             id="text2656"><tspan
               x="0 7.4131479 14.826296"
               y="0"
               sodipodi:role="line"
               id="tspan2654">150</tspan></text></g></g><g
         id="g2658"><g
           id="g2660"
           transform="matrix(6,0,0,6,249,332.16665)"><text
             transform="translate(-23,5.5)"
             style="font-variant:normal;font-weight:normal;font-size:13.333px;font-family:Helvetica;-inkscape-font-specification:Helvetica;writing-mode:lr-tb;fill:#262626;fill-opacity:1;fill-rule:nonzero;stroke:none"
             id="text2664"><tspan
               x="0 7.4131479 14.826296"
               y="0"
               sodipodi:role="line"
               id="tspan2662">160</tspan></text></g></g><g
         id="g2666"><g
           id="g2668"
           transform="matrix(6,0,0,6,249,103.49996)"><text
             transform="translate(-23,5.5)"
             style="font-variant:normal;font-weight:normal;font-size:13.333px;font-family:Helvetica;-inkscape-font-specification:Helvetica;writing-mode:lr-tb;fill:#262626;fill-opacity:1;fill-rule:nonzero;stroke:none"
             id="text2672"><tspan
               x="0 7.4131479 14.826296"
               y="0"
               sodipodi:role="line"
               id="tspan2670">170</tspan></text></g></g><g
         id="g2674"><g
           id="g2676"
           transform="matrix(-2.6e-7,-6,6,-2.6e-7,87,1132.499)"><text
             transform="translate(-11,-4)"
             style="font-variant:normal;font-weight:normal;font-size:14.667px;font-family:Helvetica;-inkscape-font-specification:Helvetica;writing-mode:lr-tb;fill:#262626;fill-opacity:1;fill-rule:nonzero;stroke:none"
             id="text2680"><tspan
               x="0 4.077426 14.667"
               y="0"
               sodipodi:role="line"
               id="tspan2678">IDs</tspan></text></g></g><g
         id="g2682"><g
           id="g2684"
           transform="matrix(6,0,0,6,1583.0016,86.999996)"><text
             transform="translate(-43.5,-4)"
             style="font-variant:normal;font-weight:bold;font-size:14.667px;font-family:Helvetica;-inkscape-font-specification:Helvetica-Bold;writing-mode:lr-tb;fill:#000000;fill-opacity:1;fill-rule:nonzero;stroke:none"
             id="text2688"><tspan
               x="0 10.589574 19.551111 32.590073 36.6675 45.629036 53.78389 62.745426 67.629539 71.706963 75.784386"
               y="0"
               sodipodi:role="line"
               id="tspan2686">Dominant ID</tspan></text></g></g><g
         id="g2690"
         transform="matrix(6,0,0,6,440.89471,2070.0333)"><path
           d="m 0,-3.6666667 c 2.0250441,0 3.6666667,1.6416226 3.6666667,3.6666667 V 0 C 3.6666667,2.0250441 2.0250441,3.6666667 0,3.6666667 -2.0250441,3.6666667 -3.6666667,2.0250441 -3.6666667,0 c 0,-2.0250441 1.6416226,-3.6666667 3.6666667,-3.6666667 z m 0,-0.6666666 c -2.3932339,0 -4.3333333,1.9400994 -4.3333333,4.3333333 0,2.3932339 1.9400994,4.3333333 4.3333333,4.3333333 C 2.3932339,4.3333333 4.3333333,2.3932339 4.3333333,0 V 0 C 4.3333333,-2.3932339 2.3932339,-4.3333333 0,-4.3333333 Z"
           style="fill:#0000ff;fill-opacity:1;fill-rule:nonzero;stroke:none"
           id="path2692" /></g><g
         id="g2694"
         transform="matrix(6,0,0,6,440.89471,1041.0333)"><path
           d="m 0,-3.6666667 c 2.0250441,0 3.6666667,1.6416226 3.6666667,3.6666667 V 0 C 3.6666667,2.0250441 2.0250441,3.6666667 0,3.6666667 -2.0250441,3.6666667 -3.6666667,2.0250441 -3.6666667,0 c 0,-2.0250441 1.6416226,-3.6666667 3.6666667,-3.6666667 z m 0,-0.6666666 c -2.3932339,0 -4.3333333,1.9400994 -4.3333333,4.3333333 0,2.3932339 1.9400994,4.3333333 4.3333333,4.3333333 C 2.3932339,4.3333333 4.3333333,2.3932339 4.3333333,0 V 0 C 4.3333333,-2.3932339 2.3932339,-4.3333333 0,-4.3333333 Z"
           style="fill:#0000ff;fill-opacity:1;fill-rule:nonzero;stroke:none"
           id="path2696" /></g><g
         id="g2698"
         transform="matrix(6,0,0,6,440.89471,1909.9667)"><path
           d="m 0,-3.6666667 c 2.0250441,0 3.6666667,1.6416226 3.6666667,3.6666667 V 0 C 3.6666667,2.0250441 2.0250441,3.6666667 0,3.6666667 -2.0250441,3.6666667 -3.6666667,2.0250441 -3.6666667,0 c 0,-2.0250441 1.6416226,-3.6666667 3.6666667,-3.6666667 z m 0,-0.6666666 c -2.3932339,0 -4.3333333,1.9400994 -4.3333333,4.3333333 0,2.3932339 1.9400994,4.3333333 4.3333333,4.3333333 C 2.3932339,4.3333333 4.3333333,2.3932339 4.3333333,0 V 0 C 4.3333333,-2.3932339 2.3932339,-4.3333333 0,-4.3333333 Z"
           style="fill:#0000ff;fill-opacity:1;fill-rule:nonzero;stroke:none"
           id="path2700" /></g><g
         id="g2702"
         transform="matrix(6,0,0,6,440.89471,217.83331)"><path
           d="m 0,-3.6666667 c 2.0250441,0 3.6666667,1.6416226 3.6666667,3.6666667 V 0 C 3.6666667,2.0250441 2.0250441,3.6666667 0,3.6666667 -2.0250441,3.6666667 -3.6666667,2.0250441 -3.6666667,0 c 0,-2.0250441 1.6416226,-3.6666667 3.6666667,-3.6666667 z m 0,-0.6666666 c -2.3932339,0 -4.3333333,1.9400994 -4.3333333,4.3333333 0,2.3932339 1.9400994,4.3333333 4.3333333,4.3333333 C 2.3932339,4.3333333 4.3333333,2.3932339 4.3333333,0 V 0 C 4.3333333,-2.3932339 2.3932339,-4.3333333 0,-4.3333333 Z"
           style="fill:#0000ff;fill-opacity:1;fill-rule:nonzero;stroke:none"
           id="path2704" /></g><g
         id="g2706"
         transform="matrix(6,0,0,6,440.89471,903.83327)"><path
           d="m 0,-3.6666667 c 2.0250441,0 3.6666667,1.6416226 3.6666667,3.6666667 V 0 C 3.6666667,2.0250441 2.0250441,3.6666667 0,3.6666667 -2.0250441,3.6666667 -3.6666667,2.0250441 -3.6666667,0 c 0,-2.0250441 1.6416226,-3.6666667 3.6666667,-3.6666667 z m 0,-0.6666666 c -2.3932339,0 -4.3333333,1.9400994 -4.3333333,4.3333333 0,2.3932339 1.9400994,4.3333333 4.3333333,4.3333333 C 2.3932339,4.3333333 4.3333333,2.3932339 4.3333333,0 V 0 C 4.3333333,-2.3932339 2.3932339,-4.3333333 0,-4.3333333 Z"
           style="fill:#0000ff;fill-opacity:1;fill-rule:nonzero;stroke:none"
           id="path2708" /></g><g
         id="g2710"
         transform="matrix(6,0,0,6,440.89471,629.4333)"><path
           d="m 0,-3.6666667 c 2.0250441,0 3.6666667,1.6416226 3.6666667,3.6666667 V 0 C 3.6666667,2.0250441 2.0250441,3.6666667 0,3.6666667 -2.0250441,3.6666667 -3.6666667,2.0250441 -3.6666667,0 c 0,-2.0250441 1.6416226,-3.6666667 3.6666667,-3.6666667 z m 0,-0.6666666 c -2.3932339,0 -4.3333333,1.9400994 -4.3333333,4.3333333 0,2.3932339 1.9400994,4.3333333 4.3333333,4.3333333 C 2.3932339,4.3333333 4.3333333,2.3932339 4.3333333,0 V 0 C 4.3333333,-2.3932339 2.3932339,-4.3333333 0,-4.3333333 Z"
           style="fill:#0000ff;fill-opacity:1;fill-rule:nonzero;stroke:none"
           id="path2712" /></g><g
         id="g2714"
         transform="matrix(6,0,0,6,440.89471,606.56663)"><path
           d="m 0,-3.6666667 c 2.0250441,0 3.6666667,1.6416226 3.6666667,3.6666667 V 0 C 3.6666667,2.0250441 2.0250441,3.6666667 0,3.6666667 -2.0250441,3.6666667 -3.6666667,2.0250441 -3.6666667,0 c 0,-2.0250441 1.6416226,-3.6666667 3.6666667,-3.6666667 z m 0,-0.6666666 c -2.3932339,0 -4.3333333,1.9400994 -4.3333333,4.3333333 0,2.3932339 1.9400994,4.3333333 4.3333333,4.3333333 C 2.3932339,4.3333333 4.3333333,2.3932339 4.3333333,0 V 0 C 4.3333333,-2.3932339 2.3932339,-4.3333333 0,-4.3333333 Z"
           style="fill:#0000ff;fill-opacity:1;fill-rule:nonzero;stroke:none"
           id="path2716" /></g><g
         id="g2718"
         transform="matrix(6,0,0,6,440.89471,606.56663)"><path
           d="m 0,-3.6666667 c 2.0250441,0 3.6666667,1.6416226 3.6666667,3.6666667 V 0 C 3.6666667,2.0250441 2.0250441,3.6666667 0,3.6666667 -2.0250441,3.6666667 -3.6666667,2.0250441 -3.6666667,0 c 0,-2.0250441 1.6416226,-3.6666667 3.6666667,-3.6666667 z m 0,-0.6666666 c -2.3932339,0 -4.3333333,1.9400994 -4.3333333,4.3333333 0,2.3932339 1.9400994,4.3333333 4.3333333,4.3333333 C 2.3932339,4.3333333 4.3333333,2.3932339 4.3333333,0 V 0 C 4.3333333,-2.3932339 2.3932339,-4.3333333 0,-4.3333333 Z"
           style="fill:#0000ff;fill-opacity:1;fill-rule:nonzero;stroke:none"
           id="path2720" /></g><g
         id="g2722"
         transform="matrix(6,0,0,6,440.89471,1887.0999)"><path
           d="m 0,-3.6666667 c 2.0250441,0 3.6666667,1.6416226 3.6666667,3.6666667 V 0 C 3.6666667,2.0250441 2.0250441,3.6666667 0,3.6666667 -2.0250441,3.6666667 -3.6666667,2.0250441 -3.6666667,0 c 0,-2.0250441 1.6416226,-3.6666667 3.6666667,-3.6666667 z m 0,-0.6666666 c -2.3932339,0 -4.3333333,1.9400994 -4.3333333,4.3333333 0,2.3932339 1.9400994,4.3333333 4.3333333,4.3333333 C 2.3932339,4.3333333 4.3333333,2.3932339 4.3333333,0 V 0 C 4.3333333,-2.3932339 2.3932339,-4.3333333 0,-4.3333333 Z"
           style="fill:#0000ff;fill-opacity:1;fill-rule:nonzero;stroke:none"
           id="path2724" /></g><g
         id="g2726"
         transform="matrix(6,0,0,6,440.89471,606.56663)"><path
           d="m 0,-3.6666667 c 2.0250441,0 3.6666667,1.6416226 3.6666667,3.6666667 V 0 C 3.6666667,2.0250441 2.0250441,3.6666667 0,3.6666667 -2.0250441,3.6666667 -3.6666667,2.0250441 -3.6666667,0 c 0,-2.0250441 1.6416226,-3.6666667 3.6666667,-3.6666667 z m 0,-0.6666666 c -2.3932339,0 -4.3333333,1.9400994 -4.3333333,4.3333333 0,2.3932339 1.9400994,4.3333333 4.3333333,4.3333333 C 2.3932339,4.3333333 4.3333333,2.3932339 4.3333333,0 V 0 C 4.3333333,-2.3932339 2.3932339,-4.3333333 0,-4.3333333 Z"
           style="fill:#0000ff;fill-opacity:1;fill-rule:nonzero;stroke:none"
           id="path2728" /></g><g
         id="g2730"
         transform="matrix(6,0,0,6,1583,1772.7667)"><path
           d="m 0,-3.6666667 c 2.0250441,0 3.6666667,1.6416226 3.6666667,3.6666667 V 0 C 3.6666667,2.0250441 2.0250441,3.6666667 0,3.6666667 -2.0250441,3.6666667 -3.6666667,2.0250441 -3.6666667,0 c 0,-2.0250441 1.6416226,-3.6666667 3.6666667,-3.6666667 z m 0,-0.6666666 c -2.3932339,0 -4.3333333,1.9400994 -4.3333333,4.3333333 0,2.3932339 1.9400994,4.3333333 4.3333333,4.3333333 C 2.3932339,4.3333333 4.3333333,2.3932339 4.3333333,0 V 0 C 4.3333333,-2.3932339 2.3932339,-4.3333333 0,-4.3333333 Z"
           style="fill:#000000;fill-opacity:1;fill-rule:nonzero;stroke:none"
           id="path2732" /></g><g
         id="g2734"
         transform="matrix(6,0,0,6,1583,1155.3666)"><path
           d="m 0,-3.6666667 c 2.0250441,0 3.6666667,1.6416226 3.6666667,3.6666667 V 0 C 3.6666667,2.0250441 2.0250441,3.6666667 0,3.6666667 -2.0250441,3.6666667 -3.6666667,2.0250441 -3.6666667,0 c 0,-2.0250441 1.6416226,-3.6666667 3.6666667,-3.6666667 z m 0,-0.6666666 c -2.3932339,0 -4.3333333,1.9400994 -4.3333333,4.3333333 0,2.3932339 1.9400994,4.3333333 4.3333333,4.3333333 C 2.3932339,4.3333333 4.3333333,2.3932339 4.3333333,0 V 0 C 4.3333333,-2.3932339 2.3932339,-4.3333333 0,-4.3333333 Z"
           style="fill:#000000;fill-opacity:1;fill-rule:nonzero;stroke:none"
           id="path2736" /></g><g
         id="g2738"
         transform="matrix(6,0,0,6,1583,1155.3666)"><path
           d="m 0,-3.6666667 c 2.0250441,0 3.6666667,1.6416226 3.6666667,3.6666667 V 0 C 3.6666667,2.0250441 2.0250441,3.6666667 0,3.6666667 -2.0250441,3.6666667 -3.6666667,2.0250441 -3.6666667,0 c 0,-2.0250441 1.6416226,-3.6666667 3.6666667,-3.6666667 z m 0,-0.6666666 c -2.3932339,0 -4.3333333,1.9400994 -4.3333333,4.3333333 0,2.3932339 1.9400994,4.3333333 4.3333333,4.3333333 C 2.3932339,4.3333333 4.3333333,2.3932339 4.3333333,0 V 0 C 4.3333333,-2.3932339 2.3932339,-4.3333333 0,-4.3333333 Z"
           style="fill:#000000;fill-opacity:1;fill-rule:nonzero;stroke:none"
           id="path2740" /></g><g
         id="g2742"
         transform="matrix(6,0,0,6,1583,1155.3666)"><path
           d="m 0,-3.6666667 c 2.0250441,0 3.6666667,1.6416226 3.6666667,3.6666667 V 0 C 3.6666667,2.0250441 2.0250441,3.6666667 0,3.6666667 -2.0250441,3.6666667 -3.6666667,2.0250441 -3.6666667,0 c 0,-2.0250441 1.6416226,-3.6666667 3.6666667,-3.6666667 z m 0,-0.6666666 c -2.3932339,0 -4.3333333,1.9400994 -4.3333333,4.3333333 0,2.3932339 1.9400994,4.3333333 4.3333333,4.3333333 C 2.3932339,4.3333333 4.3333333,2.3932339 4.3333333,0 V 0 C 4.3333333,-2.3932339 2.3932339,-4.3333333 0,-4.3333333 Z"
           style="fill:#000000;fill-opacity:1;fill-rule:nonzero;stroke:none"
           id="path2744" /></g><g
         id="g2746"
         transform="matrix(6,0,0,6,1583,1749.8999)"><path
           d="m 0,-3.6666667 c 2.0250441,0 3.6666667,1.6416226 3.6666667,3.6666667 V 0 C 3.6666667,2.0250441 2.0250441,3.6666667 0,3.6666667 -2.0250441,3.6666667 -3.6666667,2.0250441 -3.6666667,0 c 0,-2.0250441 1.6416226,-3.6666667 3.6666667,-3.6666667 z m 0,-0.6666666 c -2.3932339,0 -4.3333333,1.9400994 -4.3333333,4.3333333 0,2.3932339 1.9400994,4.3333333 4.3333333,4.3333333 C 2.3932339,4.3333333 4.3333333,2.3932339 4.3333333,0 V 0 C 4.3333333,-2.3932339 2.3932339,-4.3333333 0,-4.3333333 Z"
           style="fill:#000000;fill-opacity:1;fill-rule:nonzero;stroke:none"
           id="path2748" /></g><g
         id="g2750"
         transform="matrix(6,0,0,6,1583,1155.3666)"><path
           d="m 0,-3.6666667 c 2.0250441,0 3.6666667,1.6416226 3.6666667,3.6666667 V 0 C 3.6666667,2.0250441 2.0250441,3.6666667 0,3.6666667 -2.0250441,3.6666667 -3.6666667,2.0250441 -3.6666667,0 c 0,-2.0250441 1.6416226,-3.6666667 3.6666667,-3.6666667 z m 0,-0.6666666 c -2.3932339,0 -4.3333333,1.9400994 -4.3333333,4.3333333 0,2.3932339 1.9400994,4.3333333 4.3333333,4.3333333 C 2.3932339,4.3333333 4.3333333,2.3932339 4.3333333,0 V 0 C 4.3333333,-2.3932339 2.3932339,-4.3333333 0,-4.3333333 Z"
           style="fill:#000000;fill-opacity:1;fill-rule:nonzero;stroke:none"
           id="path2752" /></g><g
         id="g2754"
         transform="matrix(6,0,0,6,1583,1086.7666)"><path
           d="m 0,-3.6666667 c 2.0250441,0 3.6666667,1.6416226 3.6666667,3.6666667 V 0 C 3.6666667,2.0250441 2.0250441,3.6666667 0,3.6666667 -2.0250441,3.6666667 -3.6666667,2.0250441 -3.6666667,0 c 0,-2.0250441 1.6416226,-3.6666667 3.6666667,-3.6666667 z m 0,-0.6666666 c -2.3932339,0 -4.3333333,1.9400994 -4.3333333,4.3333333 0,2.3932339 1.9400994,4.3333333 4.3333333,4.3333333 C 2.3932339,4.3333333 4.3333333,2.3932339 4.3333333,0 V 0 C 4.3333333,-2.3932339 2.3932339,-4.3333333 0,-4.3333333 Z"
           style="fill:#000000;fill-opacity:1;fill-rule:nonzero;stroke:none"
           id="path2756" /></g><g
         id="g2758"
         transform="matrix(6,0,0,6,1583,1155.3666)"><path
           d="m 0,-3.6666667 c 2.0250441,0 3.6666667,1.6416226 3.6666667,3.6666667 V 0 C 3.6666667,2.0250441 2.0250441,3.6666667 0,3.6666667 -2.0250441,3.6666667 -3.6666667,2.0250441 -3.6666667,0 c 0,-2.0250441 1.6416226,-3.6666667 3.6666667,-3.6666667 z m 0,-0.6666666 c -2.3932339,0 -4.3333333,1.9400994 -4.3333333,4.3333333 0,2.3932339 1.9400994,4.3333333 4.3333333,4.3333333 C 2.3932339,4.3333333 4.3333333,2.3932339 4.3333333,0 V 0 C 4.3333333,-2.3932339 2.3932339,-4.3333333 0,-4.3333333 Z"
           style="fill:#000000;fill-opacity:1;fill-rule:nonzero;stroke:none"
           id="path2760" /></g><g
         id="g2762"
         transform="matrix(6,0,0,6,1583,1269.7)"><path
           d="m 0,-3.6666667 c 2.0250441,0 3.6666667,1.6416226 3.6666667,3.6666667 V 0 C 3.6666667,2.0250441 2.0250441,3.6666667 0,3.6666667 -2.0250441,3.6666667 -3.6666667,2.0250441 -3.6666667,0 c 0,-2.0250441 1.6416226,-3.6666667 3.6666667,-3.6666667 z m 0,-0.6666666 c -2.3932339,0 -4.3333333,1.9400994 -4.3333333,4.3333333 0,2.3932339 1.9400994,4.3333333 4.3333333,4.3333333 C 2.3932339,4.3333333 4.3333333,2.3932339 4.3333333,0 V 0 C 4.3333333,-2.3932339 2.3932339,-4.3333333 0,-4.3333333 Z"
           style="fill:#000000;fill-opacity:1;fill-rule:nonzero;stroke:none"
           id="path2764" /></g><g
         id="g2766"
         transform="matrix(6,0,0,6,1583,1269.7)"><path
           d="m 0,-3.6666667 c 2.0250441,0 3.6666667,1.6416226 3.6666667,3.6666667 V 0 C 3.6666667,2.0250441 2.0250441,3.6666667 0,3.6666667 -2.0250441,3.6666667 -3.6666667,2.0250441 -3.6666667,0 c 0,-2.0250441 1.6416226,-3.6666667 3.6666667,-3.6666667 z m 0,-0.6666666 c -2.3932339,0 -4.3333333,1.9400994 -4.3333333,4.3333333 0,2.3932339 1.9400994,4.3333333 4.3333333,4.3333333 C 2.3932339,4.3333333 4.3333333,2.3932339 4.3333333,0 V 0 C 4.3333333,-2.3932339 2.3932339,-4.3333333 0,-4.3333333 Z"
           style="fill:#000000;fill-opacity:1;fill-rule:nonzero;stroke:none"
           id="path2768" /></g><g
         id="g2770"
         transform="matrix(6,0,0,6,2725.1053,1384.0333)"><path
           d="m 0,-3.6666667 c 2.0250441,0 3.6666667,1.6416226 3.6666667,3.6666667 V 0 C 3.6666667,2.0250441 2.0250441,3.6666667 0,3.6666667 -2.0250441,3.6666667 -3.6666667,2.0250441 -3.6666667,0 c 0,-2.0250441 1.6416226,-3.6666667 3.6666667,-3.6666667 z m 0,-0.6666666 c -2.3932339,0 -4.3333333,1.9400994 -4.3333333,4.3333333 0,2.3932339 1.9400994,4.3333333 4.3333333,4.3333333 C 2.3932339,4.3333333 4.3333333,2.3932339 4.3333333,0 V 0 C 4.3333333,-2.3932339 2.3932339,-4.3333333 0,-4.3333333 Z"
           style="fill:#ff0000;fill-opacity:1;fill-rule:nonzero;stroke:none"
           id="path2772" /></g><g
         id="g2774"
         transform="matrix(6,0,0,6,2725.1053,1384.0333)"><path
           d="m 0,-3.6666667 c 2.0250441,0 3.6666667,1.6416226 3.6666667,3.6666667 V 0 C 3.6666667,2.0250441 2.0250441,3.6666667 0,3.6666667 -2.0250441,3.6666667 -3.6666667,2.0250441 -3.6666667,0 c 0,-2.0250441 1.6416226,-3.6666667 3.6666667,-3.6666667 z m 0,-0.6666666 c -2.3932339,0 -4.3333333,1.9400994 -4.3333333,4.3333333 0,2.3932339 1.9400994,4.3333333 4.3333333,4.3333333 C 2.3932339,4.3333333 4.3333333,2.3932339 4.3333333,0 V 0 C 4.3333333,-2.3932339 2.3932339,-4.3333333 0,-4.3333333 Z"
           style="fill:#ff0000;fill-opacity:1;fill-rule:nonzero;stroke:none"
           id="path2776" /></g><g
         id="g2778"
         transform="matrix(6,0,0,6,2725.1053,903.83327)"><path
           d="m 0,-3.6666667 c 2.0250441,0 3.6666667,1.6416226 3.6666667,3.6666667 V 0 C 3.6666667,2.0250441 2.0250441,3.6666667 0,3.6666667 -2.0250441,3.6666667 -3.6666667,2.0250441 -3.6666667,0 c 0,-2.0250441 1.6416226,-3.6666667 3.6666667,-3.6666667 z m 0,-0.6666666 c -2.3932339,0 -4.3333333,1.9400994 -4.3333333,4.3333333 0,2.3932339 1.9400994,4.3333333 4.3333333,4.3333333 C 2.3932339,4.3333333 4.3333333,2.3932339 4.3333333,0 V 0 C 4.3333333,-2.3932339 2.3932339,-4.3333333 0,-4.3333333 Z"
           style="fill:#ff0000;fill-opacity:1;fill-rule:nonzero;stroke:none"
           id="path2780" /></g><g
         id="g2782"
         transform="matrix(6,0,0,6,2725.1053,1384.0333)"><path
           d="m 0,-3.6666667 c 2.0250441,0 3.6666667,1.6416226 3.6666667,3.6666667 V 0 C 3.6666667,2.0250441 2.0250441,3.6666667 0,3.6666667 -2.0250441,3.6666667 -3.6666667,2.0250441 -3.6666667,0 c 0,-2.0250441 1.6416226,-3.6666667 3.6666667,-3.6666667 z m 0,-0.6666666 c -2.3932339,0 -4.3333333,1.9400994 -4.3333333,4.3333333 0,2.3932339 1.9400994,4.3333333 4.3333333,4.3333333 C 2.3932339,4.3333333 4.3333333,2.3932339 4.3333333,0 V 0 C 4.3333333,-2.3932339 2.3932339,-4.3333333 0,-4.3333333 Z"
           style="fill:#ff0000;fill-opacity:1;fill-rule:nonzero;stroke:none"
           id="path2784" /></g><g
         id="g2786"
         transform="matrix(6,0,0,6,2725.1053,1384.0333)"><path
           d="m 0,-3.6666667 c 2.0250441,0 3.6666667,1.6416226 3.6666667,3.6666667 V 0 C 3.6666667,2.0250441 2.0250441,3.6666667 0,3.6666667 -2.0250441,3.6666667 -3.6666667,2.0250441 -3.6666667,0 c 0,-2.0250441 1.6416226,-3.6666667 3.6666667,-3.6666667 z m 0,-0.6666666 c -2.3932339,0 -4.3333333,1.9400994 -4.3333333,4.3333333 0,2.3932339 1.9400994,4.3333333 4.3333333,4.3333333 C 2.3932339,4.3333333 4.3333333,2.3932339 4.3333333,0 V 0 C 4.3333333,-2.3932339 2.3932339,-4.3333333 0,-4.3333333 Z"
           style="fill:#ff0000;fill-opacity:1;fill-rule:nonzero;stroke:none"
           id="path2788" /></g><g
         id="g2790"
         transform="matrix(6,0,0,6,2725.1053,1384.0333)"><path
           d="m 0,-3.6666667 c 2.0250441,0 3.6666667,1.6416226 3.6666667,3.6666667 V 0 C 3.6666667,2.0250441 2.0250441,3.6666667 0,3.6666667 -2.0250441,3.6666667 -3.6666667,2.0250441 -3.6666667,0 c 0,-2.0250441 1.6416226,-3.6666667 3.6666667,-3.6666667 z m 0,-0.6666666 c -2.3932339,0 -4.3333333,1.9400994 -4.3333333,4.3333333 0,2.3932339 1.9400994,4.3333333 4.3333333,4.3333333 C 2.3932339,4.3333333 4.3333333,2.3932339 4.3333333,0 V 0 C 4.3333333,-2.3932339 2.3932339,-4.3333333 0,-4.3333333 Z"
           style="fill:#ff0000;fill-opacity:1;fill-rule:nonzero;stroke:none"
           id="path2792" /></g><g
         id="g2794"
         transform="matrix(6,0,0,6,2725.1053,1246.8333)"><path
           d="m 0,-3.6666667 c 2.0250441,0 3.6666667,1.6416226 3.6666667,3.6666667 V 0 C 3.6666667,2.0250441 2.0250441,3.6666667 0,3.6666667 -2.0250441,3.6666667 -3.6666667,2.0250441 -3.6666667,0 c 0,-2.0250441 1.6416226,-3.6666667 3.6666667,-3.6666667 z m 0,-0.6666666 c -2.3932339,0 -4.3333333,1.9400994 -4.3333333,4.3333333 0,2.3932339 1.9400994,4.3333333 4.3333333,4.3333333 C 2.3932339,4.3333333 4.3333333,2.3932339 4.3333333,0 V 0 C 4.3333333,-2.3932339 2.3932339,-4.3333333 0,-4.3333333 Z"
           style="fill:#ff0000;fill-opacity:1;fill-rule:nonzero;stroke:none"
           id="path2796" /></g><g
         id="g2798"
         transform="matrix(6,0,0,6,2725.1053,1384.0333)"><path
           d="m 0,-3.6666667 c 2.0250441,0 3.6666667,1.6416226 3.6666667,3.6666667 V 0 C 3.6666667,2.0250441 2.0250441,3.6666667 0,3.6666667 -2.0250441,3.6666667 -3.6666667,2.0250441 -3.6666667,0 c 0,-2.0250441 1.6416226,-3.6666667 3.6666667,-3.6666667 z m 0,-0.6666666 c -2.3932339,0 -4.3333333,1.9400994 -4.3333333,4.3333333 0,2.3932339 1.9400994,4.3333333 4.3333333,4.3333333 C 2.3932339,4.3333333 4.3333333,2.3932339 4.3333333,0 V 0 C 4.3333333,-2.3932339 2.3932339,-4.3333333 0,-4.3333333 Z"
           style="fill:#ff0000;fill-opacity:1;fill-rule:nonzero;stroke:none"
           id="path2800" /></g><g
         id="g2802"
         transform="matrix(6,0,0,6,2725.1053,1521.2332)"><path
           d="m 0,-3.6666667 c 2.0250441,0 3.6666667,1.6416226 3.6666667,3.6666667 V 0 C 3.6666667,2.0250441 2.0250441,3.6666667 0,3.6666667 -2.0250441,3.6666667 -3.6666667,2.0250441 -3.6666667,0 c 0,-2.0250441 1.6416226,-3.6666667 3.6666667,-3.6666667 z m 0,-0.6666666 c -2.3932339,0 -4.3333333,1.9400994 -4.3333333,4.3333333 0,2.3932339 1.9400994,4.3333333 4.3333333,4.3333333 C 2.3932339,4.3333333 4.3333333,2.3932339 4.3333333,0 V 0 C 4.3333333,-2.3932339 2.3932339,-4.3333333 0,-4.3333333 Z"
           style="fill:#ff0000;fill-opacity:1;fill-rule:nonzero;stroke:none"
           id="path2804" /></g><g
         id="g2806"
         transform="matrix(6,0,0,6,2725.1053,1384.0333)"><path
           d="m 0,-3.6666667 c 2.0250441,0 3.6666667,1.6416226 3.6666667,3.6666667 V 0 C 3.6666667,2.0250441 2.0250441,3.6666667 0,3.6666667 -2.0250441,3.6666667 -3.6666667,2.0250441 -3.6666667,0 c 0,-2.0250441 1.6416226,-3.6666667 3.6666667,-3.6666667 z m 0,-0.6666666 c -2.3932339,0 -4.3333333,1.9400994 -4.3333333,4.3333333 0,2.3932339 1.9400994,4.3333333 4.3333333,4.3333333 C 2.3932339,4.3333333 4.3333333,2.3932339 4.3333333,0 V 0 C 4.3333333,-2.3932339 2.3932339,-4.3333333 0,-4.3333333 Z"
           style="fill:#ff0000;fill-opacity:1;fill-rule:nonzero;stroke:none"
           id="path2808" /></g></g></g></svg>
