<?xml version="1.0" encoding="UTF-8" standalone="no"?>
<svg
   xmlns:dc="http://purl.org/dc/elements/1.1/"
   xmlns:cc="http://creativecommons.org/ns#"
   xmlns:rdf="http://www.w3.org/1999/02/22-rdf-syntax-ns#"
   xmlns:svg="http://www.w3.org/2000/svg"
   xmlns="http://www.w3.org/2000/svg"
   xmlns:sodipodi="http://sodipodi.sourceforge.net/DTD/sodipodi-0.dtd"
   xmlns:inkscape="http://www.inkscape.org/namespaces/inkscape"
   version="1.1"
   id="svg3174"
   xml:space="preserve"
   width="482.66666"
   height="400"
   viewBox="0 0 482.66666 400"
   sodipodi:docname="BotMidAcImMa18_05mID.svg"
   inkscape:version="1.0.1 (3bc2e813f5, 2020-09-07)"><metadata
     id="metadata3180"><rdf:RDF><cc:Work
         rdf:about=""><dc:format>image/svg+xml</dc:format><dc:type
           rdf:resource="http://purl.org/dc/dcmitype/StillImage" /><dc:title></dc:title></cc:Work></rdf:RDF></metadata><defs
     id="defs3178" /><sodipodi:namedview
     pagecolor="#ffffff"
     bordercolor="#666666"
     borderopacity="1"
     objecttolerance="10"
     gridtolerance="10"
     guidetolerance="10"
     inkscape:pageopacity="0"
     inkscape:pageshadow="2"
     inkscape:window-width="813"
     inkscape:window-height="480"
     id="namedview3176"
     showgrid="false"
     inkscape:zoom="1.435"
     inkscape:cx="241.33333"
     inkscape:cy="200"
     inkscape:window-x="0"
     inkscape:window-y="0"
     inkscape:window-maximized="0"
     inkscape:current-layer="g3182" /><g
     id="g3182"
     inkscape:groupmode="layer"
     inkscape:label="BotMidAcImMa18_05mID"
     transform="matrix(1.3333333,0,0,-1.3333333,0,400)"><g
       id="g3184"
       transform="matrix(0.125,0,0,-0.125,0,300)"><g
         id="g3186"
         transform="matrix(6,0,0,6,-157.00003,-82.499939)"><path
           d="M 0,0 H 560 V 420 H 0 Z"
           style="fill:#ffffff;fill-opacity:1;fill-rule:nonzero;stroke:none"
           id="path3188" /></g><g
         id="g3190"
         transform="matrix(6,0,0,6,-157.00003,-82.499939)"><path
           d="M 73,374 H 507 V 31 H 73 Z"
           style="fill:#ffffff;fill-opacity:1;fill-rule:nonzero;stroke:none"
           id="path3192" /></g><g
         id="g3194"
         transform="matrix(6,0,0,6,-157.00003,-82.499939)"><path
           d="M 99.649124,374 V 31"
           style="fill:none;stroke:#262626;stroke-width:0.666667;stroke-linecap:butt;stroke-linejoin:round;stroke-miterlimit:10;stroke-dasharray:none;stroke-opacity:0.14902"
           id="path3196" /></g><g
         id="g3198"
         transform="matrix(6,0,0,6,-157.00003,-82.499939)"><path
           d="M 290,374 V 31"
           style="fill:none;stroke:#262626;stroke-width:0.666667;stroke-linecap:butt;stroke-linejoin:round;stroke-miterlimit:10;stroke-dasharray:none;stroke-opacity:0.14902"
           id="path3200" /></g><g
         id="g3202"
         transform="matrix(6,0,0,6,-157.00003,-82.499939)"><path
           d="M 480.35089,374 V 31"
           style="fill:none;stroke:#262626;stroke-width:0.666667;stroke-linecap:butt;stroke-linejoin:round;stroke-miterlimit:10;stroke-dasharray:none;stroke-opacity:0.14902"
           id="path3204" /></g><g
         id="g3206"
         transform="matrix(6,0,0,6,-157.00003,-82.499939)"><path
           d="M 507.00003,374 H 73"
           style="fill:none;stroke:#262626;stroke-width:0.666667;stroke-linecap:butt;stroke-linejoin:round;stroke-miterlimit:10;stroke-dasharray:none;stroke-opacity:0.14902"
           id="path3208" /></g><g
         id="g3210"
         transform="matrix(6,0,0,6,-157.00003,-82.499939)"><path
           d="M 507.00003,342.81818 H 73"
           style="fill:none;stroke:#262626;stroke-width:0.666667;stroke-linecap:butt;stroke-linejoin:round;stroke-miterlimit:10;stroke-dasharray:none;stroke-opacity:0.14902"
           id="path3212" /></g><g
         id="g3214"
         transform="matrix(6,0,0,6,-157.00003,-82.499939)"><path
           d="M 507.00003,311.63635 H 73"
           style="fill:none;stroke:#262626;stroke-width:0.666667;stroke-linecap:butt;stroke-linejoin:round;stroke-miterlimit:10;stroke-dasharray:none;stroke-opacity:0.14902"
           id="path3216" /></g><g
         id="g3218"
         transform="matrix(6,0,0,6,-157.00003,-82.499939)"><path
           d="M 507.00003,280.45456 H 73"
           style="fill:none;stroke:#262626;stroke-width:0.666667;stroke-linecap:butt;stroke-linejoin:round;stroke-miterlimit:10;stroke-dasharray:none;stroke-opacity:0.14902"
           id="path3220" /></g><g
         id="g3222"
         transform="matrix(6,0,0,6,-157.00003,-82.499939)"><path
           d="M 507.00003,249.27272 H 73"
           style="fill:none;stroke:#262626;stroke-width:0.666667;stroke-linecap:butt;stroke-linejoin:round;stroke-miterlimit:10;stroke-dasharray:none;stroke-opacity:0.14902"
           id="path3224" /></g><g
         id="g3226"
         transform="matrix(6,0,0,6,-157.00003,-82.499939)"><path
           d="M 507.00003,218.09091 H 73"
           style="fill:none;stroke:#262626;stroke-width:0.666667;stroke-linecap:butt;stroke-linejoin:round;stroke-miterlimit:10;stroke-dasharray:none;stroke-opacity:0.14902"
           id="path3228" /></g><g
         id="g3230"
         transform="matrix(6,0,0,6,-157.00003,-82.499939)"><path
           d="M 507.00003,186.90909 H 73"
           style="fill:none;stroke:#262626;stroke-width:0.666667;stroke-linecap:butt;stroke-linejoin:round;stroke-miterlimit:10;stroke-dasharray:none;stroke-opacity:0.14902"
           id="path3232" /></g><g
         id="g3234"
         transform="matrix(6,0,0,6,-157.00003,-82.499939)"><path
           d="M 507.00003,155.72728 H 73"
           style="fill:none;stroke:#262626;stroke-width:0.666667;stroke-linecap:butt;stroke-linejoin:round;stroke-miterlimit:10;stroke-dasharray:none;stroke-opacity:0.14902"
           id="path3236" /></g><g
         id="g3238"
         transform="matrix(6,0,0,6,-157.00003,-82.499939)"><path
           d="M 507.00003,124.54546 H 73"
           style="fill:none;stroke:#262626;stroke-width:0.666667;stroke-linecap:butt;stroke-linejoin:round;stroke-miterlimit:10;stroke-dasharray:none;stroke-opacity:0.14902"
           id="path3240" /></g><g
         id="g3242"
         transform="matrix(6,0,0,6,-157.00003,-82.499939)"><path
           d="M 507.00003,93.36364 H 73"
           style="fill:none;stroke:#262626;stroke-width:0.666667;stroke-linecap:butt;stroke-linejoin:round;stroke-miterlimit:10;stroke-dasharray:none;stroke-opacity:0.14902"
           id="path3244" /></g><g
         id="g3246"
         transform="matrix(6,0,0,6,-157.00003,-82.499939)"><path
           d="M 507.00003,62.18182 H 73"
           style="fill:none;stroke:#262626;stroke-width:0.666667;stroke-linecap:butt;stroke-linejoin:round;stroke-miterlimit:10;stroke-dasharray:none;stroke-opacity:0.14902"
           id="path3248" /></g><g
         id="g3250"
         transform="matrix(6,0,0,6,-157.00003,-82.499939)"><path
           d="M 507.00003,31 H 73"
           style="fill:none;stroke:#262626;stroke-width:0.666667;stroke-linecap:butt;stroke-linejoin:round;stroke-miterlimit:10;stroke-dasharray:none;stroke-opacity:0.14902"
           id="path3252" /></g><g
         id="g3254"
         transform="matrix(6,0,0,6,-157.00003,-82.499939)"><path
           d="M 73,374 H 507.00003"
           style="fill:none;stroke:#262626;stroke-width:0.666667;stroke-linecap:square;stroke-linejoin:round;stroke-miterlimit:10;stroke-dasharray:none;stroke-opacity:1"
           id="path3256" /></g><g
         id="g3258"
         transform="matrix(6,0,0,6,-157.00003,-82.499939)"><path
           d="m 99.649124,374 v -4.34"
           style="fill:none;stroke:#262626;stroke-width:0.666667;stroke-linecap:square;stroke-linejoin:round;stroke-miterlimit:10;stroke-dasharray:none;stroke-opacity:1"
           id="path3260" /></g><g
         id="g3262"
         transform="matrix(6,0,0,6,-157.00003,-82.499939)"><path
           d="m 290,374 v -4.34"
           style="fill:none;stroke:#262626;stroke-width:0.666667;stroke-linecap:square;stroke-linejoin:round;stroke-miterlimit:10;stroke-dasharray:none;stroke-opacity:1"
           id="path3264" /></g><g
         id="g3266"
         transform="matrix(6,0,0,6,-157.00003,-82.499939)"><path
           d="m 480.35089,374 v -4.34"
           style="fill:none;stroke:#262626;stroke-width:0.666667;stroke-linecap:square;stroke-linejoin:round;stroke-miterlimit:10;stroke-dasharray:none;stroke-opacity:1"
           id="path3268" /></g><g
         id="g3270"><g
           id="g3272"
           transform="matrix(6,0,0,6,440.89471,2193.4999)"><text
             transform="translate(-11,14)"
             style="font-variant:normal;font-weight:normal;font-size:13.333px;font-family:Helvetica;-inkscape-font-specification:Helvetica;writing-mode:lr-tb;fill:#262626;fill-opacity:1;fill-rule:nonzero;stroke:none"
             id="text3276"><tspan
               x="0 8.1464634 15.559611 18.519537"
               y="0"
               sodipodi:role="line"
               id="tspan3274">Full</tspan></text></g></g><g
         id="g3278"><g
           id="g3280"
           transform="matrix(6,0,0,6,1583,2193.4999)"><text
             transform="translate(-12,14)"
             style="font-variant:normal;font-weight:normal;font-size:13.333px;font-family:Helvetica;-inkscape-font-specification:Helvetica;writing-mode:lr-tb;fill:#262626;fill-opacity:1;fill-rule:nonzero;stroke:none"
             id="text3284"><tspan
               x="0 9.6264257 17.039574 19.9995"
               y="0"
               sodipodi:role="line"
               id="tspan3282">Half</tspan></text></g></g><g
         id="g3286"><g
           id="g3288"
           transform="matrix(6,0,0,6,2725.1053,2193.4999)"><text
             transform="translate(-16,14)"
             style="font-variant:normal;font-weight:normal;font-size:13.333px;font-family:Helvetica;-inkscape-font-specification:Helvetica;writing-mode:lr-tb;fill:#262626;fill-opacity:1;fill-rule:nonzero;stroke:none"
             id="text3292"><tspan
               x="0 8.8931112 19.9995 27.412647"
               y="0"
               sodipodi:role="line"
               id="tspan3290">Empt</tspan></text></g></g><g
         id="g3294"><g
           id="g3296"
           transform="matrix(6,0,0,6,1583.0013,2303.5)"><text
             transform="translate(-19,15)"
             style="font-variant:normal;font-weight:normal;font-size:14.667px;font-family:Helvetica;-inkscape-font-specification:Helvetica;writing-mode:lr-tb;fill:#262626;fill-opacity:1;fill-rule:nonzero;stroke:none"
             id="text3300"><tspan
               x="0 9.7828894 17.93774 22.015167 26.092592 29.348667"
               y="0"
               sodipodi:role="line"
               id="tspan3298">Bottle</tspan></text></g></g><g
         id="g3302"
         transform="matrix(6,0,0,6,-157.00003,-82.499939)"><path
           d="M 73,374 V 31"
           style="fill:none;stroke:#262626;stroke-width:0.666667;stroke-linecap:square;stroke-linejoin:round;stroke-miterlimit:10;stroke-dasharray:none;stroke-opacity:1"
           id="path3304" /></g><g
         id="g3306"
         transform="matrix(6,0,0,6,-157.00003,-82.499939)"><path
           d="m 73,374 h 4.340012"
           style="fill:none;stroke:#262626;stroke-width:0.666667;stroke-linecap:square;stroke-linejoin:round;stroke-miterlimit:10;stroke-dasharray:none;stroke-opacity:1"
           id="path3308" /></g><g
         id="g3310"
         transform="matrix(6,0,0,6,-157.00003,-82.499939)"><path
           d="m 73,342.81818 h 4.340012"
           style="fill:none;stroke:#262626;stroke-width:0.666667;stroke-linecap:square;stroke-linejoin:round;stroke-miterlimit:10;stroke-dasharray:none;stroke-opacity:1"
           id="path3312" /></g><g
         id="g3314"
         transform="matrix(6,0,0,6,-157.00003,-82.499939)"><path
           d="m 73,311.63635 h 4.340012"
           style="fill:none;stroke:#262626;stroke-width:0.666667;stroke-linecap:square;stroke-linejoin:round;stroke-miterlimit:10;stroke-dasharray:none;stroke-opacity:1"
           id="path3316" /></g><g
         id="g3318"
         transform="matrix(6,0,0,6,-157.00003,-82.499939)"><path
           d="m 73,280.45456 h 4.340012"
           style="fill:none;stroke:#262626;stroke-width:0.666667;stroke-linecap:square;stroke-linejoin:round;stroke-miterlimit:10;stroke-dasharray:none;stroke-opacity:1"
           id="path3320" /></g><g
         id="g3322"
         transform="matrix(6,0,0,6,-157.00003,-82.499939)"><path
           d="m 73,249.27272 h 4.340012"
           style="fill:none;stroke:#262626;stroke-width:0.666667;stroke-linecap:square;stroke-linejoin:round;stroke-miterlimit:10;stroke-dasharray:none;stroke-opacity:1"
           id="path3324" /></g><g
         id="g3326"
         transform="matrix(6,0,0,6,-157.00003,-82.499939)"><path
           d="m 73,218.09091 h 4.340012"
           style="fill:none;stroke:#262626;stroke-width:0.666667;stroke-linecap:square;stroke-linejoin:round;stroke-miterlimit:10;stroke-dasharray:none;stroke-opacity:1"
           id="path3328" /></g><g
         id="g3330"
         transform="matrix(6,0,0,6,-157.00003,-82.499939)"><path
           d="m 73,186.90909 h 4.340012"
           style="fill:none;stroke:#262626;stroke-width:0.666667;stroke-linecap:square;stroke-linejoin:round;stroke-miterlimit:10;stroke-dasharray:none;stroke-opacity:1"
           id="path3332" /></g><g
         id="g3334"
         transform="matrix(6,0,0,6,-157.00003,-82.499939)"><path
           d="m 73,155.72728 h 4.340012"
           style="fill:none;stroke:#262626;stroke-width:0.666667;stroke-linecap:square;stroke-linejoin:round;stroke-miterlimit:10;stroke-dasharray:none;stroke-opacity:1"
           id="path3336" /></g><g
         id="g3338"
         transform="matrix(6,0,0,6,-157.00003,-82.499939)"><path
           d="m 73,124.54546 h 4.340012"
           style="fill:none;stroke:#262626;stroke-width:0.666667;stroke-linecap:square;stroke-linejoin:round;stroke-miterlimit:10;stroke-dasharray:none;stroke-opacity:1"
           id="path3340" /></g><g
         id="g3342"
         transform="matrix(6,0,0,6,-157.00003,-82.499939)"><path
           d="m 73,93.36364 h 4.340012"
           style="fill:none;stroke:#262626;stroke-width:0.666667;stroke-linecap:square;stroke-linejoin:round;stroke-miterlimit:10;stroke-dasharray:none;stroke-opacity:1"
           id="path3344" /></g><g
         id="g3346"
         transform="matrix(6,0,0,6,-157.00003,-82.499939)"><path
           d="m 73,62.18182 h 4.340012"
           style="fill:none;stroke:#262626;stroke-width:0.666667;stroke-linecap:square;stroke-linejoin:round;stroke-miterlimit:10;stroke-dasharray:none;stroke-opacity:1"
           id="path3348" /></g><g
         id="g3350"
         transform="matrix(6,0,0,6,-157.00003,-82.499939)"><path
           d="m 73,31 h 4.340012"
           style="fill:none;stroke:#262626;stroke-width:0.666667;stroke-linecap:square;stroke-linejoin:round;stroke-miterlimit:10;stroke-dasharray:none;stroke-opacity:1"
           id="path3352" /></g><g
         id="g3354"><g
           id="g3356"
           transform="matrix(6,0,0,6,249,2161.5001)"><text
             transform="translate(-15,5.5)"
             style="font-variant:normal;font-weight:normal;font-size:13.333px;font-family:Helvetica;-inkscape-font-specification:Helvetica;writing-mode:lr-tb;fill:#262626;fill-opacity:1;fill-rule:nonzero;stroke:none"
             id="text3360"><tspan
               x="0 7.4131479"
               y="0"
               sodipodi:role="line"
               id="tspan3358">80</tspan></text></g></g><g
         id="g3362"><g
           id="g3364"
           transform="matrix(6,0,0,6,249,1974.4091)"><text
             transform="translate(-15,5.5)"
             style="font-variant:normal;font-weight:normal;font-size:13.333px;font-family:Helvetica;-inkscape-font-specification:Helvetica;writing-mode:lr-tb;fill:#262626;fill-opacity:1;fill-rule:nonzero;stroke:none"
             id="text3368"><tspan
               x="0 7.4131479"
               y="0"
               sodipodi:role="line"
               id="tspan3366">90</tspan></text></g></g><g
         id="g3370"><g
           id="g3372"
           transform="matrix(6,0,0,6,249,1787.3182)"><text
             transform="translate(-23,5.5)"
             style="font-variant:normal;font-weight:normal;font-size:13.333px;font-family:Helvetica;-inkscape-font-specification:Helvetica;writing-mode:lr-tb;fill:#262626;fill-opacity:1;fill-rule:nonzero;stroke:none"
             id="text3376"><tspan
               x="0 7.4131479 14.826296"
               y="0"
               sodipodi:role="line"
               id="tspan3374">100</tspan></text></g></g><g
         id="g3378"><g
           id="g3380"
           transform="matrix(6,0,0,6,249,1600.2274)"><text
             transform="translate(-23,5.5)"
             style="font-variant:normal;font-weight:normal;font-size:13.333px;font-family:Helvetica;-inkscape-font-specification:Helvetica;writing-mode:lr-tb;fill:#262626;fill-opacity:1;fill-rule:nonzero;stroke:none"
             id="text3384"><tspan
               x="0 7.4131479 14.826296"
               y="0"
               sodipodi:role="line"
               id="tspan3382">110</tspan></text></g></g><g
         id="g3386"><g
           id="g3388"
           transform="matrix(6,0,0,6,249,1413.1364)"><text
             transform="translate(-23,5.5)"
             style="font-variant:normal;font-weight:normal;font-size:13.333px;font-family:Helvetica;-inkscape-font-specification:Helvetica;writing-mode:lr-tb;fill:#262626;fill-opacity:1;fill-rule:nonzero;stroke:none"
             id="text3392"><tspan
               x="0 7.4131479 14.826296"
               y="0"
               sodipodi:role="line"
               id="tspan3390">120</tspan></text></g></g><g
         id="g3394"><g
           id="g3396"
           transform="matrix(6,0,0,6,249,1226.0455)"><text
             transform="translate(-23,5.5)"
             style="font-variant:normal;font-weight:normal;font-size:13.333px;font-family:Helvetica;-inkscape-font-specification:Helvetica;writing-mode:lr-tb;fill:#262626;fill-opacity:1;fill-rule:nonzero;stroke:none"
             id="text3400"><tspan
               x="0 7.4131479 14.826296"
               y="0"
               sodipodi:role="line"
               id="tspan3398">130</tspan></text></g></g><g
         id="g3402"><g
           id="g3404"
           transform="matrix(6,0,0,6,249,1038.9546)"><text
             transform="translate(-23,5.5)"
             style="font-variant:normal;font-weight:normal;font-size:13.333px;font-family:Helvetica;-inkscape-font-specification:Helvetica;writing-mode:lr-tb;fill:#262626;fill-opacity:1;fill-rule:nonzero;stroke:none"
             id="text3408"><tspan
               x="0 7.4131479 14.826296"
               y="0"
               sodipodi:role="line"
               id="tspan3406">140</tspan></text></g></g><g
         id="g3410"><g
           id="g3412"
           transform="matrix(6,0,0,6,249,851.86374)"><text
             transform="translate(-23,5.5)"
             style="font-variant:normal;font-weight:normal;font-size:13.333px;font-family:Helvetica;-inkscape-font-specification:Helvetica;writing-mode:lr-tb;fill:#262626;fill-opacity:1;fill-rule:nonzero;stroke:none"
             id="text3416"><tspan
               x="0 7.4131479 14.826296"
               y="0"
               sodipodi:role="line"
               id="tspan3414">150</tspan></text></g></g><g
         id="g3418"><g
           id="g3420"
           transform="matrix(6,0,0,6,249,664.7728)"><text
             transform="translate(-23,5.5)"
             style="font-variant:normal;font-weight:normal;font-size:13.333px;font-family:Helvetica;-inkscape-font-specification:Helvetica;writing-mode:lr-tb;fill:#262626;fill-opacity:1;fill-rule:nonzero;stroke:none"
             id="text3424"><tspan
               x="0 7.4131479 14.826296"
               y="0"
               sodipodi:role="line"
               id="tspan3422">160</tspan></text></g></g><g
         id="g3426"><g
           id="g3428"
           transform="matrix(6,0,0,6,249,477.6819)"><text
             transform="translate(-23,5.5)"
             style="font-variant:normal;font-weight:normal;font-size:13.333px;font-family:Helvetica;-inkscape-font-specification:Helvetica;writing-mode:lr-tb;fill:#262626;fill-opacity:1;fill-rule:nonzero;stroke:none"
             id="text3432"><tspan
               x="0 7.4131479 14.826296"
               y="0"
               sodipodi:role="line"
               id="tspan3430">170</tspan></text></g></g><g
         id="g3434"><g
           id="g3436"
           transform="matrix(6,0,0,6,249,290.59098)"><text
             transform="translate(-23,5.5)"
             style="font-variant:normal;font-weight:normal;font-size:13.333px;font-family:Helvetica;-inkscape-font-specification:Helvetica;writing-mode:lr-tb;fill:#262626;fill-opacity:1;fill-rule:nonzero;stroke:none"
             id="text3440"><tspan
               x="0 7.4131479 14.826296"
               y="0"
               sodipodi:role="line"
               id="tspan3438">180</tspan></text></g></g><g
         id="g3442"><g
           id="g3444"
           transform="matrix(6,0,0,6,249,103.50006)"><text
             transform="translate(-23,5.5)"
             style="font-variant:normal;font-weight:normal;font-size:13.333px;font-family:Helvetica;-inkscape-font-specification:Helvetica;writing-mode:lr-tb;fill:#262626;fill-opacity:1;fill-rule:nonzero;stroke:none"
             id="text3448"><tspan
               x="0 7.4131479 14.826296"
               y="0"
               sodipodi:role="line"
               id="tspan3446">190</tspan></text></g></g><g
         id="g3450"><g
           id="g3452"
           transform="matrix(-2.6e-7,-6,6,-2.6e-7,87,1132.4992)"><text
             transform="translate(-11,-4)"
             style="font-variant:normal;font-weight:normal;font-size:14.667px;font-family:Helvetica;-inkscape-font-specification:Helvetica;writing-mode:lr-tb;fill:#262626;fill-opacity:1;fill-rule:nonzero;stroke:none"
             id="text3456"><tspan
               x="0 4.077426 14.667"
               y="0"
               sodipodi:role="line"
               id="tspan3454">IDs</tspan></text></g></g><g
         id="g3458"><g
           id="g3460"
           transform="matrix(6,0,0,6,1583.0016,87.000004)"><text
             transform="translate(-64,-4)"
             style="font-variant:normal;font-weight:bold;font-size:14.667px;font-family:Helvetica;-inkscape-font-specification:Helvetica-Bold;writing-mode:lr-tb;fill:#000000;fill-opacity:1;fill-rule:nonzero;stroke:none"
             id="text3464"><tspan
               x="0 12.217611 20.372463 28.527315 37.488853 41.566277 52.155853 61.11739 74.156349 78.23378 87.195312 95.350166 104.31171 109.19582 113.27324 117.35067"
               y="0"
               sodipodi:role="line"
               id="tspan3462">Mean Dominant ID</tspan></text></g></g><g
         id="g3466"
         transform="matrix(6,0,0,6,440.89471,1375.7182)"><path
           d="m 0,-3.6666667 c 2.0250441,0 3.6666667,1.6416226 3.6666667,3.6666667 V 0 C 3.6666667,2.0250441 2.0250441,3.6666667 0,3.6666667 -2.0250441,3.6666667 -3.6666667,2.0250441 -3.6666667,0 c 0,-2.0250441 1.6416226,-3.6666667 3.6666667,-3.6666667 z m 0,-0.6666666 c -2.3932339,0 -4.3333333,1.9400994 -4.3333333,4.3333333 0,2.3932339 1.9400994,4.3333333 4.3333333,4.3333333 C 2.3932339,4.3333333 4.3333333,2.3932339 4.3333333,0 V 0 C 4.3333333,-2.3932339 2.3932339,-4.3333333 0,-4.3333333 Z"
           style="fill:#0000ff;fill-opacity:1;fill-rule:nonzero;stroke:none"
           id="path3468" /></g><g
         id="g3470"
         transform="matrix(6,0,0,6,440.89471,1244.7546)"><path
           d="m 0,-3.6666667 c 2.0250441,0 3.6666667,1.6416226 3.6666667,3.6666667 V 0 C 3.6666667,2.0250441 2.0250441,3.6666667 0,3.6666667 -2.0250441,3.6666667 -3.6666667,2.0250441 -3.6666667,0 c 0,-2.0250441 1.6416226,-3.6666667 3.6666667,-3.6666667 z m 0,-0.6666666 c -2.3932339,0 -4.3333333,1.9400994 -4.3333333,4.3333333 0,2.3932339 1.9400994,4.3333333 4.3333333,4.3333333 C 2.3932339,4.3333333 4.3333333,2.3932339 4.3333333,0 V 0 C 4.3333333,-2.3932339 2.3932339,-4.3333333 0,-4.3333333 Z"
           style="fill:#0000ff;fill-opacity:1;fill-rule:nonzero;stroke:none"
           id="path3472" /></g><g
         id="g3474"
         transform="matrix(6,0,0,6,440.89471,1375.7182)"><path
           d="m 0,-3.6666667 c 2.0250441,0 3.6666667,1.6416226 3.6666667,3.6666667 V 0 C 3.6666667,2.0250441 2.0250441,3.6666667 0,3.6666667 -2.0250441,3.6666667 -3.6666667,2.0250441 -3.6666667,0 c 0,-2.0250441 1.6416226,-3.6666667 3.6666667,-3.6666667 z m 0,-0.6666666 c -2.3932339,0 -4.3333333,1.9400994 -4.3333333,4.3333333 0,2.3932339 1.9400994,4.3333333 4.3333333,4.3333333 C 2.3932339,4.3333333 4.3333333,2.3932339 4.3333333,0 V 0 C 4.3333333,-2.3932339 2.3932339,-4.3333333 0,-4.3333333 Z"
           style="fill:#0000ff;fill-opacity:1;fill-rule:nonzero;stroke:none"
           id="path3476" /></g><g
         id="g3478"
         transform="matrix(6,0,0,6,440.89471,889.28189)"><path
           d="m 0,-3.6666667 c 2.0250441,0 3.6666667,1.6416226 3.6666667,3.6666667 V 0 C 3.6666667,2.0250441 2.0250441,3.6666667 0,3.6666667 -2.0250441,3.6666667 -3.6666667,2.0250441 -3.6666667,0 c 0,-2.0250441 1.6416226,-3.6666667 3.6666667,-3.6666667 z m 0,-0.6666666 c -2.3932339,0 -4.3333333,1.9400994 -4.3333333,4.3333333 0,2.3932339 1.9400994,4.3333333 4.3333333,4.3333333 C 2.3932339,4.3333333 4.3333333,2.3932339 4.3333333,0 V 0 C 4.3333333,-2.3932339 2.3932339,-4.3333333 0,-4.3333333 Z"
           style="fill:#0000ff;fill-opacity:1;fill-rule:nonzero;stroke:none"
           id="path3480" /></g><g
         id="g3482"
         transform="matrix(6,0,0,6,440.89471,1132.5001)"><path
           d="m 0,-3.6666667 c 2.0250441,0 3.6666667,1.6416226 3.6666667,3.6666667 V 0 C 3.6666667,2.0250441 2.0250441,3.6666667 0,3.6666667 -2.0250441,3.6666667 -3.6666667,2.0250441 -3.6666667,0 c 0,-2.0250441 1.6416226,-3.6666667 3.6666667,-3.6666667 z m 0,-0.6666666 c -2.3932339,0 -4.3333333,1.9400994 -4.3333333,4.3333333 0,2.3932339 1.9400994,4.3333333 4.3333333,4.3333333 C 2.3932339,4.3333333 4.3333333,2.3932339 4.3333333,0 V 0 C 4.3333333,-2.3932339 2.3932339,-4.3333333 0,-4.3333333 Z"
           style="fill:#0000ff;fill-opacity:1;fill-rule:nonzero;stroke:none"
           id="path3484" /></g><g
         id="g3486"
         transform="matrix(6,0,0,6,440.89471,1244.7546)"><path
           d="m 0,-3.6666667 c 2.0250441,0 3.6666667,1.6416226 3.6666667,3.6666667 V 0 C 3.6666667,2.0250441 2.0250441,3.6666667 0,3.6666667 -2.0250441,3.6666667 -3.6666667,2.0250441 -3.6666667,0 c 0,-2.0250441 1.6416226,-3.6666667 3.6666667,-3.6666667 z m 0,-0.6666666 c -2.3932339,0 -4.3333333,1.9400994 -4.3333333,4.3333333 0,2.3932339 1.9400994,4.3333333 4.3333333,4.3333333 C 2.3932339,4.3333333 4.3333333,2.3932339 4.3333333,0 V 0 C 4.3333333,-2.3932339 2.3932339,-4.3333333 0,-4.3333333 Z"
           style="fill:#0000ff;fill-opacity:1;fill-rule:nonzero;stroke:none"
           id="path3488" /></g><g
         id="g3490"
         transform="matrix(6,0,0,6,440.89471,889.28189)"><path
           d="m 0,-3.6666667 c 2.0250441,0 3.6666667,1.6416226 3.6666667,3.6666667 V 0 C 3.6666667,2.0250441 2.0250441,3.6666667 0,3.6666667 -2.0250441,3.6666667 -3.6666667,2.0250441 -3.6666667,0 c 0,-2.0250441 1.6416226,-3.6666667 3.6666667,-3.6666667 z m 0,-0.6666666 c -2.3932339,0 -4.3333333,1.9400994 -4.3333333,4.3333333 0,2.3932339 1.9400994,4.3333333 4.3333333,4.3333333 C 2.3932339,4.3333333 4.3333333,2.3932339 4.3333333,0 V 0 C 4.3333333,-2.3932339 2.3932339,-4.3333333 0,-4.3333333 Z"
           style="fill:#0000ff;fill-opacity:1;fill-rule:nonzero;stroke:none"
           id="path3492" /></g><g
         id="g3494"
         transform="matrix(6,0,0,6,440.89471,2086.6638)"><path
           d="m 0,-3.6666667 c 2.0250441,0 3.6666667,1.6416226 3.6666667,3.6666667 V 0 C 3.6666667,2.0250441 2.0250441,3.6666667 0,3.6666667 -2.0250441,3.6666667 -3.6666667,2.0250441 -3.6666667,0 c 0,-2.0250441 1.6416226,-3.6666667 3.6666667,-3.6666667 z m 0,-0.6666666 c -2.3932339,0 -4.3333333,1.9400994 -4.3333333,4.3333333 0,2.3932339 1.9400994,4.3333333 4.3333333,4.3333333 C 2.3932339,4.3333333 4.3333333,2.3932339 4.3333333,0 V 0 C 4.3333333,-2.3932339 2.3932339,-4.3333333 0,-4.3333333 Z"
           style="fill:#0000ff;fill-opacity:1;fill-rule:nonzero;stroke:none"
           id="path3496" /></g><g
         id="g3498"
         transform="matrix(6,0,0,6,440.89471,889.28189)"><path
           d="m 0,-3.6666667 c 2.0250441,0 3.6666667,1.6416226 3.6666667,3.6666667 V 0 C 3.6666667,2.0250441 2.0250441,3.6666667 0,3.6666667 -2.0250441,3.6666667 -3.6666667,2.0250441 -3.6666667,0 c 0,-2.0250441 1.6416226,-3.6666667 3.6666667,-3.6666667 z m 0,-0.6666666 c -2.3932339,0 -4.3333333,1.9400994 -4.3333333,4.3333333 0,2.3932339 1.9400994,4.3333333 4.3333333,4.3333333 C 2.3932339,4.3333333 4.3333333,2.3932339 4.3333333,0 V 0 C 4.3333333,-2.3932339 2.3932339,-4.3333333 0,-4.3333333 Z"
           style="fill:#0000ff;fill-opacity:1;fill-rule:nonzero;stroke:none"
           id="path3500" /></g><g
         id="g3502"
         transform="matrix(6,0,0,6,440.89471,1375.7182)"><path
           d="m 0,-3.6666667 c 2.0250441,0 3.6666667,1.6416226 3.6666667,3.6666667 V 0 C 3.6666667,2.0250441 2.0250441,3.6666667 0,3.6666667 -2.0250441,3.6666667 -3.6666667,2.0250441 -3.6666667,0 c 0,-2.0250441 1.6416226,-3.6666667 3.6666667,-3.6666667 z m 0,-0.6666666 c -2.3932339,0 -4.3333333,1.9400994 -4.3333333,4.3333333 0,2.3932339 1.9400994,4.3333333 4.3333333,4.3333333 C 2.3932339,4.3333333 4.3333333,2.3932339 4.3333333,0 V 0 C 4.3333333,-2.3932339 2.3932339,-4.3333333 0,-4.3333333 Z"
           style="fill:#0000ff;fill-opacity:1;fill-rule:nonzero;stroke:none"
           id="path3504" /></g><g
         id="g3506"
         transform="matrix(6,0,0,6,1583,1338.3001)"><path
           d="m 0,-3.6666667 c 2.0250441,0 3.6666667,1.6416226 3.6666667,3.6666667 V 0 C 3.6666667,2.0250441 2.0250441,3.6666667 0,3.6666667 -2.0250441,3.6666667 -3.6666667,2.0250441 -3.6666667,0 c 0,-2.0250441 1.6416226,-3.6666667 3.6666667,-3.6666667 z m 0,-0.6666666 c -2.3932339,0 -4.3333333,1.9400994 -4.3333333,4.3333333 0,2.3932339 1.9400994,4.3333333 4.3333333,4.3333333 C 2.3932339,4.3333333 4.3333333,2.3932339 4.3333333,0 V 0 C 4.3333333,-2.3932339 2.3932339,-4.3333333 0,-4.3333333 Z"
           style="fill:#000000;fill-opacity:1;fill-rule:nonzero;stroke:none"
           id="path3508" /></g><g
         id="g3510"
         transform="matrix(6,0,0,6,1583,1375.7182)"><path
           d="m 0,-3.6666667 c 2.0250441,0 3.6666667,1.6416226 3.6666667,3.6666667 V 0 C 3.6666667,2.0250441 2.0250441,3.6666667 0,3.6666667 -2.0250441,3.6666667 -3.6666667,2.0250441 -3.6666667,0 c 0,-2.0250441 1.6416226,-3.6666667 3.6666667,-3.6666667 z m 0,-0.6666666 c -2.3932339,0 -4.3333333,1.9400994 -4.3333333,4.3333333 0,2.3932339 1.9400994,4.3333333 4.3333333,4.3333333 C 2.3932339,4.3333333 4.3333333,2.3932339 4.3333333,0 V 0 C 4.3333333,-2.3932339 2.3932339,-4.3333333 0,-4.3333333 Z"
           style="fill:#000000;fill-opacity:1;fill-rule:nonzero;stroke:none"
           id="path3512" /></g><g
         id="g3514"
         transform="matrix(6,0,0,6,1583,1244.7546)"><path
           d="m 0,-3.6666667 c 2.0250441,0 3.6666667,1.6416226 3.6666667,3.6666667 V 0 C 3.6666667,2.0250441 2.0250441,3.6666667 0,3.6666667 -2.0250441,3.6666667 -3.6666667,2.0250441 -3.6666667,0 c 0,-2.0250441 1.6416226,-3.6666667 3.6666667,-3.6666667 z m 0,-0.6666666 c -2.3932339,0 -4.3333333,1.9400994 -4.3333333,4.3333333 0,2.3932339 1.9400994,4.3333333 4.3333333,4.3333333 C 2.3932339,4.3333333 4.3333333,2.3932339 4.3333333,0 V 0 C 4.3333333,-2.3932339 2.3932339,-4.3333333 0,-4.3333333 Z"
           style="fill:#000000;fill-opacity:1;fill-rule:nonzero;stroke:none"
           id="path3516" /></g><g
         id="g3518"
         transform="matrix(6,0,0,6,1583,1244.7546)"><path
           d="m 0,-3.6666667 c 2.0250441,0 3.6666667,1.6416226 3.6666667,3.6666667 V 0 C 3.6666667,2.0250441 2.0250441,3.6666667 0,3.6666667 -2.0250441,3.6666667 -3.6666667,2.0250441 -3.6666667,0 c 0,-2.0250441 1.6416226,-3.6666667 3.6666667,-3.6666667 z m 0,-0.6666666 c -2.3932339,0 -4.3333333,1.9400994 -4.3333333,4.3333333 0,2.3932339 1.9400994,4.3333333 4.3333333,4.3333333 C 2.3932339,4.3333333 4.3333333,2.3932339 4.3333333,0 V 0 C 4.3333333,-2.3932339 2.3932339,-4.3333333 0,-4.3333333 Z"
           style="fill:#000000;fill-opacity:1;fill-rule:nonzero;stroke:none"
           id="path3520" /></g><g
         id="g3522"
         transform="matrix(6,0,0,6,1583,1824.7365)"><path
           d="m 0,-3.6666667 c 2.0250441,0 3.6666667,1.6416226 3.6666667,3.6666667 V 0 C 3.6666667,2.0250441 2.0250441,3.6666667 0,3.6666667 -2.0250441,3.6666667 -3.6666667,2.0250441 -3.6666667,0 c 0,-2.0250441 1.6416226,-3.6666667 3.6666667,-3.6666667 z m 0,-0.6666666 c -2.3932339,0 -4.3333333,1.9400994 -4.3333333,4.3333333 0,2.3932339 1.9400994,4.3333333 4.3333333,4.3333333 C 2.3932339,4.3333333 4.3333333,2.3932339 4.3333333,0 V 0 C 4.3333333,-2.3932339 2.3932339,-4.3333333 0,-4.3333333 Z"
           style="fill:#000000;fill-opacity:1;fill-rule:nonzero;stroke:none"
           id="path3524" /></g><g
         id="g3526"
         transform="matrix(6,0,0,6,1583,1244.7546)"><path
           d="m 0,-3.6666667 c 2.0250441,0 3.6666667,1.6416226 3.6666667,3.6666667 V 0 C 3.6666667,2.0250441 2.0250441,3.6666667 0,3.6666667 -2.0250441,3.6666667 -3.6666667,2.0250441 -3.6666667,0 c 0,-2.0250441 1.6416226,-3.6666667 3.6666667,-3.6666667 z m 0,-0.6666666 c -2.3932339,0 -4.3333333,1.9400994 -4.3333333,4.3333333 0,2.3932339 1.9400994,4.3333333 4.3333333,4.3333333 C 2.3932339,4.3333333 4.3333333,2.3932339 4.3333333,0 V 0 C 4.3333333,-2.3932339 2.3932339,-4.3333333 0,-4.3333333 Z"
           style="fill:#000000;fill-opacity:1;fill-rule:nonzero;stroke:none"
           id="path3528" /></g><g
         id="g3530"
         transform="matrix(6,0,0,6,1583,1244.7546)"><path
           d="m 0,-3.6666667 c 2.0250441,0 3.6666667,1.6416226 3.6666667,3.6666667 V 0 C 3.6666667,2.0250441 2.0250441,3.6666667 0,3.6666667 -2.0250441,3.6666667 -3.6666667,2.0250441 -3.6666667,0 c 0,-2.0250441 1.6416226,-3.6666667 3.6666667,-3.6666667 z m 0,-0.6666666 c -2.3932339,0 -4.3333333,1.9400994 -4.3333333,4.3333333 0,2.3932339 1.9400994,4.3333333 4.3333333,4.3333333 C 2.3932339,4.3333333 4.3333333,2.3932339 4.3333333,0 V 0 C 4.3333333,-2.3932339 2.3932339,-4.3333333 0,-4.3333333 Z"
           style="fill:#000000;fill-opacity:1;fill-rule:nonzero;stroke:none"
           id="path3532" /></g><g
         id="g3534"
         transform="matrix(6,0,0,6,1583,1244.7546)"><path
           d="m 0,-3.6666667 c 2.0250441,0 3.6666667,1.6416226 3.6666667,3.6666667 V 0 C 3.6666667,2.0250441 2.0250441,3.6666667 0,3.6666667 -2.0250441,3.6666667 -3.6666667,2.0250441 -3.6666667,0 c 0,-2.0250441 1.6416226,-3.6666667 3.6666667,-3.6666667 z m 0,-0.6666666 c -2.3932339,0 -4.3333333,1.9400994 -4.3333333,4.3333333 0,2.3932339 1.9400994,4.3333333 4.3333333,4.3333333 C 2.3932339,4.3333333 4.3333333,2.3932339 4.3333333,0 V 0 C 4.3333333,-2.3932339 2.3932339,-4.3333333 0,-4.3333333 Z"
           style="fill:#000000;fill-opacity:1;fill-rule:nonzero;stroke:none"
           id="path3536" /></g><g
         id="g3538"
         transform="matrix(6,0,0,6,1583,1338.3001)"><path
           d="m 0,-3.6666667 c 2.0250441,0 3.6666667,1.6416226 3.6666667,3.6666667 V 0 C 3.6666667,2.0250441 2.0250441,3.6666667 0,3.6666667 -2.0250441,3.6666667 -3.6666667,2.0250441 -3.6666667,0 c 0,-2.0250441 1.6416226,-3.6666667 3.6666667,-3.6666667 z m 0,-0.6666666 c -2.3932339,0 -4.3333333,1.9400994 -4.3333333,4.3333333 0,2.3932339 1.9400994,4.3333333 4.3333333,4.3333333 C 2.3932339,4.3333333 4.3333333,2.3932339 4.3333333,0 V 0 C 4.3333333,-2.3932339 2.3932339,-4.3333333 0,-4.3333333 Z"
           style="fill:#000000;fill-opacity:1;fill-rule:nonzero;stroke:none"
           id="path3540" /></g><g
         id="g3542"
         transform="matrix(6,0,0,6,1583,253.17278)"><path
           d="m 0,-3.6666667 c 2.0250441,0 3.6666667,1.6416226 3.6666667,3.6666667 V 0 C 3.6666667,2.0250441 2.0250441,3.6666667 0,3.6666667 -2.0250441,3.6666667 -3.6666667,2.0250441 -3.6666667,0 c 0,-2.0250441 1.6416226,-3.6666667 3.6666667,-3.6666667 z m 0,-0.6666666 c -2.3932339,0 -4.3333333,1.9400994 -4.3333333,4.3333333 0,2.3932339 1.9400994,4.3333333 4.3333333,4.3333333 C 2.3932339,4.3333333 4.3333333,2.3932339 4.3333333,0 V 0 C 4.3333333,-2.3932339 2.3932339,-4.3333333 0,-4.3333333 Z"
           style="fill:#000000;fill-opacity:1;fill-rule:nonzero;stroke:none"
           id="path3544" /></g><g
         id="g3546"
         transform="matrix(6,0,0,6,2725.1053,1525.3909)"><path
           d="m 0,-3.6666667 c 2.0250441,0 3.6666667,1.6416226 3.6666667,3.6666667 V 0 C 3.6666667,2.0250441 2.0250441,3.6666667 0,3.6666667 -2.0250441,3.6666667 -3.6666667,2.0250441 -3.6666667,0 c 0,-2.0250441 1.6416226,-3.6666667 3.6666667,-3.6666667 z m 0,-0.6666666 c -2.3932339,0 -4.3333333,1.9400994 -4.3333333,4.3333333 0,2.3932339 1.9400994,4.3333333 4.3333333,4.3333333 C 2.3932339,4.3333333 4.3333333,2.3932339 4.3333333,0 V 0 C 4.3333333,-2.3932339 2.3932339,-4.3333333 0,-4.3333333 Z"
           style="fill:#ff0000;fill-opacity:1;fill-rule:nonzero;stroke:none"
           id="path3548" /></g><g
         id="g3550"
         transform="matrix(6,0,0,6,2725.1053,1525.3909)"><path
           d="m 0,-3.6666667 c 2.0250441,0 3.6666667,1.6416226 3.6666667,3.6666667 V 0 C 3.6666667,2.0250441 2.0250441,3.6666667 0,3.6666667 -2.0250441,3.6666667 -3.6666667,2.0250441 -3.6666667,0 c 0,-2.0250441 1.6416226,-3.6666667 3.6666667,-3.6666667 z m 0,-0.6666666 c -2.3932339,0 -4.3333333,1.9400994 -4.3333333,4.3333333 0,2.3932339 1.9400994,4.3333333 4.3333333,4.3333333 C 2.3932339,4.3333333 4.3333333,2.3932339 4.3333333,0 V 0 C 4.3333333,-2.3932339 2.3932339,-4.3333333 0,-4.3333333 Z"
           style="fill:#ff0000;fill-opacity:1;fill-rule:nonzero;stroke:none"
           id="path3552" /></g><g
         id="g3554"
         transform="matrix(6,0,0,6,2725.1053,1151.2091)"><path
           d="m 0,-3.6666667 c 2.0250441,0 3.6666667,1.6416226 3.6666667,3.6666667 V 0 C 3.6666667,2.0250441 2.0250441,3.6666667 0,3.6666667 -2.0250441,3.6666667 -3.6666667,2.0250441 -3.6666667,0 c 0,-2.0250441 1.6416226,-3.6666667 3.6666667,-3.6666667 z m 0,-0.6666666 c -2.3932339,0 -4.3333333,1.9400994 -4.3333333,4.3333333 0,2.3932339 1.9400994,4.3333333 4.3333333,4.3333333 C 2.3932339,4.3333333 4.3333333,2.3932339 4.3333333,0 V 0 C 4.3333333,-2.3932339 2.3932339,-4.3333333 0,-4.3333333 Z"
           style="fill:#ff0000;fill-opacity:1;fill-rule:nonzero;stroke:none"
           id="path3556" /></g><g
         id="g3558"
         transform="matrix(6,0,0,6,2725.1053,1525.3909)"><path
           d="m 0,-3.6666667 c 2.0250441,0 3.6666667,1.6416226 3.6666667,3.6666667 V 0 C 3.6666667,2.0250441 2.0250441,3.6666667 0,3.6666667 -2.0250441,3.6666667 -3.6666667,2.0250441 -3.6666667,0 c 0,-2.0250441 1.6416226,-3.6666667 3.6666667,-3.6666667 z m 0,-0.6666666 c -2.3932339,0 -4.3333333,1.9400994 -4.3333333,4.3333333 0,2.3932339 1.9400994,4.3333333 4.3333333,4.3333333 C 2.3932339,4.3333333 4.3333333,2.3932339 4.3333333,0 V 0 C 4.3333333,-2.3932339 2.3932339,-4.3333333 0,-4.3333333 Z"
           style="fill:#ff0000;fill-opacity:1;fill-rule:nonzero;stroke:none"
           id="path3560" /></g><g
         id="g3562"
         transform="matrix(6,0,0,6,2725.1053,1525.3909)"><path
           d="m 0,-3.6666667 c 2.0250441,0 3.6666667,1.6416226 3.6666667,3.6666667 V 0 C 3.6666667,2.0250441 2.0250441,3.6666667 0,3.6666667 -2.0250441,3.6666667 -3.6666667,2.0250441 -3.6666667,0 c 0,-2.0250441 1.6416226,-3.6666667 3.6666667,-3.6666667 z m 0,-0.6666666 c -2.3932339,0 -4.3333333,1.9400994 -4.3333333,4.3333333 0,2.3932339 1.9400994,4.3333333 4.3333333,4.3333333 C 2.3932339,4.3333333 4.3333333,2.3932339 4.3333333,0 V 0 C 4.3333333,-2.3932339 2.3932339,-4.3333333 0,-4.3333333 Z"
           style="fill:#ff0000;fill-opacity:1;fill-rule:nonzero;stroke:none"
           id="path3564" /></g><g
         id="g3566"
         transform="matrix(6,0,0,6,2725.1053,1525.3909)"><path
           d="m 0,-3.6666667 c 2.0250441,0 3.6666667,1.6416226 3.6666667,3.6666667 V 0 C 3.6666667,2.0250441 2.0250441,3.6666667 0,3.6666667 -2.0250441,3.6666667 -3.6666667,2.0250441 -3.6666667,0 c 0,-2.0250441 1.6416226,-3.6666667 3.6666667,-3.6666667 z m 0,-0.6666666 c -2.3932339,0 -4.3333333,1.9400994 -4.3333333,4.3333333 0,2.3932339 1.9400994,4.3333333 4.3333333,4.3333333 C 2.3932339,4.3333333 4.3333333,2.3932339 4.3333333,0 V 0 C 4.3333333,-2.3932339 2.3932339,-4.3333333 0,-4.3333333 Z"
           style="fill:#ff0000;fill-opacity:1;fill-rule:nonzero;stroke:none"
           id="path3568" /></g><g
         id="g3570"
         transform="matrix(6,0,0,6,2725.1053,1525.3909)"><path
           d="m 0,-3.6666667 c 2.0250441,0 3.6666667,1.6416226 3.6666667,3.6666667 V 0 C 3.6666667,2.0250441 2.0250441,3.6666667 0,3.6666667 -2.0250441,3.6666667 -3.6666667,2.0250441 -3.6666667,0 c 0,-2.0250441 1.6416226,-3.6666667 3.6666667,-3.6666667 z m 0,-0.6666666 c -2.3932339,0 -4.3333333,1.9400994 -4.3333333,4.3333333 0,2.3932339 1.9400994,4.3333333 4.3333333,4.3333333 C 2.3932339,4.3333333 4.3333333,2.3932339 4.3333333,0 V 0 C 4.3333333,-2.3932339 2.3932339,-4.3333333 0,-4.3333333 Z"
           style="fill:#ff0000;fill-opacity:1;fill-rule:nonzero;stroke:none"
           id="path3572" /></g><g
         id="g3574"
         transform="matrix(6,0,0,6,2725.1053,1525.3909)"><path
           d="m 0,-3.6666667 c 2.0250441,0 3.6666667,1.6416226 3.6666667,3.6666667 V 0 C 3.6666667,2.0250441 2.0250441,3.6666667 0,3.6666667 -2.0250441,3.6666667 -3.6666667,2.0250441 -3.6666667,0 c 0,-2.0250441 1.6416226,-3.6666667 3.6666667,-3.6666667 z m 0,-0.6666666 c -2.3932339,0 -4.3333333,1.9400994 -4.3333333,4.3333333 0,2.3932339 1.9400994,4.3333333 4.3333333,4.3333333 C 2.3932339,4.3333333 4.3333333,2.3932339 4.3333333,0 V 0 C 4.3333333,-2.3932339 2.3932339,-4.3333333 0,-4.3333333 Z"
           style="fill:#ff0000;fill-opacity:1;fill-rule:nonzero;stroke:none"
           id="path3576" /></g><g
         id="g3578"
         transform="matrix(6,0,0,6,2725.1053,1637.6456)"><path
           d="m 0,-3.6666667 c 2.0250441,0 3.6666667,1.6416226 3.6666667,3.6666667 V 0 C 3.6666667,2.0250441 2.0250441,3.6666667 0,3.6666667 -2.0250441,3.6666667 -3.6666667,2.0250441 -3.6666667,0 c 0,-2.0250441 1.6416226,-3.6666667 3.6666667,-3.6666667 z m 0,-0.6666666 c -2.3932339,0 -4.3333333,1.9400994 -4.3333333,4.3333333 0,2.3932339 1.9400994,4.3333333 4.3333333,4.3333333 C 2.3932339,4.3333333 4.3333333,2.3932339 4.3333333,0 V 0 C 4.3333333,-2.3932339 2.3932339,-4.3333333 0,-4.3333333 Z"
           style="fill:#ff0000;fill-opacity:1;fill-rule:nonzero;stroke:none"
           id="path3580" /></g><g
         id="g3582"
         transform="matrix(6,0,0,6,2725.1053,1525.3909)"><path
           d="m 0,-3.6666667 c 2.0250441,0 3.6666667,1.6416226 3.6666667,3.6666667 V 0 C 3.6666667,2.0250441 2.0250441,3.6666667 0,3.6666667 -2.0250441,3.6666667 -3.6666667,2.0250441 -3.6666667,0 c 0,-2.0250441 1.6416226,-3.6666667 3.6666667,-3.6666667 z m 0,-0.6666666 c -2.3932339,0 -4.3333333,1.9400994 -4.3333333,4.3333333 0,2.3932339 1.9400994,4.3333333 4.3333333,4.3333333 C 2.3932339,4.3333333 4.3333333,2.3932339 4.3333333,0 V 0 C 4.3333333,-2.3932339 2.3932339,-4.3333333 0,-4.3333333 Z"
           style="fill:#ff0000;fill-opacity:1;fill-rule:nonzero;stroke:none"
           id="path3584" /></g></g></g></svg>
