<?xml version="1.0" encoding="UTF-8" standalone="no"?>
<svg
   xmlns:dc="http://purl.org/dc/elements/1.1/"
   xmlns:cc="http://creativecommons.org/ns#"
   xmlns:rdf="http://www.w3.org/1999/02/22-rdf-syntax-ns#"
   xmlns:svg="http://www.w3.org/2000/svg"
   xmlns="http://www.w3.org/2000/svg"
   xmlns:sodipodi="http://sodipodi.sourceforge.net/DTD/sodipodi-0.dtd"
   xmlns:inkscape="http://www.inkscape.org/namespaces/inkscape"
   version="1.1"
   id="svg160"
   xml:space="preserve"
   width="37.333332"
   height="242.66667"
   viewBox="0 0 37.333332 242.66667"
   sodipodi:docname="fluxogramArchProp.svg"
   inkscape:version="1.0.1 (3bc2e813f5, 2020-09-07)"><metadata
     id="metadata166"><rdf:RDF><cc:Work
         rdf:about=""><dc:format>image/svg+xml</dc:format><dc:type
           rdf:resource="http://purl.org/dc/dcmitype/StillImage" /><dc:title></dc:title></cc:Work></rdf:RDF></metadata><defs
     id="defs164" /><sodipodi:namedview
     pagecolor="#ffffff"
     bordercolor="#666666"
     borderopacity="1"
     objecttolerance="10"
     gridtolerance="10"
     guidetolerance="10"
     inkscape:pageopacity="0"
     inkscape:pageshadow="2"
     inkscape:window-width="1366"
     inkscape:window-height="705"
     id="namedview162"
     showgrid="false"
     inkscape:zoom="2.3653846"
     inkscape:cx="18.666666"
     inkscape:cy="121.33334"
     inkscape:window-x="-8"
     inkscape:window-y="-8"
     inkscape:window-maximized="1"
     inkscape:current-layer="g168" /><g
     id="g168"
     inkscape:groupmode="layer"
     inkscape:label="ink_ext_XXXXXX"
     transform="matrix(1.3333333,0,0,-1.3333333,0,242.66667)"><g
       id="g170"
       transform="scale(0.1)"><path
         d="m 100.199,1633.36 21.91,15.08 -21.91,-43.52 -22.4685,43.52 z"
         style="fill:#000000;fill-opacity:1;fill-rule:nonzero;stroke:none"
         id="path172" /><g
         id="g174"
         transform="scale(0.991215,1.00879)"><path
           d="m 101.083,1619.13 v 77.83"
           style="fill:none;stroke:#000000;stroke-width:7.50031;stroke-linecap:butt;stroke-linejoin:miter;stroke-miterlimit:4;stroke-dasharray:none;stroke-opacity:1"
           id="path176" /></g><g
         id="g178"
         transform="scale(0.991215,1.00879)"><path
           d="M 31.0186,1800.39 H 171.156 c 12.847,0 23.168,-10.34 23.168,-23.19 v -55.61 c 0,-12.85 -10.321,-23.19 -23.168,-23.19 H 31.0186 c -12.8472,0 -23.17626,10.34 -23.17626,23.19 v 55.61 c 0,12.85 10.32906,23.19 23.17626,23.19 z"
           style="fill:none;stroke:#000000;stroke-width:7.51207;stroke-linecap:butt;stroke-linejoin:miter;stroke-miterlimit:4;stroke-dasharray:none;stroke-opacity:1"
           id="path180" /></g><g
         id="g182"
         transform="scale(0.991215,1.00879)"><path
           d="M 7.56253,1589.52 H 194.045 v -102 H 7.56253 Z"
           style="fill:none;stroke:#000000;stroke-width:7.51207;stroke-linecap:butt;stroke-linejoin:miter;stroke-miterlimit:4;stroke-dasharray:none;stroke-opacity:1"
           id="path184" /></g><g
         id="g186"
         transform="scale(10)"><text
           transform="matrix(0.982582,0,0,-1,5.16992,175.07)"
           style="font-variant:normal;font-weight:normal;font-size:3.87984px;font-family:Verdana;-inkscape-font-specification:Verdana;writing-mode:lr-tb;fill:#000000;fill-opacity:1;fill-rule:nonzero;stroke:none"
           id="text190"><tspan
             x="0 2.6538105 4.1824675 6.5142512 8.1709433"
             y="0"
             sodipodi:role="line"
             id="tspan188">Start</tspan></text><text
           transform="matrix(0.982582,0,0,-1,5.24297,155.889)"
           style="font-variant:normal;font-weight:normal;font-size:2.71589px;font-family:Verdana;-inkscape-font-specification:Verdana;writing-mode:lr-tb;fill:#000000;fill-opacity:1;fill-rule:nonzero;stroke:none"
           id="text196"><tspan
             x="0 1.7164425 3.4356008 5.0678506 6.75985 7.504004"
             y="0"
             sodipodi:role="line"
             id="tspan192">Enable</tspan><tspan
             x="-0.95610601 0.90156275 2.3165414 3.3866022 5.1057606 6.7380104 7.8080711 9.4566164"
             y="3.3945301"
             sodipodi:role="line"
             id="tspan194">Actuator</tspan></text></g><path
         d="m 100.199,1420.62 21.91,15.08 -21.91,-43.51 -22.4685,43.51 z"
         style="fill:#000000;fill-opacity:1;fill-rule:nonzero;stroke:none"
         id="path198" /><g
         id="g200"
         transform="scale(0.991215,1.00879)"><path
           d="m 101.083,1408.25 v 77.83"
           style="fill:none;stroke:#000000;stroke-width:7.50031;stroke-linecap:butt;stroke-linejoin:miter;stroke-miterlimit:4;stroke-dasharray:none;stroke-opacity:1"
           id="path202" /></g><g
         id="g204"
         transform="scale(0.991215,1.00879)"><path
           d="M 7.56253,1378.63 H 194.045 V 1276.64 H 7.56253 Z"
           style="fill:none;stroke:#000000;stroke-width:7.51207;stroke-linecap:butt;stroke-linejoin:miter;stroke-miterlimit:4;stroke-dasharray:none;stroke-opacity:1"
           id="path206" /></g><g
         id="g208"
         transform="scale(10)"><text
           transform="matrix(0.982582,0,0,-1,3.22031,134.234)"
           style="font-variant:normal;font-weight:normal;font-size:2.32791px;font-family:Verdana;-inkscape-font-specification:Verdana;writing-mode:lr-tb;fill:#000000;fill-opacity:1;fill-rule:nonzero;stroke:none"
           id="text214"><tspan
             x="0 1.4712391 2.9448061 4.3438802 5.794168 6.4320154 7.8194499 8.6388741 10.231164 12.025983"
             y="0"
             sodipodi:role="line"
             id="tspan210">Enable ADC</tspan><tspan
             x="4.4481802 5.0860271 6.9902577 7.8096819"
             y="2.3441401"
             sodipodi:role="line"
             id="tspan212">i= 0</tspan></text></g><path
         d="m 100.199,1207.89 21.91,15.04 -21.91,-43.48 -22.4685,43.48 z"
         style="fill:#000000;fill-opacity:1;fill-rule:nonzero;stroke:none"
         id="path216" /><g
         id="g218"
         transform="scale(0.991215,1.00879)"><path
           d="m 101.083,1197.37 v 77.8"
           style="fill:none;stroke:#000000;stroke-width:7.50031;stroke-linecap:butt;stroke-linejoin:miter;stroke-miterlimit:4;stroke-dasharray:none;stroke-opacity:1"
           id="path220" /></g><g
         id="g222"
         transform="scale(0.991215,1.00879)"><path
           d="M 7.56253,1167.75 H 194.045 V 1065.76 H 7.56253 Z"
           style="fill:none;stroke:#000000;stroke-width:7.51207;stroke-linecap:butt;stroke-linejoin:miter;stroke-miterlimit:4;stroke-dasharray:none;stroke-opacity:1"
           id="path224" /></g><g
         id="g226"
         transform="scale(10)"><text
           transform="matrix(0.982582,0,0,-1,2.55313,113.145)"
           style="font-variant:normal;font-weight:normal;font-size:1.93992px;font-family:Verdana;-inkscape-font-specification:Verdana;writing-mode:lr-tb;fill:#000000;fill-opacity:1;fill-rule:nonzero;stroke:none"
           id="text232"><tspan
             x="0 1.3017641 2.4579563 3.6238484 4.8324184 5.5152702 6.6811624 7.9091315 9.1177015 9.8005533 11.127459 11.891788 13.069319 13.897665"
             y="0"
             sodipodi:role="line"
             id="tspan228">Read and Store</tspan><tspan
             x="0 1.4956783 2.6615703 3.4258988 4.5917907 5.2746425 5.9574943 6.78584 7.9633718 9.8567038 10.539556 11.866461 13.36214"
             y="2.425"
             sodipodi:role="line"
             id="tspan230">Data from ADC</tspan></text></g><g
         id="g234"
         transform="scale(0.991215,1.00879)"><path
           d="M 7.56253,956.824 H 194.045 V 854.83 H 7.56253 Z"
           style="fill:none;stroke:#000000;stroke-width:7.51207;stroke-linecap:butt;stroke-linejoin:miter;stroke-miterlimit:4;stroke-dasharray:none;stroke-opacity:1"
           id="path236" /></g><path
         d="m 100.199,995.16 21.91,15.04 -21.91,-43.481 -22.4685,43.481 z"
         style="fill:#000000;fill-opacity:1;fill-rule:nonzero;stroke:none"
         id="path238" /><g
         id="g240"
         transform="scale(0.991215,1.00879)"><path
           d="m 101.083,986.493 v 77.787"
           style="fill:none;stroke:#000000;stroke-width:7.50031;stroke-linecap:butt;stroke-linejoin:miter;stroke-miterlimit:4;stroke-dasharray:none;stroke-opacity:1"
           id="path242" /></g><g
         id="g244"
         transform="scale(10)"><text
           transform="matrix(0.982582,0,0,-1,7.1043,90.2445)"
           style="font-variant:normal;font-weight:normal;font-size:3.10387px;font-family:Verdana;-inkscape-font-specification:Verdana;writing-mode:lr-tb;fill:#000000;fill-opacity:1;fill-rule:nonzero;stroke:none"
           id="text248"><tspan
             x="0 0.85046035 3.389426"
             y="0"
             sodipodi:role="line"
             id="tspan246">i++</tspan></text></g><path
         d="m 100.199,782.379 21.91,15.082 -21.91,-43.481 -22.4685,43.481 z"
         style="fill:#000000;fill-opacity:1;fill-rule:nonzero;stroke:none"
         id="path250" /><g
         id="g252"
         transform="scale(0.991215,1.00879)"><path
           d="m 101.083,775.565 v 77.836"
           style="fill:none;stroke:#000000;stroke-width:7.50031;stroke-linecap:butt;stroke-linejoin:miter;stroke-miterlimit:4;stroke-dasharray:none;stroke-opacity:1"
           id="path254" /></g><g
         id="g256"
         transform="scale(0.991215,1.00879)"><path
           d="m 7.84234,694.756 93.24066,50.993 93.241,-50.993 -93.241,-51.002 z"
           style="fill:none;stroke:#000000;stroke-width:7.51207;stroke-linecap:butt;stroke-linejoin:miter;stroke-miterlimit:4;stroke-dasharray:none;stroke-opacity:1"
           id="path258" /></g><g
         id="g260"
         transform="scale(10)"><text
           transform="matrix(0.982582,0,0,-1,7.22773,68.95)"
           style="font-variant:normal;font-weight:normal;font-size:3.10387px;font-family:Verdana;-inkscape-font-specification:Verdana;writing-mode:lr-tb;fill:#000000;fill-opacity:1;fill-rule:nonzero;stroke:none"
           id="text264"><tspan
             x="0 0.85046035 3.389426"
             y="0"
             sodipodi:role="line"
             id="tspan262">i&lt;N</tspan></text></g><path
         d="m 129.648,1246.72 14.801,-22.35 -42.769,22.35 42.769,22.85 z"
         style="fill:#000000;fill-opacity:1;fill-rule:nonzero;stroke:none"
         id="path266" /><g
         id="g268"
         transform="scale(0.991215,1.00879)"><path
           d="m 130.801,1235.86 h 63.523"
           style="fill:none;stroke:#000000;stroke-width:7.51526;stroke-linecap:butt;stroke-linejoin:miter;stroke-miterlimit:4;stroke-dasharray:none;stroke-opacity:1"
           id="path270" /></g><g
         id="g272"
         transform="scale(0.991215,1.00879)"><path
           d="m 194.324,694.756 h 43.188"
           style="fill:none;stroke:#000000;stroke-width:7.51526;stroke-linecap:butt;stroke-linejoin:round;stroke-miterlimit:4;stroke-dasharray:none;stroke-opacity:1"
           id="path274" /></g><g
         id="g276"
         transform="scale(0.991215,1.00879)"><path
           d="m 237.512,694.756 c 10.093,0 19.788,4.027 26.964,11.19 7.168,7.129 11.192,16.845 11.192,26.986"
           style="fill:none;stroke:#000000;stroke-width:7.51526;stroke-linecap:butt;stroke-linejoin:round;stroke-miterlimit:4;stroke-dasharray:none;stroke-opacity:1"
           id="path278" /></g><g
         id="g280"
         transform="scale(0.991215,1.00879)"><path
           d="m 194.324,1235.86 h 43.149"
           style="fill:none;stroke:#000000;stroke-width:7.51526;stroke-linecap:butt;stroke-linejoin:round;stroke-miterlimit:4;stroke-dasharray:none;stroke-opacity:1"
           id="path282" /></g><g
         id="g284"
         transform="scale(0.991215,1.00879)"><path
           d="m 237.473,1235.86 c 10.132,0 19.827,-4.02 27.003,-11.19 7.168,-7.17 11.153,-16.84 11.153,-26.95"
           style="fill:none;stroke:#000000;stroke-width:7.51526;stroke-linecap:butt;stroke-linejoin:round;stroke-miterlimit:4;stroke-dasharray:none;stroke-opacity:1"
           id="path286" /></g><g
         id="g288"
         transform="scale(0.991215,1.00879)"><path
           d="M 275.668,732.862 V 1197.72"
           style="fill:none;stroke:#000000;stroke-width:7.50031;stroke-linecap:butt;stroke-linejoin:miter;stroke-miterlimit:4;stroke-dasharray:none;stroke-opacity:1"
           id="path290" /></g><g
         id="g292"
         transform="scale(10)"><text
           transform="matrix(0.982582,0,0,-1,19.5363,71.825)"
           style="font-variant:normal;font-weight:normal;font-size:2.32791px;font-family:Verdana;-inkscape-font-specification:Verdana;writing-mode:lr-tb;fill:#000000;fill-opacity:1;fill-rule:nonzero;stroke:none"
           id="text296"><tspan
             x="0 1.2851287 2.6725631"
             y="0"
             sodipodi:role="line"
             id="tspan294">Yes</tspan></text></g><path
         d="m 100.199,569.262 21.91,15.039 -21.91,-43.481 -22.4685,43.481 z"
         style="fill:#000000;fill-opacity:1;fill-rule:nonzero;stroke:none"
         id="path298" /><g
         id="g300"
         transform="scale(0.991215,1.00879)"><path
           d="m 101.083,564.304 v 77.824"
           style="fill:none;stroke:#000000;stroke-width:7.50031;stroke-linecap:butt;stroke-linejoin:miter;stroke-miterlimit:4;stroke-dasharray:none;stroke-opacity:1"
           id="path302" /></g><g
         id="g304"
         transform="scale(10)"><text
           transform="matrix(0.982582,0,0,-1,11.4176,59.602)"
           style="font-variant:normal;font-weight:normal;font-size:2.32791px;font-family:Verdana;-inkscape-font-specification:Verdana;writing-mode:lr-tb;fill:#000000;fill-opacity:1;fill-rule:nonzero;stroke:none"
           id="text308"><tspan
             x="0 1.7412766"
             y="0"
             sodipodi:role="line"
             id="tspan306">No</tspan></text></g><g
         id="g310"
         transform="scale(0.991215,1.00879)"><path
           d="M 7.56253,534.643 H 194.045 V 432.687 H 7.56253 Z"
           style="fill:none;stroke:#000000;stroke-width:7.51207;stroke-linecap:butt;stroke-linejoin:miter;stroke-miterlimit:4;stroke-dasharray:none;stroke-opacity:1"
           id="path312" /></g><g
         id="g314"
         transform="scale(10)"><text
           transform="matrix(0.982582,0,0,-1,1.54453,49.3797)"
           style="font-variant:normal;font-weight:normal;font-size:2.32791px;font-family:Verdana;-inkscape-font-specification:Verdana;writing-mode:lr-tb;fill:#000000;fill-opacity:1;fill-rule:nonzero;stroke:none"
           id="text320"><tspan
             x="0 1.4037297 2.3977473 3.8107886 5.0236297 6.4110641 7.6239052 8.8367462 9.6561708 11.248461 12.165658 13.578699 14.572717 15.960151"
             y="0"
             sodipodi:role="line"
             id="tspan316">Process Stored</tspan><tspan
             x="0 0.81942433 2.614243 4.0133166 4.9305134 6.3295875 7.1490116 9.0532417 9.6910896 10.608286 12.081853 12.901278 14.239825 15.620079"
             y="2.90977"
             sodipodi:role="line"
             id="tspan318"> Data with FFT</tspan></text></g><path
         d="m 100.199,356.52 21.91,15.039 -21.91,-43.469 -22.4685,43.469 z"
         style="fill:#000000;fill-opacity:1;fill-rule:nonzero;stroke:none"
         id="path322" /><g
         id="g324"
         transform="scale(0.991215,1.00879)"><path
           d="m 101.083,353.415 v 77.797"
           style="fill:none;stroke:#000000;stroke-width:7.50031;stroke-linecap:butt;stroke-linejoin:miter;stroke-miterlimit:4;stroke-dasharray:none;stroke-opacity:1"
           id="path326" /></g><g
         id="g328"
         transform="scale(0.991215,1.00879)"><path
           d="M 7.56253,323.757 H 194.045 V 221.763 H 7.56253 Z"
           style="fill:none;stroke:#000000;stroke-width:7.51207;stroke-linecap:butt;stroke-linejoin:miter;stroke-miterlimit:4;stroke-dasharray:none;stroke-opacity:1"
           id="path330" /></g><g
         id="g332"
         transform="scale(10)"><text
           transform="matrix(0.982582,0,0,-1,2.13477,26.6508)"
           style="font-variant:normal;font-weight:normal;font-size:2.32791px;font-family:Verdana;-inkscape-font-specification:Verdana;writing-mode:lr-tb;fill:#000000;fill-opacity:1;fill-rule:nonzero;stroke:none"
           id="text336"><tspan
             x="0 1.5620395 2.9494739 3.8666704 5.3402376 6.3342547 7.8078222 8.6272459 10.189193 11.576627 12.789468 14.263035 14.900883"
             y="0"
             sodipodi:role="line"
             id="tspan334">Return Result</tspan></text></g><g
         id="g338"
         transform="scale(0.991215,1.00879)"><path
           d="M 30.7388,112.879 H 170.88 c 12.847,0 23.165,-10.338 23.165,-23.1981 V 34.0718 c 0,-12.8481 -10.318,-23.187 -23.165,-23.187 H 30.7388 c -12.8472,0 -23.17627,10.3389 -23.17627,23.187 v 55.6091 c 0,12.8601 10.32907,23.1981 23.17627,23.1981 z"
           style="fill:none;stroke:#000000;stroke-width:7.51207;stroke-linecap:butt;stroke-linejoin:miter;stroke-miterlimit:4;stroke-dasharray:none;stroke-opacity:1"
           id="path340" /></g><path
         d="m 100.199,143.75 21.91,15.078 -21.91,-43.519 -22.4685,43.519 z"
         style="fill:#000000;fill-opacity:1;fill-rule:nonzero;stroke:none"
         id="path342" /><g
         id="g344"
         transform="scale(0.991215,1.00879)"><path
           d="m 101.083,142.498 v 77.836"
           style="fill:none;stroke:#000000;stroke-width:7.50031;stroke-linecap:butt;stroke-linejoin:miter;stroke-miterlimit:4;stroke-dasharray:none;stroke-opacity:1"
           id="path346" /></g><g
         id="g348"
         transform="scale(10)"><text
           transform="matrix(0.982582,0,0,-1,7.10195,5.08789)"
           style="font-variant:normal;font-weight:normal;font-size:3.10387px;font-family:Verdana;-inkscape-font-specification:Verdana;writing-mode:lr-tb;fill:#000000;fill-opacity:1;fill-rule:nonzero;stroke:none"
           id="text352"><tspan
             x="0 1.9616458 3.9263957"
             y="0"
             sodipodi:role="line"
             id="tspan350">End</tspan></text></g></g></g></svg>
