<?xml version="1.0" encoding="UTF-8" standalone="no"?>
<svg
   xmlns:dc="http://purl.org/dc/elements/1.1/"
   xmlns:cc="http://creativecommons.org/ns#"
   xmlns:rdf="http://www.w3.org/1999/02/22-rdf-syntax-ns#"
   xmlns:svg="http://www.w3.org/2000/svg"
   xmlns="http://www.w3.org/2000/svg"
   xmlns:sodipodi="http://sodipodi.sourceforge.net/DTD/sodipodi-0.dtd"
   xmlns:inkscape="http://www.inkscape.org/namespaces/inkscape"
   version="1.1"
   id="svg10"
   xml:space="preserve"
   width="434.66666"
   height="457.33334"
   viewBox="0 0 434.66666 457.33334"
   sodipodi:docname="measuringPointsMic.svg"
   inkscape:version="1.0.1 (3bc2e813f5, 2020-09-07)"><metadata
     id="metadata16"><rdf:RDF><cc:Work
         rdf:about=""><dc:format>image/svg+xml</dc:format><dc:type
           rdf:resource="http://purl.org/dc/dcmitype/StillImage" /><dc:title></dc:title></cc:Work></rdf:RDF></metadata><defs
     id="defs14" /><sodipodi:namedview
     pagecolor="#ffffff"
     bordercolor="#666666"
     borderopacity="1"
     objecttolerance="10"
     gridtolerance="10"
     guidetolerance="10"
     inkscape:pageopacity="0"
     inkscape:pageshadow="2"
     inkscape:window-width="774"
     inkscape:window-height="480"
     id="namedview12"
     showgrid="false"
     inkscape:zoom="1.255102"
     inkscape:cx="217.33333"
     inkscape:cy="228.66667"
     inkscape:window-x="0"
     inkscape:window-y="0"
     inkscape:window-maximized="0"
     inkscape:current-layer="g18" /><g
     id="g18"
     inkscape:groupmode="layer"
     inkscape:label="ink_ext_XXXXXX"
     transform="matrix(1.3333333,0,0,-1.3333333,0,457.33333)"><g
       id="g20"
       transform="scale(0.1)"><path
         d="m 2359.8,276.371 c 0,0 -82.46,-83.281 -109.49,-120.281 h -193.2 c -27.03,37 -109.45,120.281 -109.45,120.281 h -303.09 c 0,0 -82.46,-83.281 -109.45,-120.281 h -196.68 c -26.99,37 -109.38,120.281 -109.38,120.281 H 1075.78 V 6.94922 H 2513.01 V 276.371 H 2359.8"
         style="fill:#ce402c;fill-opacity:1;fill-rule:nonzero;stroke:none"
         id="path22" /><path
         d="m 1075.78,6.96094 h 1437.23 v 53.1992 H 1075.78 Z"
         style="fill:#a03024;fill-opacity:1;fill-rule:nonzero;stroke:none"
         id="path24" /><path
         d="m 2415.23,6.96094 h 97.7695 v 269.41 H 2415.23 Z"
         style="fill:#a03024;fill-opacity:1;fill-rule:nonzero;stroke:none"
         id="path26" /><path
         d="m 981.48,901.488 h 1620.35 v 1102.46 H 981.48 Z"
         style="fill:#ce402c;fill-opacity:1;fill-rule:nonzero;stroke:none"
         id="path28" /><path
         d="m 981.48,1954.18 h 1620.36 l -0.12,44.8 1.17,290.59 h -2.42 l -0.27,66.6 c 1.25,401.8 -356.14,512.03 -798.52,514.61 -452.62,0 -822.621,-106.09 -820.391,-514.61 l -0.238,-66.6 0.508,-290.59 -0.079,-44.8"
         style="fill:#ce402c;fill-opacity:1;fill-rule:nonzero;stroke:none"
         id="path30" /><path
         d="m 1796.45,2778.36 419.37,20.43 c 0,0 -92.5,13.67 -187.38,97.66 -62.35,55.11 -53.21,133.35 -53.21,133.35 H 1610.7 c 0,0 9.1,-78.24 -53.28,-133.35 -94.84,-83.99 -187.38,-97.66 -187.38,-97.66 l 419.45,-20.43 v -0.31 l 3.48,0.11 3.48,-0.11 v 0.31"
         style="fill:#ce402c;fill-opacity:1;fill-rule:nonzero;stroke:none"
         id="path32" /><path
         d="M 2291.99,3421.64 H 1264.34 v -45.12 h 38.24 v -711.75 h 170.12 v 711.75 h 611.01 v -711.75 h 170.12 v 711.75 h 38.16 v 45.12"
         style="fill:#ce402c;fill-opacity:1;fill-rule:nonzero;stroke:none"
         id="path34" /><path
         d="m 1302.58,3334.84 h 170.121 v 41.6797 H 1302.58 Z"
         style="fill:#a03024;fill-opacity:1;fill-rule:nonzero;stroke:none"
         id="path36" /><path
         d="m 2083.71,3334.84 h 170.117 v 41.6797 H 2083.71 Z"
         style="fill:#a03024;fill-opacity:1;fill-rule:nonzero;stroke:none"
         id="path38" /><path
         d="m 1730.82,2983.36 h 127.148 v 197.109 H 1730.82 Z"
         style="fill:#9b7f31;fill-opacity:1;fill-rule:nonzero;stroke:none"
         id="path40" /><path
         d="m 1589.57,3180.47 h 393.48 v 62.2305 h -393.48 z"
         style="fill:#a5a58e;fill-opacity:1;fill-rule:nonzero;stroke:none"
         id="path42" /><path
         d="m 1794.38,3280.98 c -28.95,0 -52.31,-17.15 -52.31,-38.28 h 104.65 c 0,21.13 -23.44,38.28 -52.34,38.28"
         style="fill:#7a7a6a;fill-opacity:1;fill-rule:nonzero;stroke:none"
         id="path44" /><path
         d="m 1618.87,3180.47 h 35.6289 v 62.2305 H 1618.87 Z"
         style="fill:#d3d2b8;fill-opacity:1;fill-rule:nonzero;stroke:none"
         id="path46" /><path
         d="m 1730.82,3180.47 h 55.5078 v 62.2305 H 1730.82 Z"
         style="fill:#d3d2b8;fill-opacity:1;fill-rule:nonzero;stroke:none"
         id="path48" /><path
         d="m 1730.82,3180.47 v -20.9 l 127.15,-41.41 v 62.31 h -127.15"
         style="fill:#776026;fill-opacity:1;fill-rule:nonzero;stroke:none"
         id="path50" /><path
         d="m 1813.55,2983.36 h 22.9688 v 197.109 H 1813.55 Z"
         style="fill:#776026;fill-opacity:1;fill-rule:nonzero;stroke:none"
         id="path52" /><path
         d="m 2602.89,2289.57 -0.19,64.61 c 0.78,256.84 -121.25,394.41 -352.39,457.34 144.69,-76.13 199.49,-203.47 198.87,-399.14 l 2.7,-64.92 -1.22,-283.24 -0.27,-98.05 h 151.45 l -0.2,40.16 1.25,283.24"
         style="fill:#a03024;fill-opacity:1;fill-rule:nonzero;stroke:none"
         id="path54" /><path
         d="m 1586.95,2984.03 h 411.992 v 48.5898 H 1586.95 Z"
         style="fill:#ce402c;fill-opacity:1;fill-rule:nonzero;stroke:none"
         id="path56" /><path
         d="m 1958.75,3180.47 h 24.3008 v 62.2305 H 1958.75 Z"
         style="fill:#7a7a6a;fill-opacity:1;fill-rule:nonzero;stroke:none"
         id="path58" /><path
         d="m 1836.52,3180.47 h 33.1289 v 62.2305 H 1836.52 Z"
         style="fill:#7a7a6a;fill-opacity:1;fill-rule:nonzero;stroke:none"
         id="path60" /><path
         d="m 1347.46,2684.92 189.57,2.42 c 0,0 -57.23,-204.76 -67.23,-374.72 -5.5,-92.85 -5.78,-457.5 -5.78,-457.5 l -246.52,0.15 c 0,0 -5.27,416.92 8.36,505.9 33.44,218.52 121.6,323.75 121.6,323.75"
         style="fill:#ff6643;fill-opacity:1;fill-rule:nonzero;stroke:none"
         id="path62" /><path
         d="m 1607.5,2984.02 h 370.9 l 9.06,-29.65 -383.71,14.81 3.75,14.84"
         style="fill:#a03024;fill-opacity:1;fill-rule:nonzero;stroke:none"
         id="path64" /><path
         d="m 1340.74,3386.91 h 278.133 v 25.4688 H 1340.74 Z"
         style="fill:#ff6643;fill-opacity:1;fill-rule:nonzero;stroke:none"
         id="path66" /><path
         d="m 1472.7,2731.33 v 62.46 l 316.79,-15.43 v -0.31 l 3.48,0.11 3.48,-0.11 v 0.31 l 287.26,13.98 v -58.86 l -611.01,-2.15 m 781.13,2.81 v 15.2 l 29.49,-15.12 -29.49,-0.08"
         style="fill:#eb573a;fill-opacity:1;fill-rule:nonzero;stroke:none"
         id="path68" /><path
         d="m 1796.45,2778.05 -3.48,0.11 -3.48,-0.11 v 0.31 l -316.79,15.43 v 15.98 l 8.67,4.33 h 602.34 v -21.76 l -287.26,-13.98 v -0.31"
         style="fill:#eb573a;fill-opacity:1;fill-rule:nonzero;stroke:none"
         id="path70" /><path
         d="m 1314.73,2730.74 157.97,79.03 v -78.44 l -157.97,-0.59 m 768.98,2.74 v 80.62 h 43.36 l 126.76,-64.76 v -15.2 l -170.12,-0.66"
         style="fill:#eb573a;fill-opacity:1;fill-rule:nonzero;stroke:none"
         id="path72" /><path
         d="M 2601.84,963.09 H 981.48 l 0.079,-47.11 -0.469,-305.82 1.058,-70.039 C 981.641,432.5 1004.3,344.84 1045.74,273.871 h 1490.28 c 41.6,71.051 64.53,158.668 64.18,266.25 l 0.27,70.039 h 2.42 l -1.17,305.82 0.12,47.11"
         style="fill:#ce402c;fill-opacity:1;fill-rule:nonzero;stroke:none"
         id="path74" /><path
         d="m 2450.39,865.781 0.74,-193.16 -2.69,-70.039 c 0.35,-107.543 -22.39,-195.203 -63.6,-266.211 l -1367.18,-4.609 c 8.39,-22.114 16.79,-38.364 28.08,-57.891 h 1490.28 c 41.25,71.051 66.95,106.09 66.64,213.668 l 0.23,53.32 v 69.301 l -1.05,291.32 -151.45,-0.23"
         style="fill:#a03024;fill-opacity:1;fill-rule:nonzero;stroke:none"
         id="path76" /><path
         d="m 1217.5,380.582 h 246.52 V 863.16 H 1217.5 Z"
         style="fill:#ff6643;fill-opacity:1;fill-rule:nonzero;stroke:none"
         id="path78" /><path
         d="m 981.48,1526.48 h 1620.4 v -71.6 l -1620.4,35.82 v 35.78"
         style="fill:#a03024;fill-opacity:1;fill-rule:nonzero;stroke:none"
         id="path80" /><path
         d="m 2667.46,1557.81 c 0,-17.38 -23.24,-31.44 -51.87,-31.44 H 967.699 c -28.64,0 -51.84,14.06 -51.84,31.44 v 31.53 c 0,17.38 23.2,31.44 51.84,31.44 H 2615.59 c 28.63,0 51.87,-14.06 51.87,-31.44 v -31.53"
         style="fill:#ce402c;fill-opacity:1;fill-rule:nonzero;stroke:none"
         id="path82" /><path
         d="m 2645.16,1594.1 c 0,-5.51 -4.57,-10.04 -10.08,-10.04 H 953.98 c -5.539,0 -10.07,4.53 -10.07,10.04 0,5.51 4.531,10.04 10.07,10.04 h 1681.1 c 5.51,0 10.08,-4.53 10.08,-10.04"
         style="fill:#ff6643;fill-opacity:1;fill-rule:nonzero;stroke:none"
         id="path84" /><path
         d="m 2450.39,888.629 h 151.449 v 594.609 H 2450.39 Z"
         style="fill:#a03024;fill-opacity:1;fill-rule:nonzero;stroke:none"
         id="path86" /><path
         d="M 1464.02,863.16 H 1217.5 v 622.27 L 1464.02,1480 V 863.16"
         style="fill:#ff6643;fill-opacity:1;fill-rule:nonzero;stroke:none"
         id="path88" /><path
         d="m 2450.39,1620.78 h 151.449 v 350.98 H 2450.39 Z"
         style="fill:#a03024;fill-opacity:1;fill-rule:nonzero;stroke:none"
         id="path90" /><path
         d="M 1464.02,1620.86 H 1217.5 v 251.05 l 246.52,0.04 v -251.09"
         style="fill:#ff6643;fill-opacity:1;fill-rule:nonzero;stroke:none"
         id="path92" /><path
         d="m 814.648,1532.89 c -17.308,0 -33.867,-6.87 -46.097,-19.06 -12.223,-12.23 -19.102,-28.83 -19.102,-46.1"
         style="fill:none;stroke:#000000;stroke-width:7.51499;stroke-linecap:butt;stroke-linejoin:round;stroke-miterlimit:4;stroke-dasharray:none;stroke-opacity:1"
         id="path94" /><path
         d="m 814.648,278.832 c -17.308,0 -33.867,6.828 -46.097,19.059 -12.223,12.23 -19.102,28.828 -19.102,46.089"
         style="fill:none;stroke:#000000;stroke-width:7.51499;stroke-linecap:butt;stroke-linejoin:round;stroke-miterlimit:4;stroke-dasharray:none;stroke-opacity:1"
         id="path96" /><path
         d="m 684.262,905.859 c 17.258,0 33.867,-6.879 46.09,-19.097 12.226,-12.231 19.097,-28.793 19.097,-46.102"
         style="fill:none;stroke:#000000;stroke-width:7.51499;stroke-linecap:butt;stroke-linejoin:round;stroke-miterlimit:4;stroke-dasharray:none;stroke-opacity:1"
         id="path98" /><path
         d="M 749.449,1468.63 V 969.801"
         style="fill:none;stroke:#000000;stroke-width:7.49999;stroke-linecap:butt;stroke-linejoin:miter;stroke-miterlimit:4;stroke-dasharray:none;stroke-opacity:1"
         id="path100" /><path
         d="m 684.262,905.859 c 17.258,0 33.867,6.871 46.09,19.102 12.226,12.23 19.097,28.789 19.097,46.09"
         style="fill:none;stroke:#000000;stroke-width:7.51499;stroke-linecap:butt;stroke-linejoin:round;stroke-miterlimit:4;stroke-dasharray:none;stroke-opacity:1"
         id="path102" /><path
         d="M 749.449,841.25 V 342.422"
         style="fill:none;stroke:#000000;stroke-width:7.49996;stroke-linecap:butt;stroke-linejoin:miter;stroke-miterlimit:4;stroke-dasharray:none;stroke-opacity:1"
         id="path104" /><path
         d="m 814.648,2796.87 c -17.308,0 -33.867,-6.87 -46.097,-19.1 -12.223,-12.22 -19.102,-28.82 -19.102,-46.09"
         style="fill:none;stroke:#000000;stroke-width:7.51499;stroke-linecap:butt;stroke-linejoin:round;stroke-miterlimit:4;stroke-dasharray:none;stroke-opacity:1"
         id="path106" /><path
         d="m 814.648,1542.77 c -17.308,0 -33.867,6.88 -46.097,19.1 -12.223,12.23 -19.102,28.79 -19.102,46.1"
         style="fill:none;stroke:#000000;stroke-width:7.51499;stroke-linecap:butt;stroke-linejoin:round;stroke-miterlimit:4;stroke-dasharray:none;stroke-opacity:1"
         id="path108" /><path
         d="m 684.262,2169.8 c 17.258,0 33.867,-6.87 46.09,-19.1 12.226,-12.22 19.097,-28.79 19.097,-46.09"
         style="fill:none;stroke:#000000;stroke-width:7.51499;stroke-linecap:butt;stroke-linejoin:round;stroke-miterlimit:4;stroke-dasharray:none;stroke-opacity:1"
         id="path110" /><path
         d="M 749.449,2732.58 V 2233.75"
         style="fill:none;stroke:#000000;stroke-width:7.49999;stroke-linecap:butt;stroke-linejoin:miter;stroke-miterlimit:4;stroke-dasharray:none;stroke-opacity:1"
         id="path112" /><path
         d="m 684.262,2169.8 c 17.258,0 33.867,6.88 46.09,19.11 12.226,12.22 19.097,28.79 19.097,46.09"
         style="fill:none;stroke:#000000;stroke-width:7.51499;stroke-linecap:butt;stroke-linejoin:round;stroke-miterlimit:4;stroke-dasharray:none;stroke-opacity:1"
         id="path114" /><path
         d="M 749.449,2105.2 V 1606.37"
         style="fill:none;stroke:#000000;stroke-width:7.49996;stroke-linecap:butt;stroke-linejoin:miter;stroke-miterlimit:4;stroke-dasharray:none;stroke-opacity:1"
         id="path116" /><path
         d="m 2741.13,2129.53 25.55,37.81 -73.67,-37.81 73.67,-38.71 z"
         style="fill:#000000;fill-opacity:1;fill-rule:nonzero;stroke:none"
         id="path118" /><path
         d="m 2738.67,1661.99 25.55,37.81 -73.67,-37.81 73.67,-38.75 z"
         style="fill:#000000;fill-opacity:1;fill-rule:nonzero;stroke:none"
         id="path120" /><path
         d="m 2738.67,1661.99 h 132.97"
         style="fill:none;stroke:#000000;stroke-width:7.49999;stroke-linecap:butt;stroke-linejoin:miter;stroke-miterlimit:4;stroke-dasharray:none;stroke-opacity:1"
         id="path122" /><path
         d="M 2741.13,2129.53 H 2874.1"
         style="fill:none;stroke:#000000;stroke-width:7.49999;stroke-linecap:butt;stroke-linejoin:miter;stroke-miterlimit:4;stroke-dasharray:none;stroke-opacity:1"
         id="path124" /><path
         d="m 2741.13,468.121 25.55,37.82 -73.67,-37.82 73.67,-38.711 z"
         style="fill:#000000;fill-opacity:1;fill-rule:nonzero;stroke:none"
         id="path126" /><path
         d="M 2741.13,468.121 H 2874.1"
         style="fill:none;stroke:#000000;stroke-width:7.49999;stroke-linecap:butt;stroke-linejoin:miter;stroke-miterlimit:4;stroke-dasharray:none;stroke-opacity:1"
         id="path128" /><path
         d="m 2741.13,942.109 25.55,37.813 -73.67,-37.813 73.67,-38.711 z"
         style="fill:#000000;fill-opacity:1;fill-rule:nonzero;stroke:none"
         id="path130" /><path
         d="M 2741.13,942.109 H 2874.1"
         style="fill:none;stroke:#000000;stroke-width:7.49999;stroke-linecap:butt;stroke-linejoin:miter;stroke-miterlimit:4;stroke-dasharray:none;stroke-opacity:1"
         id="path132" /><g
         id="g134"
         transform="scale(10)"><text
           transform="matrix(1,0,0,-0.93571629,4.14102,92.6)"
           style="font-variant:normal;font-weight:normal;font-size:14.6721px;font-family:Verdana;-inkscape-font-specification:Verdana;writing-mode:lr-tb;fill:#000000;fill-opacity:1;fill-rule:nonzero;stroke:none"
           id="text140"><tspan
             x="0 8.1723461 17.078297 29.080053 37.824612"
             y="0"
             sodipodi:role="line"
             id="tspan136">Lower</tspan><tspan
             x="-4.2663999 5.7692995 14.513857 22.158009 27.938805 31.958954 40.864902"
             y="14.750945"
             sodipodi:role="line"
             id="tspan138">Section</tspan></text><text
           transform="matrix(1,0,0,-0.93570754,14.5578,218.995)"
           style="font-variant:normal;font-weight:normal;font-size:14.672px;font-family:Verdana;-inkscape-font-specification:Verdana;writing-mode:lr-tb;fill:#000000;fill-opacity:1;fill-rule:nonzero;stroke:none"
           id="text146"><tspan
             x="0 7.4680033 16.373907"
             y="0"
             sodipodi:role="line"
             id="tspan142">Top</tspan><tspan
             x="-14.682365 -4.646718 4.0977931 11.741904 17.522673 21.542801 30.448704"
             y="14.750656"
             sodipodi:role="line"
             id="tspan144">Section</tspan></text><text
           transform="matrix(1,0,0,-1,288.355,43.0707)"
           style="font-variant:normal;font-weight:normal;font-size:10.5123px;font-family:Verdana;-inkscape-font-specification:Verdana;writing-mode:lr-tb;fill:#000000;fill-opacity:1;fill-rule:nonzero;stroke:none"
           id="text156"><tspan
             x="0 7.2114377 13.592404 17.734251 21.876097 28.257063"
             y="0"
             sodipodi:role="line"
             id="tspan148">Bottom</tspan><tspan
             x="0 7.2114377 13.592404 17.734251 21.876097 28.257063"
             y="-119.385"
             sodipodi:role="line"
             id="tspan150">Bottom</tspan><tspan
             x="0.43632799 7.7739134 14.039245 20.693531 24.835377 31.100708"
             y="-47.319801"
             sodipodi:role="line"
             id="tspan152">Center</tspan><tspan
             x="0.43632799 7.7739134 14.039245 20.693531 24.835377 31.100708"
             y="-166.0618"
             sodipodi:role="line"
             id="tspan154">Center</tspan></text></g></g></g></svg>
