<?xml version="1.0" encoding="UTF-8" standalone="no"?>
<svg
   xmlns:dc="http://purl.org/dc/elements/1.1/"
   xmlns:cc="http://creativecommons.org/ns#"
   xmlns:rdf="http://www.w3.org/1999/02/22-rdf-syntax-ns#"
   xmlns:svg="http://www.w3.org/2000/svg"
   xmlns="http://www.w3.org/2000/svg"
   xmlns:sodipodi="http://sodipodi.sourceforge.net/DTD/sodipodi-0.dtd"
   xmlns:inkscape="http://www.inkscape.org/namespaces/inkscape"
   version="1.1"
   id="svg833"
   xml:space="preserve"
   width="462.66666"
   height="693.33331"
   viewBox="0 0 462.66666 693.33331"
   sodipodi:docname="PiezoMagnets.svg"
   inkscape:version="1.0.1 (3bc2e813f5, 2020-09-07)"><metadata
     id="metadata839"><rdf:RDF><cc:Work
         rdf:about=""><dc:format>image/svg+xml</dc:format><dc:type
           rdf:resource="http://purl.org/dc/dcmitype/StillImage" /><dc:title></dc:title></cc:Work></rdf:RDF></metadata><defs
     id="defs837" /><sodipodi:namedview
     pagecolor="#ffffff"
     bordercolor="#666666"
     borderopacity="1"
     objecttolerance="10"
     gridtolerance="10"
     guidetolerance="10"
     inkscape:pageopacity="0"
     inkscape:pageshadow="2"
     inkscape:window-width="774"
     inkscape:window-height="480"
     id="namedview835"
     showgrid="false"
     inkscape:zoom="0.76875002"
     inkscape:cx="231.33333"
     inkscape:cy="346.66666"
     inkscape:window-x="0"
     inkscape:window-y="0"
     inkscape:window-maximized="1"
     inkscape:current-layer="g841" /><g
     id="g841"
     inkscape:groupmode="layer"
     inkscape:label="ink_ext_XXXXXX"
     transform="matrix(1.3333333,0,0,-1.3333333,0,693.33333)"><g
       id="g843"
       transform="scale(0.1)"><path
         d="m 2566.09,951.719 h 397.77 v 1018.2 h -397.77 z"
         style="fill:#909090;fill-opacity:1;fill-rule:nonzero;stroke:none"
         id="path845" /><path
         d="m 2197.7,412.809 c 0,0 -125.51,-126.789 -166.61,-183.118 h -294.1 c -41.09,56.329 -166.6,183.118 -166.6,183.118 H 1109.1 c 0,0 -125.51,-126.789 -166.6,-183.118 H 643.199 C 602.07,286.02 476.68,412.809 476.68,412.809 H 243.398 V 2.69922 H 2430.9 V 412.809 h -233.2"
         style="fill:#ce402c;fill-opacity:1;fill-rule:nonzero;stroke:none"
         id="path847" /><path
         d="m 243.398,2.69141 h 2187.5 v 81.0195 h -2187.5 z"
         style="fill:#a03024;fill-opacity:1;fill-rule:nonzero;stroke:none"
         id="path849" /><path
         d="m 2282.07,2.69141 h 148.828 v 410.117 H 2282.07 Z"
         style="fill:#a03024;fill-opacity:1;fill-rule:nonzero;stroke:none"
         id="path851" /><path
         d="m 99.8789,1364.22 h 2466.21 V 3042.19 H 99.8789 Z"
         style="fill:#ce402c;fill-opacity:1;fill-rule:nonzero;stroke:none"
         id="path853" /><path
         d="M 99.8789,2966.45 H 2566.09 l -0.19,68.24 1.8,442.22 h -3.68 l -0.39,101.41 c 1.88,611.52 -542.11,779.34 -1215.39,783.2 -688.9,0 -1252.0681,-161.44 -1248.6697,-783.2 L 99.2188,3476.91 100,3034.69 99.8789,2966.45"
         style="fill:#ce402c;fill-opacity:1;fill-rule:nonzero;stroke:none"
         id="path855" /><path
         d="m 1340.27,4220.9 638.32,31.09 c 0,0 -140.82,20.82 -285.19,148.6 -94.92,83.9 -81.02,203 -81.02,203 h -554.8 c 0,0 13.83,-119.1 -81.1,-203 -144.41,-127.78 -285.191,-148.6 -285.191,-148.6 l 638.401,-31.09 v -0.51 l 5.31,0.2 5.27,-0.2 v 0.51"
         style="fill:#ce402c;fill-opacity:1;fill-rule:nonzero;stroke:none"
         id="path857" /><path
         d="M 2094.49,5200 H 530.391 v -68.71 H 588.59 V 4048.01 H 847.5 v 1083.28 h 930 V 4048.01 h 258.91 v 1083.28 h 58.08 V 5200"
         style="fill:#ce402c;fill-opacity:1;fill-rule:nonzero;stroke:none"
         id="path859" /><path
         d="M 588.59,5067.89 H 847.5 v 63.3984 H 588.59 Z"
         style="fill:#a03024;fill-opacity:1;fill-rule:nonzero;stroke:none"
         id="path861" /><path
         d="m 1777.5,5067.89 h 258.91 v 63.3984 H 1777.5 Z"
         style="fill:#a03024;fill-opacity:1;fill-rule:nonzero;stroke:none"
         id="path863" /><path
         d="m 1240.39,4532.89 h 193.52 v 300 h -193.52 z"
         style="fill:#9b7f31;fill-opacity:1;fill-rule:nonzero;stroke:none"
         id="path865" /><path
         d="m 1025.39,4832.89 h 598.91 v 94.7305 h -598.91 z"
         style="fill:#a5a58e;fill-opacity:1;fill-rule:nonzero;stroke:none"
         id="path867" /><path
         d="m 1337.07,4985.9 c -43.98,0 -79.57,-26.1 -79.57,-58.28 h 159.3 c 0,32.18 -35.71,58.28 -79.73,58.28"
         style="fill:#7a7a6a;fill-opacity:1;fill-rule:nonzero;stroke:none"
         id="path869" /><path
         d="m 1070,4832.89 h 54.1797 v 94.7305 H 1070 Z"
         style="fill:#d3d2b8;fill-opacity:1;fill-rule:nonzero;stroke:none"
         id="path871" /><path
         d="m 1240.39,4832.89 h 84.4883 v 94.7305 H 1240.39 Z"
         style="fill:#d3d2b8;fill-opacity:1;fill-rule:nonzero;stroke:none"
         id="path873" /><path
         d="m 1240.39,4832.89 v -31.8 l 193.52,-63 v 94.8 h -193.52"
         style="fill:#776026;fill-opacity:1;fill-rule:nonzero;stroke:none"
         id="path875" /><path
         d="m 1366.29,4532.89 h 35 v 300 h -35 z"
         style="fill:#776026;fill-opacity:1;fill-rule:nonzero;stroke:none"
         id="path877" /><path
         d="m 2567.73,3476.91 -0.35,98.4 c 1.17,390.9 -184.53,600.28 -536.33,696.06 220.2,-115.9 303.68,-309.69 302.66,-607.5 l 4.1,-98.87 -1.79,-431.09 -0.39,-149.22 h 230.46 l -0.27,61.13 1.91,431.09"
         style="fill:#a03024;fill-opacity:1;fill-rule:nonzero;stroke:none"
         id="path879" /><path
         d="m 1021.41,4533.91 h 627.07 v 73.9805 h -627.07 z"
         style="fill:#ce402c;fill-opacity:1;fill-rule:nonzero;stroke:none"
         id="path881" /><path
         d="m 1587.3,4832.89 h 36.9883 v 94.7305 H 1587.3 Z"
         style="fill:#7a7a6a;fill-opacity:1;fill-rule:nonzero;stroke:none"
         id="path883" /><path
         d="m 1401.29,4832.89 h 50.3906 v 94.7305 H 1401.29 Z"
         style="fill:#7a7a6a;fill-opacity:1;fill-rule:nonzero;stroke:none"
         id="path885" /><path
         d="m 656.91,4078.67 288.481,3.67 c 0,0 -87.032,-311.68 -102.262,-570.35 -8.399,-141.29 -8.828,-696.29 -8.828,-696.29 l -375.199,0.2 c 0,0 -8.012,634.53 12.699,770 50.898,332.58 185.109,492.77 185.109,492.77"
         style="fill:#ff6643;fill-opacity:1;fill-rule:nonzero;stroke:none"
         id="path887" /><path
         d="m 1052.7,4533.91 h 564.49 l 13.79,-45.12 -583.99,22.5 5.71,22.62"
         style="fill:#a03024;fill-opacity:1;fill-rule:nonzero;stroke:none"
         id="path889" /><path
         d="M 646.68,5147.11 H 1070 v 38.7891 H 646.68 Z"
         style="fill:#ff6643;fill-opacity:1;fill-rule:nonzero;stroke:none"
         id="path891" /><path
         d="m 847.5,4149.3 v 95.11 l 482.19,-23.51 v -0.51 l 5.31,0.2 5.27,-0.2 v 0.51 l 437.23,21.29 v -89.57 l -930,-3.32 m 1188.91,4.29 v 23.13 l 44.88,-23.01 -44.88,-0.12"
         style="fill:#eb573a;fill-opacity:1;fill-rule:nonzero;stroke:none"
         id="path893" /><path
         d="m 1340.27,4220.39 -5.27,0.2 -5.31,-0.2 v 0.51 l -482.19,23.51 v 24.3 l 13.199,6.6 H 1777.5 v -33.12 l -437.23,-21.29 v -0.51"
         style="fill:#eb573a;fill-opacity:1;fill-rule:nonzero;stroke:none"
         id="path895" /><path
         d="M 607.07,4148.4 847.5,4268.71 V 4149.3 l -240.43,-0.9 m 1170.43,4.22 v 122.69 h 65.98 l 192.93,-98.63 v -23.09 l -258.91,-0.97"
         style="fill:#eb573a;fill-opacity:1;fill-rule:nonzero;stroke:none"
         id="path897" /><path
         d="M 2566.09,1458.01 H 99.8789 L 100,1386.29 99.3008,920.781 100.898,814.219 C 100.078,650.391 134.57,516.992 197.699,408.98 H 2465.9 c 63.32,108.129 98.2,241.532 97.73,405.239 l 0.39,106.562 h 3.68 l -1.8,465.509 0.19,71.72"
         style="fill:#ce402c;fill-opacity:1;fill-rule:nonzero;stroke:none"
         id="path899" /><path
         d="m 2335.63,1309.88 1.05,-293.98 -4.02,-106.599 c 0.47,-163.711 -34.14,-297.11 -96.84,-405.199 L 154.961,497.07 c 12.738,-33.59 25.551,-58.359 42.738,-88.09 H 2465.9 c 62.81,108.129 101.91,161.489 101.44,325.2 l 0.39,81.129 -0.03,105.472 -1.57,443.439 -230.5,-0.35"
         style="fill:#a03024;fill-opacity:1;fill-rule:nonzero;stroke:none"
         id="path901" /><path
         d="M 459.102,571.398 H 834.301 V 1345.66 H 459.102 Z"
         style="fill:#ff6643;fill-opacity:1;fill-rule:nonzero;stroke:none"
         id="path903" /><path
         d="M 99.8398,2315.51 H 2566.17 v -108.99 l -2466.3302,54.5 v 54.49"
         style="fill:#a03024;fill-opacity:1;fill-rule:nonzero;stroke:none"
         id="path905" /><path
         d="m 2666.02,2363.16 c 0,-26.44 -35.43,-47.85 -79.03,-47.85 H 78.9102 C 35.3086,2315.31 0,2336.72 0,2363.16 v 47.97 c 0,26.45 35.3086,47.89 78.9102,47.89 H 2586.99 c 43.6,0 79.03,-21.44 79.03,-47.89 v -47.97"
         style="fill:#ce402c;fill-opacity:1;fill-rule:nonzero;stroke:none"
         id="path907" /><path
         d="m 2631.99,2418.44 c 0,-8.4 -6.87,-15.32 -15.27,-15.32 H 58.0117 c -8.4023,0 -15.3125,6.92 -15.3125,15.32 0,8.4 6.9102,15.27 15.3125,15.27 H 2616.72 c 8.4,0 15.27,-6.87 15.27,-15.27"
         style="fill:#ff6643;fill-opacity:1;fill-rule:nonzero;stroke:none"
         id="path909" /><path
         d="m 2335.63,1344.65 h 230.473 v 905.043 H 2335.63 Z"
         style="fill:#a03024;fill-opacity:1;fill-rule:nonzero;stroke:none"
         id="path911" /><path
         d="M 834.301,1305.9 H 459.102 v 947.07 l 375.199,-8.2 V 1305.9"
         style="fill:#ff6643;fill-opacity:1;fill-rule:nonzero;stroke:none"
         id="path913" /><path
         d="m 2335.63,2459.03 h 230.473 v 525.66 H 2335.63 Z"
         style="fill:#a03024;fill-opacity:1;fill-rule:nonzero;stroke:none"
         id="path915" /><path
         d="M 834.301,2459.14 H 459.102 v 382.11 l 375.199,0.04 v -382.15"
         style="fill:#ff6643;fill-opacity:1;fill-rule:nonzero;stroke:none"
         id="path917" /><path
         d="m 2566.09,1297.81 h 296.992 v 325.98 H 2566.09 Z"
         style="fill:#787878;fill-opacity:1;fill-rule:nonzero;stroke:none"
         id="path919" /><path
         d="m 2570.74,1315.47 h 2.4219 v 290.66 h -2.4219 z"
         style="fill:#e9dfe0;fill-opacity:1;fill-rule:nonzero;stroke:none"
         id="path921" /><path
         d="m 2421.64,1191.02 c 0,1.48 -3.32,6.68 -7.38,11.52 -9.77,11.6 -106.96,105.66 -109.18,105.66 -2.85,0 1.44,-6.48 11.83,-18 40,-44.15 98.44,-101.92 103.13,-101.92 0.86,0 1.6,1.21 1.6,2.74 z m 43.44,26.6 c 0,2.73 -16.45,15.78 -45.2,35.86 -40.39,28.24 -93.47,68.32 -103.98,78.43 -10.24,9.89 -11.02,13.99 -3.36,17.66 6.48,3.09 52.07,6.17 74.8,5.04 17.86,-0.9 23.44,0.55 11.29,2.97 -11.01,2.19 -64.84,18.87 -71.01,21.99 -8.6,4.41 -16.68,14.1 -19.07,22.93 -2.42,8.98 -1.13,30.86 3.83,63.91 3.32,22.34 10.98,61.56 13.05,66.99 0.55,1.4 0.23,2.54 -0.66,2.54 -2.5,0 -11.68,-28.67 -20.39,-63.79 -8.99,-36.13 -10.24,-55.28 -4.93,-74.22 3.56,-12.66 13.32,-23.4 27.11,-29.84 l 9.07,-4.22 h -6.22 c -9.49,-0.04 -26.36,-3.48 -30.74,-6.29 -4.53,-2.89 -5.08,-9.03 -1.48,-15.98 3.63,-6.95 24.02,-25.9 42.77,-39.69 9.06,-6.68 25.51,-18.79 36.49,-26.91 18,-13.28 76.32,-52.46 85.11,-57.15 2.11,-1.13 3.52,-1.21 3.52,-0.23 z"
         style="fill:#000000;fill-opacity:1;fill-rule:nonzero;stroke:none"
         id="path923" /><path
         d="m 2151.84,1262.81 c 7.96,15.86 35.19,97.97 33.79,101.99 -0.94,2.74 -16.68,-28.59 -25.63,-51.01 -3.83,-9.69 -8.95,-25.08 -11.33,-34.26 -3.75,-14.49 -4.02,-17.03 -1.83,-19.22 2.14,-2.15 2.81,-1.83 5,2.5 z m 15.46,75.86 c 10.51,18.52 12.86,24.49 14.34,36.41 1.41,11.33 -1.05,22.58 -6.05,27.58 -6.21,6.21 -22.5,3.86 -36.92,-5.28 l -8.2,-5.23 3.44,6.8 c 6.13,11.99 12.22,32.65 12.22,41.28 0,17.66 -12.46,26.92 -36.01,26.88 -16.06,-0.04 -23.44,-2.42 -44.14,-14.26 -14.42,-8.28 -22.23,-14.41 -14.42,-11.33 1.84,0.71 12.39,3.91 23.44,7.11 41.64,12.03 62.46,11.06 62.46,-2.93 0,-12.65 -11.21,-40.86 -26.83,-67.54 -6.53,-11.13 -7.31,-16.64 -2.7,-19.45 1.95,-1.21 5.94,1.72 16.48,12.11 15.08,14.84 31.92,24.77 41.96,24.77 4.8,0 5.97,-0.79 6.91,-4.57 1.52,-6.06 -3.48,-28.75 -10.78,-49.03 -6.56,-18.08 -6.45,-17.65 -4.61,-17.65 0.7,0 4.96,6.44 9.41,14.33 z"
         style="fill:#000000;fill-opacity:1;fill-rule:nonzero;stroke:none"
         id="path925" /><path
         d="M 1891.13,1217.5 1643.05,725.23 c -1.41,-2.851 -1.64,-6.171 -0.59,-9.21 1.06,-3.051 3.32,-5.551 6.21,-6.918 l 82.19,-38.321 c 2.93,-1.371 6.29,-1.48 9.3,-0.351 3,1.129 5.43,3.48 6.68,6.41 l 217.77,506.4 c 2.54,5.9 -0.08,12.78 -5.9,15.51 l -51.91,24.18 c -5.82,2.69 -12.78,0.31 -15.67,-5.43"
         style="fill:#616e7d;fill-opacity:1;fill-rule:nonzero;stroke:none"
         id="path927" /><path
         d="m 1773.71,1268.4 295.82,-137.93 94.45,202.62 c 0.94,1.99 2.15,3.75 3.32,5.58 l -296.95,138.48 c -0.66,-2.07 -1.25,-4.14 -2.15,-6.13 l -94.49,-202.62"
         style="fill:#616e7d;fill-opacity:1;fill-rule:nonzero;stroke:none"
         id="path929" /><path
         d="m 2167.3,1338.67 c -1.17,-1.83 -2.38,-3.59 -3.32,-5.58 l -94.45,-202.62 -1.37,-2.85 c -11.32,-24.34 -0.82,-53.25 23.52,-64.61 24.34,-11.33 53.24,-0.78 64.57,23.51 l 95.82,205.47 c 11.33,24.34 0.82,53.24 -23.52,64.57 -22.3,10.43 -48.32,2.31 -61.25,-17.89"
         style="fill:#aad4c8;fill-opacity:1;fill-rule:nonzero;stroke:none"
         id="path931" /><path
         d="m 1780.08,1512.07 -95.78,-205.43 c -11.37,-24.34 -0.82,-53.28 23.51,-64.61 24.3,-11.33 53.21,-0.82 64.57,23.52 l 1.33,2.85 94.49,202.62 c 0.9,1.99 1.49,4.06 2.15,6.13 7.11,22.89 -3.36,48.05 -25.66,58.44 -24.34,11.36 -53.24,0.82 -64.61,-23.52"
         style="fill:#aad4c8;fill-opacity:1;fill-rule:nonzero;stroke:none"
         id="path933" /><path
         d="m 2585,1336.6 h 271.051 v 248.438 H 2585 Z"
         style="fill:#dce221;fill-opacity:1;fill-rule:nonzero;stroke:none"
         id="path935" /><g
         id="g937"
         transform="scale(1.08478,-0.915217)"><path
           d="m 2382.97,-1731.87 h 249.86 v 271.45 h -249.86 z"
           style="fill:none;stroke:#a75521;stroke-width:13.1149;stroke-linecap:butt;stroke-linejoin:round;stroke-miterlimit:4;stroke-dasharray:none;stroke-opacity:1"
           id="path939" /></g><path
         d="m 2677.73,1499.3 c 3.01,-29.38 -8.2,-54.65 -25.03,-56.41 -16.8,-1.76 -32.86,20.66 -35.86,50.04 -3.01,29.41 8.2,54.65 25,56.41 16.79,1.75 32.89,-20.63 35.89,-50.04"
         style="fill:#b1a922;fill-opacity:1;fill-rule:nonzero;stroke:none"
         id="path941" /><path
         d="m 2711.13,1508.95 c 0,-13.79 6.25,-24.97 13.99,-24.97 7.73,0 13.98,11.18 13.98,24.97 0,13.78 -6.25,25 -13.98,25 -7.74,0 -13.99,-11.22 -13.99,-25"
         style="fill:#b1a922;fill-opacity:1;fill-rule:nonzero;stroke:none"
         id="path943" /><path
         d="m 2767.85,1484.49 c 0,-27.58 14.88,-49.92 33.2,-49.92 18.36,0 33.25,22.34 33.25,49.92 0,27.54 -14.89,49.88 -33.25,49.88 -18.32,0 -33.2,-22.34 -33.2,-49.88"
         style="fill:#b1a922;fill-opacity:1;fill-rule:nonzero;stroke:none"
         id="path945" /><path
         d="m 2789.06,1388.71 c 0,-12.73 -5.86,-23.09 -13.12,-23.09 -7.23,0 -13.09,10.36 -13.09,23.09 0,12.74 5.86,23.09 13.09,23.09 7.26,0 13.12,-10.35 13.12,-23.09"
         style="fill:#b1a922;fill-opacity:1;fill-rule:nonzero;stroke:none"
         id="path947" /><path
         d="m 2673.05,1423.28 c -14.1,-13.2 -19.53,-30.66 -12.15,-38.98 7.38,-8.32 24.84,-4.38 38.9,8.82 14.11,13.21 19.54,30.67 12.15,38.99 -7.38,8.32 -24.8,4.37 -38.9,-8.83"
         style="fill:#b1a922;fill-opacity:1;fill-rule:nonzero;stroke:none"
         id="path949" /><path
         d="m 2848.09,1297.81 h 115.66 v 32.543 h -115.66 z"
         style="fill:#787878;fill-opacity:1;fill-rule:nonzero;stroke:none"
         id="path951" /><path
         d="m 2566.09,1774.45 h 202.852 v 136.41 H 2566.09 Z"
         style="fill:#787878;fill-opacity:1;fill-rule:nonzero;stroke:none"
         id="path953" /><path
         d="m 2566.09,1010.78 h 202.852 v 136.41 H 2566.09 Z"
         style="fill:#787878;fill-opacity:1;fill-rule:nonzero;stroke:none"
         id="path955" /><path
         d="m 2566.09,1018.75 h 202.852 v 120.469 H 2566.09 Z"
         style="fill:#c8c8c8;fill-opacity:1;fill-rule:nonzero;stroke:none"
         id="path957" /><path
         d="m 2566.09,1782.42 h 202.852 v 120.469 H 2566.09 Z"
         style="fill:#c8c8c8;fill-opacity:1;fill-rule:nonzero;stroke:none"
         id="path959" /><g
         id="g961"
         transform="scale(10)"><text
           transform="matrix(0.918125,0,0,-1,318.486,144.193)"
           style="font-variant:normal;font-weight:normal;font-size:7.30544px;font-family:Verdana;-inkscape-font-specification:Verdana;writing-mode:lr-tb;fill:#000000;fill-opacity:1;fill-rule:nonzero;stroke:none"
           id="text965"><tspan
             x="0 6.1584859 10.549055 15.100345 19.724688 24.07873 26.957073"
             y="0"
             sodipodi:role="line"
             id="tspan963">Magnets</tspan></text></g><path
         d="m 2796.41,1843.01 14.57,30.15 -42.03,-30.15 42.03,-30.9 z"
         style="fill:#000000;fill-opacity:1;fill-rule:nonzero;stroke:none"
         id="path967" /><path
         d="m 2796.41,1843.01 h 75.82"
         style="fill:none;stroke:#000000;stroke-width:7.49999;stroke-linecap:butt;stroke-linejoin:miter;stroke-miterlimit:4;stroke-dasharray:none;stroke-opacity:1"
         id="path969" /><path
         d="m 2796.41,1079.34 14.57,30.15 -42.03,-30.15 42.03,-30.9 z"
         style="fill:#000000;fill-opacity:1;fill-rule:nonzero;stroke:none"
         id="path971" /><path
         d="m 2796.41,1079.34 h 75.82"
         style="fill:none;stroke:#000000;stroke-width:7.49999;stroke-linecap:butt;stroke-linejoin:miter;stroke-miterlimit:4;stroke-dasharray:none;stroke-opacity:1"
         id="path973" /><path
         d="m 2872.23,1843.01 h 47.22"
         style="fill:none;stroke:#000000;stroke-width:7.51499;stroke-linecap:butt;stroke-linejoin:round;stroke-miterlimit:4;stroke-dasharray:none;stroke-opacity:1"
         id="path975" /><path
         d="m 2919.45,1843.01 c 14.93,0 28.71,-8.17 36.18,-21.45"
         style="fill:none;stroke:#000000;stroke-width:7.51499;stroke-linecap:butt;stroke-linejoin:round;stroke-miterlimit:4;stroke-dasharray:none;stroke-opacity:1"
         id="path977" /><path
         d="m 3186.29,1495.39 -230.66,326.17"
         style="fill:none;stroke:#000000;stroke-width:7.49999;stroke-linecap:butt;stroke-linejoin:miter;stroke-miterlimit:4;stroke-dasharray:none;stroke-opacity:1"
         id="path979" /><path
         d="m 2872.23,1079.34 h 47.22"
         style="fill:none;stroke:#000000;stroke-width:7.51499;stroke-linecap:butt;stroke-linejoin:round;stroke-miterlimit:4;stroke-dasharray:none;stroke-opacity:1"
         id="path981" /><path
         d="m 2919.45,1079.34 c 14.93,0 28.71,8.2 36.18,21.48"
         style="fill:none;stroke:#000000;stroke-width:7.51499;stroke-linecap:butt;stroke-linejoin:round;stroke-miterlimit:4;stroke-dasharray:none;stroke-opacity:1"
         id="path983" /><path
         d="M 3186.29,1426.95 2955.63,1100.82"
         style="fill:none;stroke:#000000;stroke-width:7.49999;stroke-linecap:butt;stroke-linejoin:miter;stroke-miterlimit:4;stroke-dasharray:none;stroke-opacity:1"
         id="path985" /><g
         id="g987"
         transform="scale(10)"><text
           transform="matrix(1,0,0,-1,179.107,189.508)"
           style="font-variant:normal;font-weight:normal;font-size:6.99999px;font-family:Verdana;-inkscape-font-specification:Verdana;writing-mode:lr-tb;fill:#000000;fill-opacity:1;fill-rule:nonzero;stroke:none"
           id="text991"><tspan
             x="0 4.220994 6.1389914 10.310986 13.943914 18.192909 22.364902 24.2829 28.454893 32.101887 34.859886 37.848881 39.766876"
             y="0"
             sodipodi:role="line"
             id="tspan989">Piezoelectric</tspan></text></g><path
         d="m 2865.43,1534.73 14.53,30.15 -41.99,-30.15 41.99,-30.9 z"
         style="fill:#000000;fill-opacity:1;fill-rule:nonzero;stroke:none"
         id="path993" /><path
         d="m 2865.43,1534.73 h 75.82"
         style="fill:none;stroke:#000000;stroke-width:7.49999;stroke-linecap:butt;stroke-linejoin:miter;stroke-miterlimit:4;stroke-dasharray:none;stroke-opacity:1"
         id="path995" /><g
         id="g997"
         transform="scale(10)"><text
           transform="matrix(0.856742,0,0,-1,294.377,151.475)"
           style="font-variant:normal;font-weight:normal;font-size:5.71273px;font-family:Verdana;-inkscape-font-specification:Verdana;writing-mode:lr-tb;fill:#000000;fill-opacity:1;fill-rule:nonzero;stroke:none"
           id="text1001"><tspan
             x="0 3.9075074 7.466538 10.934165 14.550323 18.109354"
             y="0"
             sodipodi:role="line"
             id="tspan999">Sponge</tspan></text></g><path
         d="m 2988.16,1300.78 -4.29,-3.83 48.16,-1.83 4.3,3.79 -48.17,1.87"
         style="fill:#ea852a;fill-opacity:1;fill-rule:nonzero;stroke:none"
         id="path1003" /><path
         d="m 2996.8,1327.5 -4.1,-3.83 60.15,-2.22 4.1,3.82 -60.15,2.23"
         style="fill:#ea852a;fill-opacity:1;fill-rule:nonzero;stroke:none"
         id="path1005" /><path
         d="m 2996.6,1299.26 1.29,1.13 38.44,-1.48 -1.33,-1.14 -38.4,1.49"
         style="fill:#c46f23;fill-opacity:1;fill-rule:nonzero;stroke:none"
         id="path1007" /><path
         d="m 3007.7,1325.9 1.25,1.13 48,-1.76 -1.25,-1.13 -48,1.76"
         style="fill:#c46f23;fill-opacity:1;fill-rule:nonzero;stroke:none"
         id="path1009" /><path
         d="m 2570.82,1311.8 c 25.78,-2.74 42.89,0.43 58.16,2.54 11.1,1.52 20.67,2.81 30.63,2.89 15.86,0.11 29.96,-1.45 46.33,-3.32 13.9,-1.57 28.28,-3.17 45.7,-3.95 13.83,-0.62 28.67,-0.55 42.85,0.16 14.22,0.74 27.11,2.07 37.31,3.94 14.96,2.7 24.92,3.67 38.04,3.67 10.71,0.04 15.79,-0.78 27.23,-2.81 3.36,-0.58 7.15,-1.25 11.41,-1.91 5.27,-0.82 10.43,-2.74 15.9,-4.77 12.26,-4.57 29.06,-10.82 69.6,-12.46 l 6.88,5.82 c -25.59,1.02 -36.88,5.24 -47.81,9.3 -6.96,2.58 -13.52,5.04 -23.87,6.64 -3.52,0.55 -6.8,1.13 -9.96,1.68 -11.99,2.15 -25.59,4.53 -49.84,4.49 -26.84,-0.12 -44.65,-2.66 -59.93,-5.39 -12.97,-2.34 -32.73,-3.36 -50.35,-2.58 -12.5,0.55 -24.14,1.88 -36.48,3.28 -18.21,2.03 -38.83,4.38 -64.38,4.14 -19.76,-0.15 -34.92,-2.22 -48.32,-4.06 -13.4,-1.83 -26.17,-8.79 -39.18,-3.59 0,0 -1.6,8.44 -1.79,10.7 -0.04,0.47 -2.86,0.08 -2.86,0.08 0,0 1.37,-11.09 1.49,-11.52 0.23,-0.9 1.76,-2.15 1.76,-2.15"
         style="fill:#4a6ac6;fill-opacity:1;fill-rule:nonzero;stroke:none"
         id="path1011" /><path
         d="m 2573.67,1323.67 v -5.94 c 19.06,0 30.82,-1.52 44.46,-3.28 12.14,-1.6 24.76,-3.24 42.1,-3.55 31.84,-0.55 53.13,1.17 71.92,2.65 10.12,0.82 19.69,1.61 30.94,2.07 21.52,0.9 35.43,0.51 48,-1.32 20.51,-3.05 46.96,-3.36 57.35,-3.4 18.04,0 35.23,1.44 57.38,4.8 32.27,4.92 60.04,6.92 84.88,6.1 l 5.63,5.82 c -20.43,0.7 -42.11,0.11 -64.38,-1.76 -15,-1.29 -30.19,-3.09 -46.4,-5.55 -15.71,-2.38 -27.11,-3.47 -36.96,-3.44 -5.54,0 -24.61,0.16 -37.65,2.08 -26.25,3.86 -53.79,3.35 -74.85,2.46 -14.18,-0.59 -25.62,-1.49 -36.68,-2.39 -17.42,-1.4 -32.46,-2.61 -56.09,-2.18 -8.98,0.15 -16.87,1.17 -26.87,2.46 -14.97,1.95 -33.64,4.37 -62.78,4.37"
         style="fill:#e22814;fill-opacity:1;fill-rule:nonzero;stroke:none"
         id="path1013" /><path
         d="m 2573.16,1303.32 h 4.6484 v 315 h -4.6484 z"
         style="fill:#b87333;fill-opacity:1;fill-rule:nonzero;stroke:none"
         id="path1015" /><path
         d="m 2718.55,1319.45 c 0.55,-0.04 3.95,-0.39 4.54,-0.47 12.34,-1.36 23.98,-2.69 36.48,-3.24 1.06,-0.04 2.11,-0.08 3.16,-0.12 -11.13,-0.46 -20.62,-1.21 -30.7,-2.03 -4.22,-0.35 -8.59,-0.7 -13.16,-1.01 -4.22,0.43 -8.36,0.9 -12.46,1.37 -10.43,1.17 -19.96,2.22 -29.61,2.85 16.29,0.11 21.01,1.64 34.84,2.77 0.66,0.04 6.17,-0.16 6.91,-0.12"
         style="fill:#4a6ac6;fill-opacity:1;fill-rule:nonzero;stroke:none"
         id="path1017" /><path
         d="m 2929.34,1317.5 c 1.4,-0.2 2.77,-0.43 4.02,-0.7 -2.5,-0.35 -5,-0.71 -7.58,-1.1 -6.56,-1.01 -12.69,-1.83 -18.51,-2.5 -3.72,0.59 -7.07,1.17 -10.04,1.72 -6.92,1.21 -12.5,2.07 -17.39,2.5 7.04,0.55 14.18,1.64 23.79,3.09 1.33,0.19 3.44,0.35 4.77,0.54 3.51,-0.54 7.81,-1.28 10.94,-1.83 3.2,-0.55 6.44,-1.13 10,-1.72"
         style="fill:#4a6ac6;fill-opacity:1;fill-rule:nonzero;stroke:none"
         id="path1019" /><path
         d="m 2920.9,1314.96 c 2.77,-0.59 5.15,-1.29 7.19,-1.99 2.3,-0.78 8.43,-5.63 15.82,-3.32 0.74,0.23 1.05,0.51 1.05,0.78 0,1.56 -9.1,3.83 -13.01,4.73 -1.29,0.27 -2.65,0.58 -4.1,0.86 -0.66,-0.12 -1.37,-0.2 -2.07,-0.32 -1.64,-0.27 -3.28,-0.5 -4.88,-0.74"
         style="fill:#7c93d6;fill-opacity:1;fill-rule:nonzero;stroke:none"
         id="path1021" /><path
         d="m 2897.07,1318.91 c 0,-0.59 3.44,-0.98 6.29,-1.25 6.68,-0.67 12.66,-1.61 17.54,-2.7 1.6,0.24 3.24,0.47 4.88,0.74 0.7,0.12 1.41,0.2 2.07,0.32 -6.21,1.21 -13.71,2.18 -21.95,2.85 -2.81,0.23 -6.21,0.43 -8.79,0.11 -0.04,0 -0.04,-0.03 -0.04,-0.07"
         style="fill:#7c93d6;fill-opacity:1;fill-rule:nonzero;stroke:none"
         id="path1023" /><path
         d="m 2727.3,1313.2 c 1.57,-0.15 3.13,-0.27 4.77,-0.43 9.14,-0.7 18.95,-1.09 28.67,-1.44 9.57,-0.35 19.92,-0.71 29.57,-0.28 5.47,0.24 9.89,0.98 9.89,1.53 0,0.39 -2.31,0.66 -8.21,0.54 -13.24,-0.19 -26.56,-0.19 -39.76,0.04 -4.53,0.08 -9.07,0.2 -13.25,0.51 -0.89,0.08 -1.75,0.16 -2.57,0.24 -1.45,-0.12 -2.93,-0.24 -4.38,-0.36 -1.56,-0.11 -3.12,-0.23 -4.73,-0.35"
         style="fill:#7c93d6;fill-opacity:1;fill-rule:nonzero;stroke:none"
         id="path1025" /><path
         d="m 2708.83,1316.13 c 4.57,-1.25 11.17,-2.22 18.47,-2.93 1.61,0.12 3.17,0.28 4.73,0.39 1.45,0.12 2.93,0.2 4.38,0.36 -5.04,0.5 -9.3,1.28 -14.11,1.87 -4.02,0.51 -9.68,0.86 -13.47,0.31"
         style="fill:#7c93d6;fill-opacity:1;fill-rule:nonzero;stroke:none"
         id="path1027" /><path
         d="m 2852.11,1313.16 c 0,0 0,0 0,-0.04 0.04,-0.15 0.94,-0.31 1.76,-0.39 7.61,-0.89 17.93,-1.05 26.21,-0.39 2.58,0.2 6.68,0.59 6.68,1.18 0,0.07 -0.2,0.23 -0.71,0.39 -2.69,0.78 -8.71,0.07 -11.95,-0.12 -5.94,-0.39 -12.5,-0.04 -18.75,-0.2 -1.44,-0.04 -3.24,-0.15 -3.24,-0.43"
         style="fill:#ea6455;fill-opacity:1;fill-rule:nonzero;stroke:none"
         id="path1029" /><path
         d="m 2641.6,1314.73 c 0,-0.32 1.41,-0.59 2.74,-0.78 5.86,-0.9 12.42,-1.65 19.68,-2 14.85,-0.78 24.34,-0.08 24.34,0.67 0,0.35 -1.6,0.66 -5.08,0.93 -2.58,0.2 -5.43,0.08 -8.2,0.04 -6.29,-0.11 -12.78,0.16 -18.17,0.78 -4.1,0.47 -8.55,1.14 -13.04,0.83 -0.78,-0.04 -1.57,-0.16 -1.96,-0.28 -0.19,-0.08 -0.31,-0.15 -0.31,-0.23"
         style="fill:#ea6455;fill-opacity:1;fill-rule:nonzero;stroke:none"
         id="path1031" /><path
         d="m 2566.09,1326.29 h 4.6484 v 269.063 h -4.6484 z"
         style="fill:#da8a67;fill-opacity:1;fill-rule:nonzero;stroke:none"
         id="path1033" /><path
         d="m 2555.59,1525.82 -351.53,344.3"
         style="fill:none;stroke:#000000;stroke-width:7.49999;stroke-linecap:butt;stroke-linejoin:miter;stroke-miterlimit:4;stroke-dasharray:none;stroke-opacity:1"
         id="path1035" /><path
         d="m 2555.43,1525.66 10.7,31.76 8.95,-50.94 -51.64,7.27 z"
         style="fill:#000000;fill-opacity:1;fill-rule:nonzero;stroke:none"
         id="path1037" /></g></g></svg>
