<?xml version="1.0" encoding="UTF-8" standalone="no"?>
<svg
   xmlns:dc="http://purl.org/dc/elements/1.1/"
   xmlns:cc="http://creativecommons.org/ns#"
   xmlns:rdf="http://www.w3.org/1999/02/22-rdf-syntax-ns#"
   xmlns:svg="http://www.w3.org/2000/svg"
   xmlns="http://www.w3.org/2000/svg"
   xmlns:sodipodi="http://sodipodi.sourceforge.net/DTD/sodipodi-0.dtd"
   xmlns:inkscape="http://www.inkscape.org/namespaces/inkscape"
   version="1.1"
   id="svg10"
   xml:space="preserve"
   width="496"
   height="404"
   viewBox="0 0 496 404"
   sodipodi:docname="PiezzAuBot.svg"
   inkscape:version="1.0.1 (3bc2e813f5, 2020-09-07)"><metadata
     id="metadata16"><rdf:RDF><cc:Work
         rdf:about=""><dc:format>image/svg+xml</dc:format><dc:type
           rdf:resource="http://purl.org/dc/dcmitype/StillImage" /><dc:title></dc:title></cc:Work></rdf:RDF></metadata><defs
     id="defs14" /><sodipodi:namedview
     pagecolor="#ffffff"
     bordercolor="#666666"
     borderopacity="1"
     objecttolerance="10"
     gridtolerance="10"
     guidetolerance="10"
     inkscape:pageopacity="0"
     inkscape:pageshadow="2"
     inkscape:window-width="747"
     inkscape:window-height="480"
     id="namedview12"
     showgrid="false"
     inkscape:zoom="1.4207921"
     inkscape:cx="248"
     inkscape:cy="202"
     inkscape:window-x="0"
     inkscape:window-y="0"
     inkscape:window-maximized="0"
     inkscape:current-layer="g18" /><g
     id="g18"
     inkscape:groupmode="layer"
     inkscape:label="PiezzAuBot"
     transform="matrix(1.3333333,0,0,-1.3333333,0,404)"><g
       id="g20"
       transform="matrix(0.125,0,0,-0.125,0,303)"><g
         id="g22"
         transform="matrix(6,0,0,6,-157,-81.374977)"><path
           d="M 0,0 H 560 V 420 H 0 Z"
           style="fill:#ffffff;fill-opacity:1;fill-rule:nonzero;stroke:none"
           id="path24" /></g><g
         id="g26"
         transform="matrix(6,0,0,6,-157,-81.374977)"><path
           d="M 73,374 H 507 V 31 H 73 Z"
           style="fill:#ffffff;fill-opacity:1;fill-rule:nonzero;stroke:none"
           id="path28" /></g><g
         id="g30"
         transform="matrix(6,0,0,6,-157,-81.374977)"><path
           d="M 73,374 H 507"
           style="fill:none;stroke:#262626;stroke-width:0.666667;stroke-linecap:square;stroke-linejoin:round;stroke-miterlimit:10;stroke-dasharray:none;stroke-opacity:1"
           id="path32" /></g><g
         id="g34"
         transform="matrix(6,0,0,6,-157,-81.374977)"><path
           d="M 73,31 H 507"
           style="fill:none;stroke:#262626;stroke-width:0.666667;stroke-linecap:square;stroke-linejoin:round;stroke-miterlimit:10;stroke-dasharray:none;stroke-opacity:1"
           id="path36" /></g><g
         id="g38"
         transform="matrix(6,0,0,6,-157,-81.374977)"><path
           d="m 73,374 v -4.34"
           style="fill:none;stroke:#262626;stroke-width:0.666667;stroke-linecap:square;stroke-linejoin:round;stroke-miterlimit:10;stroke-dasharray:none;stroke-opacity:1"
           id="path40" /></g><g
         id="g42"
         transform="matrix(6,0,0,6,-157,-81.374977)"><path
           d="m 116.4,374 v -4.34"
           style="fill:none;stroke:#262626;stroke-width:0.666667;stroke-linecap:square;stroke-linejoin:round;stroke-miterlimit:10;stroke-dasharray:none;stroke-opacity:1"
           id="path44" /></g><g
         id="g46"
         transform="matrix(6,0,0,6,-157,-81.374977)"><path
           d="m 159.8,374 v -4.34"
           style="fill:none;stroke:#262626;stroke-width:0.666667;stroke-linecap:square;stroke-linejoin:round;stroke-miterlimit:10;stroke-dasharray:none;stroke-opacity:1"
           id="path48" /></g><g
         id="g50"
         transform="matrix(6,0,0,6,-157,-81.374977)"><path
           d="m 203.2,374 v -4.34"
           style="fill:none;stroke:#262626;stroke-width:0.666667;stroke-linecap:square;stroke-linejoin:round;stroke-miterlimit:10;stroke-dasharray:none;stroke-opacity:1"
           id="path52" /></g><g
         id="g54"
         transform="matrix(6,0,0,6,-157,-81.374977)"><path
           d="m 246.60001,374 v -4.34"
           style="fill:none;stroke:#262626;stroke-width:0.666667;stroke-linecap:square;stroke-linejoin:round;stroke-miterlimit:10;stroke-dasharray:none;stroke-opacity:1"
           id="path56" /></g><g
         id="g58"
         transform="matrix(6,0,0,6,-157,-81.374977)"><path
           d="m 290,374 v -4.34"
           style="fill:none;stroke:#262626;stroke-width:0.666667;stroke-linecap:square;stroke-linejoin:round;stroke-miterlimit:10;stroke-dasharray:none;stroke-opacity:1"
           id="path60" /></g><g
         id="g62"
         transform="matrix(6,0,0,6,-157,-81.374977)"><path
           d="m 333.39999,374 v -4.34"
           style="fill:none;stroke:#262626;stroke-width:0.666667;stroke-linecap:square;stroke-linejoin:round;stroke-miterlimit:10;stroke-dasharray:none;stroke-opacity:1"
           id="path64" /></g><g
         id="g66"
         transform="matrix(6,0,0,6,-157,-81.374977)"><path
           d="m 376.79999,374 v -4.34"
           style="fill:none;stroke:#262626;stroke-width:0.666667;stroke-linecap:square;stroke-linejoin:round;stroke-miterlimit:10;stroke-dasharray:none;stroke-opacity:1"
           id="path68" /></g><g
         id="g70"
         transform="matrix(6,0,0,6,-157,-81.374977)"><path
           d="m 420.20001,374 v -4.34"
           style="fill:none;stroke:#262626;stroke-width:0.666667;stroke-linecap:square;stroke-linejoin:round;stroke-miterlimit:10;stroke-dasharray:none;stroke-opacity:1"
           id="path72" /></g><g
         id="g74"
         transform="matrix(6,0,0,6,-157,-81.374977)"><path
           d="m 463.60001,374 v -4.34"
           style="fill:none;stroke:#262626;stroke-width:0.666667;stroke-linecap:square;stroke-linejoin:round;stroke-miterlimit:10;stroke-dasharray:none;stroke-opacity:1"
           id="path76" /></g><g
         id="g78"
         transform="matrix(6,0,0,6,-157,-81.374977)"><path
           d="m 507,374 v -4.34"
           style="fill:none;stroke:#262626;stroke-width:0.666667;stroke-linecap:square;stroke-linejoin:round;stroke-miterlimit:10;stroke-dasharray:none;stroke-opacity:1"
           id="path80" /></g><g
         id="g82"
         transform="matrix(6,0,0,6,-157,-81.374977)"><path
           d="m 73,31 v 4.339996"
           style="fill:none;stroke:#262626;stroke-width:0.666667;stroke-linecap:square;stroke-linejoin:round;stroke-miterlimit:10;stroke-dasharray:none;stroke-opacity:1"
           id="path84" /></g><g
         id="g86"
         transform="matrix(6,0,0,6,-157,-81.374977)"><path
           d="m 116.4,31 v 4.339996"
           style="fill:none;stroke:#262626;stroke-width:0.666667;stroke-linecap:square;stroke-linejoin:round;stroke-miterlimit:10;stroke-dasharray:none;stroke-opacity:1"
           id="path88" /></g><g
         id="g90"
         transform="matrix(6,0,0,6,-157,-81.374977)"><path
           d="m 159.8,31 v 4.339996"
           style="fill:none;stroke:#262626;stroke-width:0.666667;stroke-linecap:square;stroke-linejoin:round;stroke-miterlimit:10;stroke-dasharray:none;stroke-opacity:1"
           id="path92" /></g><g
         id="g94"
         transform="matrix(6,0,0,6,-157,-81.374977)"><path
           d="m 203.2,31 v 4.339996"
           style="fill:none;stroke:#262626;stroke-width:0.666667;stroke-linecap:square;stroke-linejoin:round;stroke-miterlimit:10;stroke-dasharray:none;stroke-opacity:1"
           id="path96" /></g><g
         id="g98"
         transform="matrix(6,0,0,6,-157,-81.374977)"><path
           d="m 246.60001,31 v 4.339996"
           style="fill:none;stroke:#262626;stroke-width:0.666667;stroke-linecap:square;stroke-linejoin:round;stroke-miterlimit:10;stroke-dasharray:none;stroke-opacity:1"
           id="path100" /></g><g
         id="g102"
         transform="matrix(6,0,0,6,-157,-81.374977)"><path
           d="m 290,31 v 4.339996"
           style="fill:none;stroke:#262626;stroke-width:0.666667;stroke-linecap:square;stroke-linejoin:round;stroke-miterlimit:10;stroke-dasharray:none;stroke-opacity:1"
           id="path104" /></g><g
         id="g106"
         transform="matrix(6,0,0,6,-157,-81.374977)"><path
           d="m 333.39999,31 v 4.339996"
           style="fill:none;stroke:#262626;stroke-width:0.666667;stroke-linecap:square;stroke-linejoin:round;stroke-miterlimit:10;stroke-dasharray:none;stroke-opacity:1"
           id="path108" /></g><g
         id="g110"
         transform="matrix(6,0,0,6,-157,-81.374977)"><path
           d="m 376.79999,31 v 4.339996"
           style="fill:none;stroke:#262626;stroke-width:0.666667;stroke-linecap:square;stroke-linejoin:round;stroke-miterlimit:10;stroke-dasharray:none;stroke-opacity:1"
           id="path112" /></g><g
         id="g114"
         transform="matrix(6,0,0,6,-157,-81.374977)"><path
           d="m 420.20001,31 v 4.339996"
           style="fill:none;stroke:#262626;stroke-width:0.666667;stroke-linecap:square;stroke-linejoin:round;stroke-miterlimit:10;stroke-dasharray:none;stroke-opacity:1"
           id="path116" /></g><g
         id="g118"
         transform="matrix(6,0,0,6,-157,-81.374977)"><path
           d="m 463.60001,31 v 4.339996"
           style="fill:none;stroke:#262626;stroke-width:0.666667;stroke-linecap:square;stroke-linejoin:round;stroke-miterlimit:10;stroke-dasharray:none;stroke-opacity:1"
           id="path120" /></g><g
         id="g122"
         transform="matrix(6,0,0,6,-157,-81.374977)"><path
           d="m 507,31 v 4.339996"
           style="fill:none;stroke:#262626;stroke-width:0.666667;stroke-linecap:square;stroke-linejoin:round;stroke-miterlimit:10;stroke-dasharray:none;stroke-opacity:1"
           id="path124" /></g><g
         id="g126"><g
           id="g128"
           transform="matrix(6,0,0,6,281,2194.6251)"><text
             transform="translate(-4,14)"
             style="font-variant:normal;font-weight:normal;font-size:13.333px;font-family:Helvetica;-inkscape-font-specification:Helvetica;writing-mode:lr-tb;fill:#262626;fill-opacity:1;fill-rule:nonzero;stroke:none"
             id="text132"><tspan
               x="0"
               y="0"
               id="tspan130">0</tspan></text></g></g><g
         id="g134"><g
           id="g136"
           transform="matrix(6,0,0,6,541.40001,2194.6251)"><text
             transform="translate(-11.5,14)"
             style="font-variant:normal;font-weight:normal;font-size:13.333px;font-family:Helvetica;-inkscape-font-specification:Helvetica;writing-mode:lr-tb;fill:#262626;fill-opacity:1;fill-rule:nonzero;stroke:none"
             id="text140"><tspan
               x="0 7.4131479 14.826296"
               y="0"
               sodipodi:role="line"
               id="tspan138">200</tspan></text></g></g><g
         id="g142"><g
           id="g144"
           transform="matrix(6,0,0,6,801.80002,2194.6251)"><text
             transform="translate(-11.5,14)"
             style="font-variant:normal;font-weight:normal;font-size:13.333px;font-family:Helvetica;-inkscape-font-specification:Helvetica;writing-mode:lr-tb;fill:#262626;fill-opacity:1;fill-rule:nonzero;stroke:none"
             id="text148"><tspan
               x="0 7.4131479 14.826296"
               y="0"
               sodipodi:role="line"
               id="tspan146">400</tspan></text></g></g><g
         id="g150"><g
           id="g152"
           transform="matrix(6,0,0,6,1062.2,2194.6251)"><text
             transform="translate(-11.5,14)"
             style="font-variant:normal;font-weight:normal;font-size:13.333px;font-family:Helvetica;-inkscape-font-specification:Helvetica;writing-mode:lr-tb;fill:#262626;fill-opacity:1;fill-rule:nonzero;stroke:none"
             id="text156"><tspan
               x="0 7.4131479 14.826296"
               y="0"
               sodipodi:role="line"
               id="tspan154">600</tspan></text></g></g><g
         id="g158"><g
           id="g160"
           transform="matrix(6,0,0,6,1322.6,2194.6251)"><text
             transform="translate(-11.5,14)"
             style="font-variant:normal;font-weight:normal;font-size:13.333px;font-family:Helvetica;-inkscape-font-specification:Helvetica;writing-mode:lr-tb;fill:#262626;fill-opacity:1;fill-rule:nonzero;stroke:none"
             id="text164"><tspan
               x="0 7.4131479 14.826296"
               y="0"
               sodipodi:role="line"
               id="tspan162">800</tspan></text></g></g><g
         id="g166"><g
           id="g168"
           transform="matrix(6,0,0,6,1583,2194.6251)"><text
             transform="translate(-15,14)"
             style="font-variant:normal;font-weight:normal;font-size:13.333px;font-family:Helvetica;-inkscape-font-specification:Helvetica;writing-mode:lr-tb;fill:#262626;fill-opacity:1;fill-rule:nonzero;stroke:none"
             id="text172"><tspan
               x="0 7.4131479 14.826296 22.239445"
               y="0"
               sodipodi:role="line"
               id="tspan170">1000</tspan></text></g></g><g
         id="g174"><g
           id="g176"
           transform="matrix(6,0,0,6,1843.4,2194.6251)"><text
             transform="translate(-15,14)"
             style="font-variant:normal;font-weight:normal;font-size:13.333px;font-family:Helvetica;-inkscape-font-specification:Helvetica;writing-mode:lr-tb;fill:#262626;fill-opacity:1;fill-rule:nonzero;stroke:none"
             id="text180"><tspan
               x="0 7.4131479 14.826296 22.239445"
               y="0"
               sodipodi:role="line"
               id="tspan178">1200</tspan></text></g></g><g
         id="g182"><g
           id="g184"
           transform="matrix(6,0,0,6,2103.7999,2194.6251)"><text
             transform="translate(-15,14)"
             style="font-variant:normal;font-weight:normal;font-size:13.333px;font-family:Helvetica;-inkscape-font-specification:Helvetica;writing-mode:lr-tb;fill:#262626;fill-opacity:1;fill-rule:nonzero;stroke:none"
             id="text188"><tspan
               x="0 7.4131479 14.826296 22.239445"
               y="0"
               sodipodi:role="line"
               id="tspan186">1400</tspan></text></g></g><g
         id="g190"><g
           id="g192"
           transform="matrix(6,0,0,6,2364.2001,2194.6251)"><text
             transform="translate(-15,14)"
             style="font-variant:normal;font-weight:normal;font-size:13.333px;font-family:Helvetica;-inkscape-font-specification:Helvetica;writing-mode:lr-tb;fill:#262626;fill-opacity:1;fill-rule:nonzero;stroke:none"
             id="text196"><tspan
               x="0 7.4131479 14.826296 22.239445"
               y="0"
               sodipodi:role="line"
               id="tspan194">1600</tspan></text></g></g><g
         id="g198"><g
           id="g200"
           transform="matrix(6,0,0,6,2624.6,2194.6251)"><text
             transform="translate(-15,14)"
             style="font-variant:normal;font-weight:normal;font-size:13.333px;font-family:Helvetica;-inkscape-font-specification:Helvetica;writing-mode:lr-tb;fill:#262626;fill-opacity:1;fill-rule:nonzero;stroke:none"
             id="text204"><tspan
               x="0 7.4131479 14.826296 22.239445"
               y="0"
               sodipodi:role="line"
               id="tspan202">1800</tspan></text></g></g><g
         id="g206"><g
           id="g208"
           transform="matrix(6,0,0,6,2885,2194.6251)"><text
             transform="translate(-15,14)"
             style="font-variant:normal;font-weight:normal;font-size:13.333px;font-family:Helvetica;-inkscape-font-specification:Helvetica;writing-mode:lr-tb;fill:#262626;fill-opacity:1;fill-rule:nonzero;stroke:none"
             id="text212"><tspan
               x="0 7.4131479 14.826296 22.239445"
               y="0"
               sodipodi:role="line"
               id="tspan210">2000</tspan></text></g></g><g
         id="g214"><g
           id="g216"
           transform="matrix(6,0,0,6,1583.0013,2304.625)"><text
             transform="translate(-48.5,15)"
             style="font-variant:normal;font-weight:normal;font-size:14.667px;font-family:Helvetica;-inkscape-font-specification:Helvetica;writing-mode:lr-tb;fill:#262626;fill-opacity:1;fill-rule:nonzero;stroke:none"
             id="text220"><tspan
               x="0 8.9615374 13.845648 22.0005 30.155352 38.310204 46.465057 54.619907 61.953407 69.286911 74.171021 84.76059 92.094093"
               y="0"
               sodipodi:role="line"
               id="tspan218">Frequency(Hz)</tspan></text></g></g><g
         id="g222"
         transform="matrix(6,0,0,6,-157,-81.374977)"><path
           d="M 73,374 V 31"
           style="fill:none;stroke:#262626;stroke-width:0.666667;stroke-linecap:square;stroke-linejoin:round;stroke-miterlimit:10;stroke-dasharray:none;stroke-opacity:1"
           id="path224" /></g><g
         id="g226"
         transform="matrix(6,0,0,6,-157,-81.374977)"><path
           d="M 507,374 V 31"
           style="fill:none;stroke:#262626;stroke-width:0.666667;stroke-linecap:square;stroke-linejoin:round;stroke-miterlimit:10;stroke-dasharray:none;stroke-opacity:1"
           id="path228" /></g><g
         id="g230"
         transform="matrix(6,0,0,6,-157,-81.374977)"><path
           d="m 73,374 h 4.339996"
           style="fill:none;stroke:#262626;stroke-width:0.666667;stroke-linecap:square;stroke-linejoin:round;stroke-miterlimit:10;stroke-dasharray:none;stroke-opacity:1"
           id="path232" /></g><g
         id="g234"
         transform="matrix(6,0,0,6,-157,-81.374977)"><path
           d="m 73,339.70001 h 4.339996"
           style="fill:none;stroke:#262626;stroke-width:0.666667;stroke-linecap:square;stroke-linejoin:round;stroke-miterlimit:10;stroke-dasharray:none;stroke-opacity:1"
           id="path236" /></g><g
         id="g238"
         transform="matrix(6,0,0,6,-157,-81.374977)"><path
           d="m 73,305.39999 h 4.339996"
           style="fill:none;stroke:#262626;stroke-width:0.666667;stroke-linecap:square;stroke-linejoin:round;stroke-miterlimit:10;stroke-dasharray:none;stroke-opacity:1"
           id="path240" /></g><g
         id="g242"
         transform="matrix(6,0,0,6,-157,-81.374977)"><path
           d="m 73,271.10001 h 4.339996"
           style="fill:none;stroke:#262626;stroke-width:0.666667;stroke-linecap:square;stroke-linejoin:round;stroke-miterlimit:10;stroke-dasharray:none;stroke-opacity:1"
           id="path244" /></g><g
         id="g246"
         transform="matrix(6,0,0,6,-157,-81.374977)"><path
           d="m 73,236.8 h 4.339996"
           style="fill:none;stroke:#262626;stroke-width:0.666667;stroke-linecap:square;stroke-linejoin:round;stroke-miterlimit:10;stroke-dasharray:none;stroke-opacity:1"
           id="path248" /></g><g
         id="g250"
         transform="matrix(6,0,0,6,-157,-81.374977)"><path
           d="m 73,202.5 h 4.339996"
           style="fill:none;stroke:#262626;stroke-width:0.666667;stroke-linecap:square;stroke-linejoin:round;stroke-miterlimit:10;stroke-dasharray:none;stroke-opacity:1"
           id="path252" /></g><g
         id="g254"
         transform="matrix(6,0,0,6,-157,-81.374977)"><path
           d="m 73,168.2 h 4.339996"
           style="fill:none;stroke:#262626;stroke-width:0.666667;stroke-linecap:square;stroke-linejoin:round;stroke-miterlimit:10;stroke-dasharray:none;stroke-opacity:1"
           id="path256" /></g><g
         id="g258"
         transform="matrix(6,0,0,6,-157,-81.374977)"><path
           d="m 73,133.89999 h 4.339996"
           style="fill:none;stroke:#262626;stroke-width:0.666667;stroke-linecap:square;stroke-linejoin:round;stroke-miterlimit:10;stroke-dasharray:none;stroke-opacity:1"
           id="path260" /></g><g
         id="g262"
         transform="matrix(6,0,0,6,-157,-81.374977)"><path
           d="m 73,99.599998 h 4.339996"
           style="fill:none;stroke:#262626;stroke-width:0.666667;stroke-linecap:square;stroke-linejoin:round;stroke-miterlimit:10;stroke-dasharray:none;stroke-opacity:1"
           id="path264" /></g><g
         id="g266"
         transform="matrix(6,0,0,6,-157,-81.374977)"><path
           d="m 73,65.300003 h 4.339996"
           style="fill:none;stroke:#262626;stroke-width:0.666667;stroke-linecap:square;stroke-linejoin:round;stroke-miterlimit:10;stroke-dasharray:none;stroke-opacity:1"
           id="path268" /></g><g
         id="g270"
         transform="matrix(6,0,0,6,-157,-81.374977)"><path
           d="m 73,31 h 4.339996"
           style="fill:none;stroke:#262626;stroke-width:0.666667;stroke-linecap:square;stroke-linejoin:round;stroke-miterlimit:10;stroke-dasharray:none;stroke-opacity:1"
           id="path272" /></g><g
         id="g274"
         transform="matrix(6,0,0,6,-157,-81.374977)"><path
           d="m 507,374 h -4.34"
           style="fill:none;stroke:#262626;stroke-width:0.666667;stroke-linecap:square;stroke-linejoin:round;stroke-miterlimit:10;stroke-dasharray:none;stroke-opacity:1"
           id="path276" /></g><g
         id="g278"
         transform="matrix(6,0,0,6,-157,-81.374977)"><path
           d="m 507,339.70001 h -4.34"
           style="fill:none;stroke:#262626;stroke-width:0.666667;stroke-linecap:square;stroke-linejoin:round;stroke-miterlimit:10;stroke-dasharray:none;stroke-opacity:1"
           id="path280" /></g><g
         id="g282"
         transform="matrix(6,0,0,6,-157,-81.374977)"><path
           d="m 507,305.39999 h -4.34"
           style="fill:none;stroke:#262626;stroke-width:0.666667;stroke-linecap:square;stroke-linejoin:round;stroke-miterlimit:10;stroke-dasharray:none;stroke-opacity:1"
           id="path284" /></g><g
         id="g286"
         transform="matrix(6,0,0,6,-157,-81.374977)"><path
           d="m 507,271.10001 h -4.34"
           style="fill:none;stroke:#262626;stroke-width:0.666667;stroke-linecap:square;stroke-linejoin:round;stroke-miterlimit:10;stroke-dasharray:none;stroke-opacity:1"
           id="path288" /></g><g
         id="g290"
         transform="matrix(6,0,0,6,-157,-81.374977)"><path
           d="m 507,236.8 h -4.34"
           style="fill:none;stroke:#262626;stroke-width:0.666667;stroke-linecap:square;stroke-linejoin:round;stroke-miterlimit:10;stroke-dasharray:none;stroke-opacity:1"
           id="path292" /></g><g
         id="g294"
         transform="matrix(6,0,0,6,-157,-81.374977)"><path
           d="m 507,202.5 h -4.34"
           style="fill:none;stroke:#262626;stroke-width:0.666667;stroke-linecap:square;stroke-linejoin:round;stroke-miterlimit:10;stroke-dasharray:none;stroke-opacity:1"
           id="path296" /></g><g
         id="g298"
         transform="matrix(6,0,0,6,-157,-81.374977)"><path
           d="m 507,168.2 h -4.34"
           style="fill:none;stroke:#262626;stroke-width:0.666667;stroke-linecap:square;stroke-linejoin:round;stroke-miterlimit:10;stroke-dasharray:none;stroke-opacity:1"
           id="path300" /></g><g
         id="g302"
         transform="matrix(6,0,0,6,-157,-81.374977)"><path
           d="m 507,133.89999 h -4.34"
           style="fill:none;stroke:#262626;stroke-width:0.666667;stroke-linecap:square;stroke-linejoin:round;stroke-miterlimit:10;stroke-dasharray:none;stroke-opacity:1"
           id="path304" /></g><g
         id="g306"
         transform="matrix(6,0,0,6,-157,-81.374977)"><path
           d="m 507,99.599998 h -4.34"
           style="fill:none;stroke:#262626;stroke-width:0.666667;stroke-linecap:square;stroke-linejoin:round;stroke-miterlimit:10;stroke-dasharray:none;stroke-opacity:1"
           id="path308" /></g><g
         id="g310"
         transform="matrix(6,0,0,6,-157,-81.374977)"><path
           d="m 507,65.300003 h -4.34"
           style="fill:none;stroke:#262626;stroke-width:0.666667;stroke-linecap:square;stroke-linejoin:round;stroke-miterlimit:10;stroke-dasharray:none;stroke-opacity:1"
           id="path312" /></g><g
         id="g314"
         transform="matrix(6,0,0,6,-157,-81.374977)"><path
           d="m 507,31 h -4.34"
           style="fill:none;stroke:#262626;stroke-width:0.666667;stroke-linecap:square;stroke-linejoin:round;stroke-miterlimit:10;stroke-dasharray:none;stroke-opacity:1"
           id="path316" /></g><g
         id="g318"><g
           id="g320"
           transform="matrix(6,0,0,6,248.99998,2162.625)"><text
             transform="translate(-8,5.5)"
             style="font-variant:normal;font-weight:normal;font-size:13.333px;font-family:Helvetica;-inkscape-font-specification:Helvetica;writing-mode:lr-tb;fill:#262626;fill-opacity:1;fill-rule:nonzero;stroke:none"
             id="text324"><tspan
               x="0"
               y="0"
               id="tspan322">0</tspan></text></g></g><g
         id="g326"><g
           id="g328"
           transform="matrix(6,0,0,6,248.99998,1956.8251)"><text
             transform="translate(-15,5.5)"
             style="font-variant:normal;font-weight:normal;font-size:13.333px;font-family:Helvetica;-inkscape-font-specification:Helvetica;writing-mode:lr-tb;fill:#262626;fill-opacity:1;fill-rule:nonzero;stroke:none"
             id="text332"><tspan
               x="0 7.4131479"
               y="0"
               sodipodi:role="line"
               id="tspan330">10</tspan></text></g></g><g
         id="g334"><g
           id="g336"
           transform="matrix(6,0,0,6,248.99998,1751.025)"><text
             transform="translate(-15,5.5)"
             style="font-variant:normal;font-weight:normal;font-size:13.333px;font-family:Helvetica;-inkscape-font-specification:Helvetica;writing-mode:lr-tb;fill:#262626;fill-opacity:1;fill-rule:nonzero;stroke:none"
             id="text340"><tspan
               x="0 7.4131479"
               y="0"
               sodipodi:role="line"
               id="tspan338">20</tspan></text></g></g><g
         id="g342"><g
           id="g344"
           transform="matrix(6,0,0,6,248.99998,1545.2251)"><text
             transform="translate(-15,5.5)"
             style="font-variant:normal;font-weight:normal;font-size:13.333px;font-family:Helvetica;-inkscape-font-specification:Helvetica;writing-mode:lr-tb;fill:#262626;fill-opacity:1;fill-rule:nonzero;stroke:none"
             id="text348"><tspan
               x="0 7.4131479"
               y="0"
               sodipodi:role="line"
               id="tspan346">30</tspan></text></g></g><g
         id="g350"><g
           id="g352"
           transform="matrix(6,0,0,6,248.99998,1339.425)"><text
             transform="translate(-15,5.5)"
             style="font-variant:normal;font-weight:normal;font-size:13.333px;font-family:Helvetica;-inkscape-font-specification:Helvetica;writing-mode:lr-tb;fill:#262626;fill-opacity:1;fill-rule:nonzero;stroke:none"
             id="text356"><tspan
               x="0 7.4131479"
               y="0"
               sodipodi:role="line"
               id="tspan354">40</tspan></text></g></g><g
         id="g358"><g
           id="g360"
           transform="matrix(6,0,0,6,248.99998,1133.625)"><text
             transform="translate(-15,5.5)"
             style="font-variant:normal;font-weight:normal;font-size:13.333px;font-family:Helvetica;-inkscape-font-specification:Helvetica;writing-mode:lr-tb;fill:#262626;fill-opacity:1;fill-rule:nonzero;stroke:none"
             id="text364"><tspan
               x="0 7.4131479"
               y="0"
               sodipodi:role="line"
               id="tspan362">50</tspan></text></g></g><g
         id="g366"><g
           id="g368"
           transform="matrix(6,0,0,6,248.99998,927.825)"><text
             transform="translate(-15,5.5)"
             style="font-variant:normal;font-weight:normal;font-size:13.333px;font-family:Helvetica;-inkscape-font-specification:Helvetica;writing-mode:lr-tb;fill:#262626;fill-opacity:1;fill-rule:nonzero;stroke:none"
             id="text372"><tspan
               x="0 7.4131479"
               y="0"
               sodipodi:role="line"
               id="tspan370">60</tspan></text></g></g><g
         id="g374"><g
           id="g376"
           transform="matrix(6,0,0,6,248.99998,722.02499)"><text
             transform="translate(-15,5.5)"
             style="font-variant:normal;font-weight:normal;font-size:13.333px;font-family:Helvetica;-inkscape-font-specification:Helvetica;writing-mode:lr-tb;fill:#262626;fill-opacity:1;fill-rule:nonzero;stroke:none"
             id="text380"><tspan
               x="0 7.4131479"
               y="0"
               sodipodi:role="line"
               id="tspan378">70</tspan></text></g></g><g
         id="g382"><g
           id="g384"
           transform="matrix(6,0,0,6,248.99998,516.22501)"><text
             transform="translate(-15,5.5)"
             style="font-variant:normal;font-weight:normal;font-size:13.333px;font-family:Helvetica;-inkscape-font-specification:Helvetica;writing-mode:lr-tb;fill:#262626;fill-opacity:1;fill-rule:nonzero;stroke:none"
             id="text388"><tspan
               x="0 7.4131479"
               y="0"
               sodipodi:role="line"
               id="tspan386">80</tspan></text></g></g><g
         id="g390"><g
           id="g392"
           transform="matrix(6,0,0,6,248.99998,310.42504)"><text
             transform="translate(-15,5.5)"
             style="font-variant:normal;font-weight:normal;font-size:13.333px;font-family:Helvetica;-inkscape-font-specification:Helvetica;writing-mode:lr-tb;fill:#262626;fill-opacity:1;fill-rule:nonzero;stroke:none"
             id="text396"><tspan
               x="0 7.4131479"
               y="0"
               sodipodi:role="line"
               id="tspan394">90</tspan></text></g></g><g
         id="g398"><g
           id="g400"
           transform="matrix(6,0,0,6,248.99998,104.62502)"><text
             transform="translate(-23,5.5)"
             style="font-variant:normal;font-weight:normal;font-size:13.333px;font-family:Helvetica;-inkscape-font-specification:Helvetica;writing-mode:lr-tb;fill:#262626;fill-opacity:1;fill-rule:nonzero;stroke:none"
             id="text404"><tspan
               x="0 7.4131479 14.826296"
               y="0"
               sodipodi:role="line"
               id="tspan402">100</tspan></text></g></g><g
         id="g406"><g
           id="g408"
           transform="matrix(-2.6e-7,-6,6,-2.6e-7,87.000008,1133.6241)"><text
             transform="translate(-33,-4)"
             style="font-variant:normal;font-weight:normal;font-size:14.667px;font-family:Helvetica;-inkscape-font-specification:Helvetica;writing-mode:lr-tb;fill:#262626;fill-opacity:1;fill-rule:nonzero;stroke:none"
             id="text412"><tspan
               x="0 9.7828894 22.0005 30.155352 33.411427 36.6675 40.744926 48.899776 57.05463"
               y="0"
               sodipodi:role="line"
               id="tspan410">Amplitude</tspan></text></g></g><g
         id="g414"><g
           id="g416"
           transform="matrix(6,0,0,6,1583.0016,88.125)"><text
             transform="translate(-173.5,-4)"
             style="font-variant:normal;font-weight:bold;font-size:14.667px;font-family:Helvetica;-inkscape-font-specification:Helvetica-Bold;writing-mode:lr-tb;fill:#000000;fill-opacity:1;fill-rule:nonzero;stroke:none"
             id="text420"><tspan
               x="0 9.7828894 18.744427 26.899279 35.054131 39.93824 45.643703 54.60524 67.644203 71.721626 80.683167 85.567276 89.644707 94.528816 103.49035 111.6452 115.72263 120.60674 129.56828 135.27374 143.42859 151.58345 155.66087 166.25044 175.21198 180.0961 184.98021 189.05763 197.21248 205.36734 209.44476 213.52219 221.67703 234.716 242.87085 246.94827 251.02571 255.10313 264.88602 268.96344 277.11829 284.45181 293.41333 303.19623 307.27365 315.4285 323.58334 328.46747 334.17294 338.25037"
               y="0"
               sodipodi:role="line"
               id="tspan418">Spectrum of the three Bottles, small PiezoElectric</tspan></text></g></g><g
         id="g422"
         transform="matrix(6,0,0,6,-157,-81.374977)"><path
           d="m 73.847656,372.15503 0.847656,-3.36093 0.847657,-0.19165 0.847656,0.76962 0.847656,-0.207 0.847656,-0.81833 0.847657,-1.50577 0.847656,-1.12634 0.847656,-0.32468 0.847656,0.0489 0.847657,-1.87396 0.847656,-0.83191 0.847656,-3.40158 0.847656,7.88449 0.847657,0.99628 0.847656,0.1116 0.847656,-2.33884 0.847656,-1.22811 0.847657,-0.72144 0.847656,0.0485 0.847656,2.98755 0.847656,-5.43649 0.847657,-1.33515 0.847656,1.85517 0.847656,-0.94141 0.847656,0.69074 0.847657,-0.36322 0.847656,2.36087 0.847656,4.27191 0.847656,1.83237 0.847657,0.44366 0.847656,-1.01895 0.84766,-0.54169 0.84765,2.88251 0.84766,-3.61188 0.84766,-2.84741 0.84765,-3.65372 0.84766,-2.43274 0.84765,-7.77844 0.84766,-5.04257 0.84766,-5.20224 0.84765,3.73651 0.84766,18.14981 0.84766,-15.2095 0.84765,10.30645 0.84766,-10.11395 0.84765,8.74875 0.84766,2.84869 0.84766,-11.30322 0.84765,-4.84344 0.84766,-0.53821 0.84766,-3.03885 0.84765,-1.29242 0.84766,1.37097 0.84765,7.05933 0.84766,8.75656 0.84766,-0.40778 0.84765,-5.89251 0.84766,-10.26874 0.84765,-8.33591 0.84766,-0.68338 0.84766,4.37708 0.84765,5.65796 0.84766,6.89917 0.84766,3.4992 0.84765,1.19574 0.84766,-9.37555 0.84765,14.33292 0.84766,9.27591 0.84766,-0.25 0.84765,-1.07608 0.84766,2.01907 0.84766,2.46353 0.84765,0.13166 0.84766,-0.0377 0.84765,1.69485 0.84766,-2.55905 0.84766,-2.05701 0.84765,-0.98367 0.84766,-1.56522 0.84766,-1.3666 0.84765,-1.5141 0.84766,-1.06531 0.84765,-0.76657 0.84766,-1.05255 0.84766,-1.28626 0.84765,-0.38281 0.84766,1.14944 0.84766,1.98532 0.84765,2.42057 0.84766,2.72293 0.84765,0.86374 0.84766,2.60373 0.84766,0.26501 0.84765,0.13641 0.84766,-0.19714 0.84766,-0.97214 0.84765,-0.82174 0.84766,-1.28604 0.84765,-2.42872 0.84766,-2.38958 0.84766,0.78372 0.84765,-2.57034 0.84766,-4.02451 0.84766,-2.43567 0.84765,-3.46753 0.84766,-6.11572 0.84765,-4.72348 0.84766,-4.56354 0.84766,-3.84305 0.84765,-0.15362 0.84766,2.01196 0.84766,-2.71619 0.84765,-6.93121 0.84766,-0.14392 0.84766,33.41992 0.84765,-0.43313 0.84766,-1.39926 0.84765,-0.0504 0.84766,1.60666 0.84766,2.49347 0.84765,1.94208 0.84766,1.52398 0.84765,3.53504 0.84766,3.08682 0.84766,2.28998 0.84765,-1.07563 0.84766,-4.17102 0.84766,-1.94186 0.84765,-3.94501 0.84766,-0.0417 0.84765,-1.54925 0.84766,0.0351 0.84766,0.16883 0.84765,-1.05188 0.84766,1.70736 0.84766,0.65928 0.84765,-1.8122 0.84766,-5.1499 0.84765,-4.81391 0.84766,-3.14779 0.84766,-0.55203 0.84765,-1.58829 0.84766,9.57104 0.84766,6.23697 0.84765,2.24826 0.84766,2.47598 0.84765,4.15271 0.84766,2.5759 0.84766,0.92822 0.84765,-2.63357 0.84766,-2.04257 0.84766,-0.46009 0.84765,2.24991 0.84766,-0.4743 0.84765,-0.0513 0.84766,0.79864 0.84766,-1.59295 0.84765,-4.07294 0.84766,-7.60114 0.84766,1.16053 0.84765,1.53454 0.84766,-5.70999 0.84765,-0.58212 0.84766,1.42236 0.84766,1.45398 0.84765,2.79862 0.84766,-2.92838 0.84766,-17.21671 0.84765,-23.01498 0.84766,-3.55386 0.84765,21.29681 0.84766,1.31064 0.84766,8.53351 0.84765,4.85757 0.84766,12.8042 0.84766,-9.57113 0.84765,18.0035 0.84766,6.08619 0.84765,-0.85605 0.84766,0.44458 0.84766,1.0859 0.84765,-0.0677 0.84766,-0.0723 0.84766,-0.3418 0.84765,0.14765 0.84766,-2.29715 0.84765,-9.15317 0.84766,-7.60101 0.84766,-4.24176 0.84765,-0.44629 0.84766,-0.87616 0.84766,1.13333 0.84765,1.52289 0.84766,9.13495 0.84765,8.86773 0.84766,-2.15069 0.84766,-1.69968 0.84765,-0.49615 0.84766,0.65637 0.84766,-0.79166 0.84765,2.80307 0.84766,0.70017 0.84765,-0.77854 0.84766,-0.26745 0.84766,2.89004 0.84765,3.46722 0.84766,-5.58706 0.84766,-6.35214 0.84765,-1.6424 0.84766,1.33734 0.84765,1.28534 0.84766,6.31726 0.84766,0.58084 0.84765,-10.15265 0.84766,-10.40106 0.84766,-6.36642 0.84765,-3.78028 0.84766,-2.76992 0.84765,-2.53354 0.84766,-1.05677 0.84766,3.28006 0.84765,22.00348 0.84766,0.96784 0.84766,-3.36548 0.84765,1.66586 0.84766,2.16489 0.84765,1.05997 0.84766,1.23632 0.84766,-1.29736 0.84765,-1.68127 0.84766,-1.84394 0.84766,0.70276 0.84765,7.59714 0.84766,-7.36761 0.84765,-1.62085 0.84766,-10.9777 0.84766,0.98652 0.84765,1.31527 0.84766,1.86643 0.84766,0.8594 0.84765,-2.55185 0.84766,-2.83163 0.84765,-2.98551 0.84766,-3.70828 0.84766,-1.11758 0.84765,-1.04108 0.84766,-0.60773 0.84766,2.41269 0.84765,4.52491 0.84766,11.14468 0.84765,-5.29437 0.84766,-14.11396 0.84766,-4.91723 0.84765,-2.29163 0.84766,0.61817 0.84766,-0.0792 0.84765,5.69144 0.84766,3.76114 0.84765,0.86761 0.84766,7.20523 0.84766,20.78238 0.84765,-42.18078 0.84766,-3.75571 0.84766,8.82517 0.84765,6.19894 0.84766,7.89502 0.84765,4.53299 0.84766,15.68719 0.84766,6.47107 0.84765,-9.71823 0.84766,5.6041 0.84766,7.56826 0.84765,-0.002 0.84766,-0.62561 0.84765,-1.43061 0.84766,-2.79477 0.84766,-0.44323 0.84765,-0.62552 0.84766,-1.065 0.84766,-1.71863 0.84765,-2.56867 0.84766,0.0472 0.84765,-0.65301 0.84766,-0.89408 0.84766,0.74027 0.84765,2.66635 0.84766,1.31381 0.84766,-0.39004 0.84765,-2.24524 0.84766,0.87686 0.84765,6.69788 0.84766,4.35492 0.84766,-5.97818 0.84765,-7.30491 0.84766,-1.61102 0.84766,3.61621 0.84765,-1.5769 0.84766,-1.8179 0.84765,0.27005 0.84766,-0.13871 0.84766,1.12241 0.84765,-1.07053 0.84766,0.30829 0.84766,0.90396 0.84765,0.29584 0.84766,-2.10055 0.84765,-0.35956 0.84766,-1.91074 0.84766,-1.41159 0.84765,-0.0413 0.84766,0.42651 0.84766,2.68717 0.84765,3.43472 0.84766,1.84714 0.84765,0.19147 0.84766,-0.66965 0.84766,-0.2446 0.84765,-0.53207 0.84766,-0.89966 0.84766,-2.48804 0.84765,-0.063 0.84766,2.79459 0.84766,3.61285 0.84765,4.10633 0.84766,4.56695 0.84765,-6.54095 0.84766,-2.16379 0.84766,-4.13544 0.84765,-0.94085 0.84766,0.31359 0.84765,2.83951 0.84766,0.37494 0.84766,-0.87775 0.84765,-1.24609 0.84766,-3.15817 0.84766,-3.07495 0.84765,-2.86869 0.84766,-2.5151 0.84765,-2.02988 0.84766,-0.85882 0.84766,-1.52494 0.84765,-0.50567 0.84766,-3.29538 0.84766,-4.12119 0.84765,-3.95047 0.84766,-1.57071 0.84765,0.74011 0.84766,3.34882 0.84766,2.12677 0.84765,10.84351 0.84766,-1.85877 0.84766,2.57254 0.84765,2.05124 0.84766,0.14536 0.84765,-2.07218 0.84766,1.51908 0.84766,14.58148 0.84765,-0.80387 0.84766,-1.78378 0.84766,-2.45413 0.84765,5.47296 0.84766,-2.5459 0.84765,3.74042 0.84766,2.39542 0.84766,0.96441 0.84765,1.89823 0.84766,-0.22327 0.84766,-0.33295 0.84765,-3.60547 0.84766,-0.8771 0.84765,0.97073 0.84766,-0.25882 0.84766,-1.67743 0.84765,-0.89792 0.84766,1.51801 0.84766,-0.37372 0.84765,-2.10705 0.84766,-1.57911 0.84765,-1.36312 0.84766,-0.99674 0.84766,2.19281 0.84765,4.4971 0.84766,1.04648 0.84766,1.90805 0.84765,0.39053 0.84766,0.59055 0.84765,1.30878 0.84766,-1.84241 0.84766,-6.67978 0.84765,0.57538 0.84766,-1.56418 0.84766,-2.89563 0.84765,-1.62549 0.84766,-2.25455 0.84765,-0.72949 0.84766,-0.48614 0.84766,-0.81922 0.84765,-3.91906 0.84766,-4.29068 0.84766,0.48202 0.84765,1.66092 0.84766,-1.3258 0.84765,0.18133 0.84766,2.06641 0.84766,3.95532 0.84765,3.68655 0.84766,4.07804 0.84766,2.92846 0.84765,5.56183 0.84766,0.35187 0.84765,2.88284 0.84766,-3.17621 0.84766,-4.03659 0.84765,-5.30182 0.84766,-5.27893 0.84766,-6.13998 0.84765,-0.70078 0.84766,-2.7283 0.84765,-3.90436 0.84766,-4.03689 0.84766,-3.995 0.84765,-5.02581 0.84766,-2.62494 0.84766,-2.47663 0.84765,-3.03775 0.84766,1.93701 0.84765,9.70139 0.84766,16.11038 0.84766,6.76667 0.84765,5.78125 0.84766,7.45248 0.84766,-1.13339 0.84765,-1.41776 0.84766,-0.4432 0.84765,4.8825 0.84766,-0.30011 0.84766,-4.57449 0.84765,0.84766 0.84766,1.31582 0.84766,0.16199 0.84765,2.38141 0.84766,-0.52411 0.84765,-10.56403 0.84766,4.8454 0.84766,3.40115 0.84765,2.16828 0.84766,1.26028 0.84766,-3.39279 0.84765,-2.22916 0.84766,0.38718 0.84766,-1.58719 0.84765,-1.75793 0.84766,-3.81415 0.84765,-2.71872 0.84766,-1.92523 0.84766,-3.09534 0.84765,-1.97845 0.84766,-7.38266 0.84765,0.10473 0.84766,2.87046 0.84766,4.25567 0.84765,1.47241 0.84766,1.99204 0.84766,5.41891 0.84765,8.89902 0.84766,4.78082 0.84765,-1.8168 0.84766,-0.83545 0.84766,-1.64181 0.84765,0.18832 0.84766,-0.46527 0.84766,-1.84421 0.84765,-0.66119 0.84766,-0.0815 0.84765,-2.04615 0.84766,-1.55401 0.84766,-1.61859 0.84765,1.03973 0.84766,1.29666 0.84766,-0.91635 0.84765,-1.45331 0.84766,-1.04553 0.84765,-8.92468 0.84766,5.24151 0.84766,3.87717 0.84765,2.04715 0.84766,-0.99225 0.84766,-1.23825 0.84765,-0.94955 0.84766,-0.0751 0.84765,1.3613 0.84766,-2.29877 0.84766,-1.81744 0.84765,-0.88782 0.84766,-2.67978 0.84766,-2.86215 0.84765,-2.5513 0.84766,-1.38828 0.84765,-4.71939 0.84766,-11.41116 0.84766,-2.73087 0.84765,5.47818 0.84766,8.34543 0.84766,9.077 0.84765,4.89044 0.84766,10.31827 0.84765,0.0988 0.84766,-2.51007 0.84766,3.30948 0.84765,5.14505 0.84766,-1.1178"
           style="fill:none;stroke:#0000ff;stroke-width:0.666667;stroke-linecap:butt;stroke-linejoin:round;stroke-miterlimit:10;stroke-dasharray:none;stroke-opacity:1"
           id="path424" /></g><g
         id="g426"
         transform="matrix(6,0,0,6,-157,-81.374977)"><path
           d="m 73.847656,367.1893 0.847656,-7.43228 0.847657,-0.30341 0.847656,0.31577 0.847656,0.74417 0.847656,1.46539 0.847657,0.5925 0.847656,-0.36151 0.847656,-0.005 0.847656,0.0532 0.847657,-0.67297 0.847656,-1.36563 0.847656,-7.36408 0.847656,3.78098 0.847657,-0.67114 0.847656,-1.33396 0.847656,0.38281 0.847656,0.0776 0.847657,-1.28033 0.847656,3.10684 0.847656,3.67135 0.847656,3.8545 0.847657,-2.31559 0.847656,-5.24777 0.847656,-8.4562 0.847656,-9.41681 0.847657,-5.32026 0.847656,-2.03042 0.847656,3.52884 0.847656,8.37716 0.847657,10.87558 0.847656,7.76358 0.84766,-1.05462 0.84765,-1.30435 0.84766,0.37286 0.84766,-0.15591 0.84765,-2.18494 0.84766,-0.99628 0.84765,-1.40112 0.84766,-2.23972 0.84766,-2.55178 0.84765,-0.91831 0.84766,-7.09579 0.84766,-2.7984 0.84765,2.92114 0.84766,-5.06159 0.84765,-1.29409 0.84766,0.59478 0.84766,5.46152 0.84765,7.95496 0.84766,6.78811 0.84766,2.12982 0.84765,-1.35125 0.84766,-3.80606 0.84765,-3.71549 0.84766,-2.35428 0.84766,0.43616 0.84765,-0.86432 0.84766,0.18714 0.84765,1.00177 0.84766,2.58538 0.84766,0.95295 0.84765,2.27606 0.84766,0.42096 0.84766,-0.76447 0.84765,0.36618 0.84766,2.57321 0.84765,5.62268 0.84766,2.431 0.84766,-1.92178 0.84765,1.41147 0.84766,1.73834 0.84766,-0.63952 0.84765,0.44827 0.84766,-0.009 0.84765,-0.66183 0.84766,0.23437 0.84766,-1.27294 0.84765,-0.0353 0.84766,0.86734 0.84766,0.96362 0.84765,0.2261 0.84766,-0.59378 0.84765,-1.24304 0.84766,-1.21863 0.84766,-0.75219 0.84765,1.41433 0.84766,1.80912 0.84766,0.68457 0.84765,0.14047 0.84766,-0.64215 0.84765,-1.32285 0.84766,-0.15307 0.84766,-0.68128 0.84765,-0.13263 0.84766,1.00748 0.84766,-0.29556 0.84765,-0.36924 0.84766,-0.40448 0.84765,0.30756 0.84766,1.32553 0.84766,0.80039 0.84765,2.07443 0.84766,2.50189 0.84766,-0.82968 0.84765,-0.36405 0.84766,0.17151 0.84765,-0.46066 0.84766,0.25278 0.84766,-0.0692 0.84765,-0.20922 0.84766,0.0102 0.84766,0.7749 0.84765,1.03223 0.84766,-0.57922 0.84766,0.68948 0.84765,0.0135 0.84766,-1.1825 0.84765,-1.28354 0.84766,-1.22753 0.84766,-2.38025 0.84765,-2.55521 0.84766,-1.90439 0.84765,-2.35306 0.84766,-1.49035 0.84766,0.2872 0.84765,2.20538 0.84766,0.50189 0.84766,0.16751 0.84765,-0.43804 0.84766,2.70523 0.84765,-0.41269 0.84766,2.4049 0.84766,3.46177 0.84765,5.16024 0.84766,-4.2026 0.84766,-5.93866 0.84765,-5.09241 0.84766,-4.43823 0.84765,-3.39902 0.84766,-4.11877 0.84766,1.49462 0.84765,7.14222 0.84766,2.19717 0.84766,1.96249 0.84765,0.90128 0.84766,0.99561 0.84765,2.10373 0.84766,1.03778 0.84766,-0.19007 0.84765,-1.38388 0.84766,-1.57516 0.84766,-1.96158 0.84765,-2.54852 0.84766,-1.30091 0.84765,0.22376 0.84766,0.29892 0.84766,0.16617 0.84765,-0.47529 0.84766,-4.19976 0.84766,-8.93253 0.84765,0.63522 0.84766,10.34262 0.84765,-2.03823 0.84766,2.3587 0.84766,2.68719 0.84765,2.95783 0.84766,-4.46655 0.84766,-5.71176 0.84765,-5.49601 0.84766,0.86447 0.84765,13.74997 0.84766,-8.97677 0.84766,5.81833 0.84765,7.88647 0.84766,6.65357 0.84766,-2.30887 0.84765,0.01 0.84766,-0.45169 0.84765,-4.13446 0.84766,-3.61991 0.84766,-3.61133 0.84765,-1.36618 0.84766,-1.67389 0.84766,1.2211 0.84765,1.0188 0.84766,-2.55139 0.84765,-1.23874 0.84766,1.87116 0.84766,1.26892 0.84765,1.01089 0.84766,1.61322 0.84766,3.12632 0.84765,2.26593 0.84766,-0.42652 0.84765,-1.22143 0.84766,2.68447 0.84766,4.50205 0.84765,-0.13339 0.84766,0.23709 0.84766,0.94397 0.84765,0.56592 0.84766,-0.0912 0.84765,3.64664 0.84766,-1.19806 0.84766,-1.44251 0.84765,0.46817 0.84766,-2.81439 0.84766,-2.07217 0.84765,1.19436 0.84766,-0.57419 0.84765,0.88324 0.84766,1.31321 0.84766,3.44928 0.84765,0.60083 0.84766,-2.38279 0.84766,-1.36319 0.84765,-1.1799 0.84766,0.13596 0.84765,2.31573 0.84766,-2.65203 0.84766,-4.34577 0.84765,-0.32696 0.84766,-2.58872 0.84766,2.32312 0.84765,1.46457 0.84766,0.0218 0.84765,-1.28982 0.84766,-0.89289 0.84766,-1.46756 0.84765,2.30521 0.84766,2.98181 0.84766,3.32974 0.84765,-1.5253 0.84766,-10.21933 0.84765,5.19553 0.84766,-5.2655 0.84766,-6.62766 0.84765,-1.61807 0.84766,-0.36737 0.84766,-0.0499 0.84765,1.11292 0.84766,1.96301 0.84765,1.12366 0.84766,2.32217 0.84766,3.56915 0.84765,-0.21264 0.84766,-0.10083 0.84766,-2.08066 0.84765,0.11975 0.84766,-0.21509 0.84765,1.1496 0.84766,7.94809 0.84766,-5.45343 0.84765,-2.07233 0.84766,-3.55926 0.84766,-4.25214 0.84765,-6.43539 0.84766,-6.8541 0.84765,-8.5025 0.84766,-10.79825 0.84766,-6.16559 0.84765,-13.80722 0.84766,-3.28085 0.84766,-5.29352 0.84765,10.58353 0.84766,16.20395 0.84765,16.37371 0.84766,14.61182 0.84766,7.32837 0.84765,1.24576 0.84766,4.63653 0.84766,-4.1315 0.84765,10.3783 0.84766,-0.46707 0.84765,0.90512 0.84766,0.0402 0.84766,0.49448 0.84765,-0.22626 0.84766,-2.15961 0.84766,-1.56305 0.84765,-1.00525 0.84766,0.27893 0.84765,1.05765 0.84766,-0.45801 0.84766,-0.32543 0.84765,-0.193 0.84766,-1.64606 0.84766,-1.28363 0.84765,1.07456 0.84766,2.09424 0.84765,1.23285 0.84766,0.64035 0.84766,1.14053 0.84765,2.35376 0.84766,2.76761 0.84766,-1.05902 0.84765,-2.47864 0.84766,-0.4086 0.84765,0.96722 0.84766,1.301 0.84766,-3.28848 0.84765,-1.96674 0.84766,-0.59482 0.84766,-1.75906 0.84765,-2.09369 0.84766,0.93854 0.84765,0.2941 0.84766,0.16265 0.84766,1.13663 0.84765,-0.73996 0.84766,-0.32251 0.84766,-0.4491 0.84765,-0.39257 0.84766,-0.35645 0.84765,-1.68432 0.84766,-4.01334 0.84766,-5.45709 0.84765,-4.30027 0.84766,-0.056 0.84766,0.74558 0.84765,-0.29636 0.84766,0.0739 0.84766,-0.0924 0.84765,1.64362 0.84766,7.40094 0.84765,3.53045 0.84766,3.93311 0.84766,0.36792 0.84765,1.19928 0.84766,1.3193 0.84765,0.34522 0.84766,0.37671 0.84766,0.14834 0.84765,0.29163 0.84766,-0.5816 0.84766,0.83346 0.84765,0.42111 0.84766,0.35981 0.84765,-0.0617 0.84766,0.70355 0.84766,0.94263 0.84765,0.66238 0.84766,-0.11273 0.84766,0.0941 0.84765,-0.74085 0.84766,-1.59198 0.84765,-1.79596 0.84766,-2.06781 0.84766,-2.04236 0.84765,-1.85745 0.84766,-2.12256 0.84766,-5.16211 0.84765,0.16846 0.84766,-1.37366 0.84765,0.0491 0.84766,2.75775 0.84766,9.83133 0.84765,-3.5224 0.84766,-9.0402 0.84766,-0.83956 0.84765,1.28302 0.84766,7.26791 0.84765,-2.0434 0.84766,-2.04556 0.84766,-0.0691 0.84765,-0.30377 0.84766,3.24035 0.84766,1.92801 0.84765,1.92661 0.84766,0.37487 0.84765,-0.34295 0.84766,2.35419 0.84766,0.67279 0.84765,1.49942 0.84766,-0.10785 0.84766,-1.36148 0.84765,-0.32798 0.84766,0.4523 0.84765,0.0961 0.84766,2.16143 0.84766,-1.10101 0.84765,0.92825 0.84766,2.2031 0.84766,0.022 0.84765,0.11615 0.84766,-0.58121 0.84765,-0.11645 0.84766,3.5607 0.84766,0.83133 0.84765,-1.99228 0.84766,-3.62161 0.84766,-3.18497 0.84765,-1.97287 0.84766,-0.048 0.84765,-0.84262 0.84766,-1.76669 0.84766,-3.99164 0.84765,-1.35785 0.84766,0.84775 0.84766,4.50263 0.84765,5.02966 0.84766,1.05572 0.84765,-4.35305 0.84766,-13.78196 0.84766,-10.80233 0.84765,-1.01789 0.84766,3.47727 0.84766,4.26382 0.84765,3.97345 0.84766,2.35379 0.84765,1.78321 0.84766,-0.98514 0.84766,-1.13196 0.84765,2.58383 0.84766,6.55005 0.84766,6.1282 0.84765,4.57691 0.84766,-2.22721 0.84765,1.68308 0.84766,-1.11722 0.84766,-3.32403 0.84765,-10.50306 0.84766,-16.0801 0.84766,-9.19809 0.84765,5.45443 0.84766,2.87567 0.84765,0.0665 0.84766,1.78751 0.84766,3.80038 0.84765,-1.12002 0.84766,6.5639 0.84766,-14.1286 0.84765,1.09134 0.84766,-3.82629 0.84765,6.93762 0.84766,19.16684 0.84766,9.02493 0.84765,-11.94968 0.84766,2.30823 0.84766,4.69757 0.84765,-0.73901 0.84766,-3.53253 0.84765,3.52746 0.84766,1.55942 0.84766,-0.99762 0.84765,0.22043 0.84766,0.35266 0.84766,-0.40912 0.84765,-0.30459 0.84766,-1.91831 0.84766,-1.16641 0.84765,-2.06363 0.84766,-4.19107 0.84765,-5.01791 0.84766,-3.0824 0.84766,9.72784 0.84765,13.47809 0.84766,-9.25745 0.84765,-10.6101 0.84766,11.21713 0.84766,2.82111 0.84765,0.78497 0.84766,0.64197 0.84766,1.29617 0.84765,0.3139 0.84766,0.51099 0.84765,0.0766 0.84766,-1.1575 0.84766,-2.17267 0.84765,-1.76206 0.84766,-1.24087 0.84766,0.82727 0.84765,-1.25137 0.84766,-0.4748 0.84765,0.51856 0.84766,3.63428 0.84766,4.97039 0.84765,2.46082 0.84766,-0.1239 0.84766,-1.69901 0.84765,-2.50351 0.84766,-1.88617 0.84765,-2.46725 0.84766,0.66113 0.84766,-5.47513 0.84765,-0.43341 0.84766,1.76737 0.84766,1.28933 0.84765,1.98655 0.84766,1.16619 0.84765,0.91309 0.84766,0.45984 0.84766,-0.25113 0.84765,0.61191 0.84766,2.08047 0.84766,1.73694 0.84765,0.52039 0.84766,1.03503 0.84765,-0.38782 0.84766,-2.57614 0.84766,-4.24832 0.84765,-10.15936 0.84766,-7.8898 0.84766,2.5502 0.84765,6.1384 0.84766,5.33844 0.84765,3.98043 0.84766,8.38083 0.84766,-5.87652 0.84765,-9.48859 L 507,349.10571"
           style="fill:none;stroke:#000000;stroke-width:0.666667;stroke-linecap:butt;stroke-linejoin:round;stroke-miterlimit:10;stroke-dasharray:none;stroke-opacity:1"
           id="path428" /></g><g
         id="g430"
         transform="matrix(6,0,0,6,-157,-81.374977)"><path
           d="m 73.847656,358.95193 0.847656,-8.44067 0.847657,1.32733 0.847656,-0.21325 0.847656,-0.38382 0.847656,-0.38956 0.847657,-2.47946 0.847656,-1.8472 0.847656,-10.51199 0.847656,-10.04432 0.847657,2.74949 0.847656,-2.93168 0.847656,-9.11157 0.847656,8.31644 0.847657,16.23343 0.847656,4.11804 0.847656,7.34689 0.847656,6.37381 0.847657,5.66648 0.847656,-1.54816 0.847656,-6.7045 0.847656,-2.60974 0.847657,1.25974 0.847656,3.17504 0.847656,6.78662 0.847656,6.17344 0.847657,-2.21881 0.847656,-9.92344 0.847656,-6.6672 0.847656,-16.59113 0.847657,-26.1217 0.847656,10.38812 0.84766,14.80145 0.84765,9.13468 0.84766,13.44647 0.84766,-2.20303 0.84765,1.81652 0.84766,-10.91082 0.84765,1.67932 0.84766,-2.51584 0.84766,-5.24738 0.84765,-1.89938 0.84766,2.76679 0.84766,3.03613 0.84765,4.60061 0.84766,5.20289 0.84765,3.18222 0.84766,5.07534 0.84766,2.95359 0.84765,4.26428 0.84766,-1.42819 0.84766,-1.81665 0.84765,-5.14066 0.84766,-6.61801 0.84765,-30.83612 0.84766,-10.56836 0.84766,22.03628 0.84765,8.68622 0.84766,4.06882 0.84765,4.09708 0.84766,2.56808 0.84766,-0.0265 0.84765,-0.32464 0.84766,1.04559 0.84766,3.90243 0.84765,1.37055 0.84766,-17.53793 0.84765,3.81033 0.84766,-24.74014 0.84766,10.33865 0.84765,15.70966 0.84766,2.66854 0.84766,-2.11496 0.84765,-3.86053 0.84766,-2.04938 0.84765,-2.58227 0.84766,-0.65732 0.84766,1.16128 0.84765,4.03595 0.84766,4.75147 0.84766,2.37927 0.84765,0.91293 0.84766,0.0735 0.84765,-0.41498 0.84766,2.66391 0.84766,0.25424 0.84765,1.67487 0.84766,-1.51361 0.84766,-4.50134 0.84765,3.06536 0.84766,4.18546 0.84765,-0.81589 0.84766,0.54712 0.84766,0.14264 0.84765,-11.03332 0.84766,-5.63288 0.84766,4.36396 0.84765,9.40222 0.84766,9.04068 0.84765,2.67035 0.84766,0.73687 0.84766,0.0342 0.84765,-1.01052 0.84766,0.15603 0.84766,-1.18133 0.84765,0.058 0.84766,-12.55676 0.84765,-18.90503 0.84766,-3.11304 0.84766,0.75955 0.84765,0.8451 0.84766,1.59185 0.84766,5.8797 0.84765,9.7193 0.84766,6.23618 0.84766,0.4711 0.84765,1.33264 0.84766,6.45297 0.84765,1.79721 0.84766,1.02002 0.84766,1.45655 0.84765,0.0599 0.84766,0.35105 0.84765,0.58471 0.84766,1.27002 0.84766,-0.42139 0.84765,0.461 0.84766,1.43567 0.84766,0.77173 0.84765,-0.26605 0.84766,-0.19739 0.84765,-0.90366 0.84766,-1.96176 0.84766,-2.07937 0.84765,0.54388 0.84766,-1.47464 0.84766,-4.43277 0.84765,-5.57544 0.84766,-3.7662 0.84765,1.31515 0.84766,3.63593 0.84766,-4.23877 0.84765,1.48321 0.84766,-5.48062 0.84766,7 0.84765,8.79276 0.84766,4.77459 0.84765,-0.17984 0.84766,-2.42938 0.84766,-1.94012 0.84765,-1.66651 0.84766,-1.78796 0.84766,-1.42276 0.84765,2.21228 0.84766,2.12534 0.84765,-2.36655 0.84766,-1.17038 0.84766,-1.4621 0.84765,1.24924 0.84766,-0.44 0.84766,0.24972 0.84765,-1.04226 0.84766,0.26519 0.84765,5.20414 0.84766,2.6307 0.84766,-2.06634 0.84765,-4.04071 0.84766,-0.74222 0.84766,-0.97205 0.84765,-3.77994 0.84766,2.10303 0.84765,7.6341 0.84766,-2.55893 0.84766,0.15783 0.84765,1.35691 0.84766,-0.21891 0.84766,2.4386 0.84765,0.58762 0.84766,0.20135 0.84765,1.00278 0.84766,-2.3956 0.84766,-2.34726 0.84765,-6.60321 0.84766,-11.33288 0.84766,-15.81165 0.84765,-10.30307 0.84766,1.95184 0.84765,4.29972 0.84766,7.44729 0.84766,2.49716 0.84765,3.21476 0.84766,1.71151 0.84766,3.0232 0.84765,4.31006 0.84766,2.65924 0.84765,1.21444 0.84766,-2.5448 0.84766,-6.23068 0.84765,-4.05331 0.84766,-6.91852 0.84766,-6.8811 0.84765,-11.04105 0.84766,-18.76294 0.84765,-8.64142 0.84766,-4.57193 0.84766,6.7869 0.84765,18.95682 0.84766,19.33306 0.84766,11.11905 0.84765,11.30509 0.84766,9.87033 0.84765,-0.97229 0.84766,3.09573 0.84766,3.84299 0.84765,-1.19641 0.84766,-8.20233 0.84766,-2.56473 0.84765,2.02112 0.84766,1.02783 0.84765,-2.06934 0.84766,-5.25277 0.84766,-1.2894 0.84765,-0.72254 0.84766,2.97281 0.84766,1.3103 0.84765,-1.18911 0.84766,-2.01541 0.84765,-4.06971 0.84766,-1.43969 0.84766,-2.9784 0.84765,12.6023 0.84766,9.38663 0.84766,-1.49598 0.84765,-4.3572 0.84766,-3.13007 0.84765,1.31601 0.84766,0.41241 0.84766,6.36887 0.84765,3.66623 0.84766,4.06799 0.84766,1.4191 0.84765,1.99533 0.84766,-1.70694 0.84765,-3.49335 0.84766,-3.96771 0.84766,-4.99695 0.84765,-3.80731 0.84766,-6.41254 0.84766,-7.4974 0.84765,0.77075 0.84766,4.81921 0.84765,3.7605 0.84766,3.04456 0.84766,2.64441 0.84765,-0.38745 0.84766,-0.4722 0.84766,0.45733 0.84765,-1.78961 0.84766,1.23731 0.84765,-0.10514 0.84766,4.15937 0.84766,0.17913 0.84765,-0.38436 0.84766,2.44296 0.84766,2.56103 0.84765,0.81415 0.84766,3.01853 0.84765,-0.14597 0.84766,-1.62329 0.84766,-1.23099 0.84765,-0.0874 0.84766,1.52155 0.84766,1.01852 0.84765,-0.8794 0.84766,-1.13784 0.84765,-0.38065 0.84766,-0.28876 0.84766,0.57123 0.84765,1.99072 0.84766,-1.50387 0.84766,-2.9729 0.84765,-1.54929 0.84766,2.17777 0.84765,0.76361 0.84766,0.4346 0.84766,2.23465 0.84765,-0.87506 0.84766,-2.90048 0.84766,-2.66413 0.84765,-2.03049 0.84766,-3.68154 0.84765,-1.87046 0.84766,-1.29965 0.84766,-1.70395 0.84765,0.0628 0.84766,0.0996 0.84766,4.7181 0.84765,-2.18392 0.84766,-4.2305 0.84765,2.2738 0.84766,1.82635 0.84766,-1.56204 0.84765,-0.10003 0.84766,8.96258 0.84766,2.10455 0.84765,1.35456 0.84766,-3.63489 0.84765,-2.8692 0.84766,-10.29401 0.84766,-5.33886 0.84765,8.02618 0.84766,4.32349 0.84766,3.33297 0.84765,4.68228 0.84766,1.75013 0.84765,1.03131 0.84766,3.48059 0.84766,2.13284 0.84765,0.0265 0.84766,-0.13641 0.84766,-1.57584 0.84765,-1.61712 0.84766,-7.02796 0.84766,-9.05405 0.84765,-14.2648 0.84766,5.86032 0.84765,10.54908 0.84766,2.13708 0.84766,-6.21429 0.84765,5.9324 0.84766,6.33243 0.84765,3.41467 0.84766,0.55637 0.84766,0.48303 0.84765,-0.79166 0.84766,-0.70776 0.84766,-7.11304 0.84765,-7.89914 0.84766,-3.3782 0.84765,2.05093 0.84766,6.2363 0.84766,4.57568 0.84765,0.86963 0.84766,-6.14901 0.84766,-4.08002 0.84765,2.20202 0.84766,-0.57196 0.84765,0.81986 0.84766,2.71728 0.84766,1.67347 0.84765,2.03451 0.84766,1.89301 0.84766,1.21423 0.84765,1.52924 0.84766,-0.28595 0.84765,-1.27918 0.84766,-2.76684 0.84766,-8.63511 0.84765,0.67783 0.84766,2.84628 0.84766,6.06433 0.84765,6.31244 0.84766,1.90668 0.84765,-1.09128 0.84766,-2.46197 0.84766,-4.15879 0.84765,-3.18579 0.84766,-2.3948 0.84766,-2.67557 0.84765,-0.81714 0.84766,-0.77652 0.84765,-1.02725 0.84766,0.59698 0.84766,1.0337 0.84765,4.02359 0.84766,4.12545 0.84766,3.98221 0.84765,2.453 0.84766,1.10706 0.84765,-6.89963 0.84766,-1.67257 0.84766,-0.47007 0.84765,1.30774 0.84766,2.44004 0.84766,3.62362 0.84765,7.78659 0.84766,-3.51086 0.84765,-3.19296 0.84766,-0.12256 0.84766,-0.009 0.84765,-0.11422 0.84766,0.46054 0.84766,1.63025 0.84765,-0.0237 0.84766,0.86417 0.84765,-0.52661 0.84766,-0.88309 0.84766,-2.1705 0.84765,-2.81952 0.84766,0.62161 0.84766,5.38578 0.84765,2.06045 0.84766,-1.14795 0.84765,-0.52792 0.84766,-0.91174 0.84766,1.17416 0.84765,-0.40305 0.84766,0.0111 0.84766,0.89768 0.84765,1.20843 0.84766,0.47071 0.84765,0.70282 0.84766,-1.33448 0.84766,-2.64166 0.84765,-0.18619 0.84766,-1.18582 0.84766,-1.20111 0.84765,-0.96802 0.84766,0.009 0.84765,-0.0957 0.84766,-1.219 0.84766,-1.42221 0.84765,0.332 0.84766,1.39157 0.84766,-1.57742 0.84765,-2.45102 0.84766,0.18811 0.84765,2.67542 0.84766,7.34484 0.84766,-9.09295 0.84765,-0.58499 0.84766,0.17361 0.84766,-2.85333 0.84765,5.91974 0.84766,2.44558 0.84765,-0.67605 0.84766,2.87359 0.84766,-1.42651 0.84765,1.09952 0.84766,0.16025 0.84766,-1.87214 0.84765,-0.19491 0.84766,-5.33362 0.84765,2.88998 0.84766,-3.69876 0.84766,-6.509 0.84765,2.23386 0.84766,6.24441 0.84766,0.48883 0.84765,4.04303 0.84766,1.37021 0.84766,3.11612 0.84765,2.8461 0.84766,-3.57974 0.84765,0.30469 0.84766,0.76602 0.84766,0.6384 0.84765,-2.46854 0.84766,-1.46176 0.84765,-3.95911 0.84766,-5.62729 0.84766,4.31803 0.84765,3.37503 0.84766,0.94424 0.84766,-1.79971 0.84765,0.20837 0.84766,1.056 0.84765,2.36636 0.84766,3.26981 0.84766,0.90344 0.84765,-1.58914 0.84766,-2.23529 0.84766,0.22672 0.84765,-2.44794 0.84766,-1.31619 0.84765,-2.88578 0.84766,0.71241 0.84766,2.25259 0.84765,-6.02081 0.84766,-13.17295 0.84766,0.9083 0.84765,3.81488 0.84766,4.20639 0.84765,3.51126 0.84766,1.06546 0.84766,1.55908 0.84765,3.19254 0.84766,1.41055 0.84766,1.07694 0.84765,0.98419 0.84766,2.39404 0.84765,0.32742 0.84766,-1.9324 0.84766,-2.1528 0.84765,-1.42563 0.84766,-0.36407 0.84766,-0.66831 0.84765,-1.48868 0.84766,0.58866 0.84765,0.41378 0.84766,0.8566 0.84766,1.05676 0.84765,1.70527 0.84766,-1.55954 0.84766,-1.69513 0.84765,-2.25565 0.84766,-2.62829 0.84765,-2.07255 0.84766,-0.0973 0.84766,-1.27719 0.84765,-0.38812 L 507,353.17883"
           style="fill:none;stroke:#ff0000;stroke-width:0.666667;stroke-linecap:butt;stroke-linejoin:round;stroke-miterlimit:10;stroke-dasharray:none;stroke-opacity:1"
           id="path432" /></g><g
         id="g434"
         transform="matrix(6,0,0,6,-157,-81.374977)"><path
           d="M 496,95 V 42 h -80 v 53 z"
           style="fill:#ffffff;fill-opacity:1;fill-rule:nonzero;stroke:none"
           id="path436" /></g><g
         id="g438"><g
           id="g440"
           transform="matrix(6,0,0,6,2621,230.62502)"><text
             transform="translate(0,5)"
             style="font-variant:normal;font-weight:normal;font-size:12px;font-family:Helvetica;-inkscape-font-specification:Helvetica;writing-mode:lr-tb;fill:#000000;fill-opacity:1;fill-rule:nonzero;stroke:none"
             id="text444"><tspan
               x="0 8.0039997 18 24.672001"
               y="0"
               sodipodi:role="line"
               id="tspan442">Empt</tspan></text></g></g><g
         id="g446"
         transform="matrix(6,0,0,6,-157,-81.374977)"><path
           d="m 420,52 h 40"
           style="fill:none;stroke:#0000ff;stroke-width:0.666667;stroke-linecap:butt;stroke-linejoin:round;stroke-miterlimit:10;stroke-dasharray:none;stroke-opacity:1"
           id="path448" /></g><g
         id="g450"><g
           id="g452"
           transform="matrix(6,0,0,6,2621,329.62502)"><text
             transform="translate(0,5)"
             style="font-variant:normal;font-weight:normal;font-size:12px;font-family:Helvetica;-inkscape-font-specification:Helvetica;writing-mode:lr-tb;fill:#000000;fill-opacity:1;fill-rule:nonzero;stroke:none"
             id="text456"><tspan
               x="0 8.6639996 15.336 18"
               y="0"
               sodipodi:role="line"
               id="tspan454">Half</tspan></text></g></g><g
         id="g458"
         transform="matrix(6,0,0,6,-157,-81.374977)"><path
           d="m 420,68.5 h 40"
           style="fill:none;stroke:#000000;stroke-width:0.666667;stroke-linecap:butt;stroke-linejoin:round;stroke-miterlimit:10;stroke-dasharray:none;stroke-opacity:1"
           id="path460" /></g><g
         id="g462"><g
           id="g464"
           transform="matrix(6,0,0,6,2621,428.62502)"><text
             transform="translate(0,5)"
             style="font-variant:normal;font-weight:normal;font-size:12px;font-family:Helvetica;-inkscape-font-specification:Helvetica;writing-mode:lr-tb;fill:#000000;fill-opacity:1;fill-rule:nonzero;stroke:none"
             id="text468"><tspan
               x="0 7.3319998 14.004 16.667999"
               y="0"
               sodipodi:role="line"
               id="tspan466">Full</tspan></text></g></g><g
         id="g470"
         transform="matrix(6,0,0,6,-157,-81.374977)"><path
           d="m 420,85 h 40"
           style="fill:none;stroke:#ff0000;stroke-width:0.666667;stroke-linecap:butt;stroke-linejoin:round;stroke-miterlimit:10;stroke-dasharray:none;stroke-opacity:1"
           id="path472" /></g><g
         id="g474"
         transform="matrix(6,0,0,6,-157,-81.374977)"><path
           d="M 416,95 V 42 h 80 v 53 z"
           style="fill:none;stroke:#262626;stroke-width:0.666667;stroke-linecap:butt;stroke-linejoin:miter;stroke-miterlimit:10;stroke-dasharray:none;stroke-opacity:1"
           id="path476" /></g></g></g></svg>
