<?xml version="1.0" encoding="UTF-8" standalone="no"?>
<svg
   xmlns:dc="http://purl.org/dc/elements/1.1/"
   xmlns:cc="http://creativecommons.org/ns#"
   xmlns:rdf="http://www.w3.org/1999/02/22-rdf-syntax-ns#"
   xmlns:svg="http://www.w3.org/2000/svg"
   xmlns="http://www.w3.org/2000/svg"
   xmlns:sodipodi="http://sodipodi.sourceforge.net/DTD/sodipodi-0.dtd"
   xmlns:inkscape="http://www.inkscape.org/namespaces/inkscape"
   version="1.1"
   id="svg10"
   xml:space="preserve"
   width="496"
   height="404"
   viewBox="0 0 496 404"
   sodipodi:docname="PiezzMaBot.svg"
   inkscape:version="1.0.1 (3bc2e813f5, 2020-09-07)"><metadata
     id="metadata16"><rdf:RDF><cc:Work
         rdf:about=""><dc:format>image/svg+xml</dc:format><dc:type
           rdf:resource="http://purl.org/dc/dcmitype/StillImage" /><dc:title></dc:title></cc:Work></rdf:RDF></metadata><defs
     id="defs14" /><sodipodi:namedview
     pagecolor="#ffffff"
     bordercolor="#666666"
     borderopacity="1"
     objecttolerance="10"
     gridtolerance="10"
     guidetolerance="10"
     inkscape:pageopacity="0"
     inkscape:pageshadow="2"
     inkscape:window-width="749"
     inkscape:window-height="480"
     id="namedview12"
     showgrid="false"
     inkscape:zoom="1.4207921"
     inkscape:cx="248"
     inkscape:cy="202"
     inkscape:window-x="0"
     inkscape:window-y="0"
     inkscape:window-maximized="0"
     inkscape:current-layer="g18" /><g
     id="g18"
     inkscape:groupmode="layer"
     inkscape:label="PiezzMaBot"
     transform="matrix(1.3333333,0,0,-1.3333333,0,404)"><g
       id="g20"
       transform="matrix(0.125,0,0,-0.125,0,303)"><g
         id="g22"
         transform="matrix(6,0,0,6,-157,-81.374977)"><path
           d="M 0,0 H 560 V 420 H 0 Z"
           style="fill:#ffffff;fill-opacity:1;fill-rule:nonzero;stroke:none"
           id="path24" /></g><g
         id="g26"
         transform="matrix(6,0,0,6,-157,-81.374977)"><path
           d="M 73,374 H 507 V 31 H 73 Z"
           style="fill:#ffffff;fill-opacity:1;fill-rule:nonzero;stroke:none"
           id="path28" /></g><g
         id="g30"
         transform="matrix(6,0,0,6,-157,-81.374977)"><path
           d="M 73,374 H 507"
           style="fill:none;stroke:#262626;stroke-width:0.666667;stroke-linecap:square;stroke-linejoin:round;stroke-miterlimit:10;stroke-dasharray:none;stroke-opacity:1"
           id="path32" /></g><g
         id="g34"
         transform="matrix(6,0,0,6,-157,-81.374977)"><path
           d="M 73,31 H 507"
           style="fill:none;stroke:#262626;stroke-width:0.666667;stroke-linecap:square;stroke-linejoin:round;stroke-miterlimit:10;stroke-dasharray:none;stroke-opacity:1"
           id="path36" /></g><g
         id="g38"
         transform="matrix(6,0,0,6,-157,-81.374977)"><path
           d="m 73,374 v -4.34"
           style="fill:none;stroke:#262626;stroke-width:0.666667;stroke-linecap:square;stroke-linejoin:round;stroke-miterlimit:10;stroke-dasharray:none;stroke-opacity:1"
           id="path40" /></g><g
         id="g42"
         transform="matrix(6,0,0,6,-157,-81.374977)"><path
           d="m 116.4,374 v -4.34"
           style="fill:none;stroke:#262626;stroke-width:0.666667;stroke-linecap:square;stroke-linejoin:round;stroke-miterlimit:10;stroke-dasharray:none;stroke-opacity:1"
           id="path44" /></g><g
         id="g46"
         transform="matrix(6,0,0,6,-157,-81.374977)"><path
           d="m 159.8,374 v -4.34"
           style="fill:none;stroke:#262626;stroke-width:0.666667;stroke-linecap:square;stroke-linejoin:round;stroke-miterlimit:10;stroke-dasharray:none;stroke-opacity:1"
           id="path48" /></g><g
         id="g50"
         transform="matrix(6,0,0,6,-157,-81.374977)"><path
           d="m 203.2,374 v -4.34"
           style="fill:none;stroke:#262626;stroke-width:0.666667;stroke-linecap:square;stroke-linejoin:round;stroke-miterlimit:10;stroke-dasharray:none;stroke-opacity:1"
           id="path52" /></g><g
         id="g54"
         transform="matrix(6,0,0,6,-157,-81.374977)"><path
           d="m 246.60001,374 v -4.34"
           style="fill:none;stroke:#262626;stroke-width:0.666667;stroke-linecap:square;stroke-linejoin:round;stroke-miterlimit:10;stroke-dasharray:none;stroke-opacity:1"
           id="path56" /></g><g
         id="g58"
         transform="matrix(6,0,0,6,-157,-81.374977)"><path
           d="m 290,374 v -4.34"
           style="fill:none;stroke:#262626;stroke-width:0.666667;stroke-linecap:square;stroke-linejoin:round;stroke-miterlimit:10;stroke-dasharray:none;stroke-opacity:1"
           id="path60" /></g><g
         id="g62"
         transform="matrix(6,0,0,6,-157,-81.374977)"><path
           d="m 333.39999,374 v -4.34"
           style="fill:none;stroke:#262626;stroke-width:0.666667;stroke-linecap:square;stroke-linejoin:round;stroke-miterlimit:10;stroke-dasharray:none;stroke-opacity:1"
           id="path64" /></g><g
         id="g66"
         transform="matrix(6,0,0,6,-157,-81.374977)"><path
           d="m 376.79999,374 v -4.34"
           style="fill:none;stroke:#262626;stroke-width:0.666667;stroke-linecap:square;stroke-linejoin:round;stroke-miterlimit:10;stroke-dasharray:none;stroke-opacity:1"
           id="path68" /></g><g
         id="g70"
         transform="matrix(6,0,0,6,-157,-81.374977)"><path
           d="m 420.20001,374 v -4.34"
           style="fill:none;stroke:#262626;stroke-width:0.666667;stroke-linecap:square;stroke-linejoin:round;stroke-miterlimit:10;stroke-dasharray:none;stroke-opacity:1"
           id="path72" /></g><g
         id="g74"
         transform="matrix(6,0,0,6,-157,-81.374977)"><path
           d="m 463.60001,374 v -4.34"
           style="fill:none;stroke:#262626;stroke-width:0.666667;stroke-linecap:square;stroke-linejoin:round;stroke-miterlimit:10;stroke-dasharray:none;stroke-opacity:1"
           id="path76" /></g><g
         id="g78"
         transform="matrix(6,0,0,6,-157,-81.374977)"><path
           d="m 507,374 v -4.34"
           style="fill:none;stroke:#262626;stroke-width:0.666667;stroke-linecap:square;stroke-linejoin:round;stroke-miterlimit:10;stroke-dasharray:none;stroke-opacity:1"
           id="path80" /></g><g
         id="g82"
         transform="matrix(6,0,0,6,-157,-81.374977)"><path
           d="m 73,31 v 4.339996"
           style="fill:none;stroke:#262626;stroke-width:0.666667;stroke-linecap:square;stroke-linejoin:round;stroke-miterlimit:10;stroke-dasharray:none;stroke-opacity:1"
           id="path84" /></g><g
         id="g86"
         transform="matrix(6,0,0,6,-157,-81.374977)"><path
           d="m 116.4,31 v 4.339996"
           style="fill:none;stroke:#262626;stroke-width:0.666667;stroke-linecap:square;stroke-linejoin:round;stroke-miterlimit:10;stroke-dasharray:none;stroke-opacity:1"
           id="path88" /></g><g
         id="g90"
         transform="matrix(6,0,0,6,-157,-81.374977)"><path
           d="m 159.8,31 v 4.339996"
           style="fill:none;stroke:#262626;stroke-width:0.666667;stroke-linecap:square;stroke-linejoin:round;stroke-miterlimit:10;stroke-dasharray:none;stroke-opacity:1"
           id="path92" /></g><g
         id="g94"
         transform="matrix(6,0,0,6,-157,-81.374977)"><path
           d="m 203.2,31 v 4.339996"
           style="fill:none;stroke:#262626;stroke-width:0.666667;stroke-linecap:square;stroke-linejoin:round;stroke-miterlimit:10;stroke-dasharray:none;stroke-opacity:1"
           id="path96" /></g><g
         id="g98"
         transform="matrix(6,0,0,6,-157,-81.374977)"><path
           d="m 246.60001,31 v 4.339996"
           style="fill:none;stroke:#262626;stroke-width:0.666667;stroke-linecap:square;stroke-linejoin:round;stroke-miterlimit:10;stroke-dasharray:none;stroke-opacity:1"
           id="path100" /></g><g
         id="g102"
         transform="matrix(6,0,0,6,-157,-81.374977)"><path
           d="m 290,31 v 4.339996"
           style="fill:none;stroke:#262626;stroke-width:0.666667;stroke-linecap:square;stroke-linejoin:round;stroke-miterlimit:10;stroke-dasharray:none;stroke-opacity:1"
           id="path104" /></g><g
         id="g106"
         transform="matrix(6,0,0,6,-157,-81.374977)"><path
           d="m 333.39999,31 v 4.339996"
           style="fill:none;stroke:#262626;stroke-width:0.666667;stroke-linecap:square;stroke-linejoin:round;stroke-miterlimit:10;stroke-dasharray:none;stroke-opacity:1"
           id="path108" /></g><g
         id="g110"
         transform="matrix(6,0,0,6,-157,-81.374977)"><path
           d="m 376.79999,31 v 4.339996"
           style="fill:none;stroke:#262626;stroke-width:0.666667;stroke-linecap:square;stroke-linejoin:round;stroke-miterlimit:10;stroke-dasharray:none;stroke-opacity:1"
           id="path112" /></g><g
         id="g114"
         transform="matrix(6,0,0,6,-157,-81.374977)"><path
           d="m 420.20001,31 v 4.339996"
           style="fill:none;stroke:#262626;stroke-width:0.666667;stroke-linecap:square;stroke-linejoin:round;stroke-miterlimit:10;stroke-dasharray:none;stroke-opacity:1"
           id="path116" /></g><g
         id="g118"
         transform="matrix(6,0,0,6,-157,-81.374977)"><path
           d="m 463.60001,31 v 4.339996"
           style="fill:none;stroke:#262626;stroke-width:0.666667;stroke-linecap:square;stroke-linejoin:round;stroke-miterlimit:10;stroke-dasharray:none;stroke-opacity:1"
           id="path120" /></g><g
         id="g122"
         transform="matrix(6,0,0,6,-157,-81.374977)"><path
           d="m 507,31 v 4.339996"
           style="fill:none;stroke:#262626;stroke-width:0.666667;stroke-linecap:square;stroke-linejoin:round;stroke-miterlimit:10;stroke-dasharray:none;stroke-opacity:1"
           id="path124" /></g><g
         id="g126"><g
           id="g128"
           transform="matrix(6,0,0,6,281,2194.6251)"><text
             transform="translate(-4,14)"
             style="font-variant:normal;font-weight:normal;font-size:13.333px;font-family:Helvetica;-inkscape-font-specification:Helvetica;writing-mode:lr-tb;fill:#262626;fill-opacity:1;fill-rule:nonzero;stroke:none"
             id="text132"><tspan
               x="0"
               y="0"
               id="tspan130">0</tspan></text></g></g><g
         id="g134"><g
           id="g136"
           transform="matrix(6,0,0,6,541.40001,2194.6251)"><text
             transform="translate(-11.5,14)"
             style="font-variant:normal;font-weight:normal;font-size:13.333px;font-family:Helvetica;-inkscape-font-specification:Helvetica;writing-mode:lr-tb;fill:#262626;fill-opacity:1;fill-rule:nonzero;stroke:none"
             id="text140"><tspan
               x="0 7.4131479 14.826296"
               y="0"
               sodipodi:role="line"
               id="tspan138">200</tspan></text></g></g><g
         id="g142"><g
           id="g144"
           transform="matrix(6,0,0,6,801.80002,2194.6251)"><text
             transform="translate(-11.5,14)"
             style="font-variant:normal;font-weight:normal;font-size:13.333px;font-family:Helvetica;-inkscape-font-specification:Helvetica;writing-mode:lr-tb;fill:#262626;fill-opacity:1;fill-rule:nonzero;stroke:none"
             id="text148"><tspan
               x="0 7.4131479 14.826296"
               y="0"
               sodipodi:role="line"
               id="tspan146">400</tspan></text></g></g><g
         id="g150"><g
           id="g152"
           transform="matrix(6,0,0,6,1062.2,2194.6251)"><text
             transform="translate(-11.5,14)"
             style="font-variant:normal;font-weight:normal;font-size:13.333px;font-family:Helvetica;-inkscape-font-specification:Helvetica;writing-mode:lr-tb;fill:#262626;fill-opacity:1;fill-rule:nonzero;stroke:none"
             id="text156"><tspan
               x="0 7.4131479 14.826296"
               y="0"
               sodipodi:role="line"
               id="tspan154">600</tspan></text></g></g><g
         id="g158"><g
           id="g160"
           transform="matrix(6,0,0,6,1322.6,2194.6251)"><text
             transform="translate(-11.5,14)"
             style="font-variant:normal;font-weight:normal;font-size:13.333px;font-family:Helvetica;-inkscape-font-specification:Helvetica;writing-mode:lr-tb;fill:#262626;fill-opacity:1;fill-rule:nonzero;stroke:none"
             id="text164"><tspan
               x="0 7.4131479 14.826296"
               y="0"
               sodipodi:role="line"
               id="tspan162">800</tspan></text></g></g><g
         id="g166"><g
           id="g168"
           transform="matrix(6,0,0,6,1583,2194.6251)"><text
             transform="translate(-15,14)"
             style="font-variant:normal;font-weight:normal;font-size:13.333px;font-family:Helvetica;-inkscape-font-specification:Helvetica;writing-mode:lr-tb;fill:#262626;fill-opacity:1;fill-rule:nonzero;stroke:none"
             id="text172"><tspan
               x="0 7.4131479 14.826296 22.239445"
               y="0"
               sodipodi:role="line"
               id="tspan170">1000</tspan></text></g></g><g
         id="g174"><g
           id="g176"
           transform="matrix(6,0,0,6,1843.4,2194.6251)"><text
             transform="translate(-15,14)"
             style="font-variant:normal;font-weight:normal;font-size:13.333px;font-family:Helvetica;-inkscape-font-specification:Helvetica;writing-mode:lr-tb;fill:#262626;fill-opacity:1;fill-rule:nonzero;stroke:none"
             id="text180"><tspan
               x="0 7.4131479 14.826296 22.239445"
               y="0"
               sodipodi:role="line"
               id="tspan178">1200</tspan></text></g></g><g
         id="g182"><g
           id="g184"
           transform="matrix(6,0,0,6,2103.7999,2194.6251)"><text
             transform="translate(-15,14)"
             style="font-variant:normal;font-weight:normal;font-size:13.333px;font-family:Helvetica;-inkscape-font-specification:Helvetica;writing-mode:lr-tb;fill:#262626;fill-opacity:1;fill-rule:nonzero;stroke:none"
             id="text188"><tspan
               x="0 7.4131479 14.826296 22.239445"
               y="0"
               sodipodi:role="line"
               id="tspan186">1400</tspan></text></g></g><g
         id="g190"><g
           id="g192"
           transform="matrix(6,0,0,6,2364.2001,2194.6251)"><text
             transform="translate(-15,14)"
             style="font-variant:normal;font-weight:normal;font-size:13.333px;font-family:Helvetica;-inkscape-font-specification:Helvetica;writing-mode:lr-tb;fill:#262626;fill-opacity:1;fill-rule:nonzero;stroke:none"
             id="text196"><tspan
               x="0 7.4131479 14.826296 22.239445"
               y="0"
               sodipodi:role="line"
               id="tspan194">1600</tspan></text></g></g><g
         id="g198"><g
           id="g200"
           transform="matrix(6,0,0,6,2624.6,2194.6251)"><text
             transform="translate(-15,14)"
             style="font-variant:normal;font-weight:normal;font-size:13.333px;font-family:Helvetica;-inkscape-font-specification:Helvetica;writing-mode:lr-tb;fill:#262626;fill-opacity:1;fill-rule:nonzero;stroke:none"
             id="text204"><tspan
               x="0 7.4131479 14.826296 22.239445"
               y="0"
               sodipodi:role="line"
               id="tspan202">1800</tspan></text></g></g><g
         id="g206"><g
           id="g208"
           transform="matrix(6,0,0,6,2885,2194.6251)"><text
             transform="translate(-15,14)"
             style="font-variant:normal;font-weight:normal;font-size:13.333px;font-family:Helvetica;-inkscape-font-specification:Helvetica;writing-mode:lr-tb;fill:#262626;fill-opacity:1;fill-rule:nonzero;stroke:none"
             id="text212"><tspan
               x="0 7.4131479 14.826296 22.239445"
               y="0"
               sodipodi:role="line"
               id="tspan210">2000</tspan></text></g></g><g
         id="g214"><g
           id="g216"
           transform="matrix(6,0,0,6,1583.0013,2304.625)"><text
             transform="translate(-48.5,15)"
             style="font-variant:normal;font-weight:normal;font-size:14.667px;font-family:Helvetica;-inkscape-font-specification:Helvetica;writing-mode:lr-tb;fill:#262626;fill-opacity:1;fill-rule:nonzero;stroke:none"
             id="text220"><tspan
               x="0 8.9615374 13.845648 22.0005 30.155352 38.310204 46.465057 54.619907 61.953407 69.286911 74.171021 84.76059 92.094093"
               y="0"
               sodipodi:role="line"
               id="tspan218">Frequency(Hz)</tspan></text></g></g><g
         id="g222"
         transform="matrix(6,0,0,6,-157,-81.374977)"><path
           d="M 73,374 V 31"
           style="fill:none;stroke:#262626;stroke-width:0.666667;stroke-linecap:square;stroke-linejoin:round;stroke-miterlimit:10;stroke-dasharray:none;stroke-opacity:1"
           id="path224" /></g><g
         id="g226"
         transform="matrix(6,0,0,6,-157,-81.374977)"><path
           d="M 507,374 V 31"
           style="fill:none;stroke:#262626;stroke-width:0.666667;stroke-linecap:square;stroke-linejoin:round;stroke-miterlimit:10;stroke-dasharray:none;stroke-opacity:1"
           id="path228" /></g><g
         id="g230"
         transform="matrix(6,0,0,6,-157,-81.374977)"><path
           d="m 73,374 h 4.339996"
           style="fill:none;stroke:#262626;stroke-width:0.666667;stroke-linecap:square;stroke-linejoin:round;stroke-miterlimit:10;stroke-dasharray:none;stroke-opacity:1"
           id="path232" /></g><g
         id="g234"
         transform="matrix(6,0,0,6,-157,-81.374977)"><path
           d="m 73,339.70001 h 4.339996"
           style="fill:none;stroke:#262626;stroke-width:0.666667;stroke-linecap:square;stroke-linejoin:round;stroke-miterlimit:10;stroke-dasharray:none;stroke-opacity:1"
           id="path236" /></g><g
         id="g238"
         transform="matrix(6,0,0,6,-157,-81.374977)"><path
           d="m 73,305.39999 h 4.339996"
           style="fill:none;stroke:#262626;stroke-width:0.666667;stroke-linecap:square;stroke-linejoin:round;stroke-miterlimit:10;stroke-dasharray:none;stroke-opacity:1"
           id="path240" /></g><g
         id="g242"
         transform="matrix(6,0,0,6,-157,-81.374977)"><path
           d="m 73,271.10001 h 4.339996"
           style="fill:none;stroke:#262626;stroke-width:0.666667;stroke-linecap:square;stroke-linejoin:round;stroke-miterlimit:10;stroke-dasharray:none;stroke-opacity:1"
           id="path244" /></g><g
         id="g246"
         transform="matrix(6,0,0,6,-157,-81.374977)"><path
           d="m 73,236.8 h 4.339996"
           style="fill:none;stroke:#262626;stroke-width:0.666667;stroke-linecap:square;stroke-linejoin:round;stroke-miterlimit:10;stroke-dasharray:none;stroke-opacity:1"
           id="path248" /></g><g
         id="g250"
         transform="matrix(6,0,0,6,-157,-81.374977)"><path
           d="m 73,202.5 h 4.339996"
           style="fill:none;stroke:#262626;stroke-width:0.666667;stroke-linecap:square;stroke-linejoin:round;stroke-miterlimit:10;stroke-dasharray:none;stroke-opacity:1"
           id="path252" /></g><g
         id="g254"
         transform="matrix(6,0,0,6,-157,-81.374977)"><path
           d="m 73,168.2 h 4.339996"
           style="fill:none;stroke:#262626;stroke-width:0.666667;stroke-linecap:square;stroke-linejoin:round;stroke-miterlimit:10;stroke-dasharray:none;stroke-opacity:1"
           id="path256" /></g><g
         id="g258"
         transform="matrix(6,0,0,6,-157,-81.374977)"><path
           d="m 73,133.89999 h 4.339996"
           style="fill:none;stroke:#262626;stroke-width:0.666667;stroke-linecap:square;stroke-linejoin:round;stroke-miterlimit:10;stroke-dasharray:none;stroke-opacity:1"
           id="path260" /></g><g
         id="g262"
         transform="matrix(6,0,0,6,-157,-81.374977)"><path
           d="m 73,99.599998 h 4.339996"
           style="fill:none;stroke:#262626;stroke-width:0.666667;stroke-linecap:square;stroke-linejoin:round;stroke-miterlimit:10;stroke-dasharray:none;stroke-opacity:1"
           id="path264" /></g><g
         id="g266"
         transform="matrix(6,0,0,6,-157,-81.374977)"><path
           d="m 73,65.300003 h 4.339996"
           style="fill:none;stroke:#262626;stroke-width:0.666667;stroke-linecap:square;stroke-linejoin:round;stroke-miterlimit:10;stroke-dasharray:none;stroke-opacity:1"
           id="path268" /></g><g
         id="g270"
         transform="matrix(6,0,0,6,-157,-81.374977)"><path
           d="m 73,31 h 4.339996"
           style="fill:none;stroke:#262626;stroke-width:0.666667;stroke-linecap:square;stroke-linejoin:round;stroke-miterlimit:10;stroke-dasharray:none;stroke-opacity:1"
           id="path272" /></g><g
         id="g274"
         transform="matrix(6,0,0,6,-157,-81.374977)"><path
           d="m 507,374 h -4.34"
           style="fill:none;stroke:#262626;stroke-width:0.666667;stroke-linecap:square;stroke-linejoin:round;stroke-miterlimit:10;stroke-dasharray:none;stroke-opacity:1"
           id="path276" /></g><g
         id="g278"
         transform="matrix(6,0,0,6,-157,-81.374977)"><path
           d="m 507,339.70001 h -4.34"
           style="fill:none;stroke:#262626;stroke-width:0.666667;stroke-linecap:square;stroke-linejoin:round;stroke-miterlimit:10;stroke-dasharray:none;stroke-opacity:1"
           id="path280" /></g><g
         id="g282"
         transform="matrix(6,0,0,6,-157,-81.374977)"><path
           d="m 507,305.39999 h -4.34"
           style="fill:none;stroke:#262626;stroke-width:0.666667;stroke-linecap:square;stroke-linejoin:round;stroke-miterlimit:10;stroke-dasharray:none;stroke-opacity:1"
           id="path284" /></g><g
         id="g286"
         transform="matrix(6,0,0,6,-157,-81.374977)"><path
           d="m 507,271.10001 h -4.34"
           style="fill:none;stroke:#262626;stroke-width:0.666667;stroke-linecap:square;stroke-linejoin:round;stroke-miterlimit:10;stroke-dasharray:none;stroke-opacity:1"
           id="path288" /></g><g
         id="g290"
         transform="matrix(6,0,0,6,-157,-81.374977)"><path
           d="m 507,236.8 h -4.34"
           style="fill:none;stroke:#262626;stroke-width:0.666667;stroke-linecap:square;stroke-linejoin:round;stroke-miterlimit:10;stroke-dasharray:none;stroke-opacity:1"
           id="path292" /></g><g
         id="g294"
         transform="matrix(6,0,0,6,-157,-81.374977)"><path
           d="m 507,202.5 h -4.34"
           style="fill:none;stroke:#262626;stroke-width:0.666667;stroke-linecap:square;stroke-linejoin:round;stroke-miterlimit:10;stroke-dasharray:none;stroke-opacity:1"
           id="path296" /></g><g
         id="g298"
         transform="matrix(6,0,0,6,-157,-81.374977)"><path
           d="m 507,168.2 h -4.34"
           style="fill:none;stroke:#262626;stroke-width:0.666667;stroke-linecap:square;stroke-linejoin:round;stroke-miterlimit:10;stroke-dasharray:none;stroke-opacity:1"
           id="path300" /></g><g
         id="g302"
         transform="matrix(6,0,0,6,-157,-81.374977)"><path
           d="m 507,133.89999 h -4.34"
           style="fill:none;stroke:#262626;stroke-width:0.666667;stroke-linecap:square;stroke-linejoin:round;stroke-miterlimit:10;stroke-dasharray:none;stroke-opacity:1"
           id="path304" /></g><g
         id="g306"
         transform="matrix(6,0,0,6,-157,-81.374977)"><path
           d="m 507,99.599998 h -4.34"
           style="fill:none;stroke:#262626;stroke-width:0.666667;stroke-linecap:square;stroke-linejoin:round;stroke-miterlimit:10;stroke-dasharray:none;stroke-opacity:1"
           id="path308" /></g><g
         id="g310"
         transform="matrix(6,0,0,6,-157,-81.374977)"><path
           d="m 507,65.300003 h -4.34"
           style="fill:none;stroke:#262626;stroke-width:0.666667;stroke-linecap:square;stroke-linejoin:round;stroke-miterlimit:10;stroke-dasharray:none;stroke-opacity:1"
           id="path312" /></g><g
         id="g314"
         transform="matrix(6,0,0,6,-157,-81.374977)"><path
           d="m 507,31 h -4.34"
           style="fill:none;stroke:#262626;stroke-width:0.666667;stroke-linecap:square;stroke-linejoin:round;stroke-miterlimit:10;stroke-dasharray:none;stroke-opacity:1"
           id="path316" /></g><g
         id="g318"><g
           id="g320"
           transform="matrix(6,0,0,6,248.99998,2162.625)"><text
             transform="translate(-8,5.5)"
             style="font-variant:normal;font-weight:normal;font-size:13.333px;font-family:Helvetica;-inkscape-font-specification:Helvetica;writing-mode:lr-tb;fill:#262626;fill-opacity:1;fill-rule:nonzero;stroke:none"
             id="text324"><tspan
               x="0"
               y="0"
               id="tspan322">0</tspan></text></g></g><g
         id="g326"><g
           id="g328"
           transform="matrix(6,0,0,6,248.99998,1956.8251)"><text
             transform="translate(-15,5.5)"
             style="font-variant:normal;font-weight:normal;font-size:13.333px;font-family:Helvetica;-inkscape-font-specification:Helvetica;writing-mode:lr-tb;fill:#262626;fill-opacity:1;fill-rule:nonzero;stroke:none"
             id="text332"><tspan
               x="0 7.4131479"
               y="0"
               sodipodi:role="line"
               id="tspan330">10</tspan></text></g></g><g
         id="g334"><g
           id="g336"
           transform="matrix(6,0,0,6,248.99998,1751.025)"><text
             transform="translate(-15,5.5)"
             style="font-variant:normal;font-weight:normal;font-size:13.333px;font-family:Helvetica;-inkscape-font-specification:Helvetica;writing-mode:lr-tb;fill:#262626;fill-opacity:1;fill-rule:nonzero;stroke:none"
             id="text340"><tspan
               x="0 7.4131479"
               y="0"
               sodipodi:role="line"
               id="tspan338">20</tspan></text></g></g><g
         id="g342"><g
           id="g344"
           transform="matrix(6,0,0,6,248.99998,1545.2251)"><text
             transform="translate(-15,5.5)"
             style="font-variant:normal;font-weight:normal;font-size:13.333px;font-family:Helvetica;-inkscape-font-specification:Helvetica;writing-mode:lr-tb;fill:#262626;fill-opacity:1;fill-rule:nonzero;stroke:none"
             id="text348"><tspan
               x="0 7.4131479"
               y="0"
               sodipodi:role="line"
               id="tspan346">30</tspan></text></g></g><g
         id="g350"><g
           id="g352"
           transform="matrix(6,0,0,6,248.99998,1339.425)"><text
             transform="translate(-15,5.5)"
             style="font-variant:normal;font-weight:normal;font-size:13.333px;font-family:Helvetica;-inkscape-font-specification:Helvetica;writing-mode:lr-tb;fill:#262626;fill-opacity:1;fill-rule:nonzero;stroke:none"
             id="text356"><tspan
               x="0 7.4131479"
               y="0"
               sodipodi:role="line"
               id="tspan354">40</tspan></text></g></g><g
         id="g358"><g
           id="g360"
           transform="matrix(6,0,0,6,248.99998,1133.625)"><text
             transform="translate(-15,5.5)"
             style="font-variant:normal;font-weight:normal;font-size:13.333px;font-family:Helvetica;-inkscape-font-specification:Helvetica;writing-mode:lr-tb;fill:#262626;fill-opacity:1;fill-rule:nonzero;stroke:none"
             id="text364"><tspan
               x="0 7.4131479"
               y="0"
               sodipodi:role="line"
               id="tspan362">50</tspan></text></g></g><g
         id="g366"><g
           id="g368"
           transform="matrix(6,0,0,6,248.99998,927.825)"><text
             transform="translate(-15,5.5)"
             style="font-variant:normal;font-weight:normal;font-size:13.333px;font-family:Helvetica;-inkscape-font-specification:Helvetica;writing-mode:lr-tb;fill:#262626;fill-opacity:1;fill-rule:nonzero;stroke:none"
             id="text372"><tspan
               x="0 7.4131479"
               y="0"
               sodipodi:role="line"
               id="tspan370">60</tspan></text></g></g><g
         id="g374"><g
           id="g376"
           transform="matrix(6,0,0,6,248.99998,722.02499)"><text
             transform="translate(-15,5.5)"
             style="font-variant:normal;font-weight:normal;font-size:13.333px;font-family:Helvetica;-inkscape-font-specification:Helvetica;writing-mode:lr-tb;fill:#262626;fill-opacity:1;fill-rule:nonzero;stroke:none"
             id="text380"><tspan
               x="0 7.4131479"
               y="0"
               sodipodi:role="line"
               id="tspan378">70</tspan></text></g></g><g
         id="g382"><g
           id="g384"
           transform="matrix(6,0,0,6,248.99998,516.22501)"><text
             transform="translate(-15,5.5)"
             style="font-variant:normal;font-weight:normal;font-size:13.333px;font-family:Helvetica;-inkscape-font-specification:Helvetica;writing-mode:lr-tb;fill:#262626;fill-opacity:1;fill-rule:nonzero;stroke:none"
             id="text388"><tspan
               x="0 7.4131479"
               y="0"
               sodipodi:role="line"
               id="tspan386">80</tspan></text></g></g><g
         id="g390"><g
           id="g392"
           transform="matrix(6,0,0,6,248.99998,310.42504)"><text
             transform="translate(-15,5.5)"
             style="font-variant:normal;font-weight:normal;font-size:13.333px;font-family:Helvetica;-inkscape-font-specification:Helvetica;writing-mode:lr-tb;fill:#262626;fill-opacity:1;fill-rule:nonzero;stroke:none"
             id="text396"><tspan
               x="0 7.4131479"
               y="0"
               sodipodi:role="line"
               id="tspan394">90</tspan></text></g></g><g
         id="g398"><g
           id="g400"
           transform="matrix(6,0,0,6,248.99998,104.62502)"><text
             transform="translate(-23,5.5)"
             style="font-variant:normal;font-weight:normal;font-size:13.333px;font-family:Helvetica;-inkscape-font-specification:Helvetica;writing-mode:lr-tb;fill:#262626;fill-opacity:1;fill-rule:nonzero;stroke:none"
             id="text404"><tspan
               x="0 7.4131479 14.826296"
               y="0"
               sodipodi:role="line"
               id="tspan402">100</tspan></text></g></g><g
         id="g406"><g
           id="g408"
           transform="matrix(-2.6e-7,-6,6,-2.6e-7,87.000008,1133.6241)"><text
             transform="translate(-33,-4)"
             style="font-variant:normal;font-weight:normal;font-size:14.667px;font-family:Helvetica;-inkscape-font-specification:Helvetica;writing-mode:lr-tb;fill:#262626;fill-opacity:1;fill-rule:nonzero;stroke:none"
             id="text412"><tspan
               x="0 9.7828894 22.0005 30.155352 33.411427 36.6675 40.744926 48.899776 57.05463"
               y="0"
               sodipodi:role="line"
               id="tspan410">Amplitude</tspan></text></g></g><g
         id="g414"><g
           id="g416"
           transform="matrix(6,0,0,6,1583.0016,88.125)"><text
             transform="translate(-173.5,-4)"
             style="font-variant:normal;font-weight:bold;font-size:14.667px;font-family:Helvetica;-inkscape-font-specification:Helvetica-Bold;writing-mode:lr-tb;fill:#000000;fill-opacity:1;fill-rule:nonzero;stroke:none"
             id="text420"><tspan
               x="0 9.7828894 18.744427 26.899279 35.054131 39.93824 45.643703 54.60524 67.644203 71.721626 80.683167 85.567276 89.644707 94.528816 103.49035 111.6452 115.72263 120.60674 129.56828 135.27374 143.42859 151.58345 155.66087 166.25044 175.21198 180.0961 184.98021 189.05763 197.21248 205.36734 209.44476 213.52219 221.67703 234.716 242.87085 246.94827 251.02571 255.10313 264.88602 268.96344 277.11829 284.45181 293.41333 303.19623 307.27365 315.4285 323.58334 328.46747 334.17294 338.25037"
               y="0"
               sodipodi:role="line"
               id="tspan418">Spectrum of the three Bottles, small PiezoElectric</tspan></text></g></g><g
         id="g422"
         transform="matrix(6,0,0,6,-157,-81.374977)"><path
           d="m 73.847656,359.9549 0.847656,-16.60883 0.847657,-6.49728 0.847656,-1.20258 0.847656,28.08435 0.847656,-18.23074 0.847657,-0.15198 0.847656,-0.0574 0.847656,2.77005 0.847656,-10.63575 0.847657,-30.15765 0.847656,30.90152 0.847656,5.54157 0.847656,12.08837 0.847657,-6.89965 0.847656,-63.24378 0.847656,71.84012 0.847656,-12.67557 0.847657,-7.52487 0.847656,21.81894 0.847656,5.18683 0.847656,0.55575 0.847657,-13.71084 0.847656,0.74048 0.847656,-21.68869 0.847656,28.87808 0.847657,10.34219 0.847656,-17.18454 0.847656,-52.6792 0.847656,46.34861 0.847657,-33.16333 0.847656,3.12976 0.84766,-10.40317 0.84765,49.31738 0.84766,4.33579 0.84766,-4.01706 0.84765,-30.18 0.84766,-73.21179 0.84765,-5.98553 0.84766,49.43915 0.84766,-9.5918 0.84765,-29.27384 0.84766,39.01487 0.84766,63.625 0.84765,-3.03821 0.84766,-15.36801 0.84765,-16.24433 0.84766,-20.83395 0.84766,2.56476 0.84765,39.80411 0.84766,-20.45209 0.84766,-55.28128 0.84765,56.5433 0.84766,-17.15118 0.84765,5.73272 0.84766,11.07804 0.84766,29.60138 0.84765,2.68088 0.84766,-2.82444 0.84765,-27.52163 0.84766,-26.99534 0.84766,16.47516 0.84765,19.23078 0.84766,16.22351 0.84766,-19.73206 0.84765,6.38318 0.84766,11.2009 0.84765,-8.32187 0.84766,4.96533 0.84766,-7.92953 0.84765,2.94784 0.84766,6.35187 0.84766,-17.42673 0.84765,32.08466 0.84766,-46.63269 0.84765,3.20932 0.84766,27.28149 0.84766,13.63913 0.84765,-8.54074 0.84766,-1.56808 0.84766,-28.08423 0.84765,0.0315 0.84766,-42.31659 0.84765,71.35883 0.84766,16.6192 0.84766,-43.54004 0.84765,-8.4649 0.84766,22.66204 0.84766,20.40003 0.84765,-6.75839 0.84766,-2.72129 0.84765,-10.19659 0.84766,-4.96912 0.84766,4.29691 0.84765,8.40378 0.84766,23.03531 0.84766,-19.77775 0.84765,-12.00604 0.84766,-2.40213 0.84765,12.68711 0.84766,5.42666 0.84766,12.198 0.84765,-15.51956 0.84766,19.46551 0.84766,-29.93954 0.84765,26.0701 0.84766,-17.90048 0.84765,16.00204 0.84766,-4.60895 0.84766,6.98914 0.84765,-4.63834 0.84766,-6.3371 0.84766,-7.42379 0.84765,4.78561 0.84766,6.33203 0.84766,-1.00885 0.84765,7.55921 0.84766,-12.66022 0.84765,-12.94605 0.84766,23.5087 0.84766,-8.10925 0.84765,-3.64966 0.84766,-9.68692 0.84765,-13.68494 0.84766,9.69474 0.84766,-2.31986 0.84765,-3.03854 0.84766,9.96329 0.84766,10.7724 0.84765,-1.4173 0.84766,-2.62528 0.84765,2.89304 0.84766,-7.44244 0.84766,3.76351 0.84765,-16.82077 0.84766,-3.39471 0.84766,4.06772 0.84765,10.86664 0.84766,5.38147 0.84765,-8.85852 0.84766,-2.00245 0.84766,14.57706 0.84765,0.97876 0.84766,-2.91614 0.84766,8.78821 0.84765,-2.97217 0.84766,-19.80798 0.84765,14.80313 0.84766,-27.64264 0.84766,20.45883 0.84765,22.94205 0.84766,-13.01346 0.84766,-5.21783 0.84765,4.21948 0.84766,9.9278 0.84765,-15.72159 0.84766,-2.34159 0.84766,-9.423 0.84765,2.43784 0.84766,-9.69257 0.84766,9.99469 0.84765,-4.77444 0.84766,-8.56574 0.84765,21.45056 0.84766,-21.50277 0.84766,-6.5712 0.84765,8.3211 0.84766,-6.6867 0.84766,3.92083 0.84765,15.59708 0.84766,8.51148 0.84765,2.3529 0.84766,-0.33548 0.84766,12.64459 0.84765,-21.36068 0.84766,-1.02366 0.84766,6.34903 0.84765,-31.65658 0.84766,29.55792 0.84765,-306.419963 0.84766,245.081553 0.84766,61.88074 0.84765,-0.97644 0.84766,14.25122 0.84766,-9.2966 0.84765,-2.17386 0.84766,7.28613 0.84765,5.16486 0.84766,-4.09015 0.84766,-21.64438 0.84765,23.83554 0.84766,-22.97668 0.84766,-6.49958 0.84765,27.08948 0.84766,10.44455 0.84765,-12.29523 0.84766,6.76578 0.84766,7.14936 0.84765,-2.62507 0.84766,1.32602 0.84766,-12.2518 0.84765,-0.005 0.84766,-16.71731 0.84765,22.00988 0.84766,-4.73831 0.84766,1.02979 0.84765,10.45471 0.84766,-16.74149 0.84766,-0.125 0.84765,9.8497 0.84766,-4.36254 0.84765,-6.30042 0.84766,14.72376 0.84766,2.16397 0.84765,-3.93015 0.84766,-14.96942 0.84766,12.76971 0.84765,8.98212 0.84766,-9.7305 0.84765,-6.88428 0.84766,12.3386 0.84766,-6.80814 0.84765,2.66678 0.84766,3.13589 0.84766,-0.66275 0.84765,-3.01419 0.84766,-13.04559 0.84765,-14.93295 0.84766,13.22653 0.84766,2.34671 0.84765,-2.33221 0.84766,5.51928 0.84766,-2.71795 0.84765,-2.35865 0.84766,-6.82257 0.84765,15.05045 0.84766,16.07315 0.84766,-20.2254 0.84765,-36.22471 0.84766,17.68204 0.84766,10.52872 0.84765,-9.73316 0.84766,22.52036 0.84765,14.76831 0.84766,-8.29025 0.84766,-2.49967 0.84765,-8.85394 0.84766,9.30216 0.84766,-15.29606 0.84765,-3.242 0.84766,-0.66821 0.84765,3.10598 0.84766,-6.21304 0.84766,-13.50729 0.84765,-30.33649 0.84766,-34.66424 0.84766,43.34042 0.84765,-11.56653 0.84766,13.97842 0.84765,22.45603 0.84766,17.29266 0.84766,-33.08893 0.84765,12.13596 0.84766,-3.76608 0.84766,2.3583 0.84765,16.62693 0.84766,-37.55848 0.84765,-2.92755 0.84766,-12.82901 0.84766,23.16077 0.84765,54.52423 0.84766,-38.40118 0.84766,12.3475 0.33477,-305.089868"
           style="fill:none;stroke:#0000ff;stroke-width:0.666667;stroke-linecap:butt;stroke-linejoin:round;stroke-miterlimit:10;stroke-dasharray:none;stroke-opacity:1"
           id="path424" /></g><g
         id="g426"
         transform="matrix(6,0,0,6,-157,-81.374977)"><path
           d="m 305.97183,30.959112 0.13364,87.486078 0.84765,123.52745 0.84766,75.12526 0.84766,-1.01349 0.84765,-0.65225 0.84766,8.83487 0.84766,-14.17301 0.84765,27.17963 0.84766,-14.22662 0.84765,12.89343 0.84766,3.62064 0.84766,-6.10547 0.84765,-0.92972 0.84766,-45.59891 0.84766,38.34186 0.84765,19.97299 0.84766,11.28891 0.84765,-6.45795 0.84766,7.90293 0.84766,11.44836 0.84765,-5.8457 0.84766,-10.37247 0.84766,-7.58084 0.84765,13.34519 0.84766,-19.85984 0.84765,-13.27105 0.84766,17.43051 0.84766,-7.83542 0.84765,-2.57004 0.84766,39.74713 0.84766,-13.58182 0.84765,2.55112 0.84766,-19.93524 0.84765,29.25317 0.84766,-14.69238 0.84766,-12.73837 0.84765,-14.76373 0.84766,-25.30698 0.84766,28.155 0.84765,17.3262 0.84766,4.56631 0.84765,11.41678 0.84766,3.45478 0.84766,0.0312 0.84765,-2.87684 0.84766,-5.34161 0.84766,-42.69491 0.84765,18.91934 0.84766,8.35064 0.84766,9.86622 0.84765,-12.91517 0.84766,1.96534 0.84765,-1.66544 0.84766,10.33026 0.84766,-3.84497 0.84765,-6.4834 0.84766,-32.04019 0.84765,-19.26761 0.84766,-50.48262 0.84766,95.49516 0.84765,11.88169 0.84766,-14.47669 0.84766,-44.49829 0.84765,-142.06917 0.84766,98.16781 0.84765,55.38839 0.84766,15.53256 0.84766,-25.79174 0.84765,-53.646 0.84766,-4.15375 0.84766,30.74424 0.84765,21.05105 0.84766,15.55487 0.84765,10.19464 0.84766,-1.17337 0.84766,-7.61123 0.84765,3.65603 0.84766,-8.67145 0.84766,8.40763 0.84765,11.16223 0.84766,-7.79047 0.84765,-33.14782 0.84766,-103.29715 0.44058,-140.116728"
           style="fill:none;stroke:#0000ff;stroke-width:0.666667;stroke-linecap:butt;stroke-linejoin:round;stroke-miterlimit:10;stroke-dasharray:none;stroke-opacity:1"
           id="path428" /></g><g
         id="g430"
         transform="matrix(6,0,0,6,-157,-81.374977)"><path
           d="m 376.73749,30.959112 0.5711,267.314788 0.84766,58.65246 0.84766,8.11649 0.84765,-16.47516 0.84766,1.50528 0.84765,-29.28369 0.84766,16.60363 0.84766,-7.12814 0.84765,4.66843 0.84766,0.5986 0.84766,-17.11121 0.84765,33.00632 0.84766,-34.89929 0.84765,19.32455 0.84766,34.5214 0.84766,-10.60572 0.84765,-10.75985 0.84766,-6.473 0.84766,4.77634 0.84765,5.97864 0.84766,0.91836 0.84765,-7.13278 0.84766,1.72943 0.84766,14.40744 0.84765,7.83551 0.84766,-1.02237 0.84766,-0.79278 0.84765,-5.44861 0.84766,0.92441 0.84765,-7.88278 0.84766,-19.81672 0.84766,8.26679 0.84765,2.68271 0.84766,13.25464 0.84766,4.51934 0.84765,-0.63006 0.84766,-7.99436 0.84765,2.44568 0.84766,-9.22091 0.84766,1.08215 0.84765,4.95584 0.84766,0.0572 0.84766,-18.13144 0.84765,-11.70975 0.84766,6.66095 0.84765,-29.30453 0.84766,26.64963 0.84766,-24.00101 0.84765,32.0574 0.84766,28.69574 0.84766,-7.61535 0.84765,-15.28272 0.84766,12.77509 0.84765,8.94937 0.84766,-65.59009 0.84766,-18.48309 0.84765,-27.65679 0.84766,14.62777 0.84766,-17.03934 0.84765,45.67093 0.84766,57.87161 0.84765,3.39334 0.84766,-51.35428 0.84766,-19.01291 0.84765,37.1406 0.84766,37.17199 0.84766,2.94153 0.84765,-13.12356 0.84766,-4.4516 0.84765,-120.08576 0.84766,69.24335 0.84766,51.50083 0.84765,4.39761 0.84766,1.53305 0.84766,5.00635 0.84765,-3.75528 0.84766,4.84503 0.84765,-6.15592 0.84766,-4.4544 0.84766,1.89657 0.84765,-0.0959 0.84766,7.95688 0.84766,-2.77301 0.84765,-10.52781 0.84766,9.84436 0.84765,-10.25088 0.84766,0.65396 0.84766,2.61301 0.84765,-9.85282 0.84766,26.6135 0.84766,0.17077 0.84765,-8.40335 0.84766,-11.3894 0.84766,-11.12546 0.84765,9.6648 0.84766,4.41427 0.84765,-25.88366 0.84766,39.88665 0.84766,-4.08542 0.84765,0.57853 0.84766,-9.95938 0.84765,-0.0293 0.84766,-5.7497 0.84766,-0.23556 0.84765,-2.44226 0.84766,-2.05103 0.84766,15.93732 0.84765,-14.57004 0.84766,8.85468 0.84765,-7.17951 0.84766,0.0286 0.84766,8.53702 0.84765,-9.32651 0.84766,16.7941 0.84766,-3.00147 0.84765,5.29456 0.84766,-19.12308 0.84765,2.91263 0.84766,6.2247 0.84766,-1.37448 0.84765,2.57074 0.84766,-11.70041 0.84766,0.1561 0.84765,1.04385 0.84766,17.86609 0.84765,-13.3566 0.84766,9.05429 0.84766,5.20206 0.84765,-21.03336 0.84766,0.10297 0.84766,12.73614 0.84765,-19.03463 0.84766,-5.91449 0.84765,-19.60736 0.84766,3.94769 0.84766,0.34906 0.84765,-8.10663 0.84766,24.04446 0.84766,25.31882 0.84765,-2.32471 0.84766,-12.26907 0.84765,-0.23001 0.84766,18.69284 0.84766,10.91629 0.84765,-11.03165 0.84766,12.30436 0.84766,-6.83857 0.84765,-12.63711 0.84766,-5.18384 0.84765,7.54327 0.84766,6.69114 0.84766,-7.76246 0.84765,-10.901 L 507,352.61609"
           style="fill:none;stroke:#0000ff;stroke-width:0.666667;stroke-linecap:butt;stroke-linejoin:round;stroke-miterlimit:10;stroke-dasharray:none;stroke-opacity:1"
           id="path432" /></g><g
         id="g434"
         transform="matrix(6,0,0,6,-157,-81.374977)"><path
           d="m 73.847656,367.7728 0.847656,-7.51853 0.847657,0.89789 0.847656,2.14719 0.847656,1.22683 0.847656,-0.49661 0.847657,-1.47586 0.847656,-2.82046 0.847656,-4.42752 0.847656,-3.58606 0.847657,3.89871 0.847656,8.74942 0.847656,-9.83209 0.847656,-4.17481 0.847657,0.72742 0.847656,-58.03958 0.847656,59.80536 0.847656,10.78649 0.847657,8.19681 0.847656,-1.93805 0.847656,-3.42849 0.847656,-3.83811 0.847657,-3.79019 0.847656,-2.49963 0.847656,1.72479 0.847656,10.37655 0.847657,-3.17758 0.847656,-11.35183 0.847656,-1.59485 0.847656,2.22134 0.847657,-0.0566 0.847656,-15.79306 0.84766,12.05744 0.84765,9.05523 0.84766,6.88782 0.84766,-1.85297 0.84765,-7.09951 0.84766,-6.02973 0.84765,0.16226 0.84766,-5.68139 0.84766,-5.33237 0.84765,-12.52335 0.84766,2.09082 0.84766,25.89539 0.84765,-6.0119 0.84766,1.11612 0.84765,-20.9982 0.84766,20.29648 0.84766,6.97513 0.84765,-1.27948 0.84766,-0.86942 0.84766,0.75732 0.84765,3.77127 0.84766,3.56876 0.84765,3.07587 0.84766,-3.46289 0.84766,0.84958 0.84765,4.83483 0.84766,-11.33032 0.84765,-6.46643 0.84766,-40.45154 0.84766,8.9726 0.84765,13.06717 0.84766,24.43716 0.84766,-13.82489 0.84765,-44.88022 0.84766,18.36115 0.84765,-3.13867 0.84766,44.10476 0.84766,9.0239 0.84765,-5.83661 0.84766,-4.43112 0.84766,-2.03971 0.84765,-3.90954 0.84766,-25.31638 0.84765,29.66623 0.84766,-16.38073 0.84766,30.27096 0.84765,-5.8819 0.84766,-1.19366 0.84766,8.35168 0.84765,3.24085 0.84766,-7.96716 0.84765,-6.41376 0.84766,-3.66074 0.84766,-4.86102 0.84765,-3.44055 0.84766,3.7988 0.84766,8.1296 0.84765,-4.28524 0.84766,-4.05857 0.84765,-0.71029 0.84766,4.57403 0.84766,7.48718 0.84765,3.42353 0.84766,-3.93158 0.84766,-2.84366 0.84765,5.21963 0.84766,1.48276 0.84765,-0.0231 0.84766,-5.83289 0.84766,-4.50934 0.84765,-2.33712 0.84766,0.23929 0.84766,0.54708 0.84765,-2.61911 0.84766,-0.37252 0.84765,2.32656 0.84766,-1.51248 0.84766,-0.88302 0.84765,2.93191 0.84766,5.2814 0.84766,2.46439 0.84765,5.7164 0.84766,-0.27014 0.84766,0.50616 0.84765,0.85541 0.84766,-7.16394 0.84765,-0.5527 0.84766,2.65655 0.84766,-1.55993 0.84765,-6.07932 0.84766,-4.72082 0.84765,-0.72785 0.84766,0.0349 0.84766,2.20542 0.84765,1.18524 0.84766,1.33938 0.84766,4.38315 0.84765,7.64951 0.84766,3.06704 0.84765,-2.72973 0.84766,-0.17777 0.84766,-0.55249 0.84765,-0.70227 0.84766,0.26007 0.84766,1.20771 0.84765,0.22277 0.84766,-1.09616 0.84765,-0.88046 0.84766,-1.36822 0.84766,-2.85111 0.84765,-1.3251 0.84766,0.60708 0.84766,5.75125 0.84765,0.0641 0.84766,-8.61587 0.84765,-3.64087 0.84766,0.47445 0.84766,6.65656 0.84765,7.30081 0.84766,-6.55786 0.84766,-1.81467 0.84765,-2.75046 0.84766,0.49259 0.84765,3.33154 0.84766,3.43607 0.84766,2.88031 0.84765,3.04675 0.84766,-0.8815 0.84766,-4.67368 0.84765,-4.2872 0.84766,-1.41064 0.84765,4.59125 0.84766,6.18173 0.84766,-6.0484 0.84765,-14.33017 0.84766,-12.81006 0.84766,-1.45261 0.84765,1.57093 0.84766,3.63302 0.84765,4.08798 0.84766,-2.87933 0.84766,-2.85934 0.84765,2.75332 0.84766,6.60028 0.84766,6.3497 0.84765,6.5409 0.84766,-7.43082 0.84765,8.39102 0.84766,-7.0477 0.84766,-11.6932 0.84765,-0.94123 0.84766,-3.27404 0.84766,-45.10657 0.84765,-43.01445 0.84766,72.98152 0.84765,-4.51645 0.84766,9.0611 0.84766,13.99176 0.84765,15.79584 0.84766,-2.88871 0.84766,-10.81527 0.84765,8.7257 0.84766,-6.32949 0.84765,-1.57425 0.84766,6.27835 0.84766,9.6965 0.84765,0.61316 0.84766,-8.88495 0.84766,-4.38376 0.84765,-2.41653 0.84766,6.93643 0.84765,6.04028 0.84766,2.56916 0.84766,2.28402 0.84765,3.98944 0.84766,5.84394 0.84766,-11.54099 0.84765,-6.21359 0.84766,-2.20142 0.84765,7.16919 0.84766,8.48578 0.84766,-8.41601 0.84765,-5.1818 0.84766,2.57672 0.84766,3.58625 0.84765,-14.08899 0.84766,-4.12335 0.84765,12.81976 0.84766,-3.40784 0.84766,-4.5151 0.84765,-3.03327 0.84766,-3.44641 0.84766,6.00433 0.84765,5.6637 0.84766,-4.91245 0.84765,-14.30871 0.84766,-1.60007 0.84766,8.27707 0.84765,9.86316 0.84766,1.05045 0.84766,-8.86826 0.84765,-5.70145 0.84766,-2.75067 0.84765,2.22235 0.84766,5.99616 0.84766,11.65561 0.84765,8.30908 0.84766,2.9248 0.84766,-1.45199 0.84765,-7.8703 0.84766,-2.73392 0.84765,8.06323 0.84766,6.31168 0.84766,-12.98151 0.84765,-9.13037 0.84766,-10.59213 0.84766,-9.13019 0.84765,33.51691 0.84766,-9.21143 0.84765,-6.8009 0.84766,-16.01413 0.84766,43.87555 0.84765,-7.03473 0.84766,-4.42365 0.84766,-9.24746 0.84765,-6.51029 0.84766,-1.25488 0.84765,4.89877 0.84766,8.35895 0.84766,11.21924 0.84765,-15.53046 0.84766,-1.10058 0.84766,4.16558 0.84765,-4.87283 0.84766,-31.57525 0.84765,-4.95121 0.84766,-53.01159 0.84766,5.59344 0.84765,28.28824 0.84766,32.06827 0.84766,29.92111 0.84765,5.31515 0.84766,-8.93112 0.84765,-3.83572 0.84766,3.27621 0.84766,-7.4613 0.84765,-44.98001 0.84766,0.58581 0.84766,44.52521 0.84765,7.34613 0.84766,6.93906 0.84765,-19.3049 0.84766,-77.01197 0.84766,-111.19271 0.84765,180.88287 0.84766,24.02594 0.84766,8.95651 0.84765,-7.9704 0.84766,-21.54446 0.84765,-16.24771 0.84766,-21.03168 0.84766,-87.15565 0.84765,73.66111 0.84766,44.95465 0.84766,13.00678 0.84765,13.55173 0.84766,-40.82581 0.84765,5.72003 0.84766,10.48722 0.84766,19.24768 0.84765,-0.82196 0.84766,-21.44416 0.84766,-12.32327 0.84765,4.16599 0.84766,10.8572 0.84765,17.17887 0.84766,11.75192 0.84766,6.56158 0.84765,-1.10668 0.84766,-5.59028 0.84766,-3.43814 0.84765,-3.00351 0.84766,4.58362 0.84765,0.0497 0.84766,-5.8992 0.84766,-15.65701 0.84765,0.29294 0.84766,-1.46594 0.84766,25.62436 0.84765,-9.78296 0.84766,-7.04621 0.84766,8.07257 0.84765,10.50486 0.84766,4.25131 0.84765,-11.74573 0.84766,-1.06192 0.84766,5.09103 0.84765,-18.61889 0.84766,-21.12592 0.84765,-13.28479 0.84766,13.71152 0.84766,23.76599 0.84765,16.83887 0.84766,3.35916 0.84766,1.62015 0.84765,-0.93509 0.84766,-16.13852 0.84765,-5.43155 0.84766,3.13886 0.84766,15.56414 0.84765,-4.65597 0.84766,-13.69037 0.84766,-7.68628 0.84765,7.8136 0.84766,13.84357 0.84765,4.5346 0.84766,-2.15091 0.84766,0.74988 0.84765,-55.84558 0.84766,-37.36011 0.84766,-21.1718 0.84765,20.97106 0.84766,53.33291 0.84765,-54.50857 0.84766,-94.95786 0.84766,-31.25076 0.84765,40.68749 0.84766,68.80677 0.84766,34.66761 0.84765,14.70495 0.84766,24.6434 0.84765,36.91529 0.84766,-23.39588 0.84766,-20.38754 0.84765,1.18799 0.84766,4.09045 0.84766,39.78375 0.84765,-4.59085 0.84766,-18.67071 0.84765,-32.74735 0.84766,-77.5435 0.84766,129.23384 0.84765,-7.42981 0.84766,-8.91266 0.84766,-7.9035 0.84765,-0.72458 0.84766,4.53821 0.84765,2.25751 0.84766,3.19323 0.84766,-0.80447 0.84765,-53.15463 0.84766,30.77554 0.84766,13.31632 0.84765,6.39538 0.84766,-0.46918 0.84765,2.61634 0.84766,9.25619 0.84766,15.95737 0.84765,-12.5762 0.84766,-17.27042 0.84766,-6.42343 0.84765,6.41531 0.84766,7.19889 0.84765,-1.3191 0.84766,9.47593 0.84766,1.01052 0.84765,-3.29654 0.84766,-6.99679 0.84766,-3.86575 0.84765,0.91497 0.84766,15.63678 0.84765,5.63852 0.84766,-29.0899 0.84766,-22.23041 0.84765,-10.6557 0.84766,-4.88947 0.84766,-16.01355 0.84765,-22.31048 0.84766,7.2937 0.84765,13.6149 0.84766,1.7081 0.84766,5.97073 0.84765,17.81928 0.84766,33.43609 0.84766,29.32508 0.84765,-12.53162 0.84766,-6.91153 0.84765,1.78656 0.84766,-4.07864 0.84766,-1.34403 0.84765,3.41037 0.84766,14.99402 0.84766,-6.28299 0.84765,-32.40753 0.84766,-23.70331 0.84765,-0.29272 0.84766,31.00393 0.84766,29.6879 0.84765,-55.52344 0.84766,-24.8825 0.84766,16.33352 0.84765,16.80197 0.84766,6.66028 0.84765,18.88803 0.84766,18.11359 0.84766,-20.60101 0.84765,-43.98606 0.84766,61.39014 0.84766,16.2561 0.84765,-6.27087 0.84766,-4.55811 0.84765,2.87952 0.84766,-21.71637 0.84766,-34.16385 0.84765,-70.16554 0.84766,22.38942 0.84766,77.44223 0.84765,6.54791 0.84766,-4.60086 0.84766,-7.41534 0.84765,1.07241 0.84766,3.68302 0.84765,13.69952 0.84766,17.48529 0.84766,4.577 0.84765,-12.81378 0.84766,-27.61609 0.84765,8.26236 0.84766,4.48242 0.84766,-4.20255 0.84765,2.10489 0.84766,14.08029 0.84766,-5.17153 0.84765,-19.68888 0.84766,-2.78781 0.84765,11.67938 0.84766,15.25492 0.84766,5.58526 0.84765,10.69303 0.84766,-31.14783 0.84766,-14.07034 0.84765,12.54669 0.84766,3.3099 0.84765,5.53495 0.84766,8.59573 0.84766,2.5788 0.84765,0.73159 0.84766,2.83625 0.84766,3.85565 0.84765,1.71783 0.84766,-0.95895 0.84765,-5.08279 0.84766,-0.38727 0.84766,-30.13935 0.84765,20.2099 0.84766,9.53962 0.84766,6.98678 0.84765,5.2164 0.84766,2.22611 0.84765,-5.00803 0.84766,-13.41208 0.84766,-20.66687 0.84765,-32.4245 0.84766,5.14118 0.84766,23.53878 0.84765,17.77442 0.84766,14.03027 0.84765,-23.3956 0.84766,4.72846 0.84766,23.44598 0.84765,-8.13248 0.84766,-1.5382 0.84766,-8.1688 0.84765,-46.05981 0.84766,-53.89342 0.84765,14.59953 0.84766,24.07728 0.84766,26.89697 0.84765,34.10245 0.84766,8.21615"
           style="fill:none;stroke:#000000;stroke-width:0.666667;stroke-linecap:butt;stroke-linejoin:round;stroke-miterlimit:10;stroke-dasharray:none;stroke-opacity:1"
           id="path436" /></g><g
         id="g438"
         transform="matrix(6,0,0,6,-157,-81.374977)"><path
           d="m 73.847656,349.57117 0.847656,-38.41748 0.847657,20.02896 0.847656,25.19943 0.847656,-11.31689 0.847656,-12.78135 0.847657,-60.54181 0.847656,3.41398 0.847656,54.03299 0.847656,9.66067 0.847657,6.78043 0.847656,3.69769 0.847656,-1.55451 0.847656,7.17896 0.847657,-4.37994 0.847656,-64.87189 0.847656,58.46323 0.847656,-7.06424 0.847657,-3.86127 0.847656,10.91153 0.847656,-53.7218 0.847656,11.61059 0.847657,33.51447 0.847656,35.23971 0.847656,-21.64123 0.847656,-29.30017 0.847657,16.08603 0.847656,3.07223 0.847656,-1.21951 0.847656,5.03491 0.847657,11.00299 0.847656,13.51798 0.84766,-8.94361 0.84765,8.00412 0.84766,4.3671 0.84766,-4.79883 0.84765,-5.09698 0.84766,0.59805 0.84765,2.34241 0.84766,-0.94675 0.84766,2.49179 0.84765,0.45431 0.84766,-5.56085 0.84766,-6.93185 0.84765,2.47037 0.84766,0.17511 0.84765,-24.74787 0.84766,-9.58493 0.84766,26.54871 0.84765,16.83239 0.84766,-17.20776 0.84766,-40.78802 0.84765,-29.34162 0.84766,13.5072 0.84765,15.64335 0.84766,31.91439 0.84766,11.97681 0.84765,-14.25815 0.84766,-12.33951 0.84765,-3.88903 0.84766,-7.28736 0.84766,28.1355 0.84765,14.64377 0.84766,3.35916 0.84766,-2.81491 0.84765,3.86838 0.84766,-2.1435 0.84765,3.62882 0.84766,5.98211 0.84766,-2.68014 0.84765,-5.24838 0.84766,-3.45325 0.84766,9.37302 0.84765,2.58429 0.84766,-8.74198 0.84765,-5.26694 0.84766,-3.58132 0.84766,-4.27073 0.84765,6.06195 0.84766,12.35123 0.84766,0.58106 0.84765,2.67218 0.84766,-12.22138 0.84765,-11.03219 0.84766,1.5711 0.84766,-10.70587 0.84765,-11.24142 0.84766,5.51522 0.84766,12.36902 0.84765,11.51917 0.84766,1.87661 0.84765,-0.9234 0.84766,5.05039 0.84766,6.25513 0.84765,-0.0216 0.84766,0.5946 0.84766,3.5647 0.84765,-2.73932 0.84766,-1.23608 0.84765,1.59396 0.84766,0.16928 0.84766,-4.67593 0.84765,0.27884 0.84766,7.6495 0.84766,-7.88955 0.84765,-15.16089 0.84766,-11.73364 0.84765,-19.08728 0.84766,-15.36161 0.84766,-8.82635 0.84765,-10.86276 0.84766,-39.59115 0.84766,22.36782 0.84765,-48.88953 0.84766,39.79015 0.84766,61.14024 0.84765,-5.06122 0.84766,-29.38235 0.84765,-11.29557 0.84766,69.78486 0.84766,5.23791 0.84765,-18.89944 0.84766,-6.31403 0.84765,17.74924 0.84766,6.96686 0.84766,-2.76743 0.84765,-16.57852 0.84766,-26.35422 0.84766,3.50974 0.84765,0.35864 0.84766,47.5867 0.84765,-21.72305 0.84766,27.06686 0.84766,11.20612 0.84765,-20.51056 0.84766,-9.31436 0.84766,0.52032 0.84765,-7.6976 0.84766,14.72723 0.84765,4.48911 0.84766,-0.19123 0.84766,7.18689 0.84765,8.99033 0.84766,-12.46616 0.84766,-12.3757 0.84765,-17.7276 0.84766,-21.05188 0.84765,-0.0553 0.84766,25.54929 0.84766,23.52121 0.84765,-0.70514 0.84766,-11.95383 0.84766,-22.16046 0.84765,7.4238 0.84766,20.32568 0.84765,-2.28512 0.84766,5.69656 0.84766,3.11267 0.84765,-7.13693 0.84766,-6.39889 0.84766,2.50201 0.84765,-2.13312 0.84766,3.36551 0.84765,5.68311 0.84766,0.668 0.84766,-1.41257 0.84765,1.32672 0.84766,2.61346 0.84766,7.61289 0.84765,15.19082 0.84766,-15.31896 0.84765,-15.67493 0.84766,-18.2898 0.84766,-30.9244 0.84765,33.5942 0.84766,-15.8313 0.84766,16.41858 0.84765,23.62537 0.84766,3.16598 0.84765,0.68723 0.84766,0.41159 0.84766,0.27869 0.84765,1.06741 0.84766,3.9498 0.84766,-4.13513 0.84765,-8.00366 0.84766,-13.51481 0.84765,-43.8973 0.84766,-13.84244 0.84766,17.88034 0.84765,14.79678 0.84766,23.50916 0.84766,31.44308 0.84765,-8.8154 0.84766,-5.39499 0.84765,-4.02783 0.84766,1.7721 0.84766,9.44113 0.84765,9.35031 0.84766,0.63208 0.84766,2.92142 0.84765,-1.44138 0.84766,-5.12198 0.84765,-2.45285 0.84766,-13.76919 0.84766,-10.2298 0.84765,-0.14502 0.84766,6.30371 0.84766,-3.56638 0.84765,10.65387 0.84766,4.07331 0.84765,-19.67179 0.84766,-22.51004 0.84766,-21.29226 0.84765,-7.18738 0.84766,2.86865 0.84766,-15.12283 0.84765,-28.11611 0.84766,27.86443 0.84765,81.98892 0.84766,8.37744 0.84766,-6.56497 0.84765,-36.69632 0.84766,-22.61822 0.84766,15.89615 0.84765,15.90325 0.84766,-0.86059 0.84765,-3.535 0.84766,-8.78812 0.84766,0.0554 0.84765,9.74237 0.84766,9.26773 0.84766,2.22809 0.84765,-2.02005 0.84766,11.45123 0.84765,-0.54315 0.84766,-4.15155 0.84766,-0.21695 0.84765,-14.11948 0.84766,11.40247 0.84766,-9.53888 0.84765,-6.64941 0.84766,12.91116 0.84765,28.30539 0.84766,-8.79691 0.84766,5.40946 0.84765,-1.84275 0.84766,-13.76608 0.84766,-16.24246 0.84765,-6.28668 0.84766,1.19015 0.84765,3.90439 0.84766,16.12875 0.84766,18.10587 0.84765,-6.83978 0.84766,-13.58603 0.84766,15.83948 0.84765,7.18093 0.84766,-7.75869 0.84765,8.73471 0.84766,4.13296 0.84766,-8.28427 0.84765,-12.80057 0.84766,12.13913 0.84766,2.12867 0.84765,-8.44834 0.84766,-17.39163 0.84765,-4.06439 0.84766,6.47043 0.84766,9.10403 0.84765,5.05408 0.84766,9.37121 0.84766,-0.0868 0.84765,-6.58221 0.84766,-2.59397 0.84765,-2.7323 0.84766,-1.05145 0.84766,2.42822 0.84765,2.94617 0.84766,-2.84946 0.84766,-0.3674 0.84765,6.49008 0.84766,12.46369 0.84765,-4.62659 0.84766,-8.14999 0.84766,3.24716 0.84765,-0.24249 0.84766,-13.9213 0.84766,1.11362 0.84765,10.14502 0.84766,0.69168 0.84765,7.11999 0.84766,-28.78469 0.84766,-28.13324 0.84765,-7.49851 0.84766,33.80576 0.84766,22.56884 0.84765,4.18024 0.84766,-4.84759 0.84765,-4.5391 0.84766,-19.93194 0.84766,6.76242 0.84765,7.19357 0.84766,10.44244 0.84766,-11.58569 0.84765,-23.69708 0.84766,33.91247 0.84765,-1.00274 0.84766,14.62515 0.84766,-6.84607 0.84765,-62.47235 0.84766,30.68289 0.84766,10.39765 0.84765,-16.43103 0.84766,5.93872 0.84765,0.34515 0.84766,-12.435 0.84766,-36.56045 0.84765,34.64651 0.84766,-12.23608 0.84766,64.55466 0.84765,-11.35346 0.84766,3.16892 0.84766,-5.00116 0.84765,-7.39853 0.84766,-2.27185 0.84765,4.51702 0.84766,9.44684 0.84766,10.51596 0.84765,-1.53143 0.84766,-10.29993 0.84765,-4.91748 0.84766,-1.83984 0.84766,-3.69284 0.84765,-20.50046 0.84766,-9.36633 0.84766,33.1322 0.84765,20.28275 0.84766,-14.01093 0.84765,-35.33685 0.84766,-12.32807 0.84766,13.1316 0.84765,18.54898 0.84766,-221.61934 0.84766,244.54347 0.84765,-34.88519 0.84766,-8.1969 0.84765,20.81112 0.84766,10.13507 0.84766,-4.9833 0.84765,-22.05927 0.84766,-30.0224 0.84766,-6.24395 0.84765,-24.50754 0.84766,48.44925 0.84765,20.14511 0.84766,-4.62467 0.84766,2.77295 0.84765,13.03095 0.84766,5.73999 0.84766,-4.00626 0.84765,-3.82525 0.84766,-8.73172 0.84765,-9.00437 0.84766,0.19669 0.84766,11.975 0.84765,19.25418 0.84766,9.3664 0.84766,-9.05551 0.84765,6.70501 0.84766,-4.37158 0.84765,-9.62363 0.84766,-2.61621 0.84766,0.0694 0.84765,-8.3465 0.84766,-11.46646 0.84766,-1.49289 0.84765,-3.40213 0.84766,27.62674 0.84765,19.10169 0.84766,-20.30225 0.84766,-16.63934 0.84765,-15.03104 0.84766,13.45331 0.84766,20.24652 0.84765,10.18299 0.84766,-14.72773 0.84765,-6.23819 0.84766,13.78281 0.84766,0.5986 0.84765,-1.31659 0.84766,2.42456 0.84766,-5.68982 0.84765,-26.49972 0.84766,-18.59924 0.84765,17.04562 0.84766,13.69189 0.84766,34.44065 0.84765,-4.09455 0.84766,-5.35666 0.84766,-7.08798 0.84765,-2.09253 0.84766,2.63706 0.84765,-21.52579 0.84766,-49.28958 0.84766,38.98563 0.84765,27.49432 0.84766,-91.35086 0.84766,-38.48966 0.84765,81.93421 0.84766,40.58957 0.84765,22.01434 0.84766,2.71582 0.84766,-12.52563 0.84765,-12.15406 0.84766,-5.87372 0.84766,4.21863 0.84765,14.07111 0.84766,5.89895 0.84765,-1.21344 0.84766,-19.79208 0.84766,-8.14792 0.84765,-75.76124 0.84766,-83.51616 0.84766,74.73372 0.84765,95.16578 0.84766,1.36222 0.84765,11.42508 0.84766,0.76385 0.84766,-1.46768 0.84765,-1.30826 0.84766,-2.63763 0.84766,3.14166 0.84765,3.05093 0.84766,-2.54529 0.84765,3.60807 0.84766,1.56125 0.84766,9.71035 0.84765,0.31427 0.84766,-13.34466 0.84766,-15.79624 0.84765,-20.61584 0.84766,-34.99072 0.84765,28.04956 0.84766,46.3872 0.84766,-13.09115 0.84765,-0.12283 0.84766,11.17923 0.84766,3.84555 0.84765,-0.86121 0.84766,3.07968 0.84766,2.84552 0.84765,-1.0098 0.84766,-1.80563 0.84765,-1.55594 0.84766,-5.43683 0.84766,-17.55987 0.84765,-11.63437 0.84766,7.46017 0.84765,14.55051 0.84766,18.59219 0.84766,-9.61325 0.84765,-5.62765 0.84766,-16.22238 0.84766,-10.22834 0.84765,-5.4758 0.84766,-5.4519 0.84765,-22.0581 0.84766,-33.23572 0.84766,90.75793 0.84765,1.13861 0.84766,-7.15274 0.84766,10.41278 0.84765,4.18036 0.84766,-81.58288 0.84765,-61.85183 0.84766,65.37966 0.84766,39.50772 0.84765,3.52652 0.84766,-19.93186 0.84766,26.60978 0.84765,-8.23423 0.84766,11.42752 0.84765,11.07578 0.84766,-7.74448 0.84766,-1.57742 0.84765,0.0451 0.84766,2.94974 0.84766,5.76526 0.84765,-17.03918 0.84766,-23.41742 0.84765,-18.35507 0.84766,9.82211 0.84766,23.54809 0.84765,27.90619 0.84766,-11.76275 0.84766,-38.39234 0.84765,38.53763 0.84766,13.89716 0.84765,9.13974 0.84766,3.6632 0.84766,-1.27142 0.84765,-5.14218 0.84766,-2.3035 0.84766,4.80881 0.84765,6.75442 0.84766,10.00934 0.84765,-8.01587 0.84766,-6.39779 0.84766,-5.21201 0.84765,-5.74411 0.84766,-2.2287"
           style="fill:none;stroke:#ff0000;stroke-width:0.666667;stroke-linecap:butt;stroke-linejoin:round;stroke-miterlimit:10;stroke-dasharray:none;stroke-opacity:1"
           id="path440" /></g><g
         id="g442"
         transform="matrix(6,0,0,6,-157,-81.374977)"><path
           d="M 496,95 V 42 h -80 v 53 z"
           style="fill:#ffffff;fill-opacity:1;fill-rule:nonzero;stroke:none"
           id="path444" /></g><g
         id="g446"><g
           id="g448"
           transform="matrix(6,0,0,6,2621,230.62502)"><text
             transform="translate(0,5)"
             style="font-variant:normal;font-weight:normal;font-size:12px;font-family:Helvetica;-inkscape-font-specification:Helvetica;writing-mode:lr-tb;fill:#000000;fill-opacity:1;fill-rule:nonzero;stroke:none"
             id="text452"><tspan
               x="0 8.0039997 18 24.672001"
               y="0"
               sodipodi:role="line"
               id="tspan450">Empt</tspan></text></g></g><g
         id="g454"
         transform="matrix(6,0,0,6,-157,-81.374977)"><path
           d="m 420,52 h 40"
           style="fill:none;stroke:#0000ff;stroke-width:0.666667;stroke-linecap:butt;stroke-linejoin:round;stroke-miterlimit:10;stroke-dasharray:none;stroke-opacity:1"
           id="path456" /></g><g
         id="g458"><g
           id="g460"
           transform="matrix(6,0,0,6,2621,329.62502)"><text
             transform="translate(0,5)"
             style="font-variant:normal;font-weight:normal;font-size:12px;font-family:Helvetica;-inkscape-font-specification:Helvetica;writing-mode:lr-tb;fill:#000000;fill-opacity:1;fill-rule:nonzero;stroke:none"
             id="text464"><tspan
               x="0 8.6639996 15.336 18"
               y="0"
               sodipodi:role="line"
               id="tspan462">Half</tspan></text></g></g><g
         id="g466"
         transform="matrix(6,0,0,6,-157,-81.374977)"><path
           d="m 420,68.5 h 40"
           style="fill:none;stroke:#000000;stroke-width:0.666667;stroke-linecap:butt;stroke-linejoin:round;stroke-miterlimit:10;stroke-dasharray:none;stroke-opacity:1"
           id="path468" /></g><g
         id="g470"><g
           id="g472"
           transform="matrix(6,0,0,6,2621,428.62502)"><text
             transform="translate(0,5)"
             style="font-variant:normal;font-weight:normal;font-size:12px;font-family:Helvetica;-inkscape-font-specification:Helvetica;writing-mode:lr-tb;fill:#000000;fill-opacity:1;fill-rule:nonzero;stroke:none"
             id="text476"><tspan
               x="0 7.3319998 14.004 16.667999"
               y="0"
               sodipodi:role="line"
               id="tspan474">Full</tspan></text></g></g><g
         id="g478"
         transform="matrix(6,0,0,6,-157,-81.374977)"><path
           d="m 420,85 h 40"
           style="fill:none;stroke:#ff0000;stroke-width:0.666667;stroke-linecap:butt;stroke-linejoin:round;stroke-miterlimit:10;stroke-dasharray:none;stroke-opacity:1"
           id="path480" /></g><g
         id="g482"
         transform="matrix(6,0,0,6,-157,-81.374977)"><path
           d="M 416,95 V 42 h 80 v 53 z"
           style="fill:none;stroke:#262626;stroke-width:0.666667;stroke-linecap:butt;stroke-linejoin:miter;stroke-miterlimit:10;stroke-dasharray:none;stroke-opacity:1"
           id="path484" /></g></g></g></svg>
