<?xml version="1.0" encoding="UTF-8" standalone="no"?>
<svg
   xmlns:dc="http://purl.org/dc/elements/1.1/"
   xmlns:cc="http://creativecommons.org/ns#"
   xmlns:rdf="http://www.w3.org/1999/02/22-rdf-syntax-ns#"
   xmlns:svg="http://www.w3.org/2000/svg"
   xmlns="http://www.w3.org/2000/svg"
   xmlns:sodipodi="http://sodipodi.sourceforge.net/DTD/sodipodi-0.dtd"
   xmlns:inkscape="http://www.inkscape.org/namespaces/inkscape"
   version="1.1"
   id="svg10"
   xml:space="preserve"
   width="313.98788"
   height="234.30713"
   viewBox="0 0 313.98788 234.30713"
   sodipodi:docname="weightvsfrequency.svg"
   inkscape:version="1.0.1 (3bc2e813f5, 2020-09-07)"><metadata
     id="metadata16"><rdf:RDF><cc:Work
         rdf:about=""><dc:format>image/svg+xml</dc:format><dc:type
           rdf:resource="http://purl.org/dc/dcmitype/StillImage" /><dc:title></dc:title></cc:Work></rdf:RDF></metadata><defs
     id="defs14" /><sodipodi:namedview
     pagecolor="#ffffff"
     bordercolor="#666666"
     borderopacity="1"
     objecttolerance="10"
     gridtolerance="10"
     guidetolerance="10"
     inkscape:pageopacity="0"
     inkscape:pageshadow="2"
     inkscape:window-width="1366"
     inkscape:window-height="705"
     id="namedview12"
     showgrid="false"
     inkscape:zoom="2.4497761"
     inkscape:cx="156.99394"
     inkscape:cy="117.15356"
     inkscape:window-x="-8"
     inkscape:window-y="-8"
     inkscape:window-maximized="1"
     inkscape:current-layer="g18" /><g
     id="g18"
     inkscape:groupmode="layer"
     inkscape:label="weightvsfrequency"
     transform="matrix(1.3333333,0,0,1.3333333,0,6.5243449e-6)"><g
       id="g20"><g
         id="g22"><path
           d="M 31.859,115.43 H 229.855 M 31.859,78.961 H 229.855 M 31.859,41.996 h 197.996"
           style="fill:none;stroke:#100f0d;stroke-width:0.330001;stroke-linecap:butt;stroke-linejoin:round;stroke-miterlimit:10;stroke-dasharray:0.5, 4;stroke-dashoffset:0;stroke-opacity:1"
           id="path24" /></g><g
         id="g26"><path
           d="m 31.859,5.035 h 197.996 m 0,0 V 152.391 M 31.859,5.035 v 147.356 m 0,0 h 3.204 M 31.859,115.43 h 3.204 M 31.859,78.961 h 3.204 M 31.859,41.996 h 3.204 M 31.859,5.035 h 3.204 m -3.204,147.356 h 197.996 m -197.996,0 v -3.203 m 49.594,3.203 v -3.203 m 49.652,3.203 v -3.203 m 49.161,3.203 v -3.203 m 49.589,3.203 v -3.203"
           style="fill:none;stroke:#100f0d;stroke-width:0.5;stroke-linecap:butt;stroke-linejoin:round;stroke-miterlimit:10;stroke-dasharray:none;stroke-opacity:1"
           id="path28" /></g><path
         d="m 33.707,14.398 c 0,-0.617 -0.555,-1.109 -1.168,-1.109 -0.617,0 -1.109,0.492 -1.109,1.109 0,0.555 0.492,1.11 1.109,1.11 0.613,0 1.168,-0.555 1.168,-1.11"
         style="fill:#252a6a;fill-opacity:1;fill-rule:evenodd;stroke:none"
         id="path30" /><g
         id="g32"><path
           d="m 33.707,14.398 c 0,-0.617 -0.555,-1.109 -1.168,-1.109 -0.617,0 -1.109,0.492 -1.109,1.109 0,0.555 0.492,1.11 1.109,1.11 0.613,0 1.168,-0.555 1.168,-1.11 z"
           style="fill:none;stroke:#252a6a;stroke-width:0.5;stroke-linecap:butt;stroke-linejoin:round;stroke-miterlimit:10;stroke-dasharray:none;stroke-opacity:1"
           id="path34" /></g><path
         d="m 35.988,12.98 c 0,-0.613 -0.554,-1.109 -1.172,-1.109 -0.613,0 -1.109,0.496 -1.109,1.109 0,0.618 0.496,1.172 1.109,1.172 0.618,0 1.172,-0.554 1.172,-1.172"
         style="fill:#252a6a;fill-opacity:1;fill-rule:evenodd;stroke:none"
         id="path36" /><g
         id="g38"><path
           d="m 35.988,12.98 c 0,-0.613 -0.554,-1.109 -1.172,-1.109 -0.613,0 -1.109,0.496 -1.109,1.109 0,0.618 0.496,1.172 1.109,1.172 0.618,0 1.172,-0.554 1.172,-1.172 z"
           style="fill:none;stroke:#252a6a;stroke-width:0.5;stroke-linecap:butt;stroke-linejoin:round;stroke-miterlimit:10;stroke-dasharray:none;stroke-opacity:1"
           id="path40" /></g><path
         d="m 37.773,12.121 c 0,-0.617 -0.492,-1.109 -1.109,-1.109 -0.613,0 -1.105,0.492 -1.105,1.109 0,0.551 0.492,1.109 1.105,1.109 0.617,0 1.109,-0.558 1.109,-1.109"
         style="fill:#252a6a;fill-opacity:1;fill-rule:evenodd;stroke:none"
         id="path42" /><g
         id="g44"><path
           d="m 37.773,12.121 c 0,-0.617 -0.492,-1.109 -1.109,-1.109 -0.613,0 -1.105,0.492 -1.105,1.109 0,0.551 0.492,1.109 1.105,1.109 0.617,0 1.109,-0.558 1.109,-1.109 z"
           style="fill:none;stroke:#252a6a;stroke-width:0.5;stroke-linecap:butt;stroke-linejoin:round;stroke-miterlimit:10;stroke-dasharray:none;stroke-opacity:1"
           id="path46" /></g><path
         d="m 39.621,11.625 c 0,-0.613 -0.555,-1.105 -1.168,-1.105 -0.617,0 -1.109,0.492 -1.109,1.105 0,0.617 0.492,1.172 1.109,1.172 0.613,0 1.168,-0.555 1.168,-1.172"
         style="fill:#252a6a;fill-opacity:1;fill-rule:evenodd;stroke:none"
         id="path48" /><g
         id="g50"><path
           d="m 39.621,11.625 c 0,-0.613 -0.555,-1.105 -1.168,-1.105 -0.617,0 -1.109,0.492 -1.109,1.105 0,0.617 0.492,1.172 1.109,1.172 0.613,0 1.168,-0.555 1.168,-1.172 z"
           style="fill:none;stroke:#252a6a;stroke-width:0.5;stroke-linecap:butt;stroke-linejoin:round;stroke-miterlimit:10;stroke-dasharray:none;stroke-opacity:1"
           id="path52" /></g><path
         d="m 41.84,11.625 c 0,-0.613 -0.492,-1.105 -1.11,-1.105 -0.613,0 -1.109,0.492 -1.109,1.105 0,0.617 0.496,1.172 1.109,1.172 0.618,0 1.11,-0.555 1.11,-1.172"
         style="fill:#252a6a;fill-opacity:1;fill-rule:evenodd;stroke:none"
         id="path54" /><g
         id="g56"><path
           d="m 41.84,11.625 c 0,-0.613 -0.492,-1.105 -1.11,-1.105 -0.613,0 -1.109,0.492 -1.109,1.105 0,0.617 0.496,1.172 1.109,1.172 0.618,0 1.11,-0.555 1.11,-1.172 z"
           style="fill:none;stroke:#252a6a;stroke-width:0.5;stroke-linecap:butt;stroke-linejoin:round;stroke-miterlimit:10;stroke-dasharray:none;stroke-opacity:1"
           id="path58" /></g><path
         d="m 43.688,12.98 c 0,-0.613 -0.555,-1.109 -1.168,-1.109 -0.618,0 -1.11,0.496 -1.11,1.109 0,0.618 0.492,1.172 1.11,1.172 0.613,0 1.168,-0.554 1.168,-1.172"
         style="fill:#252a6a;fill-opacity:1;fill-rule:evenodd;stroke:none"
         id="path60" /><g
         id="g62"><path
           d="m 43.688,12.98 c 0,-0.613 -0.555,-1.109 -1.168,-1.109 -0.618,0 -1.11,0.496 -1.11,1.109 0,0.618 0.492,1.172 1.11,1.172 0.613,0 1.168,-0.554 1.168,-1.172 z"
           style="fill:none;stroke:#252a6a;stroke-width:0.5;stroke-linecap:butt;stroke-linejoin:round;stroke-miterlimit:10;stroke-dasharray:none;stroke-opacity:1"
           id="path64" /></g><path
         d="m 45.477,12.98 c 0,-0.613 -0.497,-1.109 -1.11,-1.109 -0.617,0 -1.109,0.496 -1.109,1.109 0,0.618 0.492,1.172 1.109,1.172 0.613,0 1.11,-0.554 1.11,-1.172"
         style="fill:#252a6a;fill-opacity:1;fill-rule:evenodd;stroke:none"
         id="path66" /><g
         id="g68"><path
           d="m 45.477,12.98 c 0,-0.613 -0.497,-1.109 -1.11,-1.109 -0.617,0 -1.109,0.496 -1.109,1.109 0,0.618 0.492,1.172 1.109,1.172 0.613,0 1.11,-0.554 1.11,-1.172 z"
           style="fill:none;stroke:#252a6a;stroke-width:0.5;stroke-linecap:butt;stroke-linejoin:round;stroke-miterlimit:10;stroke-dasharray:none;stroke-opacity:1"
           id="path70" /></g><path
         d="m 47.754,12.98 c 0,-0.613 -0.492,-1.109 -1.109,-1.109 -0.618,0 -1.11,0.496 -1.11,1.109 0,0.618 0.492,1.172 1.11,1.172 0.617,0 1.109,-0.554 1.109,-1.172"
         style="fill:#252a6a;fill-opacity:1;fill-rule:evenodd;stroke:none"
         id="path72" /><g
         id="g74"><path
           d="m 47.754,12.98 c 0,-0.613 -0.492,-1.109 -1.109,-1.109 -0.618,0 -1.11,0.496 -1.11,1.109 0,0.618 0.492,1.172 1.11,1.172 0.617,0 1.109,-0.554 1.109,-1.172 z"
           style="fill:none;stroke:#252a6a;stroke-width:0.5;stroke-linecap:butt;stroke-linejoin:round;stroke-miterlimit:10;stroke-dasharray:none;stroke-opacity:1"
           id="path76" /></g><path
         d="m 49.602,13.477 c 0,-0.618 -0.555,-1.11 -1.168,-1.11 -0.618,0 -1.11,0.492 -1.11,1.11 0,0.613 0.492,1.168 1.11,1.168 0.613,0 1.168,-0.555 1.168,-1.168"
         style="fill:#252a6a;fill-opacity:1;fill-rule:evenodd;stroke:none"
         id="path78" /><g
         id="g80"><path
           d="m 49.602,13.477 c 0,-0.618 -0.555,-1.11 -1.168,-1.11 -0.618,0 -1.11,0.492 -1.11,1.11 0,0.613 0.492,1.168 1.11,1.168 0.613,0 1.168,-0.555 1.168,-1.168 z"
           style="fill:none;stroke:#252a6a;stroke-width:0.5;stroke-linecap:butt;stroke-linejoin:round;stroke-miterlimit:10;stroke-dasharray:none;stroke-opacity:1"
           id="path82" /></g><path
         d="m 51.449,14.398 c 0,-0.617 -0.554,-1.109 -1.168,-1.109 -0.617,0 -1.109,0.492 -1.109,1.109 0,0.555 0.492,1.11 1.109,1.11 0.614,0 1.168,-0.555 1.168,-1.11"
         style="fill:#252a6a;fill-opacity:1;fill-rule:evenodd;stroke:none"
         id="path84" /><g
         id="g86"><path
           d="m 51.449,14.398 c 0,-0.617 -0.554,-1.109 -1.168,-1.109 -0.617,0 -1.109,0.492 -1.109,1.109 0,0.555 0.492,1.11 1.109,1.11 0.614,0 1.168,-0.555 1.168,-1.11 z"
           style="fill:none;stroke:#252a6a;stroke-width:0.5;stroke-linecap:butt;stroke-linejoin:round;stroke-miterlimit:10;stroke-dasharray:none;stroke-opacity:1"
           id="path88" /></g><path
         d="m 53.73,13.477 c 0,-0.618 -0.554,-1.11 -1.171,-1.11 -0.618,0 -1.11,0.492 -1.11,1.11 0,0.613 0.492,1.168 1.11,1.168 0.617,0 1.171,-0.555 1.171,-1.168"
         style="fill:#252a6a;fill-opacity:1;fill-rule:evenodd;stroke:none"
         id="path90" /><g
         id="g92"><path
           d="m 53.73,13.477 c 0,-0.618 -0.554,-1.11 -1.171,-1.11 -0.618,0 -1.11,0.492 -1.11,1.11 0,0.613 0.492,1.168 1.11,1.168 0.617,0 1.171,-0.555 1.171,-1.168 z"
           style="fill:none;stroke:#252a6a;stroke-width:0.5;stroke-linecap:butt;stroke-linejoin:round;stroke-miterlimit:10;stroke-dasharray:none;stroke-opacity:1"
           id="path94" /></g><path
         d="m 55.516,14.398 c 0,-0.617 -0.555,-1.109 -1.168,-1.109 -0.618,0 -1.11,0.492 -1.11,1.109 0,0.555 0.492,1.11 1.11,1.11 0.613,0 1.168,-0.555 1.168,-1.11"
         style="fill:#252a6a;fill-opacity:1;fill-rule:evenodd;stroke:none"
         id="path96" /><g
         id="g98"><path
           d="m 55.516,14.398 c 0,-0.617 -0.555,-1.109 -1.168,-1.109 -0.618,0 -1.11,0.492 -1.11,1.109 0,0.555 0.492,1.11 1.11,1.11 0.613,0 1.168,-0.555 1.168,-1.11 z"
           style="fill:none;stroke:#252a6a;stroke-width:0.5;stroke-linecap:butt;stroke-linejoin:round;stroke-miterlimit:10;stroke-dasharray:none;stroke-opacity:1"
           id="path100" /></g><path
         d="m 58.719,15.262 c 0,-0.617 -0.555,-1.11 -1.168,-1.11 -0.617,0 -1.11,0.493 -1.11,1.11 0,0.617 0.493,1.172 1.11,1.172 0.613,0 1.168,-0.555 1.168,-1.172"
         style="fill:#252a6a;fill-opacity:1;fill-rule:evenodd;stroke:none"
         id="path102" /><g
         id="g104"><path
           d="m 58.719,15.262 c 0,-0.617 -0.555,-1.11 -1.168,-1.11 -0.617,0 -1.11,0.493 -1.11,1.11 0,0.617 0.493,1.172 1.11,1.172 0.613,0 1.168,-0.555 1.168,-1.172 z"
           style="fill:none;stroke:#252a6a;stroke-width:0.5;stroke-linecap:butt;stroke-linejoin:round;stroke-miterlimit:10;stroke-dasharray:none;stroke-opacity:1"
           id="path106" /></g><path
         d="m 60.508,18.035 c 0,-0.617 -0.496,-1.109 -1.11,-1.109 -0.617,0 -1.109,0.492 -1.109,1.109 0,0.613 0.492,1.168 1.109,1.168 0.614,0 1.11,-0.555 1.11,-1.168"
         style="fill:#252a6a;fill-opacity:1;fill-rule:evenodd;stroke:none"
         id="path108" /><g
         id="g110"><path
           d="m 60.508,18.035 c 0,-0.617 -0.496,-1.109 -1.11,-1.109 -0.617,0 -1.109,0.492 -1.109,1.109 0,0.613 0.492,1.168 1.109,1.168 0.614,0 1.11,-0.555 1.11,-1.168 z"
           style="fill:none;stroke:#252a6a;stroke-width:0.5;stroke-linecap:butt;stroke-linejoin:round;stroke-miterlimit:10;stroke-dasharray:none;stroke-opacity:1"
           id="path112" /></g><path
         d="m 62.355,18.957 c 0,-0.617 -0.554,-1.109 -1.171,-1.109 -0.618,0 -1.11,0.492 -1.11,1.109 0,0.555 0.492,1.109 1.11,1.109 0.617,0 1.171,-0.554 1.171,-1.109"
         style="fill:#252a6a;fill-opacity:1;fill-rule:evenodd;stroke:none"
         id="path114" /><g
         id="g116"><path
           d="m 62.355,18.957 c 0,-0.617 -0.554,-1.109 -1.171,-1.109 -0.618,0 -1.11,0.492 -1.11,1.109 0,0.555 0.492,1.109 1.11,1.109 0.617,0 1.171,-0.554 1.171,-1.109 z"
           style="fill:none;stroke:#252a6a;stroke-width:0.5;stroke-linecap:butt;stroke-linejoin:round;stroke-miterlimit:10;stroke-dasharray:none;stroke-opacity:1"
           id="path118" /></g><path
         d="m 64.633,19.391 c 0,-0.618 -0.555,-1.11 -1.168,-1.11 -0.617,0 -1.11,0.492 -1.11,1.11 0,0.613 0.493,1.168 1.11,1.168 0.613,0 1.168,-0.555 1.168,-1.168"
         style="fill:#252a6a;fill-opacity:1;fill-rule:evenodd;stroke:none"
         id="path120" /><g
         id="g122"><path
           d="m 64.633,19.391 c 0,-0.618 -0.555,-1.11 -1.168,-1.11 -0.617,0 -1.11,0.492 -1.11,1.11 0,0.613 0.493,1.168 1.11,1.168 0.613,0 1.168,-0.555 1.168,-1.168 z"
           style="fill:none;stroke:#252a6a;stroke-width:0.5;stroke-linecap:butt;stroke-linejoin:round;stroke-miterlimit:10;stroke-dasharray:none;stroke-opacity:1"
           id="path124" /></g><path
         d="m 66.48,21.238 c 0,-0.617 -0.554,-1.109 -1.167,-1.109 -0.618,0 -1.11,0.492 -1.11,1.109 0,0.555 0.492,1.11 1.11,1.11 0.613,0 1.167,-0.555 1.167,-1.11"
         style="fill:#252a6a;fill-opacity:1;fill-rule:evenodd;stroke:none"
         id="path126" /><g
         id="g128"><path
           d="m 66.48,21.238 c 0,-0.617 -0.554,-1.109 -1.167,-1.109 -0.618,0 -1.11,0.492 -1.11,1.109 0,0.555 0.492,1.11 1.11,1.11 0.613,0 1.167,-0.555 1.167,-1.11 z"
           style="fill:none;stroke:#252a6a;stroke-width:0.5;stroke-linecap:butt;stroke-linejoin:round;stroke-miterlimit:10;stroke-dasharray:none;stroke-opacity:1"
           id="path130" /></g><path
         d="m 70.547,26.719 c 0,-0.614 -0.492,-1.11 -1.109,-1.11 -0.614,0 -1.11,0.496 -1.11,1.11 0,0.554 0.496,1.109 1.11,1.109 0.617,0 1.109,-0.555 1.109,-1.109"
         style="fill:#252a6a;fill-opacity:1;fill-rule:evenodd;stroke:none"
         id="path132" /><g
         id="g134"><path
           d="m 70.547,26.719 c 0,-0.614 -0.492,-1.11 -1.109,-1.11 -0.614,0 -1.11,0.496 -1.11,1.11 0,0.554 0.496,1.109 1.11,1.109 0.617,0 1.109,-0.555 1.109,-1.109 z"
           style="fill:none;stroke:#252a6a;stroke-width:0.5;stroke-linecap:butt;stroke-linejoin:round;stroke-miterlimit:10;stroke-dasharray:none;stroke-opacity:1"
           id="path136" /></g><path
         d="m 72.395,30.785 c 0,-0.617 -0.555,-1.109 -1.168,-1.109 -0.618,0 -1.11,0.492 -1.11,1.109 0,0.617 0.492,1.172 1.11,1.172 0.613,0 1.168,-0.555 1.168,-1.172"
         style="fill:#252a6a;fill-opacity:1;fill-rule:evenodd;stroke:none"
         id="path138" /><g
         id="g140"><path
           d="m 72.395,30.785 c 0,-0.617 -0.555,-1.109 -1.168,-1.109 -0.618,0 -1.11,0.492 -1.11,1.109 0,0.617 0.492,1.172 1.11,1.172 0.613,0 1.168,-0.555 1.168,-1.172 z"
           style="fill:none;stroke:#252a6a;stroke-width:0.5;stroke-linecap:butt;stroke-linejoin:round;stroke-miterlimit:10;stroke-dasharray:none;stroke-opacity:1"
           id="path142" /></g><path
         d="m 74.184,32.633 c 0,-0.613 -0.493,-1.11 -1.11,-1.11 -0.617,0 -1.109,0.497 -1.109,1.11 0,0.617 0.492,1.172 1.109,1.172 0.617,0 1.11,-0.555 1.11,-1.172"
         style="fill:#252a6a;fill-opacity:1;fill-rule:evenodd;stroke:none"
         id="path144" /><g
         id="g146"><path
           d="m 74.184,32.633 c 0,-0.613 -0.493,-1.11 -1.11,-1.11 -0.617,0 -1.109,0.497 -1.109,1.11 0,0.617 0.492,1.172 1.109,1.172 0.617,0 1.11,-0.555 1.11,-1.172 z"
           style="fill:none;stroke:#252a6a;stroke-width:0.5;stroke-linecap:butt;stroke-linejoin:round;stroke-miterlimit:10;stroke-dasharray:none;stroke-opacity:1"
           id="path148" /></g><path
         d="m 79.172,44.031 c 0,-0.617 -0.555,-1.109 -1.172,-1.109 -0.613,0 -1.105,0.492 -1.105,1.109 0,0.617 0.492,1.168 1.105,1.168 0.617,0 1.172,-0.551 1.172,-1.168"
         style="fill:#252a6a;fill-opacity:1;fill-rule:evenodd;stroke:none"
         id="path150" /><g
         id="g152"><path
           d="m 79.172,44.031 c 0,-0.617 -0.555,-1.109 -1.172,-1.109 -0.613,0 -1.105,0.492 -1.105,1.109 0,0.617 0.492,1.168 1.105,1.168 0.617,0 1.172,-0.551 1.172,-1.168 z"
           style="fill:none;stroke:#252a6a;stroke-width:0.5;stroke-linecap:butt;stroke-linejoin:round;stroke-miterlimit:10;stroke-dasharray:none;stroke-opacity:1"
           id="path154" /></g><path
         d="m 82.375,51.301 c 0,-0.617 -0.555,-1.11 -1.172,-1.11 -0.613,0 -1.105,0.493 -1.105,1.11 0,0.613 0.492,1.168 1.105,1.168 0.617,0 1.172,-0.555 1.172,-1.168"
         style="fill:#252a6a;fill-opacity:1;fill-rule:evenodd;stroke:none"
         id="path156" /><g
         id="g158"><path
           d="m 82.375,51.301 c 0,-0.617 -0.555,-1.11 -1.172,-1.11 -0.613,0 -1.105,0.493 -1.105,1.11 0,0.613 0.492,1.168 1.105,1.168 0.617,0 1.172,-0.555 1.172,-1.168 z"
           style="fill:none;stroke:#252a6a;stroke-width:0.5;stroke-linecap:butt;stroke-linejoin:round;stroke-miterlimit:10;stroke-dasharray:none;stroke-opacity:1"
           id="path160" /></g><path
         d="m 84.16,53.578 c 0,-0.617 -0.492,-1.109 -1.105,-1.109 -0.617,0 -1.11,0.492 -1.11,1.109 0,0.617 0.493,1.172 1.11,1.172 0.613,0 1.105,-0.555 1.105,-1.172"
         style="fill:#252a6a;fill-opacity:1;fill-rule:evenodd;stroke:none"
         id="path162" /><g
         id="g164"><path
           d="m 84.16,53.578 c 0,-0.617 -0.492,-1.109 -1.105,-1.109 -0.617,0 -1.11,0.492 -1.11,1.109 0,0.617 0.493,1.172 1.11,1.172 0.613,0 1.105,-0.555 1.105,-1.172 z"
           style="fill:none;stroke:#252a6a;stroke-width:0.5;stroke-linecap:butt;stroke-linejoin:round;stroke-miterlimit:10;stroke-dasharray:none;stroke-opacity:1"
           id="path166" /></g><path
         d="m 86.012,57.273 c 0,-0.613 -0.555,-1.109 -1.172,-1.109 -0.617,0 -1.11,0.496 -1.11,1.109 0,0.555 0.493,1.11 1.11,1.11 0.617,0 1.172,-0.555 1.172,-1.11"
         style="fill:#252a6a;fill-opacity:1;fill-rule:evenodd;stroke:none"
         id="path168" /><g
         id="g170"><path
           d="m 86.012,57.273 c 0,-0.613 -0.555,-1.109 -1.172,-1.109 -0.617,0 -1.11,0.496 -1.11,1.109 0,0.555 0.493,1.11 1.11,1.11 0.617,0 1.172,-0.555 1.172,-1.11 z"
           style="fill:none;stroke:#252a6a;stroke-width:0.5;stroke-linecap:butt;stroke-linejoin:round;stroke-miterlimit:10;stroke-dasharray:none;stroke-opacity:1"
           id="path172" /></g><path
         d="m 88.289,59.984 c 0,-0.613 -0.555,-1.109 -1.172,-1.109 -0.613,0 -1.105,0.496 -1.105,1.109 0,0.618 0.492,1.172 1.105,1.172 0.617,0 1.172,-0.554 1.172,-1.172"
         style="fill:#252a6a;fill-opacity:1;fill-rule:evenodd;stroke:none"
         id="path174" /><g
         id="g176"><path
           d="m 88.289,59.984 c 0,-0.613 -0.555,-1.109 -1.172,-1.109 -0.613,0 -1.105,0.496 -1.105,1.109 0,0.618 0.492,1.172 1.105,1.172 0.617,0 1.172,-0.554 1.172,-1.172 z"
           style="fill:none;stroke:#252a6a;stroke-width:0.5;stroke-linecap:butt;stroke-linejoin:round;stroke-miterlimit:10;stroke-dasharray:none;stroke-opacity:1"
           id="path178" /></g><path
         d="m 90.137,62.266 c 0,-0.618 -0.555,-1.11 -1.168,-1.11 -0.617,0 -1.11,0.492 -1.11,1.11 0,0.613 0.493,1.172 1.11,1.172 0.613,0 1.168,-0.559 1.168,-1.172"
         style="fill:#252a6a;fill-opacity:1;fill-rule:evenodd;stroke:none"
         id="path180" /><g
         id="g182"><path
           d="m 90.137,62.266 c 0,-0.618 -0.555,-1.11 -1.168,-1.11 -0.617,0 -1.11,0.492 -1.11,1.11 0,0.613 0.493,1.172 1.11,1.172 0.613,0 1.168,-0.559 1.168,-1.172 z"
           style="fill:none;stroke:#252a6a;stroke-width:0.5;stroke-linecap:butt;stroke-linejoin:round;stroke-miterlimit:10;stroke-dasharray:none;stroke-opacity:1"
           id="path184" /></g><path
         d="m 92.418,72.738 c 0,-0.617 -0.555,-1.109 -1.172,-1.109 -0.617,0 -1.109,0.492 -1.109,1.109 0,0.617 0.492,1.168 1.109,1.168 0.617,0 1.172,-0.551 1.172,-1.168"
         style="fill:#252a6a;fill-opacity:1;fill-rule:evenodd;stroke:none"
         id="path186" /><g
         id="g188"><path
           d="m 92.418,72.738 c 0,-0.617 -0.555,-1.109 -1.172,-1.109 -0.617,0 -1.109,0.492 -1.109,1.109 0,0.617 0.492,1.168 1.109,1.168 0.617,0 1.172,-0.551 1.172,-1.168 z"
           style="fill:none;stroke:#252a6a;stroke-width:0.5;stroke-linecap:butt;stroke-linejoin:round;stroke-miterlimit:10;stroke-dasharray:none;stroke-opacity:1"
           id="path190" /></g><path
         d="m 94.203,77.789 c 0,-0.617 -0.492,-1.109 -1.109,-1.109 -0.614,0 -1.11,0.492 -1.11,1.109 0,0.555 0.496,1.109 1.11,1.109 0.617,0 1.109,-0.554 1.109,-1.109"
         style="fill:#252a6a;fill-opacity:1;fill-rule:evenodd;stroke:none"
         id="path192" /><g
         id="g194"><path
           d="m 94.203,77.789 c 0,-0.617 -0.492,-1.109 -1.109,-1.109 -0.614,0 -1.11,0.492 -1.11,1.109 0,0.555 0.496,1.109 1.11,1.109 0.617,0 1.109,-0.554 1.109,-1.109 z"
           style="fill:none;stroke:#252a6a;stroke-width:0.5;stroke-linecap:butt;stroke-linejoin:round;stroke-miterlimit:10;stroke-dasharray:none;stroke-opacity:1"
           id="path196" /></g><path
         d="m 96.051,80.5 c 0,-0.617 -0.555,-1.109 -1.168,-1.109 -0.617,0 -1.11,0.492 -1.11,1.109 0,0.617 0.493,1.168 1.11,1.168 0.613,0 1.168,-0.551 1.168,-1.168"
         style="fill:#252a6a;fill-opacity:1;fill-rule:evenodd;stroke:none"
         id="path198" /><g
         id="g200"><path
           d="m 96.051,80.5 c 0,-0.617 -0.555,-1.109 -1.168,-1.109 -0.617,0 -1.11,0.492 -1.11,1.109 0,0.617 0.493,1.168 1.11,1.168 0.613,0 1.168,-0.551 1.168,-1.168 z"
           style="fill:none;stroke:#252a6a;stroke-width:0.5;stroke-linecap:butt;stroke-linejoin:round;stroke-miterlimit:10;stroke-dasharray:none;stroke-opacity:1"
           id="path202" /></g><path
         d="m 98.332,84.133 c 0,-0.613 -0.555,-1.106 -1.172,-1.106 -0.617,0 -1.109,0.493 -1.109,1.106 0,0.617 0.492,1.172 1.109,1.172 0.617,0 1.172,-0.555 1.172,-1.172"
         style="fill:#252a6a;fill-opacity:1;fill-rule:evenodd;stroke:none"
         id="path204" /><g
         id="g206"><path
           d="m 98.332,84.133 c 0,-0.613 -0.555,-1.106 -1.172,-1.106 -0.617,0 -1.109,0.493 -1.109,1.106 0,0.617 0.492,1.172 1.109,1.172 0.617,0 1.172,-0.555 1.172,-1.172 z"
           style="fill:none;stroke:#252a6a;stroke-width:0.5;stroke-linecap:butt;stroke-linejoin:round;stroke-miterlimit:10;stroke-dasharray:none;stroke-opacity:1"
           id="path208" /></g><path
         d="m 100.117,88.691 c 0,-0.613 -0.492,-1.109 -1.109,-1.109 -0.613,0 -1.11,0.496 -1.11,1.109 0,0.618 0.497,1.172 1.11,1.172 0.617,0 1.109,-0.554 1.109,-1.172"
         style="fill:#252a6a;fill-opacity:1;fill-rule:evenodd;stroke:none"
         id="path210" /><g
         id="g212"><path
           d="m 100.117,88.691 c 0,-0.613 -0.492,-1.109 -1.109,-1.109 -0.613,0 -1.11,0.496 -1.11,1.109 0,0.618 0.497,1.172 1.11,1.172 0.617,0 1.109,-0.554 1.109,-1.172 z"
           style="fill:none;stroke:#252a6a;stroke-width:0.5;stroke-linecap:butt;stroke-linejoin:round;stroke-miterlimit:10;stroke-dasharray:none;stroke-opacity:1"
           id="path214" /></g><path
         d="m 101.965,91.898 c 0,-0.617 -0.555,-1.109 -1.172,-1.109 -0.613,0 -1.105,0.492 -1.105,1.109 0,0.614 0.492,1.168 1.105,1.168 0.617,0 1.172,-0.554 1.172,-1.168"
         style="fill:#252a6a;fill-opacity:1;fill-rule:evenodd;stroke:none"
         id="path216" /><g
         id="g218"><path
           d="m 101.965,91.898 c 0,-0.617 -0.555,-1.109 -1.172,-1.109 -0.613,0 -1.105,0.492 -1.105,1.109 0,0.614 0.492,1.168 1.105,1.168 0.617,0 1.172,-0.554 1.172,-1.168 z"
           style="fill:none;stroke:#252a6a;stroke-width:0.5;stroke-linecap:butt;stroke-linejoin:round;stroke-miterlimit:10;stroke-dasharray:none;stroke-opacity:1"
           id="path220" /></g><path
         d="m 104.246,94.668 c 0,-0.617 -0.555,-1.109 -1.172,-1.109 -0.617,0 -1.109,0.492 -1.109,1.109 0,0.555 0.492,1.109 1.109,1.109 0.617,0 1.172,-0.554 1.172,-1.109"
         style="fill:#252a6a;fill-opacity:1;fill-rule:evenodd;stroke:none"
         id="path222" /><g
         id="g224"><path
           d="m 104.246,94.668 c 0,-0.617 -0.555,-1.109 -1.172,-1.109 -0.617,0 -1.109,0.492 -1.109,1.109 0,0.555 0.492,1.109 1.109,1.109 0.617,0 1.172,-0.554 1.172,-1.109 z"
           style="fill:none;stroke:#252a6a;stroke-width:0.5;stroke-linecap:butt;stroke-linejoin:round;stroke-miterlimit:10;stroke-dasharray:none;stroke-opacity:1"
           id="path226" /></g><path
         d="m 106.094,96.023 c 0,-0.617 -0.555,-1.109 -1.172,-1.109 -0.613,0 -1.109,0.492 -1.109,1.109 0,0.618 0.496,1.172 1.109,1.172 0.617,0 1.172,-0.554 1.172,-1.172"
         style="fill:#252a6a;fill-opacity:1;fill-rule:evenodd;stroke:none"
         id="path228" /><g
         id="g230"><path
           d="m 106.094,96.023 c 0,-0.617 -0.555,-1.109 -1.172,-1.109 -0.613,0 -1.109,0.492 -1.109,1.109 0,0.618 0.496,1.172 1.109,1.172 0.617,0 1.172,-0.554 1.172,-1.172 z"
           style="fill:none;stroke:#252a6a;stroke-width:0.5;stroke-linecap:butt;stroke-linejoin:round;stroke-miterlimit:10;stroke-dasharray:none;stroke-opacity:1"
           id="path232" /></g><path
         d="m 108.742,94.668 c 0,-0.617 -0.492,-1.109 -1.109,-1.109 -0.617,0 -1.11,0.492 -1.11,1.109 0,0.555 0.493,1.109 1.11,1.109 0.617,0 1.109,-0.554 1.109,-1.109"
         style="fill:#252a6a;fill-opacity:1;fill-rule:evenodd;stroke:none"
         id="path234" /><g
         id="g236"><path
           d="m 108.742,94.668 c 0,-0.617 -0.492,-1.109 -1.109,-1.109 -0.617,0 -1.11,0.492 -1.11,1.109 0,0.555 0.493,1.109 1.11,1.109 0.617,0 1.109,-0.554 1.109,-1.109 z"
           style="fill:none;stroke:#252a6a;stroke-width:0.5;stroke-linecap:butt;stroke-linejoin:round;stroke-miterlimit:10;stroke-dasharray:none;stroke-opacity:1"
           id="path238" /></g><path
         d="m 113.793,101.938 c 0,-0.618 -0.555,-1.11 -1.172,-1.11 -0.613,0 -1.105,0.492 -1.105,1.11 0,0.617 0.492,1.171 1.105,1.171 0.617,0 1.172,-0.554 1.172,-1.171"
         style="fill:#252a6a;fill-opacity:1;fill-rule:evenodd;stroke:none"
         id="path240" /><g
         id="g242"><path
           d="m 113.793,101.938 c 0,-0.618 -0.555,-1.11 -1.172,-1.11 -0.613,0 -1.105,0.492 -1.105,1.11 0,0.617 0.492,1.171 1.105,1.171 0.617,0 1.172,-0.554 1.172,-1.171 z"
           style="fill:none;stroke:#252a6a;stroke-width:0.5;stroke-linecap:butt;stroke-linejoin:round;stroke-miterlimit:10;stroke-dasharray:none;stroke-opacity:1"
           id="path244" /></g><path
         d="m 116.074,111.547 c 0,-0.613 -0.554,-1.109 -1.172,-1.109 -0.617,0 -1.109,0.496 -1.109,1.109 0,0.555 0.492,1.109 1.109,1.109 0.618,0 1.172,-0.554 1.172,-1.109"
         style="fill:#252a6a;fill-opacity:1;fill-rule:evenodd;stroke:none"
         id="path246" /><g
         id="g248"><path
           d="m 116.074,111.547 c 0,-0.613 -0.554,-1.109 -1.172,-1.109 -0.617,0 -1.109,0.496 -1.109,1.109 0,0.555 0.492,1.109 1.109,1.109 0.618,0 1.172,-0.554 1.172,-1.109 z"
           style="fill:none;stroke:#252a6a;stroke-width:0.5;stroke-linecap:butt;stroke-linejoin:round;stroke-miterlimit:10;stroke-dasharray:none;stroke-opacity:1"
           id="path250" /></g><path
         d="m 118.781,114.691 c 0,-0.617 -0.551,-1.109 -1.168,-1.109 -0.617,0 -1.109,0.492 -1.109,1.109 0,0.614 0.492,1.168 1.109,1.168 0.617,0 1.168,-0.554 1.168,-1.168"
         style="fill:#252a6a;fill-opacity:1;fill-rule:evenodd;stroke:none"
         id="path252" /><g
         id="g254"><path
           d="m 118.781,114.691 c 0,-0.617 -0.551,-1.109 -1.168,-1.109 -0.617,0 -1.109,0.492 -1.109,1.109 0,0.614 0.492,1.168 1.109,1.168 0.617,0 1.168,-0.554 1.168,-1.168 z"
           style="fill:none;stroke:#252a6a;stroke-width:0.5;stroke-linecap:butt;stroke-linejoin:round;stroke-miterlimit:10;stroke-dasharray:none;stroke-opacity:1"
           id="path256" /></g><path
         d="m 121.063,118.387 c 0,-0.617 -0.555,-1.11 -1.172,-1.11 -0.614,0 -1.11,0.493 -1.11,1.11 0,0.554 0.496,1.109 1.11,1.109 0.617,0 1.172,-0.555 1.172,-1.109"
         style="fill:#252a6a;fill-opacity:1;fill-rule:evenodd;stroke:none"
         id="path258" /><g
         id="g260"><path
           d="m 121.063,118.387 c 0,-0.617 -0.555,-1.11 -1.172,-1.11 -0.614,0 -1.11,0.493 -1.11,1.11 0,0.554 0.496,1.109 1.11,1.109 0.617,0 1.172,-0.555 1.172,-1.109 z"
           style="fill:none;stroke:#252a6a;stroke-width:0.5;stroke-linecap:butt;stroke-linejoin:round;stroke-miterlimit:10;stroke-dasharray:none;stroke-opacity:1"
           id="path262" /></g><path
         d="m 122.91,116.539 c 0,-0.617 -0.555,-1.109 -1.172,-1.109 -0.613,0 -1.105,0.492 -1.105,1.109 0,0.613 0.492,1.168 1.105,1.168 0.617,0 1.172,-0.555 1.172,-1.168"
         style="fill:#252a6a;fill-opacity:1;fill-rule:evenodd;stroke:none"
         id="path264" /><g
         id="g266"><path
           d="m 122.91,116.539 c 0,-0.617 -0.555,-1.109 -1.172,-1.109 -0.613,0 -1.105,0.492 -1.105,1.109 0,0.613 0.492,1.168 1.105,1.168 0.617,0 1.172,-0.555 1.172,-1.168 z"
           style="fill:none;stroke:#252a6a;stroke-width:0.5;stroke-linecap:butt;stroke-linejoin:round;stroke-miterlimit:10;stroke-dasharray:none;stroke-opacity:1"
           id="path268" /></g><path
         d="m 124.695,118.387 c 0,-0.617 -0.55,-1.11 -1.168,-1.11 -0.617,0 -1.109,0.493 -1.109,1.11 0,0.554 0.492,1.109 1.109,1.109 0.618,0 1.168,-0.555 1.168,-1.109"
         style="fill:#252a6a;fill-opacity:1;fill-rule:evenodd;stroke:none"
         id="path270" /><g
         id="g272"><path
           d="m 124.695,118.387 c 0,-0.617 -0.55,-1.11 -1.168,-1.11 -0.617,0 -1.109,0.493 -1.109,1.11 0,0.554 0.492,1.109 1.109,1.109 0.618,0 1.168,-0.555 1.168,-1.109 z"
           style="fill:none;stroke:#252a6a;stroke-width:0.5;stroke-linecap:butt;stroke-linejoin:round;stroke-miterlimit:10;stroke-dasharray:none;stroke-opacity:1"
           id="path274" /></g><path
         d="m 127.902,122.02 c 0,-0.614 -0.554,-1.11 -1.172,-1.11 -0.617,0 -1.109,0.496 -1.109,1.11 0,0.617 0.492,1.171 1.109,1.171 0.618,0 1.172,-0.554 1.172,-1.171"
         style="fill:#252a6a;fill-opacity:1;fill-rule:evenodd;stroke:none"
         id="path276" /><g
         id="g278"><path
           d="m 127.902,122.02 c 0,-0.614 -0.554,-1.11 -1.172,-1.11 -0.617,0 -1.109,0.496 -1.109,1.11 0,0.617 0.492,1.171 1.109,1.171 0.618,0 1.172,-0.554 1.172,-1.171 z"
           style="fill:none;stroke:#252a6a;stroke-width:0.5;stroke-linecap:butt;stroke-linejoin:round;stroke-miterlimit:10;stroke-dasharray:none;stroke-opacity:1"
           id="path280" /></g><path
         d="m 130.609,125.656 c 0,-0.617 -0.492,-1.109 -1.109,-1.109 -0.613,0 -1.105,0.492 -1.105,1.109 0,0.614 0.492,1.168 1.105,1.168 0.617,0 1.109,-0.554 1.109,-1.168"
         style="fill:#252a6a;fill-opacity:1;fill-rule:evenodd;stroke:none"
         id="path282" /><g
         id="g284"><path
           d="m 130.609,125.656 c 0,-0.617 -0.492,-1.109 -1.109,-1.109 -0.613,0 -1.105,0.492 -1.105,1.109 0,0.614 0.492,1.168 1.105,1.168 0.617,0 1.109,-0.554 1.109,-1.168 z"
           style="fill:none;stroke:#252a6a;stroke-width:0.5;stroke-linecap:butt;stroke-linejoin:round;stroke-miterlimit:10;stroke-dasharray:none;stroke-opacity:1"
           id="path286" /></g><path
         d="m 132.891,127.934 c 0,-0.614 -0.493,-1.11 -1.11,-1.11 -0.617,0 -1.109,0.496 -1.109,1.11 0,0.617 0.492,1.171 1.109,1.171 0.617,0 1.11,-0.554 1.11,-1.171"
         style="fill:#252a6a;fill-opacity:1;fill-rule:evenodd;stroke:none"
         id="path288" /><g
         id="g290"><path
           d="m 132.891,127.934 c 0,-0.614 -0.493,-1.11 -1.11,-1.11 -0.617,0 -1.109,0.496 -1.109,1.11 0,0.617 0.492,1.171 1.109,1.171 0.617,0 1.11,-0.554 1.11,-1.171 z"
           style="fill:none;stroke:#252a6a;stroke-width:0.5;stroke-linecap:butt;stroke-linejoin:round;stroke-miterlimit:10;stroke-dasharray:none;stroke-opacity:1"
           id="path292" /></g><path
         d="m 135.664,128.367 c 0,-0.617 -0.555,-1.109 -1.172,-1.109 -0.617,0 -1.109,0.492 -1.109,1.109 0,0.613 0.492,1.168 1.109,1.168 0.617,0 1.172,-0.555 1.172,-1.168"
         style="fill:#252a6a;fill-opacity:1;fill-rule:evenodd;stroke:none"
         id="path294" /><g
         id="g296"><path
           d="m 135.664,128.367 c 0,-0.617 -0.555,-1.109 -1.172,-1.109 -0.617,0 -1.109,0.492 -1.109,1.109 0,0.613 0.492,1.168 1.109,1.168 0.617,0 1.172,-0.555 1.172,-1.168 z"
           style="fill:none;stroke:#252a6a;stroke-width:0.5;stroke-linecap:butt;stroke-linejoin:round;stroke-miterlimit:10;stroke-dasharray:none;stroke-opacity:1"
           id="path298" /></g><path
         d="m 137.941,131.57 c 0,-0.617 -0.554,-1.109 -1.168,-1.109 -0.617,0 -1.109,0.492 -1.109,1.109 0,0.614 0.492,1.168 1.109,1.168 0.614,0 1.168,-0.554 1.168,-1.168"
         style="fill:#252a6a;fill-opacity:1;fill-rule:evenodd;stroke:none"
         id="path300" /><g
         id="g302"><path
           d="m 137.941,131.57 c 0,-0.617 -0.554,-1.109 -1.168,-1.109 -0.617,0 -1.109,0.492 -1.109,1.109 0,0.614 0.492,1.168 1.109,1.168 0.614,0 1.168,-0.554 1.168,-1.168 z"
           style="fill:none;stroke:#252a6a;stroke-width:0.5;stroke-linecap:butt;stroke-linejoin:round;stroke-miterlimit:10;stroke-dasharray:none;stroke-opacity:1"
           id="path304" /></g><path
         d="m 140.652,134.34 c 0,-0.613 -0.554,-1.106 -1.172,-1.106 -0.613,0 -1.109,0.493 -1.109,1.106 0,0.555 0.496,1.109 1.109,1.109 0.618,0 1.172,-0.554 1.172,-1.109"
         style="fill:#252a6a;fill-opacity:1;fill-rule:evenodd;stroke:none"
         id="path306" /><g
         id="g308"><path
           d="m 140.652,134.34 c 0,-0.613 -0.554,-1.106 -1.172,-1.106 -0.613,0 -1.109,0.493 -1.109,1.106 0,0.555 0.496,1.109 1.109,1.109 0.618,0 1.172,-0.554 1.172,-1.109 z"
           style="fill:none;stroke:#252a6a;stroke-width:0.5;stroke-linecap:butt;stroke-linejoin:round;stroke-miterlimit:10;stroke-dasharray:none;stroke-opacity:1"
           id="path310" /></g><path
         d="m 145.645,136.621 c 0,-0.617 -0.555,-1.109 -1.172,-1.109 -0.618,0 -1.11,0.492 -1.11,1.109 0,0.555 0.492,1.109 1.11,1.109 0.617,0 1.172,-0.554 1.172,-1.109"
         style="fill:#252a6a;fill-opacity:1;fill-rule:evenodd;stroke:none"
         id="path312" /><g
         id="g314"><path
           d="m 145.645,136.621 c 0,-0.617 -0.555,-1.109 -1.172,-1.109 -0.618,0 -1.11,0.492 -1.11,1.109 0,0.555 0.492,1.109 1.11,1.109 0.617,0 1.172,-0.554 1.172,-1.109 z"
           style="fill:none;stroke:#252a6a;stroke-width:0.5;stroke-linecap:butt;stroke-linejoin:round;stroke-miterlimit:10;stroke-dasharray:none;stroke-opacity:1"
           id="path316" /></g><path
         d="m 147.43,135.695 c 0,-0.613 -0.492,-1.109 -1.11,-1.109 -0.617,0 -1.109,0.496 -1.109,1.109 0,0.618 0.492,1.172 1.109,1.172 0.618,0 1.11,-0.554 1.11,-1.172"
         style="fill:#252a6a;fill-opacity:1;fill-rule:evenodd;stroke:none"
         id="path318" /><g
         id="g320"><path
           d="m 147.43,135.695 c 0,-0.613 -0.492,-1.109 -1.11,-1.109 -0.617,0 -1.109,0.496 -1.109,1.109 0,0.618 0.492,1.172 1.109,1.172 0.618,0 1.11,-0.554 1.11,-1.172 z"
           style="fill:none;stroke:#252a6a;stroke-width:0.5;stroke-linecap:butt;stroke-linejoin:round;stroke-miterlimit:10;stroke-dasharray:none;stroke-opacity:1"
           id="path322" /></g><path
         d="m 149.707,138.898 c 0,-0.613 -0.492,-1.109 -1.105,-1.109 -0.618,0 -1.11,0.496 -1.11,1.109 0,0.555 0.492,1.11 1.11,1.11 0.613,0 1.105,-0.555 1.105,-1.11"
         style="fill:#252a6a;fill-opacity:1;fill-rule:evenodd;stroke:none"
         id="path324" /><g
         id="g326"><path
           d="m 149.707,138.898 c 0,-0.613 -0.492,-1.109 -1.105,-1.109 -0.618,0 -1.11,0.496 -1.11,1.109 0,0.555 0.492,1.11 1.11,1.11 0.613,0 1.105,-0.555 1.105,-1.11 z"
           style="fill:none;stroke:#252a6a;stroke-width:0.5;stroke-linecap:butt;stroke-linejoin:round;stroke-miterlimit:10;stroke-dasharray:none;stroke-opacity:1"
           id="path328" /></g><path
         d="m 151.559,138.898 c 0,-0.613 -0.559,-1.109 -1.172,-1.109 -0.617,0 -1.11,0.496 -1.11,1.109 0,0.555 0.493,1.11 1.11,1.11 0.613,0 1.172,-0.555 1.172,-1.11"
         style="fill:#252a6a;fill-opacity:1;fill-rule:evenodd;stroke:none"
         id="path330" /><g
         id="g332"><path
           d="m 151.559,138.898 c 0,-0.613 -0.559,-1.109 -1.172,-1.109 -0.617,0 -1.11,0.496 -1.11,1.109 0,0.555 0.493,1.11 1.11,1.11 0.613,0 1.172,-0.555 1.172,-1.11 z"
           style="fill:none;stroke:#252a6a;stroke-width:0.5;stroke-linecap:butt;stroke-linejoin:round;stroke-miterlimit:10;stroke-dasharray:none;stroke-opacity:1"
           id="path334" /></g><path
         d="m 153.406,140.254 c 0,-0.613 -0.554,-1.106 -1.172,-1.106 -0.617,0 -1.109,0.493 -1.109,1.106 0,0.617 0.492,1.172 1.109,1.172 0.618,0 1.172,-0.555 1.172,-1.172"
         style="fill:#252a6a;fill-opacity:1;fill-rule:evenodd;stroke:none"
         id="path336" /><g
         id="g338"><path
           d="m 153.406,140.254 c 0,-0.613 -0.554,-1.106 -1.172,-1.106 -0.617,0 -1.109,0.493 -1.109,1.106 0,0.617 0.492,1.172 1.109,1.172 0.618,0 1.172,-0.555 1.172,-1.172 z"
           style="fill:none;stroke:#252a6a;stroke-width:0.5;stroke-linecap:butt;stroke-linejoin:round;stroke-miterlimit:10;stroke-dasharray:none;stroke-opacity:1"
           id="path340" /></g><path
         d="m 155.684,143.891 c 0,-0.618 -0.555,-1.11 -1.172,-1.11 -0.614,0 -1.106,0.492 -1.106,1.11 0,0.613 0.492,1.172 1.106,1.172 0.617,0 1.172,-0.559 1.172,-1.172"
         style="fill:#252a6a;fill-opacity:1;fill-rule:evenodd;stroke:none"
         id="path342" /><g
         id="g344"><path
           d="m 155.684,143.891 c 0,-0.618 -0.555,-1.11 -1.172,-1.11 -0.614,0 -1.106,0.492 -1.106,1.11 0,0.613 0.492,1.172 1.106,1.172 0.617,0 1.172,-0.559 1.172,-1.172 z"
           style="fill:none;stroke:#252a6a;stroke-width:0.5;stroke-linecap:butt;stroke-linejoin:round;stroke-miterlimit:10;stroke-dasharray:none;stroke-opacity:1"
           id="path346" /></g><path
         d="m 157.469,145.246 c 0,-0.617 -0.555,-1.109 -1.168,-1.109 -0.617,0 -1.11,0.492 -1.11,1.109 0,0.613 0.493,1.168 1.11,1.168 0.613,0 1.168,-0.555 1.168,-1.168"
         style="fill:#252a6a;fill-opacity:1;fill-rule:evenodd;stroke:none"
         id="path348" /><g
         id="g350"><path
           d="m 157.469,145.246 c 0,-0.617 -0.555,-1.109 -1.168,-1.109 -0.617,0 -1.11,0.492 -1.11,1.109 0,0.613 0.493,1.168 1.11,1.168 0.613,0 1.168,-0.555 1.168,-1.168 z"
           style="fill:none;stroke:#252a6a;stroke-width:0.5;stroke-linecap:butt;stroke-linejoin:round;stroke-miterlimit:10;stroke-dasharray:none;stroke-opacity:1"
           id="path352" /></g><path
         d="m 159.32,144.813 c 0,-0.614 -0.554,-1.11 -1.172,-1.11 -0.617,0 -1.109,0.496 -1.109,1.11 0,0.617 0.492,1.171 1.109,1.171 0.618,0 1.172,-0.554 1.172,-1.171"
         style="fill:#252a6a;fill-opacity:1;fill-rule:evenodd;stroke:none"
         id="path354" /><g
         id="g356"><path
           d="m 159.32,144.813 c 0,-0.614 -0.554,-1.11 -1.172,-1.11 -0.617,0 -1.109,0.496 -1.109,1.11 0,0.617 0.492,1.171 1.109,1.171 0.618,0 1.172,-0.554 1.172,-1.171 z"
           style="fill:none;stroke:#252a6a;stroke-width:0.5;stroke-linecap:butt;stroke-linejoin:round;stroke-miterlimit:10;stroke-dasharray:none;stroke-opacity:1"
           id="path358" /></g><path
         d="m 161.598,147.094 c 0,-0.617 -0.555,-1.11 -1.172,-1.11 -0.613,0 -1.106,0.493 -1.106,1.11 0,0.613 0.493,1.172 1.106,1.172 0.617,0 1.172,-0.559 1.172,-1.172"
         style="fill:#252a6a;fill-opacity:1;fill-rule:evenodd;stroke:none"
         id="path360" /><g
         id="g362"><path
           d="m 161.598,147.094 c 0,-0.617 -0.555,-1.11 -1.172,-1.11 -0.613,0 -1.106,0.493 -1.106,1.11 0,0.613 0.493,1.172 1.106,1.172 0.617,0 1.172,-0.559 1.172,-1.172 z"
           style="fill:none;stroke:#252a6a;stroke-width:0.5;stroke-linecap:butt;stroke-linejoin:round;stroke-miterlimit:10;stroke-dasharray:none;stroke-opacity:1"
           id="path364" /></g><path
         d="m 163.383,147.094 c 0,-0.617 -0.492,-1.11 -1.106,-1.11 -0.617,0 -1.109,0.493 -1.109,1.11 0,0.613 0.492,1.172 1.109,1.172 0.614,0 1.106,-0.559 1.106,-1.172"
         style="fill:#252a6a;fill-opacity:1;fill-rule:evenodd;stroke:none"
         id="path366" /><g
         id="g368"><path
           d="m 163.383,147.094 c 0,-0.617 -0.492,-1.11 -1.106,-1.11 -0.617,0 -1.109,0.493 -1.109,1.11 0,0.613 0.492,1.172 1.109,1.172 0.614,0 1.106,-0.559 1.106,-1.172 z"
           style="fill:none;stroke:#252a6a;stroke-width:0.5;stroke-linecap:butt;stroke-linejoin:round;stroke-miterlimit:10;stroke-dasharray:none;stroke-opacity:1"
           id="path370" /></g><path
         d="m 165.234,147.523 c 0,-0.613 -0.554,-1.109 -1.171,-1.109 -0.618,0 -1.11,0.496 -1.11,1.109 0,0.618 0.492,1.172 1.11,1.172 0.617,0 1.171,-0.554 1.171,-1.172"
         style="fill:#252a6a;fill-opacity:1;fill-rule:evenodd;stroke:none"
         id="path372" /><g
         id="g374"><path
           d="m 165.234,147.523 c 0,-0.613 -0.554,-1.109 -1.171,-1.109 -0.618,0 -1.11,0.496 -1.11,1.109 0,0.618 0.492,1.172 1.11,1.172 0.617,0 1.171,-0.554 1.171,-1.172 z"
           style="fill:none;stroke:#252a6a;stroke-width:0.5;stroke-linecap:butt;stroke-linejoin:round;stroke-miterlimit:10;stroke-dasharray:none;stroke-opacity:1"
           id="path376" /></g><path
         d="m 167.512,147.523 c 0,-0.613 -0.555,-1.109 -1.172,-1.109 -0.613,0 -1.106,0.496 -1.106,1.109 0,0.618 0.493,1.172 1.106,1.172 0.617,0 1.172,-0.554 1.172,-1.172"
         style="fill:#252a6a;fill-opacity:1;fill-rule:evenodd;stroke:none"
         id="path378" /><g
         id="g380"><path
           d="m 167.512,147.523 c 0,-0.613 -0.555,-1.109 -1.172,-1.109 -0.613,0 -1.106,0.496 -1.106,1.109 0,0.618 0.493,1.172 1.106,1.172 0.617,0 1.172,-0.554 1.172,-1.172 z"
           style="fill:none;stroke:#252a6a;stroke-width:0.5;stroke-linecap:butt;stroke-linejoin:round;stroke-miterlimit:10;stroke-dasharray:none;stroke-opacity:1"
           id="path382" /></g><path
         d="m 170.223,151.223 c 0,-0.618 -0.493,-1.11 -1.11,-1.11 -0.617,0 -1.109,0.492 -1.109,1.11 0,0.55 0.492,1.105 1.109,1.105 0.617,0 1.11,-0.555 1.11,-1.105"
         style="fill:#252a6a;fill-opacity:1;fill-rule:evenodd;stroke:none"
         id="path384" /><g
         id="g386"><path
           d="m 170.223,151.223 c 0,-0.618 -0.493,-1.11 -1.11,-1.11 -0.617,0 -1.109,0.492 -1.109,1.11 0,0.55 0.492,1.105 1.109,1.105 0.617,0 1.11,-0.555 1.11,-1.105 z"
           style="fill:none;stroke:#252a6a;stroke-width:0.5;stroke-linecap:butt;stroke-linejoin:round;stroke-miterlimit:10;stroke-dasharray:none;stroke-opacity:1"
           id="path388" /></g><path
         d="m 173.426,149.805 c 0,-0.617 -0.555,-1.11 -1.172,-1.11 -0.613,0 -1.109,0.493 -1.109,1.11 0,0.613 0.496,1.168 1.109,1.168 0.617,0 1.172,-0.555 1.172,-1.168"
         style="fill:#252a6a;fill-opacity:1;fill-rule:evenodd;stroke:none"
         id="path390" /><g
         id="g392"><path
           d="m 173.426,149.805 c 0,-0.617 -0.555,-1.11 -1.172,-1.11 -0.613,0 -1.109,0.493 -1.109,1.11 0,0.613 0.496,1.168 1.109,1.168 0.617,0 1.172,-0.555 1.172,-1.168 z"
           style="fill:none;stroke:#252a6a;stroke-width:0.5;stroke-linecap:butt;stroke-linejoin:round;stroke-miterlimit:10;stroke-dasharray:none;stroke-opacity:1"
           id="path394" /></g><path
         d="m 175.211,149.805 c 0,-0.617 -0.492,-1.11 -1.109,-1.11 -0.614,0 -1.106,0.493 -1.106,1.11 0,0.613 0.492,1.168 1.106,1.168 0.617,0 1.109,-0.555 1.109,-1.168"
         style="fill:#252a6a;fill-opacity:1;fill-rule:evenodd;stroke:none"
         id="path396" /><g
         id="g398"><path
           d="m 175.211,149.805 c 0,-0.617 -0.492,-1.11 -1.109,-1.11 -0.614,0 -1.106,0.493 -1.106,1.11 0,0.613 0.492,1.168 1.106,1.168 0.617,0 1.109,-0.555 1.109,-1.168 z"
           style="fill:none;stroke:#252a6a;stroke-width:0.5;stroke-linecap:butt;stroke-linejoin:round;stroke-miterlimit:10;stroke-dasharray:none;stroke-opacity:1"
           id="path400" /></g><path
         d="m 178.414,151.223 c 0,-0.618 -0.555,-1.11 -1.168,-1.11 -0.617,0 -1.109,0.492 -1.109,1.11 0,0.55 0.492,1.105 1.109,1.105 0.613,0 1.168,-0.555 1.168,-1.105"
         style="fill:#252a6a;fill-opacity:1;fill-rule:evenodd;stroke:none"
         id="path402" /><g
         id="g404"><path
           d="m 178.414,151.223 c 0,-0.618 -0.555,-1.11 -1.168,-1.11 -0.617,0 -1.109,0.492 -1.109,1.11 0,0.55 0.492,1.105 1.109,1.105 0.613,0 1.168,-0.555 1.168,-1.105 z"
           style="fill:none;stroke:#252a6a;stroke-width:0.5;stroke-linecap:butt;stroke-linejoin:round;stroke-miterlimit:10;stroke-dasharray:none;stroke-opacity:1"
           id="path406" /></g><path
         d="m 183.406,151.223 c 0,-0.618 -0.554,-1.11 -1.172,-1.11 -0.617,0 -1.109,0.492 -1.109,1.11 0,0.55 0.492,1.105 1.109,1.105 0.618,0 1.172,-0.555 1.172,-1.105"
         style="fill:#252a6a;fill-opacity:1;fill-rule:evenodd;stroke:none"
         id="path408" /><g
         id="g410"><path
           d="m 183.406,151.223 c 0,-0.618 -0.554,-1.11 -1.172,-1.11 -0.617,0 -1.109,0.492 -1.109,1.11 0,0.55 0.492,1.105 1.109,1.105 0.618,0 1.172,-0.555 1.172,-1.105 z"
           style="fill:none;stroke:#252a6a;stroke-width:0.5;stroke-linecap:butt;stroke-linejoin:round;stroke-miterlimit:10;stroke-dasharray:none;stroke-opacity:1"
           id="path412" /></g><path
         d="m 185.254,151.223 c 0,-0.618 -0.555,-1.11 -1.172,-1.11 -0.613,0 -1.109,0.492 -1.109,1.11 0,0.55 0.496,1.105 1.109,1.105 0.617,0 1.172,-0.555 1.172,-1.105"
         style="fill:#252a6a;fill-opacity:1;fill-rule:evenodd;stroke:none"
         id="path414" /><g
         id="g416"><path
           d="m 185.254,151.223 c 0,-0.618 -0.555,-1.11 -1.172,-1.11 -0.613,0 -1.109,0.492 -1.109,1.11 0,0.55 0.496,1.105 1.109,1.105 0.617,0 1.172,-0.555 1.172,-1.105 z"
           style="fill:none;stroke:#252a6a;stroke-width:0.5;stroke-linecap:butt;stroke-linejoin:round;stroke-miterlimit:10;stroke-dasharray:none;stroke-opacity:1"
           id="path418" /></g><path
         d="m 190.242,151.223 c 0,-0.618 -0.554,-1.11 -1.168,-1.11 -0.617,0 -1.109,0.492 -1.109,1.11 0,0.55 0.492,1.105 1.109,1.105 0.614,0 1.168,-0.555 1.168,-1.105"
         style="fill:#252a6a;fill-opacity:1;fill-rule:evenodd;stroke:none"
         id="path420" /><g
         id="g422"><path
           d="m 190.242,151.223 c 0,-0.618 -0.554,-1.11 -1.168,-1.11 -0.617,0 -1.109,0.492 -1.109,1.11 0,0.55 0.492,1.105 1.109,1.105 0.614,0 1.168,-0.555 1.168,-1.105 z"
           style="fill:none;stroke:#252a6a;stroke-width:0.5;stroke-linecap:butt;stroke-linejoin:round;stroke-miterlimit:10;stroke-dasharray:none;stroke-opacity:1"
           id="path424" /></g><path
         d="m 192.094,150.727 c 0,-0.614 -0.559,-1.11 -1.172,-1.11 -0.617,0 -1.109,0.496 -1.109,1.11 0,0.617 0.492,1.171 1.109,1.171 0.613,0 1.172,-0.554 1.172,-1.171"
         style="fill:#252a6a;fill-opacity:1;fill-rule:evenodd;stroke:none"
         id="path426" /><g
         id="g428"><path
           d="m 192.094,150.727 c 0,-0.614 -0.559,-1.11 -1.172,-1.11 -0.617,0 -1.109,0.496 -1.109,1.11 0,0.617 0.492,1.171 1.109,1.171 0.613,0 1.172,-0.554 1.172,-1.171 z"
           style="fill:none;stroke:#252a6a;stroke-width:0.5;stroke-linecap:butt;stroke-linejoin:round;stroke-miterlimit:10;stroke-dasharray:none;stroke-opacity:1"
           id="path430" /></g><text
         transform="translate(77.533409,160.95069)"
         style="font-variant:normal;font-weight:normal;font-size:7.97003px;font-family:Verdana;-inkscape-font-specification:Verdana;writing-mode:lr-tb;fill:#100f0d;fill-opacity:1;fill-rule:nonzero;stroke:none"
         id="text446"><tspan
           x="0 3.8176453 49.485928 53.303574 98.971855 102.79747 148.49545 152.31311 -49.498482 -45.680836"
           y="0"
           sodipodi:role="line"
           id="tspan432">3035404525</tspan><tspan
           x="16.34409 23.301928 26.68919 28.817188 32.602955 36.699551 39.130409 40.939606 44.900715 47.251873 49.061069 52.791046 56.281918 59.198952 61.008148 63.486828 66.905975 71.265579 75.210747 77.011971 79.7696 83.72274 87.452713"
           y="11.999648"
           sodipodi:role="line"
           id="tspan434">Weight of gas tank (kg)</tspan><tspan
           x="-60.649307 -56.831661 -53.006046"
           y="-7.0502343"
           sodipodi:role="line"
           id="tspan436">900</tspan><tspan
           x="-60.649307 -56.831661 -53.006046"
           y="-43.764057"
           sodipodi:role="line"
           id="tspan438">950</tspan><tspan
           x="-64.474907 -60.657261 -56.831646 -53.014"
           y="-80.477859"
           sodipodi:role="line"
           id="tspan440">1000</tspan><tspan
           x="-64.474907 -60.657261 -56.831646 -53.014"
           y="-117.19166"
           sodipodi:role="line"
           id="tspan442">1050</tspan><tspan
           x="-64.474907 -60.657261 -56.831646 -53.014"
           y="-153.90547"
           sodipodi:role="line"
           id="tspan444">1100</tspan></text><text
         transform="rotate(-90,55.491964,48.302748)"
         style="font-variant:normal;font-weight:normal;font-size:7.97003px;font-family:Verdana;-inkscape-font-specification:Verdana;writing-mode:lr-tb;fill:#100f0d;fill-opacity:1;fill-rule:nonzero;stroke:none"
         id="text450"><tspan
           x="0 4.0806565 6.933928 10.313221 14.306208 18.530325 21.917587 26.269226 29.760099 33.410374 35.21957 37.977203 43.994576 47.341991"
           y="0"
           sodipodi:role="line"
           id="tspan448">Frequency (Hz)</tspan></text></g></g></svg>
