<?xml version="1.0" encoding="UTF-8" standalone="no"?>
<svg
   xmlns:dc="http://purl.org/dc/elements/1.1/"
   xmlns:cc="http://creativecommons.org/ns#"
   xmlns:rdf="http://www.w3.org/1999/02/22-rdf-syntax-ns#"
   xmlns:svg="http://www.w3.org/2000/svg"
   xmlns="http://www.w3.org/2000/svg"
   xmlns:sodipodi="http://sodipodi.sourceforge.net/DTD/sodipodi-0.dtd"
   xmlns:inkscape="http://www.inkscape.org/namespaces/inkscape"
   version="1.1"
   id="svg10"
   xml:space="preserve"
   width="562"
   height="422"
   viewBox="0 0 562 422"
   sodipodi:docname="worldcons.svg"
   inkscape:version="1.0.1 (3bc2e813f5, 2020-09-07)"><metadata
     id="metadata16"><rdf:RDF><cc:Work
         rdf:about=""><dc:format>image/svg+xml</dc:format><dc:type
           rdf:resource="http://purl.org/dc/dcmitype/StillImage" /><dc:title></dc:title></cc:Work></rdf:RDF></metadata><defs
     id="defs14" /><sodipodi:namedview
     pagecolor="#ffffff"
     bordercolor="#666666"
     borderopacity="1"
     objecttolerance="10"
     gridtolerance="10"
     guidetolerance="10"
     inkscape:pageopacity="0"
     inkscape:pageshadow="2"
     inkscape:window-width="1366"
     inkscape:window-height="705"
     id="namedview12"
     showgrid="false"
     fit-margin-bottom="1"
     lock-margins="true"
     fit-margin-top="1"
     fit-margin-left="1"
     fit-margin-right="1"
     inkscape:zoom="1.0146982"
     inkscape:cx="203.39305"
     inkscape:cy="224.85274"
     inkscape:window-x="-8"
     inkscape:window-y="-8"
     inkscape:window-maximized="1"
     inkscape:current-layer="g18" /><g
     id="g18"
     inkscape:groupmode="layer"
     inkscape:label="worldcons"
     transform="matrix(1.3333333,0,0,-1.3333333,34.979084,414.74997)"><g
       id="g20"
       transform="matrix(0.125,0,0,-0.125,0,300)"><g
         id="g22"
         transform="matrix(6,0,0,6,-203.87451,-82.499908)"><path
           d="M 0,0 H 560 V 420 H 0 Z"
           style="fill:#ffffff;fill-opacity:1;fill-rule:nonzero;stroke:none"
           id="path24" /></g><g
         id="g26"
         transform="matrix(6,0,0,6,-203.87451,-82.499908)"><path
           d="M 73,374 H 507 V 31 H 73 Z"
           style="fill:#ffffff;fill-opacity:1;fill-rule:nonzero;stroke:none"
           id="path28" /></g><g
         id="g30"
         transform="matrix(6,0,0,6,-203.87451,-82.499908)"><path
           d="M 73,374 H 507"
           style="fill:none;stroke:#262626;stroke-width:0.666667;stroke-linecap:square;stroke-linejoin:round;stroke-miterlimit:10;stroke-dasharray:none;stroke-opacity:1"
           id="path32" /></g><g
         id="g34"
         transform="matrix(6,0,0,6,-203.87451,-82.499908)"><path
           d="M 73,31 H 507"
           style="fill:none;stroke:#262626;stroke-width:0.666667;stroke-linecap:square;stroke-linejoin:round;stroke-miterlimit:10;stroke-dasharray:none;stroke-opacity:1"
           id="path36" /></g><g
         id="g38"
         transform="matrix(6,0,0,6,-203.87451,-82.499908)"><path
           d="m 73,374 v -4.34"
           style="fill:none;stroke:#262626;stroke-width:0.666667;stroke-linecap:square;stroke-linejoin:round;stroke-miterlimit:10;stroke-dasharray:none;stroke-opacity:1"
           id="path40" /></g><g
         id="g42"
         transform="matrix(6,0,0,6,-203.87451,-82.499908)"><path
           d="m 135,374 v -4.34"
           style="fill:none;stroke:#262626;stroke-width:0.666667;stroke-linecap:square;stroke-linejoin:round;stroke-miterlimit:10;stroke-dasharray:none;stroke-opacity:1"
           id="path44" /></g><g
         id="g46"
         transform="matrix(6,0,0,6,-203.87451,-82.499908)"><path
           d="m 197,374 v -4.34"
           style="fill:none;stroke:#262626;stroke-width:0.666667;stroke-linecap:square;stroke-linejoin:round;stroke-miterlimit:10;stroke-dasharray:none;stroke-opacity:1"
           id="path48" /></g><g
         id="g50"
         transform="matrix(6,0,0,6,-203.87451,-82.499908)"><path
           d="m 259,374 v -4.34"
           style="fill:none;stroke:#262626;stroke-width:0.666667;stroke-linecap:square;stroke-linejoin:round;stroke-miterlimit:10;stroke-dasharray:none;stroke-opacity:1"
           id="path52" /></g><g
         id="g54"
         transform="matrix(6,0,0,6,-203.87451,-82.499908)"><path
           d="m 321,374 v -4.34"
           style="fill:none;stroke:#262626;stroke-width:0.666667;stroke-linecap:square;stroke-linejoin:round;stroke-miterlimit:10;stroke-dasharray:none;stroke-opacity:1"
           id="path56" /></g><g
         id="g58"
         transform="matrix(6,0,0,6,-203.87451,-82.499908)"><path
           d="m 383,374 v -4.34"
           style="fill:none;stroke:#262626;stroke-width:0.666667;stroke-linecap:square;stroke-linejoin:round;stroke-miterlimit:10;stroke-dasharray:none;stroke-opacity:1"
           id="path60" /></g><g
         id="g62"
         transform="matrix(6,0,0,6,-203.87451,-82.499908)"><path
           d="m 445,374 v -4.34"
           style="fill:none;stroke:#262626;stroke-width:0.666667;stroke-linecap:square;stroke-linejoin:round;stroke-miterlimit:10;stroke-dasharray:none;stroke-opacity:1"
           id="path64" /></g><g
         id="g66"
         transform="matrix(6,0,0,6,-203.87451,-82.499908)"><path
           d="m 507,374 v -4.34"
           style="fill:none;stroke:#262626;stroke-width:0.666667;stroke-linecap:square;stroke-linejoin:round;stroke-miterlimit:10;stroke-dasharray:none;stroke-opacity:1"
           id="path68" /></g><g
         id="g70"
         transform="matrix(6,0,0,6,-203.87451,-82.499908)"><path
           d="m 73,31 v 4.34"
           style="fill:none;stroke:#262626;stroke-width:0.666667;stroke-linecap:square;stroke-linejoin:round;stroke-miterlimit:10;stroke-dasharray:none;stroke-opacity:1"
           id="path72" /></g><g
         id="g74"
         transform="matrix(6,0,0,6,-203.87451,-82.499908)"><path
           d="m 135,31 v 4.34"
           style="fill:none;stroke:#262626;stroke-width:0.666667;stroke-linecap:square;stroke-linejoin:round;stroke-miterlimit:10;stroke-dasharray:none;stroke-opacity:1"
           id="path76" /></g><g
         id="g78"
         transform="matrix(6,0,0,6,-203.87451,-82.499908)"><path
           d="m 197,31 v 4.34"
           style="fill:none;stroke:#262626;stroke-width:0.666667;stroke-linecap:square;stroke-linejoin:round;stroke-miterlimit:10;stroke-dasharray:none;stroke-opacity:1"
           id="path80" /></g><g
         id="g82"
         transform="matrix(6,0,0,6,-203.87451,-82.499908)"><path
           d="m 259,31 v 4.34"
           style="fill:none;stroke:#262626;stroke-width:0.666667;stroke-linecap:square;stroke-linejoin:round;stroke-miterlimit:10;stroke-dasharray:none;stroke-opacity:1"
           id="path84" /></g><g
         id="g86"
         transform="matrix(6,0,0,6,-203.87451,-82.499908)"><path
           d="m 321,31 v 4.34"
           style="fill:none;stroke:#262626;stroke-width:0.666667;stroke-linecap:square;stroke-linejoin:round;stroke-miterlimit:10;stroke-dasharray:none;stroke-opacity:1"
           id="path88" /></g><g
         id="g90"
         transform="matrix(6,0,0,6,-203.87451,-82.499908)"><path
           d="m 383,31 v 4.34"
           style="fill:none;stroke:#262626;stroke-width:0.666667;stroke-linecap:square;stroke-linejoin:round;stroke-miterlimit:10;stroke-dasharray:none;stroke-opacity:1"
           id="path92" /></g><g
         id="g94"
         transform="matrix(6,0,0,6,-203.87451,-82.499908)"><path
           d="m 445,31 v 4.34"
           style="fill:none;stroke:#262626;stroke-width:0.666667;stroke-linecap:square;stroke-linejoin:round;stroke-miterlimit:10;stroke-dasharray:none;stroke-opacity:1"
           id="path96" /></g><g
         id="g98"
         transform="matrix(6,0,0,6,-203.87451,-82.499908)"><path
           d="m 507,31 v 4.34"
           style="fill:none;stroke:#262626;stroke-width:0.666667;stroke-linecap:square;stroke-linejoin:round;stroke-miterlimit:10;stroke-dasharray:none;stroke-opacity:1"
           id="path100" /></g><g
         id="g102"><g
           id="g104"
           transform="matrix(6,0,0,6,234.12549,2193.5002)"><text
             transform="translate(-15,14)"
             style="font-variant:normal;font-weight:normal;font-size:13.333px;font-family:Helvetica;-inkscape-font-specification:Helvetica;writing-mode:lr-tb;fill:#262626;fill-opacity:1;fill-rule:nonzero;stroke:none"
             id="text108"><tspan
               x="0 7.4131479 14.826296 22.239445"
               y="0"
               sodipodi:role="line"
               id="tspan106">1860</tspan></text></g></g><g
         id="g110"><g
           id="g112"
           transform="matrix(6,0,0,6,606.12549,2193.5002)"><text
             transform="translate(-15,14)"
             style="font-variant:normal;font-weight:normal;font-size:13.333px;font-family:Helvetica;-inkscape-font-specification:Helvetica;writing-mode:lr-tb;fill:#262626;fill-opacity:1;fill-rule:nonzero;stroke:none"
             id="text116"><tspan
               x="0 7.4131479 14.826296 22.239445"
               y="0"
               sodipodi:role="line"
               id="tspan114">1880</tspan></text></g></g><g
         id="g118"><g
           id="g120"
           transform="matrix(6,0,0,6,978.12549,2193.5002)"><text
             transform="translate(-15,14)"
             style="font-variant:normal;font-weight:normal;font-size:13.333px;font-family:Helvetica;-inkscape-font-specification:Helvetica;writing-mode:lr-tb;fill:#262626;fill-opacity:1;fill-rule:nonzero;stroke:none"
             id="text124"><tspan
               x="0 7.4131479 14.826296 22.239445"
               y="0"
               sodipodi:role="line"
               id="tspan122">1900</tspan></text></g></g><g
         id="g126"><g
           id="g128"
           transform="matrix(6,0,0,6,1350.1255,2193.5002)"><text
             transform="translate(-15,14)"
             style="font-variant:normal;font-weight:normal;font-size:13.333px;font-family:Helvetica;-inkscape-font-specification:Helvetica;writing-mode:lr-tb;fill:#262626;fill-opacity:1;fill-rule:nonzero;stroke:none"
             id="text132"><tspan
               x="0 7.4131479 14.826296 22.239445"
               y="0"
               sodipodi:role="line"
               id="tspan130">1920</tspan></text></g></g><g
         id="g134"><g
           id="g136"
           transform="matrix(6,0,0,6,1722.1255,2193.5002)"><text
             transform="translate(-15,14)"
             style="font-variant:normal;font-weight:normal;font-size:13.333px;font-family:Helvetica;-inkscape-font-specification:Helvetica;writing-mode:lr-tb;fill:#262626;fill-opacity:1;fill-rule:nonzero;stroke:none"
             id="text140"><tspan
               x="0 7.4131479 14.826296 22.239445"
               y="0"
               sodipodi:role="line"
               id="tspan138">1940</tspan></text></g></g><g
         id="g142"><g
           id="g144"
           transform="matrix(6,0,0,6,2094.1255,2193.5002)"><text
             transform="translate(-15,14)"
             style="font-variant:normal;font-weight:normal;font-size:13.333px;font-family:Helvetica;-inkscape-font-specification:Helvetica;writing-mode:lr-tb;fill:#262626;fill-opacity:1;fill-rule:nonzero;stroke:none"
             id="text148"><tspan
               x="0 7.4131479 14.826296 22.239445"
               y="0"
               sodipodi:role="line"
               id="tspan146">1960</tspan></text></g></g><g
         id="g150"><g
           id="g152"
           transform="matrix(6,0,0,6,2466.1255,2193.5002)"><text
             transform="translate(-15,14)"
             style="font-variant:normal;font-weight:normal;font-size:13.333px;font-family:Helvetica;-inkscape-font-specification:Helvetica;writing-mode:lr-tb;fill:#262626;fill-opacity:1;fill-rule:nonzero;stroke:none"
             id="text156"><tspan
               x="0 7.4131479 14.826296 22.239445"
               y="0"
               sodipodi:role="line"
               id="tspan154">1980</tspan></text></g></g><g
         id="g158"><g
           id="g160"
           transform="matrix(6,0,0,6,2838.1255,2193.5002)"><text
             transform="translate(-15,14)"
             style="font-variant:normal;font-weight:normal;font-size:13.333px;font-family:Helvetica;-inkscape-font-specification:Helvetica;writing-mode:lr-tb;fill:#262626;fill-opacity:1;fill-rule:nonzero;stroke:none"
             id="text164"><tspan
               x="0 7.4131479 14.826296 22.239445"
               y="0"
               sodipodi:role="line"
               id="tspan162">2000</tspan></text></g></g><g
         id="g166"><g
           id="g168"
           transform="matrix(6,0,0,6,1536.1277,2303.5)"><text
             transform="translate(-15.5,15)"
             style="font-variant:normal;font-weight:normal;font-size:14.667px;font-family:Helvetica;-inkscape-font-specification:Helvetica;writing-mode:lr-tb;fill:#262626;fill-opacity:1;fill-rule:nonzero;stroke:none"
             id="text172"><tspan
               x="0 9.7828894 17.93774 26.092592"
               y="0"
               sodipodi:role="line"
               id="tspan170">Year</tspan></text></g></g><g
         id="g174"
         transform="matrix(6,0,0,6,-203.87451,-82.499908)"><path
           d="M 73,374 V 31"
           style="fill:none;stroke:#262626;stroke-width:0.666667;stroke-linecap:square;stroke-linejoin:round;stroke-miterlimit:10;stroke-dasharray:none;stroke-opacity:1"
           id="path176" /></g><g
         id="g178"
         transform="matrix(6,0,0,6,-203.87451,-82.499908)"><path
           d="M 507,374 V 31"
           style="fill:none;stroke:#262626;stroke-width:0.666667;stroke-linecap:square;stroke-linejoin:round;stroke-miterlimit:10;stroke-dasharray:none;stroke-opacity:1"
           id="path180" /></g><g
         id="g182"
         transform="matrix(6,0,0,6,-203.87451,-82.499908)"><path
           d="m 73,374 h 4.340073"
           style="fill:none;stroke:#262626;stroke-width:0.666667;stroke-linecap:square;stroke-linejoin:round;stroke-miterlimit:10;stroke-dasharray:none;stroke-opacity:1"
           id="path184" /></g><g
         id="g186"
         transform="matrix(6,0,0,6,-203.87451,-82.499908)"><path
           d="m 73,339.70001 h 4.340073"
           style="fill:none;stroke:#262626;stroke-width:0.666667;stroke-linecap:square;stroke-linejoin:round;stroke-miterlimit:10;stroke-dasharray:none;stroke-opacity:1"
           id="path188" /></g><g
         id="g190"
         transform="matrix(6,0,0,6,-203.87451,-82.499908)"><path
           d="m 73,305.39999 h 4.340073"
           style="fill:none;stroke:#262626;stroke-width:0.666667;stroke-linecap:square;stroke-linejoin:round;stroke-miterlimit:10;stroke-dasharray:none;stroke-opacity:1"
           id="path192" /></g><g
         id="g194"
         transform="matrix(6,0,0,6,-203.87451,-82.499908)"><path
           d="m 73,271.10001 h 4.340073"
           style="fill:none;stroke:#262626;stroke-width:0.666667;stroke-linecap:square;stroke-linejoin:round;stroke-miterlimit:10;stroke-dasharray:none;stroke-opacity:1"
           id="path196" /></g><g
         id="g198"
         transform="matrix(6,0,0,6,-203.87451,-82.499908)"><path
           d="m 73,236.8 h 4.340073"
           style="fill:none;stroke:#262626;stroke-width:0.666667;stroke-linecap:square;stroke-linejoin:round;stroke-miterlimit:10;stroke-dasharray:none;stroke-opacity:1"
           id="path200" /></g><g
         id="g202"
         transform="matrix(6,0,0,6,-203.87451,-82.499908)"><path
           d="m 73,202.5 h 4.340073"
           style="fill:none;stroke:#262626;stroke-width:0.666667;stroke-linecap:square;stroke-linejoin:round;stroke-miterlimit:10;stroke-dasharray:none;stroke-opacity:1"
           id="path204" /></g><g
         id="g206"
         transform="matrix(6,0,0,6,-203.87451,-82.499908)"><path
           d="m 73,168.2 h 4.340073"
           style="fill:none;stroke:#262626;stroke-width:0.666667;stroke-linecap:square;stroke-linejoin:round;stroke-miterlimit:10;stroke-dasharray:none;stroke-opacity:1"
           id="path208" /></g><g
         id="g210"
         transform="matrix(6,0,0,6,-203.87451,-82.499908)"><path
           d="m 73,133.89999 h 4.340073"
           style="fill:none;stroke:#262626;stroke-width:0.666667;stroke-linecap:square;stroke-linejoin:round;stroke-miterlimit:10;stroke-dasharray:none;stroke-opacity:1"
           id="path212" /></g><g
         id="g214"
         transform="matrix(6,0,0,6,-203.87451,-82.499908)"><path
           d="m 73,99.599998 h 4.340073"
           style="fill:none;stroke:#262626;stroke-width:0.666667;stroke-linecap:square;stroke-linejoin:round;stroke-miterlimit:10;stroke-dasharray:none;stroke-opacity:1"
           id="path216" /></g><g
         id="g218"
         transform="matrix(6,0,0,6,-203.87451,-82.499908)"><path
           d="m 73,65.300003 h 4.340073"
           style="fill:none;stroke:#262626;stroke-width:0.666667;stroke-linecap:square;stroke-linejoin:round;stroke-miterlimit:10;stroke-dasharray:none;stroke-opacity:1"
           id="path220" /></g><g
         id="g222"
         transform="matrix(6,0,0,6,-203.87451,-82.499908)"><path
           d="m 73,31 h 4.340073"
           style="fill:none;stroke:#262626;stroke-width:0.666667;stroke-linecap:square;stroke-linejoin:round;stroke-miterlimit:10;stroke-dasharray:none;stroke-opacity:1"
           id="path224" /></g><g
         id="g226"
         transform="matrix(6,0,0,6,-203.87451,-82.499908)"><path
           d="m 507,374 h -4.34009"
           style="fill:none;stroke:#262626;stroke-width:0.666667;stroke-linecap:square;stroke-linejoin:round;stroke-miterlimit:10;stroke-dasharray:none;stroke-opacity:1"
           id="path228" /></g><g
         id="g230"
         transform="matrix(6,0,0,6,-203.87451,-82.499908)"><path
           d="m 507,339.70001 h -4.34009"
           style="fill:none;stroke:#262626;stroke-width:0.666667;stroke-linecap:square;stroke-linejoin:round;stroke-miterlimit:10;stroke-dasharray:none;stroke-opacity:1"
           id="path232" /></g><g
         id="g234"
         transform="matrix(6,0,0,6,-203.87451,-82.499908)"><path
           d="m 507,305.39999 h -4.34009"
           style="fill:none;stroke:#262626;stroke-width:0.666667;stroke-linecap:square;stroke-linejoin:round;stroke-miterlimit:10;stroke-dasharray:none;stroke-opacity:1"
           id="path236" /></g><g
         id="g238"
         transform="matrix(6,0,0,6,-203.87451,-82.499908)"><path
           d="m 507,271.10001 h -4.34009"
           style="fill:none;stroke:#262626;stroke-width:0.666667;stroke-linecap:square;stroke-linejoin:round;stroke-miterlimit:10;stroke-dasharray:none;stroke-opacity:1"
           id="path240" /></g><g
         id="g242"
         transform="matrix(6,0,0,6,-203.87451,-82.499908)"><path
           d="m 507,236.8 h -4.34009"
           style="fill:none;stroke:#262626;stroke-width:0.666667;stroke-linecap:square;stroke-linejoin:round;stroke-miterlimit:10;stroke-dasharray:none;stroke-opacity:1"
           id="path244" /></g><g
         id="g246"
         transform="matrix(6,0,0,6,-203.87451,-82.499908)"><path
           d="m 507,202.5 h -4.34009"
           style="fill:none;stroke:#262626;stroke-width:0.666667;stroke-linecap:square;stroke-linejoin:round;stroke-miterlimit:10;stroke-dasharray:none;stroke-opacity:1"
           id="path248" /></g><g
         id="g250"
         transform="matrix(6,0,0,6,-203.87451,-82.499908)"><path
           d="m 507,168.2 h -4.34009"
           style="fill:none;stroke:#262626;stroke-width:0.666667;stroke-linecap:square;stroke-linejoin:round;stroke-miterlimit:10;stroke-dasharray:none;stroke-opacity:1"
           id="path252" /></g><g
         id="g254"
         transform="matrix(6,0,0,6,-203.87451,-82.499908)"><path
           d="m 507,133.89999 h -4.34009"
           style="fill:none;stroke:#262626;stroke-width:0.666667;stroke-linecap:square;stroke-linejoin:round;stroke-miterlimit:10;stroke-dasharray:none;stroke-opacity:1"
           id="path256" /></g><g
         id="g258"
         transform="matrix(6,0,0,6,-203.87451,-82.499908)"><path
           d="m 507,99.599998 h -4.34009"
           style="fill:none;stroke:#262626;stroke-width:0.666667;stroke-linecap:square;stroke-linejoin:round;stroke-miterlimit:10;stroke-dasharray:none;stroke-opacity:1"
           id="path260" /></g><g
         id="g262"
         transform="matrix(6,0,0,6,-203.87451,-82.499908)"><path
           d="m 507,65.300003 h -4.34009"
           style="fill:none;stroke:#262626;stroke-width:0.666667;stroke-linecap:square;stroke-linejoin:round;stroke-miterlimit:10;stroke-dasharray:none;stroke-opacity:1"
           id="path264" /></g><g
         id="g266"
         transform="matrix(6,0,0,6,-203.87451,-82.499908)"><path
           d="m 507,31 h -4.34009"
           style="fill:none;stroke:#262626;stroke-width:0.666667;stroke-linecap:square;stroke-linejoin:round;stroke-miterlimit:10;stroke-dasharray:none;stroke-opacity:1"
           id="path268" /></g><g
         id="g270"><g
           id="g272"
           transform="matrix(6,0,0,6,202.12497,2161.5001)"><text
             transform="translate(-8,5.5)"
             style="font-variant:normal;font-weight:normal;font-size:13.333px;font-family:Helvetica;-inkscape-font-specification:Helvetica;writing-mode:lr-tb;fill:#262626;fill-opacity:1;fill-rule:nonzero;stroke:none"
             id="text276"><tspan
               x="0"
               y="0"
               id="tspan274">0</tspan></text></g></g><g
         id="g278"><g
           id="g280"
           transform="matrix(6,0,0,6,202.12497,1955.7002)"><text
             transform="translate(-8,5.5)"
             style="font-variant:normal;font-weight:normal;font-size:13.333px;font-family:Helvetica;-inkscape-font-specification:Helvetica;writing-mode:lr-tb;fill:#262626;fill-opacity:1;fill-rule:nonzero;stroke:none"
             id="text284"><tspan
               x="0"
               y="0"
               id="tspan282">1</tspan></text></g></g><g
         id="g286"><g
           id="g288"
           transform="matrix(6,0,0,6,202.12497,1749.9001)"><text
             transform="translate(-8,5.5)"
             style="font-variant:normal;font-weight:normal;font-size:13.333px;font-family:Helvetica;-inkscape-font-specification:Helvetica;writing-mode:lr-tb;fill:#262626;fill-opacity:1;fill-rule:nonzero;stroke:none"
             id="text292"><tspan
               x="0"
               y="0"
               id="tspan290">2</tspan></text></g></g><g
         id="g294"><g
           id="g296"
           transform="matrix(6,0,0,6,202.12497,1544.1001)"><text
             transform="translate(-8,5.5)"
             style="font-variant:normal;font-weight:normal;font-size:13.333px;font-family:Helvetica;-inkscape-font-specification:Helvetica;writing-mode:lr-tb;fill:#262626;fill-opacity:1;fill-rule:nonzero;stroke:none"
             id="text300"><tspan
               x="0"
               y="0"
               id="tspan298">3</tspan></text></g></g><g
         id="g302"><g
           id="g304"
           transform="matrix(6,0,0,6,202.12497,1338.3001)"><text
             transform="translate(-8,5.5)"
             style="font-variant:normal;font-weight:normal;font-size:13.333px;font-family:Helvetica;-inkscape-font-specification:Helvetica;writing-mode:lr-tb;fill:#262626;fill-opacity:1;fill-rule:nonzero;stroke:none"
             id="text308"><tspan
               x="0"
               y="0"
               id="tspan306">4</tspan></text></g></g><g
         id="g310"><g
           id="g312"
           transform="matrix(6,0,0,6,202.12497,1132.5001)"><text
             transform="translate(-8,5.5)"
             style="font-variant:normal;font-weight:normal;font-size:13.333px;font-family:Helvetica;-inkscape-font-specification:Helvetica;writing-mode:lr-tb;fill:#262626;fill-opacity:1;fill-rule:nonzero;stroke:none"
             id="text316"><tspan
               x="0"
               y="0"
               id="tspan314">5</tspan></text></g></g><g
         id="g318"><g
           id="g320"
           transform="matrix(6,0,0,6,202.12497,926.70007)"><text
             transform="translate(-8,5.5)"
             style="font-variant:normal;font-weight:normal;font-size:13.333px;font-family:Helvetica;-inkscape-font-specification:Helvetica;writing-mode:lr-tb;fill:#262626;fill-opacity:1;fill-rule:nonzero;stroke:none"
             id="text324"><tspan
               x="0"
               y="0"
               id="tspan322">6</tspan></text></g></g><g
         id="g326"><g
           id="g328"
           transform="matrix(6,0,0,6,202.12497,720.90005)"><text
             transform="translate(-8,5.5)"
             style="font-variant:normal;font-weight:normal;font-size:13.333px;font-family:Helvetica;-inkscape-font-specification:Helvetica;writing-mode:lr-tb;fill:#262626;fill-opacity:1;fill-rule:nonzero;stroke:none"
             id="text332"><tspan
               x="0"
               y="0"
               id="tspan330">7</tspan></text></g></g><g
         id="g334"><g
           id="g336"
           transform="matrix(6,0,0,6,202.12497,515.10008)"><text
             transform="translate(-8,5.5)"
             style="font-variant:normal;font-weight:normal;font-size:13.333px;font-family:Helvetica;-inkscape-font-specification:Helvetica;writing-mode:lr-tb;fill:#262626;fill-opacity:1;fill-rule:nonzero;stroke:none"
             id="text340"><tspan
               x="0"
               y="0"
               id="tspan338">8</tspan></text></g></g><g
         id="g342"><g
           id="g344"
           transform="matrix(6,0,0,6,202.12497,309.30011)"><text
             transform="translate(-8,5.5)"
             style="font-variant:normal;font-weight:normal;font-size:13.333px;font-family:Helvetica;-inkscape-font-specification:Helvetica;writing-mode:lr-tb;fill:#262626;fill-opacity:1;fill-rule:nonzero;stroke:none"
             id="text348"><tspan
               x="0"
               y="0"
               id="tspan346">9</tspan></text></g></g><g
         id="g350"><g
           id="g352"
           transform="matrix(6,0,0,6,202.12497,103.50009)"><text
             transform="translate(-15,5.5)"
             style="font-variant:normal;font-weight:normal;font-size:13.333px;font-family:Helvetica;-inkscape-font-specification:Helvetica;writing-mode:lr-tb;fill:#262626;fill-opacity:1;fill-rule:nonzero;stroke:none"
             id="text356"><tspan
               x="0 7.4131479"
               y="0"
               sodipodi:role="line"
               id="tspan354">10</tspan></text></g></g><g
         id="g358"><g
           id="g360"
           transform="matrix(-2.6e-7,-6,6,-2.6e-7,88.125015,1132.4991)"><text
             transform="translate(-64,-4)"
             style="font-variant:normal;font-weight:normal;font-size:14.667px;font-family:Helvetica;-inkscape-font-specification:Helvetica;writing-mode:lr-tb;fill:#262626;fill-opacity:1;fill-rule:nonzero;stroke:none"
             id="text364"><tspan
               x="0 10.589574 18.744427 26.899279 34.232777 42.38763 54.60524 62.760094 66.837517 70.09359 78.248444 86.403297 91.287407 102.69833 106.77576 114.93061 123.08546"
               y="0"
               sodipodi:role="line"
               id="tspan362">Consumption(Gtoe)</tspan></text></g></g><g
         id="g366"><g
           id="g368"
           transform="matrix(6,0,0,6,1536.1277,87)"><text
             transform="translate(-95,-4)"
             style="font-variant:normal;font-weight:bold;font-size:14.667px;font-family:Helvetica;-inkscape-font-specification:Helvetica-Bold;writing-mode:lr-tb;fill:#000000;fill-opacity:1;fill-rule:nonzero;stroke:none"
             id="text372"><tspan
               x="0 13.845648 22.807184 28.512648 32.590073 41.551613 45.629036 53.78389 62.745426 70.900276 76.605743 85.567276 93.72213 97.799553 105.95441 114.91595 123.87748 132.03233 140.99387 154.03284 162.99437 167.87848 171.9559 180.91745"
               y="0"
               sodipodi:role="line"
               id="tspan370">World energy consumption</tspan></text></g></g><g
         id="g374"
         transform="matrix(6,0,0,6,-203.87451,-82.499908)"><path
           d="m 119.5,364.73901 77.5,-5.488 77.5,-22.29502 77.5,-26.06799 31,-38.759 31,-66.885 31,-45.276 31,-52.13601 31,-67.570973"
           style="fill:none;stroke:#0072bd;stroke-width:0.666667;stroke-linecap:butt;stroke-linejoin:round;stroke-miterlimit:10;stroke-dasharray:none;stroke-opacity:1"
           id="path376" /></g></g></g></svg>
