%TF.GenerationSoftware,KiCad,Pcbnew,(5.1.7)-1*%
%TF.CreationDate,2020-12-07T21:27:36+00:00*%
%TF.ProjectId,PiezzCircuit,5069657a-7a43-4697-9263-7569742e6b69,rev?*%
%TF.SameCoordinates,Original*%
%TF.FileFunction,Copper,L1,Top*%
%TF.FilePolarity,Positive*%
%FSLAX46Y46*%
G04 Gerber Fmt 4.6, Leading zero omitted, Abs format (unit mm)*
G04 Created by KiCad (PCBNEW (5.1.7)-1) date 2020-12-07 21:27:36*
%MOMM*%
%LPD*%
G01*
G04 APERTURE LIST*
%TA.AperFunction,ComponentPad*%
%ADD10O,1.700000X1.700000*%
%TD*%
%TA.AperFunction,ComponentPad*%
%ADD11R,1.700000X1.700000*%
%TD*%
%TA.AperFunction,ComponentPad*%
%ADD12R,1.050000X1.500000*%
%TD*%
%TA.AperFunction,ComponentPad*%
%ADD13O,1.050000X1.500000*%
%TD*%
%TA.AperFunction,ComponentPad*%
%ADD14C,1.308000*%
%TD*%
%TA.AperFunction,ComponentPad*%
%ADD15R,1.308000X1.308000*%
%TD*%
%TA.AperFunction,ComponentPad*%
%ADD16O,1.600000X1.600000*%
%TD*%
%TA.AperFunction,ComponentPad*%
%ADD17C,1.600000*%
%TD*%
%TA.AperFunction,ComponentPad*%
%ADD18R,1.600000X1.600000*%
%TD*%
%TA.AperFunction,Conductor*%
%ADD19C,0.750000*%
%TD*%
G04 APERTURE END LIST*
D10*
%TO.P,J6,10*%
%TO.N,GND*%
X86106000Y-21590000D03*
%TO.P,J6,9*%
%TO.N,Net-(J6-Pad9)*%
X86106000Y-24130000D03*
%TO.P,J6,8*%
%TO.N,Net-(J6-Pad8)*%
X86106000Y-26670000D03*
%TO.P,J6,7*%
%TO.N,Net-(J6-Pad7)*%
X86106000Y-29210000D03*
%TO.P,J6,6*%
%TO.N,Net-(J6-Pad6)*%
X86106000Y-31750000D03*
%TO.P,J6,5*%
%TO.N,Net-(J6-Pad5)*%
X86106000Y-34290000D03*
%TO.P,J6,4*%
%TO.N,Net-(J6-Pad4)*%
X86106000Y-36830000D03*
%TO.P,J6,3*%
%TO.N,Net-(J6-Pad3)*%
X86106000Y-39370000D03*
%TO.P,J6,2*%
%TO.N,Net-(J6-Pad2)*%
X86106000Y-41910000D03*
D11*
%TO.P,J6,1*%
%TO.N,Net-(J6-Pad1)*%
X86106000Y-44450000D03*
%TD*%
D10*
%TO.P,J7,3*%
%TO.N,VDD*%
X77216000Y-45339000D03*
%TO.P,J7,2*%
%TO.N,GND*%
X79756000Y-45339000D03*
D11*
%TO.P,J7,1*%
%TO.N,Net-(J6-Pad7)*%
X82296000Y-45339000D03*
%TD*%
D10*
%TO.P,J2,3*%
%TO.N,Net-(J2-Pad3)*%
X76962000Y-34798000D03*
%TO.P,J2,2*%
%TO.N,Net-(C2-Pad2)*%
X76962000Y-37338000D03*
D11*
%TO.P,J2,1*%
%TO.N,Net-(J2-Pad1)*%
X76962000Y-39878000D03*
%TD*%
D10*
%TO.P,J1,2*%
%TO.N,Net-(C2-Pad1)*%
X64516000Y-43434000D03*
D11*
%TO.P,J1,1*%
%TO.N,Net-(C1-Pad2)*%
X67056000Y-43434000D03*
%TD*%
%TO.P,J3,1*%
%TO.N,Net-(C1-Pad1)*%
X39370000Y-44450000D03*
D10*
%TO.P,J3,2*%
%TO.N,Net-(J3-Pad2)*%
X39370000Y-41910000D03*
%TO.P,J3,3*%
%TO.N,Net-(J3-Pad3)*%
X39370000Y-39370000D03*
%TO.P,J3,4*%
%TO.N,Net-(J3-Pad4)*%
X39370000Y-36830000D03*
%TO.P,J3,5*%
%TO.N,Net-(J3-Pad5)*%
X39370000Y-34290000D03*
%TO.P,J3,6*%
%TO.N,Net-(J3-Pad6)*%
X39370000Y-31750000D03*
%TO.P,J3,7*%
%TO.N,Net-(J3-Pad7)*%
X39370000Y-29210000D03*
%TO.P,J3,8*%
%TO.N,Net-(J3-Pad8)*%
X39370000Y-26670000D03*
%TO.P,J3,9*%
%TO.N,Net-(J3-Pad9)*%
X39370000Y-24130000D03*
%TO.P,J3,10*%
%TO.N,Net-(J3-Pad10)*%
X39370000Y-21590000D03*
%TD*%
D12*
%TO.P,U2,1*%
%TO.N,N/C*%
X78867000Y-25273000D03*
D13*
%TO.P,U2,3*%
%TO.N,GND*%
X76327000Y-25273000D03*
%TO.P,U2,2*%
%TO.N,Net-(J2-Pad1)*%
X77597000Y-25273000D03*
%TD*%
D14*
%TO.P,U1,7*%
%TO.N,Net-(J2-Pad3)*%
X69721000Y-34544000D03*
%TO.P,U1,6*%
X69721000Y-37084000D03*
%TO.P,U1,8*%
%TO.N,VDD*%
X69721000Y-32004000D03*
%TO.P,U1,5*%
%TO.N,Net-(R4-Pad2)*%
X69721000Y-39624000D03*
D15*
%TO.P,U1,1*%
%TO.N,Net-(C1-Pad1)*%
X61851000Y-32004000D03*
D14*
%TO.P,U1,4*%
%TO.N,GND*%
X61851000Y-39624000D03*
%TO.P,U1,2*%
%TO.N,Net-(C1-Pad2)*%
X61851000Y-34544000D03*
%TO.P,U1,3*%
%TO.N,Net-(C2-Pad1)*%
X61851000Y-37084000D03*
%TD*%
D16*
%TO.P,R5,2*%
%TO.N,GND*%
X55118000Y-23876000D03*
D17*
%TO.P,R5,1*%
%TO.N,Net-(R4-Pad2)*%
X65278000Y-23876000D03*
%TD*%
D16*
%TO.P,R4,2*%
%TO.N,Net-(R4-Pad2)*%
X65278000Y-27178000D03*
D17*
%TO.P,R4,1*%
%TO.N,VDD*%
X55118000Y-27178000D03*
%TD*%
D16*
%TO.P,R3,2*%
%TO.N,Net-(J2-Pad1)*%
X72517000Y-24003000D03*
D17*
%TO.P,R3,1*%
%TO.N,VDD*%
X72517000Y-31623000D03*
%TD*%
D16*
%TO.P,R2,2*%
%TO.N,Net-(C2-Pad2)*%
X59944000Y-44196000D03*
D17*
%TO.P,R2,1*%
%TO.N,Net-(C2-Pad1)*%
X49784000Y-44196000D03*
%TD*%
D16*
%TO.P,R1,2*%
%TO.N,Net-(C1-Pad2)*%
X45212000Y-43434000D03*
D17*
%TO.P,R1,1*%
%TO.N,Net-(C1-Pad1)*%
X45212000Y-33274000D03*
%TD*%
%TO.P,C4,2*%
%TO.N,GND*%
X49752000Y-23876000D03*
D18*
%TO.P,C4,1*%
%TO.N,VDD*%
X47752000Y-23876000D03*
%TD*%
D17*
%TO.P,C3,2*%
%TO.N,GND*%
X50252000Y-28448000D03*
%TO.P,C3,1*%
%TO.N,VDD*%
X47752000Y-28448000D03*
%TD*%
%TO.P,C2,2*%
%TO.N,Net-(C2-Pad2)*%
X52538000Y-40640000D03*
%TO.P,C2,1*%
%TO.N,Net-(C2-Pad1)*%
X50038000Y-40640000D03*
%TD*%
%TO.P,C1,2*%
%TO.N,Net-(C1-Pad2)*%
X48768000Y-35774000D03*
%TO.P,C1,1*%
%TO.N,Net-(C1-Pad1)*%
X48768000Y-33274000D03*
%TD*%
D19*
%TO.N,Net-(C1-Pad2)*%
X48768000Y-35774000D02*
X50586000Y-35774000D01*
X51816000Y-34544000D02*
X61851000Y-34544000D01*
X50586000Y-35774000D02*
X51816000Y-34544000D01*
X45212000Y-43434000D02*
X46482000Y-43434000D01*
X46482000Y-43434000D02*
X47752000Y-42164000D01*
X47752000Y-36790000D02*
X48768000Y-35774000D01*
X47752000Y-42164000D02*
X47752000Y-36790000D01*
X66167000Y-42545000D02*
X67056000Y-43434000D01*
X66167000Y-36322000D02*
X66167000Y-42545000D01*
X64389000Y-34544000D02*
X66167000Y-36322000D01*
X61851000Y-34544000D02*
X64389000Y-34544000D01*
%TO.N,Net-(C1-Pad1)*%
X48768000Y-33274000D02*
X52324000Y-33274000D01*
X53594000Y-32004000D02*
X61851000Y-32004000D01*
X52324000Y-33274000D02*
X53594000Y-32004000D01*
X48768000Y-33274000D02*
X45212000Y-33274000D01*
X45212000Y-33274000D02*
X42926000Y-33274000D01*
X42926000Y-33274000D02*
X41910000Y-34290000D01*
X41910000Y-34290000D02*
X41910000Y-43688000D01*
X41148000Y-44450000D02*
X39370000Y-44450000D01*
X41910000Y-43688000D02*
X41148000Y-44450000D01*
%TO.N,Net-(C2-Pad2)*%
X59944000Y-44196000D02*
X59944000Y-42164000D01*
X58420000Y-40640000D02*
X52538000Y-40640000D01*
X59944000Y-42164000D02*
X58420000Y-40640000D01*
X59944000Y-44196000D02*
X61976000Y-46228000D01*
X61976000Y-46228000D02*
X73406000Y-46228000D01*
X73406000Y-46228000D02*
X74422000Y-45212000D01*
X74422000Y-45212000D02*
X74422000Y-38100000D01*
X75184000Y-37338000D02*
X76962000Y-37338000D01*
X74422000Y-38100000D02*
X75184000Y-37338000D01*
%TO.N,Net-(C2-Pad1)*%
X49784000Y-42418000D02*
X49784000Y-44196000D01*
X50038000Y-42164000D02*
X49784000Y-42418000D01*
X50038000Y-40640000D02*
X50038000Y-42164000D01*
X50038000Y-40640000D02*
X50038000Y-39370000D01*
X52324000Y-37084000D02*
X61851000Y-37084000D01*
X50038000Y-39370000D02*
X52324000Y-37084000D01*
X64516000Y-43434000D02*
X64516000Y-37846000D01*
X63754000Y-37084000D02*
X61851000Y-37084000D01*
X64516000Y-37846000D02*
X63754000Y-37084000D01*
%TO.N,VDD*%
X47752000Y-23876000D02*
X47752000Y-28448000D01*
X47752000Y-28448000D02*
X47752000Y-29972000D01*
X47752000Y-29972000D02*
X48514000Y-30734000D01*
X48514000Y-30734000D02*
X54356000Y-30734000D01*
X55118000Y-29972000D02*
X55118000Y-27178000D01*
X54356000Y-30734000D02*
X55118000Y-29972000D01*
X69850000Y-23241000D02*
X71882000Y-21209000D01*
X72517000Y-29464000D02*
X69850000Y-26797000D01*
X69850000Y-26797000D02*
X69850000Y-23241000D01*
X72517000Y-31623000D02*
X72517000Y-29464000D01*
X55118000Y-27178000D02*
X58039000Y-27178000D01*
X58039000Y-27178000D02*
X60452000Y-24765000D01*
X60452000Y-24765000D02*
X60452000Y-22225000D01*
X61468000Y-21209000D02*
X71882000Y-21209000D01*
X60452000Y-22225000D02*
X61468000Y-21209000D01*
X70102000Y-31623000D02*
X69721000Y-32004000D01*
X72517000Y-31623000D02*
X70102000Y-31623000D01*
X78994000Y-21209000D02*
X71882000Y-21209000D01*
X81534000Y-23749000D02*
X78994000Y-21209000D01*
X81534000Y-39243000D02*
X81534000Y-23749000D01*
X77216000Y-43561000D02*
X81534000Y-39243000D01*
X77216000Y-43561000D02*
X77216000Y-45339000D01*
%TO.N,Net-(R4-Pad2)*%
X69721000Y-39624000D02*
X68580000Y-39624000D01*
X68580000Y-39624000D02*
X67818000Y-38862000D01*
X67818000Y-38862000D02*
X67818000Y-33782000D01*
X65278000Y-31242000D02*
X65278000Y-27178000D01*
X67818000Y-33782000D02*
X65278000Y-31242000D01*
X65278000Y-27178000D02*
X65278000Y-23876000D01*
%TO.N,Net-(J6-Pad7)*%
X82296000Y-45339000D02*
X82296000Y-42799000D01*
X82296000Y-42799000D02*
X83439000Y-41656000D01*
X83439000Y-31877000D02*
X86106000Y-29210000D01*
X83439000Y-41656000D02*
X83439000Y-31877000D01*
%TO.N,Net-(J2-Pad3)*%
X69850000Y-34544000D02*
X70104000Y-34798000D01*
X69721000Y-34544000D02*
X69850000Y-34544000D01*
X76962000Y-34798000D02*
X70104000Y-34798000D01*
X69721000Y-34544000D02*
X69721000Y-37084000D01*
%TO.N,Net-(J2-Pad1)*%
X76962000Y-39878000D02*
X76835000Y-40005000D01*
X76835000Y-40005000D02*
X77216000Y-39624000D01*
X76962000Y-39878000D02*
X78994000Y-39878000D01*
X78994000Y-39878000D02*
X79756000Y-39116000D01*
X79756000Y-39116000D02*
X79756000Y-33401000D01*
X79756000Y-33401000D02*
X76581000Y-30226000D01*
X72517000Y-26162000D02*
X76581000Y-30226000D01*
X72517000Y-24003000D02*
X72517000Y-26162000D01*
X77597000Y-24638000D02*
X77597000Y-25273000D01*
X77597000Y-25273000D02*
X77597000Y-23622000D01*
X77597000Y-23622000D02*
X77216000Y-23241000D01*
X73279000Y-23241000D02*
X72517000Y-24003000D01*
X77216000Y-23241000D02*
X73279000Y-23241000D01*
%TD*%
M02*
