%FSLAX45Y45*%
G04 Gerber Fmt 4.5, Leading zero omitted, Abs format (unit mm)*
G04 Created by KiCad (PCBNEW (5.1.7)-1) date 2020-12-07 21:27:42*
%MOMM*%
%LPD*%
G01*
G04 APERTURE LIST*
%TA.AperFunction,Profile*%
%ADD10C,0.100000*%
%TD*%
%ADD11C,0.200000*%
%ADD12C,0.300000*%
G04 APERTURE END LIST*
D10*
X8890000Y-4826000D02*
X3556000Y-4826000D01*
X3556000Y-4826000D02*
X3556000Y-1778000D01*
X3556000Y-1778000D02*
X8890000Y-1778000D01*
X8890000Y-1778000D02*
X8890000Y-4826000D01*
D11*
D12*
X3837428Y-5296714D02*
X3837428Y-4996714D01*
X3908857Y-4996714D01*
X3951714Y-5011000D01*
X3980286Y-5039572D01*
X3994571Y-5068143D01*
X4008857Y-5125286D01*
X4008857Y-5168143D01*
X3994571Y-5225286D01*
X3980286Y-5253857D01*
X3951714Y-5282429D01*
X3908857Y-5296714D01*
X3837428Y-5296714D01*
X4137428Y-5296714D02*
X4137428Y-5096714D01*
X4137428Y-5153857D02*
X4151714Y-5125286D01*
X4166000Y-5111000D01*
X4194571Y-5096714D01*
X4223143Y-5096714D01*
X4323143Y-5296714D02*
X4323143Y-5096714D01*
X4323143Y-4996714D02*
X4308857Y-5011000D01*
X4323143Y-5025286D01*
X4337428Y-5011000D01*
X4323143Y-4996714D01*
X4323143Y-5025286D01*
X4508857Y-5296714D02*
X4480286Y-5282429D01*
X4466000Y-5253857D01*
X4466000Y-4996714D01*
X4666000Y-5296714D02*
X4637428Y-5282429D01*
X4623143Y-5253857D01*
X4623143Y-4996714D01*
X5008857Y-5296714D02*
X5008857Y-4996714D01*
X5108857Y-5211000D01*
X5208857Y-4996714D01*
X5208857Y-5296714D01*
X5480286Y-5296714D02*
X5480286Y-5139572D01*
X5466000Y-5111000D01*
X5437428Y-5096714D01*
X5380286Y-5096714D01*
X5351714Y-5111000D01*
X5480286Y-5282429D02*
X5451714Y-5296714D01*
X5380286Y-5296714D01*
X5351714Y-5282429D01*
X5337428Y-5253857D01*
X5337428Y-5225286D01*
X5351714Y-5196714D01*
X5380286Y-5182429D01*
X5451714Y-5182429D01*
X5480286Y-5168143D01*
X5623143Y-5096714D02*
X5623143Y-5396714D01*
X5623143Y-5111000D02*
X5651714Y-5096714D01*
X5708857Y-5096714D01*
X5737428Y-5111000D01*
X5751714Y-5125286D01*
X5766000Y-5153857D01*
X5766000Y-5239572D01*
X5751714Y-5268143D01*
X5737428Y-5282429D01*
X5708857Y-5296714D01*
X5651714Y-5296714D01*
X5623143Y-5282429D01*
X5894571Y-5268143D02*
X5908857Y-5282429D01*
X5894571Y-5296714D01*
X5880286Y-5282429D01*
X5894571Y-5268143D01*
X5894571Y-5296714D01*
X5894571Y-5111000D02*
X5908857Y-5125286D01*
X5894571Y-5139572D01*
X5880286Y-5125286D01*
X5894571Y-5111000D01*
X5894571Y-5139572D01*
M02*
