M48
; DRILL file {KiCad (5.1.7)-1} date 12/07/20 21:27:40
; FORMAT={-:-/ absolute / inch / decimal}
; #@! TF.CreationDate,2020-12-07T21:27:40+00:00
; #@! TF.GenerationSoftware,Kicad,Pcbnew,(5.1.7)-1
; #@! TF.FileFunction,Plated,1,2,PTH
FMAT,2
INCH
T1C0.0295
T2C0.0315
T3C0.0394
%
G90
G05
T1
X3.005Y-0.995
X3.055Y-0.995
X3.105Y-0.995
T2
X1.88Y-1.12
X1.9784Y-1.12
X1.78Y-1.31
X1.78Y-1.71
X1.96Y-1.74
X2.36Y-1.74
X2.4351Y-1.26
X2.4351Y-1.36
X2.4351Y-1.46
X2.4351Y-1.56
X2.7449Y-1.26
X2.7449Y-1.36
X2.7449Y-1.46
X2.7449Y-1.56
X2.855Y-0.945
X2.855Y-1.245
X1.92Y-1.31
X1.92Y-1.4084
X2.17Y-1.07
X2.57Y-1.07
X1.88Y-0.94
X1.9587Y-0.94
X2.17Y-0.94
X2.57Y-0.94
X1.97Y-1.6
X2.0684Y-1.6
T3
X1.55Y-0.85
X1.55Y-0.95
X1.55Y-1.05
X1.55Y-1.15
X1.55Y-1.25
X1.55Y-1.35
X1.55Y-1.45
X1.55Y-1.55
X1.55Y-1.65
X1.55Y-1.75
X3.39Y-0.85
X3.39Y-0.95
X3.39Y-1.05
X3.39Y-1.15
X3.39Y-1.25
X3.39Y-1.35
X3.39Y-1.45
X3.39Y-1.55
X3.39Y-1.65
X3.39Y-1.75
X3.03Y-1.37
X3.03Y-1.47
X3.03Y-1.57
X3.04Y-1.785
X3.14Y-1.785
X3.24Y-1.785
X2.54Y-1.71
X2.64Y-1.71
T0
M30
