%TF.GenerationSoftware,KiCad,Pcbnew,(5.1.7)-1*%
%TF.CreationDate,2020-12-07T21:27:36+00:00*%
%TF.ProjectId,PiezzCircuit,5069657a-7a43-4697-9263-7569742e6b69,rev?*%
%TF.SameCoordinates,Original*%
%TF.FileFunction,Copper,L2,Bot*%
%TF.FilePolarity,Positive*%
%FSLAX46Y46*%
G04 Gerber Fmt 4.6, Leading zero omitted, Abs format (unit mm)*
G04 Created by KiCad (PCBNEW (5.1.7)-1) date 2020-12-07 21:27:36*
%MOMM*%
%LPD*%
G01*
G04 APERTURE LIST*
%TA.AperFunction,ComponentPad*%
%ADD10O,1.700000X1.700000*%
%TD*%
%TA.AperFunction,ComponentPad*%
%ADD11R,1.700000X1.700000*%
%TD*%
%TA.AperFunction,ComponentPad*%
%ADD12R,1.050000X1.500000*%
%TD*%
%TA.AperFunction,ComponentPad*%
%ADD13O,1.050000X1.500000*%
%TD*%
%TA.AperFunction,ComponentPad*%
%ADD14C,1.308000*%
%TD*%
%TA.AperFunction,ComponentPad*%
%ADD15R,1.308000X1.308000*%
%TD*%
%TA.AperFunction,ComponentPad*%
%ADD16O,1.600000X1.600000*%
%TD*%
%TA.AperFunction,ComponentPad*%
%ADD17C,1.600000*%
%TD*%
%TA.AperFunction,ComponentPad*%
%ADD18R,1.600000X1.600000*%
%TD*%
%TA.AperFunction,Conductor*%
%ADD19C,0.254000*%
%TD*%
%TA.AperFunction,Conductor*%
%ADD20C,0.100000*%
%TD*%
G04 APERTURE END LIST*
D10*
%TO.P,J6,10*%
%TO.N,GND*%
X86106000Y-21590000D03*
%TO.P,J6,9*%
%TO.N,Net-(J6-Pad9)*%
X86106000Y-24130000D03*
%TO.P,J6,8*%
%TO.N,Net-(J6-Pad8)*%
X86106000Y-26670000D03*
%TO.P,J6,7*%
%TO.N,Net-(J6-Pad7)*%
X86106000Y-29210000D03*
%TO.P,J6,6*%
%TO.N,Net-(J6-Pad6)*%
X86106000Y-31750000D03*
%TO.P,J6,5*%
%TO.N,Net-(J6-Pad5)*%
X86106000Y-34290000D03*
%TO.P,J6,4*%
%TO.N,Net-(J6-Pad4)*%
X86106000Y-36830000D03*
%TO.P,J6,3*%
%TO.N,Net-(J6-Pad3)*%
X86106000Y-39370000D03*
%TO.P,J6,2*%
%TO.N,Net-(J6-Pad2)*%
X86106000Y-41910000D03*
D11*
%TO.P,J6,1*%
%TO.N,Net-(J6-Pad1)*%
X86106000Y-44450000D03*
%TD*%
D10*
%TO.P,J7,3*%
%TO.N,VDD*%
X77216000Y-45339000D03*
%TO.P,J7,2*%
%TO.N,GND*%
X79756000Y-45339000D03*
D11*
%TO.P,J7,1*%
%TO.N,Net-(J6-Pad7)*%
X82296000Y-45339000D03*
%TD*%
D10*
%TO.P,J2,3*%
%TO.N,Net-(J2-Pad3)*%
X76962000Y-34798000D03*
%TO.P,J2,2*%
%TO.N,Net-(C2-Pad2)*%
X76962000Y-37338000D03*
D11*
%TO.P,J2,1*%
%TO.N,Net-(J2-Pad1)*%
X76962000Y-39878000D03*
%TD*%
D10*
%TO.P,J1,2*%
%TO.N,Net-(C2-Pad1)*%
X64516000Y-43434000D03*
D11*
%TO.P,J1,1*%
%TO.N,Net-(C1-Pad2)*%
X67056000Y-43434000D03*
%TD*%
%TO.P,J3,1*%
%TO.N,Net-(C1-Pad1)*%
X39370000Y-44450000D03*
D10*
%TO.P,J3,2*%
%TO.N,Net-(J3-Pad2)*%
X39370000Y-41910000D03*
%TO.P,J3,3*%
%TO.N,Net-(J3-Pad3)*%
X39370000Y-39370000D03*
%TO.P,J3,4*%
%TO.N,Net-(J3-Pad4)*%
X39370000Y-36830000D03*
%TO.P,J3,5*%
%TO.N,Net-(J3-Pad5)*%
X39370000Y-34290000D03*
%TO.P,J3,6*%
%TO.N,Net-(J3-Pad6)*%
X39370000Y-31750000D03*
%TO.P,J3,7*%
%TO.N,Net-(J3-Pad7)*%
X39370000Y-29210000D03*
%TO.P,J3,8*%
%TO.N,Net-(J3-Pad8)*%
X39370000Y-26670000D03*
%TO.P,J3,9*%
%TO.N,Net-(J3-Pad9)*%
X39370000Y-24130000D03*
%TO.P,J3,10*%
%TO.N,Net-(J3-Pad10)*%
X39370000Y-21590000D03*
%TD*%
D12*
%TO.P,U2,1*%
%TO.N,N/C*%
X78867000Y-25273000D03*
D13*
%TO.P,U2,3*%
%TO.N,GND*%
X76327000Y-25273000D03*
%TO.P,U2,2*%
%TO.N,Net-(J2-Pad1)*%
X77597000Y-25273000D03*
%TD*%
D14*
%TO.P,U1,7*%
%TO.N,Net-(J2-Pad3)*%
X69721000Y-34544000D03*
%TO.P,U1,6*%
X69721000Y-37084000D03*
%TO.P,U1,8*%
%TO.N,VDD*%
X69721000Y-32004000D03*
%TO.P,U1,5*%
%TO.N,Net-(R4-Pad2)*%
X69721000Y-39624000D03*
D15*
%TO.P,U1,1*%
%TO.N,Net-(C1-Pad1)*%
X61851000Y-32004000D03*
D14*
%TO.P,U1,4*%
%TO.N,GND*%
X61851000Y-39624000D03*
%TO.P,U1,2*%
%TO.N,Net-(C1-Pad2)*%
X61851000Y-34544000D03*
%TO.P,U1,3*%
%TO.N,Net-(C2-Pad1)*%
X61851000Y-37084000D03*
%TD*%
D16*
%TO.P,R5,2*%
%TO.N,GND*%
X55118000Y-23876000D03*
D17*
%TO.P,R5,1*%
%TO.N,Net-(R4-Pad2)*%
X65278000Y-23876000D03*
%TD*%
D16*
%TO.P,R4,2*%
%TO.N,Net-(R4-Pad2)*%
X65278000Y-27178000D03*
D17*
%TO.P,R4,1*%
%TO.N,VDD*%
X55118000Y-27178000D03*
%TD*%
D16*
%TO.P,R3,2*%
%TO.N,Net-(J2-Pad1)*%
X72517000Y-24003000D03*
D17*
%TO.P,R3,1*%
%TO.N,VDD*%
X72517000Y-31623000D03*
%TD*%
D16*
%TO.P,R2,2*%
%TO.N,Net-(C2-Pad2)*%
X59944000Y-44196000D03*
D17*
%TO.P,R2,1*%
%TO.N,Net-(C2-Pad1)*%
X49784000Y-44196000D03*
%TD*%
D16*
%TO.P,R1,2*%
%TO.N,Net-(C1-Pad2)*%
X45212000Y-43434000D03*
D17*
%TO.P,R1,1*%
%TO.N,Net-(C1-Pad1)*%
X45212000Y-33274000D03*
%TD*%
%TO.P,C4,2*%
%TO.N,GND*%
X49752000Y-23876000D03*
D18*
%TO.P,C4,1*%
%TO.N,VDD*%
X47752000Y-23876000D03*
%TD*%
D17*
%TO.P,C3,2*%
%TO.N,GND*%
X50252000Y-28448000D03*
%TO.P,C3,1*%
%TO.N,VDD*%
X47752000Y-28448000D03*
%TD*%
%TO.P,C2,2*%
%TO.N,Net-(C2-Pad2)*%
X52538000Y-40640000D03*
%TO.P,C2,1*%
%TO.N,Net-(C2-Pad1)*%
X50038000Y-40640000D03*
%TD*%
%TO.P,C1,2*%
%TO.N,Net-(C1-Pad2)*%
X48768000Y-35774000D03*
%TO.P,C1,1*%
%TO.N,Net-(C1-Pad1)*%
X48768000Y-33274000D03*
%TD*%
D19*
%TO.N,GND*%
X88011000Y-47575000D02*
X36449000Y-47575000D01*
X36449000Y-43600000D01*
X37881928Y-43600000D01*
X37881928Y-45300000D01*
X37894188Y-45424482D01*
X37930498Y-45544180D01*
X37989463Y-45654494D01*
X38068815Y-45751185D01*
X38165506Y-45830537D01*
X38275820Y-45889502D01*
X38395518Y-45925812D01*
X38520000Y-45938072D01*
X40220000Y-45938072D01*
X40344482Y-45925812D01*
X40464180Y-45889502D01*
X40574494Y-45830537D01*
X40671185Y-45751185D01*
X40750537Y-45654494D01*
X40809502Y-45544180D01*
X40845812Y-45424482D01*
X40858072Y-45300000D01*
X40858072Y-43600000D01*
X40845812Y-43475518D01*
X40809502Y-43355820D01*
X40775745Y-43292665D01*
X43777000Y-43292665D01*
X43777000Y-43575335D01*
X43832147Y-43852574D01*
X43940320Y-44113727D01*
X44097363Y-44348759D01*
X44297241Y-44548637D01*
X44532273Y-44705680D01*
X44793426Y-44813853D01*
X45070665Y-44869000D01*
X45353335Y-44869000D01*
X45630574Y-44813853D01*
X45891727Y-44705680D01*
X46126759Y-44548637D01*
X46326637Y-44348759D01*
X46483680Y-44113727D01*
X46508144Y-44054665D01*
X48349000Y-44054665D01*
X48349000Y-44337335D01*
X48404147Y-44614574D01*
X48512320Y-44875727D01*
X48669363Y-45110759D01*
X48869241Y-45310637D01*
X49104273Y-45467680D01*
X49365426Y-45575853D01*
X49642665Y-45631000D01*
X49925335Y-45631000D01*
X50202574Y-45575853D01*
X50463727Y-45467680D01*
X50698759Y-45310637D01*
X50898637Y-45110759D01*
X51055680Y-44875727D01*
X51163853Y-44614574D01*
X51219000Y-44337335D01*
X51219000Y-44054665D01*
X58509000Y-44054665D01*
X58509000Y-44337335D01*
X58564147Y-44614574D01*
X58672320Y-44875727D01*
X58829363Y-45110759D01*
X59029241Y-45310637D01*
X59264273Y-45467680D01*
X59525426Y-45575853D01*
X59802665Y-45631000D01*
X60085335Y-45631000D01*
X60362574Y-45575853D01*
X60623727Y-45467680D01*
X60858759Y-45310637D01*
X60976656Y-45192740D01*
X75731000Y-45192740D01*
X75731000Y-45485260D01*
X75788068Y-45772158D01*
X75900010Y-46042411D01*
X76062525Y-46285632D01*
X76269368Y-46492475D01*
X76512589Y-46654990D01*
X76782842Y-46766932D01*
X77069740Y-46824000D01*
X77362260Y-46824000D01*
X77649158Y-46766932D01*
X77919411Y-46654990D01*
X78162632Y-46492475D01*
X78369475Y-46285632D01*
X78491195Y-46103466D01*
X78560822Y-46220355D01*
X78755731Y-46436588D01*
X78989080Y-46610641D01*
X79251901Y-46735825D01*
X79399110Y-46780476D01*
X79629000Y-46659155D01*
X79629000Y-45466000D01*
X79609000Y-45466000D01*
X79609000Y-45212000D01*
X79629000Y-45212000D01*
X79629000Y-44018845D01*
X79883000Y-44018845D01*
X79883000Y-45212000D01*
X79903000Y-45212000D01*
X79903000Y-45466000D01*
X79883000Y-45466000D01*
X79883000Y-46659155D01*
X80112890Y-46780476D01*
X80260099Y-46735825D01*
X80522920Y-46610641D01*
X80756269Y-46436588D01*
X80832034Y-46352534D01*
X80856498Y-46433180D01*
X80915463Y-46543494D01*
X80994815Y-46640185D01*
X81091506Y-46719537D01*
X81201820Y-46778502D01*
X81321518Y-46814812D01*
X81446000Y-46827072D01*
X83146000Y-46827072D01*
X83270482Y-46814812D01*
X83390180Y-46778502D01*
X83500494Y-46719537D01*
X83597185Y-46640185D01*
X83676537Y-46543494D01*
X83735502Y-46433180D01*
X83771812Y-46313482D01*
X83784072Y-46189000D01*
X83784072Y-44489000D01*
X83771812Y-44364518D01*
X83735502Y-44244820D01*
X83676537Y-44134506D01*
X83597185Y-44037815D01*
X83500494Y-43958463D01*
X83390180Y-43899498D01*
X83270482Y-43863188D01*
X83146000Y-43850928D01*
X81446000Y-43850928D01*
X81321518Y-43863188D01*
X81201820Y-43899498D01*
X81091506Y-43958463D01*
X80994815Y-44037815D01*
X80915463Y-44134506D01*
X80856498Y-44244820D01*
X80832034Y-44325466D01*
X80756269Y-44241412D01*
X80522920Y-44067359D01*
X80260099Y-43942175D01*
X80112890Y-43897524D01*
X79883000Y-44018845D01*
X79629000Y-44018845D01*
X79399110Y-43897524D01*
X79251901Y-43942175D01*
X78989080Y-44067359D01*
X78755731Y-44241412D01*
X78560822Y-44457645D01*
X78491195Y-44574534D01*
X78369475Y-44392368D01*
X78162632Y-44185525D01*
X77919411Y-44023010D01*
X77649158Y-43911068D01*
X77362260Y-43854000D01*
X77069740Y-43854000D01*
X76782842Y-43911068D01*
X76512589Y-44023010D01*
X76269368Y-44185525D01*
X76062525Y-44392368D01*
X75900010Y-44635589D01*
X75788068Y-44905842D01*
X75731000Y-45192740D01*
X60976656Y-45192740D01*
X61058637Y-45110759D01*
X61215680Y-44875727D01*
X61323853Y-44614574D01*
X61379000Y-44337335D01*
X61379000Y-44054665D01*
X61323853Y-43777426D01*
X61215680Y-43516273D01*
X61062980Y-43287740D01*
X63031000Y-43287740D01*
X63031000Y-43580260D01*
X63088068Y-43867158D01*
X63200010Y-44137411D01*
X63362525Y-44380632D01*
X63569368Y-44587475D01*
X63812589Y-44749990D01*
X64082842Y-44861932D01*
X64369740Y-44919000D01*
X64662260Y-44919000D01*
X64949158Y-44861932D01*
X65219411Y-44749990D01*
X65462632Y-44587475D01*
X65594487Y-44455620D01*
X65616498Y-44528180D01*
X65675463Y-44638494D01*
X65754815Y-44735185D01*
X65851506Y-44814537D01*
X65961820Y-44873502D01*
X66081518Y-44909812D01*
X66206000Y-44922072D01*
X67906000Y-44922072D01*
X68030482Y-44909812D01*
X68150180Y-44873502D01*
X68260494Y-44814537D01*
X68357185Y-44735185D01*
X68436537Y-44638494D01*
X68495502Y-44528180D01*
X68531812Y-44408482D01*
X68544072Y-44284000D01*
X68544072Y-43600000D01*
X84617928Y-43600000D01*
X84617928Y-45300000D01*
X84630188Y-45424482D01*
X84666498Y-45544180D01*
X84725463Y-45654494D01*
X84804815Y-45751185D01*
X84901506Y-45830537D01*
X85011820Y-45889502D01*
X85131518Y-45925812D01*
X85256000Y-45938072D01*
X86956000Y-45938072D01*
X87080482Y-45925812D01*
X87200180Y-45889502D01*
X87310494Y-45830537D01*
X87407185Y-45751185D01*
X87486537Y-45654494D01*
X87545502Y-45544180D01*
X87581812Y-45424482D01*
X87594072Y-45300000D01*
X87594072Y-43600000D01*
X87581812Y-43475518D01*
X87545502Y-43355820D01*
X87486537Y-43245506D01*
X87407185Y-43148815D01*
X87310494Y-43069463D01*
X87200180Y-43010498D01*
X87127620Y-42988487D01*
X87259475Y-42856632D01*
X87421990Y-42613411D01*
X87533932Y-42343158D01*
X87591000Y-42056260D01*
X87591000Y-41763740D01*
X87533932Y-41476842D01*
X87421990Y-41206589D01*
X87259475Y-40963368D01*
X87052632Y-40756525D01*
X86878240Y-40640000D01*
X87052632Y-40523475D01*
X87259475Y-40316632D01*
X87421990Y-40073411D01*
X87533932Y-39803158D01*
X87591000Y-39516260D01*
X87591000Y-39223740D01*
X87533932Y-38936842D01*
X87421990Y-38666589D01*
X87259475Y-38423368D01*
X87052632Y-38216525D01*
X86878240Y-38100000D01*
X87052632Y-37983475D01*
X87259475Y-37776632D01*
X87421990Y-37533411D01*
X87533932Y-37263158D01*
X87591000Y-36976260D01*
X87591000Y-36683740D01*
X87533932Y-36396842D01*
X87421990Y-36126589D01*
X87259475Y-35883368D01*
X87052632Y-35676525D01*
X86878240Y-35560000D01*
X87052632Y-35443475D01*
X87259475Y-35236632D01*
X87421990Y-34993411D01*
X87533932Y-34723158D01*
X87591000Y-34436260D01*
X87591000Y-34143740D01*
X87533932Y-33856842D01*
X87421990Y-33586589D01*
X87259475Y-33343368D01*
X87052632Y-33136525D01*
X86878240Y-33020000D01*
X87052632Y-32903475D01*
X87259475Y-32696632D01*
X87421990Y-32453411D01*
X87533932Y-32183158D01*
X87591000Y-31896260D01*
X87591000Y-31603740D01*
X87533932Y-31316842D01*
X87421990Y-31046589D01*
X87259475Y-30803368D01*
X87052632Y-30596525D01*
X86878240Y-30480000D01*
X87052632Y-30363475D01*
X87259475Y-30156632D01*
X87421990Y-29913411D01*
X87533932Y-29643158D01*
X87591000Y-29356260D01*
X87591000Y-29063740D01*
X87533932Y-28776842D01*
X87421990Y-28506589D01*
X87259475Y-28263368D01*
X87052632Y-28056525D01*
X86878240Y-27940000D01*
X87052632Y-27823475D01*
X87259475Y-27616632D01*
X87421990Y-27373411D01*
X87533932Y-27103158D01*
X87591000Y-26816260D01*
X87591000Y-26523740D01*
X87533932Y-26236842D01*
X87421990Y-25966589D01*
X87259475Y-25723368D01*
X87052632Y-25516525D01*
X86878240Y-25400000D01*
X87052632Y-25283475D01*
X87259475Y-25076632D01*
X87421990Y-24833411D01*
X87533932Y-24563158D01*
X87591000Y-24276260D01*
X87591000Y-23983740D01*
X87533932Y-23696842D01*
X87421990Y-23426589D01*
X87259475Y-23183368D01*
X87052632Y-22976525D01*
X86870466Y-22854805D01*
X86987355Y-22785178D01*
X87203588Y-22590269D01*
X87377641Y-22356920D01*
X87502825Y-22094099D01*
X87547476Y-21946890D01*
X87426155Y-21717000D01*
X86233000Y-21717000D01*
X86233000Y-21737000D01*
X85979000Y-21737000D01*
X85979000Y-21717000D01*
X84785845Y-21717000D01*
X84664524Y-21946890D01*
X84709175Y-22094099D01*
X84834359Y-22356920D01*
X85008412Y-22590269D01*
X85224645Y-22785178D01*
X85341534Y-22854805D01*
X85159368Y-22976525D01*
X84952525Y-23183368D01*
X84790010Y-23426589D01*
X84678068Y-23696842D01*
X84621000Y-23983740D01*
X84621000Y-24276260D01*
X84678068Y-24563158D01*
X84790010Y-24833411D01*
X84952525Y-25076632D01*
X85159368Y-25283475D01*
X85333760Y-25400000D01*
X85159368Y-25516525D01*
X84952525Y-25723368D01*
X84790010Y-25966589D01*
X84678068Y-26236842D01*
X84621000Y-26523740D01*
X84621000Y-26816260D01*
X84678068Y-27103158D01*
X84790010Y-27373411D01*
X84952525Y-27616632D01*
X85159368Y-27823475D01*
X85333760Y-27940000D01*
X85159368Y-28056525D01*
X84952525Y-28263368D01*
X84790010Y-28506589D01*
X84678068Y-28776842D01*
X84621000Y-29063740D01*
X84621000Y-29356260D01*
X84678068Y-29643158D01*
X84790010Y-29913411D01*
X84952525Y-30156632D01*
X85159368Y-30363475D01*
X85333760Y-30480000D01*
X85159368Y-30596525D01*
X84952525Y-30803368D01*
X84790010Y-31046589D01*
X84678068Y-31316842D01*
X84621000Y-31603740D01*
X84621000Y-31896260D01*
X84678068Y-32183158D01*
X84790010Y-32453411D01*
X84952525Y-32696632D01*
X85159368Y-32903475D01*
X85333760Y-33020000D01*
X85159368Y-33136525D01*
X84952525Y-33343368D01*
X84790010Y-33586589D01*
X84678068Y-33856842D01*
X84621000Y-34143740D01*
X84621000Y-34436260D01*
X84678068Y-34723158D01*
X84790010Y-34993411D01*
X84952525Y-35236632D01*
X85159368Y-35443475D01*
X85333760Y-35560000D01*
X85159368Y-35676525D01*
X84952525Y-35883368D01*
X84790010Y-36126589D01*
X84678068Y-36396842D01*
X84621000Y-36683740D01*
X84621000Y-36976260D01*
X84678068Y-37263158D01*
X84790010Y-37533411D01*
X84952525Y-37776632D01*
X85159368Y-37983475D01*
X85333760Y-38100000D01*
X85159368Y-38216525D01*
X84952525Y-38423368D01*
X84790010Y-38666589D01*
X84678068Y-38936842D01*
X84621000Y-39223740D01*
X84621000Y-39516260D01*
X84678068Y-39803158D01*
X84790010Y-40073411D01*
X84952525Y-40316632D01*
X85159368Y-40523475D01*
X85333760Y-40640000D01*
X85159368Y-40756525D01*
X84952525Y-40963368D01*
X84790010Y-41206589D01*
X84678068Y-41476842D01*
X84621000Y-41763740D01*
X84621000Y-42056260D01*
X84678068Y-42343158D01*
X84790010Y-42613411D01*
X84952525Y-42856632D01*
X85084380Y-42988487D01*
X85011820Y-43010498D01*
X84901506Y-43069463D01*
X84804815Y-43148815D01*
X84725463Y-43245506D01*
X84666498Y-43355820D01*
X84630188Y-43475518D01*
X84617928Y-43600000D01*
X68544072Y-43600000D01*
X68544072Y-42584000D01*
X68531812Y-42459518D01*
X68495502Y-42339820D01*
X68436537Y-42229506D01*
X68357185Y-42132815D01*
X68260494Y-42053463D01*
X68150180Y-41994498D01*
X68030482Y-41958188D01*
X67906000Y-41945928D01*
X66206000Y-41945928D01*
X66081518Y-41958188D01*
X65961820Y-41994498D01*
X65851506Y-42053463D01*
X65754815Y-42132815D01*
X65675463Y-42229506D01*
X65616498Y-42339820D01*
X65594487Y-42412380D01*
X65462632Y-42280525D01*
X65219411Y-42118010D01*
X64949158Y-42006068D01*
X64662260Y-41949000D01*
X64369740Y-41949000D01*
X64082842Y-42006068D01*
X63812589Y-42118010D01*
X63569368Y-42280525D01*
X63362525Y-42487368D01*
X63200010Y-42730589D01*
X63088068Y-43000842D01*
X63031000Y-43287740D01*
X61062980Y-43287740D01*
X61058637Y-43281241D01*
X60858759Y-43081363D01*
X60623727Y-42924320D01*
X60362574Y-42816147D01*
X60085335Y-42761000D01*
X59802665Y-42761000D01*
X59525426Y-42816147D01*
X59264273Y-42924320D01*
X59029241Y-43081363D01*
X58829363Y-43281241D01*
X58672320Y-43516273D01*
X58564147Y-43777426D01*
X58509000Y-44054665D01*
X51219000Y-44054665D01*
X51163853Y-43777426D01*
X51055680Y-43516273D01*
X50898637Y-43281241D01*
X50698759Y-43081363D01*
X50463727Y-42924320D01*
X50202574Y-42816147D01*
X49925335Y-42761000D01*
X49642665Y-42761000D01*
X49365426Y-42816147D01*
X49104273Y-42924320D01*
X48869241Y-43081363D01*
X48669363Y-43281241D01*
X48512320Y-43516273D01*
X48404147Y-43777426D01*
X48349000Y-44054665D01*
X46508144Y-44054665D01*
X46591853Y-43852574D01*
X46647000Y-43575335D01*
X46647000Y-43292665D01*
X46591853Y-43015426D01*
X46483680Y-42754273D01*
X46326637Y-42519241D01*
X46126759Y-42319363D01*
X45891727Y-42162320D01*
X45630574Y-42054147D01*
X45353335Y-41999000D01*
X45070665Y-41999000D01*
X44793426Y-42054147D01*
X44532273Y-42162320D01*
X44297241Y-42319363D01*
X44097363Y-42519241D01*
X43940320Y-42754273D01*
X43832147Y-43015426D01*
X43777000Y-43292665D01*
X40775745Y-43292665D01*
X40750537Y-43245506D01*
X40671185Y-43148815D01*
X40574494Y-43069463D01*
X40464180Y-43010498D01*
X40391620Y-42988487D01*
X40523475Y-42856632D01*
X40685990Y-42613411D01*
X40797932Y-42343158D01*
X40855000Y-42056260D01*
X40855000Y-41763740D01*
X40797932Y-41476842D01*
X40685990Y-41206589D01*
X40523475Y-40963368D01*
X40316632Y-40756525D01*
X40142240Y-40640000D01*
X40316632Y-40523475D01*
X40341442Y-40498665D01*
X48603000Y-40498665D01*
X48603000Y-40781335D01*
X48658147Y-41058574D01*
X48766320Y-41319727D01*
X48923363Y-41554759D01*
X49123241Y-41754637D01*
X49358273Y-41911680D01*
X49619426Y-42019853D01*
X49896665Y-42075000D01*
X50179335Y-42075000D01*
X50456574Y-42019853D01*
X50717727Y-41911680D01*
X50952759Y-41754637D01*
X51152637Y-41554759D01*
X51288000Y-41352173D01*
X51423363Y-41554759D01*
X51623241Y-41754637D01*
X51858273Y-41911680D01*
X52119426Y-42019853D01*
X52396665Y-42075000D01*
X52679335Y-42075000D01*
X52956574Y-42019853D01*
X53217727Y-41911680D01*
X53452759Y-41754637D01*
X53652637Y-41554759D01*
X53809680Y-41319727D01*
X53917853Y-41058574D01*
X53973000Y-40781335D01*
X53973000Y-40512387D01*
X61142218Y-40512387D01*
X61196093Y-40741468D01*
X61426684Y-40847763D01*
X61673581Y-40907028D01*
X61927296Y-40916988D01*
X62178079Y-40877259D01*
X62416293Y-40789368D01*
X62505907Y-40741468D01*
X62559782Y-40512387D01*
X61851000Y-39803605D01*
X61142218Y-40512387D01*
X53973000Y-40512387D01*
X53973000Y-40498665D01*
X53917853Y-40221426D01*
X53809680Y-39960273D01*
X53652637Y-39725241D01*
X53627692Y-39700296D01*
X60558012Y-39700296D01*
X60597741Y-39951079D01*
X60685632Y-40189293D01*
X60733532Y-40278907D01*
X60962613Y-40332782D01*
X61671395Y-39624000D01*
X62030605Y-39624000D01*
X62739387Y-40332782D01*
X62968468Y-40278907D01*
X63074763Y-40048316D01*
X63134028Y-39801419D01*
X63143988Y-39547704D01*
X63104259Y-39296921D01*
X63016368Y-39058707D01*
X62968468Y-38969093D01*
X62739387Y-38915218D01*
X62030605Y-39624000D01*
X61671395Y-39624000D01*
X60962613Y-38915218D01*
X60733532Y-38969093D01*
X60627237Y-39199684D01*
X60567972Y-39446581D01*
X60558012Y-39700296D01*
X53627692Y-39700296D01*
X53452759Y-39525363D01*
X53217727Y-39368320D01*
X52956574Y-39260147D01*
X52679335Y-39205000D01*
X52396665Y-39205000D01*
X52119426Y-39260147D01*
X51858273Y-39368320D01*
X51623241Y-39525363D01*
X51423363Y-39725241D01*
X51288000Y-39927827D01*
X51152637Y-39725241D01*
X50952759Y-39525363D01*
X50717727Y-39368320D01*
X50456574Y-39260147D01*
X50179335Y-39205000D01*
X49896665Y-39205000D01*
X49619426Y-39260147D01*
X49358273Y-39368320D01*
X49123241Y-39525363D01*
X48923363Y-39725241D01*
X48766320Y-39960273D01*
X48658147Y-40221426D01*
X48603000Y-40498665D01*
X40341442Y-40498665D01*
X40523475Y-40316632D01*
X40685990Y-40073411D01*
X40797932Y-39803158D01*
X40855000Y-39516260D01*
X40855000Y-39223740D01*
X40797932Y-38936842D01*
X40685990Y-38666589D01*
X40523475Y-38423368D01*
X40316632Y-38216525D01*
X40142240Y-38100000D01*
X40316632Y-37983475D01*
X40523475Y-37776632D01*
X40685990Y-37533411D01*
X40797932Y-37263158D01*
X40855000Y-36976260D01*
X40855000Y-36683740D01*
X40797932Y-36396842D01*
X40685990Y-36126589D01*
X40523475Y-35883368D01*
X40316632Y-35676525D01*
X40142240Y-35560000D01*
X40316632Y-35443475D01*
X40523475Y-35236632D01*
X40685990Y-34993411D01*
X40797932Y-34723158D01*
X40855000Y-34436260D01*
X40855000Y-34143740D01*
X40797932Y-33856842D01*
X40685990Y-33586589D01*
X40523475Y-33343368D01*
X40316632Y-33136525D01*
X40310856Y-33132665D01*
X43777000Y-33132665D01*
X43777000Y-33415335D01*
X43832147Y-33692574D01*
X43940320Y-33953727D01*
X44097363Y-34188759D01*
X44297241Y-34388637D01*
X44532273Y-34545680D01*
X44793426Y-34653853D01*
X45070665Y-34709000D01*
X45353335Y-34709000D01*
X45630574Y-34653853D01*
X45891727Y-34545680D01*
X46126759Y-34388637D01*
X46326637Y-34188759D01*
X46483680Y-33953727D01*
X46591853Y-33692574D01*
X46647000Y-33415335D01*
X46647000Y-33132665D01*
X47333000Y-33132665D01*
X47333000Y-33415335D01*
X47388147Y-33692574D01*
X47496320Y-33953727D01*
X47653363Y-34188759D01*
X47853241Y-34388637D01*
X48055827Y-34524000D01*
X47853241Y-34659363D01*
X47653363Y-34859241D01*
X47496320Y-35094273D01*
X47388147Y-35355426D01*
X47333000Y-35632665D01*
X47333000Y-35915335D01*
X47388147Y-36192574D01*
X47496320Y-36453727D01*
X47653363Y-36688759D01*
X47853241Y-36888637D01*
X48088273Y-37045680D01*
X48349426Y-37153853D01*
X48626665Y-37209000D01*
X48909335Y-37209000D01*
X49186574Y-37153853D01*
X49447727Y-37045680D01*
X49682759Y-36888637D01*
X49882637Y-36688759D01*
X50039680Y-36453727D01*
X50147853Y-36192574D01*
X50203000Y-35915335D01*
X50203000Y-35632665D01*
X50147853Y-35355426D01*
X50039680Y-35094273D01*
X49882637Y-34859241D01*
X49682759Y-34659363D01*
X49480173Y-34524000D01*
X49682759Y-34388637D01*
X49882637Y-34188759D01*
X50039680Y-33953727D01*
X50147853Y-33692574D01*
X50203000Y-33415335D01*
X50203000Y-33132665D01*
X50147853Y-32855426D01*
X50039680Y-32594273D01*
X49882637Y-32359241D01*
X49682759Y-32159363D01*
X49447727Y-32002320D01*
X49186574Y-31894147D01*
X48909335Y-31839000D01*
X48626665Y-31839000D01*
X48349426Y-31894147D01*
X48088273Y-32002320D01*
X47853241Y-32159363D01*
X47653363Y-32359241D01*
X47496320Y-32594273D01*
X47388147Y-32855426D01*
X47333000Y-33132665D01*
X46647000Y-33132665D01*
X46591853Y-32855426D01*
X46483680Y-32594273D01*
X46326637Y-32359241D01*
X46126759Y-32159363D01*
X45891727Y-32002320D01*
X45630574Y-31894147D01*
X45353335Y-31839000D01*
X45070665Y-31839000D01*
X44793426Y-31894147D01*
X44532273Y-32002320D01*
X44297241Y-32159363D01*
X44097363Y-32359241D01*
X43940320Y-32594273D01*
X43832147Y-32855426D01*
X43777000Y-33132665D01*
X40310856Y-33132665D01*
X40142240Y-33020000D01*
X40316632Y-32903475D01*
X40523475Y-32696632D01*
X40685990Y-32453411D01*
X40797932Y-32183158D01*
X40855000Y-31896260D01*
X40855000Y-31603740D01*
X40804528Y-31350000D01*
X60558928Y-31350000D01*
X60558928Y-32658000D01*
X60571188Y-32782482D01*
X60607498Y-32902180D01*
X60666463Y-33012494D01*
X60745815Y-33109185D01*
X60842506Y-33188537D01*
X60952820Y-33247502D01*
X61072518Y-33283812D01*
X61197000Y-33296072D01*
X61517560Y-33296072D01*
X61475013Y-33304535D01*
X61240430Y-33401703D01*
X61029310Y-33542768D01*
X60849768Y-33722310D01*
X60708703Y-33933430D01*
X60611535Y-34168013D01*
X60562000Y-34417045D01*
X60562000Y-34670955D01*
X60611535Y-34919987D01*
X60708703Y-35154570D01*
X60849768Y-35365690D01*
X61029310Y-35545232D01*
X61240430Y-35686297D01*
X61475013Y-35783465D01*
X61628524Y-35814000D01*
X61475013Y-35844535D01*
X61240430Y-35941703D01*
X61029310Y-36082768D01*
X60849768Y-36262310D01*
X60708703Y-36473430D01*
X60611535Y-36708013D01*
X60562000Y-36957045D01*
X60562000Y-37210955D01*
X60611535Y-37459987D01*
X60708703Y-37694570D01*
X60849768Y-37905690D01*
X61029310Y-38085232D01*
X61240430Y-38226297D01*
X61475013Y-38323465D01*
X61628999Y-38354094D01*
X61523921Y-38370741D01*
X61285707Y-38458632D01*
X61196093Y-38506532D01*
X61142218Y-38735613D01*
X61851000Y-39444395D01*
X62559782Y-38735613D01*
X62505907Y-38506532D01*
X62275316Y-38400237D01*
X62078516Y-38352997D01*
X62226987Y-38323465D01*
X62461570Y-38226297D01*
X62672690Y-38085232D01*
X62852232Y-37905690D01*
X62993297Y-37694570D01*
X63090465Y-37459987D01*
X63140000Y-37210955D01*
X63140000Y-36957045D01*
X63090465Y-36708013D01*
X62993297Y-36473430D01*
X62852232Y-36262310D01*
X62672690Y-36082768D01*
X62461570Y-35941703D01*
X62226987Y-35844535D01*
X62073476Y-35814000D01*
X62226987Y-35783465D01*
X62461570Y-35686297D01*
X62672690Y-35545232D01*
X62852232Y-35365690D01*
X62993297Y-35154570D01*
X63090465Y-34919987D01*
X63140000Y-34670955D01*
X63140000Y-34417045D01*
X63090465Y-34168013D01*
X62993297Y-33933430D01*
X62852232Y-33722310D01*
X62672690Y-33542768D01*
X62461570Y-33401703D01*
X62226987Y-33304535D01*
X62184440Y-33296072D01*
X62505000Y-33296072D01*
X62629482Y-33283812D01*
X62749180Y-33247502D01*
X62859494Y-33188537D01*
X62956185Y-33109185D01*
X63035537Y-33012494D01*
X63094502Y-32902180D01*
X63130812Y-32782482D01*
X63143072Y-32658000D01*
X63143072Y-31877045D01*
X68432000Y-31877045D01*
X68432000Y-32130955D01*
X68481535Y-32379987D01*
X68578703Y-32614570D01*
X68719768Y-32825690D01*
X68899310Y-33005232D01*
X69110430Y-33146297D01*
X69345013Y-33243465D01*
X69498524Y-33274000D01*
X69345013Y-33304535D01*
X69110430Y-33401703D01*
X68899310Y-33542768D01*
X68719768Y-33722310D01*
X68578703Y-33933430D01*
X68481535Y-34168013D01*
X68432000Y-34417045D01*
X68432000Y-34670955D01*
X68481535Y-34919987D01*
X68578703Y-35154570D01*
X68719768Y-35365690D01*
X68899310Y-35545232D01*
X69110430Y-35686297D01*
X69345013Y-35783465D01*
X69498524Y-35814000D01*
X69345013Y-35844535D01*
X69110430Y-35941703D01*
X68899310Y-36082768D01*
X68719768Y-36262310D01*
X68578703Y-36473430D01*
X68481535Y-36708013D01*
X68432000Y-36957045D01*
X68432000Y-37210955D01*
X68481535Y-37459987D01*
X68578703Y-37694570D01*
X68719768Y-37905690D01*
X68899310Y-38085232D01*
X69110430Y-38226297D01*
X69345013Y-38323465D01*
X69498524Y-38354000D01*
X69345013Y-38384535D01*
X69110430Y-38481703D01*
X68899310Y-38622768D01*
X68719768Y-38802310D01*
X68578703Y-39013430D01*
X68481535Y-39248013D01*
X68432000Y-39497045D01*
X68432000Y-39750955D01*
X68481535Y-39999987D01*
X68578703Y-40234570D01*
X68719768Y-40445690D01*
X68899310Y-40625232D01*
X69110430Y-40766297D01*
X69345013Y-40863465D01*
X69594045Y-40913000D01*
X69847955Y-40913000D01*
X70096987Y-40863465D01*
X70331570Y-40766297D01*
X70542690Y-40625232D01*
X70722232Y-40445690D01*
X70863297Y-40234570D01*
X70960465Y-39999987D01*
X71010000Y-39750955D01*
X71010000Y-39497045D01*
X70960465Y-39248013D01*
X70869333Y-39028000D01*
X75473928Y-39028000D01*
X75473928Y-40728000D01*
X75486188Y-40852482D01*
X75522498Y-40972180D01*
X75581463Y-41082494D01*
X75660815Y-41179185D01*
X75757506Y-41258537D01*
X75867820Y-41317502D01*
X75987518Y-41353812D01*
X76112000Y-41366072D01*
X77812000Y-41366072D01*
X77936482Y-41353812D01*
X78056180Y-41317502D01*
X78166494Y-41258537D01*
X78263185Y-41179185D01*
X78342537Y-41082494D01*
X78401502Y-40972180D01*
X78437812Y-40852482D01*
X78450072Y-40728000D01*
X78450072Y-39028000D01*
X78437812Y-38903518D01*
X78401502Y-38783820D01*
X78342537Y-38673506D01*
X78263185Y-38576815D01*
X78166494Y-38497463D01*
X78056180Y-38438498D01*
X77983620Y-38416487D01*
X78115475Y-38284632D01*
X78277990Y-38041411D01*
X78389932Y-37771158D01*
X78447000Y-37484260D01*
X78447000Y-37191740D01*
X78389932Y-36904842D01*
X78277990Y-36634589D01*
X78115475Y-36391368D01*
X77908632Y-36184525D01*
X77734240Y-36068000D01*
X77908632Y-35951475D01*
X78115475Y-35744632D01*
X78277990Y-35501411D01*
X78389932Y-35231158D01*
X78447000Y-34944260D01*
X78447000Y-34651740D01*
X78389932Y-34364842D01*
X78277990Y-34094589D01*
X78115475Y-33851368D01*
X77908632Y-33644525D01*
X77665411Y-33482010D01*
X77395158Y-33370068D01*
X77108260Y-33313000D01*
X76815740Y-33313000D01*
X76528842Y-33370068D01*
X76258589Y-33482010D01*
X76015368Y-33644525D01*
X75808525Y-33851368D01*
X75646010Y-34094589D01*
X75534068Y-34364842D01*
X75477000Y-34651740D01*
X75477000Y-34944260D01*
X75534068Y-35231158D01*
X75646010Y-35501411D01*
X75808525Y-35744632D01*
X76015368Y-35951475D01*
X76189760Y-36068000D01*
X76015368Y-36184525D01*
X75808525Y-36391368D01*
X75646010Y-36634589D01*
X75534068Y-36904842D01*
X75477000Y-37191740D01*
X75477000Y-37484260D01*
X75534068Y-37771158D01*
X75646010Y-38041411D01*
X75808525Y-38284632D01*
X75940380Y-38416487D01*
X75867820Y-38438498D01*
X75757506Y-38497463D01*
X75660815Y-38576815D01*
X75581463Y-38673506D01*
X75522498Y-38783820D01*
X75486188Y-38903518D01*
X75473928Y-39028000D01*
X70869333Y-39028000D01*
X70863297Y-39013430D01*
X70722232Y-38802310D01*
X70542690Y-38622768D01*
X70331570Y-38481703D01*
X70096987Y-38384535D01*
X69943476Y-38354000D01*
X70096987Y-38323465D01*
X70331570Y-38226297D01*
X70542690Y-38085232D01*
X70722232Y-37905690D01*
X70863297Y-37694570D01*
X70960465Y-37459987D01*
X71010000Y-37210955D01*
X71010000Y-36957045D01*
X70960465Y-36708013D01*
X70863297Y-36473430D01*
X70722232Y-36262310D01*
X70542690Y-36082768D01*
X70331570Y-35941703D01*
X70096987Y-35844535D01*
X69943476Y-35814000D01*
X70096987Y-35783465D01*
X70331570Y-35686297D01*
X70542690Y-35545232D01*
X70722232Y-35365690D01*
X70863297Y-35154570D01*
X70960465Y-34919987D01*
X71010000Y-34670955D01*
X71010000Y-34417045D01*
X70960465Y-34168013D01*
X70863297Y-33933430D01*
X70722232Y-33722310D01*
X70542690Y-33542768D01*
X70331570Y-33401703D01*
X70096987Y-33304535D01*
X69943476Y-33274000D01*
X70096987Y-33243465D01*
X70331570Y-33146297D01*
X70542690Y-33005232D01*
X70722232Y-32825690D01*
X70863297Y-32614570D01*
X70960465Y-32379987D01*
X71010000Y-32130955D01*
X71010000Y-31877045D01*
X70960465Y-31628013D01*
X70899846Y-31481665D01*
X71082000Y-31481665D01*
X71082000Y-31764335D01*
X71137147Y-32041574D01*
X71245320Y-32302727D01*
X71402363Y-32537759D01*
X71602241Y-32737637D01*
X71837273Y-32894680D01*
X72098426Y-33002853D01*
X72375665Y-33058000D01*
X72658335Y-33058000D01*
X72935574Y-33002853D01*
X73196727Y-32894680D01*
X73431759Y-32737637D01*
X73631637Y-32537759D01*
X73788680Y-32302727D01*
X73896853Y-32041574D01*
X73952000Y-31764335D01*
X73952000Y-31481665D01*
X73896853Y-31204426D01*
X73788680Y-30943273D01*
X73631637Y-30708241D01*
X73431759Y-30508363D01*
X73196727Y-30351320D01*
X72935574Y-30243147D01*
X72658335Y-30188000D01*
X72375665Y-30188000D01*
X72098426Y-30243147D01*
X71837273Y-30351320D01*
X71602241Y-30508363D01*
X71402363Y-30708241D01*
X71245320Y-30943273D01*
X71137147Y-31204426D01*
X71082000Y-31481665D01*
X70899846Y-31481665D01*
X70863297Y-31393430D01*
X70722232Y-31182310D01*
X70542690Y-31002768D01*
X70331570Y-30861703D01*
X70096987Y-30764535D01*
X69847955Y-30715000D01*
X69594045Y-30715000D01*
X69345013Y-30764535D01*
X69110430Y-30861703D01*
X68899310Y-31002768D01*
X68719768Y-31182310D01*
X68578703Y-31393430D01*
X68481535Y-31628013D01*
X68432000Y-31877045D01*
X63143072Y-31877045D01*
X63143072Y-31350000D01*
X63130812Y-31225518D01*
X63094502Y-31105820D01*
X63035537Y-30995506D01*
X62956185Y-30898815D01*
X62859494Y-30819463D01*
X62749180Y-30760498D01*
X62629482Y-30724188D01*
X62505000Y-30711928D01*
X61197000Y-30711928D01*
X61072518Y-30724188D01*
X60952820Y-30760498D01*
X60842506Y-30819463D01*
X60745815Y-30898815D01*
X60666463Y-30995506D01*
X60607498Y-31105820D01*
X60571188Y-31225518D01*
X60558928Y-31350000D01*
X40804528Y-31350000D01*
X40797932Y-31316842D01*
X40685990Y-31046589D01*
X40523475Y-30803368D01*
X40316632Y-30596525D01*
X40142240Y-30480000D01*
X40316632Y-30363475D01*
X40523475Y-30156632D01*
X40685990Y-29913411D01*
X40797932Y-29643158D01*
X40855000Y-29356260D01*
X40855000Y-29063740D01*
X40797932Y-28776842D01*
X40685990Y-28506589D01*
X40552406Y-28306665D01*
X46317000Y-28306665D01*
X46317000Y-28589335D01*
X46372147Y-28866574D01*
X46480320Y-29127727D01*
X46637363Y-29362759D01*
X46837241Y-29562637D01*
X47072273Y-29719680D01*
X47333426Y-29827853D01*
X47610665Y-29883000D01*
X47893335Y-29883000D01*
X48170574Y-29827853D01*
X48431727Y-29719680D01*
X48666759Y-29562637D01*
X48788694Y-29440702D01*
X49438903Y-29440702D01*
X49510486Y-29684671D01*
X49765996Y-29805571D01*
X50040184Y-29874300D01*
X50322512Y-29888217D01*
X50602130Y-29846787D01*
X50868292Y-29751603D01*
X50993514Y-29684671D01*
X51065097Y-29440702D01*
X50252000Y-28627605D01*
X49438903Y-29440702D01*
X48788694Y-29440702D01*
X48866637Y-29362759D01*
X49000692Y-29162131D01*
X49015329Y-29189514D01*
X49259298Y-29261097D01*
X50072395Y-28448000D01*
X50431605Y-28448000D01*
X51244702Y-29261097D01*
X51488671Y-29189514D01*
X51609571Y-28934004D01*
X51678300Y-28659816D01*
X51692217Y-28377488D01*
X51650787Y-28097870D01*
X51555603Y-27831708D01*
X51488671Y-27706486D01*
X51244702Y-27634903D01*
X50431605Y-28448000D01*
X50072395Y-28448000D01*
X49259298Y-27634903D01*
X49015329Y-27706486D01*
X49001676Y-27735341D01*
X48866637Y-27533241D01*
X48788694Y-27455298D01*
X49438903Y-27455298D01*
X50252000Y-28268395D01*
X51065097Y-27455298D01*
X50993514Y-27211329D01*
X50738004Y-27090429D01*
X50523518Y-27036665D01*
X53683000Y-27036665D01*
X53683000Y-27319335D01*
X53738147Y-27596574D01*
X53846320Y-27857727D01*
X54003363Y-28092759D01*
X54203241Y-28292637D01*
X54438273Y-28449680D01*
X54699426Y-28557853D01*
X54976665Y-28613000D01*
X55259335Y-28613000D01*
X55536574Y-28557853D01*
X55797727Y-28449680D01*
X56032759Y-28292637D01*
X56232637Y-28092759D01*
X56389680Y-27857727D01*
X56497853Y-27596574D01*
X56553000Y-27319335D01*
X56553000Y-27036665D01*
X63843000Y-27036665D01*
X63843000Y-27319335D01*
X63898147Y-27596574D01*
X64006320Y-27857727D01*
X64163363Y-28092759D01*
X64363241Y-28292637D01*
X64598273Y-28449680D01*
X64859426Y-28557853D01*
X65136665Y-28613000D01*
X65419335Y-28613000D01*
X65696574Y-28557853D01*
X65957727Y-28449680D01*
X66192759Y-28292637D01*
X66392637Y-28092759D01*
X66549680Y-27857727D01*
X66657853Y-27596574D01*
X66713000Y-27319335D01*
X66713000Y-27036665D01*
X66657853Y-26759426D01*
X66549680Y-26498273D01*
X66392637Y-26263241D01*
X66192759Y-26063363D01*
X65957727Y-25906320D01*
X65696574Y-25798147D01*
X65419335Y-25743000D01*
X65136665Y-25743000D01*
X64859426Y-25798147D01*
X64598273Y-25906320D01*
X64363241Y-26063363D01*
X64163363Y-26263241D01*
X64006320Y-26498273D01*
X63898147Y-26759426D01*
X63843000Y-27036665D01*
X56553000Y-27036665D01*
X56497853Y-26759426D01*
X56389680Y-26498273D01*
X56232637Y-26263241D01*
X56032759Y-26063363D01*
X55797727Y-25906320D01*
X55536574Y-25798147D01*
X55259335Y-25743000D01*
X54976665Y-25743000D01*
X54699426Y-25798147D01*
X54438273Y-25906320D01*
X54203241Y-26063363D01*
X54003363Y-26263241D01*
X53846320Y-26498273D01*
X53738147Y-26759426D01*
X53683000Y-27036665D01*
X50523518Y-27036665D01*
X50463816Y-27021700D01*
X50181488Y-27007783D01*
X49901870Y-27049213D01*
X49635708Y-27144397D01*
X49510486Y-27211329D01*
X49438903Y-27455298D01*
X48788694Y-27455298D01*
X48666759Y-27333363D01*
X48431727Y-27176320D01*
X48170574Y-27068147D01*
X47893335Y-27013000D01*
X47610665Y-27013000D01*
X47333426Y-27068147D01*
X47072273Y-27176320D01*
X46837241Y-27333363D01*
X46637363Y-27533241D01*
X46480320Y-27768273D01*
X46372147Y-28029426D01*
X46317000Y-28306665D01*
X40552406Y-28306665D01*
X40523475Y-28263368D01*
X40316632Y-28056525D01*
X40142240Y-27940000D01*
X40316632Y-27823475D01*
X40523475Y-27616632D01*
X40685990Y-27373411D01*
X40797932Y-27103158D01*
X40855000Y-26816260D01*
X40855000Y-26523740D01*
X40797932Y-26236842D01*
X40685990Y-25966589D01*
X40523475Y-25723368D01*
X40383614Y-25583507D01*
X75160669Y-25583507D01*
X75199761Y-25809404D01*
X75282172Y-26023334D01*
X75404736Y-26217076D01*
X75562742Y-26383184D01*
X75750118Y-26515275D01*
X75959663Y-26608272D01*
X76021190Y-26616964D01*
X76200000Y-26491163D01*
X76200000Y-25400000D01*
X75320402Y-25400000D01*
X75160669Y-25583507D01*
X40383614Y-25583507D01*
X40316632Y-25516525D01*
X40142240Y-25400000D01*
X40316632Y-25283475D01*
X40523475Y-25076632D01*
X40685990Y-24833411D01*
X40797932Y-24563158D01*
X40855000Y-24276260D01*
X40855000Y-23983740D01*
X40797932Y-23696842D01*
X40685990Y-23426589D01*
X40523475Y-23183368D01*
X40416107Y-23076000D01*
X46313928Y-23076000D01*
X46313928Y-24676000D01*
X46326188Y-24800482D01*
X46362498Y-24920180D01*
X46421463Y-25030494D01*
X46500815Y-25127185D01*
X46597506Y-25206537D01*
X46707820Y-25265502D01*
X46827518Y-25301812D01*
X46952000Y-25314072D01*
X48552000Y-25314072D01*
X48676482Y-25301812D01*
X48796180Y-25265502D01*
X48906494Y-25206537D01*
X49003185Y-25127185D01*
X49013807Y-25114242D01*
X49265996Y-25233571D01*
X49540184Y-25302300D01*
X49822512Y-25316217D01*
X50102130Y-25274787D01*
X50368292Y-25179603D01*
X50493514Y-25112671D01*
X50565097Y-24868702D01*
X49752000Y-24055605D01*
X49737858Y-24069748D01*
X49558253Y-23890143D01*
X49572395Y-23876000D01*
X49931605Y-23876000D01*
X50744702Y-24689097D01*
X50988671Y-24617514D01*
X51109571Y-24362004D01*
X51143903Y-24225039D01*
X53726096Y-24225039D01*
X53766754Y-24359087D01*
X53886963Y-24613420D01*
X54054481Y-24839414D01*
X54262869Y-25028385D01*
X54504119Y-25173070D01*
X54768960Y-25267909D01*
X54991000Y-25146624D01*
X54991000Y-24003000D01*
X55245000Y-24003000D01*
X55245000Y-25146624D01*
X55467040Y-25267909D01*
X55731881Y-25173070D01*
X55973131Y-25028385D01*
X56181519Y-24839414D01*
X56349037Y-24613420D01*
X56469246Y-24359087D01*
X56509904Y-24225039D01*
X56387915Y-24003000D01*
X55245000Y-24003000D01*
X54991000Y-24003000D01*
X53848085Y-24003000D01*
X53726096Y-24225039D01*
X51143903Y-24225039D01*
X51178300Y-24087816D01*
X51192217Y-23805488D01*
X51150949Y-23526961D01*
X53726096Y-23526961D01*
X53848085Y-23749000D01*
X54991000Y-23749000D01*
X54991000Y-22605376D01*
X55245000Y-22605376D01*
X55245000Y-23749000D01*
X56387915Y-23749000D01*
X56395790Y-23734665D01*
X63843000Y-23734665D01*
X63843000Y-24017335D01*
X63898147Y-24294574D01*
X64006320Y-24555727D01*
X64163363Y-24790759D01*
X64363241Y-24990637D01*
X64598273Y-25147680D01*
X64859426Y-25255853D01*
X65136665Y-25311000D01*
X65419335Y-25311000D01*
X65696574Y-25255853D01*
X65957727Y-25147680D01*
X66192759Y-24990637D01*
X66392637Y-24790759D01*
X66549680Y-24555727D01*
X66657853Y-24294574D01*
X66713000Y-24017335D01*
X66713000Y-23861665D01*
X71082000Y-23861665D01*
X71082000Y-24144335D01*
X71137147Y-24421574D01*
X71245320Y-24682727D01*
X71402363Y-24917759D01*
X71602241Y-25117637D01*
X71837273Y-25274680D01*
X72098426Y-25382853D01*
X72375665Y-25438000D01*
X72658335Y-25438000D01*
X72935574Y-25382853D01*
X73196727Y-25274680D01*
X73431759Y-25117637D01*
X73586903Y-24962493D01*
X75160669Y-24962493D01*
X75320402Y-25146000D01*
X76200000Y-25146000D01*
X76200000Y-24991021D01*
X76437000Y-24991021D01*
X76437000Y-25554978D01*
X76453785Y-25725399D01*
X76454000Y-25726108D01*
X76454000Y-26491163D01*
X76632810Y-26616964D01*
X76694337Y-26608272D01*
X76903882Y-26515275D01*
X76962331Y-26474071D01*
X77150940Y-26574885D01*
X77369600Y-26641215D01*
X77597000Y-26663612D01*
X77824399Y-26641215D01*
X78033098Y-26577907D01*
X78097820Y-26612502D01*
X78217518Y-26648812D01*
X78342000Y-26661072D01*
X79392000Y-26661072D01*
X79516482Y-26648812D01*
X79636180Y-26612502D01*
X79746494Y-26553537D01*
X79843185Y-26474185D01*
X79922537Y-26377494D01*
X79981502Y-26267180D01*
X80017812Y-26147482D01*
X80030072Y-26023000D01*
X80030072Y-24523000D01*
X80017812Y-24398518D01*
X79981502Y-24278820D01*
X79922537Y-24168506D01*
X79843185Y-24071815D01*
X79746494Y-23992463D01*
X79636180Y-23933498D01*
X79516482Y-23897188D01*
X79392000Y-23884928D01*
X78342000Y-23884928D01*
X78217518Y-23897188D01*
X78097820Y-23933498D01*
X78033098Y-23968093D01*
X77824400Y-23904785D01*
X77597000Y-23882388D01*
X77369601Y-23904785D01*
X77150941Y-23971115D01*
X76962331Y-24071929D01*
X76903882Y-24030725D01*
X76694337Y-23937728D01*
X76632810Y-23929036D01*
X76454000Y-24054837D01*
X76454000Y-24819891D01*
X76453785Y-24820600D01*
X76437000Y-24991021D01*
X76200000Y-24991021D01*
X76200000Y-24054837D01*
X76021190Y-23929036D01*
X75959663Y-23937728D01*
X75750118Y-24030725D01*
X75562742Y-24162816D01*
X75404736Y-24328924D01*
X75282172Y-24522666D01*
X75199761Y-24736596D01*
X75160669Y-24962493D01*
X73586903Y-24962493D01*
X73631637Y-24917759D01*
X73788680Y-24682727D01*
X73896853Y-24421574D01*
X73952000Y-24144335D01*
X73952000Y-23861665D01*
X73896853Y-23584426D01*
X73788680Y-23323273D01*
X73631637Y-23088241D01*
X73431759Y-22888363D01*
X73196727Y-22731320D01*
X72935574Y-22623147D01*
X72658335Y-22568000D01*
X72375665Y-22568000D01*
X72098426Y-22623147D01*
X71837273Y-22731320D01*
X71602241Y-22888363D01*
X71402363Y-23088241D01*
X71245320Y-23323273D01*
X71137147Y-23584426D01*
X71082000Y-23861665D01*
X66713000Y-23861665D01*
X66713000Y-23734665D01*
X66657853Y-23457426D01*
X66549680Y-23196273D01*
X66392637Y-22961241D01*
X66192759Y-22761363D01*
X65957727Y-22604320D01*
X65696574Y-22496147D01*
X65419335Y-22441000D01*
X65136665Y-22441000D01*
X64859426Y-22496147D01*
X64598273Y-22604320D01*
X64363241Y-22761363D01*
X64163363Y-22961241D01*
X64006320Y-23196273D01*
X63898147Y-23457426D01*
X63843000Y-23734665D01*
X56395790Y-23734665D01*
X56509904Y-23526961D01*
X56469246Y-23392913D01*
X56349037Y-23138580D01*
X56181519Y-22912586D01*
X55973131Y-22723615D01*
X55731881Y-22578930D01*
X55467040Y-22484091D01*
X55245000Y-22605376D01*
X54991000Y-22605376D01*
X54768960Y-22484091D01*
X54504119Y-22578930D01*
X54262869Y-22723615D01*
X54054481Y-22912586D01*
X53886963Y-23138580D01*
X53766754Y-23392913D01*
X53726096Y-23526961D01*
X51150949Y-23526961D01*
X51150787Y-23525870D01*
X51055603Y-23259708D01*
X50988671Y-23134486D01*
X50744702Y-23062903D01*
X49931605Y-23876000D01*
X49572395Y-23876000D01*
X49558253Y-23861858D01*
X49737858Y-23682253D01*
X49752000Y-23696395D01*
X50565097Y-22883298D01*
X50493514Y-22639329D01*
X50238004Y-22518429D01*
X49963816Y-22449700D01*
X49681488Y-22435783D01*
X49401870Y-22477213D01*
X49135708Y-22572397D01*
X49013691Y-22637616D01*
X49003185Y-22624815D01*
X48906494Y-22545463D01*
X48796180Y-22486498D01*
X48676482Y-22450188D01*
X48552000Y-22437928D01*
X46952000Y-22437928D01*
X46827518Y-22450188D01*
X46707820Y-22486498D01*
X46597506Y-22545463D01*
X46500815Y-22624815D01*
X46421463Y-22721506D01*
X46362498Y-22831820D01*
X46326188Y-22951518D01*
X46313928Y-23076000D01*
X40416107Y-23076000D01*
X40316632Y-22976525D01*
X40142240Y-22860000D01*
X40316632Y-22743475D01*
X40523475Y-22536632D01*
X40685990Y-22293411D01*
X40797932Y-22023158D01*
X40855000Y-21736260D01*
X40855000Y-21443740D01*
X40813103Y-21233110D01*
X84664524Y-21233110D01*
X84785845Y-21463000D01*
X85979000Y-21463000D01*
X85979000Y-20269186D01*
X86233000Y-20269186D01*
X86233000Y-21463000D01*
X87426155Y-21463000D01*
X87547476Y-21233110D01*
X87502825Y-21085901D01*
X87377641Y-20823080D01*
X87203588Y-20589731D01*
X86987355Y-20394822D01*
X86737252Y-20245843D01*
X86462891Y-20148519D01*
X86233000Y-20269186D01*
X85979000Y-20269186D01*
X85749109Y-20148519D01*
X85474748Y-20245843D01*
X85224645Y-20394822D01*
X85008412Y-20589731D01*
X84834359Y-20823080D01*
X84709175Y-21085901D01*
X84664524Y-21233110D01*
X40813103Y-21233110D01*
X40797932Y-21156842D01*
X40685990Y-20886589D01*
X40523475Y-20643368D01*
X40316632Y-20436525D01*
X40073411Y-20274010D01*
X39803158Y-20162068D01*
X39516260Y-20105000D01*
X39223740Y-20105000D01*
X38936842Y-20162068D01*
X38666589Y-20274010D01*
X38423368Y-20436525D01*
X38216525Y-20643368D01*
X38054010Y-20886589D01*
X37942068Y-21156842D01*
X37885000Y-21443740D01*
X37885000Y-21736260D01*
X37942068Y-22023158D01*
X38054010Y-22293411D01*
X38216525Y-22536632D01*
X38423368Y-22743475D01*
X38597760Y-22860000D01*
X38423368Y-22976525D01*
X38216525Y-23183368D01*
X38054010Y-23426589D01*
X37942068Y-23696842D01*
X37885000Y-23983740D01*
X37885000Y-24276260D01*
X37942068Y-24563158D01*
X38054010Y-24833411D01*
X38216525Y-25076632D01*
X38423368Y-25283475D01*
X38597760Y-25400000D01*
X38423368Y-25516525D01*
X38216525Y-25723368D01*
X38054010Y-25966589D01*
X37942068Y-26236842D01*
X37885000Y-26523740D01*
X37885000Y-26816260D01*
X37942068Y-27103158D01*
X38054010Y-27373411D01*
X38216525Y-27616632D01*
X38423368Y-27823475D01*
X38597760Y-27940000D01*
X38423368Y-28056525D01*
X38216525Y-28263368D01*
X38054010Y-28506589D01*
X37942068Y-28776842D01*
X37885000Y-29063740D01*
X37885000Y-29356260D01*
X37942068Y-29643158D01*
X38054010Y-29913411D01*
X38216525Y-30156632D01*
X38423368Y-30363475D01*
X38597760Y-30480000D01*
X38423368Y-30596525D01*
X38216525Y-30803368D01*
X38054010Y-31046589D01*
X37942068Y-31316842D01*
X37885000Y-31603740D01*
X37885000Y-31896260D01*
X37942068Y-32183158D01*
X38054010Y-32453411D01*
X38216525Y-32696632D01*
X38423368Y-32903475D01*
X38597760Y-33020000D01*
X38423368Y-33136525D01*
X38216525Y-33343368D01*
X38054010Y-33586589D01*
X37942068Y-33856842D01*
X37885000Y-34143740D01*
X37885000Y-34436260D01*
X37942068Y-34723158D01*
X38054010Y-34993411D01*
X38216525Y-35236632D01*
X38423368Y-35443475D01*
X38597760Y-35560000D01*
X38423368Y-35676525D01*
X38216525Y-35883368D01*
X38054010Y-36126589D01*
X37942068Y-36396842D01*
X37885000Y-36683740D01*
X37885000Y-36976260D01*
X37942068Y-37263158D01*
X38054010Y-37533411D01*
X38216525Y-37776632D01*
X38423368Y-37983475D01*
X38597760Y-38100000D01*
X38423368Y-38216525D01*
X38216525Y-38423368D01*
X38054010Y-38666589D01*
X37942068Y-38936842D01*
X37885000Y-39223740D01*
X37885000Y-39516260D01*
X37942068Y-39803158D01*
X38054010Y-40073411D01*
X38216525Y-40316632D01*
X38423368Y-40523475D01*
X38597760Y-40640000D01*
X38423368Y-40756525D01*
X38216525Y-40963368D01*
X38054010Y-41206589D01*
X37942068Y-41476842D01*
X37885000Y-41763740D01*
X37885000Y-42056260D01*
X37942068Y-42343158D01*
X38054010Y-42613411D01*
X38216525Y-42856632D01*
X38348380Y-42988487D01*
X38275820Y-43010498D01*
X38165506Y-43069463D01*
X38068815Y-43148815D01*
X37989463Y-43245506D01*
X37930498Y-43355820D01*
X37894188Y-43475518D01*
X37881928Y-43600000D01*
X36449000Y-43600000D01*
X36449000Y-18669000D01*
X88011000Y-18669000D01*
X88011000Y-47575000D01*
%TA.AperFunction,Conductor*%
D20*
G36*
X88011000Y-47575000D02*
G01*
X36449000Y-47575000D01*
X36449000Y-43600000D01*
X37881928Y-43600000D01*
X37881928Y-45300000D01*
X37894188Y-45424482D01*
X37930498Y-45544180D01*
X37989463Y-45654494D01*
X38068815Y-45751185D01*
X38165506Y-45830537D01*
X38275820Y-45889502D01*
X38395518Y-45925812D01*
X38520000Y-45938072D01*
X40220000Y-45938072D01*
X40344482Y-45925812D01*
X40464180Y-45889502D01*
X40574494Y-45830537D01*
X40671185Y-45751185D01*
X40750537Y-45654494D01*
X40809502Y-45544180D01*
X40845812Y-45424482D01*
X40858072Y-45300000D01*
X40858072Y-43600000D01*
X40845812Y-43475518D01*
X40809502Y-43355820D01*
X40775745Y-43292665D01*
X43777000Y-43292665D01*
X43777000Y-43575335D01*
X43832147Y-43852574D01*
X43940320Y-44113727D01*
X44097363Y-44348759D01*
X44297241Y-44548637D01*
X44532273Y-44705680D01*
X44793426Y-44813853D01*
X45070665Y-44869000D01*
X45353335Y-44869000D01*
X45630574Y-44813853D01*
X45891727Y-44705680D01*
X46126759Y-44548637D01*
X46326637Y-44348759D01*
X46483680Y-44113727D01*
X46508144Y-44054665D01*
X48349000Y-44054665D01*
X48349000Y-44337335D01*
X48404147Y-44614574D01*
X48512320Y-44875727D01*
X48669363Y-45110759D01*
X48869241Y-45310637D01*
X49104273Y-45467680D01*
X49365426Y-45575853D01*
X49642665Y-45631000D01*
X49925335Y-45631000D01*
X50202574Y-45575853D01*
X50463727Y-45467680D01*
X50698759Y-45310637D01*
X50898637Y-45110759D01*
X51055680Y-44875727D01*
X51163853Y-44614574D01*
X51219000Y-44337335D01*
X51219000Y-44054665D01*
X58509000Y-44054665D01*
X58509000Y-44337335D01*
X58564147Y-44614574D01*
X58672320Y-44875727D01*
X58829363Y-45110759D01*
X59029241Y-45310637D01*
X59264273Y-45467680D01*
X59525426Y-45575853D01*
X59802665Y-45631000D01*
X60085335Y-45631000D01*
X60362574Y-45575853D01*
X60623727Y-45467680D01*
X60858759Y-45310637D01*
X60976656Y-45192740D01*
X75731000Y-45192740D01*
X75731000Y-45485260D01*
X75788068Y-45772158D01*
X75900010Y-46042411D01*
X76062525Y-46285632D01*
X76269368Y-46492475D01*
X76512589Y-46654990D01*
X76782842Y-46766932D01*
X77069740Y-46824000D01*
X77362260Y-46824000D01*
X77649158Y-46766932D01*
X77919411Y-46654990D01*
X78162632Y-46492475D01*
X78369475Y-46285632D01*
X78491195Y-46103466D01*
X78560822Y-46220355D01*
X78755731Y-46436588D01*
X78989080Y-46610641D01*
X79251901Y-46735825D01*
X79399110Y-46780476D01*
X79629000Y-46659155D01*
X79629000Y-45466000D01*
X79609000Y-45466000D01*
X79609000Y-45212000D01*
X79629000Y-45212000D01*
X79629000Y-44018845D01*
X79883000Y-44018845D01*
X79883000Y-45212000D01*
X79903000Y-45212000D01*
X79903000Y-45466000D01*
X79883000Y-45466000D01*
X79883000Y-46659155D01*
X80112890Y-46780476D01*
X80260099Y-46735825D01*
X80522920Y-46610641D01*
X80756269Y-46436588D01*
X80832034Y-46352534D01*
X80856498Y-46433180D01*
X80915463Y-46543494D01*
X80994815Y-46640185D01*
X81091506Y-46719537D01*
X81201820Y-46778502D01*
X81321518Y-46814812D01*
X81446000Y-46827072D01*
X83146000Y-46827072D01*
X83270482Y-46814812D01*
X83390180Y-46778502D01*
X83500494Y-46719537D01*
X83597185Y-46640185D01*
X83676537Y-46543494D01*
X83735502Y-46433180D01*
X83771812Y-46313482D01*
X83784072Y-46189000D01*
X83784072Y-44489000D01*
X83771812Y-44364518D01*
X83735502Y-44244820D01*
X83676537Y-44134506D01*
X83597185Y-44037815D01*
X83500494Y-43958463D01*
X83390180Y-43899498D01*
X83270482Y-43863188D01*
X83146000Y-43850928D01*
X81446000Y-43850928D01*
X81321518Y-43863188D01*
X81201820Y-43899498D01*
X81091506Y-43958463D01*
X80994815Y-44037815D01*
X80915463Y-44134506D01*
X80856498Y-44244820D01*
X80832034Y-44325466D01*
X80756269Y-44241412D01*
X80522920Y-44067359D01*
X80260099Y-43942175D01*
X80112890Y-43897524D01*
X79883000Y-44018845D01*
X79629000Y-44018845D01*
X79399110Y-43897524D01*
X79251901Y-43942175D01*
X78989080Y-44067359D01*
X78755731Y-44241412D01*
X78560822Y-44457645D01*
X78491195Y-44574534D01*
X78369475Y-44392368D01*
X78162632Y-44185525D01*
X77919411Y-44023010D01*
X77649158Y-43911068D01*
X77362260Y-43854000D01*
X77069740Y-43854000D01*
X76782842Y-43911068D01*
X76512589Y-44023010D01*
X76269368Y-44185525D01*
X76062525Y-44392368D01*
X75900010Y-44635589D01*
X75788068Y-44905842D01*
X75731000Y-45192740D01*
X60976656Y-45192740D01*
X61058637Y-45110759D01*
X61215680Y-44875727D01*
X61323853Y-44614574D01*
X61379000Y-44337335D01*
X61379000Y-44054665D01*
X61323853Y-43777426D01*
X61215680Y-43516273D01*
X61062980Y-43287740D01*
X63031000Y-43287740D01*
X63031000Y-43580260D01*
X63088068Y-43867158D01*
X63200010Y-44137411D01*
X63362525Y-44380632D01*
X63569368Y-44587475D01*
X63812589Y-44749990D01*
X64082842Y-44861932D01*
X64369740Y-44919000D01*
X64662260Y-44919000D01*
X64949158Y-44861932D01*
X65219411Y-44749990D01*
X65462632Y-44587475D01*
X65594487Y-44455620D01*
X65616498Y-44528180D01*
X65675463Y-44638494D01*
X65754815Y-44735185D01*
X65851506Y-44814537D01*
X65961820Y-44873502D01*
X66081518Y-44909812D01*
X66206000Y-44922072D01*
X67906000Y-44922072D01*
X68030482Y-44909812D01*
X68150180Y-44873502D01*
X68260494Y-44814537D01*
X68357185Y-44735185D01*
X68436537Y-44638494D01*
X68495502Y-44528180D01*
X68531812Y-44408482D01*
X68544072Y-44284000D01*
X68544072Y-43600000D01*
X84617928Y-43600000D01*
X84617928Y-45300000D01*
X84630188Y-45424482D01*
X84666498Y-45544180D01*
X84725463Y-45654494D01*
X84804815Y-45751185D01*
X84901506Y-45830537D01*
X85011820Y-45889502D01*
X85131518Y-45925812D01*
X85256000Y-45938072D01*
X86956000Y-45938072D01*
X87080482Y-45925812D01*
X87200180Y-45889502D01*
X87310494Y-45830537D01*
X87407185Y-45751185D01*
X87486537Y-45654494D01*
X87545502Y-45544180D01*
X87581812Y-45424482D01*
X87594072Y-45300000D01*
X87594072Y-43600000D01*
X87581812Y-43475518D01*
X87545502Y-43355820D01*
X87486537Y-43245506D01*
X87407185Y-43148815D01*
X87310494Y-43069463D01*
X87200180Y-43010498D01*
X87127620Y-42988487D01*
X87259475Y-42856632D01*
X87421990Y-42613411D01*
X87533932Y-42343158D01*
X87591000Y-42056260D01*
X87591000Y-41763740D01*
X87533932Y-41476842D01*
X87421990Y-41206589D01*
X87259475Y-40963368D01*
X87052632Y-40756525D01*
X86878240Y-40640000D01*
X87052632Y-40523475D01*
X87259475Y-40316632D01*
X87421990Y-40073411D01*
X87533932Y-39803158D01*
X87591000Y-39516260D01*
X87591000Y-39223740D01*
X87533932Y-38936842D01*
X87421990Y-38666589D01*
X87259475Y-38423368D01*
X87052632Y-38216525D01*
X86878240Y-38100000D01*
X87052632Y-37983475D01*
X87259475Y-37776632D01*
X87421990Y-37533411D01*
X87533932Y-37263158D01*
X87591000Y-36976260D01*
X87591000Y-36683740D01*
X87533932Y-36396842D01*
X87421990Y-36126589D01*
X87259475Y-35883368D01*
X87052632Y-35676525D01*
X86878240Y-35560000D01*
X87052632Y-35443475D01*
X87259475Y-35236632D01*
X87421990Y-34993411D01*
X87533932Y-34723158D01*
X87591000Y-34436260D01*
X87591000Y-34143740D01*
X87533932Y-33856842D01*
X87421990Y-33586589D01*
X87259475Y-33343368D01*
X87052632Y-33136525D01*
X86878240Y-33020000D01*
X87052632Y-32903475D01*
X87259475Y-32696632D01*
X87421990Y-32453411D01*
X87533932Y-32183158D01*
X87591000Y-31896260D01*
X87591000Y-31603740D01*
X87533932Y-31316842D01*
X87421990Y-31046589D01*
X87259475Y-30803368D01*
X87052632Y-30596525D01*
X86878240Y-30480000D01*
X87052632Y-30363475D01*
X87259475Y-30156632D01*
X87421990Y-29913411D01*
X87533932Y-29643158D01*
X87591000Y-29356260D01*
X87591000Y-29063740D01*
X87533932Y-28776842D01*
X87421990Y-28506589D01*
X87259475Y-28263368D01*
X87052632Y-28056525D01*
X86878240Y-27940000D01*
X87052632Y-27823475D01*
X87259475Y-27616632D01*
X87421990Y-27373411D01*
X87533932Y-27103158D01*
X87591000Y-26816260D01*
X87591000Y-26523740D01*
X87533932Y-26236842D01*
X87421990Y-25966589D01*
X87259475Y-25723368D01*
X87052632Y-25516525D01*
X86878240Y-25400000D01*
X87052632Y-25283475D01*
X87259475Y-25076632D01*
X87421990Y-24833411D01*
X87533932Y-24563158D01*
X87591000Y-24276260D01*
X87591000Y-23983740D01*
X87533932Y-23696842D01*
X87421990Y-23426589D01*
X87259475Y-23183368D01*
X87052632Y-22976525D01*
X86870466Y-22854805D01*
X86987355Y-22785178D01*
X87203588Y-22590269D01*
X87377641Y-22356920D01*
X87502825Y-22094099D01*
X87547476Y-21946890D01*
X87426155Y-21717000D01*
X86233000Y-21717000D01*
X86233000Y-21737000D01*
X85979000Y-21737000D01*
X85979000Y-21717000D01*
X84785845Y-21717000D01*
X84664524Y-21946890D01*
X84709175Y-22094099D01*
X84834359Y-22356920D01*
X85008412Y-22590269D01*
X85224645Y-22785178D01*
X85341534Y-22854805D01*
X85159368Y-22976525D01*
X84952525Y-23183368D01*
X84790010Y-23426589D01*
X84678068Y-23696842D01*
X84621000Y-23983740D01*
X84621000Y-24276260D01*
X84678068Y-24563158D01*
X84790010Y-24833411D01*
X84952525Y-25076632D01*
X85159368Y-25283475D01*
X85333760Y-25400000D01*
X85159368Y-25516525D01*
X84952525Y-25723368D01*
X84790010Y-25966589D01*
X84678068Y-26236842D01*
X84621000Y-26523740D01*
X84621000Y-26816260D01*
X84678068Y-27103158D01*
X84790010Y-27373411D01*
X84952525Y-27616632D01*
X85159368Y-27823475D01*
X85333760Y-27940000D01*
X85159368Y-28056525D01*
X84952525Y-28263368D01*
X84790010Y-28506589D01*
X84678068Y-28776842D01*
X84621000Y-29063740D01*
X84621000Y-29356260D01*
X84678068Y-29643158D01*
X84790010Y-29913411D01*
X84952525Y-30156632D01*
X85159368Y-30363475D01*
X85333760Y-30480000D01*
X85159368Y-30596525D01*
X84952525Y-30803368D01*
X84790010Y-31046589D01*
X84678068Y-31316842D01*
X84621000Y-31603740D01*
X84621000Y-31896260D01*
X84678068Y-32183158D01*
X84790010Y-32453411D01*
X84952525Y-32696632D01*
X85159368Y-32903475D01*
X85333760Y-33020000D01*
X85159368Y-33136525D01*
X84952525Y-33343368D01*
X84790010Y-33586589D01*
X84678068Y-33856842D01*
X84621000Y-34143740D01*
X84621000Y-34436260D01*
X84678068Y-34723158D01*
X84790010Y-34993411D01*
X84952525Y-35236632D01*
X85159368Y-35443475D01*
X85333760Y-35560000D01*
X85159368Y-35676525D01*
X84952525Y-35883368D01*
X84790010Y-36126589D01*
X84678068Y-36396842D01*
X84621000Y-36683740D01*
X84621000Y-36976260D01*
X84678068Y-37263158D01*
X84790010Y-37533411D01*
X84952525Y-37776632D01*
X85159368Y-37983475D01*
X85333760Y-38100000D01*
X85159368Y-38216525D01*
X84952525Y-38423368D01*
X84790010Y-38666589D01*
X84678068Y-38936842D01*
X84621000Y-39223740D01*
X84621000Y-39516260D01*
X84678068Y-39803158D01*
X84790010Y-40073411D01*
X84952525Y-40316632D01*
X85159368Y-40523475D01*
X85333760Y-40640000D01*
X85159368Y-40756525D01*
X84952525Y-40963368D01*
X84790010Y-41206589D01*
X84678068Y-41476842D01*
X84621000Y-41763740D01*
X84621000Y-42056260D01*
X84678068Y-42343158D01*
X84790010Y-42613411D01*
X84952525Y-42856632D01*
X85084380Y-42988487D01*
X85011820Y-43010498D01*
X84901506Y-43069463D01*
X84804815Y-43148815D01*
X84725463Y-43245506D01*
X84666498Y-43355820D01*
X84630188Y-43475518D01*
X84617928Y-43600000D01*
X68544072Y-43600000D01*
X68544072Y-42584000D01*
X68531812Y-42459518D01*
X68495502Y-42339820D01*
X68436537Y-42229506D01*
X68357185Y-42132815D01*
X68260494Y-42053463D01*
X68150180Y-41994498D01*
X68030482Y-41958188D01*
X67906000Y-41945928D01*
X66206000Y-41945928D01*
X66081518Y-41958188D01*
X65961820Y-41994498D01*
X65851506Y-42053463D01*
X65754815Y-42132815D01*
X65675463Y-42229506D01*
X65616498Y-42339820D01*
X65594487Y-42412380D01*
X65462632Y-42280525D01*
X65219411Y-42118010D01*
X64949158Y-42006068D01*
X64662260Y-41949000D01*
X64369740Y-41949000D01*
X64082842Y-42006068D01*
X63812589Y-42118010D01*
X63569368Y-42280525D01*
X63362525Y-42487368D01*
X63200010Y-42730589D01*
X63088068Y-43000842D01*
X63031000Y-43287740D01*
X61062980Y-43287740D01*
X61058637Y-43281241D01*
X60858759Y-43081363D01*
X60623727Y-42924320D01*
X60362574Y-42816147D01*
X60085335Y-42761000D01*
X59802665Y-42761000D01*
X59525426Y-42816147D01*
X59264273Y-42924320D01*
X59029241Y-43081363D01*
X58829363Y-43281241D01*
X58672320Y-43516273D01*
X58564147Y-43777426D01*
X58509000Y-44054665D01*
X51219000Y-44054665D01*
X51163853Y-43777426D01*
X51055680Y-43516273D01*
X50898637Y-43281241D01*
X50698759Y-43081363D01*
X50463727Y-42924320D01*
X50202574Y-42816147D01*
X49925335Y-42761000D01*
X49642665Y-42761000D01*
X49365426Y-42816147D01*
X49104273Y-42924320D01*
X48869241Y-43081363D01*
X48669363Y-43281241D01*
X48512320Y-43516273D01*
X48404147Y-43777426D01*
X48349000Y-44054665D01*
X46508144Y-44054665D01*
X46591853Y-43852574D01*
X46647000Y-43575335D01*
X46647000Y-43292665D01*
X46591853Y-43015426D01*
X46483680Y-42754273D01*
X46326637Y-42519241D01*
X46126759Y-42319363D01*
X45891727Y-42162320D01*
X45630574Y-42054147D01*
X45353335Y-41999000D01*
X45070665Y-41999000D01*
X44793426Y-42054147D01*
X44532273Y-42162320D01*
X44297241Y-42319363D01*
X44097363Y-42519241D01*
X43940320Y-42754273D01*
X43832147Y-43015426D01*
X43777000Y-43292665D01*
X40775745Y-43292665D01*
X40750537Y-43245506D01*
X40671185Y-43148815D01*
X40574494Y-43069463D01*
X40464180Y-43010498D01*
X40391620Y-42988487D01*
X40523475Y-42856632D01*
X40685990Y-42613411D01*
X40797932Y-42343158D01*
X40855000Y-42056260D01*
X40855000Y-41763740D01*
X40797932Y-41476842D01*
X40685990Y-41206589D01*
X40523475Y-40963368D01*
X40316632Y-40756525D01*
X40142240Y-40640000D01*
X40316632Y-40523475D01*
X40341442Y-40498665D01*
X48603000Y-40498665D01*
X48603000Y-40781335D01*
X48658147Y-41058574D01*
X48766320Y-41319727D01*
X48923363Y-41554759D01*
X49123241Y-41754637D01*
X49358273Y-41911680D01*
X49619426Y-42019853D01*
X49896665Y-42075000D01*
X50179335Y-42075000D01*
X50456574Y-42019853D01*
X50717727Y-41911680D01*
X50952759Y-41754637D01*
X51152637Y-41554759D01*
X51288000Y-41352173D01*
X51423363Y-41554759D01*
X51623241Y-41754637D01*
X51858273Y-41911680D01*
X52119426Y-42019853D01*
X52396665Y-42075000D01*
X52679335Y-42075000D01*
X52956574Y-42019853D01*
X53217727Y-41911680D01*
X53452759Y-41754637D01*
X53652637Y-41554759D01*
X53809680Y-41319727D01*
X53917853Y-41058574D01*
X53973000Y-40781335D01*
X53973000Y-40512387D01*
X61142218Y-40512387D01*
X61196093Y-40741468D01*
X61426684Y-40847763D01*
X61673581Y-40907028D01*
X61927296Y-40916988D01*
X62178079Y-40877259D01*
X62416293Y-40789368D01*
X62505907Y-40741468D01*
X62559782Y-40512387D01*
X61851000Y-39803605D01*
X61142218Y-40512387D01*
X53973000Y-40512387D01*
X53973000Y-40498665D01*
X53917853Y-40221426D01*
X53809680Y-39960273D01*
X53652637Y-39725241D01*
X53627692Y-39700296D01*
X60558012Y-39700296D01*
X60597741Y-39951079D01*
X60685632Y-40189293D01*
X60733532Y-40278907D01*
X60962613Y-40332782D01*
X61671395Y-39624000D01*
X62030605Y-39624000D01*
X62739387Y-40332782D01*
X62968468Y-40278907D01*
X63074763Y-40048316D01*
X63134028Y-39801419D01*
X63143988Y-39547704D01*
X63104259Y-39296921D01*
X63016368Y-39058707D01*
X62968468Y-38969093D01*
X62739387Y-38915218D01*
X62030605Y-39624000D01*
X61671395Y-39624000D01*
X60962613Y-38915218D01*
X60733532Y-38969093D01*
X60627237Y-39199684D01*
X60567972Y-39446581D01*
X60558012Y-39700296D01*
X53627692Y-39700296D01*
X53452759Y-39525363D01*
X53217727Y-39368320D01*
X52956574Y-39260147D01*
X52679335Y-39205000D01*
X52396665Y-39205000D01*
X52119426Y-39260147D01*
X51858273Y-39368320D01*
X51623241Y-39525363D01*
X51423363Y-39725241D01*
X51288000Y-39927827D01*
X51152637Y-39725241D01*
X50952759Y-39525363D01*
X50717727Y-39368320D01*
X50456574Y-39260147D01*
X50179335Y-39205000D01*
X49896665Y-39205000D01*
X49619426Y-39260147D01*
X49358273Y-39368320D01*
X49123241Y-39525363D01*
X48923363Y-39725241D01*
X48766320Y-39960273D01*
X48658147Y-40221426D01*
X48603000Y-40498665D01*
X40341442Y-40498665D01*
X40523475Y-40316632D01*
X40685990Y-40073411D01*
X40797932Y-39803158D01*
X40855000Y-39516260D01*
X40855000Y-39223740D01*
X40797932Y-38936842D01*
X40685990Y-38666589D01*
X40523475Y-38423368D01*
X40316632Y-38216525D01*
X40142240Y-38100000D01*
X40316632Y-37983475D01*
X40523475Y-37776632D01*
X40685990Y-37533411D01*
X40797932Y-37263158D01*
X40855000Y-36976260D01*
X40855000Y-36683740D01*
X40797932Y-36396842D01*
X40685990Y-36126589D01*
X40523475Y-35883368D01*
X40316632Y-35676525D01*
X40142240Y-35560000D01*
X40316632Y-35443475D01*
X40523475Y-35236632D01*
X40685990Y-34993411D01*
X40797932Y-34723158D01*
X40855000Y-34436260D01*
X40855000Y-34143740D01*
X40797932Y-33856842D01*
X40685990Y-33586589D01*
X40523475Y-33343368D01*
X40316632Y-33136525D01*
X40310856Y-33132665D01*
X43777000Y-33132665D01*
X43777000Y-33415335D01*
X43832147Y-33692574D01*
X43940320Y-33953727D01*
X44097363Y-34188759D01*
X44297241Y-34388637D01*
X44532273Y-34545680D01*
X44793426Y-34653853D01*
X45070665Y-34709000D01*
X45353335Y-34709000D01*
X45630574Y-34653853D01*
X45891727Y-34545680D01*
X46126759Y-34388637D01*
X46326637Y-34188759D01*
X46483680Y-33953727D01*
X46591853Y-33692574D01*
X46647000Y-33415335D01*
X46647000Y-33132665D01*
X47333000Y-33132665D01*
X47333000Y-33415335D01*
X47388147Y-33692574D01*
X47496320Y-33953727D01*
X47653363Y-34188759D01*
X47853241Y-34388637D01*
X48055827Y-34524000D01*
X47853241Y-34659363D01*
X47653363Y-34859241D01*
X47496320Y-35094273D01*
X47388147Y-35355426D01*
X47333000Y-35632665D01*
X47333000Y-35915335D01*
X47388147Y-36192574D01*
X47496320Y-36453727D01*
X47653363Y-36688759D01*
X47853241Y-36888637D01*
X48088273Y-37045680D01*
X48349426Y-37153853D01*
X48626665Y-37209000D01*
X48909335Y-37209000D01*
X49186574Y-37153853D01*
X49447727Y-37045680D01*
X49682759Y-36888637D01*
X49882637Y-36688759D01*
X50039680Y-36453727D01*
X50147853Y-36192574D01*
X50203000Y-35915335D01*
X50203000Y-35632665D01*
X50147853Y-35355426D01*
X50039680Y-35094273D01*
X49882637Y-34859241D01*
X49682759Y-34659363D01*
X49480173Y-34524000D01*
X49682759Y-34388637D01*
X49882637Y-34188759D01*
X50039680Y-33953727D01*
X50147853Y-33692574D01*
X50203000Y-33415335D01*
X50203000Y-33132665D01*
X50147853Y-32855426D01*
X50039680Y-32594273D01*
X49882637Y-32359241D01*
X49682759Y-32159363D01*
X49447727Y-32002320D01*
X49186574Y-31894147D01*
X48909335Y-31839000D01*
X48626665Y-31839000D01*
X48349426Y-31894147D01*
X48088273Y-32002320D01*
X47853241Y-32159363D01*
X47653363Y-32359241D01*
X47496320Y-32594273D01*
X47388147Y-32855426D01*
X47333000Y-33132665D01*
X46647000Y-33132665D01*
X46591853Y-32855426D01*
X46483680Y-32594273D01*
X46326637Y-32359241D01*
X46126759Y-32159363D01*
X45891727Y-32002320D01*
X45630574Y-31894147D01*
X45353335Y-31839000D01*
X45070665Y-31839000D01*
X44793426Y-31894147D01*
X44532273Y-32002320D01*
X44297241Y-32159363D01*
X44097363Y-32359241D01*
X43940320Y-32594273D01*
X43832147Y-32855426D01*
X43777000Y-33132665D01*
X40310856Y-33132665D01*
X40142240Y-33020000D01*
X40316632Y-32903475D01*
X40523475Y-32696632D01*
X40685990Y-32453411D01*
X40797932Y-32183158D01*
X40855000Y-31896260D01*
X40855000Y-31603740D01*
X40804528Y-31350000D01*
X60558928Y-31350000D01*
X60558928Y-32658000D01*
X60571188Y-32782482D01*
X60607498Y-32902180D01*
X60666463Y-33012494D01*
X60745815Y-33109185D01*
X60842506Y-33188537D01*
X60952820Y-33247502D01*
X61072518Y-33283812D01*
X61197000Y-33296072D01*
X61517560Y-33296072D01*
X61475013Y-33304535D01*
X61240430Y-33401703D01*
X61029310Y-33542768D01*
X60849768Y-33722310D01*
X60708703Y-33933430D01*
X60611535Y-34168013D01*
X60562000Y-34417045D01*
X60562000Y-34670955D01*
X60611535Y-34919987D01*
X60708703Y-35154570D01*
X60849768Y-35365690D01*
X61029310Y-35545232D01*
X61240430Y-35686297D01*
X61475013Y-35783465D01*
X61628524Y-35814000D01*
X61475013Y-35844535D01*
X61240430Y-35941703D01*
X61029310Y-36082768D01*
X60849768Y-36262310D01*
X60708703Y-36473430D01*
X60611535Y-36708013D01*
X60562000Y-36957045D01*
X60562000Y-37210955D01*
X60611535Y-37459987D01*
X60708703Y-37694570D01*
X60849768Y-37905690D01*
X61029310Y-38085232D01*
X61240430Y-38226297D01*
X61475013Y-38323465D01*
X61628999Y-38354094D01*
X61523921Y-38370741D01*
X61285707Y-38458632D01*
X61196093Y-38506532D01*
X61142218Y-38735613D01*
X61851000Y-39444395D01*
X62559782Y-38735613D01*
X62505907Y-38506532D01*
X62275316Y-38400237D01*
X62078516Y-38352997D01*
X62226987Y-38323465D01*
X62461570Y-38226297D01*
X62672690Y-38085232D01*
X62852232Y-37905690D01*
X62993297Y-37694570D01*
X63090465Y-37459987D01*
X63140000Y-37210955D01*
X63140000Y-36957045D01*
X63090465Y-36708013D01*
X62993297Y-36473430D01*
X62852232Y-36262310D01*
X62672690Y-36082768D01*
X62461570Y-35941703D01*
X62226987Y-35844535D01*
X62073476Y-35814000D01*
X62226987Y-35783465D01*
X62461570Y-35686297D01*
X62672690Y-35545232D01*
X62852232Y-35365690D01*
X62993297Y-35154570D01*
X63090465Y-34919987D01*
X63140000Y-34670955D01*
X63140000Y-34417045D01*
X63090465Y-34168013D01*
X62993297Y-33933430D01*
X62852232Y-33722310D01*
X62672690Y-33542768D01*
X62461570Y-33401703D01*
X62226987Y-33304535D01*
X62184440Y-33296072D01*
X62505000Y-33296072D01*
X62629482Y-33283812D01*
X62749180Y-33247502D01*
X62859494Y-33188537D01*
X62956185Y-33109185D01*
X63035537Y-33012494D01*
X63094502Y-32902180D01*
X63130812Y-32782482D01*
X63143072Y-32658000D01*
X63143072Y-31877045D01*
X68432000Y-31877045D01*
X68432000Y-32130955D01*
X68481535Y-32379987D01*
X68578703Y-32614570D01*
X68719768Y-32825690D01*
X68899310Y-33005232D01*
X69110430Y-33146297D01*
X69345013Y-33243465D01*
X69498524Y-33274000D01*
X69345013Y-33304535D01*
X69110430Y-33401703D01*
X68899310Y-33542768D01*
X68719768Y-33722310D01*
X68578703Y-33933430D01*
X68481535Y-34168013D01*
X68432000Y-34417045D01*
X68432000Y-34670955D01*
X68481535Y-34919987D01*
X68578703Y-35154570D01*
X68719768Y-35365690D01*
X68899310Y-35545232D01*
X69110430Y-35686297D01*
X69345013Y-35783465D01*
X69498524Y-35814000D01*
X69345013Y-35844535D01*
X69110430Y-35941703D01*
X68899310Y-36082768D01*
X68719768Y-36262310D01*
X68578703Y-36473430D01*
X68481535Y-36708013D01*
X68432000Y-36957045D01*
X68432000Y-37210955D01*
X68481535Y-37459987D01*
X68578703Y-37694570D01*
X68719768Y-37905690D01*
X68899310Y-38085232D01*
X69110430Y-38226297D01*
X69345013Y-38323465D01*
X69498524Y-38354000D01*
X69345013Y-38384535D01*
X69110430Y-38481703D01*
X68899310Y-38622768D01*
X68719768Y-38802310D01*
X68578703Y-39013430D01*
X68481535Y-39248013D01*
X68432000Y-39497045D01*
X68432000Y-39750955D01*
X68481535Y-39999987D01*
X68578703Y-40234570D01*
X68719768Y-40445690D01*
X68899310Y-40625232D01*
X69110430Y-40766297D01*
X69345013Y-40863465D01*
X69594045Y-40913000D01*
X69847955Y-40913000D01*
X70096987Y-40863465D01*
X70331570Y-40766297D01*
X70542690Y-40625232D01*
X70722232Y-40445690D01*
X70863297Y-40234570D01*
X70960465Y-39999987D01*
X71010000Y-39750955D01*
X71010000Y-39497045D01*
X70960465Y-39248013D01*
X70869333Y-39028000D01*
X75473928Y-39028000D01*
X75473928Y-40728000D01*
X75486188Y-40852482D01*
X75522498Y-40972180D01*
X75581463Y-41082494D01*
X75660815Y-41179185D01*
X75757506Y-41258537D01*
X75867820Y-41317502D01*
X75987518Y-41353812D01*
X76112000Y-41366072D01*
X77812000Y-41366072D01*
X77936482Y-41353812D01*
X78056180Y-41317502D01*
X78166494Y-41258537D01*
X78263185Y-41179185D01*
X78342537Y-41082494D01*
X78401502Y-40972180D01*
X78437812Y-40852482D01*
X78450072Y-40728000D01*
X78450072Y-39028000D01*
X78437812Y-38903518D01*
X78401502Y-38783820D01*
X78342537Y-38673506D01*
X78263185Y-38576815D01*
X78166494Y-38497463D01*
X78056180Y-38438498D01*
X77983620Y-38416487D01*
X78115475Y-38284632D01*
X78277990Y-38041411D01*
X78389932Y-37771158D01*
X78447000Y-37484260D01*
X78447000Y-37191740D01*
X78389932Y-36904842D01*
X78277990Y-36634589D01*
X78115475Y-36391368D01*
X77908632Y-36184525D01*
X77734240Y-36068000D01*
X77908632Y-35951475D01*
X78115475Y-35744632D01*
X78277990Y-35501411D01*
X78389932Y-35231158D01*
X78447000Y-34944260D01*
X78447000Y-34651740D01*
X78389932Y-34364842D01*
X78277990Y-34094589D01*
X78115475Y-33851368D01*
X77908632Y-33644525D01*
X77665411Y-33482010D01*
X77395158Y-33370068D01*
X77108260Y-33313000D01*
X76815740Y-33313000D01*
X76528842Y-33370068D01*
X76258589Y-33482010D01*
X76015368Y-33644525D01*
X75808525Y-33851368D01*
X75646010Y-34094589D01*
X75534068Y-34364842D01*
X75477000Y-34651740D01*
X75477000Y-34944260D01*
X75534068Y-35231158D01*
X75646010Y-35501411D01*
X75808525Y-35744632D01*
X76015368Y-35951475D01*
X76189760Y-36068000D01*
X76015368Y-36184525D01*
X75808525Y-36391368D01*
X75646010Y-36634589D01*
X75534068Y-36904842D01*
X75477000Y-37191740D01*
X75477000Y-37484260D01*
X75534068Y-37771158D01*
X75646010Y-38041411D01*
X75808525Y-38284632D01*
X75940380Y-38416487D01*
X75867820Y-38438498D01*
X75757506Y-38497463D01*
X75660815Y-38576815D01*
X75581463Y-38673506D01*
X75522498Y-38783820D01*
X75486188Y-38903518D01*
X75473928Y-39028000D01*
X70869333Y-39028000D01*
X70863297Y-39013430D01*
X70722232Y-38802310D01*
X70542690Y-38622768D01*
X70331570Y-38481703D01*
X70096987Y-38384535D01*
X69943476Y-38354000D01*
X70096987Y-38323465D01*
X70331570Y-38226297D01*
X70542690Y-38085232D01*
X70722232Y-37905690D01*
X70863297Y-37694570D01*
X70960465Y-37459987D01*
X71010000Y-37210955D01*
X71010000Y-36957045D01*
X70960465Y-36708013D01*
X70863297Y-36473430D01*
X70722232Y-36262310D01*
X70542690Y-36082768D01*
X70331570Y-35941703D01*
X70096987Y-35844535D01*
X69943476Y-35814000D01*
X70096987Y-35783465D01*
X70331570Y-35686297D01*
X70542690Y-35545232D01*
X70722232Y-35365690D01*
X70863297Y-35154570D01*
X70960465Y-34919987D01*
X71010000Y-34670955D01*
X71010000Y-34417045D01*
X70960465Y-34168013D01*
X70863297Y-33933430D01*
X70722232Y-33722310D01*
X70542690Y-33542768D01*
X70331570Y-33401703D01*
X70096987Y-33304535D01*
X69943476Y-33274000D01*
X70096987Y-33243465D01*
X70331570Y-33146297D01*
X70542690Y-33005232D01*
X70722232Y-32825690D01*
X70863297Y-32614570D01*
X70960465Y-32379987D01*
X71010000Y-32130955D01*
X71010000Y-31877045D01*
X70960465Y-31628013D01*
X70899846Y-31481665D01*
X71082000Y-31481665D01*
X71082000Y-31764335D01*
X71137147Y-32041574D01*
X71245320Y-32302727D01*
X71402363Y-32537759D01*
X71602241Y-32737637D01*
X71837273Y-32894680D01*
X72098426Y-33002853D01*
X72375665Y-33058000D01*
X72658335Y-33058000D01*
X72935574Y-33002853D01*
X73196727Y-32894680D01*
X73431759Y-32737637D01*
X73631637Y-32537759D01*
X73788680Y-32302727D01*
X73896853Y-32041574D01*
X73952000Y-31764335D01*
X73952000Y-31481665D01*
X73896853Y-31204426D01*
X73788680Y-30943273D01*
X73631637Y-30708241D01*
X73431759Y-30508363D01*
X73196727Y-30351320D01*
X72935574Y-30243147D01*
X72658335Y-30188000D01*
X72375665Y-30188000D01*
X72098426Y-30243147D01*
X71837273Y-30351320D01*
X71602241Y-30508363D01*
X71402363Y-30708241D01*
X71245320Y-30943273D01*
X71137147Y-31204426D01*
X71082000Y-31481665D01*
X70899846Y-31481665D01*
X70863297Y-31393430D01*
X70722232Y-31182310D01*
X70542690Y-31002768D01*
X70331570Y-30861703D01*
X70096987Y-30764535D01*
X69847955Y-30715000D01*
X69594045Y-30715000D01*
X69345013Y-30764535D01*
X69110430Y-30861703D01*
X68899310Y-31002768D01*
X68719768Y-31182310D01*
X68578703Y-31393430D01*
X68481535Y-31628013D01*
X68432000Y-31877045D01*
X63143072Y-31877045D01*
X63143072Y-31350000D01*
X63130812Y-31225518D01*
X63094502Y-31105820D01*
X63035537Y-30995506D01*
X62956185Y-30898815D01*
X62859494Y-30819463D01*
X62749180Y-30760498D01*
X62629482Y-30724188D01*
X62505000Y-30711928D01*
X61197000Y-30711928D01*
X61072518Y-30724188D01*
X60952820Y-30760498D01*
X60842506Y-30819463D01*
X60745815Y-30898815D01*
X60666463Y-30995506D01*
X60607498Y-31105820D01*
X60571188Y-31225518D01*
X60558928Y-31350000D01*
X40804528Y-31350000D01*
X40797932Y-31316842D01*
X40685990Y-31046589D01*
X40523475Y-30803368D01*
X40316632Y-30596525D01*
X40142240Y-30480000D01*
X40316632Y-30363475D01*
X40523475Y-30156632D01*
X40685990Y-29913411D01*
X40797932Y-29643158D01*
X40855000Y-29356260D01*
X40855000Y-29063740D01*
X40797932Y-28776842D01*
X40685990Y-28506589D01*
X40552406Y-28306665D01*
X46317000Y-28306665D01*
X46317000Y-28589335D01*
X46372147Y-28866574D01*
X46480320Y-29127727D01*
X46637363Y-29362759D01*
X46837241Y-29562637D01*
X47072273Y-29719680D01*
X47333426Y-29827853D01*
X47610665Y-29883000D01*
X47893335Y-29883000D01*
X48170574Y-29827853D01*
X48431727Y-29719680D01*
X48666759Y-29562637D01*
X48788694Y-29440702D01*
X49438903Y-29440702D01*
X49510486Y-29684671D01*
X49765996Y-29805571D01*
X50040184Y-29874300D01*
X50322512Y-29888217D01*
X50602130Y-29846787D01*
X50868292Y-29751603D01*
X50993514Y-29684671D01*
X51065097Y-29440702D01*
X50252000Y-28627605D01*
X49438903Y-29440702D01*
X48788694Y-29440702D01*
X48866637Y-29362759D01*
X49000692Y-29162131D01*
X49015329Y-29189514D01*
X49259298Y-29261097D01*
X50072395Y-28448000D01*
X50431605Y-28448000D01*
X51244702Y-29261097D01*
X51488671Y-29189514D01*
X51609571Y-28934004D01*
X51678300Y-28659816D01*
X51692217Y-28377488D01*
X51650787Y-28097870D01*
X51555603Y-27831708D01*
X51488671Y-27706486D01*
X51244702Y-27634903D01*
X50431605Y-28448000D01*
X50072395Y-28448000D01*
X49259298Y-27634903D01*
X49015329Y-27706486D01*
X49001676Y-27735341D01*
X48866637Y-27533241D01*
X48788694Y-27455298D01*
X49438903Y-27455298D01*
X50252000Y-28268395D01*
X51065097Y-27455298D01*
X50993514Y-27211329D01*
X50738004Y-27090429D01*
X50523518Y-27036665D01*
X53683000Y-27036665D01*
X53683000Y-27319335D01*
X53738147Y-27596574D01*
X53846320Y-27857727D01*
X54003363Y-28092759D01*
X54203241Y-28292637D01*
X54438273Y-28449680D01*
X54699426Y-28557853D01*
X54976665Y-28613000D01*
X55259335Y-28613000D01*
X55536574Y-28557853D01*
X55797727Y-28449680D01*
X56032759Y-28292637D01*
X56232637Y-28092759D01*
X56389680Y-27857727D01*
X56497853Y-27596574D01*
X56553000Y-27319335D01*
X56553000Y-27036665D01*
X63843000Y-27036665D01*
X63843000Y-27319335D01*
X63898147Y-27596574D01*
X64006320Y-27857727D01*
X64163363Y-28092759D01*
X64363241Y-28292637D01*
X64598273Y-28449680D01*
X64859426Y-28557853D01*
X65136665Y-28613000D01*
X65419335Y-28613000D01*
X65696574Y-28557853D01*
X65957727Y-28449680D01*
X66192759Y-28292637D01*
X66392637Y-28092759D01*
X66549680Y-27857727D01*
X66657853Y-27596574D01*
X66713000Y-27319335D01*
X66713000Y-27036665D01*
X66657853Y-26759426D01*
X66549680Y-26498273D01*
X66392637Y-26263241D01*
X66192759Y-26063363D01*
X65957727Y-25906320D01*
X65696574Y-25798147D01*
X65419335Y-25743000D01*
X65136665Y-25743000D01*
X64859426Y-25798147D01*
X64598273Y-25906320D01*
X64363241Y-26063363D01*
X64163363Y-26263241D01*
X64006320Y-26498273D01*
X63898147Y-26759426D01*
X63843000Y-27036665D01*
X56553000Y-27036665D01*
X56497853Y-26759426D01*
X56389680Y-26498273D01*
X56232637Y-26263241D01*
X56032759Y-26063363D01*
X55797727Y-25906320D01*
X55536574Y-25798147D01*
X55259335Y-25743000D01*
X54976665Y-25743000D01*
X54699426Y-25798147D01*
X54438273Y-25906320D01*
X54203241Y-26063363D01*
X54003363Y-26263241D01*
X53846320Y-26498273D01*
X53738147Y-26759426D01*
X53683000Y-27036665D01*
X50523518Y-27036665D01*
X50463816Y-27021700D01*
X50181488Y-27007783D01*
X49901870Y-27049213D01*
X49635708Y-27144397D01*
X49510486Y-27211329D01*
X49438903Y-27455298D01*
X48788694Y-27455298D01*
X48666759Y-27333363D01*
X48431727Y-27176320D01*
X48170574Y-27068147D01*
X47893335Y-27013000D01*
X47610665Y-27013000D01*
X47333426Y-27068147D01*
X47072273Y-27176320D01*
X46837241Y-27333363D01*
X46637363Y-27533241D01*
X46480320Y-27768273D01*
X46372147Y-28029426D01*
X46317000Y-28306665D01*
X40552406Y-28306665D01*
X40523475Y-28263368D01*
X40316632Y-28056525D01*
X40142240Y-27940000D01*
X40316632Y-27823475D01*
X40523475Y-27616632D01*
X40685990Y-27373411D01*
X40797932Y-27103158D01*
X40855000Y-26816260D01*
X40855000Y-26523740D01*
X40797932Y-26236842D01*
X40685990Y-25966589D01*
X40523475Y-25723368D01*
X40383614Y-25583507D01*
X75160669Y-25583507D01*
X75199761Y-25809404D01*
X75282172Y-26023334D01*
X75404736Y-26217076D01*
X75562742Y-26383184D01*
X75750118Y-26515275D01*
X75959663Y-26608272D01*
X76021190Y-26616964D01*
X76200000Y-26491163D01*
X76200000Y-25400000D01*
X75320402Y-25400000D01*
X75160669Y-25583507D01*
X40383614Y-25583507D01*
X40316632Y-25516525D01*
X40142240Y-25400000D01*
X40316632Y-25283475D01*
X40523475Y-25076632D01*
X40685990Y-24833411D01*
X40797932Y-24563158D01*
X40855000Y-24276260D01*
X40855000Y-23983740D01*
X40797932Y-23696842D01*
X40685990Y-23426589D01*
X40523475Y-23183368D01*
X40416107Y-23076000D01*
X46313928Y-23076000D01*
X46313928Y-24676000D01*
X46326188Y-24800482D01*
X46362498Y-24920180D01*
X46421463Y-25030494D01*
X46500815Y-25127185D01*
X46597506Y-25206537D01*
X46707820Y-25265502D01*
X46827518Y-25301812D01*
X46952000Y-25314072D01*
X48552000Y-25314072D01*
X48676482Y-25301812D01*
X48796180Y-25265502D01*
X48906494Y-25206537D01*
X49003185Y-25127185D01*
X49013807Y-25114242D01*
X49265996Y-25233571D01*
X49540184Y-25302300D01*
X49822512Y-25316217D01*
X50102130Y-25274787D01*
X50368292Y-25179603D01*
X50493514Y-25112671D01*
X50565097Y-24868702D01*
X49752000Y-24055605D01*
X49737858Y-24069748D01*
X49558253Y-23890143D01*
X49572395Y-23876000D01*
X49931605Y-23876000D01*
X50744702Y-24689097D01*
X50988671Y-24617514D01*
X51109571Y-24362004D01*
X51143903Y-24225039D01*
X53726096Y-24225039D01*
X53766754Y-24359087D01*
X53886963Y-24613420D01*
X54054481Y-24839414D01*
X54262869Y-25028385D01*
X54504119Y-25173070D01*
X54768960Y-25267909D01*
X54991000Y-25146624D01*
X54991000Y-24003000D01*
X55245000Y-24003000D01*
X55245000Y-25146624D01*
X55467040Y-25267909D01*
X55731881Y-25173070D01*
X55973131Y-25028385D01*
X56181519Y-24839414D01*
X56349037Y-24613420D01*
X56469246Y-24359087D01*
X56509904Y-24225039D01*
X56387915Y-24003000D01*
X55245000Y-24003000D01*
X54991000Y-24003000D01*
X53848085Y-24003000D01*
X53726096Y-24225039D01*
X51143903Y-24225039D01*
X51178300Y-24087816D01*
X51192217Y-23805488D01*
X51150949Y-23526961D01*
X53726096Y-23526961D01*
X53848085Y-23749000D01*
X54991000Y-23749000D01*
X54991000Y-22605376D01*
X55245000Y-22605376D01*
X55245000Y-23749000D01*
X56387915Y-23749000D01*
X56395790Y-23734665D01*
X63843000Y-23734665D01*
X63843000Y-24017335D01*
X63898147Y-24294574D01*
X64006320Y-24555727D01*
X64163363Y-24790759D01*
X64363241Y-24990637D01*
X64598273Y-25147680D01*
X64859426Y-25255853D01*
X65136665Y-25311000D01*
X65419335Y-25311000D01*
X65696574Y-25255853D01*
X65957727Y-25147680D01*
X66192759Y-24990637D01*
X66392637Y-24790759D01*
X66549680Y-24555727D01*
X66657853Y-24294574D01*
X66713000Y-24017335D01*
X66713000Y-23861665D01*
X71082000Y-23861665D01*
X71082000Y-24144335D01*
X71137147Y-24421574D01*
X71245320Y-24682727D01*
X71402363Y-24917759D01*
X71602241Y-25117637D01*
X71837273Y-25274680D01*
X72098426Y-25382853D01*
X72375665Y-25438000D01*
X72658335Y-25438000D01*
X72935574Y-25382853D01*
X73196727Y-25274680D01*
X73431759Y-25117637D01*
X73586903Y-24962493D01*
X75160669Y-24962493D01*
X75320402Y-25146000D01*
X76200000Y-25146000D01*
X76200000Y-24991021D01*
X76437000Y-24991021D01*
X76437000Y-25554978D01*
X76453785Y-25725399D01*
X76454000Y-25726108D01*
X76454000Y-26491163D01*
X76632810Y-26616964D01*
X76694337Y-26608272D01*
X76903882Y-26515275D01*
X76962331Y-26474071D01*
X77150940Y-26574885D01*
X77369600Y-26641215D01*
X77597000Y-26663612D01*
X77824399Y-26641215D01*
X78033098Y-26577907D01*
X78097820Y-26612502D01*
X78217518Y-26648812D01*
X78342000Y-26661072D01*
X79392000Y-26661072D01*
X79516482Y-26648812D01*
X79636180Y-26612502D01*
X79746494Y-26553537D01*
X79843185Y-26474185D01*
X79922537Y-26377494D01*
X79981502Y-26267180D01*
X80017812Y-26147482D01*
X80030072Y-26023000D01*
X80030072Y-24523000D01*
X80017812Y-24398518D01*
X79981502Y-24278820D01*
X79922537Y-24168506D01*
X79843185Y-24071815D01*
X79746494Y-23992463D01*
X79636180Y-23933498D01*
X79516482Y-23897188D01*
X79392000Y-23884928D01*
X78342000Y-23884928D01*
X78217518Y-23897188D01*
X78097820Y-23933498D01*
X78033098Y-23968093D01*
X77824400Y-23904785D01*
X77597000Y-23882388D01*
X77369601Y-23904785D01*
X77150941Y-23971115D01*
X76962331Y-24071929D01*
X76903882Y-24030725D01*
X76694337Y-23937728D01*
X76632810Y-23929036D01*
X76454000Y-24054837D01*
X76454000Y-24819891D01*
X76453785Y-24820600D01*
X76437000Y-24991021D01*
X76200000Y-24991021D01*
X76200000Y-24054837D01*
X76021190Y-23929036D01*
X75959663Y-23937728D01*
X75750118Y-24030725D01*
X75562742Y-24162816D01*
X75404736Y-24328924D01*
X75282172Y-24522666D01*
X75199761Y-24736596D01*
X75160669Y-24962493D01*
X73586903Y-24962493D01*
X73631637Y-24917759D01*
X73788680Y-24682727D01*
X73896853Y-24421574D01*
X73952000Y-24144335D01*
X73952000Y-23861665D01*
X73896853Y-23584426D01*
X73788680Y-23323273D01*
X73631637Y-23088241D01*
X73431759Y-22888363D01*
X73196727Y-22731320D01*
X72935574Y-22623147D01*
X72658335Y-22568000D01*
X72375665Y-22568000D01*
X72098426Y-22623147D01*
X71837273Y-22731320D01*
X71602241Y-22888363D01*
X71402363Y-23088241D01*
X71245320Y-23323273D01*
X71137147Y-23584426D01*
X71082000Y-23861665D01*
X66713000Y-23861665D01*
X66713000Y-23734665D01*
X66657853Y-23457426D01*
X66549680Y-23196273D01*
X66392637Y-22961241D01*
X66192759Y-22761363D01*
X65957727Y-22604320D01*
X65696574Y-22496147D01*
X65419335Y-22441000D01*
X65136665Y-22441000D01*
X64859426Y-22496147D01*
X64598273Y-22604320D01*
X64363241Y-22761363D01*
X64163363Y-22961241D01*
X64006320Y-23196273D01*
X63898147Y-23457426D01*
X63843000Y-23734665D01*
X56395790Y-23734665D01*
X56509904Y-23526961D01*
X56469246Y-23392913D01*
X56349037Y-23138580D01*
X56181519Y-22912586D01*
X55973131Y-22723615D01*
X55731881Y-22578930D01*
X55467040Y-22484091D01*
X55245000Y-22605376D01*
X54991000Y-22605376D01*
X54768960Y-22484091D01*
X54504119Y-22578930D01*
X54262869Y-22723615D01*
X54054481Y-22912586D01*
X53886963Y-23138580D01*
X53766754Y-23392913D01*
X53726096Y-23526961D01*
X51150949Y-23526961D01*
X51150787Y-23525870D01*
X51055603Y-23259708D01*
X50988671Y-23134486D01*
X50744702Y-23062903D01*
X49931605Y-23876000D01*
X49572395Y-23876000D01*
X49558253Y-23861858D01*
X49737858Y-23682253D01*
X49752000Y-23696395D01*
X50565097Y-22883298D01*
X50493514Y-22639329D01*
X50238004Y-22518429D01*
X49963816Y-22449700D01*
X49681488Y-22435783D01*
X49401870Y-22477213D01*
X49135708Y-22572397D01*
X49013691Y-22637616D01*
X49003185Y-22624815D01*
X48906494Y-22545463D01*
X48796180Y-22486498D01*
X48676482Y-22450188D01*
X48552000Y-22437928D01*
X46952000Y-22437928D01*
X46827518Y-22450188D01*
X46707820Y-22486498D01*
X46597506Y-22545463D01*
X46500815Y-22624815D01*
X46421463Y-22721506D01*
X46362498Y-22831820D01*
X46326188Y-22951518D01*
X46313928Y-23076000D01*
X40416107Y-23076000D01*
X40316632Y-22976525D01*
X40142240Y-22860000D01*
X40316632Y-22743475D01*
X40523475Y-22536632D01*
X40685990Y-22293411D01*
X40797932Y-22023158D01*
X40855000Y-21736260D01*
X40855000Y-21443740D01*
X40813103Y-21233110D01*
X84664524Y-21233110D01*
X84785845Y-21463000D01*
X85979000Y-21463000D01*
X85979000Y-20269186D01*
X86233000Y-20269186D01*
X86233000Y-21463000D01*
X87426155Y-21463000D01*
X87547476Y-21233110D01*
X87502825Y-21085901D01*
X87377641Y-20823080D01*
X87203588Y-20589731D01*
X86987355Y-20394822D01*
X86737252Y-20245843D01*
X86462891Y-20148519D01*
X86233000Y-20269186D01*
X85979000Y-20269186D01*
X85749109Y-20148519D01*
X85474748Y-20245843D01*
X85224645Y-20394822D01*
X85008412Y-20589731D01*
X84834359Y-20823080D01*
X84709175Y-21085901D01*
X84664524Y-21233110D01*
X40813103Y-21233110D01*
X40797932Y-21156842D01*
X40685990Y-20886589D01*
X40523475Y-20643368D01*
X40316632Y-20436525D01*
X40073411Y-20274010D01*
X39803158Y-20162068D01*
X39516260Y-20105000D01*
X39223740Y-20105000D01*
X38936842Y-20162068D01*
X38666589Y-20274010D01*
X38423368Y-20436525D01*
X38216525Y-20643368D01*
X38054010Y-20886589D01*
X37942068Y-21156842D01*
X37885000Y-21443740D01*
X37885000Y-21736260D01*
X37942068Y-22023158D01*
X38054010Y-22293411D01*
X38216525Y-22536632D01*
X38423368Y-22743475D01*
X38597760Y-22860000D01*
X38423368Y-22976525D01*
X38216525Y-23183368D01*
X38054010Y-23426589D01*
X37942068Y-23696842D01*
X37885000Y-23983740D01*
X37885000Y-24276260D01*
X37942068Y-24563158D01*
X38054010Y-24833411D01*
X38216525Y-25076632D01*
X38423368Y-25283475D01*
X38597760Y-25400000D01*
X38423368Y-25516525D01*
X38216525Y-25723368D01*
X38054010Y-25966589D01*
X37942068Y-26236842D01*
X37885000Y-26523740D01*
X37885000Y-26816260D01*
X37942068Y-27103158D01*
X38054010Y-27373411D01*
X38216525Y-27616632D01*
X38423368Y-27823475D01*
X38597760Y-27940000D01*
X38423368Y-28056525D01*
X38216525Y-28263368D01*
X38054010Y-28506589D01*
X37942068Y-28776842D01*
X37885000Y-29063740D01*
X37885000Y-29356260D01*
X37942068Y-29643158D01*
X38054010Y-29913411D01*
X38216525Y-30156632D01*
X38423368Y-30363475D01*
X38597760Y-30480000D01*
X38423368Y-30596525D01*
X38216525Y-30803368D01*
X38054010Y-31046589D01*
X37942068Y-31316842D01*
X37885000Y-31603740D01*
X37885000Y-31896260D01*
X37942068Y-32183158D01*
X38054010Y-32453411D01*
X38216525Y-32696632D01*
X38423368Y-32903475D01*
X38597760Y-33020000D01*
X38423368Y-33136525D01*
X38216525Y-33343368D01*
X38054010Y-33586589D01*
X37942068Y-33856842D01*
X37885000Y-34143740D01*
X37885000Y-34436260D01*
X37942068Y-34723158D01*
X38054010Y-34993411D01*
X38216525Y-35236632D01*
X38423368Y-35443475D01*
X38597760Y-35560000D01*
X38423368Y-35676525D01*
X38216525Y-35883368D01*
X38054010Y-36126589D01*
X37942068Y-36396842D01*
X37885000Y-36683740D01*
X37885000Y-36976260D01*
X37942068Y-37263158D01*
X38054010Y-37533411D01*
X38216525Y-37776632D01*
X38423368Y-37983475D01*
X38597760Y-38100000D01*
X38423368Y-38216525D01*
X38216525Y-38423368D01*
X38054010Y-38666589D01*
X37942068Y-38936842D01*
X37885000Y-39223740D01*
X37885000Y-39516260D01*
X37942068Y-39803158D01*
X38054010Y-40073411D01*
X38216525Y-40316632D01*
X38423368Y-40523475D01*
X38597760Y-40640000D01*
X38423368Y-40756525D01*
X38216525Y-40963368D01*
X38054010Y-41206589D01*
X37942068Y-41476842D01*
X37885000Y-41763740D01*
X37885000Y-42056260D01*
X37942068Y-42343158D01*
X38054010Y-42613411D01*
X38216525Y-42856632D01*
X38348380Y-42988487D01*
X38275820Y-43010498D01*
X38165506Y-43069463D01*
X38068815Y-43148815D01*
X37989463Y-43245506D01*
X37930498Y-43355820D01*
X37894188Y-43475518D01*
X37881928Y-43600000D01*
X36449000Y-43600000D01*
X36449000Y-18669000D01*
X88011000Y-18669000D01*
X88011000Y-47575000D01*
G37*
%TD.AperFunction*%
%TD*%
M02*
