%FSLAX45Y45*%
G04 Gerber Fmt 4.5, Leading zero omitted, Abs format (unit mm)*
G04 Created by KiCad (PCBNEW (5.1.7)-1) date 2021-04-11 18:09:23*
%MOMM*%
%LPD*%
G01*
G04 APERTURE LIST*
%TA.AperFunction,Profile*%
%ADD10C,0.100000*%
%TD*%
%ADD11C,0.200000*%
%ADD12C,0.300000*%
G04 APERTURE END LIST*
D10*
X5564378Y-5339334D02*
X4191000Y-5339334D01*
X5564378Y-2024126D02*
X4191000Y-2024126D01*
X4191000Y-2024126D02*
X4191000Y-5339334D01*
X11438636Y-2024126D02*
X11438636Y-5339334D01*
X5564378Y-2024126D02*
X11438636Y-2024126D01*
X11438636Y-5339334D02*
X5564378Y-5339334D01*
D11*
X5042500Y-3772500D02*
X5117500Y-3847500D01*
X5117500Y-3772500D02*
X5042500Y-3847500D01*
X5169500Y-3772500D02*
X5244500Y-3847500D01*
X5244500Y-3772500D02*
X5169500Y-3847500D01*
X5296500Y-3772500D02*
X5371500Y-3847500D01*
X5371500Y-3772500D02*
X5296500Y-3847500D01*
X8041000Y-3937000D02*
G75*
G03*
X8041000Y-3937000I-40000J0D01*
G01*
X9057000Y-3937000D02*
G75*
G03*
X9057000Y-3937000I-40000J0D01*
G01*
X5755000Y-3429000D02*
G75*
G03*
X5755000Y-3429000I-40000J0D01*
G01*
X5755000Y-4445000D02*
G75*
G03*
X5755000Y-4445000I-40000J0D01*
G01*
X8041000Y-4318000D02*
G75*
G03*
X8041000Y-4318000I-40000J0D01*
G01*
X9057000Y-4318000D02*
G75*
G03*
X9057000Y-4318000I-40000J0D01*
G01*
X10327000Y-2469810D02*
G75*
G03*
X10327000Y-2469810I-40000J0D01*
G01*
X10327000Y-3485810D02*
G75*
G03*
X10327000Y-3485810I-40000J0D01*
G01*
X9565000Y-3924500D02*
G75*
G03*
X9565000Y-3924500I-40000J0D01*
G01*
X9565000Y-4711500D02*
G75*
G03*
X9565000Y-4711500I-40000J0D01*
G01*
X9819000Y-3924500D02*
G75*
G03*
X9819000Y-3924500I-40000J0D01*
G01*
X9819000Y-4711500D02*
G75*
G03*
X9819000Y-4711500I-40000J0D01*
G01*
X10073000Y-3924500D02*
G75*
G03*
X10073000Y-3924500I-40000J0D01*
G01*
X10073000Y-4711500D02*
G75*
G03*
X10073000Y-4711500I-40000J0D01*
G01*
X10327000Y-3924500D02*
G75*
G03*
X10327000Y-3924500I-40000J0D01*
G01*
X10327000Y-4711500D02*
G75*
G03*
X10327000Y-4711500I-40000J0D01*
G01*
X8409300Y-2544810D02*
G75*
G03*
X8409300Y-2544810I-40000J0D01*
G01*
X8663300Y-2544810D02*
G75*
G03*
X8663300Y-2544810I-40000J0D01*
G01*
X8917300Y-2544810D02*
G75*
G03*
X8917300Y-2544810I-40000J0D01*
G01*
X10904524Y-2543810D02*
G75*
G03*
X10904524Y-2543810I-40000J0D01*
G01*
X10904524Y-2797810D02*
G75*
G03*
X10904524Y-2797810I-40000J0D01*
G01*
X10904524Y-3051810D02*
G75*
G03*
X10904524Y-3051810I-40000J0D01*
G01*
X10904524Y-3305810D02*
G75*
G03*
X10904524Y-3305810I-40000J0D01*
G01*
X10904524Y-3559810D02*
G75*
G03*
X10904524Y-3559810I-40000J0D01*
G01*
X10904524Y-3813810D02*
G75*
G03*
X10904524Y-3813810I-40000J0D01*
G01*
X10904524Y-4067810D02*
G75*
G03*
X10904524Y-4067810I-40000J0D01*
G01*
X10904524Y-4321810D02*
G75*
G03*
X10904524Y-4321810I-40000J0D01*
G01*
X10904524Y-4575810D02*
G75*
G03*
X10904524Y-4575810I-40000J0D01*
G01*
X9946000Y-2469810D02*
G75*
G03*
X9946000Y-2469810I-40000J0D01*
G01*
X9946000Y-3485810D02*
G75*
G03*
X9946000Y-3485810I-40000J0D01*
G01*
X8799000Y-4826000D02*
G75*
G03*
X8799000Y-4826000I-40000J0D01*
G01*
X9438000Y-2905810D02*
G75*
G03*
X9438000Y-2905810I-40000J0D01*
G01*
X9438000Y-3159810D02*
G75*
G03*
X9438000Y-3159810I-40000J0D01*
G01*
X9438000Y-3413810D02*
G75*
G03*
X9438000Y-3413810I-40000J0D01*
G01*
X8041000Y-3302000D02*
G75*
G03*
X8041000Y-3302000I-40000J0D01*
G01*
X8041000Y-3556000D02*
G75*
G03*
X8041000Y-3556000I-40000J0D01*
G01*
X5501000Y-2540000D02*
G75*
G03*
X5501000Y-2540000I-40000J0D01*
G01*
X5755000Y-2540000D02*
G75*
G03*
X5755000Y-2540000I-40000J0D01*
G01*
X5120000Y-4829810D02*
G75*
G03*
X5120000Y-4829810I-40000J0D01*
G01*
X5374000Y-4829810D02*
G75*
G03*
X5374000Y-4829810I-40000J0D01*
G01*
X7914000Y-4826000D02*
G75*
G03*
X7914000Y-4826000I-40000J0D01*
G01*
X8164000Y-4826000D02*
G75*
G03*
X8164000Y-4826000I-40000J0D01*
G01*
X7025000Y-3429000D02*
G75*
G03*
X7025000Y-3429000I-40000J0D01*
G01*
X7025000Y-4445000D02*
G75*
G03*
X7025000Y-4445000I-40000J0D01*
G01*
X8680000Y-3048000D02*
G75*
G03*
X8680000Y-3048000I-40000J0D01*
G01*
X8930000Y-3048000D02*
G75*
G03*
X8930000Y-3048000I-40000J0D01*
G01*
X7279000Y-2544810D02*
G75*
G03*
X7279000Y-2544810I-40000J0D01*
G01*
X7533000Y-2544810D02*
G75*
G03*
X7533000Y-2544810I-40000J0D01*
G01*
X7787000Y-2544810D02*
G75*
G03*
X7787000Y-2544810I-40000J0D01*
G01*
X6264524Y-2544810D02*
G75*
G03*
X6264524Y-2544810I-40000J0D01*
G01*
X6264524Y-2798810D02*
G75*
G03*
X6264524Y-2798810I-40000J0D01*
G01*
X6264524Y-3052810D02*
G75*
G03*
X6264524Y-3052810I-40000J0D01*
G01*
X6264524Y-3306810D02*
G75*
G03*
X6264524Y-3306810I-40000J0D01*
G01*
X6264524Y-3560810D02*
G75*
G03*
X6264524Y-3560810I-40000J0D01*
G01*
X6264524Y-3814810D02*
G75*
G03*
X6264524Y-3814810I-40000J0D01*
G01*
X6264524Y-4068810D02*
G75*
G03*
X6264524Y-4068810I-40000J0D01*
G01*
X6264524Y-4322810D02*
G75*
G03*
X6264524Y-4322810I-40000J0D01*
G01*
X6264524Y-4576810D02*
G75*
G03*
X6264524Y-4576810I-40000J0D01*
G01*
X6264524Y-4830810D02*
G75*
G03*
X6264524Y-4830810I-40000J0D01*
G01*
X6985000Y-4779810D02*
X6985000Y-4879810D01*
X6935000Y-4829810D02*
X7035000Y-4829810D01*
X7239000Y-4779810D02*
X7239000Y-4879810D01*
X7189000Y-4829810D02*
X7289000Y-4829810D01*
X10864524Y-4779810D02*
X10864524Y-4879810D01*
X10814524Y-4829810D02*
X10914524Y-4829810D01*
X8509000Y-4776000D02*
X8509000Y-4876000D01*
X8459000Y-4826000D02*
X8559000Y-4826000D01*
X8001000Y-2998000D02*
X8001000Y-3098000D01*
X7951000Y-3048000D02*
X8051000Y-3048000D01*
X4737891Y-3086891D02*
X4737891Y-3009109D01*
X4660109Y-3009109D01*
X4660109Y-3086891D01*
X4737891Y-3086891D01*
X5753891Y-3086891D02*
X5753891Y-3009109D01*
X5676109Y-3009109D01*
X5676109Y-3086891D01*
X5753891Y-3086891D01*
D12*
X4472428Y-5810048D02*
X4472428Y-5510048D01*
X4543857Y-5510048D01*
X4586714Y-5524334D01*
X4615286Y-5552906D01*
X4629571Y-5581477D01*
X4643857Y-5638620D01*
X4643857Y-5681477D01*
X4629571Y-5738620D01*
X4615286Y-5767191D01*
X4586714Y-5795763D01*
X4543857Y-5810048D01*
X4472428Y-5810048D01*
X4772428Y-5810048D02*
X4772428Y-5610048D01*
X4772428Y-5667191D02*
X4786714Y-5638620D01*
X4801000Y-5624334D01*
X4829571Y-5610048D01*
X4858143Y-5610048D01*
X4958143Y-5810048D02*
X4958143Y-5610048D01*
X4958143Y-5510048D02*
X4943857Y-5524334D01*
X4958143Y-5538620D01*
X4972428Y-5524334D01*
X4958143Y-5510048D01*
X4958143Y-5538620D01*
X5143857Y-5810048D02*
X5115286Y-5795763D01*
X5101000Y-5767191D01*
X5101000Y-5510048D01*
X5301000Y-5810048D02*
X5272428Y-5795763D01*
X5258143Y-5767191D01*
X5258143Y-5510048D01*
X5643857Y-5810048D02*
X5643857Y-5510048D01*
X5743857Y-5724334D01*
X5843857Y-5510048D01*
X5843857Y-5810048D01*
X6115286Y-5810048D02*
X6115286Y-5652905D01*
X6101000Y-5624334D01*
X6072428Y-5610048D01*
X6015286Y-5610048D01*
X5986714Y-5624334D01*
X6115286Y-5795763D02*
X6086714Y-5810048D01*
X6015286Y-5810048D01*
X5986714Y-5795763D01*
X5972428Y-5767191D01*
X5972428Y-5738620D01*
X5986714Y-5710048D01*
X6015286Y-5695763D01*
X6086714Y-5695763D01*
X6115286Y-5681477D01*
X6258143Y-5610048D02*
X6258143Y-5910048D01*
X6258143Y-5624334D02*
X6286714Y-5610048D01*
X6343857Y-5610048D01*
X6372428Y-5624334D01*
X6386714Y-5638620D01*
X6401000Y-5667191D01*
X6401000Y-5752905D01*
X6386714Y-5781477D01*
X6372428Y-5795763D01*
X6343857Y-5810048D01*
X6286714Y-5810048D01*
X6258143Y-5795763D01*
X6529571Y-5781477D02*
X6543857Y-5795763D01*
X6529571Y-5810048D01*
X6515286Y-5795763D01*
X6529571Y-5781477D01*
X6529571Y-5810048D01*
X6529571Y-5624334D02*
X6543857Y-5638620D01*
X6529571Y-5652905D01*
X6515286Y-5638620D01*
X6529571Y-5624334D01*
X6529571Y-5652905D01*
X4111000Y-6266834D02*
X4186000Y-6341834D01*
X4186000Y-6266834D02*
X4111000Y-6341834D01*
X4529571Y-6140048D02*
X4558143Y-6140048D01*
X4586714Y-6154334D01*
X4601000Y-6168620D01*
X4615286Y-6197191D01*
X4629571Y-6254334D01*
X4629571Y-6325763D01*
X4615286Y-6382905D01*
X4601000Y-6411477D01*
X4586714Y-6425763D01*
X4558143Y-6440048D01*
X4529571Y-6440048D01*
X4501000Y-6425763D01*
X4486714Y-6411477D01*
X4472428Y-6382905D01*
X4458143Y-6325763D01*
X4458143Y-6254334D01*
X4472428Y-6197191D01*
X4486714Y-6168620D01*
X4501000Y-6154334D01*
X4529571Y-6140048D01*
X4758143Y-6411477D02*
X4772428Y-6425763D01*
X4758143Y-6440048D01*
X4743857Y-6425763D01*
X4758143Y-6411477D01*
X4758143Y-6440048D01*
X4872428Y-6140048D02*
X5072428Y-6140048D01*
X4943857Y-6440048D01*
X5329571Y-6140048D02*
X5186714Y-6140048D01*
X5172428Y-6282905D01*
X5186714Y-6268620D01*
X5215286Y-6254334D01*
X5286714Y-6254334D01*
X5315286Y-6268620D01*
X5329571Y-6282905D01*
X5343857Y-6311477D01*
X5343857Y-6382905D01*
X5329571Y-6411477D01*
X5315286Y-6425763D01*
X5286714Y-6440048D01*
X5215286Y-6440048D01*
X5186714Y-6425763D01*
X5172428Y-6411477D01*
X5472428Y-6440048D02*
X5472428Y-6240048D01*
X5472428Y-6268620D02*
X5486714Y-6254334D01*
X5515286Y-6240048D01*
X5558143Y-6240048D01*
X5586714Y-6254334D01*
X5601000Y-6282905D01*
X5601000Y-6440048D01*
X5601000Y-6282905D02*
X5615286Y-6254334D01*
X5643857Y-6240048D01*
X5686714Y-6240048D01*
X5715286Y-6254334D01*
X5729571Y-6282905D01*
X5729571Y-6440048D01*
X5872428Y-6440048D02*
X5872428Y-6240048D01*
X5872428Y-6268620D02*
X5886714Y-6254334D01*
X5915286Y-6240048D01*
X5958143Y-6240048D01*
X5986714Y-6254334D01*
X6001000Y-6282905D01*
X6001000Y-6440048D01*
X6001000Y-6282905D02*
X6015286Y-6254334D01*
X6043857Y-6240048D01*
X6086714Y-6240048D01*
X6115286Y-6254334D01*
X6129571Y-6282905D01*
X6129571Y-6440048D01*
X6715286Y-6125763D02*
X6458143Y-6511477D01*
X7101000Y-6140048D02*
X7129571Y-6140048D01*
X7158143Y-6154334D01*
X7172428Y-6168620D01*
X7186714Y-6197191D01*
X7201000Y-6254334D01*
X7201000Y-6325763D01*
X7186714Y-6382905D01*
X7172428Y-6411477D01*
X7158143Y-6425763D01*
X7129571Y-6440048D01*
X7101000Y-6440048D01*
X7072428Y-6425763D01*
X7058143Y-6411477D01*
X7043857Y-6382905D01*
X7029571Y-6325763D01*
X7029571Y-6254334D01*
X7043857Y-6197191D01*
X7058143Y-6168620D01*
X7072428Y-6154334D01*
X7101000Y-6140048D01*
X7329571Y-6411477D02*
X7343857Y-6425763D01*
X7329571Y-6440048D01*
X7315286Y-6425763D01*
X7329571Y-6411477D01*
X7329571Y-6440048D01*
X7529571Y-6140048D02*
X7558143Y-6140048D01*
X7586714Y-6154334D01*
X7601000Y-6168620D01*
X7615286Y-6197191D01*
X7629571Y-6254334D01*
X7629571Y-6325763D01*
X7615286Y-6382905D01*
X7601000Y-6411477D01*
X7586714Y-6425763D01*
X7558143Y-6440048D01*
X7529571Y-6440048D01*
X7501000Y-6425763D01*
X7486714Y-6411477D01*
X7472428Y-6382905D01*
X7458143Y-6325763D01*
X7458143Y-6254334D01*
X7472428Y-6197191D01*
X7486714Y-6168620D01*
X7501000Y-6154334D01*
X7529571Y-6140048D01*
X7729571Y-6140048D02*
X7915286Y-6140048D01*
X7815286Y-6254334D01*
X7858143Y-6254334D01*
X7886714Y-6268620D01*
X7901000Y-6282905D01*
X7915286Y-6311477D01*
X7915286Y-6382905D01*
X7901000Y-6411477D01*
X7886714Y-6425763D01*
X7858143Y-6440048D01*
X7772428Y-6440048D01*
X7743857Y-6425763D01*
X7729571Y-6411477D01*
X8101000Y-6140048D02*
X8129571Y-6140048D01*
X8158143Y-6154334D01*
X8172428Y-6168620D01*
X8186714Y-6197191D01*
X8201000Y-6254334D01*
X8201000Y-6325763D01*
X8186714Y-6382905D01*
X8172428Y-6411477D01*
X8158143Y-6425763D01*
X8129571Y-6440048D01*
X8101000Y-6440048D01*
X8072428Y-6425763D01*
X8058143Y-6411477D01*
X8043857Y-6382905D01*
X8029571Y-6325763D01*
X8029571Y-6254334D01*
X8043857Y-6197191D01*
X8058143Y-6168620D01*
X8072428Y-6154334D01*
X8101000Y-6140048D01*
X8315286Y-6140048D02*
X8315286Y-6197191D01*
X8429571Y-6140048D02*
X8429571Y-6197191D01*
X8872428Y-6554334D02*
X8858143Y-6540048D01*
X8829571Y-6497191D01*
X8815286Y-6468620D01*
X8801000Y-6425763D01*
X8786714Y-6354334D01*
X8786714Y-6297191D01*
X8801000Y-6225763D01*
X8815286Y-6182905D01*
X8829571Y-6154334D01*
X8858143Y-6111477D01*
X8872428Y-6097191D01*
X8958143Y-6140048D02*
X9143857Y-6140048D01*
X9043857Y-6254334D01*
X9086714Y-6254334D01*
X9115286Y-6268620D01*
X9129571Y-6282905D01*
X9143857Y-6311477D01*
X9143857Y-6382905D01*
X9129571Y-6411477D01*
X9115286Y-6425763D01*
X9086714Y-6440048D01*
X9001000Y-6440048D01*
X8972428Y-6425763D01*
X8958143Y-6411477D01*
X9501000Y-6440048D02*
X9501000Y-6140048D01*
X9629571Y-6440048D02*
X9629571Y-6282905D01*
X9615286Y-6254334D01*
X9586714Y-6240048D01*
X9543857Y-6240048D01*
X9515286Y-6254334D01*
X9501000Y-6268620D01*
X9815286Y-6440048D02*
X9786714Y-6425763D01*
X9772428Y-6411477D01*
X9758143Y-6382905D01*
X9758143Y-6297191D01*
X9772428Y-6268620D01*
X9786714Y-6254334D01*
X9815286Y-6240048D01*
X9858143Y-6240048D01*
X9886714Y-6254334D01*
X9901000Y-6268620D01*
X9915286Y-6297191D01*
X9915286Y-6382905D01*
X9901000Y-6411477D01*
X9886714Y-6425763D01*
X9858143Y-6440048D01*
X9815286Y-6440048D01*
X10086714Y-6440048D02*
X10058143Y-6425763D01*
X10043857Y-6397191D01*
X10043857Y-6140048D01*
X10315286Y-6425763D02*
X10286714Y-6440048D01*
X10229571Y-6440048D01*
X10201000Y-6425763D01*
X10186714Y-6397191D01*
X10186714Y-6282905D01*
X10201000Y-6254334D01*
X10229571Y-6240048D01*
X10286714Y-6240048D01*
X10315286Y-6254334D01*
X10329571Y-6282905D01*
X10329571Y-6311477D01*
X10186714Y-6340048D01*
X10443857Y-6425763D02*
X10472428Y-6440048D01*
X10529571Y-6440048D01*
X10558143Y-6425763D01*
X10572428Y-6397191D01*
X10572428Y-6382905D01*
X10558143Y-6354334D01*
X10529571Y-6340048D01*
X10486714Y-6340048D01*
X10458143Y-6325763D01*
X10443857Y-6297191D01*
X10443857Y-6282905D01*
X10458143Y-6254334D01*
X10486714Y-6240048D01*
X10529571Y-6240048D01*
X10558143Y-6254334D01*
X10672428Y-6554334D02*
X10686714Y-6540048D01*
X10715286Y-6497191D01*
X10729571Y-6468620D01*
X10743857Y-6425763D01*
X10758143Y-6354334D01*
X10758143Y-6297191D01*
X10743857Y-6225763D01*
X10729571Y-6182905D01*
X10715286Y-6154334D01*
X10686714Y-6111477D01*
X10672428Y-6097191D01*
X4186000Y-6700334D02*
G75*
G03*
X4186000Y-6700334I-40000J0D01*
G01*
X4529571Y-6536048D02*
X4558143Y-6536048D01*
X4586714Y-6550334D01*
X4601000Y-6564620D01*
X4615286Y-6593191D01*
X4629571Y-6650334D01*
X4629571Y-6721763D01*
X4615286Y-6778905D01*
X4601000Y-6807477D01*
X4586714Y-6821763D01*
X4558143Y-6836048D01*
X4529571Y-6836048D01*
X4501000Y-6821763D01*
X4486714Y-6807477D01*
X4472428Y-6778905D01*
X4458143Y-6721763D01*
X4458143Y-6650334D01*
X4472428Y-6593191D01*
X4486714Y-6564620D01*
X4501000Y-6550334D01*
X4529571Y-6536048D01*
X4758143Y-6807477D02*
X4772428Y-6821763D01*
X4758143Y-6836048D01*
X4743857Y-6821763D01*
X4758143Y-6807477D01*
X4758143Y-6836048D01*
X4943857Y-6664620D02*
X4915286Y-6650334D01*
X4901000Y-6636048D01*
X4886714Y-6607477D01*
X4886714Y-6593191D01*
X4901000Y-6564620D01*
X4915286Y-6550334D01*
X4943857Y-6536048D01*
X5001000Y-6536048D01*
X5029571Y-6550334D01*
X5043857Y-6564620D01*
X5058143Y-6593191D01*
X5058143Y-6607477D01*
X5043857Y-6636048D01*
X5029571Y-6650334D01*
X5001000Y-6664620D01*
X4943857Y-6664620D01*
X4915286Y-6678905D01*
X4901000Y-6693191D01*
X4886714Y-6721763D01*
X4886714Y-6778905D01*
X4901000Y-6807477D01*
X4915286Y-6821763D01*
X4943857Y-6836048D01*
X5001000Y-6836048D01*
X5029571Y-6821763D01*
X5043857Y-6807477D01*
X5058143Y-6778905D01*
X5058143Y-6721763D01*
X5043857Y-6693191D01*
X5029571Y-6678905D01*
X5001000Y-6664620D01*
X5243857Y-6536048D02*
X5272428Y-6536048D01*
X5301000Y-6550334D01*
X5315286Y-6564620D01*
X5329571Y-6593191D01*
X5343857Y-6650334D01*
X5343857Y-6721763D01*
X5329571Y-6778905D01*
X5315286Y-6807477D01*
X5301000Y-6821763D01*
X5272428Y-6836048D01*
X5243857Y-6836048D01*
X5215286Y-6821763D01*
X5201000Y-6807477D01*
X5186714Y-6778905D01*
X5172428Y-6721763D01*
X5172428Y-6650334D01*
X5186714Y-6593191D01*
X5201000Y-6564620D01*
X5215286Y-6550334D01*
X5243857Y-6536048D01*
X5472428Y-6836048D02*
X5472428Y-6636048D01*
X5472428Y-6664620D02*
X5486714Y-6650334D01*
X5515286Y-6636048D01*
X5558143Y-6636048D01*
X5586714Y-6650334D01*
X5601000Y-6678905D01*
X5601000Y-6836048D01*
X5601000Y-6678905D02*
X5615286Y-6650334D01*
X5643857Y-6636048D01*
X5686714Y-6636048D01*
X5715286Y-6650334D01*
X5729571Y-6678905D01*
X5729571Y-6836048D01*
X5872428Y-6836048D02*
X5872428Y-6636048D01*
X5872428Y-6664620D02*
X5886714Y-6650334D01*
X5915286Y-6636048D01*
X5958143Y-6636048D01*
X5986714Y-6650334D01*
X6001000Y-6678905D01*
X6001000Y-6836048D01*
X6001000Y-6678905D02*
X6015286Y-6650334D01*
X6043857Y-6636048D01*
X6086714Y-6636048D01*
X6115286Y-6650334D01*
X6129571Y-6678905D01*
X6129571Y-6836048D01*
X6715286Y-6521763D02*
X6458143Y-6907477D01*
X7101000Y-6536048D02*
X7129571Y-6536048D01*
X7158143Y-6550334D01*
X7172428Y-6564620D01*
X7186714Y-6593191D01*
X7201000Y-6650334D01*
X7201000Y-6721763D01*
X7186714Y-6778905D01*
X7172428Y-6807477D01*
X7158143Y-6821763D01*
X7129571Y-6836048D01*
X7101000Y-6836048D01*
X7072428Y-6821763D01*
X7058143Y-6807477D01*
X7043857Y-6778905D01*
X7029571Y-6721763D01*
X7029571Y-6650334D01*
X7043857Y-6593191D01*
X7058143Y-6564620D01*
X7072428Y-6550334D01*
X7101000Y-6536048D01*
X7329571Y-6807477D02*
X7343857Y-6821763D01*
X7329571Y-6836048D01*
X7315286Y-6821763D01*
X7329571Y-6807477D01*
X7329571Y-6836048D01*
X7529571Y-6536048D02*
X7558143Y-6536048D01*
X7586714Y-6550334D01*
X7601000Y-6564620D01*
X7615286Y-6593191D01*
X7629571Y-6650334D01*
X7629571Y-6721763D01*
X7615286Y-6778905D01*
X7601000Y-6807477D01*
X7586714Y-6821763D01*
X7558143Y-6836048D01*
X7529571Y-6836048D01*
X7501000Y-6821763D01*
X7486714Y-6807477D01*
X7472428Y-6778905D01*
X7458143Y-6721763D01*
X7458143Y-6650334D01*
X7472428Y-6593191D01*
X7486714Y-6564620D01*
X7501000Y-6550334D01*
X7529571Y-6536048D01*
X7729571Y-6536048D02*
X7915286Y-6536048D01*
X7815286Y-6650334D01*
X7858143Y-6650334D01*
X7886714Y-6664620D01*
X7901000Y-6678905D01*
X7915286Y-6707477D01*
X7915286Y-6778905D01*
X7901000Y-6807477D01*
X7886714Y-6821763D01*
X7858143Y-6836048D01*
X7772428Y-6836048D01*
X7743857Y-6821763D01*
X7729571Y-6807477D01*
X8201000Y-6836048D02*
X8029571Y-6836048D01*
X8115286Y-6836048D02*
X8115286Y-6536048D01*
X8086714Y-6578905D01*
X8058143Y-6607477D01*
X8029571Y-6621763D01*
X8315286Y-6536048D02*
X8315286Y-6593191D01*
X8429571Y-6536048D02*
X8429571Y-6593191D01*
X8872428Y-6950334D02*
X8858143Y-6936048D01*
X8829571Y-6893191D01*
X8815286Y-6864620D01*
X8801000Y-6821763D01*
X8786714Y-6750334D01*
X8786714Y-6693191D01*
X8801000Y-6621763D01*
X8815286Y-6578905D01*
X8829571Y-6550334D01*
X8858143Y-6507477D01*
X8872428Y-6493191D01*
X9129571Y-6536048D02*
X8986714Y-6536048D01*
X8972428Y-6678905D01*
X8986714Y-6664620D01*
X9015286Y-6650334D01*
X9086714Y-6650334D01*
X9115286Y-6664620D01*
X9129571Y-6678905D01*
X9143857Y-6707477D01*
X9143857Y-6778905D01*
X9129571Y-6807477D01*
X9115286Y-6821763D01*
X9086714Y-6836048D01*
X9015286Y-6836048D01*
X8986714Y-6821763D01*
X8972428Y-6807477D01*
X9286714Y-6836048D02*
X9343857Y-6836048D01*
X9372428Y-6821763D01*
X9386714Y-6807477D01*
X9415286Y-6764620D01*
X9429571Y-6707477D01*
X9429571Y-6593191D01*
X9415286Y-6564620D01*
X9401000Y-6550334D01*
X9372428Y-6536048D01*
X9315286Y-6536048D01*
X9286714Y-6550334D01*
X9272428Y-6564620D01*
X9258143Y-6593191D01*
X9258143Y-6664620D01*
X9272428Y-6693191D01*
X9286714Y-6707477D01*
X9315286Y-6721763D01*
X9372428Y-6721763D01*
X9401000Y-6707477D01*
X9415286Y-6693191D01*
X9429571Y-6664620D01*
X9786714Y-6836048D02*
X9786714Y-6536048D01*
X9915286Y-6836048D02*
X9915286Y-6678905D01*
X9901000Y-6650334D01*
X9872428Y-6636048D01*
X9829571Y-6636048D01*
X9801000Y-6650334D01*
X9786714Y-6664620D01*
X10101000Y-6836048D02*
X10072428Y-6821763D01*
X10058143Y-6807477D01*
X10043857Y-6778905D01*
X10043857Y-6693191D01*
X10058143Y-6664620D01*
X10072428Y-6650334D01*
X10101000Y-6636048D01*
X10143857Y-6636048D01*
X10172428Y-6650334D01*
X10186714Y-6664620D01*
X10201000Y-6693191D01*
X10201000Y-6778905D01*
X10186714Y-6807477D01*
X10172428Y-6821763D01*
X10143857Y-6836048D01*
X10101000Y-6836048D01*
X10372428Y-6836048D02*
X10343857Y-6821763D01*
X10329571Y-6793191D01*
X10329571Y-6536048D01*
X10601000Y-6821763D02*
X10572428Y-6836048D01*
X10515286Y-6836048D01*
X10486714Y-6821763D01*
X10472428Y-6793191D01*
X10472428Y-6678905D01*
X10486714Y-6650334D01*
X10515286Y-6636048D01*
X10572428Y-6636048D01*
X10601000Y-6650334D01*
X10615286Y-6678905D01*
X10615286Y-6707477D01*
X10472428Y-6736048D01*
X10729571Y-6821763D02*
X10758143Y-6836048D01*
X10815286Y-6836048D01*
X10843857Y-6821763D01*
X10858143Y-6793191D01*
X10858143Y-6778905D01*
X10843857Y-6750334D01*
X10815286Y-6736048D01*
X10772428Y-6736048D01*
X10743857Y-6721763D01*
X10729571Y-6693191D01*
X10729571Y-6678905D01*
X10743857Y-6650334D01*
X10772428Y-6636048D01*
X10815286Y-6636048D01*
X10843857Y-6650334D01*
X10958143Y-6950334D02*
X10972428Y-6936048D01*
X11001000Y-6893191D01*
X11015286Y-6864620D01*
X11029571Y-6821763D01*
X11043857Y-6750334D01*
X11043857Y-6693191D01*
X11029571Y-6621763D01*
X11015286Y-6578905D01*
X11001000Y-6550334D01*
X10972428Y-6507477D01*
X10958143Y-6493191D01*
X4136000Y-7046334D02*
X4136000Y-7146334D01*
X4086000Y-7096334D02*
X4186000Y-7096334D01*
X4629571Y-7232048D02*
X4458143Y-7232048D01*
X4543857Y-7232048D02*
X4543857Y-6932048D01*
X4515286Y-6974905D01*
X4486714Y-7003477D01*
X4458143Y-7017763D01*
X4758143Y-7203477D02*
X4772428Y-7217763D01*
X4758143Y-7232048D01*
X4743857Y-7217763D01*
X4758143Y-7203477D01*
X4758143Y-7232048D01*
X4958143Y-6932048D02*
X4986714Y-6932048D01*
X5015286Y-6946334D01*
X5029571Y-6960620D01*
X5043857Y-6989191D01*
X5058143Y-7046334D01*
X5058143Y-7117763D01*
X5043857Y-7174905D01*
X5029571Y-7203477D01*
X5015286Y-7217763D01*
X4986714Y-7232048D01*
X4958143Y-7232048D01*
X4929571Y-7217763D01*
X4915286Y-7203477D01*
X4901000Y-7174905D01*
X4886714Y-7117763D01*
X4886714Y-7046334D01*
X4901000Y-6989191D01*
X4915286Y-6960620D01*
X4929571Y-6946334D01*
X4958143Y-6932048D01*
X5243857Y-6932048D02*
X5272428Y-6932048D01*
X5301000Y-6946334D01*
X5315286Y-6960620D01*
X5329571Y-6989191D01*
X5343857Y-7046334D01*
X5343857Y-7117763D01*
X5329571Y-7174905D01*
X5315286Y-7203477D01*
X5301000Y-7217763D01*
X5272428Y-7232048D01*
X5243857Y-7232048D01*
X5215286Y-7217763D01*
X5201000Y-7203477D01*
X5186714Y-7174905D01*
X5172428Y-7117763D01*
X5172428Y-7046334D01*
X5186714Y-6989191D01*
X5201000Y-6960620D01*
X5215286Y-6946334D01*
X5243857Y-6932048D01*
X5472428Y-7232048D02*
X5472428Y-7032048D01*
X5472428Y-7060620D02*
X5486714Y-7046334D01*
X5515286Y-7032048D01*
X5558143Y-7032048D01*
X5586714Y-7046334D01*
X5601000Y-7074905D01*
X5601000Y-7232048D01*
X5601000Y-7074905D02*
X5615286Y-7046334D01*
X5643857Y-7032048D01*
X5686714Y-7032048D01*
X5715286Y-7046334D01*
X5729571Y-7074905D01*
X5729571Y-7232048D01*
X5872428Y-7232048D02*
X5872428Y-7032048D01*
X5872428Y-7060620D02*
X5886714Y-7046334D01*
X5915286Y-7032048D01*
X5958143Y-7032048D01*
X5986714Y-7046334D01*
X6001000Y-7074905D01*
X6001000Y-7232048D01*
X6001000Y-7074905D02*
X6015286Y-7046334D01*
X6043857Y-7032048D01*
X6086714Y-7032048D01*
X6115286Y-7046334D01*
X6129571Y-7074905D01*
X6129571Y-7232048D01*
X6715286Y-6917763D02*
X6458143Y-7303477D01*
X7101000Y-6932048D02*
X7129571Y-6932048D01*
X7158143Y-6946334D01*
X7172428Y-6960620D01*
X7186714Y-6989191D01*
X7201000Y-7046334D01*
X7201000Y-7117763D01*
X7186714Y-7174905D01*
X7172428Y-7203477D01*
X7158143Y-7217763D01*
X7129571Y-7232048D01*
X7101000Y-7232048D01*
X7072428Y-7217763D01*
X7058143Y-7203477D01*
X7043857Y-7174905D01*
X7029571Y-7117763D01*
X7029571Y-7046334D01*
X7043857Y-6989191D01*
X7058143Y-6960620D01*
X7072428Y-6946334D01*
X7101000Y-6932048D01*
X7329571Y-7203477D02*
X7343857Y-7217763D01*
X7329571Y-7232048D01*
X7315286Y-7217763D01*
X7329571Y-7203477D01*
X7329571Y-7232048D01*
X7529571Y-6932048D02*
X7558143Y-6932048D01*
X7586714Y-6946334D01*
X7601000Y-6960620D01*
X7615286Y-6989191D01*
X7629571Y-7046334D01*
X7629571Y-7117763D01*
X7615286Y-7174905D01*
X7601000Y-7203477D01*
X7586714Y-7217763D01*
X7558143Y-7232048D01*
X7529571Y-7232048D01*
X7501000Y-7217763D01*
X7486714Y-7203477D01*
X7472428Y-7174905D01*
X7458143Y-7117763D01*
X7458143Y-7046334D01*
X7472428Y-6989191D01*
X7486714Y-6960620D01*
X7501000Y-6946334D01*
X7529571Y-6932048D01*
X7729571Y-6932048D02*
X7915286Y-6932048D01*
X7815286Y-7046334D01*
X7858143Y-7046334D01*
X7886714Y-7060620D01*
X7901000Y-7074905D01*
X7915286Y-7103477D01*
X7915286Y-7174905D01*
X7901000Y-7203477D01*
X7886714Y-7217763D01*
X7858143Y-7232048D01*
X7772428Y-7232048D01*
X7743857Y-7217763D01*
X7729571Y-7203477D01*
X8058143Y-7232048D02*
X8115286Y-7232048D01*
X8143857Y-7217763D01*
X8158143Y-7203477D01*
X8186714Y-7160620D01*
X8201000Y-7103477D01*
X8201000Y-6989191D01*
X8186714Y-6960620D01*
X8172428Y-6946334D01*
X8143857Y-6932048D01*
X8086714Y-6932048D01*
X8058143Y-6946334D01*
X8043857Y-6960620D01*
X8029571Y-6989191D01*
X8029571Y-7060620D01*
X8043857Y-7089191D01*
X8058143Y-7103477D01*
X8086714Y-7117763D01*
X8143857Y-7117763D01*
X8172428Y-7103477D01*
X8186714Y-7089191D01*
X8201000Y-7060620D01*
X8315286Y-6932048D02*
X8315286Y-6989191D01*
X8429571Y-6932048D02*
X8429571Y-6989191D01*
X8872428Y-7346334D02*
X8858143Y-7332048D01*
X8829571Y-7289191D01*
X8815286Y-7260620D01*
X8801000Y-7217763D01*
X8786714Y-7146334D01*
X8786714Y-7089191D01*
X8801000Y-7017763D01*
X8815286Y-6974905D01*
X8829571Y-6946334D01*
X8858143Y-6903477D01*
X8872428Y-6889191D01*
X9129571Y-6932048D02*
X8986714Y-6932048D01*
X8972428Y-7074905D01*
X8986714Y-7060620D01*
X9015286Y-7046334D01*
X9086714Y-7046334D01*
X9115286Y-7060620D01*
X9129571Y-7074905D01*
X9143857Y-7103477D01*
X9143857Y-7174905D01*
X9129571Y-7203477D01*
X9115286Y-7217763D01*
X9086714Y-7232048D01*
X9015286Y-7232048D01*
X8986714Y-7217763D01*
X8972428Y-7203477D01*
X9501000Y-7232048D02*
X9501000Y-6932048D01*
X9629571Y-7232048D02*
X9629571Y-7074905D01*
X9615286Y-7046334D01*
X9586714Y-7032048D01*
X9543857Y-7032048D01*
X9515286Y-7046334D01*
X9501000Y-7060620D01*
X9815286Y-7232048D02*
X9786714Y-7217763D01*
X9772428Y-7203477D01*
X9758143Y-7174905D01*
X9758143Y-7089191D01*
X9772428Y-7060620D01*
X9786714Y-7046334D01*
X9815286Y-7032048D01*
X9858143Y-7032048D01*
X9886714Y-7046334D01*
X9901000Y-7060620D01*
X9915286Y-7089191D01*
X9915286Y-7174905D01*
X9901000Y-7203477D01*
X9886714Y-7217763D01*
X9858143Y-7232048D01*
X9815286Y-7232048D01*
X10086714Y-7232048D02*
X10058143Y-7217763D01*
X10043857Y-7189191D01*
X10043857Y-6932048D01*
X10315286Y-7217763D02*
X10286714Y-7232048D01*
X10229571Y-7232048D01*
X10201000Y-7217763D01*
X10186714Y-7189191D01*
X10186714Y-7074905D01*
X10201000Y-7046334D01*
X10229571Y-7032048D01*
X10286714Y-7032048D01*
X10315286Y-7046334D01*
X10329571Y-7074905D01*
X10329571Y-7103477D01*
X10186714Y-7132048D01*
X10443857Y-7217763D02*
X10472428Y-7232048D01*
X10529571Y-7232048D01*
X10558143Y-7217763D01*
X10572428Y-7189191D01*
X10572428Y-7174905D01*
X10558143Y-7146334D01*
X10529571Y-7132048D01*
X10486714Y-7132048D01*
X10458143Y-7117763D01*
X10443857Y-7089191D01*
X10443857Y-7074905D01*
X10458143Y-7046334D01*
X10486714Y-7032048D01*
X10529571Y-7032048D01*
X10558143Y-7046334D01*
X10672428Y-7346334D02*
X10686714Y-7332048D01*
X10715286Y-7289191D01*
X10729571Y-7260620D01*
X10743857Y-7217763D01*
X10758143Y-7146334D01*
X10758143Y-7089191D01*
X10743857Y-7017763D01*
X10729571Y-6974905D01*
X10715286Y-6946334D01*
X10686714Y-6903477D01*
X10672428Y-6889191D01*
X4169891Y-7531225D02*
X4169891Y-7453443D01*
X4092109Y-7453443D01*
X4092109Y-7531225D01*
X4169891Y-7531225D01*
X4629571Y-7628048D02*
X4458143Y-7628048D01*
X4543857Y-7628048D02*
X4543857Y-7328048D01*
X4515286Y-7370905D01*
X4486714Y-7399477D01*
X4458143Y-7413763D01*
X4758143Y-7599477D02*
X4772428Y-7613763D01*
X4758143Y-7628048D01*
X4743857Y-7613763D01*
X4758143Y-7599477D01*
X4758143Y-7628048D01*
X5058143Y-7628048D02*
X4886714Y-7628048D01*
X4972428Y-7628048D02*
X4972428Y-7328048D01*
X4943857Y-7370905D01*
X4915286Y-7399477D01*
X4886714Y-7413763D01*
X5243857Y-7328048D02*
X5272428Y-7328048D01*
X5301000Y-7342334D01*
X5315286Y-7356620D01*
X5329571Y-7385191D01*
X5343857Y-7442334D01*
X5343857Y-7513763D01*
X5329571Y-7570905D01*
X5315286Y-7599477D01*
X5301000Y-7613763D01*
X5272428Y-7628048D01*
X5243857Y-7628048D01*
X5215286Y-7613763D01*
X5201000Y-7599477D01*
X5186714Y-7570905D01*
X5172428Y-7513763D01*
X5172428Y-7442334D01*
X5186714Y-7385191D01*
X5201000Y-7356620D01*
X5215286Y-7342334D01*
X5243857Y-7328048D01*
X5472428Y-7628048D02*
X5472428Y-7428048D01*
X5472428Y-7456620D02*
X5486714Y-7442334D01*
X5515286Y-7428048D01*
X5558143Y-7428048D01*
X5586714Y-7442334D01*
X5601000Y-7470905D01*
X5601000Y-7628048D01*
X5601000Y-7470905D02*
X5615286Y-7442334D01*
X5643857Y-7428048D01*
X5686714Y-7428048D01*
X5715286Y-7442334D01*
X5729571Y-7470905D01*
X5729571Y-7628048D01*
X5872428Y-7628048D02*
X5872428Y-7428048D01*
X5872428Y-7456620D02*
X5886714Y-7442334D01*
X5915286Y-7428048D01*
X5958143Y-7428048D01*
X5986714Y-7442334D01*
X6001000Y-7470905D01*
X6001000Y-7628048D01*
X6001000Y-7470905D02*
X6015286Y-7442334D01*
X6043857Y-7428048D01*
X6086714Y-7428048D01*
X6115286Y-7442334D01*
X6129571Y-7470905D01*
X6129571Y-7628048D01*
X6715286Y-7313763D02*
X6458143Y-7699477D01*
X7101000Y-7328048D02*
X7129571Y-7328048D01*
X7158143Y-7342334D01*
X7172428Y-7356620D01*
X7186714Y-7385191D01*
X7201000Y-7442334D01*
X7201000Y-7513763D01*
X7186714Y-7570905D01*
X7172428Y-7599477D01*
X7158143Y-7613763D01*
X7129571Y-7628048D01*
X7101000Y-7628048D01*
X7072428Y-7613763D01*
X7058143Y-7599477D01*
X7043857Y-7570905D01*
X7029571Y-7513763D01*
X7029571Y-7442334D01*
X7043857Y-7385191D01*
X7058143Y-7356620D01*
X7072428Y-7342334D01*
X7101000Y-7328048D01*
X7329571Y-7599477D02*
X7343857Y-7613763D01*
X7329571Y-7628048D01*
X7315286Y-7613763D01*
X7329571Y-7599477D01*
X7329571Y-7628048D01*
X7529571Y-7328048D02*
X7558143Y-7328048D01*
X7586714Y-7342334D01*
X7601000Y-7356620D01*
X7615286Y-7385191D01*
X7629571Y-7442334D01*
X7629571Y-7513763D01*
X7615286Y-7570905D01*
X7601000Y-7599477D01*
X7586714Y-7613763D01*
X7558143Y-7628048D01*
X7529571Y-7628048D01*
X7501000Y-7613763D01*
X7486714Y-7599477D01*
X7472428Y-7570905D01*
X7458143Y-7513763D01*
X7458143Y-7442334D01*
X7472428Y-7385191D01*
X7486714Y-7356620D01*
X7501000Y-7342334D01*
X7529571Y-7328048D01*
X7886714Y-7428048D02*
X7886714Y-7628048D01*
X7815286Y-7313763D02*
X7743857Y-7528048D01*
X7929571Y-7528048D01*
X8015286Y-7328048D02*
X8201000Y-7328048D01*
X8101000Y-7442334D01*
X8143857Y-7442334D01*
X8172428Y-7456620D01*
X8186714Y-7470905D01*
X8201000Y-7499477D01*
X8201000Y-7570905D01*
X8186714Y-7599477D01*
X8172428Y-7613763D01*
X8143857Y-7628048D01*
X8058143Y-7628048D01*
X8029571Y-7613763D01*
X8015286Y-7599477D01*
X8315286Y-7328048D02*
X8315286Y-7385191D01*
X8429571Y-7328048D02*
X8429571Y-7385191D01*
X8872428Y-7742334D02*
X8858143Y-7728048D01*
X8829571Y-7685191D01*
X8815286Y-7656620D01*
X8801000Y-7613763D01*
X8786714Y-7542334D01*
X8786714Y-7485191D01*
X8801000Y-7413763D01*
X8815286Y-7370905D01*
X8829571Y-7342334D01*
X8858143Y-7299477D01*
X8872428Y-7285191D01*
X8972428Y-7356620D02*
X8986714Y-7342334D01*
X9015286Y-7328048D01*
X9086714Y-7328048D01*
X9115286Y-7342334D01*
X9129571Y-7356620D01*
X9143857Y-7385191D01*
X9143857Y-7413763D01*
X9129571Y-7456620D01*
X8958143Y-7628048D01*
X9143857Y-7628048D01*
X9501000Y-7628048D02*
X9501000Y-7328048D01*
X9629571Y-7628048D02*
X9629571Y-7470905D01*
X9615286Y-7442334D01*
X9586714Y-7428048D01*
X9543857Y-7428048D01*
X9515286Y-7442334D01*
X9501000Y-7456620D01*
X9815286Y-7628048D02*
X9786714Y-7613763D01*
X9772428Y-7599477D01*
X9758143Y-7570905D01*
X9758143Y-7485191D01*
X9772428Y-7456620D01*
X9786714Y-7442334D01*
X9815286Y-7428048D01*
X9858143Y-7428048D01*
X9886714Y-7442334D01*
X9901000Y-7456620D01*
X9915286Y-7485191D01*
X9915286Y-7570905D01*
X9901000Y-7599477D01*
X9886714Y-7613763D01*
X9858143Y-7628048D01*
X9815286Y-7628048D01*
X10086714Y-7628048D02*
X10058143Y-7613763D01*
X10043857Y-7585191D01*
X10043857Y-7328048D01*
X10315286Y-7613763D02*
X10286714Y-7628048D01*
X10229571Y-7628048D01*
X10201000Y-7613763D01*
X10186714Y-7585191D01*
X10186714Y-7470905D01*
X10201000Y-7442334D01*
X10229571Y-7428048D01*
X10286714Y-7428048D01*
X10315286Y-7442334D01*
X10329571Y-7470905D01*
X10329571Y-7499477D01*
X10186714Y-7528048D01*
X10443857Y-7613763D02*
X10472428Y-7628048D01*
X10529571Y-7628048D01*
X10558143Y-7613763D01*
X10572428Y-7585191D01*
X10572428Y-7570905D01*
X10558143Y-7542334D01*
X10529571Y-7528048D01*
X10486714Y-7528048D01*
X10458143Y-7513763D01*
X10443857Y-7485191D01*
X10443857Y-7470905D01*
X10458143Y-7442334D01*
X10486714Y-7428048D01*
X10529571Y-7428048D01*
X10558143Y-7442334D01*
X10672428Y-7742334D02*
X10686714Y-7728048D01*
X10715286Y-7685191D01*
X10729571Y-7656620D01*
X10743857Y-7613763D01*
X10758143Y-7542334D01*
X10758143Y-7485191D01*
X10743857Y-7413763D01*
X10729571Y-7370905D01*
X10715286Y-7342334D01*
X10686714Y-7299477D01*
X10672428Y-7285191D01*
M02*
