%FSLAX45Y45*%
G04 Gerber Fmt 4.5, Leading zero omitted, Abs format (unit mm)*
G04 Created by KiCad (PCBNEW (5.1.7)-1) date 2020-12-21 03:00:38*
%MOMM*%
%LPD*%
G01*
G04 APERTURE LIST*
%TA.AperFunction,Profile*%
%ADD10C,0.100000*%
%TD*%
%ADD11C,0.200000*%
%ADD12C,0.300000*%
G04 APERTURE END LIST*
D10*
X11438636Y-2024126D02*
X11438636Y-5339334D01*
X5564378Y-2024126D02*
X11438636Y-2024126D01*
X5564378Y-5339334D02*
X5564378Y-2024126D01*
X11438636Y-5339334D02*
X5564378Y-5339334D01*
D11*
D12*
X5845806Y-5810048D02*
X5845806Y-5510048D01*
X5917235Y-5510048D01*
X5960092Y-5524334D01*
X5988664Y-5552906D01*
X6002949Y-5581477D01*
X6017235Y-5638620D01*
X6017235Y-5681477D01*
X6002949Y-5738620D01*
X5988664Y-5767191D01*
X5960092Y-5795763D01*
X5917235Y-5810048D01*
X5845806Y-5810048D01*
X6145806Y-5810048D02*
X6145806Y-5610048D01*
X6145806Y-5667191D02*
X6160092Y-5638620D01*
X6174378Y-5624334D01*
X6202949Y-5610048D01*
X6231521Y-5610048D01*
X6331521Y-5810048D02*
X6331521Y-5610048D01*
X6331521Y-5510048D02*
X6317235Y-5524334D01*
X6331521Y-5538620D01*
X6345806Y-5524334D01*
X6331521Y-5510048D01*
X6331521Y-5538620D01*
X6517235Y-5810048D02*
X6488664Y-5795763D01*
X6474378Y-5767191D01*
X6474378Y-5510048D01*
X6674378Y-5810048D02*
X6645806Y-5795763D01*
X6631521Y-5767191D01*
X6631521Y-5510048D01*
X7017235Y-5810048D02*
X7017235Y-5510048D01*
X7117235Y-5724334D01*
X7217235Y-5510048D01*
X7217235Y-5810048D01*
X7488664Y-5810048D02*
X7488664Y-5652905D01*
X7474378Y-5624334D01*
X7445806Y-5610048D01*
X7388664Y-5610048D01*
X7360092Y-5624334D01*
X7488664Y-5795763D02*
X7460092Y-5810048D01*
X7388664Y-5810048D01*
X7360092Y-5795763D01*
X7345806Y-5767191D01*
X7345806Y-5738620D01*
X7360092Y-5710048D01*
X7388664Y-5695763D01*
X7460092Y-5695763D01*
X7488664Y-5681477D01*
X7631521Y-5610048D02*
X7631521Y-5910048D01*
X7631521Y-5624334D02*
X7660092Y-5610048D01*
X7717235Y-5610048D01*
X7745806Y-5624334D01*
X7760092Y-5638620D01*
X7774378Y-5667191D01*
X7774378Y-5752905D01*
X7760092Y-5781477D01*
X7745806Y-5795763D01*
X7717235Y-5810048D01*
X7660092Y-5810048D01*
X7631521Y-5795763D01*
X7902949Y-5781477D02*
X7917235Y-5795763D01*
X7902949Y-5810048D01*
X7888664Y-5795763D01*
X7902949Y-5781477D01*
X7902949Y-5810048D01*
X7902949Y-5624334D02*
X7917235Y-5638620D01*
X7902949Y-5652905D01*
X7888664Y-5638620D01*
X7902949Y-5624334D01*
X7902949Y-5652905D01*
M02*
