%FSLAX45Y45*%
G04 Gerber Fmt 4.5, Leading zero omitted, Abs format (unit mm)*
G04 Created by KiCad (PCBNEW (5.1.7)-1) date 2020-12-21 03:00:38*
%MOMM*%
%LPD*%
G01*
G04 APERTURE LIST*
%TA.AperFunction,Profile*%
%ADD10C,0.100000*%
%TD*%
%ADD11C,0.200000*%
%ADD12C,0.300000*%
G04 APERTURE END LIST*
D10*
X11438636Y-2024126D02*
X11438636Y-5339334D01*
X5564378Y-2024126D02*
X11438636Y-2024126D01*
X5564378Y-5339334D02*
X5564378Y-2024126D01*
X11438636Y-5339334D02*
X5564378Y-5339334D01*
D11*
X8387908Y-2903032D02*
X8427908Y-2943032D01*
X8427908Y-2903032D02*
X8387908Y-2943032D01*
X8719124Y-2868996D02*
X8759124Y-2908996D01*
X8759124Y-2868996D02*
X8719124Y-2908996D01*
X8447908Y-4197604D02*
G75*
G03*
X8447908Y-4197604I-40000J0D01*
G01*
X8697908Y-4197604D02*
G75*
G03*
X8697908Y-4197604I-40000J0D01*
G01*
X10904524Y-2543810D02*
G75*
G03*
X10904524Y-2543810I-40000J0D01*
G01*
X10904524Y-2797810D02*
G75*
G03*
X10904524Y-2797810I-40000J0D01*
G01*
X10904524Y-3051810D02*
G75*
G03*
X10904524Y-3051810I-40000J0D01*
G01*
X10904524Y-3305810D02*
G75*
G03*
X10904524Y-3305810I-40000J0D01*
G01*
X10904524Y-3559810D02*
G75*
G03*
X10904524Y-3559810I-40000J0D01*
G01*
X10904524Y-3813810D02*
G75*
G03*
X10904524Y-3813810I-40000J0D01*
G01*
X10904524Y-4067810D02*
G75*
G03*
X10904524Y-4067810I-40000J0D01*
G01*
X10904524Y-4321810D02*
G75*
G03*
X10904524Y-4321810I-40000J0D01*
G01*
X10904524Y-4575810D02*
G75*
G03*
X10904524Y-4575810I-40000J0D01*
G01*
X7574148Y-2797048D02*
G75*
G03*
X7574148Y-2797048I-40000J0D01*
G01*
X7574148Y-3813048D02*
G75*
G03*
X7574148Y-3813048I-40000J0D01*
G01*
X6996806Y-2539746D02*
G75*
G03*
X6996806Y-2539746I-40000J0D01*
G01*
X6996806Y-2793746D02*
G75*
G03*
X6996806Y-2793746I-40000J0D01*
G01*
X9788266Y-2564384D02*
G75*
G03*
X9788266Y-2564384I-40000J0D01*
G01*
X9788266Y-3580384D02*
G75*
G03*
X9788266Y-3580384I-40000J0D01*
G01*
X8102722Y-3316732D02*
G75*
G03*
X8102722Y-3316732I-40000J0D01*
G01*
X9118722Y-3316732D02*
G75*
G03*
X9118722Y-3316732I-40000J0D01*
G01*
X8702397Y-4653026D02*
G75*
G03*
X8702397Y-4653026I-40000J0D01*
G01*
X7197466Y-4847590D02*
G75*
G03*
X7197466Y-4847590I-40000J0D01*
G01*
X7451466Y-4847590D02*
G75*
G03*
X7451466Y-4847590I-40000J0D01*
G01*
X9371452Y-4059374D02*
G75*
G03*
X9371452Y-4059374I-40000J0D01*
G01*
X9371452Y-4846374D02*
G75*
G03*
X9371452Y-4846374I-40000J0D01*
G01*
X9625452Y-4059374D02*
G75*
G03*
X9625452Y-4059374I-40000J0D01*
G01*
X9625452Y-4846374D02*
G75*
G03*
X9625452Y-4846374I-40000J0D01*
G01*
X9879452Y-4059374D02*
G75*
G03*
X9879452Y-4059374I-40000J0D01*
G01*
X9879452Y-4846374D02*
G75*
G03*
X9879452Y-4846374I-40000J0D01*
G01*
X10133452Y-4846374D02*
G75*
G03*
X10133452Y-4846374I-40000J0D01*
G01*
X8663300Y-2525014D02*
G75*
G03*
X8663300Y-2525014I-40000J0D01*
G01*
X8917300Y-2525014D02*
G75*
G03*
X8917300Y-2525014I-40000J0D01*
G01*
X8102722Y-3628644D02*
G75*
G03*
X8102722Y-3628644I-40000J0D01*
G01*
X9118722Y-3628644D02*
G75*
G03*
X9118722Y-3628644I-40000J0D01*
G01*
X10114402Y-2564384D02*
G75*
G03*
X10114402Y-2564384I-40000J0D01*
G01*
X10114402Y-3580384D02*
G75*
G03*
X10114402Y-3580384I-40000J0D01*
G01*
X6224524Y-2494810D02*
X6224524Y-2594810D01*
X6174524Y-2544810D02*
X6274524Y-2544810D01*
X6224524Y-2748810D02*
X6224524Y-2848810D01*
X6174524Y-2798810D02*
X6274524Y-2798810D01*
X6224524Y-3002810D02*
X6224524Y-3102810D01*
X6174524Y-3052810D02*
X6274524Y-3052810D01*
X6224524Y-3256810D02*
X6224524Y-3356810D01*
X6174524Y-3306810D02*
X6274524Y-3306810D01*
X6224524Y-3510810D02*
X6224524Y-3610810D01*
X6174524Y-3560810D02*
X6274524Y-3560810D01*
X6224524Y-3764810D02*
X6224524Y-3864810D01*
X6174524Y-3814810D02*
X6274524Y-3814810D01*
X6224524Y-4018810D02*
X6224524Y-4118810D01*
X6174524Y-4068810D02*
X6274524Y-4068810D01*
X6224524Y-4272810D02*
X6224524Y-4372810D01*
X6174524Y-4322810D02*
X6274524Y-4322810D01*
X6224524Y-4526810D02*
X6224524Y-4626810D01*
X6174524Y-4576810D02*
X6274524Y-4576810D01*
X6224524Y-4780810D02*
X6224524Y-4880810D01*
X6174524Y-4830810D02*
X6274524Y-4830810D01*
X10864524Y-4779810D02*
X10864524Y-4879810D01*
X10814524Y-4829810D02*
X10914524Y-4829810D01*
X6956806Y-2997746D02*
X6956806Y-3097746D01*
X6906806Y-3047746D02*
X7006806Y-3047746D01*
X8412397Y-4603026D02*
X8412397Y-4703026D01*
X8362397Y-4653026D02*
X8462397Y-4653026D01*
X7665466Y-4797590D02*
X7665466Y-4897590D01*
X7615466Y-4847590D02*
X7715466Y-4847590D01*
X10093452Y-4009374D02*
X10093452Y-4109374D01*
X10043452Y-4059374D02*
X10143452Y-4059374D01*
X8369300Y-2475014D02*
X8369300Y-2575014D01*
X8319300Y-2525014D02*
X8419300Y-2525014D01*
D12*
X5845806Y-5810048D02*
X5845806Y-5510048D01*
X5917235Y-5510048D01*
X5960092Y-5524334D01*
X5988664Y-5552906D01*
X6002949Y-5581477D01*
X6017235Y-5638620D01*
X6017235Y-5681477D01*
X6002949Y-5738620D01*
X5988664Y-5767191D01*
X5960092Y-5795763D01*
X5917235Y-5810048D01*
X5845806Y-5810048D01*
X6145806Y-5810048D02*
X6145806Y-5610048D01*
X6145806Y-5667191D02*
X6160092Y-5638620D01*
X6174378Y-5624334D01*
X6202949Y-5610048D01*
X6231521Y-5610048D01*
X6331521Y-5810048D02*
X6331521Y-5610048D01*
X6331521Y-5510048D02*
X6317235Y-5524334D01*
X6331521Y-5538620D01*
X6345806Y-5524334D01*
X6331521Y-5510048D01*
X6331521Y-5538620D01*
X6517235Y-5810048D02*
X6488664Y-5795763D01*
X6474378Y-5767191D01*
X6474378Y-5510048D01*
X6674378Y-5810048D02*
X6645806Y-5795763D01*
X6631521Y-5767191D01*
X6631521Y-5510048D01*
X7017235Y-5810048D02*
X7017235Y-5510048D01*
X7117235Y-5724334D01*
X7217235Y-5510048D01*
X7217235Y-5810048D01*
X7488664Y-5810048D02*
X7488664Y-5652905D01*
X7474378Y-5624334D01*
X7445806Y-5610048D01*
X7388664Y-5610048D01*
X7360092Y-5624334D01*
X7488664Y-5795763D02*
X7460092Y-5810048D01*
X7388664Y-5810048D01*
X7360092Y-5795763D01*
X7345806Y-5767191D01*
X7345806Y-5738620D01*
X7360092Y-5710048D01*
X7388664Y-5695763D01*
X7460092Y-5695763D01*
X7488664Y-5681477D01*
X7631521Y-5610048D02*
X7631521Y-5910048D01*
X7631521Y-5624334D02*
X7660092Y-5610048D01*
X7717235Y-5610048D01*
X7745806Y-5624334D01*
X7760092Y-5638620D01*
X7774378Y-5667191D01*
X7774378Y-5752905D01*
X7760092Y-5781477D01*
X7745806Y-5795763D01*
X7717235Y-5810048D01*
X7660092Y-5810048D01*
X7631521Y-5795763D01*
X7902949Y-5781477D02*
X7917235Y-5795763D01*
X7902949Y-5810048D01*
X7888664Y-5795763D01*
X7902949Y-5781477D01*
X7902949Y-5810048D01*
X7902949Y-5624334D02*
X7917235Y-5638620D01*
X7902949Y-5652905D01*
X7888664Y-5638620D01*
X7902949Y-5624334D01*
X7902949Y-5652905D01*
X5519378Y-6284334D02*
X5559378Y-6324334D01*
X5559378Y-6284334D02*
X5519378Y-6324334D01*
X5902949Y-6140048D02*
X5931521Y-6140048D01*
X5960092Y-6154334D01*
X5974378Y-6168620D01*
X5988664Y-6197191D01*
X6002949Y-6254334D01*
X6002949Y-6325763D01*
X5988664Y-6382905D01*
X5974378Y-6411477D01*
X5960092Y-6425763D01*
X5931521Y-6440048D01*
X5902949Y-6440048D01*
X5874378Y-6425763D01*
X5860092Y-6411477D01*
X5845806Y-6382905D01*
X5831521Y-6325763D01*
X5831521Y-6254334D01*
X5845806Y-6197191D01*
X5860092Y-6168620D01*
X5874378Y-6154334D01*
X5902949Y-6140048D01*
X6131521Y-6411477D02*
X6145806Y-6425763D01*
X6131521Y-6440048D01*
X6117235Y-6425763D01*
X6131521Y-6411477D01*
X6131521Y-6440048D01*
X6402949Y-6240048D02*
X6402949Y-6440048D01*
X6331521Y-6125763D02*
X6260092Y-6340048D01*
X6445806Y-6340048D01*
X6617235Y-6140048D02*
X6645806Y-6140048D01*
X6674378Y-6154334D01*
X6688664Y-6168620D01*
X6702949Y-6197191D01*
X6717235Y-6254334D01*
X6717235Y-6325763D01*
X6702949Y-6382905D01*
X6688664Y-6411477D01*
X6674378Y-6425763D01*
X6645806Y-6440048D01*
X6617235Y-6440048D01*
X6588664Y-6425763D01*
X6574378Y-6411477D01*
X6560092Y-6382905D01*
X6545806Y-6325763D01*
X6545806Y-6254334D01*
X6560092Y-6197191D01*
X6574378Y-6168620D01*
X6588664Y-6154334D01*
X6617235Y-6140048D01*
X6845806Y-6440048D02*
X6845806Y-6240048D01*
X6845806Y-6268620D02*
X6860092Y-6254334D01*
X6888664Y-6240048D01*
X6931521Y-6240048D01*
X6960092Y-6254334D01*
X6974378Y-6282905D01*
X6974378Y-6440048D01*
X6974378Y-6282905D02*
X6988664Y-6254334D01*
X7017235Y-6240048D01*
X7060092Y-6240048D01*
X7088664Y-6254334D01*
X7102949Y-6282905D01*
X7102949Y-6440048D01*
X7245806Y-6440048D02*
X7245806Y-6240048D01*
X7245806Y-6268620D02*
X7260092Y-6254334D01*
X7288664Y-6240048D01*
X7331521Y-6240048D01*
X7360092Y-6254334D01*
X7374378Y-6282905D01*
X7374378Y-6440048D01*
X7374378Y-6282905D02*
X7388664Y-6254334D01*
X7417235Y-6240048D01*
X7460092Y-6240048D01*
X7488664Y-6254334D01*
X7502949Y-6282905D01*
X7502949Y-6440048D01*
X8088664Y-6125763D02*
X7831521Y-6511477D01*
X8474378Y-6140048D02*
X8502949Y-6140048D01*
X8531521Y-6154334D01*
X8545806Y-6168620D01*
X8560092Y-6197191D01*
X8574378Y-6254334D01*
X8574378Y-6325763D01*
X8560092Y-6382905D01*
X8545806Y-6411477D01*
X8531521Y-6425763D01*
X8502949Y-6440048D01*
X8474378Y-6440048D01*
X8445806Y-6425763D01*
X8431521Y-6411477D01*
X8417235Y-6382905D01*
X8402949Y-6325763D01*
X8402949Y-6254334D01*
X8417235Y-6197191D01*
X8431521Y-6168620D01*
X8445806Y-6154334D01*
X8474378Y-6140048D01*
X8702949Y-6411477D02*
X8717235Y-6425763D01*
X8702949Y-6440048D01*
X8688664Y-6425763D01*
X8702949Y-6411477D01*
X8702949Y-6440048D01*
X8902949Y-6140048D02*
X8931521Y-6140048D01*
X8960092Y-6154334D01*
X8974378Y-6168620D01*
X8988664Y-6197191D01*
X9002949Y-6254334D01*
X9002949Y-6325763D01*
X8988664Y-6382905D01*
X8974378Y-6411477D01*
X8960092Y-6425763D01*
X8931521Y-6440048D01*
X8902949Y-6440048D01*
X8874378Y-6425763D01*
X8860092Y-6411477D01*
X8845806Y-6382905D01*
X8831521Y-6325763D01*
X8831521Y-6254334D01*
X8845806Y-6197191D01*
X8860092Y-6168620D01*
X8874378Y-6154334D01*
X8902949Y-6140048D01*
X9288664Y-6440048D02*
X9117235Y-6440048D01*
X9202949Y-6440048D02*
X9202949Y-6140048D01*
X9174378Y-6182905D01*
X9145806Y-6211477D01*
X9117235Y-6225763D01*
X9545806Y-6140048D02*
X9488664Y-6140048D01*
X9460092Y-6154334D01*
X9445806Y-6168620D01*
X9417235Y-6211477D01*
X9402949Y-6268620D01*
X9402949Y-6382905D01*
X9417235Y-6411477D01*
X9431521Y-6425763D01*
X9460092Y-6440048D01*
X9517235Y-6440048D01*
X9545806Y-6425763D01*
X9560092Y-6411477D01*
X9574378Y-6382905D01*
X9574378Y-6311477D01*
X9560092Y-6282905D01*
X9545806Y-6268620D01*
X9517235Y-6254334D01*
X9460092Y-6254334D01*
X9431521Y-6268620D01*
X9417235Y-6282905D01*
X9402949Y-6311477D01*
X9688664Y-6140048D02*
X9688664Y-6197191D01*
X9802949Y-6140048D02*
X9802949Y-6197191D01*
X10245806Y-6554334D02*
X10231521Y-6540048D01*
X10202949Y-6497191D01*
X10188664Y-6468620D01*
X10174378Y-6425763D01*
X10160092Y-6354334D01*
X10160092Y-6297191D01*
X10174378Y-6225763D01*
X10188664Y-6182905D01*
X10202949Y-6154334D01*
X10231521Y-6111477D01*
X10245806Y-6097191D01*
X10345806Y-6168620D02*
X10360092Y-6154334D01*
X10388664Y-6140048D01*
X10460092Y-6140048D01*
X10488664Y-6154334D01*
X10502949Y-6168620D01*
X10517235Y-6197191D01*
X10517235Y-6225763D01*
X10502949Y-6268620D01*
X10331521Y-6440048D01*
X10517235Y-6440048D01*
X10874378Y-6440048D02*
X10874378Y-6140048D01*
X11002949Y-6440048D02*
X11002949Y-6282905D01*
X10988664Y-6254334D01*
X10960092Y-6240048D01*
X10917235Y-6240048D01*
X10888664Y-6254334D01*
X10874378Y-6268620D01*
X11188664Y-6440048D02*
X11160092Y-6425763D01*
X11145806Y-6411477D01*
X11131521Y-6382905D01*
X11131521Y-6297191D01*
X11145806Y-6268620D01*
X11160092Y-6254334D01*
X11188664Y-6240048D01*
X11231521Y-6240048D01*
X11260092Y-6254334D01*
X11274378Y-6268620D01*
X11288664Y-6297191D01*
X11288664Y-6382905D01*
X11274378Y-6411477D01*
X11260092Y-6425763D01*
X11231521Y-6440048D01*
X11188664Y-6440048D01*
X11460092Y-6440048D02*
X11431521Y-6425763D01*
X11417235Y-6397191D01*
X11417235Y-6140048D01*
X11688664Y-6425763D02*
X11660092Y-6440048D01*
X11602949Y-6440048D01*
X11574378Y-6425763D01*
X11560092Y-6397191D01*
X11560092Y-6282905D01*
X11574378Y-6254334D01*
X11602949Y-6240048D01*
X11660092Y-6240048D01*
X11688664Y-6254334D01*
X11702949Y-6282905D01*
X11702949Y-6311477D01*
X11560092Y-6340048D01*
X11817235Y-6425763D02*
X11845806Y-6440048D01*
X11902949Y-6440048D01*
X11931521Y-6425763D01*
X11945806Y-6397191D01*
X11945806Y-6382905D01*
X11931521Y-6354334D01*
X11902949Y-6340048D01*
X11860092Y-6340048D01*
X11831521Y-6325763D01*
X11817235Y-6297191D01*
X11817235Y-6282905D01*
X11831521Y-6254334D01*
X11860092Y-6240048D01*
X11902949Y-6240048D01*
X11931521Y-6254334D01*
X12045806Y-6554334D02*
X12060092Y-6540048D01*
X12088664Y-6497191D01*
X12102949Y-6468620D01*
X12117235Y-6425763D01*
X12131521Y-6354334D01*
X12131521Y-6297191D01*
X12117235Y-6225763D01*
X12102949Y-6182905D01*
X12088664Y-6154334D01*
X12060092Y-6111477D01*
X12045806Y-6097191D01*
X5559378Y-6700334D02*
G75*
G03*
X5559378Y-6700334I-40000J0D01*
G01*
X5902949Y-6536048D02*
X5931521Y-6536048D01*
X5960092Y-6550334D01*
X5974378Y-6564620D01*
X5988664Y-6593191D01*
X6002949Y-6650334D01*
X6002949Y-6721763D01*
X5988664Y-6778905D01*
X5974378Y-6807477D01*
X5960092Y-6821763D01*
X5931521Y-6836048D01*
X5902949Y-6836048D01*
X5874378Y-6821763D01*
X5860092Y-6807477D01*
X5845806Y-6778905D01*
X5831521Y-6721763D01*
X5831521Y-6650334D01*
X5845806Y-6593191D01*
X5860092Y-6564620D01*
X5874378Y-6550334D01*
X5902949Y-6536048D01*
X6131521Y-6807477D02*
X6145806Y-6821763D01*
X6131521Y-6836048D01*
X6117235Y-6821763D01*
X6131521Y-6807477D01*
X6131521Y-6836048D01*
X6317235Y-6664620D02*
X6288664Y-6650334D01*
X6274378Y-6636048D01*
X6260092Y-6607477D01*
X6260092Y-6593191D01*
X6274378Y-6564620D01*
X6288664Y-6550334D01*
X6317235Y-6536048D01*
X6374378Y-6536048D01*
X6402949Y-6550334D01*
X6417235Y-6564620D01*
X6431521Y-6593191D01*
X6431521Y-6607477D01*
X6417235Y-6636048D01*
X6402949Y-6650334D01*
X6374378Y-6664620D01*
X6317235Y-6664620D01*
X6288664Y-6678905D01*
X6274378Y-6693191D01*
X6260092Y-6721763D01*
X6260092Y-6778905D01*
X6274378Y-6807477D01*
X6288664Y-6821763D01*
X6317235Y-6836048D01*
X6374378Y-6836048D01*
X6402949Y-6821763D01*
X6417235Y-6807477D01*
X6431521Y-6778905D01*
X6431521Y-6721763D01*
X6417235Y-6693191D01*
X6402949Y-6678905D01*
X6374378Y-6664620D01*
X6617235Y-6536048D02*
X6645806Y-6536048D01*
X6674378Y-6550334D01*
X6688664Y-6564620D01*
X6702949Y-6593191D01*
X6717235Y-6650334D01*
X6717235Y-6721763D01*
X6702949Y-6778905D01*
X6688664Y-6807477D01*
X6674378Y-6821763D01*
X6645806Y-6836048D01*
X6617235Y-6836048D01*
X6588664Y-6821763D01*
X6574378Y-6807477D01*
X6560092Y-6778905D01*
X6545806Y-6721763D01*
X6545806Y-6650334D01*
X6560092Y-6593191D01*
X6574378Y-6564620D01*
X6588664Y-6550334D01*
X6617235Y-6536048D01*
X6845806Y-6836048D02*
X6845806Y-6636048D01*
X6845806Y-6664620D02*
X6860092Y-6650334D01*
X6888664Y-6636048D01*
X6931521Y-6636048D01*
X6960092Y-6650334D01*
X6974378Y-6678905D01*
X6974378Y-6836048D01*
X6974378Y-6678905D02*
X6988664Y-6650334D01*
X7017235Y-6636048D01*
X7060092Y-6636048D01*
X7088664Y-6650334D01*
X7102949Y-6678905D01*
X7102949Y-6836048D01*
X7245806Y-6836048D02*
X7245806Y-6636048D01*
X7245806Y-6664620D02*
X7260092Y-6650334D01*
X7288664Y-6636048D01*
X7331521Y-6636048D01*
X7360092Y-6650334D01*
X7374378Y-6678905D01*
X7374378Y-6836048D01*
X7374378Y-6678905D02*
X7388664Y-6650334D01*
X7417235Y-6636048D01*
X7460092Y-6636048D01*
X7488664Y-6650334D01*
X7502949Y-6678905D01*
X7502949Y-6836048D01*
X8088664Y-6521763D02*
X7831521Y-6907477D01*
X8474378Y-6536048D02*
X8502949Y-6536048D01*
X8531521Y-6550334D01*
X8545806Y-6564620D01*
X8560092Y-6593191D01*
X8574378Y-6650334D01*
X8574378Y-6721763D01*
X8560092Y-6778905D01*
X8545806Y-6807477D01*
X8531521Y-6821763D01*
X8502949Y-6836048D01*
X8474378Y-6836048D01*
X8445806Y-6821763D01*
X8431521Y-6807477D01*
X8417235Y-6778905D01*
X8402949Y-6721763D01*
X8402949Y-6650334D01*
X8417235Y-6593191D01*
X8431521Y-6564620D01*
X8445806Y-6550334D01*
X8474378Y-6536048D01*
X8702949Y-6807477D02*
X8717235Y-6821763D01*
X8702949Y-6836048D01*
X8688664Y-6821763D01*
X8702949Y-6807477D01*
X8702949Y-6836048D01*
X8902949Y-6536048D02*
X8931521Y-6536048D01*
X8960092Y-6550334D01*
X8974378Y-6564620D01*
X8988664Y-6593191D01*
X9002949Y-6650334D01*
X9002949Y-6721763D01*
X8988664Y-6778905D01*
X8974378Y-6807477D01*
X8960092Y-6821763D01*
X8931521Y-6836048D01*
X8902949Y-6836048D01*
X8874378Y-6821763D01*
X8860092Y-6807477D01*
X8845806Y-6778905D01*
X8831521Y-6721763D01*
X8831521Y-6650334D01*
X8845806Y-6593191D01*
X8860092Y-6564620D01*
X8874378Y-6550334D01*
X8902949Y-6536048D01*
X9102949Y-6536048D02*
X9288664Y-6536048D01*
X9188664Y-6650334D01*
X9231521Y-6650334D01*
X9260092Y-6664620D01*
X9274378Y-6678905D01*
X9288664Y-6707477D01*
X9288664Y-6778905D01*
X9274378Y-6807477D01*
X9260092Y-6821763D01*
X9231521Y-6836048D01*
X9145806Y-6836048D01*
X9117235Y-6821763D01*
X9102949Y-6807477D01*
X9574378Y-6836048D02*
X9402949Y-6836048D01*
X9488664Y-6836048D02*
X9488664Y-6536048D01*
X9460092Y-6578905D01*
X9431521Y-6607477D01*
X9402949Y-6621763D01*
X9688664Y-6536048D02*
X9688664Y-6593191D01*
X9802949Y-6536048D02*
X9802949Y-6593191D01*
X10245806Y-6950334D02*
X10231521Y-6936048D01*
X10202949Y-6893191D01*
X10188664Y-6864620D01*
X10174378Y-6821763D01*
X10160092Y-6750334D01*
X10160092Y-6693191D01*
X10174378Y-6621763D01*
X10188664Y-6578905D01*
X10202949Y-6550334D01*
X10231521Y-6507477D01*
X10245806Y-6493191D01*
X10331521Y-6536048D02*
X10517235Y-6536048D01*
X10417235Y-6650334D01*
X10460092Y-6650334D01*
X10488664Y-6664620D01*
X10502949Y-6678905D01*
X10517235Y-6707477D01*
X10517235Y-6778905D01*
X10502949Y-6807477D01*
X10488664Y-6821763D01*
X10460092Y-6836048D01*
X10374378Y-6836048D01*
X10345806Y-6821763D01*
X10331521Y-6807477D01*
X10788664Y-6536048D02*
X10645806Y-6536048D01*
X10631521Y-6678905D01*
X10645806Y-6664620D01*
X10674378Y-6650334D01*
X10745806Y-6650334D01*
X10774378Y-6664620D01*
X10788664Y-6678905D01*
X10802949Y-6707477D01*
X10802949Y-6778905D01*
X10788664Y-6807477D01*
X10774378Y-6821763D01*
X10745806Y-6836048D01*
X10674378Y-6836048D01*
X10645806Y-6821763D01*
X10631521Y-6807477D01*
X11160092Y-6836048D02*
X11160092Y-6536048D01*
X11288664Y-6836048D02*
X11288664Y-6678905D01*
X11274378Y-6650334D01*
X11245806Y-6636048D01*
X11202949Y-6636048D01*
X11174378Y-6650334D01*
X11160092Y-6664620D01*
X11474378Y-6836048D02*
X11445806Y-6821763D01*
X11431521Y-6807477D01*
X11417235Y-6778905D01*
X11417235Y-6693191D01*
X11431521Y-6664620D01*
X11445806Y-6650334D01*
X11474378Y-6636048D01*
X11517235Y-6636048D01*
X11545806Y-6650334D01*
X11560092Y-6664620D01*
X11574378Y-6693191D01*
X11574378Y-6778905D01*
X11560092Y-6807477D01*
X11545806Y-6821763D01*
X11517235Y-6836048D01*
X11474378Y-6836048D01*
X11745806Y-6836048D02*
X11717235Y-6821763D01*
X11702949Y-6793191D01*
X11702949Y-6536048D01*
X11974378Y-6821763D02*
X11945806Y-6836048D01*
X11888664Y-6836048D01*
X11860092Y-6821763D01*
X11845806Y-6793191D01*
X11845806Y-6678905D01*
X11860092Y-6650334D01*
X11888664Y-6636048D01*
X11945806Y-6636048D01*
X11974378Y-6650334D01*
X11988664Y-6678905D01*
X11988664Y-6707477D01*
X11845806Y-6736048D01*
X12102949Y-6821763D02*
X12131521Y-6836048D01*
X12188664Y-6836048D01*
X12217235Y-6821763D01*
X12231521Y-6793191D01*
X12231521Y-6778905D01*
X12217235Y-6750334D01*
X12188664Y-6736048D01*
X12145806Y-6736048D01*
X12117235Y-6721763D01*
X12102949Y-6693191D01*
X12102949Y-6678905D01*
X12117235Y-6650334D01*
X12145806Y-6636048D01*
X12188664Y-6636048D01*
X12217235Y-6650334D01*
X12331521Y-6950334D02*
X12345806Y-6936048D01*
X12374378Y-6893191D01*
X12388664Y-6864620D01*
X12402949Y-6821763D01*
X12417235Y-6750334D01*
X12417235Y-6693191D01*
X12402949Y-6621763D01*
X12388664Y-6578905D01*
X12374378Y-6550334D01*
X12345806Y-6507477D01*
X12331521Y-6493191D01*
X5509378Y-7046334D02*
X5509378Y-7146334D01*
X5459378Y-7096334D02*
X5559378Y-7096334D01*
X6002949Y-7232048D02*
X5831521Y-7232048D01*
X5917235Y-7232048D02*
X5917235Y-6932048D01*
X5888664Y-6974905D01*
X5860092Y-7003477D01*
X5831521Y-7017763D01*
X6131521Y-7203477D02*
X6145806Y-7217763D01*
X6131521Y-7232048D01*
X6117235Y-7217763D01*
X6131521Y-7203477D01*
X6131521Y-7232048D01*
X6331521Y-6932048D02*
X6360092Y-6932048D01*
X6388664Y-6946334D01*
X6402949Y-6960620D01*
X6417235Y-6989191D01*
X6431521Y-7046334D01*
X6431521Y-7117763D01*
X6417235Y-7174905D01*
X6402949Y-7203477D01*
X6388664Y-7217763D01*
X6360092Y-7232048D01*
X6331521Y-7232048D01*
X6302949Y-7217763D01*
X6288664Y-7203477D01*
X6274378Y-7174905D01*
X6260092Y-7117763D01*
X6260092Y-7046334D01*
X6274378Y-6989191D01*
X6288664Y-6960620D01*
X6302949Y-6946334D01*
X6331521Y-6932048D01*
X6617235Y-6932048D02*
X6645806Y-6932048D01*
X6674378Y-6946334D01*
X6688664Y-6960620D01*
X6702949Y-6989191D01*
X6717235Y-7046334D01*
X6717235Y-7117763D01*
X6702949Y-7174905D01*
X6688664Y-7203477D01*
X6674378Y-7217763D01*
X6645806Y-7232048D01*
X6617235Y-7232048D01*
X6588664Y-7217763D01*
X6574378Y-7203477D01*
X6560092Y-7174905D01*
X6545806Y-7117763D01*
X6545806Y-7046334D01*
X6560092Y-6989191D01*
X6574378Y-6960620D01*
X6588664Y-6946334D01*
X6617235Y-6932048D01*
X6845806Y-7232048D02*
X6845806Y-7032048D01*
X6845806Y-7060620D02*
X6860092Y-7046334D01*
X6888664Y-7032048D01*
X6931521Y-7032048D01*
X6960092Y-7046334D01*
X6974378Y-7074905D01*
X6974378Y-7232048D01*
X6974378Y-7074905D02*
X6988664Y-7046334D01*
X7017235Y-7032048D01*
X7060092Y-7032048D01*
X7088664Y-7046334D01*
X7102949Y-7074905D01*
X7102949Y-7232048D01*
X7245806Y-7232048D02*
X7245806Y-7032048D01*
X7245806Y-7060620D02*
X7260092Y-7046334D01*
X7288664Y-7032048D01*
X7331521Y-7032048D01*
X7360092Y-7046334D01*
X7374378Y-7074905D01*
X7374378Y-7232048D01*
X7374378Y-7074905D02*
X7388664Y-7046334D01*
X7417235Y-7032048D01*
X7460092Y-7032048D01*
X7488664Y-7046334D01*
X7502949Y-7074905D01*
X7502949Y-7232048D01*
X8088664Y-6917763D02*
X7831521Y-7303477D01*
X8474378Y-6932048D02*
X8502949Y-6932048D01*
X8531521Y-6946334D01*
X8545806Y-6960620D01*
X8560092Y-6989191D01*
X8574378Y-7046334D01*
X8574378Y-7117763D01*
X8560092Y-7174905D01*
X8545806Y-7203477D01*
X8531521Y-7217763D01*
X8502949Y-7232048D01*
X8474378Y-7232048D01*
X8445806Y-7217763D01*
X8431521Y-7203477D01*
X8417235Y-7174905D01*
X8402949Y-7117763D01*
X8402949Y-7046334D01*
X8417235Y-6989191D01*
X8431521Y-6960620D01*
X8445806Y-6946334D01*
X8474378Y-6932048D01*
X8702949Y-7203477D02*
X8717235Y-7217763D01*
X8702949Y-7232048D01*
X8688664Y-7217763D01*
X8702949Y-7203477D01*
X8702949Y-7232048D01*
X8902949Y-6932048D02*
X8931521Y-6932048D01*
X8960092Y-6946334D01*
X8974378Y-6960620D01*
X8988664Y-6989191D01*
X9002949Y-7046334D01*
X9002949Y-7117763D01*
X8988664Y-7174905D01*
X8974378Y-7203477D01*
X8960092Y-7217763D01*
X8931521Y-7232048D01*
X8902949Y-7232048D01*
X8874378Y-7217763D01*
X8860092Y-7203477D01*
X8845806Y-7174905D01*
X8831521Y-7117763D01*
X8831521Y-7046334D01*
X8845806Y-6989191D01*
X8860092Y-6960620D01*
X8874378Y-6946334D01*
X8902949Y-6932048D01*
X9102949Y-6932048D02*
X9288664Y-6932048D01*
X9188664Y-7046334D01*
X9231521Y-7046334D01*
X9260092Y-7060620D01*
X9274378Y-7074905D01*
X9288664Y-7103477D01*
X9288664Y-7174905D01*
X9274378Y-7203477D01*
X9260092Y-7217763D01*
X9231521Y-7232048D01*
X9145806Y-7232048D01*
X9117235Y-7217763D01*
X9102949Y-7203477D01*
X9431521Y-7232048D02*
X9488664Y-7232048D01*
X9517235Y-7217763D01*
X9531521Y-7203477D01*
X9560092Y-7160620D01*
X9574378Y-7103477D01*
X9574378Y-6989191D01*
X9560092Y-6960620D01*
X9545806Y-6946334D01*
X9517235Y-6932048D01*
X9460092Y-6932048D01*
X9431521Y-6946334D01*
X9417235Y-6960620D01*
X9402949Y-6989191D01*
X9402949Y-7060620D01*
X9417235Y-7089191D01*
X9431521Y-7103477D01*
X9460092Y-7117763D01*
X9517235Y-7117763D01*
X9545806Y-7103477D01*
X9560092Y-7089191D01*
X9574378Y-7060620D01*
X9688664Y-6932048D02*
X9688664Y-6989191D01*
X9802949Y-6932048D02*
X9802949Y-6989191D01*
X10245806Y-7346334D02*
X10231521Y-7332048D01*
X10202949Y-7289191D01*
X10188664Y-7260620D01*
X10174378Y-7217763D01*
X10160092Y-7146334D01*
X10160092Y-7089191D01*
X10174378Y-7017763D01*
X10188664Y-6974905D01*
X10202949Y-6946334D01*
X10231521Y-6903477D01*
X10245806Y-6889191D01*
X10517235Y-7232048D02*
X10345806Y-7232048D01*
X10431521Y-7232048D02*
X10431521Y-6932048D01*
X10402949Y-6974905D01*
X10374378Y-7003477D01*
X10345806Y-7017763D01*
X10774378Y-6932048D02*
X10717235Y-6932048D01*
X10688664Y-6946334D01*
X10674378Y-6960620D01*
X10645806Y-7003477D01*
X10631521Y-7060620D01*
X10631521Y-7174905D01*
X10645806Y-7203477D01*
X10660092Y-7217763D01*
X10688664Y-7232048D01*
X10745806Y-7232048D01*
X10774378Y-7217763D01*
X10788664Y-7203477D01*
X10802949Y-7174905D01*
X10802949Y-7103477D01*
X10788664Y-7074905D01*
X10774378Y-7060620D01*
X10745806Y-7046334D01*
X10688664Y-7046334D01*
X10660092Y-7060620D01*
X10645806Y-7074905D01*
X10631521Y-7103477D01*
X11160092Y-7232048D02*
X11160092Y-6932048D01*
X11288664Y-7232048D02*
X11288664Y-7074905D01*
X11274378Y-7046334D01*
X11245806Y-7032048D01*
X11202949Y-7032048D01*
X11174378Y-7046334D01*
X11160092Y-7060620D01*
X11474378Y-7232048D02*
X11445806Y-7217763D01*
X11431521Y-7203477D01*
X11417235Y-7174905D01*
X11417235Y-7089191D01*
X11431521Y-7060620D01*
X11445806Y-7046334D01*
X11474378Y-7032048D01*
X11517235Y-7032048D01*
X11545806Y-7046334D01*
X11560092Y-7060620D01*
X11574378Y-7089191D01*
X11574378Y-7174905D01*
X11560092Y-7203477D01*
X11545806Y-7217763D01*
X11517235Y-7232048D01*
X11474378Y-7232048D01*
X11745806Y-7232048D02*
X11717235Y-7217763D01*
X11702949Y-7189191D01*
X11702949Y-6932048D01*
X11974378Y-7217763D02*
X11945806Y-7232048D01*
X11888664Y-7232048D01*
X11860092Y-7217763D01*
X11845806Y-7189191D01*
X11845806Y-7074905D01*
X11860092Y-7046334D01*
X11888664Y-7032048D01*
X11945806Y-7032048D01*
X11974378Y-7046334D01*
X11988664Y-7074905D01*
X11988664Y-7103477D01*
X11845806Y-7132048D01*
X12102949Y-7217763D02*
X12131521Y-7232048D01*
X12188664Y-7232048D01*
X12217235Y-7217763D01*
X12231521Y-7189191D01*
X12231521Y-7174905D01*
X12217235Y-7146334D01*
X12188664Y-7132048D01*
X12145806Y-7132048D01*
X12117235Y-7117763D01*
X12102949Y-7089191D01*
X12102949Y-7074905D01*
X12117235Y-7046334D01*
X12145806Y-7032048D01*
X12188664Y-7032048D01*
X12217235Y-7046334D01*
X12331521Y-7346334D02*
X12345806Y-7332048D01*
X12374378Y-7289191D01*
X12388664Y-7260620D01*
X12402949Y-7217763D01*
X12417235Y-7146334D01*
X12417235Y-7089191D01*
X12402949Y-7017763D01*
X12388664Y-6974905D01*
X12374378Y-6946334D01*
X12345806Y-6903477D01*
X12331521Y-6889191D01*
M02*
