%TF.GenerationSoftware,KiCad,Pcbnew,(5.1.7)-1*%
%TF.CreationDate,2021-04-11T18:09:15+01:00*%
%TF.ProjectId,AccCircV2,41636343-6972-4635-9632-2e6b69636164,rev?*%
%TF.SameCoordinates,Original*%
%TF.FileFunction,Copper,L1,Top*%
%TF.FilePolarity,Positive*%
%FSLAX46Y46*%
G04 Gerber Fmt 4.6, Leading zero omitted, Abs format (unit mm)*
G04 Created by KiCad (PCBNEW (5.1.7)-1) date 2021-04-11 18:09:15*
%MOMM*%
%LPD*%
G01*
G04 APERTURE LIST*
%TA.AperFunction,ComponentPad*%
%ADD10C,2.000000*%
%TD*%
%TA.AperFunction,ComponentPad*%
%ADD11R,1.050000X1.500000*%
%TD*%
%TA.AperFunction,ComponentPad*%
%ADD12O,1.050000X1.500000*%
%TD*%
%TA.AperFunction,ComponentPad*%
%ADD13O,1.700000X1.700000*%
%TD*%
%TA.AperFunction,ComponentPad*%
%ADD14R,1.700000X1.700000*%
%TD*%
%TA.AperFunction,ComponentPad*%
%ADD15O,2.200000X2.200000*%
%TD*%
%TA.AperFunction,ComponentPad*%
%ADD16R,2.200000X2.200000*%
%TD*%
%TA.AperFunction,ComponentPad*%
%ADD17R,2.000000X2.000000*%
%TD*%
%TA.AperFunction,Conductor*%
%ADD18C,1.000000*%
%TD*%
G04 APERTURE END LIST*
D10*
%TO.P,U1,7*%
%TO.N,VolDivider*%
X100330000Y-47115000D03*
%TO.P,U1,6*%
X97790000Y-47115000D03*
%TO.P,U1,8*%
%TO.N,+3V3*%
X102870000Y-47115000D03*
%TO.P,U1,5*%
%TO.N,Net-(R4-Pad2)*%
X95250000Y-47115000D03*
%TO.P,U1,1*%
%TO.N,Net-(J2-Pad10)*%
X102870000Y-39245000D03*
%TO.P,U1,4*%
%TO.N,GND*%
X95250000Y-39245000D03*
%TO.P,U1,2*%
%TO.N,Net-(R1-Pad1)*%
X100330000Y-39245000D03*
%TO.P,U1,3*%
%TO.N,Net-(J5-Pad2)*%
X97790000Y-39245000D03*
%TD*%
%TO.P,R6,2*%
%TO.N,PIN3.2*%
X57150000Y-34290000D03*
%TO.P,R6,1*%
%TO.N,GND*%
X57150000Y-44450000D03*
%TD*%
%TO.P,R5,2*%
%TO.N,GND*%
X80010000Y-39370000D03*
%TO.P,R5,1*%
%TO.N,Net-(R4-Pad2)*%
X90170000Y-39370000D03*
%TD*%
%TO.P,R4,2*%
%TO.N,Net-(R4-Pad2)*%
X90170000Y-43180000D03*
%TO.P,R4,1*%
%TO.N,+3V3*%
X80010000Y-43180000D03*
%TD*%
D11*
%TO.P,Q1,1*%
%TO.N,GND*%
X53340000Y-38100000D03*
D12*
%TO.P,Q1,3*%
%TO.N,Net-(D1-Pad2)*%
X50800000Y-38100000D03*
%TO.P,Q1,2*%
%TO.N,PIN3.2*%
X52070000Y-38100000D03*
%TD*%
D10*
%TO.P,J7,2*%
%TO.N,GND*%
X53340000Y-48298100D03*
%TO.P,J7,1*%
%TO.N,+5V*%
X50800000Y-48298100D03*
%TD*%
%TO.P,J6,2*%
%TO.N,Net-(D1-Pad2)*%
X57150000Y-25400000D03*
%TO.P,J6,1*%
%TO.N,+5V*%
X54610000Y-25400000D03*
%TD*%
%TO.P,J5,3*%
%TO.N,VolDivider*%
X93980000Y-34138100D03*
%TO.P,J5,2*%
%TO.N,Net-(J5-Pad2)*%
X93980000Y-31598100D03*
%TO.P,J5,1*%
%TO.N,VolRef1V2*%
X93980000Y-29058100D03*
%TD*%
D13*
%TO.P,J4,2*%
%TO.N,+3V3*%
X72390000Y-48298100D03*
D14*
%TO.P,J4,1*%
%TO.N,GND*%
X69850000Y-48298100D03*
%TD*%
D15*
%TO.P,D1,2*%
%TO.N,Net-(D1-Pad2)*%
X57150000Y-30480000D03*
D16*
%TO.P,D1,1*%
%TO.N,+5V*%
X46990000Y-30480000D03*
%TD*%
D10*
%TO.P,C3,2*%
%TO.N,AccSignal*%
X86400000Y-30480000D03*
%TO.P,C3,1*%
%TO.N,Net-(C3-Pad1)*%
X88900000Y-30480000D03*
%TD*%
D17*
%TO.P,C1,1*%
%TO.N,+3V3*%
X85090000Y-48260000D03*
D10*
%TO.P,C1,2*%
%TO.N,GND*%
X87590000Y-48260000D03*
%TD*%
%TO.P,C2,1*%
%TO.N,+3V3*%
X78740000Y-48260000D03*
%TO.P,C2,2*%
%TO.N,GND*%
X81240000Y-48260000D03*
%TD*%
D17*
%TO.P,J2,1*%
%TO.N,N/C*%
X108645240Y-48298100D03*
D10*
%TO.P,J2,2*%
X108645240Y-45758100D03*
%TO.P,J2,3*%
X108645240Y-43218100D03*
%TO.P,J2,4*%
X108645240Y-40678100D03*
%TO.P,J2,5*%
X108645240Y-38138100D03*
%TO.P,J2,6*%
X108645240Y-35598100D03*
%TO.P,J2,7*%
X108645240Y-33058100D03*
%TO.P,J2,8*%
X108645240Y-30518100D03*
%TO.P,J2,9*%
X108645240Y-27978100D03*
%TO.P,J2,10*%
%TO.N,Net-(J2-Pad10)*%
X108645240Y-25438100D03*
%TD*%
%TO.P,J3,10*%
%TO.N,GND*%
X62245240Y-48308100D03*
%TO.P,J3,9*%
%TO.N,N/C*%
X62245240Y-45768100D03*
%TO.P,J3,8*%
X62245240Y-43228100D03*
%TO.P,J3,7*%
X62245240Y-40688100D03*
%TO.P,J3,6*%
%TO.N,PIN3.2*%
X62245240Y-38148100D03*
%TO.P,J3,5*%
%TO.N,N/C*%
X62245240Y-35608100D03*
%TO.P,J3,4*%
X62245240Y-33068100D03*
%TO.P,J3,3*%
X62245240Y-30528100D03*
%TO.P,J3,2*%
X62245240Y-27988100D03*
%TO.P,J3,1*%
X62245240Y-25448100D03*
%TD*%
%TO.P,R1,2*%
%TO.N,Net-(C3-Pad1)*%
X99060000Y-24698100D03*
%TO.P,R1,1*%
%TO.N,Net-(R1-Pad1)*%
X99060000Y-34858100D03*
%TD*%
%TO.P,R2,1*%
%TO.N,Net-(J2-Pad10)*%
X102870000Y-24698100D03*
%TO.P,R2,2*%
%TO.N,Net-(R1-Pad1)*%
X102870000Y-34858100D03*
%TD*%
%TO.P,R3,1*%
%TO.N,+3V3*%
X69850000Y-44450000D03*
%TO.P,R3,2*%
%TO.N,VolRef1V2*%
X69850000Y-34290000D03*
%TD*%
%TO.P,U2,2*%
%TO.N,VolRef1V2*%
X80010000Y-33020000D03*
%TO.P,U2,3*%
%TO.N,GND*%
X80010000Y-35560000D03*
D17*
%TO.P,U2,1*%
X80010000Y-30480000D03*
%TD*%
D10*
%TO.P,J8,1*%
%TO.N,PIN3.2*%
X72390000Y-25448100D03*
%TO.P,J8,2*%
%TO.N,GND*%
X74930000Y-25448100D03*
%TO.P,J8,3*%
%TO.N,AccSignal*%
X77470000Y-25448100D03*
%TD*%
%TO.P,J1,1*%
%TO.N,+3V3*%
X83693000Y-25448100D03*
%TO.P,J1,2*%
%TO.N,AccSignal*%
X86233000Y-25448100D03*
%TO.P,J1,3*%
%TO.N,GND*%
X88773000Y-25448100D03*
%TD*%
D18*
%TO.N,Net-(J2-Pad10)*%
X108439500Y-25643840D02*
X108645240Y-25438100D01*
%TO.N,Net-(R1-Pad1)*%
X99060000Y-34858100D02*
X102870000Y-34858100D01*
%TO.N,+3V3*%
X72390000Y-48298100D02*
X72390000Y-46990000D01*
X81280000Y-43180000D02*
X80010000Y-43180000D01*
X85090000Y-46990000D02*
X81280000Y-43180000D01*
X85090000Y-48260000D02*
X85090000Y-46990000D01*
X78740000Y-44450000D02*
X80010000Y-43180000D01*
X78740000Y-48260000D02*
X78740000Y-44450000D01*
X78701900Y-48298100D02*
X78740000Y-48260000D01*
X72390000Y-48298100D02*
X78701900Y-48298100D01*
X69850000Y-44450000D02*
X71120000Y-44450000D01*
X71120000Y-44450000D02*
X72390000Y-45720000D01*
X72390000Y-45720000D02*
X72390000Y-46990000D01*
X83693000Y-40767000D02*
X81280000Y-43180000D01*
X83693000Y-25448100D02*
X83693000Y-40767000D01*
%TO.N,Net-(C3-Pad1)*%
X91440000Y-27940000D02*
X88900000Y-30480000D01*
X91440000Y-26670000D02*
X91440000Y-27940000D01*
X93411900Y-24698100D02*
X91440000Y-26670000D01*
X99060000Y-24698100D02*
X93411900Y-24698100D01*
%TO.N,Net-(R4-Pad2)*%
X90170000Y-43180000D02*
X90170000Y-39370000D01*
%TD*%
M02*
