M48
; DRILL file {KiCad (5.1.7)-1} date 04/11/21 18:09:21
; FORMAT={-:-/ absolute / inch / decimal}
; #@! TF.CreationDate,2021-04-11T18:09:21+01:00
; #@! TF.GenerationSoftware,Kicad,Pcbnew,(5.1.7)-1
; #@! TF.FileFunction,Plated,1,2,PTH
FMAT,2
INCH
T1C0.0295
T2C0.0315
T3C0.0394
T4C0.0433
%
G90
G05
T1
X2.0Y-1.5
X2.05Y-1.5
X2.1Y-1.5
T2
X3.15Y-1.55
X3.55Y-1.55
X2.25Y-1.35
X2.25Y-1.75
X3.15Y-1.7
X3.55Y-1.7
X4.05Y-0.9724
X4.05Y-1.3724
X3.75Y-1.5451
X3.75Y-1.8549
X3.85Y-1.5451
X3.85Y-1.8549
X3.95Y-1.5451
X3.95Y-1.8549
X4.05Y-1.5451
X4.05Y-1.8549
X3.295Y-1.0019
X3.395Y-1.0019
X3.495Y-1.0019
X4.2774Y-1.0015
X4.2774Y-1.1015
X4.2774Y-1.2015
X4.2774Y-1.3015
X4.2774Y-1.4015
X4.2774Y-1.5015
X4.2774Y-1.6015
X4.2774Y-1.7015
X4.2774Y-1.8015
X3.9Y-0.9724
X3.9Y-1.3724
X3.4484Y-1.9
X3.7Y-1.144
X3.7Y-1.244
X3.7Y-1.344
X3.15Y-1.3
X3.15Y-1.4
X2.15Y-1.0
X2.25Y-1.0
X2.0Y-1.9015
X2.1Y-1.9015
X3.1Y-1.9
X3.1984Y-1.9
X2.75Y-1.35
X2.75Y-1.75
X3.4016Y-1.2
X3.5Y-1.2
X2.85Y-1.0019
X2.95Y-1.0019
X3.05Y-1.0019
X2.4506Y-1.0019
X2.4506Y-1.1019
X2.4506Y-1.2019
X2.4506Y-1.3019
X2.4506Y-1.4019
X2.4506Y-1.5019
X2.4506Y-1.6019
X2.4506Y-1.7019
X2.4506Y-1.8019
X2.4506Y-1.9019
T3
X2.75Y-1.9015
X2.85Y-1.9015
X4.2774Y-1.9015
X3.35Y-1.9
X3.15Y-1.2
T4
X1.85Y-1.2
X2.25Y-1.2
T0
M30
