%TF.GenerationSoftware,KiCad,Pcbnew,(5.1.7)-1*%
%TF.CreationDate,2020-12-21T03:00:28+00:00*%
%TF.ProjectId,AccCircV2,41636343-6972-4635-9632-2e6b69636164,rev?*%
%TF.SameCoordinates,Original*%
%TF.FileFunction,Copper,L1,Top*%
%TF.FilePolarity,Positive*%
%FSLAX46Y46*%
G04 Gerber Fmt 4.6, Leading zero omitted, Abs format (unit mm)*
G04 Created by KiCad (PCBNEW (5.1.7)-1) date 2020-12-21 03:00:28*
%MOMM*%
%LPD*%
G01*
G04 APERTURE LIST*
%TA.AperFunction,ComponentPad*%
%ADD10R,2.000000X2.000000*%
%TD*%
%TA.AperFunction,ComponentPad*%
%ADD11C,2.000000*%
%TD*%
%TA.AperFunction,ComponentPad*%
%ADD12O,1.700000X1.700000*%
%TD*%
%TA.AperFunction,ViaPad*%
%ADD13C,1.500000*%
%TD*%
%TA.AperFunction,Conductor*%
%ADD14C,1.000000*%
%TD*%
G04 APERTURE END LIST*
D10*
%TO.P,C1,1*%
%TO.N,VDD*%
X84123968Y-46530260D03*
D11*
%TO.P,C1,2*%
%TO.N,GND*%
X86623968Y-46530260D03*
%TD*%
%TO.P,C2,1*%
%TO.N,VDD*%
X84079080Y-41976040D03*
%TO.P,C2,2*%
%TO.N,GND*%
X86579080Y-41976040D03*
%TD*%
D10*
%TO.P,J1,1*%
%TO.N,VDD*%
X83693000Y-25250140D03*
D11*
%TO.P,J1,2*%
%TO.N,Net-(J1-Pad2)*%
X86233000Y-25250140D03*
%TO.P,J1,3*%
%TO.N,GND*%
X88773000Y-25250140D03*
%TD*%
D10*
%TO.P,J2,1*%
%TO.N,Net-(J2-Pad1)*%
X108645240Y-48298100D03*
D11*
%TO.P,J2,2*%
%TO.N,Net-(J2-Pad2)*%
X108645240Y-45758100D03*
%TO.P,J2,3*%
%TO.N,Net-(J2-Pad3)*%
X108645240Y-43218100D03*
%TO.P,J2,4*%
%TO.N,Net-(J2-Pad4)*%
X108645240Y-40678100D03*
%TO.P,J2,5*%
%TO.N,Net-(J2-Pad5)*%
X108645240Y-38138100D03*
%TO.P,J2,6*%
%TO.N,Net-(J2-Pad6)*%
X108645240Y-35598100D03*
%TO.P,J2,7*%
%TO.N,Net-(J2-Pad7)*%
X108645240Y-33058100D03*
%TO.P,J2,8*%
%TO.N,Net-(J2-Pad8)*%
X108645240Y-30518100D03*
%TO.P,J2,9*%
%TO.N,Net-(J2-Pad9)*%
X108645240Y-27978100D03*
%TO.P,J2,10*%
%TO.N,Net-(J2-Pad10)*%
X108645240Y-25438100D03*
%TD*%
D12*
%TO.P,J3,10*%
%TO.N,Net-(J3-Pad10)*%
X62245240Y-48308100D03*
%TO.P,J3,9*%
%TO.N,Net-(J3-Pad9)*%
X62245240Y-45768100D03*
%TO.P,J3,8*%
%TO.N,Net-(J3-Pad8)*%
X62245240Y-43228100D03*
%TO.P,J3,7*%
%TO.N,Net-(J3-Pad7)*%
X62245240Y-40688100D03*
%TO.P,J3,6*%
%TO.N,Net-(J3-Pad6)*%
X62245240Y-38148100D03*
%TO.P,J3,5*%
%TO.N,Net-(J3-Pad5)*%
X62245240Y-35608100D03*
%TO.P,J3,4*%
%TO.N,PIN3.2*%
X62245240Y-33068100D03*
%TO.P,J3,3*%
%TO.N,Net-(J3-Pad3)*%
X62245240Y-30528100D03*
%TO.P,J3,2*%
%TO.N,Net-(J3-Pad2)*%
X62245240Y-27988100D03*
D10*
%TO.P,J3,1*%
%TO.N,GND*%
X62245240Y-25448100D03*
%TD*%
D11*
%TO.P,J4,3*%
%TO.N,PIN3.2*%
X71574660Y-48475900D03*
%TO.P,J4,2*%
%TO.N,GND*%
X74114660Y-48475900D03*
D10*
%TO.P,J4,1*%
%TO.N,VDD*%
X76654660Y-48475900D03*
%TD*%
D11*
%TO.P,R1,2*%
%TO.N,Net-(J1-Pad2)*%
X97482660Y-25643840D03*
%TO.P,R1,1*%
%TO.N,Net-(R1-Pad1)*%
X97482660Y-35803840D03*
%TD*%
%TO.P,R2,1*%
%TO.N,Net-(J2-Pad10)*%
X100744020Y-25643840D03*
%TO.P,R2,2*%
%TO.N,Net-(R1-Pad1)*%
X100744020Y-35803840D03*
%TD*%
%TO.P,R3,2*%
%TO.N,VolRef1V2*%
X80627220Y-33167320D03*
%TO.P,R3,1*%
%TO.N,Net-(R3-Pad1)*%
X90787220Y-33167320D03*
%TD*%
%TO.P,R4,1*%
%TO.N,Net-(R3-Pad1)*%
X90787220Y-36286440D03*
%TO.P,R4,2*%
%TO.N,GND*%
X80627220Y-36286440D03*
%TD*%
%TO.P,R5,1*%
%TO.N,VDD*%
X75341480Y-38130480D03*
%TO.P,R5,2*%
%TO.N,VolRef1V2*%
X75341480Y-27970480D03*
%TD*%
%TO.P,U1,3*%
%TO.N,Net-(R3-Pad1)*%
X95854520Y-40593740D03*
%TO.P,U1,2*%
%TO.N,Net-(R1-Pad1)*%
X98394520Y-40593740D03*
%TO.P,U1,4*%
%TO.N,GND*%
X93314520Y-40593740D03*
D10*
%TO.P,U1,1*%
%TO.N,Net-(J2-Pad10)*%
X100934520Y-40593740D03*
D11*
%TO.P,U1,5*%
%TO.N,N/C*%
X93314520Y-48463740D03*
%TO.P,U1,8*%
%TO.N,VDD*%
X100934520Y-48463740D03*
%TO.P,U1,6*%
%TO.N,N/C*%
X95854520Y-48463740D03*
%TO.P,U1,7*%
X98394520Y-48463740D03*
%TD*%
%TO.P,U2,2*%
%TO.N,VolRef1V2*%
X69568060Y-27937460D03*
%TO.P,U2,3*%
%TO.N,GND*%
X69568060Y-25397460D03*
D10*
%TO.P,U2,1*%
X69568060Y-30477460D03*
%TD*%
D13*
%TO.N,VDD*%
X84079080Y-29230320D03*
%TO.N,Net-(J1-Pad2)*%
X87391240Y-28889960D03*
%TD*%
D14*
%TO.N,VDD*%
X84079080Y-46485372D02*
X84123968Y-46530260D01*
X84079080Y-41976040D02*
X84079080Y-46485372D01*
X84079080Y-41976040D02*
X84079080Y-29230320D01*
X84079080Y-29230320D02*
X84079080Y-29230320D01*
X84123968Y-46514258D02*
X86518426Y-44119800D01*
X84123968Y-46530260D02*
X84123968Y-46514258D01*
X86518426Y-44119800D02*
X100002340Y-44119800D01*
X100934520Y-45051980D02*
X100934520Y-48463740D01*
X100002340Y-44119800D02*
X100934520Y-45051980D01*
X75341480Y-38130480D02*
X75341480Y-44602400D01*
X75341480Y-44602400D02*
X76654660Y-45915580D01*
X76710540Y-46530260D02*
X76654660Y-46474380D01*
X84123968Y-46530260D02*
X76710540Y-46530260D01*
X76654660Y-46474380D02*
X76654660Y-48475900D01*
X76654660Y-45915580D02*
X76654660Y-46474380D01*
%TO.N,Net-(J1-Pad2)*%
X87391240Y-28889960D02*
X91117420Y-28889960D01*
X94363540Y-25643840D02*
X97482660Y-25643840D01*
X91117420Y-28889960D02*
X94363540Y-25643840D01*
%TO.N,Net-(J2-Pad10)*%
X108439500Y-25643840D02*
X108645240Y-25438100D01*
%TO.N,PIN3.2*%
X62245240Y-33068100D02*
X62245240Y-33314098D01*
%TO.N,Net-(R1-Pad1)*%
X97482660Y-35803840D02*
X100744020Y-35803840D01*
%TO.N,VolRef1V2*%
X80627220Y-33167320D02*
X80627220Y-29847540D01*
X78750160Y-27970480D02*
X75341480Y-27970480D01*
X80627220Y-29847540D02*
X78750160Y-27970480D01*
%TO.N,Net-(R3-Pad1)*%
X90787220Y-33167320D02*
X90787220Y-36286440D01*
%TD*%
M02*
