%TF.GenerationSoftware,KiCad,Pcbnew,(5.1.7)-1*%
%TF.CreationDate,2021-04-11T18:09:15+01:00*%
%TF.ProjectId,AccCircV2,41636343-6972-4635-9632-2e6b69636164,rev?*%
%TF.SameCoordinates,Original*%
%TF.FileFunction,Copper,L2,Bot*%
%TF.FilePolarity,Positive*%
%FSLAX46Y46*%
G04 Gerber Fmt 4.6, Leading zero omitted, Abs format (unit mm)*
G04 Created by KiCad (PCBNEW (5.1.7)-1) date 2021-04-11 18:09:15*
%MOMM*%
%LPD*%
G01*
G04 APERTURE LIST*
%TA.AperFunction,ComponentPad*%
%ADD10C,2.000000*%
%TD*%
%TA.AperFunction,ComponentPad*%
%ADD11R,1.050000X1.500000*%
%TD*%
%TA.AperFunction,ComponentPad*%
%ADD12O,1.050000X1.500000*%
%TD*%
%TA.AperFunction,ComponentPad*%
%ADD13O,1.700000X1.700000*%
%TD*%
%TA.AperFunction,ComponentPad*%
%ADD14R,1.700000X1.700000*%
%TD*%
%TA.AperFunction,ComponentPad*%
%ADD15O,2.200000X2.200000*%
%TD*%
%TA.AperFunction,ComponentPad*%
%ADD16R,2.200000X2.200000*%
%TD*%
%TA.AperFunction,ComponentPad*%
%ADD17R,2.000000X2.000000*%
%TD*%
%TA.AperFunction,Conductor*%
%ADD18C,1.000000*%
%TD*%
%TA.AperFunction,Conductor*%
%ADD19C,0.254000*%
%TD*%
%TA.AperFunction,Conductor*%
%ADD20C,0.100000*%
%TD*%
G04 APERTURE END LIST*
D10*
%TO.P,U1,7*%
%TO.N,VolDivider*%
X100330000Y-47115000D03*
%TO.P,U1,6*%
X97790000Y-47115000D03*
%TO.P,U1,8*%
%TO.N,+3V3*%
X102870000Y-47115000D03*
%TO.P,U1,5*%
%TO.N,Net-(R4-Pad2)*%
X95250000Y-47115000D03*
%TO.P,U1,1*%
%TO.N,Net-(J2-Pad10)*%
X102870000Y-39245000D03*
%TO.P,U1,4*%
%TO.N,GND*%
X95250000Y-39245000D03*
%TO.P,U1,2*%
%TO.N,Net-(R1-Pad1)*%
X100330000Y-39245000D03*
%TO.P,U1,3*%
%TO.N,Net-(J5-Pad2)*%
X97790000Y-39245000D03*
%TD*%
%TO.P,R6,2*%
%TO.N,PIN3.2*%
X57150000Y-34290000D03*
%TO.P,R6,1*%
%TO.N,GND*%
X57150000Y-44450000D03*
%TD*%
%TO.P,R5,2*%
%TO.N,GND*%
X80010000Y-39370000D03*
%TO.P,R5,1*%
%TO.N,Net-(R4-Pad2)*%
X90170000Y-39370000D03*
%TD*%
%TO.P,R4,2*%
%TO.N,Net-(R4-Pad2)*%
X90170000Y-43180000D03*
%TO.P,R4,1*%
%TO.N,+3V3*%
X80010000Y-43180000D03*
%TD*%
D11*
%TO.P,Q1,1*%
%TO.N,GND*%
X53340000Y-38100000D03*
D12*
%TO.P,Q1,3*%
%TO.N,Net-(D1-Pad2)*%
X50800000Y-38100000D03*
%TO.P,Q1,2*%
%TO.N,PIN3.2*%
X52070000Y-38100000D03*
%TD*%
D10*
%TO.P,J7,2*%
%TO.N,GND*%
X53340000Y-48298100D03*
%TO.P,J7,1*%
%TO.N,+5V*%
X50800000Y-48298100D03*
%TD*%
%TO.P,J6,2*%
%TO.N,Net-(D1-Pad2)*%
X57150000Y-25400000D03*
%TO.P,J6,1*%
%TO.N,+5V*%
X54610000Y-25400000D03*
%TD*%
%TO.P,J5,3*%
%TO.N,VolDivider*%
X93980000Y-34138100D03*
%TO.P,J5,2*%
%TO.N,Net-(J5-Pad2)*%
X93980000Y-31598100D03*
%TO.P,J5,1*%
%TO.N,VolRef1V2*%
X93980000Y-29058100D03*
%TD*%
D13*
%TO.P,J4,2*%
%TO.N,+3V3*%
X72390000Y-48298100D03*
D14*
%TO.P,J4,1*%
%TO.N,GND*%
X69850000Y-48298100D03*
%TD*%
D15*
%TO.P,D1,2*%
%TO.N,Net-(D1-Pad2)*%
X57150000Y-30480000D03*
D16*
%TO.P,D1,1*%
%TO.N,+5V*%
X46990000Y-30480000D03*
%TD*%
D10*
%TO.P,C3,2*%
%TO.N,AccSignal*%
X86400000Y-30480000D03*
%TO.P,C3,1*%
%TO.N,Net-(C3-Pad1)*%
X88900000Y-30480000D03*
%TD*%
D17*
%TO.P,C1,1*%
%TO.N,+3V3*%
X85090000Y-48260000D03*
D10*
%TO.P,C1,2*%
%TO.N,GND*%
X87590000Y-48260000D03*
%TD*%
%TO.P,C2,1*%
%TO.N,+3V3*%
X78740000Y-48260000D03*
%TO.P,C2,2*%
%TO.N,GND*%
X81240000Y-48260000D03*
%TD*%
D17*
%TO.P,J2,1*%
%TO.N,N/C*%
X108645240Y-48298100D03*
D10*
%TO.P,J2,2*%
X108645240Y-45758100D03*
%TO.P,J2,3*%
X108645240Y-43218100D03*
%TO.P,J2,4*%
X108645240Y-40678100D03*
%TO.P,J2,5*%
X108645240Y-38138100D03*
%TO.P,J2,6*%
X108645240Y-35598100D03*
%TO.P,J2,7*%
X108645240Y-33058100D03*
%TO.P,J2,8*%
X108645240Y-30518100D03*
%TO.P,J2,9*%
X108645240Y-27978100D03*
%TO.P,J2,10*%
%TO.N,Net-(J2-Pad10)*%
X108645240Y-25438100D03*
%TD*%
%TO.P,J3,10*%
%TO.N,GND*%
X62245240Y-48308100D03*
%TO.P,J3,9*%
%TO.N,N/C*%
X62245240Y-45768100D03*
%TO.P,J3,8*%
X62245240Y-43228100D03*
%TO.P,J3,7*%
X62245240Y-40688100D03*
%TO.P,J3,6*%
%TO.N,PIN3.2*%
X62245240Y-38148100D03*
%TO.P,J3,5*%
%TO.N,N/C*%
X62245240Y-35608100D03*
%TO.P,J3,4*%
X62245240Y-33068100D03*
%TO.P,J3,3*%
X62245240Y-30528100D03*
%TO.P,J3,2*%
X62245240Y-27988100D03*
%TO.P,J3,1*%
X62245240Y-25448100D03*
%TD*%
%TO.P,R1,2*%
%TO.N,Net-(C3-Pad1)*%
X99060000Y-24698100D03*
%TO.P,R1,1*%
%TO.N,Net-(R1-Pad1)*%
X99060000Y-34858100D03*
%TD*%
%TO.P,R2,1*%
%TO.N,Net-(J2-Pad10)*%
X102870000Y-24698100D03*
%TO.P,R2,2*%
%TO.N,Net-(R1-Pad1)*%
X102870000Y-34858100D03*
%TD*%
%TO.P,R3,1*%
%TO.N,+3V3*%
X69850000Y-44450000D03*
%TO.P,R3,2*%
%TO.N,VolRef1V2*%
X69850000Y-34290000D03*
%TD*%
%TO.P,U2,2*%
%TO.N,VolRef1V2*%
X80010000Y-33020000D03*
%TO.P,U2,3*%
%TO.N,GND*%
X80010000Y-35560000D03*
D17*
%TO.P,U2,1*%
X80010000Y-30480000D03*
%TD*%
D10*
%TO.P,J8,1*%
%TO.N,PIN3.2*%
X72390000Y-25448100D03*
%TO.P,J8,2*%
%TO.N,GND*%
X74930000Y-25448100D03*
%TO.P,J8,3*%
%TO.N,AccSignal*%
X77470000Y-25448100D03*
%TD*%
%TO.P,J1,1*%
%TO.N,+3V3*%
X83693000Y-25448100D03*
%TO.P,J1,2*%
%TO.N,AccSignal*%
X86233000Y-25448100D03*
%TO.P,J1,3*%
%TO.N,GND*%
X88773000Y-25448100D03*
%TD*%
D18*
%TO.N,Net-(J2-Pad10)*%
X108563960Y-25519380D02*
X108645240Y-25438100D01*
X102870000Y-24698100D02*
X104708100Y-24698100D01*
X105448100Y-25438100D02*
X108645240Y-25438100D01*
X104708100Y-24698100D02*
X105448100Y-25438100D01*
X105448100Y-25438100D02*
X105448100Y-36791900D01*
X105448100Y-36791900D02*
X105410000Y-36830000D01*
X105410000Y-36830000D02*
X105410000Y-38100000D01*
X104265000Y-39245000D02*
X102870000Y-39245000D01*
X105410000Y-38100000D02*
X104265000Y-39245000D01*
%TO.N,PIN3.2*%
X72390000Y-25448100D02*
X66088100Y-25448100D01*
X66088100Y-25448100D02*
X64866200Y-26670000D01*
X64866200Y-26670000D02*
X64866200Y-36733800D01*
X63451900Y-38148100D02*
X62245240Y-38148100D01*
X64866200Y-36733800D02*
X63451900Y-38148100D01*
X57150000Y-35560000D02*
X57150000Y-34290000D01*
X59738100Y-38148100D02*
X57150000Y-35560000D01*
X62245240Y-38148100D02*
X59738100Y-38148100D01*
X52070000Y-38100000D02*
X52070000Y-36830000D01*
X54610000Y-34290000D02*
X57150000Y-34290000D01*
X52070000Y-36830000D02*
X54610000Y-34290000D01*
%TO.N,Net-(R1-Pad1)*%
X100330000Y-39245000D02*
X100330000Y-38100000D01*
X100330000Y-38100000D02*
X99060000Y-36830000D01*
X99060000Y-36830000D02*
X99060000Y-34858100D01*
%TO.N,VolRef1V2*%
X93980000Y-29058100D02*
X92861900Y-29058100D01*
X92861900Y-29058100D02*
X91440000Y-30480000D01*
X91440000Y-30480000D02*
X91440000Y-31750000D01*
X90170000Y-33020000D02*
X80010000Y-33020000D01*
X91440000Y-31750000D02*
X90170000Y-33020000D01*
X71120000Y-33020000D02*
X69850000Y-34290000D01*
X80010000Y-33020000D02*
X71120000Y-33020000D01*
%TO.N,+3V3*%
X102870000Y-48260000D02*
X101600000Y-49530000D01*
X102870000Y-47115000D02*
X102870000Y-48260000D01*
X85090000Y-48260000D02*
X85090000Y-46990000D01*
X85090000Y-46990000D02*
X86360000Y-45720000D01*
X86360000Y-45720000D02*
X88900000Y-45720000D01*
X88900000Y-45720000D02*
X92710000Y-49530000D01*
X92710000Y-49530000D02*
X101600000Y-49530000D01*
%TO.N,Net-(D1-Pad2)*%
X57150000Y-25400000D02*
X57150000Y-30480000D01*
X54610000Y-30480000D02*
X57150000Y-30480000D01*
X50800000Y-34290000D02*
X54610000Y-30480000D01*
X50800000Y-38100000D02*
X50800000Y-34290000D01*
%TO.N,+5V*%
X54610000Y-25400000D02*
X50800000Y-25400000D01*
X50800000Y-25400000D02*
X46990000Y-29210000D01*
X46990000Y-29210000D02*
X46990000Y-30480000D01*
X46990000Y-39370000D02*
X46990000Y-30480000D01*
X50800000Y-43180000D02*
X46990000Y-39370000D01*
X50800000Y-48298100D02*
X50800000Y-43180000D01*
%TO.N,VolDivider*%
X97790000Y-45720000D02*
X97790000Y-47115000D01*
X92710000Y-40640000D02*
X97790000Y-45720000D01*
X92710000Y-35408100D02*
X92710000Y-40640000D01*
X93980000Y-34138100D02*
X92710000Y-35408100D01*
X97790000Y-47115000D02*
X100330000Y-47115000D01*
%TO.N,Net-(J5-Pad2)*%
X95098100Y-31598100D02*
X93980000Y-31598100D01*
X96520000Y-33020000D02*
X95098100Y-31598100D01*
X96520000Y-36830000D02*
X96520000Y-33020000D01*
X97790000Y-38100000D02*
X96520000Y-36830000D01*
X97790000Y-39245000D02*
X97790000Y-38100000D01*
%TO.N,Net-(R4-Pad2)*%
X90170000Y-43180000D02*
X90170000Y-44450000D01*
X92835000Y-47115000D02*
X95250000Y-47115000D01*
X90170000Y-44450000D02*
X92835000Y-47115000D01*
%TO.N,AccSignal*%
X86233000Y-25448100D02*
X86233000Y-27813000D01*
X86400000Y-27980000D02*
X86400000Y-30480000D01*
X86233000Y-27813000D02*
X86400000Y-27980000D01*
X77470000Y-25448100D02*
X77470000Y-26670000D01*
X78613000Y-27813000D02*
X86233000Y-27813000D01*
X77470000Y-26670000D02*
X78613000Y-27813000D01*
%TD*%
D19*
%TO.N,GND*%
X111137700Y-50998120D02*
X44577000Y-50998120D01*
X44577000Y-29380000D01*
X45251928Y-29380000D01*
X45251928Y-31580000D01*
X45264188Y-31704482D01*
X45300498Y-31824180D01*
X45359463Y-31934494D01*
X45438815Y-32031185D01*
X45535506Y-32110537D01*
X45645820Y-32169502D01*
X45765518Y-32205812D01*
X45855001Y-32214625D01*
X45855000Y-39314248D01*
X45849509Y-39370000D01*
X45855000Y-39425751D01*
X45871423Y-39592498D01*
X45936324Y-39806446D01*
X46041716Y-40003623D01*
X46183551Y-40176449D01*
X46226865Y-40211996D01*
X49665001Y-43650134D01*
X49665000Y-47120861D01*
X49530013Y-47255848D01*
X49351082Y-47523637D01*
X49227832Y-47821188D01*
X49165000Y-48137067D01*
X49165000Y-48459133D01*
X49227832Y-48775012D01*
X49351082Y-49072563D01*
X49530013Y-49340352D01*
X49757748Y-49568087D01*
X50025537Y-49747018D01*
X50323088Y-49870268D01*
X50638967Y-49933100D01*
X50961033Y-49933100D01*
X51276912Y-49870268D01*
X51574463Y-49747018D01*
X51842252Y-49568087D01*
X51976826Y-49433513D01*
X52384192Y-49433513D01*
X52479956Y-49697914D01*
X52769571Y-49838804D01*
X53081108Y-49920484D01*
X53402595Y-49939818D01*
X53721675Y-49896061D01*
X54026088Y-49790895D01*
X54200044Y-49697914D01*
X54292186Y-49443513D01*
X61289432Y-49443513D01*
X61385196Y-49707914D01*
X61674811Y-49848804D01*
X61986348Y-49930484D01*
X62307835Y-49949818D01*
X62626915Y-49906061D01*
X62931328Y-49800895D01*
X63105284Y-49707914D01*
X63201048Y-49443513D01*
X62245240Y-48487705D01*
X61289432Y-49443513D01*
X54292186Y-49443513D01*
X54295808Y-49433513D01*
X53340000Y-48477705D01*
X52384192Y-49433513D01*
X51976826Y-49433513D01*
X52069987Y-49340352D01*
X52142720Y-49231500D01*
X52204587Y-49253908D01*
X53160395Y-48298100D01*
X53519605Y-48298100D01*
X54475413Y-49253908D01*
X54739814Y-49158144D01*
X54880704Y-48868529D01*
X54962384Y-48556992D01*
X54973587Y-48370695D01*
X60603522Y-48370695D01*
X60647279Y-48689775D01*
X60752445Y-48994188D01*
X60845426Y-49168144D01*
X61109827Y-49263908D01*
X62065635Y-48308100D01*
X62424845Y-48308100D01*
X63380653Y-49263908D01*
X63645054Y-49168144D01*
X63654804Y-49148100D01*
X68361928Y-49148100D01*
X68374188Y-49272582D01*
X68410498Y-49392280D01*
X68469463Y-49502594D01*
X68548815Y-49599285D01*
X68645506Y-49678637D01*
X68755820Y-49737602D01*
X68875518Y-49773912D01*
X69000000Y-49786172D01*
X69564250Y-49783100D01*
X69723000Y-49624350D01*
X69723000Y-48425100D01*
X68523750Y-48425100D01*
X68365000Y-48583850D01*
X68361928Y-49148100D01*
X63654804Y-49148100D01*
X63785944Y-48878529D01*
X63867624Y-48566992D01*
X63886958Y-48245505D01*
X63843201Y-47926425D01*
X63738035Y-47622012D01*
X63645078Y-47448100D01*
X68361928Y-47448100D01*
X68365000Y-48012350D01*
X68523750Y-48171100D01*
X69723000Y-48171100D01*
X69723000Y-46971850D01*
X69977000Y-46971850D01*
X69977000Y-48171100D01*
X69997000Y-48171100D01*
X69997000Y-48425100D01*
X69977000Y-48425100D01*
X69977000Y-49624350D01*
X70135750Y-49783100D01*
X70700000Y-49786172D01*
X70824482Y-49773912D01*
X70944180Y-49737602D01*
X71054494Y-49678637D01*
X71151185Y-49599285D01*
X71230537Y-49502594D01*
X71289502Y-49392280D01*
X71311513Y-49319720D01*
X71443368Y-49451575D01*
X71686589Y-49614090D01*
X71956842Y-49726032D01*
X72243740Y-49783100D01*
X72536260Y-49783100D01*
X72823158Y-49726032D01*
X73093411Y-49614090D01*
X73336632Y-49451575D01*
X73543475Y-49244732D01*
X73705990Y-49001511D01*
X73817932Y-48731258D01*
X73875000Y-48444360D01*
X73875000Y-48151840D01*
X73864483Y-48098967D01*
X77105000Y-48098967D01*
X77105000Y-48421033D01*
X77167832Y-48736912D01*
X77291082Y-49034463D01*
X77470013Y-49302252D01*
X77697748Y-49529987D01*
X77965537Y-49708918D01*
X78263088Y-49832168D01*
X78578967Y-49895000D01*
X78901033Y-49895000D01*
X79216912Y-49832168D01*
X79514463Y-49708918D01*
X79782252Y-49529987D01*
X79916826Y-49395413D01*
X80284192Y-49395413D01*
X80379956Y-49659814D01*
X80669571Y-49800704D01*
X80981108Y-49882384D01*
X81302595Y-49901718D01*
X81621675Y-49857961D01*
X81926088Y-49752795D01*
X82100044Y-49659814D01*
X82195808Y-49395413D01*
X81240000Y-48439605D01*
X80284192Y-49395413D01*
X79916826Y-49395413D01*
X80009987Y-49302252D01*
X80074925Y-49205065D01*
X80104587Y-49215808D01*
X81060395Y-48260000D01*
X81419605Y-48260000D01*
X82375413Y-49215808D01*
X82639814Y-49120044D01*
X82780704Y-48830429D01*
X82862384Y-48518892D01*
X82881718Y-48197405D01*
X82837961Y-47878325D01*
X82732795Y-47573912D01*
X82639814Y-47399956D01*
X82375413Y-47304192D01*
X81419605Y-48260000D01*
X81060395Y-48260000D01*
X80104587Y-47304192D01*
X80074925Y-47314935D01*
X80009987Y-47217748D01*
X79916826Y-47124587D01*
X80284192Y-47124587D01*
X81240000Y-48080395D01*
X82195808Y-47124587D01*
X82100044Y-46860186D01*
X81810429Y-46719296D01*
X81498892Y-46637616D01*
X81177405Y-46618282D01*
X80858325Y-46662039D01*
X80553912Y-46767205D01*
X80379956Y-46860186D01*
X80284192Y-47124587D01*
X79916826Y-47124587D01*
X79782252Y-46990013D01*
X79514463Y-46811082D01*
X79216912Y-46687832D01*
X78901033Y-46625000D01*
X78578967Y-46625000D01*
X78263088Y-46687832D01*
X77965537Y-46811082D01*
X77697748Y-46990013D01*
X77470013Y-47217748D01*
X77291082Y-47485537D01*
X77167832Y-47783088D01*
X77105000Y-48098967D01*
X73864483Y-48098967D01*
X73817932Y-47864942D01*
X73705990Y-47594689D01*
X73543475Y-47351468D01*
X73336632Y-47144625D01*
X73093411Y-46982110D01*
X72823158Y-46870168D01*
X72536260Y-46813100D01*
X72243740Y-46813100D01*
X71956842Y-46870168D01*
X71686589Y-46982110D01*
X71443368Y-47144625D01*
X71311513Y-47276480D01*
X71289502Y-47203920D01*
X71230537Y-47093606D01*
X71151185Y-46996915D01*
X71054494Y-46917563D01*
X70944180Y-46858598D01*
X70824482Y-46822288D01*
X70700000Y-46810028D01*
X70135750Y-46813100D01*
X69977000Y-46971850D01*
X69723000Y-46971850D01*
X69564250Y-46813100D01*
X69000000Y-46810028D01*
X68875518Y-46822288D01*
X68755820Y-46858598D01*
X68645506Y-46917563D01*
X68548815Y-46996915D01*
X68469463Y-47093606D01*
X68410498Y-47203920D01*
X68374188Y-47323618D01*
X68361928Y-47448100D01*
X63645078Y-47448100D01*
X63645054Y-47448056D01*
X63380653Y-47352292D01*
X62424845Y-48308100D01*
X62065635Y-48308100D01*
X61109827Y-47352292D01*
X60845426Y-47448056D01*
X60704536Y-47737671D01*
X60622856Y-48049208D01*
X60603522Y-48370695D01*
X54973587Y-48370695D01*
X54981718Y-48235505D01*
X54937961Y-47916425D01*
X54832795Y-47612012D01*
X54739814Y-47438056D01*
X54475413Y-47342292D01*
X53519605Y-48298100D01*
X53160395Y-48298100D01*
X52204587Y-47342292D01*
X52142720Y-47364700D01*
X52069987Y-47255848D01*
X51976826Y-47162687D01*
X52384192Y-47162687D01*
X53340000Y-48118495D01*
X54295808Y-47162687D01*
X54200044Y-46898286D01*
X53910429Y-46757396D01*
X53598892Y-46675716D01*
X53277405Y-46656382D01*
X52958325Y-46700139D01*
X52653912Y-46805305D01*
X52479956Y-46898286D01*
X52384192Y-47162687D01*
X51976826Y-47162687D01*
X51935000Y-47120861D01*
X51935000Y-45585413D01*
X56194192Y-45585413D01*
X56289956Y-45849814D01*
X56579571Y-45990704D01*
X56891108Y-46072384D01*
X57212595Y-46091718D01*
X57531675Y-46047961D01*
X57836088Y-45942795D01*
X58010044Y-45849814D01*
X58105808Y-45585413D01*
X57150000Y-44629605D01*
X56194192Y-45585413D01*
X51935000Y-45585413D01*
X51935000Y-44512595D01*
X55508282Y-44512595D01*
X55552039Y-44831675D01*
X55657205Y-45136088D01*
X55750186Y-45310044D01*
X56014587Y-45405808D01*
X56970395Y-44450000D01*
X57329605Y-44450000D01*
X58285413Y-45405808D01*
X58549814Y-45310044D01*
X58690704Y-45020429D01*
X58772384Y-44708892D01*
X58791718Y-44387405D01*
X58747961Y-44068325D01*
X58642795Y-43763912D01*
X58549814Y-43589956D01*
X58285413Y-43494192D01*
X57329605Y-44450000D01*
X56970395Y-44450000D01*
X56014587Y-43494192D01*
X55750186Y-43589956D01*
X55609296Y-43879571D01*
X55527616Y-44191108D01*
X55508282Y-44512595D01*
X51935000Y-44512595D01*
X51935000Y-43314587D01*
X56194192Y-43314587D01*
X57150000Y-44270395D01*
X58105808Y-43314587D01*
X58010044Y-43050186D01*
X57720429Y-42909296D01*
X57408892Y-42827616D01*
X57087405Y-42808282D01*
X56768325Y-42852039D01*
X56463912Y-42957205D01*
X56289956Y-43050186D01*
X56194192Y-43314587D01*
X51935000Y-43314587D01*
X51935000Y-43235752D01*
X51940491Y-43180000D01*
X51918577Y-42957501D01*
X51853676Y-42743553D01*
X51748284Y-42546377D01*
X51641989Y-42416856D01*
X51641987Y-42416854D01*
X51606449Y-42373551D01*
X51563146Y-42338013D01*
X48125000Y-38899869D01*
X48125000Y-32214625D01*
X48214482Y-32205812D01*
X48334180Y-32169502D01*
X48444494Y-32110537D01*
X48541185Y-32031185D01*
X48620537Y-31934494D01*
X48679502Y-31824180D01*
X48715812Y-31704482D01*
X48728072Y-31580000D01*
X48728072Y-29380000D01*
X48715812Y-29255518D01*
X48679502Y-29135820D01*
X48675952Y-29129179D01*
X51270133Y-26535000D01*
X53432761Y-26535000D01*
X53567748Y-26669987D01*
X53835537Y-26848918D01*
X54133088Y-26972168D01*
X54448967Y-27035000D01*
X54771033Y-27035000D01*
X55086912Y-26972168D01*
X55384463Y-26848918D01*
X55652252Y-26669987D01*
X55879987Y-26442252D01*
X55880000Y-26442233D01*
X55880013Y-26442252D01*
X56015000Y-26577239D01*
X56015001Y-29161338D01*
X55831339Y-29345000D01*
X54665752Y-29345000D01*
X54610000Y-29339509D01*
X54387501Y-29361423D01*
X54173553Y-29426324D01*
X53976377Y-29531716D01*
X53846856Y-29638011D01*
X53846854Y-29638013D01*
X53803551Y-29673551D01*
X53768013Y-29716854D01*
X50036860Y-33448009D01*
X49993552Y-33483551D01*
X49851717Y-33656377D01*
X49827516Y-33701654D01*
X49746324Y-33853554D01*
X49681423Y-34067502D01*
X49659509Y-34290000D01*
X49665001Y-34345761D01*
X49665000Y-37620518D01*
X49656785Y-37647600D01*
X49640000Y-37818021D01*
X49640000Y-38381978D01*
X49656785Y-38552399D01*
X49723115Y-38771059D01*
X49830829Y-38972578D01*
X49975788Y-39149212D01*
X50152421Y-39294171D01*
X50353940Y-39401885D01*
X50572600Y-39468215D01*
X50800000Y-39490612D01*
X51027399Y-39468215D01*
X51246059Y-39401885D01*
X51435000Y-39300894D01*
X51623940Y-39401885D01*
X51842600Y-39468215D01*
X52070000Y-39490612D01*
X52297399Y-39468215D01*
X52506098Y-39404907D01*
X52570820Y-39439502D01*
X52690518Y-39475812D01*
X52815000Y-39488072D01*
X53054250Y-39485000D01*
X53213000Y-39326250D01*
X53213000Y-38553109D01*
X53213215Y-38552400D01*
X53230000Y-38381979D01*
X53230000Y-38227000D01*
X53467000Y-38227000D01*
X53467000Y-39326250D01*
X53625750Y-39485000D01*
X53865000Y-39488072D01*
X53989482Y-39475812D01*
X54109180Y-39439502D01*
X54219494Y-39380537D01*
X54316185Y-39301185D01*
X54395537Y-39204494D01*
X54454502Y-39094180D01*
X54490812Y-38974482D01*
X54503072Y-38850000D01*
X54500000Y-38385750D01*
X54341250Y-38227000D01*
X53467000Y-38227000D01*
X53230000Y-38227000D01*
X53230000Y-37953000D01*
X53467000Y-37953000D01*
X53467000Y-37973000D01*
X54341250Y-37973000D01*
X54500000Y-37814250D01*
X54503072Y-37350000D01*
X54490812Y-37225518D01*
X54454502Y-37105820D01*
X54395537Y-36995506D01*
X54316185Y-36898815D01*
X54219494Y-36819463D01*
X54109180Y-36760498D01*
X53989482Y-36724188D01*
X53865000Y-36711928D01*
X53792269Y-36712862D01*
X55080132Y-35425000D01*
X55972761Y-35425000D01*
X56015000Y-35467239D01*
X56015000Y-35504249D01*
X56009509Y-35560000D01*
X56015000Y-35615751D01*
X56031423Y-35782498D01*
X56096324Y-35996446D01*
X56201716Y-36193623D01*
X56343551Y-36366449D01*
X56386865Y-36401996D01*
X58896109Y-38911241D01*
X58931651Y-38954549D01*
X59104477Y-39096384D01*
X59301653Y-39201776D01*
X59465805Y-39251571D01*
X59515600Y-39266677D01*
X59738099Y-39288591D01*
X59793851Y-39283100D01*
X61068001Y-39283100D01*
X61202988Y-39418087D01*
X61203007Y-39418100D01*
X61202988Y-39418113D01*
X60975253Y-39645848D01*
X60796322Y-39913637D01*
X60673072Y-40211188D01*
X60610240Y-40527067D01*
X60610240Y-40849133D01*
X60673072Y-41165012D01*
X60796322Y-41462563D01*
X60975253Y-41730352D01*
X61202988Y-41958087D01*
X61203007Y-41958100D01*
X61202988Y-41958113D01*
X60975253Y-42185848D01*
X60796322Y-42453637D01*
X60673072Y-42751188D01*
X60610240Y-43067067D01*
X60610240Y-43389133D01*
X60673072Y-43705012D01*
X60796322Y-44002563D01*
X60975253Y-44270352D01*
X61202988Y-44498087D01*
X61203007Y-44498100D01*
X61202988Y-44498113D01*
X60975253Y-44725848D01*
X60796322Y-44993637D01*
X60673072Y-45291188D01*
X60610240Y-45607067D01*
X60610240Y-45929133D01*
X60673072Y-46245012D01*
X60796322Y-46542563D01*
X60975253Y-46810352D01*
X61202988Y-47038087D01*
X61311840Y-47110820D01*
X61289432Y-47172687D01*
X62245240Y-48128495D01*
X63201048Y-47172687D01*
X63178640Y-47110820D01*
X63287492Y-47038087D01*
X63515227Y-46810352D01*
X63694158Y-46542563D01*
X63817408Y-46245012D01*
X63880240Y-45929133D01*
X63880240Y-45607067D01*
X63817408Y-45291188D01*
X63694158Y-44993637D01*
X63515227Y-44725848D01*
X63287492Y-44498113D01*
X63287473Y-44498100D01*
X63287492Y-44498087D01*
X63496612Y-44288967D01*
X68215000Y-44288967D01*
X68215000Y-44611033D01*
X68277832Y-44926912D01*
X68401082Y-45224463D01*
X68580013Y-45492252D01*
X68807748Y-45719987D01*
X69075537Y-45898918D01*
X69373088Y-46022168D01*
X69688967Y-46085000D01*
X70011033Y-46085000D01*
X70326912Y-46022168D01*
X70624463Y-45898918D01*
X70892252Y-45719987D01*
X71119987Y-45492252D01*
X71298918Y-45224463D01*
X71422168Y-44926912D01*
X71485000Y-44611033D01*
X71485000Y-44288967D01*
X71422168Y-43973088D01*
X71298918Y-43675537D01*
X71119987Y-43407748D01*
X70892252Y-43180013D01*
X70651230Y-43018967D01*
X78375000Y-43018967D01*
X78375000Y-43341033D01*
X78437832Y-43656912D01*
X78561082Y-43954463D01*
X78740013Y-44222252D01*
X78967748Y-44449987D01*
X79235537Y-44628918D01*
X79533088Y-44752168D01*
X79848967Y-44815000D01*
X80171033Y-44815000D01*
X80486912Y-44752168D01*
X80784463Y-44628918D01*
X81052252Y-44449987D01*
X81279987Y-44222252D01*
X81458918Y-43954463D01*
X81582168Y-43656912D01*
X81645000Y-43341033D01*
X81645000Y-43018967D01*
X81582168Y-42703088D01*
X81458918Y-42405537D01*
X81279987Y-42137748D01*
X81052252Y-41910013D01*
X80784463Y-41731082D01*
X80486912Y-41607832D01*
X80171033Y-41545000D01*
X79848967Y-41545000D01*
X79533088Y-41607832D01*
X79235537Y-41731082D01*
X78967748Y-41910013D01*
X78740013Y-42137748D01*
X78561082Y-42405537D01*
X78437832Y-42703088D01*
X78375000Y-43018967D01*
X70651230Y-43018967D01*
X70624463Y-43001082D01*
X70326912Y-42877832D01*
X70011033Y-42815000D01*
X69688967Y-42815000D01*
X69373088Y-42877832D01*
X69075537Y-43001082D01*
X68807748Y-43180013D01*
X68580013Y-43407748D01*
X68401082Y-43675537D01*
X68277832Y-43973088D01*
X68215000Y-44288967D01*
X63496612Y-44288967D01*
X63515227Y-44270352D01*
X63694158Y-44002563D01*
X63817408Y-43705012D01*
X63880240Y-43389133D01*
X63880240Y-43067067D01*
X63817408Y-42751188D01*
X63694158Y-42453637D01*
X63515227Y-42185848D01*
X63287492Y-41958113D01*
X63287473Y-41958100D01*
X63287492Y-41958087D01*
X63515227Y-41730352D01*
X63694158Y-41462563D01*
X63817408Y-41165012D01*
X63880240Y-40849133D01*
X63880240Y-40527067D01*
X63875933Y-40505413D01*
X79054192Y-40505413D01*
X79149956Y-40769814D01*
X79439571Y-40910704D01*
X79751108Y-40992384D01*
X80072595Y-41011718D01*
X80391675Y-40967961D01*
X80696088Y-40862795D01*
X80870044Y-40769814D01*
X80965808Y-40505413D01*
X80010000Y-39549605D01*
X79054192Y-40505413D01*
X63875933Y-40505413D01*
X63817408Y-40211188D01*
X63694158Y-39913637D01*
X63515227Y-39645848D01*
X63301974Y-39432595D01*
X78368282Y-39432595D01*
X78412039Y-39751675D01*
X78517205Y-40056088D01*
X78610186Y-40230044D01*
X78874587Y-40325808D01*
X79830395Y-39370000D01*
X80189605Y-39370000D01*
X81145413Y-40325808D01*
X81409814Y-40230044D01*
X81550704Y-39940429D01*
X81632384Y-39628892D01*
X81651718Y-39307405D01*
X81607961Y-38988325D01*
X81502795Y-38683912D01*
X81409814Y-38509956D01*
X81145413Y-38414192D01*
X80189605Y-39370000D01*
X79830395Y-39370000D01*
X78874587Y-38414192D01*
X78610186Y-38509956D01*
X78469296Y-38799571D01*
X78387616Y-39111108D01*
X78368282Y-39432595D01*
X63301974Y-39432595D01*
X63287492Y-39418113D01*
X63287473Y-39418100D01*
X63287492Y-39418087D01*
X63420118Y-39285461D01*
X63451900Y-39288591D01*
X63507651Y-39283100D01*
X63507652Y-39283100D01*
X63674399Y-39266677D01*
X63888347Y-39201776D01*
X64085523Y-39096384D01*
X64258349Y-38954549D01*
X64293896Y-38911235D01*
X64970544Y-38234587D01*
X79054192Y-38234587D01*
X80010000Y-39190395D01*
X80965808Y-38234587D01*
X80870044Y-37970186D01*
X80580429Y-37829296D01*
X80268892Y-37747616D01*
X79947405Y-37728282D01*
X79628325Y-37772039D01*
X79323912Y-37877205D01*
X79149956Y-37970186D01*
X79054192Y-38234587D01*
X64970544Y-38234587D01*
X65629340Y-37575792D01*
X65672649Y-37540249D01*
X65814484Y-37367423D01*
X65919876Y-37170247D01*
X65984777Y-36956299D01*
X66001200Y-36789552D01*
X66001200Y-36789543D01*
X66006690Y-36733801D01*
X66002910Y-36695413D01*
X79054192Y-36695413D01*
X79149956Y-36959814D01*
X79439571Y-37100704D01*
X79751108Y-37182384D01*
X80072595Y-37201718D01*
X80391675Y-37157961D01*
X80696088Y-37052795D01*
X80870044Y-36959814D01*
X80965808Y-36695413D01*
X80010000Y-35739605D01*
X79054192Y-36695413D01*
X66002910Y-36695413D01*
X66001200Y-36678059D01*
X66001200Y-34128967D01*
X68215000Y-34128967D01*
X68215000Y-34451033D01*
X68277832Y-34766912D01*
X68401082Y-35064463D01*
X68580013Y-35332252D01*
X68807748Y-35559987D01*
X69075537Y-35738918D01*
X69373088Y-35862168D01*
X69688967Y-35925000D01*
X70011033Y-35925000D01*
X70326912Y-35862168D01*
X70624463Y-35738918D01*
X70798552Y-35622595D01*
X78368282Y-35622595D01*
X78412039Y-35941675D01*
X78517205Y-36246088D01*
X78610186Y-36420044D01*
X78874587Y-36515808D01*
X79830395Y-35560000D01*
X80189605Y-35560000D01*
X81145413Y-36515808D01*
X81409814Y-36420044D01*
X81550704Y-36130429D01*
X81632384Y-35818892D01*
X81651718Y-35497405D01*
X81607961Y-35178325D01*
X81502795Y-34873912D01*
X81409814Y-34699956D01*
X81145413Y-34604192D01*
X80189605Y-35560000D01*
X79830395Y-35560000D01*
X78874587Y-34604192D01*
X78610186Y-34699956D01*
X78469296Y-34989571D01*
X78387616Y-35301108D01*
X78368282Y-35622595D01*
X70798552Y-35622595D01*
X70892252Y-35559987D01*
X71119987Y-35332252D01*
X71298918Y-35064463D01*
X71422168Y-34766912D01*
X71485000Y-34451033D01*
X71485000Y-34260132D01*
X71590132Y-34155000D01*
X78832761Y-34155000D01*
X78967748Y-34289987D01*
X79076600Y-34362720D01*
X79054192Y-34424587D01*
X80010000Y-35380395D01*
X80965808Y-34424587D01*
X80943400Y-34362720D01*
X81052252Y-34289987D01*
X81187239Y-34155000D01*
X90114249Y-34155000D01*
X90170000Y-34160491D01*
X90225751Y-34155000D01*
X90225752Y-34155000D01*
X90392499Y-34138577D01*
X90606447Y-34073676D01*
X90803623Y-33968284D01*
X90976449Y-33826449D01*
X91011996Y-33783135D01*
X92203140Y-32591992D01*
X92246449Y-32556449D01*
X92388284Y-32383623D01*
X92471317Y-32228278D01*
X92531082Y-32372563D01*
X92710013Y-32640352D01*
X92937748Y-32868087D01*
X92937767Y-32868100D01*
X92937748Y-32868113D01*
X92710013Y-33095848D01*
X92531082Y-33363637D01*
X92407832Y-33661188D01*
X92345000Y-33977067D01*
X92345000Y-34167969D01*
X91946865Y-34566104D01*
X91903551Y-34601651D01*
X91761716Y-34774477D01*
X91656325Y-34971653D01*
X91656324Y-34971654D01*
X91591423Y-35185602D01*
X91569509Y-35408100D01*
X91575000Y-35463852D01*
X91575001Y-38529810D01*
X91439987Y-38327748D01*
X91212252Y-38100013D01*
X90944463Y-37921082D01*
X90646912Y-37797832D01*
X90331033Y-37735000D01*
X90008967Y-37735000D01*
X89693088Y-37797832D01*
X89395537Y-37921082D01*
X89127748Y-38100013D01*
X88900013Y-38327748D01*
X88721082Y-38595537D01*
X88597832Y-38893088D01*
X88535000Y-39208967D01*
X88535000Y-39531033D01*
X88597832Y-39846912D01*
X88721082Y-40144463D01*
X88900013Y-40412252D01*
X89127748Y-40639987D01*
X89395537Y-40818918D01*
X89693088Y-40942168D01*
X90008967Y-41005000D01*
X90331033Y-41005000D01*
X90646912Y-40942168D01*
X90944463Y-40818918D01*
X91212252Y-40639987D01*
X91439987Y-40412252D01*
X91575001Y-40210190D01*
X91575001Y-40584239D01*
X91569509Y-40640000D01*
X91591423Y-40862498D01*
X91656324Y-41076446D01*
X91703664Y-41165012D01*
X91761717Y-41273623D01*
X91903552Y-41446449D01*
X91946860Y-41481991D01*
X96528815Y-46063946D01*
X96520013Y-46072748D01*
X96520000Y-46072767D01*
X96519987Y-46072748D01*
X96292252Y-45845013D01*
X96024463Y-45666082D01*
X95726912Y-45542832D01*
X95411033Y-45480000D01*
X95088967Y-45480000D01*
X94773088Y-45542832D01*
X94475537Y-45666082D01*
X94207748Y-45845013D01*
X94072761Y-45980000D01*
X93305132Y-45980000D01*
X91483004Y-44157873D01*
X91618918Y-43954463D01*
X91742168Y-43656912D01*
X91805000Y-43341033D01*
X91805000Y-43018967D01*
X91742168Y-42703088D01*
X91618918Y-42405537D01*
X91439987Y-42137748D01*
X91212252Y-41910013D01*
X90944463Y-41731082D01*
X90646912Y-41607832D01*
X90331033Y-41545000D01*
X90008967Y-41545000D01*
X89693088Y-41607832D01*
X89395537Y-41731082D01*
X89127748Y-41910013D01*
X88900013Y-42137748D01*
X88721082Y-42405537D01*
X88597832Y-42703088D01*
X88535000Y-43018967D01*
X88535000Y-43341033D01*
X88597832Y-43656912D01*
X88721082Y-43954463D01*
X88900013Y-44222252D01*
X89035000Y-44357239D01*
X89035000Y-44394249D01*
X89029509Y-44450000D01*
X89035000Y-44505751D01*
X89035000Y-44505752D01*
X89043658Y-44593658D01*
X88955752Y-44585000D01*
X88955751Y-44585000D01*
X88900000Y-44579509D01*
X88844249Y-44585000D01*
X86415743Y-44585000D01*
X86359999Y-44579510D01*
X86304255Y-44585000D01*
X86304248Y-44585000D01*
X86158493Y-44599356D01*
X86137500Y-44601423D01*
X86105821Y-44611033D01*
X85923553Y-44666324D01*
X85726377Y-44771716D01*
X85553551Y-44913551D01*
X85518008Y-44956860D01*
X84326860Y-46148009D01*
X84283552Y-46183551D01*
X84141717Y-46356377D01*
X84036324Y-46553553D01*
X84013291Y-46629483D01*
X83965518Y-46634188D01*
X83845820Y-46670498D01*
X83735506Y-46729463D01*
X83638815Y-46808815D01*
X83559463Y-46905506D01*
X83500498Y-47015820D01*
X83464188Y-47135518D01*
X83451928Y-47260000D01*
X83451928Y-49260000D01*
X83464188Y-49384482D01*
X83500498Y-49504180D01*
X83559463Y-49614494D01*
X83638815Y-49711185D01*
X83735506Y-49790537D01*
X83845820Y-49849502D01*
X83965518Y-49885812D01*
X84090000Y-49898072D01*
X86090000Y-49898072D01*
X86214482Y-49885812D01*
X86334180Y-49849502D01*
X86444494Y-49790537D01*
X86541185Y-49711185D01*
X86620537Y-49614494D01*
X86675976Y-49510777D01*
X86729956Y-49659814D01*
X87019571Y-49800704D01*
X87331108Y-49882384D01*
X87652595Y-49901718D01*
X87971675Y-49857961D01*
X88276088Y-49752795D01*
X88450044Y-49659814D01*
X88545808Y-49395413D01*
X87590000Y-48439605D01*
X87575858Y-48453748D01*
X87396253Y-48274143D01*
X87410395Y-48260000D01*
X87396253Y-48245858D01*
X87575858Y-48066253D01*
X87590000Y-48080395D01*
X87604143Y-48066253D01*
X87783748Y-48245858D01*
X87769605Y-48260000D01*
X88725413Y-49215808D01*
X88989814Y-49120044D01*
X89130704Y-48830429D01*
X89212384Y-48518892D01*
X89231718Y-48197405D01*
X89187961Y-47878325D01*
X89082795Y-47573912D01*
X89007026Y-47432157D01*
X91868013Y-50293146D01*
X91903551Y-50336449D01*
X91946854Y-50371987D01*
X91946856Y-50371989D01*
X92076377Y-50478284D01*
X92273553Y-50583676D01*
X92487501Y-50648577D01*
X92710000Y-50670491D01*
X92765752Y-50665000D01*
X101544249Y-50665000D01*
X101600000Y-50670491D01*
X101655751Y-50665000D01*
X101655752Y-50665000D01*
X101822499Y-50648577D01*
X102036447Y-50583676D01*
X102233623Y-50478284D01*
X102406449Y-50336449D01*
X102441996Y-50293135D01*
X103633140Y-49101992D01*
X103676449Y-49066449D01*
X103818284Y-48893623D01*
X103923676Y-48696447D01*
X103988577Y-48482499D01*
X104005000Y-48315752D01*
X104005000Y-48315745D01*
X104007568Y-48289671D01*
X104139987Y-48157252D01*
X104318918Y-47889463D01*
X104442168Y-47591912D01*
X104505000Y-47276033D01*
X104505000Y-46953967D01*
X104442168Y-46638088D01*
X104318918Y-46340537D01*
X104139987Y-46072748D01*
X103912252Y-45845013D01*
X103644463Y-45666082D01*
X103346912Y-45542832D01*
X103031033Y-45480000D01*
X102708967Y-45480000D01*
X102393088Y-45542832D01*
X102095537Y-45666082D01*
X101827748Y-45845013D01*
X101600013Y-46072748D01*
X101600000Y-46072767D01*
X101599987Y-46072748D01*
X101372252Y-45845013D01*
X101104463Y-45666082D01*
X100806912Y-45542832D01*
X100491033Y-45480000D01*
X100168967Y-45480000D01*
X99853088Y-45542832D01*
X99555537Y-45666082D01*
X99287748Y-45845013D01*
X99152761Y-45980000D01*
X98967239Y-45980000D01*
X98925000Y-45937761D01*
X98925000Y-45775751D01*
X98930491Y-45720000D01*
X98908577Y-45497501D01*
X98843676Y-45283553D01*
X98738284Y-45086377D01*
X98736023Y-45083622D01*
X98596449Y-44913551D01*
X98553141Y-44878009D01*
X94055545Y-40380413D01*
X94294192Y-40380413D01*
X94389956Y-40644814D01*
X94679571Y-40785704D01*
X94991108Y-40867384D01*
X95312595Y-40886718D01*
X95631675Y-40842961D01*
X95936088Y-40737795D01*
X96110044Y-40644814D01*
X96205808Y-40380413D01*
X95250000Y-39424605D01*
X94294192Y-40380413D01*
X94055545Y-40380413D01*
X93845000Y-40169869D01*
X93845000Y-40095342D01*
X93850186Y-40105044D01*
X94114587Y-40200808D01*
X95070395Y-39245000D01*
X94114587Y-38289192D01*
X93850186Y-38384956D01*
X93845000Y-38395616D01*
X93845000Y-35878231D01*
X93950131Y-35773100D01*
X94141033Y-35773100D01*
X94456912Y-35710268D01*
X94754463Y-35587018D01*
X95022252Y-35408087D01*
X95249987Y-35180352D01*
X95385000Y-34978290D01*
X95385000Y-36774248D01*
X95379509Y-36830000D01*
X95394423Y-36981423D01*
X95401423Y-37052498D01*
X95466324Y-37266446D01*
X95571716Y-37463623D01*
X95713551Y-37636449D01*
X95756865Y-37671996D01*
X95778055Y-37693186D01*
X95508892Y-37622616D01*
X95187405Y-37603282D01*
X94868325Y-37647039D01*
X94563912Y-37752205D01*
X94389956Y-37845186D01*
X94294192Y-38109587D01*
X95250000Y-39065395D01*
X95264143Y-39051253D01*
X95443748Y-39230858D01*
X95429605Y-39245000D01*
X96385413Y-40200808D01*
X96447280Y-40178400D01*
X96520013Y-40287252D01*
X96747748Y-40514987D01*
X97015537Y-40693918D01*
X97313088Y-40817168D01*
X97628967Y-40880000D01*
X97951033Y-40880000D01*
X98266912Y-40817168D01*
X98564463Y-40693918D01*
X98832252Y-40514987D01*
X99059987Y-40287252D01*
X99060000Y-40287233D01*
X99060013Y-40287252D01*
X99287748Y-40514987D01*
X99555537Y-40693918D01*
X99853088Y-40817168D01*
X100168967Y-40880000D01*
X100491033Y-40880000D01*
X100806912Y-40817168D01*
X101104463Y-40693918D01*
X101372252Y-40514987D01*
X101599987Y-40287252D01*
X101600000Y-40287233D01*
X101600013Y-40287252D01*
X101827748Y-40514987D01*
X102095537Y-40693918D01*
X102393088Y-40817168D01*
X102708967Y-40880000D01*
X103031033Y-40880000D01*
X103346912Y-40817168D01*
X103644463Y-40693918D01*
X103912252Y-40514987D01*
X104047239Y-40380000D01*
X104209249Y-40380000D01*
X104265000Y-40385491D01*
X104320751Y-40380000D01*
X104320752Y-40380000D01*
X104487499Y-40363577D01*
X104701447Y-40298676D01*
X104898623Y-40193284D01*
X105071449Y-40051449D01*
X105106995Y-40008136D01*
X106173146Y-38941987D01*
X106216449Y-38906449D01*
X106296791Y-38808553D01*
X106358284Y-38733623D01*
X106463676Y-38536447D01*
X106528577Y-38322499D01*
X106550491Y-38100000D01*
X106545000Y-38044248D01*
X106545000Y-37085858D01*
X106566677Y-37014399D01*
X106583100Y-36847652D01*
X106583100Y-36847651D01*
X106588591Y-36791900D01*
X106583100Y-36736148D01*
X106583100Y-26573100D01*
X107468001Y-26573100D01*
X107602988Y-26708087D01*
X107603007Y-26708100D01*
X107602988Y-26708113D01*
X107375253Y-26935848D01*
X107196322Y-27203637D01*
X107073072Y-27501188D01*
X107010240Y-27817067D01*
X107010240Y-28139133D01*
X107073072Y-28455012D01*
X107196322Y-28752563D01*
X107375253Y-29020352D01*
X107602988Y-29248087D01*
X107603007Y-29248100D01*
X107602988Y-29248113D01*
X107375253Y-29475848D01*
X107196322Y-29743637D01*
X107073072Y-30041188D01*
X107010240Y-30357067D01*
X107010240Y-30679133D01*
X107073072Y-30995012D01*
X107196322Y-31292563D01*
X107375253Y-31560352D01*
X107602988Y-31788087D01*
X107603007Y-31788100D01*
X107602988Y-31788113D01*
X107375253Y-32015848D01*
X107196322Y-32283637D01*
X107073072Y-32581188D01*
X107010240Y-32897067D01*
X107010240Y-33219133D01*
X107073072Y-33535012D01*
X107196322Y-33832563D01*
X107375253Y-34100352D01*
X107602988Y-34328087D01*
X107603007Y-34328100D01*
X107602988Y-34328113D01*
X107375253Y-34555848D01*
X107196322Y-34823637D01*
X107073072Y-35121188D01*
X107010240Y-35437067D01*
X107010240Y-35759133D01*
X107073072Y-36075012D01*
X107196322Y-36372563D01*
X107375253Y-36640352D01*
X107602988Y-36868087D01*
X107603007Y-36868100D01*
X107602988Y-36868113D01*
X107375253Y-37095848D01*
X107196322Y-37363637D01*
X107073072Y-37661188D01*
X107010240Y-37977067D01*
X107010240Y-38299133D01*
X107073072Y-38615012D01*
X107196322Y-38912563D01*
X107375253Y-39180352D01*
X107602988Y-39408087D01*
X107603007Y-39408100D01*
X107602988Y-39408113D01*
X107375253Y-39635848D01*
X107196322Y-39903637D01*
X107073072Y-40201188D01*
X107010240Y-40517067D01*
X107010240Y-40839133D01*
X107073072Y-41155012D01*
X107196322Y-41452563D01*
X107375253Y-41720352D01*
X107602988Y-41948087D01*
X107603007Y-41948100D01*
X107602988Y-41948113D01*
X107375253Y-42175848D01*
X107196322Y-42443637D01*
X107073072Y-42741188D01*
X107010240Y-43057067D01*
X107010240Y-43379133D01*
X107073072Y-43695012D01*
X107196322Y-43992563D01*
X107375253Y-44260352D01*
X107602988Y-44488087D01*
X107603007Y-44488100D01*
X107602988Y-44488113D01*
X107375253Y-44715848D01*
X107196322Y-44983637D01*
X107073072Y-45281188D01*
X107010240Y-45597067D01*
X107010240Y-45919133D01*
X107073072Y-46235012D01*
X107196322Y-46532563D01*
X107336870Y-46742909D01*
X107290746Y-46767563D01*
X107194055Y-46846915D01*
X107114703Y-46943606D01*
X107055738Y-47053920D01*
X107019428Y-47173618D01*
X107007168Y-47298100D01*
X107007168Y-49298100D01*
X107019428Y-49422582D01*
X107055738Y-49542280D01*
X107114703Y-49652594D01*
X107194055Y-49749285D01*
X107290746Y-49828637D01*
X107401060Y-49887602D01*
X107520758Y-49923912D01*
X107645240Y-49936172D01*
X109645240Y-49936172D01*
X109769722Y-49923912D01*
X109889420Y-49887602D01*
X109999734Y-49828637D01*
X110096425Y-49749285D01*
X110175777Y-49652594D01*
X110234742Y-49542280D01*
X110271052Y-49422582D01*
X110283312Y-49298100D01*
X110283312Y-47298100D01*
X110271052Y-47173618D01*
X110234742Y-47053920D01*
X110175777Y-46943606D01*
X110096425Y-46846915D01*
X109999734Y-46767563D01*
X109953610Y-46742909D01*
X110094158Y-46532563D01*
X110217408Y-46235012D01*
X110280240Y-45919133D01*
X110280240Y-45597067D01*
X110217408Y-45281188D01*
X110094158Y-44983637D01*
X109915227Y-44715848D01*
X109687492Y-44488113D01*
X109687473Y-44488100D01*
X109687492Y-44488087D01*
X109915227Y-44260352D01*
X110094158Y-43992563D01*
X110217408Y-43695012D01*
X110280240Y-43379133D01*
X110280240Y-43057067D01*
X110217408Y-42741188D01*
X110094158Y-42443637D01*
X109915227Y-42175848D01*
X109687492Y-41948113D01*
X109687473Y-41948100D01*
X109687492Y-41948087D01*
X109915227Y-41720352D01*
X110094158Y-41452563D01*
X110217408Y-41155012D01*
X110280240Y-40839133D01*
X110280240Y-40517067D01*
X110217408Y-40201188D01*
X110094158Y-39903637D01*
X109915227Y-39635848D01*
X109687492Y-39408113D01*
X109687473Y-39408100D01*
X109687492Y-39408087D01*
X109915227Y-39180352D01*
X110094158Y-38912563D01*
X110217408Y-38615012D01*
X110280240Y-38299133D01*
X110280240Y-37977067D01*
X110217408Y-37661188D01*
X110094158Y-37363637D01*
X109915227Y-37095848D01*
X109687492Y-36868113D01*
X109687473Y-36868100D01*
X109687492Y-36868087D01*
X109915227Y-36640352D01*
X110094158Y-36372563D01*
X110217408Y-36075012D01*
X110280240Y-35759133D01*
X110280240Y-35437067D01*
X110217408Y-35121188D01*
X110094158Y-34823637D01*
X109915227Y-34555848D01*
X109687492Y-34328113D01*
X109687473Y-34328100D01*
X109687492Y-34328087D01*
X109915227Y-34100352D01*
X110094158Y-33832563D01*
X110217408Y-33535012D01*
X110280240Y-33219133D01*
X110280240Y-32897067D01*
X110217408Y-32581188D01*
X110094158Y-32283637D01*
X109915227Y-32015848D01*
X109687492Y-31788113D01*
X109687473Y-31788100D01*
X109687492Y-31788087D01*
X109915227Y-31560352D01*
X110094158Y-31292563D01*
X110217408Y-30995012D01*
X110280240Y-30679133D01*
X110280240Y-30357067D01*
X110217408Y-30041188D01*
X110094158Y-29743637D01*
X109915227Y-29475848D01*
X109687492Y-29248113D01*
X109687473Y-29248100D01*
X109687492Y-29248087D01*
X109915227Y-29020352D01*
X110094158Y-28752563D01*
X110217408Y-28455012D01*
X110280240Y-28139133D01*
X110280240Y-27817067D01*
X110217408Y-27501188D01*
X110094158Y-27203637D01*
X109915227Y-26935848D01*
X109687492Y-26708113D01*
X109687473Y-26708100D01*
X109687492Y-26708087D01*
X109915227Y-26480352D01*
X110094158Y-26212563D01*
X110217408Y-25915012D01*
X110280240Y-25599133D01*
X110280240Y-25277067D01*
X110217408Y-24961188D01*
X110094158Y-24663637D01*
X109915227Y-24395848D01*
X109687492Y-24168113D01*
X109419703Y-23989182D01*
X109122152Y-23865932D01*
X108806273Y-23803100D01*
X108484207Y-23803100D01*
X108168328Y-23865932D01*
X107870777Y-23989182D01*
X107602988Y-24168113D01*
X107468001Y-24303100D01*
X105918231Y-24303100D01*
X105550096Y-23934965D01*
X105514549Y-23891651D01*
X105341723Y-23749816D01*
X105144547Y-23644424D01*
X104930599Y-23579523D01*
X104763852Y-23563100D01*
X104763851Y-23563100D01*
X104708100Y-23557609D01*
X104652349Y-23563100D01*
X104047239Y-23563100D01*
X103912252Y-23428113D01*
X103644463Y-23249182D01*
X103346912Y-23125932D01*
X103031033Y-23063100D01*
X102708967Y-23063100D01*
X102393088Y-23125932D01*
X102095537Y-23249182D01*
X101827748Y-23428113D01*
X101600013Y-23655848D01*
X101421082Y-23923637D01*
X101297832Y-24221188D01*
X101235000Y-24537067D01*
X101235000Y-24859133D01*
X101297832Y-25175012D01*
X101421082Y-25472563D01*
X101600013Y-25740352D01*
X101827748Y-25968087D01*
X102095537Y-26147018D01*
X102393088Y-26270268D01*
X102708967Y-26333100D01*
X103031033Y-26333100D01*
X103346912Y-26270268D01*
X103644463Y-26147018D01*
X103912252Y-25968087D01*
X104047239Y-25833100D01*
X104237969Y-25833100D01*
X104313100Y-25908231D01*
X104313101Y-34074931D01*
X104139987Y-33815848D01*
X103912252Y-33588113D01*
X103644463Y-33409182D01*
X103346912Y-33285932D01*
X103031033Y-33223100D01*
X102708967Y-33223100D01*
X102393088Y-33285932D01*
X102095537Y-33409182D01*
X101827748Y-33588113D01*
X101600013Y-33815848D01*
X101421082Y-34083637D01*
X101297832Y-34381188D01*
X101235000Y-34697067D01*
X101235000Y-35019133D01*
X101297832Y-35335012D01*
X101421082Y-35632563D01*
X101600013Y-35900352D01*
X101827748Y-36128087D01*
X102095537Y-36307018D01*
X102393088Y-36430268D01*
X102708967Y-36493100D01*
X103031033Y-36493100D01*
X103346912Y-36430268D01*
X103644463Y-36307018D01*
X103912252Y-36128087D01*
X104139987Y-35900352D01*
X104313101Y-35641269D01*
X104313101Y-36536040D01*
X104291423Y-36607502D01*
X104269509Y-36830000D01*
X104275000Y-36885751D01*
X104275000Y-37629868D01*
X103921054Y-37983815D01*
X103912252Y-37975013D01*
X103644463Y-37796082D01*
X103346912Y-37672832D01*
X103031033Y-37610000D01*
X102708967Y-37610000D01*
X102393088Y-37672832D01*
X102095537Y-37796082D01*
X101827748Y-37975013D01*
X101600013Y-38202748D01*
X101600000Y-38202767D01*
X101599987Y-38202748D01*
X101467568Y-38070329D01*
X101465000Y-38044255D01*
X101465000Y-38044248D01*
X101448577Y-37877501D01*
X101448488Y-37877205D01*
X101424409Y-37797832D01*
X101383676Y-37663553D01*
X101278284Y-37466377D01*
X101136449Y-37293551D01*
X101093140Y-37258008D01*
X100195000Y-36359869D01*
X100195000Y-36035339D01*
X100329987Y-35900352D01*
X100508918Y-35632563D01*
X100632168Y-35335012D01*
X100695000Y-35019133D01*
X100695000Y-34697067D01*
X100632168Y-34381188D01*
X100508918Y-34083637D01*
X100329987Y-33815848D01*
X100102252Y-33588113D01*
X99834463Y-33409182D01*
X99536912Y-33285932D01*
X99221033Y-33223100D01*
X98898967Y-33223100D01*
X98583088Y-33285932D01*
X98285537Y-33409182D01*
X98017748Y-33588113D01*
X97790013Y-33815848D01*
X97655000Y-34017909D01*
X97655000Y-33075741D01*
X97660490Y-33019999D01*
X97655000Y-32964257D01*
X97655000Y-32964248D01*
X97638577Y-32797501D01*
X97573676Y-32583553D01*
X97468284Y-32386377D01*
X97326449Y-32213551D01*
X97283140Y-32178008D01*
X95940096Y-30834965D01*
X95904549Y-30791651D01*
X95731723Y-30649816D01*
X95534547Y-30544424D01*
X95320599Y-30479523D01*
X95157609Y-30463470D01*
X95022252Y-30328113D01*
X95022233Y-30328100D01*
X95022252Y-30328087D01*
X95249987Y-30100352D01*
X95428918Y-29832563D01*
X95552168Y-29535012D01*
X95615000Y-29219133D01*
X95615000Y-28897067D01*
X95552168Y-28581188D01*
X95428918Y-28283637D01*
X95249987Y-28015848D01*
X95022252Y-27788113D01*
X94754463Y-27609182D01*
X94456912Y-27485932D01*
X94141033Y-27423100D01*
X93818967Y-27423100D01*
X93503088Y-27485932D01*
X93205537Y-27609182D01*
X92937748Y-27788113D01*
X92802391Y-27923470D01*
X92639401Y-27939523D01*
X92425453Y-28004424D01*
X92228277Y-28109816D01*
X92055451Y-28251651D01*
X92019908Y-28294960D01*
X90676865Y-29638004D01*
X90633551Y-29673551D01*
X90491716Y-29846377D01*
X90444132Y-29935402D01*
X90348918Y-29705537D01*
X90169987Y-29437748D01*
X89942252Y-29210013D01*
X89674463Y-29031082D01*
X89376912Y-28907832D01*
X89061033Y-28845000D01*
X88738967Y-28845000D01*
X88423088Y-28907832D01*
X88125537Y-29031082D01*
X87857748Y-29210013D01*
X87650000Y-29417761D01*
X87535000Y-29302761D01*
X87535000Y-28035752D01*
X87540491Y-27980000D01*
X87518577Y-27757502D01*
X87508316Y-27723676D01*
X87453676Y-27543553D01*
X87368000Y-27383263D01*
X87368000Y-26625339D01*
X87409826Y-26583513D01*
X87817192Y-26583513D01*
X87912956Y-26847914D01*
X88202571Y-26988804D01*
X88514108Y-27070484D01*
X88835595Y-27089818D01*
X89154675Y-27046061D01*
X89459088Y-26940895D01*
X89633044Y-26847914D01*
X89728808Y-26583513D01*
X88773000Y-25627705D01*
X87817192Y-26583513D01*
X87409826Y-26583513D01*
X87502987Y-26490352D01*
X87575720Y-26381500D01*
X87637587Y-26403908D01*
X88593395Y-25448100D01*
X88952605Y-25448100D01*
X89908413Y-26403908D01*
X90172814Y-26308144D01*
X90313704Y-26018529D01*
X90395384Y-25706992D01*
X90414718Y-25385505D01*
X90370961Y-25066425D01*
X90265795Y-24762012D01*
X90172814Y-24588056D01*
X90032036Y-24537067D01*
X97425000Y-24537067D01*
X97425000Y-24859133D01*
X97487832Y-25175012D01*
X97611082Y-25472563D01*
X97790013Y-25740352D01*
X98017748Y-25968087D01*
X98285537Y-26147018D01*
X98583088Y-26270268D01*
X98898967Y-26333100D01*
X99221033Y-26333100D01*
X99536912Y-26270268D01*
X99834463Y-26147018D01*
X100102252Y-25968087D01*
X100329987Y-25740352D01*
X100508918Y-25472563D01*
X100632168Y-25175012D01*
X100695000Y-24859133D01*
X100695000Y-24537067D01*
X100632168Y-24221188D01*
X100508918Y-23923637D01*
X100329987Y-23655848D01*
X100102252Y-23428113D01*
X99834463Y-23249182D01*
X99536912Y-23125932D01*
X99221033Y-23063100D01*
X98898967Y-23063100D01*
X98583088Y-23125932D01*
X98285537Y-23249182D01*
X98017748Y-23428113D01*
X97790013Y-23655848D01*
X97611082Y-23923637D01*
X97487832Y-24221188D01*
X97425000Y-24537067D01*
X90032036Y-24537067D01*
X89908413Y-24492292D01*
X88952605Y-25448100D01*
X88593395Y-25448100D01*
X87637587Y-24492292D01*
X87575720Y-24514700D01*
X87502987Y-24405848D01*
X87409826Y-24312687D01*
X87817192Y-24312687D01*
X88773000Y-25268495D01*
X89728808Y-24312687D01*
X89633044Y-24048286D01*
X89343429Y-23907396D01*
X89031892Y-23825716D01*
X88710405Y-23806382D01*
X88391325Y-23850139D01*
X88086912Y-23955305D01*
X87912956Y-24048286D01*
X87817192Y-24312687D01*
X87409826Y-24312687D01*
X87275252Y-24178113D01*
X87007463Y-23999182D01*
X86709912Y-23875932D01*
X86394033Y-23813100D01*
X86071967Y-23813100D01*
X85756088Y-23875932D01*
X85458537Y-23999182D01*
X85190748Y-24178113D01*
X84963013Y-24405848D01*
X84963000Y-24405867D01*
X84962987Y-24405848D01*
X84735252Y-24178113D01*
X84467463Y-23999182D01*
X84169912Y-23875932D01*
X83854033Y-23813100D01*
X83531967Y-23813100D01*
X83216088Y-23875932D01*
X82918537Y-23999182D01*
X82650748Y-24178113D01*
X82423013Y-24405848D01*
X82244082Y-24673637D01*
X82120832Y-24971188D01*
X82058000Y-25287067D01*
X82058000Y-25609133D01*
X82120832Y-25925012D01*
X82244082Y-26222563D01*
X82423013Y-26490352D01*
X82610661Y-26678000D01*
X79083132Y-26678000D01*
X78802270Y-26397139D01*
X78918918Y-26222563D01*
X79042168Y-25925012D01*
X79105000Y-25609133D01*
X79105000Y-25287067D01*
X79042168Y-24971188D01*
X78918918Y-24673637D01*
X78739987Y-24405848D01*
X78512252Y-24178113D01*
X78244463Y-23999182D01*
X77946912Y-23875932D01*
X77631033Y-23813100D01*
X77308967Y-23813100D01*
X76993088Y-23875932D01*
X76695537Y-23999182D01*
X76427748Y-24178113D01*
X76200013Y-24405848D01*
X76127280Y-24514700D01*
X76065413Y-24492292D01*
X75109605Y-25448100D01*
X76065413Y-26403908D01*
X76127280Y-26381500D01*
X76200013Y-26490352D01*
X76334006Y-26624345D01*
X76329509Y-26670000D01*
X76335000Y-26725751D01*
X76335000Y-26725752D01*
X76351423Y-26892499D01*
X76416324Y-27106447D01*
X76521717Y-27303623D01*
X76663552Y-27476449D01*
X76706860Y-27511991D01*
X77771008Y-28576140D01*
X77806551Y-28619449D01*
X77979377Y-28761284D01*
X78176553Y-28866676D01*
X78390501Y-28931577D01*
X78612999Y-28953491D01*
X78655870Y-28949269D01*
X78655506Y-28949463D01*
X78558815Y-29028815D01*
X78479463Y-29125506D01*
X78420498Y-29235820D01*
X78384188Y-29355518D01*
X78371928Y-29480000D01*
X78375000Y-30194250D01*
X78533750Y-30353000D01*
X79883000Y-30353000D01*
X79883000Y-30333000D01*
X80137000Y-30333000D01*
X80137000Y-30353000D01*
X81486250Y-30353000D01*
X81645000Y-30194250D01*
X81648072Y-29480000D01*
X81635812Y-29355518D01*
X81599502Y-29235820D01*
X81540537Y-29125506D01*
X81461185Y-29028815D01*
X81364494Y-28949463D01*
X81361757Y-28948000D01*
X85265000Y-28948000D01*
X85265001Y-29302760D01*
X85130013Y-29437748D01*
X84951082Y-29705537D01*
X84827832Y-30003088D01*
X84765000Y-30318967D01*
X84765000Y-30641033D01*
X84827832Y-30956912D01*
X84951082Y-31254463D01*
X85130013Y-31522252D01*
X85357748Y-31749987D01*
X85559809Y-31885000D01*
X81499088Y-31885000D01*
X81540537Y-31834494D01*
X81599502Y-31724180D01*
X81635812Y-31604482D01*
X81648072Y-31480000D01*
X81645000Y-30765750D01*
X81486250Y-30607000D01*
X80137000Y-30607000D01*
X80137000Y-30627000D01*
X79883000Y-30627000D01*
X79883000Y-30607000D01*
X78533750Y-30607000D01*
X78375000Y-30765750D01*
X78371928Y-31480000D01*
X78384188Y-31604482D01*
X78420498Y-31724180D01*
X78479463Y-31834494D01*
X78520912Y-31885000D01*
X71175743Y-31885000D01*
X71119999Y-31879510D01*
X71064255Y-31885000D01*
X71064248Y-31885000D01*
X70918493Y-31899356D01*
X70897500Y-31901423D01*
X70847705Y-31916529D01*
X70683553Y-31966324D01*
X70486377Y-32071716D01*
X70313551Y-32213551D01*
X70278011Y-32256857D01*
X69879868Y-32655000D01*
X69688967Y-32655000D01*
X69373088Y-32717832D01*
X69075537Y-32841082D01*
X68807748Y-33020013D01*
X68580013Y-33247748D01*
X68401082Y-33515537D01*
X68277832Y-33813088D01*
X68215000Y-34128967D01*
X66001200Y-34128967D01*
X66001200Y-27140132D01*
X66558232Y-26583100D01*
X71212761Y-26583100D01*
X71347748Y-26718087D01*
X71615537Y-26897018D01*
X71913088Y-27020268D01*
X72228967Y-27083100D01*
X72551033Y-27083100D01*
X72866912Y-27020268D01*
X73164463Y-26897018D01*
X73432252Y-26718087D01*
X73566826Y-26583513D01*
X73974192Y-26583513D01*
X74069956Y-26847914D01*
X74359571Y-26988804D01*
X74671108Y-27070484D01*
X74992595Y-27089818D01*
X75311675Y-27046061D01*
X75616088Y-26940895D01*
X75790044Y-26847914D01*
X75885808Y-26583513D01*
X74930000Y-25627705D01*
X73974192Y-26583513D01*
X73566826Y-26583513D01*
X73659987Y-26490352D01*
X73732720Y-26381500D01*
X73794587Y-26403908D01*
X74750395Y-25448100D01*
X73794587Y-24492292D01*
X73732720Y-24514700D01*
X73659987Y-24405848D01*
X73566826Y-24312687D01*
X73974192Y-24312687D01*
X74930000Y-25268495D01*
X75885808Y-24312687D01*
X75790044Y-24048286D01*
X75500429Y-23907396D01*
X75188892Y-23825716D01*
X74867405Y-23806382D01*
X74548325Y-23850139D01*
X74243912Y-23955305D01*
X74069956Y-24048286D01*
X73974192Y-24312687D01*
X73566826Y-24312687D01*
X73432252Y-24178113D01*
X73164463Y-23999182D01*
X72866912Y-23875932D01*
X72551033Y-23813100D01*
X72228967Y-23813100D01*
X71913088Y-23875932D01*
X71615537Y-23999182D01*
X71347748Y-24178113D01*
X71212761Y-24313100D01*
X66143852Y-24313100D01*
X66088100Y-24307609D01*
X66032348Y-24313100D01*
X65865601Y-24329523D01*
X65651653Y-24394424D01*
X65454477Y-24499816D01*
X65324956Y-24606111D01*
X65324954Y-24606113D01*
X65281651Y-24641651D01*
X65246113Y-24684954D01*
X64103064Y-25828005D01*
X64059751Y-25863551D01*
X63917916Y-26036377D01*
X63827012Y-26206449D01*
X63812524Y-26233554D01*
X63747623Y-26447502D01*
X63725709Y-26670000D01*
X63731200Y-26725752D01*
X63731200Y-27303064D01*
X63694158Y-27213637D01*
X63515227Y-26945848D01*
X63287492Y-26718113D01*
X63287473Y-26718100D01*
X63287492Y-26718087D01*
X63515227Y-26490352D01*
X63694158Y-26222563D01*
X63817408Y-25925012D01*
X63880240Y-25609133D01*
X63880240Y-25287067D01*
X63817408Y-24971188D01*
X63694158Y-24673637D01*
X63515227Y-24405848D01*
X63287492Y-24178113D01*
X63019703Y-23999182D01*
X62722152Y-23875932D01*
X62406273Y-23813100D01*
X62084207Y-23813100D01*
X61768328Y-23875932D01*
X61470777Y-23999182D01*
X61202988Y-24178113D01*
X60975253Y-24405848D01*
X60796322Y-24673637D01*
X60673072Y-24971188D01*
X60610240Y-25287067D01*
X60610240Y-25609133D01*
X60673072Y-25925012D01*
X60796322Y-26222563D01*
X60975253Y-26490352D01*
X61202988Y-26718087D01*
X61203007Y-26718100D01*
X61202988Y-26718113D01*
X60975253Y-26945848D01*
X60796322Y-27213637D01*
X60673072Y-27511188D01*
X60610240Y-27827067D01*
X60610240Y-28149133D01*
X60673072Y-28465012D01*
X60796322Y-28762563D01*
X60975253Y-29030352D01*
X61202988Y-29258087D01*
X61203007Y-29258100D01*
X61202988Y-29258113D01*
X60975253Y-29485848D01*
X60796322Y-29753637D01*
X60673072Y-30051188D01*
X60610240Y-30367067D01*
X60610240Y-30689133D01*
X60673072Y-31005012D01*
X60796322Y-31302563D01*
X60975253Y-31570352D01*
X61202988Y-31798087D01*
X61203007Y-31798100D01*
X61202988Y-31798113D01*
X60975253Y-32025848D01*
X60796322Y-32293637D01*
X60673072Y-32591188D01*
X60610240Y-32907067D01*
X60610240Y-33229133D01*
X60673072Y-33545012D01*
X60796322Y-33842563D01*
X60975253Y-34110352D01*
X61202988Y-34338087D01*
X61203007Y-34338100D01*
X61202988Y-34338113D01*
X60975253Y-34565848D01*
X60796322Y-34833637D01*
X60673072Y-35131188D01*
X60610240Y-35447067D01*
X60610240Y-35769133D01*
X60673072Y-36085012D01*
X60796322Y-36382563D01*
X60975253Y-36650352D01*
X61202988Y-36878087D01*
X61203007Y-36878100D01*
X61202988Y-36878113D01*
X61068001Y-37013100D01*
X60208232Y-37013100D01*
X58463004Y-35267873D01*
X58598918Y-35064463D01*
X58722168Y-34766912D01*
X58785000Y-34451033D01*
X58785000Y-34128967D01*
X58722168Y-33813088D01*
X58598918Y-33515537D01*
X58419987Y-33247748D01*
X58192252Y-33020013D01*
X57924463Y-32841082D01*
X57626912Y-32717832D01*
X57311033Y-32655000D01*
X56988967Y-32655000D01*
X56673088Y-32717832D01*
X56375537Y-32841082D01*
X56107748Y-33020013D01*
X55972761Y-33155000D01*
X54665741Y-33155000D01*
X54609999Y-33149510D01*
X54554257Y-33155000D01*
X54554248Y-33155000D01*
X54387501Y-33171423D01*
X54173553Y-33236324D01*
X53976377Y-33341716D01*
X53803551Y-33483551D01*
X53768011Y-33526857D01*
X51935000Y-35359869D01*
X51935000Y-34760131D01*
X55080133Y-31615000D01*
X55831339Y-31615000D01*
X56044002Y-31827663D01*
X56328169Y-32017537D01*
X56643919Y-32148325D01*
X56979117Y-32215000D01*
X57320883Y-32215000D01*
X57656081Y-32148325D01*
X57971831Y-32017537D01*
X58255998Y-31827663D01*
X58497663Y-31585998D01*
X58687537Y-31301831D01*
X58818325Y-30986081D01*
X58885000Y-30650883D01*
X58885000Y-30309117D01*
X58818325Y-29973919D01*
X58687537Y-29658169D01*
X58497663Y-29374002D01*
X58285000Y-29161339D01*
X58285000Y-26577239D01*
X58419987Y-26442252D01*
X58598918Y-26174463D01*
X58722168Y-25876912D01*
X58785000Y-25561033D01*
X58785000Y-25238967D01*
X58722168Y-24923088D01*
X58598918Y-24625537D01*
X58419987Y-24357748D01*
X58192252Y-24130013D01*
X57924463Y-23951082D01*
X57626912Y-23827832D01*
X57311033Y-23765000D01*
X56988967Y-23765000D01*
X56673088Y-23827832D01*
X56375537Y-23951082D01*
X56107748Y-24130013D01*
X55880013Y-24357748D01*
X55880000Y-24357767D01*
X55879987Y-24357748D01*
X55652252Y-24130013D01*
X55384463Y-23951082D01*
X55086912Y-23827832D01*
X54771033Y-23765000D01*
X54448967Y-23765000D01*
X54133088Y-23827832D01*
X53835537Y-23951082D01*
X53567748Y-24130013D01*
X53432761Y-24265000D01*
X50855752Y-24265000D01*
X50800000Y-24259509D01*
X50577501Y-24281423D01*
X50363553Y-24346324D01*
X50166377Y-24451716D01*
X50036856Y-24558011D01*
X50036854Y-24558013D01*
X49993551Y-24593551D01*
X49958013Y-24636854D01*
X46226865Y-28368004D01*
X46183551Y-28403551D01*
X46041716Y-28576377D01*
X45953228Y-28741928D01*
X45890000Y-28741928D01*
X45765518Y-28754188D01*
X45645820Y-28790498D01*
X45535506Y-28849463D01*
X45438815Y-28928815D01*
X45359463Y-29025506D01*
X45300498Y-29135820D01*
X45264188Y-29255518D01*
X45251928Y-29380000D01*
X44577000Y-29380000D01*
X44577000Y-22908260D01*
X111137700Y-22908260D01*
X111137700Y-50998120D01*
%TA.AperFunction,Conductor*%
D20*
G36*
X111137700Y-50998120D02*
G01*
X44577000Y-50998120D01*
X44577000Y-29380000D01*
X45251928Y-29380000D01*
X45251928Y-31580000D01*
X45264188Y-31704482D01*
X45300498Y-31824180D01*
X45359463Y-31934494D01*
X45438815Y-32031185D01*
X45535506Y-32110537D01*
X45645820Y-32169502D01*
X45765518Y-32205812D01*
X45855001Y-32214625D01*
X45855000Y-39314248D01*
X45849509Y-39370000D01*
X45855000Y-39425751D01*
X45871423Y-39592498D01*
X45936324Y-39806446D01*
X46041716Y-40003623D01*
X46183551Y-40176449D01*
X46226865Y-40211996D01*
X49665001Y-43650134D01*
X49665000Y-47120861D01*
X49530013Y-47255848D01*
X49351082Y-47523637D01*
X49227832Y-47821188D01*
X49165000Y-48137067D01*
X49165000Y-48459133D01*
X49227832Y-48775012D01*
X49351082Y-49072563D01*
X49530013Y-49340352D01*
X49757748Y-49568087D01*
X50025537Y-49747018D01*
X50323088Y-49870268D01*
X50638967Y-49933100D01*
X50961033Y-49933100D01*
X51276912Y-49870268D01*
X51574463Y-49747018D01*
X51842252Y-49568087D01*
X51976826Y-49433513D01*
X52384192Y-49433513D01*
X52479956Y-49697914D01*
X52769571Y-49838804D01*
X53081108Y-49920484D01*
X53402595Y-49939818D01*
X53721675Y-49896061D01*
X54026088Y-49790895D01*
X54200044Y-49697914D01*
X54292186Y-49443513D01*
X61289432Y-49443513D01*
X61385196Y-49707914D01*
X61674811Y-49848804D01*
X61986348Y-49930484D01*
X62307835Y-49949818D01*
X62626915Y-49906061D01*
X62931328Y-49800895D01*
X63105284Y-49707914D01*
X63201048Y-49443513D01*
X62245240Y-48487705D01*
X61289432Y-49443513D01*
X54292186Y-49443513D01*
X54295808Y-49433513D01*
X53340000Y-48477705D01*
X52384192Y-49433513D01*
X51976826Y-49433513D01*
X52069987Y-49340352D01*
X52142720Y-49231500D01*
X52204587Y-49253908D01*
X53160395Y-48298100D01*
X53519605Y-48298100D01*
X54475413Y-49253908D01*
X54739814Y-49158144D01*
X54880704Y-48868529D01*
X54962384Y-48556992D01*
X54973587Y-48370695D01*
X60603522Y-48370695D01*
X60647279Y-48689775D01*
X60752445Y-48994188D01*
X60845426Y-49168144D01*
X61109827Y-49263908D01*
X62065635Y-48308100D01*
X62424845Y-48308100D01*
X63380653Y-49263908D01*
X63645054Y-49168144D01*
X63654804Y-49148100D01*
X68361928Y-49148100D01*
X68374188Y-49272582D01*
X68410498Y-49392280D01*
X68469463Y-49502594D01*
X68548815Y-49599285D01*
X68645506Y-49678637D01*
X68755820Y-49737602D01*
X68875518Y-49773912D01*
X69000000Y-49786172D01*
X69564250Y-49783100D01*
X69723000Y-49624350D01*
X69723000Y-48425100D01*
X68523750Y-48425100D01*
X68365000Y-48583850D01*
X68361928Y-49148100D01*
X63654804Y-49148100D01*
X63785944Y-48878529D01*
X63867624Y-48566992D01*
X63886958Y-48245505D01*
X63843201Y-47926425D01*
X63738035Y-47622012D01*
X63645078Y-47448100D01*
X68361928Y-47448100D01*
X68365000Y-48012350D01*
X68523750Y-48171100D01*
X69723000Y-48171100D01*
X69723000Y-46971850D01*
X69977000Y-46971850D01*
X69977000Y-48171100D01*
X69997000Y-48171100D01*
X69997000Y-48425100D01*
X69977000Y-48425100D01*
X69977000Y-49624350D01*
X70135750Y-49783100D01*
X70700000Y-49786172D01*
X70824482Y-49773912D01*
X70944180Y-49737602D01*
X71054494Y-49678637D01*
X71151185Y-49599285D01*
X71230537Y-49502594D01*
X71289502Y-49392280D01*
X71311513Y-49319720D01*
X71443368Y-49451575D01*
X71686589Y-49614090D01*
X71956842Y-49726032D01*
X72243740Y-49783100D01*
X72536260Y-49783100D01*
X72823158Y-49726032D01*
X73093411Y-49614090D01*
X73336632Y-49451575D01*
X73543475Y-49244732D01*
X73705990Y-49001511D01*
X73817932Y-48731258D01*
X73875000Y-48444360D01*
X73875000Y-48151840D01*
X73864483Y-48098967D01*
X77105000Y-48098967D01*
X77105000Y-48421033D01*
X77167832Y-48736912D01*
X77291082Y-49034463D01*
X77470013Y-49302252D01*
X77697748Y-49529987D01*
X77965537Y-49708918D01*
X78263088Y-49832168D01*
X78578967Y-49895000D01*
X78901033Y-49895000D01*
X79216912Y-49832168D01*
X79514463Y-49708918D01*
X79782252Y-49529987D01*
X79916826Y-49395413D01*
X80284192Y-49395413D01*
X80379956Y-49659814D01*
X80669571Y-49800704D01*
X80981108Y-49882384D01*
X81302595Y-49901718D01*
X81621675Y-49857961D01*
X81926088Y-49752795D01*
X82100044Y-49659814D01*
X82195808Y-49395413D01*
X81240000Y-48439605D01*
X80284192Y-49395413D01*
X79916826Y-49395413D01*
X80009987Y-49302252D01*
X80074925Y-49205065D01*
X80104587Y-49215808D01*
X81060395Y-48260000D01*
X81419605Y-48260000D01*
X82375413Y-49215808D01*
X82639814Y-49120044D01*
X82780704Y-48830429D01*
X82862384Y-48518892D01*
X82881718Y-48197405D01*
X82837961Y-47878325D01*
X82732795Y-47573912D01*
X82639814Y-47399956D01*
X82375413Y-47304192D01*
X81419605Y-48260000D01*
X81060395Y-48260000D01*
X80104587Y-47304192D01*
X80074925Y-47314935D01*
X80009987Y-47217748D01*
X79916826Y-47124587D01*
X80284192Y-47124587D01*
X81240000Y-48080395D01*
X82195808Y-47124587D01*
X82100044Y-46860186D01*
X81810429Y-46719296D01*
X81498892Y-46637616D01*
X81177405Y-46618282D01*
X80858325Y-46662039D01*
X80553912Y-46767205D01*
X80379956Y-46860186D01*
X80284192Y-47124587D01*
X79916826Y-47124587D01*
X79782252Y-46990013D01*
X79514463Y-46811082D01*
X79216912Y-46687832D01*
X78901033Y-46625000D01*
X78578967Y-46625000D01*
X78263088Y-46687832D01*
X77965537Y-46811082D01*
X77697748Y-46990013D01*
X77470013Y-47217748D01*
X77291082Y-47485537D01*
X77167832Y-47783088D01*
X77105000Y-48098967D01*
X73864483Y-48098967D01*
X73817932Y-47864942D01*
X73705990Y-47594689D01*
X73543475Y-47351468D01*
X73336632Y-47144625D01*
X73093411Y-46982110D01*
X72823158Y-46870168D01*
X72536260Y-46813100D01*
X72243740Y-46813100D01*
X71956842Y-46870168D01*
X71686589Y-46982110D01*
X71443368Y-47144625D01*
X71311513Y-47276480D01*
X71289502Y-47203920D01*
X71230537Y-47093606D01*
X71151185Y-46996915D01*
X71054494Y-46917563D01*
X70944180Y-46858598D01*
X70824482Y-46822288D01*
X70700000Y-46810028D01*
X70135750Y-46813100D01*
X69977000Y-46971850D01*
X69723000Y-46971850D01*
X69564250Y-46813100D01*
X69000000Y-46810028D01*
X68875518Y-46822288D01*
X68755820Y-46858598D01*
X68645506Y-46917563D01*
X68548815Y-46996915D01*
X68469463Y-47093606D01*
X68410498Y-47203920D01*
X68374188Y-47323618D01*
X68361928Y-47448100D01*
X63645078Y-47448100D01*
X63645054Y-47448056D01*
X63380653Y-47352292D01*
X62424845Y-48308100D01*
X62065635Y-48308100D01*
X61109827Y-47352292D01*
X60845426Y-47448056D01*
X60704536Y-47737671D01*
X60622856Y-48049208D01*
X60603522Y-48370695D01*
X54973587Y-48370695D01*
X54981718Y-48235505D01*
X54937961Y-47916425D01*
X54832795Y-47612012D01*
X54739814Y-47438056D01*
X54475413Y-47342292D01*
X53519605Y-48298100D01*
X53160395Y-48298100D01*
X52204587Y-47342292D01*
X52142720Y-47364700D01*
X52069987Y-47255848D01*
X51976826Y-47162687D01*
X52384192Y-47162687D01*
X53340000Y-48118495D01*
X54295808Y-47162687D01*
X54200044Y-46898286D01*
X53910429Y-46757396D01*
X53598892Y-46675716D01*
X53277405Y-46656382D01*
X52958325Y-46700139D01*
X52653912Y-46805305D01*
X52479956Y-46898286D01*
X52384192Y-47162687D01*
X51976826Y-47162687D01*
X51935000Y-47120861D01*
X51935000Y-45585413D01*
X56194192Y-45585413D01*
X56289956Y-45849814D01*
X56579571Y-45990704D01*
X56891108Y-46072384D01*
X57212595Y-46091718D01*
X57531675Y-46047961D01*
X57836088Y-45942795D01*
X58010044Y-45849814D01*
X58105808Y-45585413D01*
X57150000Y-44629605D01*
X56194192Y-45585413D01*
X51935000Y-45585413D01*
X51935000Y-44512595D01*
X55508282Y-44512595D01*
X55552039Y-44831675D01*
X55657205Y-45136088D01*
X55750186Y-45310044D01*
X56014587Y-45405808D01*
X56970395Y-44450000D01*
X57329605Y-44450000D01*
X58285413Y-45405808D01*
X58549814Y-45310044D01*
X58690704Y-45020429D01*
X58772384Y-44708892D01*
X58791718Y-44387405D01*
X58747961Y-44068325D01*
X58642795Y-43763912D01*
X58549814Y-43589956D01*
X58285413Y-43494192D01*
X57329605Y-44450000D01*
X56970395Y-44450000D01*
X56014587Y-43494192D01*
X55750186Y-43589956D01*
X55609296Y-43879571D01*
X55527616Y-44191108D01*
X55508282Y-44512595D01*
X51935000Y-44512595D01*
X51935000Y-43314587D01*
X56194192Y-43314587D01*
X57150000Y-44270395D01*
X58105808Y-43314587D01*
X58010044Y-43050186D01*
X57720429Y-42909296D01*
X57408892Y-42827616D01*
X57087405Y-42808282D01*
X56768325Y-42852039D01*
X56463912Y-42957205D01*
X56289956Y-43050186D01*
X56194192Y-43314587D01*
X51935000Y-43314587D01*
X51935000Y-43235752D01*
X51940491Y-43180000D01*
X51918577Y-42957501D01*
X51853676Y-42743553D01*
X51748284Y-42546377D01*
X51641989Y-42416856D01*
X51641987Y-42416854D01*
X51606449Y-42373551D01*
X51563146Y-42338013D01*
X48125000Y-38899869D01*
X48125000Y-32214625D01*
X48214482Y-32205812D01*
X48334180Y-32169502D01*
X48444494Y-32110537D01*
X48541185Y-32031185D01*
X48620537Y-31934494D01*
X48679502Y-31824180D01*
X48715812Y-31704482D01*
X48728072Y-31580000D01*
X48728072Y-29380000D01*
X48715812Y-29255518D01*
X48679502Y-29135820D01*
X48675952Y-29129179D01*
X51270133Y-26535000D01*
X53432761Y-26535000D01*
X53567748Y-26669987D01*
X53835537Y-26848918D01*
X54133088Y-26972168D01*
X54448967Y-27035000D01*
X54771033Y-27035000D01*
X55086912Y-26972168D01*
X55384463Y-26848918D01*
X55652252Y-26669987D01*
X55879987Y-26442252D01*
X55880000Y-26442233D01*
X55880013Y-26442252D01*
X56015000Y-26577239D01*
X56015001Y-29161338D01*
X55831339Y-29345000D01*
X54665752Y-29345000D01*
X54610000Y-29339509D01*
X54387501Y-29361423D01*
X54173553Y-29426324D01*
X53976377Y-29531716D01*
X53846856Y-29638011D01*
X53846854Y-29638013D01*
X53803551Y-29673551D01*
X53768013Y-29716854D01*
X50036860Y-33448009D01*
X49993552Y-33483551D01*
X49851717Y-33656377D01*
X49827516Y-33701654D01*
X49746324Y-33853554D01*
X49681423Y-34067502D01*
X49659509Y-34290000D01*
X49665001Y-34345761D01*
X49665000Y-37620518D01*
X49656785Y-37647600D01*
X49640000Y-37818021D01*
X49640000Y-38381978D01*
X49656785Y-38552399D01*
X49723115Y-38771059D01*
X49830829Y-38972578D01*
X49975788Y-39149212D01*
X50152421Y-39294171D01*
X50353940Y-39401885D01*
X50572600Y-39468215D01*
X50800000Y-39490612D01*
X51027399Y-39468215D01*
X51246059Y-39401885D01*
X51435000Y-39300894D01*
X51623940Y-39401885D01*
X51842600Y-39468215D01*
X52070000Y-39490612D01*
X52297399Y-39468215D01*
X52506098Y-39404907D01*
X52570820Y-39439502D01*
X52690518Y-39475812D01*
X52815000Y-39488072D01*
X53054250Y-39485000D01*
X53213000Y-39326250D01*
X53213000Y-38553109D01*
X53213215Y-38552400D01*
X53230000Y-38381979D01*
X53230000Y-38227000D01*
X53467000Y-38227000D01*
X53467000Y-39326250D01*
X53625750Y-39485000D01*
X53865000Y-39488072D01*
X53989482Y-39475812D01*
X54109180Y-39439502D01*
X54219494Y-39380537D01*
X54316185Y-39301185D01*
X54395537Y-39204494D01*
X54454502Y-39094180D01*
X54490812Y-38974482D01*
X54503072Y-38850000D01*
X54500000Y-38385750D01*
X54341250Y-38227000D01*
X53467000Y-38227000D01*
X53230000Y-38227000D01*
X53230000Y-37953000D01*
X53467000Y-37953000D01*
X53467000Y-37973000D01*
X54341250Y-37973000D01*
X54500000Y-37814250D01*
X54503072Y-37350000D01*
X54490812Y-37225518D01*
X54454502Y-37105820D01*
X54395537Y-36995506D01*
X54316185Y-36898815D01*
X54219494Y-36819463D01*
X54109180Y-36760498D01*
X53989482Y-36724188D01*
X53865000Y-36711928D01*
X53792269Y-36712862D01*
X55080132Y-35425000D01*
X55972761Y-35425000D01*
X56015000Y-35467239D01*
X56015000Y-35504249D01*
X56009509Y-35560000D01*
X56015000Y-35615751D01*
X56031423Y-35782498D01*
X56096324Y-35996446D01*
X56201716Y-36193623D01*
X56343551Y-36366449D01*
X56386865Y-36401996D01*
X58896109Y-38911241D01*
X58931651Y-38954549D01*
X59104477Y-39096384D01*
X59301653Y-39201776D01*
X59465805Y-39251571D01*
X59515600Y-39266677D01*
X59738099Y-39288591D01*
X59793851Y-39283100D01*
X61068001Y-39283100D01*
X61202988Y-39418087D01*
X61203007Y-39418100D01*
X61202988Y-39418113D01*
X60975253Y-39645848D01*
X60796322Y-39913637D01*
X60673072Y-40211188D01*
X60610240Y-40527067D01*
X60610240Y-40849133D01*
X60673072Y-41165012D01*
X60796322Y-41462563D01*
X60975253Y-41730352D01*
X61202988Y-41958087D01*
X61203007Y-41958100D01*
X61202988Y-41958113D01*
X60975253Y-42185848D01*
X60796322Y-42453637D01*
X60673072Y-42751188D01*
X60610240Y-43067067D01*
X60610240Y-43389133D01*
X60673072Y-43705012D01*
X60796322Y-44002563D01*
X60975253Y-44270352D01*
X61202988Y-44498087D01*
X61203007Y-44498100D01*
X61202988Y-44498113D01*
X60975253Y-44725848D01*
X60796322Y-44993637D01*
X60673072Y-45291188D01*
X60610240Y-45607067D01*
X60610240Y-45929133D01*
X60673072Y-46245012D01*
X60796322Y-46542563D01*
X60975253Y-46810352D01*
X61202988Y-47038087D01*
X61311840Y-47110820D01*
X61289432Y-47172687D01*
X62245240Y-48128495D01*
X63201048Y-47172687D01*
X63178640Y-47110820D01*
X63287492Y-47038087D01*
X63515227Y-46810352D01*
X63694158Y-46542563D01*
X63817408Y-46245012D01*
X63880240Y-45929133D01*
X63880240Y-45607067D01*
X63817408Y-45291188D01*
X63694158Y-44993637D01*
X63515227Y-44725848D01*
X63287492Y-44498113D01*
X63287473Y-44498100D01*
X63287492Y-44498087D01*
X63496612Y-44288967D01*
X68215000Y-44288967D01*
X68215000Y-44611033D01*
X68277832Y-44926912D01*
X68401082Y-45224463D01*
X68580013Y-45492252D01*
X68807748Y-45719987D01*
X69075537Y-45898918D01*
X69373088Y-46022168D01*
X69688967Y-46085000D01*
X70011033Y-46085000D01*
X70326912Y-46022168D01*
X70624463Y-45898918D01*
X70892252Y-45719987D01*
X71119987Y-45492252D01*
X71298918Y-45224463D01*
X71422168Y-44926912D01*
X71485000Y-44611033D01*
X71485000Y-44288967D01*
X71422168Y-43973088D01*
X71298918Y-43675537D01*
X71119987Y-43407748D01*
X70892252Y-43180013D01*
X70651230Y-43018967D01*
X78375000Y-43018967D01*
X78375000Y-43341033D01*
X78437832Y-43656912D01*
X78561082Y-43954463D01*
X78740013Y-44222252D01*
X78967748Y-44449987D01*
X79235537Y-44628918D01*
X79533088Y-44752168D01*
X79848967Y-44815000D01*
X80171033Y-44815000D01*
X80486912Y-44752168D01*
X80784463Y-44628918D01*
X81052252Y-44449987D01*
X81279987Y-44222252D01*
X81458918Y-43954463D01*
X81582168Y-43656912D01*
X81645000Y-43341033D01*
X81645000Y-43018967D01*
X81582168Y-42703088D01*
X81458918Y-42405537D01*
X81279987Y-42137748D01*
X81052252Y-41910013D01*
X80784463Y-41731082D01*
X80486912Y-41607832D01*
X80171033Y-41545000D01*
X79848967Y-41545000D01*
X79533088Y-41607832D01*
X79235537Y-41731082D01*
X78967748Y-41910013D01*
X78740013Y-42137748D01*
X78561082Y-42405537D01*
X78437832Y-42703088D01*
X78375000Y-43018967D01*
X70651230Y-43018967D01*
X70624463Y-43001082D01*
X70326912Y-42877832D01*
X70011033Y-42815000D01*
X69688967Y-42815000D01*
X69373088Y-42877832D01*
X69075537Y-43001082D01*
X68807748Y-43180013D01*
X68580013Y-43407748D01*
X68401082Y-43675537D01*
X68277832Y-43973088D01*
X68215000Y-44288967D01*
X63496612Y-44288967D01*
X63515227Y-44270352D01*
X63694158Y-44002563D01*
X63817408Y-43705012D01*
X63880240Y-43389133D01*
X63880240Y-43067067D01*
X63817408Y-42751188D01*
X63694158Y-42453637D01*
X63515227Y-42185848D01*
X63287492Y-41958113D01*
X63287473Y-41958100D01*
X63287492Y-41958087D01*
X63515227Y-41730352D01*
X63694158Y-41462563D01*
X63817408Y-41165012D01*
X63880240Y-40849133D01*
X63880240Y-40527067D01*
X63875933Y-40505413D01*
X79054192Y-40505413D01*
X79149956Y-40769814D01*
X79439571Y-40910704D01*
X79751108Y-40992384D01*
X80072595Y-41011718D01*
X80391675Y-40967961D01*
X80696088Y-40862795D01*
X80870044Y-40769814D01*
X80965808Y-40505413D01*
X80010000Y-39549605D01*
X79054192Y-40505413D01*
X63875933Y-40505413D01*
X63817408Y-40211188D01*
X63694158Y-39913637D01*
X63515227Y-39645848D01*
X63301974Y-39432595D01*
X78368282Y-39432595D01*
X78412039Y-39751675D01*
X78517205Y-40056088D01*
X78610186Y-40230044D01*
X78874587Y-40325808D01*
X79830395Y-39370000D01*
X80189605Y-39370000D01*
X81145413Y-40325808D01*
X81409814Y-40230044D01*
X81550704Y-39940429D01*
X81632384Y-39628892D01*
X81651718Y-39307405D01*
X81607961Y-38988325D01*
X81502795Y-38683912D01*
X81409814Y-38509956D01*
X81145413Y-38414192D01*
X80189605Y-39370000D01*
X79830395Y-39370000D01*
X78874587Y-38414192D01*
X78610186Y-38509956D01*
X78469296Y-38799571D01*
X78387616Y-39111108D01*
X78368282Y-39432595D01*
X63301974Y-39432595D01*
X63287492Y-39418113D01*
X63287473Y-39418100D01*
X63287492Y-39418087D01*
X63420118Y-39285461D01*
X63451900Y-39288591D01*
X63507651Y-39283100D01*
X63507652Y-39283100D01*
X63674399Y-39266677D01*
X63888347Y-39201776D01*
X64085523Y-39096384D01*
X64258349Y-38954549D01*
X64293896Y-38911235D01*
X64970544Y-38234587D01*
X79054192Y-38234587D01*
X80010000Y-39190395D01*
X80965808Y-38234587D01*
X80870044Y-37970186D01*
X80580429Y-37829296D01*
X80268892Y-37747616D01*
X79947405Y-37728282D01*
X79628325Y-37772039D01*
X79323912Y-37877205D01*
X79149956Y-37970186D01*
X79054192Y-38234587D01*
X64970544Y-38234587D01*
X65629340Y-37575792D01*
X65672649Y-37540249D01*
X65814484Y-37367423D01*
X65919876Y-37170247D01*
X65984777Y-36956299D01*
X66001200Y-36789552D01*
X66001200Y-36789543D01*
X66006690Y-36733801D01*
X66002910Y-36695413D01*
X79054192Y-36695413D01*
X79149956Y-36959814D01*
X79439571Y-37100704D01*
X79751108Y-37182384D01*
X80072595Y-37201718D01*
X80391675Y-37157961D01*
X80696088Y-37052795D01*
X80870044Y-36959814D01*
X80965808Y-36695413D01*
X80010000Y-35739605D01*
X79054192Y-36695413D01*
X66002910Y-36695413D01*
X66001200Y-36678059D01*
X66001200Y-34128967D01*
X68215000Y-34128967D01*
X68215000Y-34451033D01*
X68277832Y-34766912D01*
X68401082Y-35064463D01*
X68580013Y-35332252D01*
X68807748Y-35559987D01*
X69075537Y-35738918D01*
X69373088Y-35862168D01*
X69688967Y-35925000D01*
X70011033Y-35925000D01*
X70326912Y-35862168D01*
X70624463Y-35738918D01*
X70798552Y-35622595D01*
X78368282Y-35622595D01*
X78412039Y-35941675D01*
X78517205Y-36246088D01*
X78610186Y-36420044D01*
X78874587Y-36515808D01*
X79830395Y-35560000D01*
X80189605Y-35560000D01*
X81145413Y-36515808D01*
X81409814Y-36420044D01*
X81550704Y-36130429D01*
X81632384Y-35818892D01*
X81651718Y-35497405D01*
X81607961Y-35178325D01*
X81502795Y-34873912D01*
X81409814Y-34699956D01*
X81145413Y-34604192D01*
X80189605Y-35560000D01*
X79830395Y-35560000D01*
X78874587Y-34604192D01*
X78610186Y-34699956D01*
X78469296Y-34989571D01*
X78387616Y-35301108D01*
X78368282Y-35622595D01*
X70798552Y-35622595D01*
X70892252Y-35559987D01*
X71119987Y-35332252D01*
X71298918Y-35064463D01*
X71422168Y-34766912D01*
X71485000Y-34451033D01*
X71485000Y-34260132D01*
X71590132Y-34155000D01*
X78832761Y-34155000D01*
X78967748Y-34289987D01*
X79076600Y-34362720D01*
X79054192Y-34424587D01*
X80010000Y-35380395D01*
X80965808Y-34424587D01*
X80943400Y-34362720D01*
X81052252Y-34289987D01*
X81187239Y-34155000D01*
X90114249Y-34155000D01*
X90170000Y-34160491D01*
X90225751Y-34155000D01*
X90225752Y-34155000D01*
X90392499Y-34138577D01*
X90606447Y-34073676D01*
X90803623Y-33968284D01*
X90976449Y-33826449D01*
X91011996Y-33783135D01*
X92203140Y-32591992D01*
X92246449Y-32556449D01*
X92388284Y-32383623D01*
X92471317Y-32228278D01*
X92531082Y-32372563D01*
X92710013Y-32640352D01*
X92937748Y-32868087D01*
X92937767Y-32868100D01*
X92937748Y-32868113D01*
X92710013Y-33095848D01*
X92531082Y-33363637D01*
X92407832Y-33661188D01*
X92345000Y-33977067D01*
X92345000Y-34167969D01*
X91946865Y-34566104D01*
X91903551Y-34601651D01*
X91761716Y-34774477D01*
X91656325Y-34971653D01*
X91656324Y-34971654D01*
X91591423Y-35185602D01*
X91569509Y-35408100D01*
X91575000Y-35463852D01*
X91575001Y-38529810D01*
X91439987Y-38327748D01*
X91212252Y-38100013D01*
X90944463Y-37921082D01*
X90646912Y-37797832D01*
X90331033Y-37735000D01*
X90008967Y-37735000D01*
X89693088Y-37797832D01*
X89395537Y-37921082D01*
X89127748Y-38100013D01*
X88900013Y-38327748D01*
X88721082Y-38595537D01*
X88597832Y-38893088D01*
X88535000Y-39208967D01*
X88535000Y-39531033D01*
X88597832Y-39846912D01*
X88721082Y-40144463D01*
X88900013Y-40412252D01*
X89127748Y-40639987D01*
X89395537Y-40818918D01*
X89693088Y-40942168D01*
X90008967Y-41005000D01*
X90331033Y-41005000D01*
X90646912Y-40942168D01*
X90944463Y-40818918D01*
X91212252Y-40639987D01*
X91439987Y-40412252D01*
X91575001Y-40210190D01*
X91575001Y-40584239D01*
X91569509Y-40640000D01*
X91591423Y-40862498D01*
X91656324Y-41076446D01*
X91703664Y-41165012D01*
X91761717Y-41273623D01*
X91903552Y-41446449D01*
X91946860Y-41481991D01*
X96528815Y-46063946D01*
X96520013Y-46072748D01*
X96520000Y-46072767D01*
X96519987Y-46072748D01*
X96292252Y-45845013D01*
X96024463Y-45666082D01*
X95726912Y-45542832D01*
X95411033Y-45480000D01*
X95088967Y-45480000D01*
X94773088Y-45542832D01*
X94475537Y-45666082D01*
X94207748Y-45845013D01*
X94072761Y-45980000D01*
X93305132Y-45980000D01*
X91483004Y-44157873D01*
X91618918Y-43954463D01*
X91742168Y-43656912D01*
X91805000Y-43341033D01*
X91805000Y-43018967D01*
X91742168Y-42703088D01*
X91618918Y-42405537D01*
X91439987Y-42137748D01*
X91212252Y-41910013D01*
X90944463Y-41731082D01*
X90646912Y-41607832D01*
X90331033Y-41545000D01*
X90008967Y-41545000D01*
X89693088Y-41607832D01*
X89395537Y-41731082D01*
X89127748Y-41910013D01*
X88900013Y-42137748D01*
X88721082Y-42405537D01*
X88597832Y-42703088D01*
X88535000Y-43018967D01*
X88535000Y-43341033D01*
X88597832Y-43656912D01*
X88721082Y-43954463D01*
X88900013Y-44222252D01*
X89035000Y-44357239D01*
X89035000Y-44394249D01*
X89029509Y-44450000D01*
X89035000Y-44505751D01*
X89035000Y-44505752D01*
X89043658Y-44593658D01*
X88955752Y-44585000D01*
X88955751Y-44585000D01*
X88900000Y-44579509D01*
X88844249Y-44585000D01*
X86415743Y-44585000D01*
X86359999Y-44579510D01*
X86304255Y-44585000D01*
X86304248Y-44585000D01*
X86158493Y-44599356D01*
X86137500Y-44601423D01*
X86105821Y-44611033D01*
X85923553Y-44666324D01*
X85726377Y-44771716D01*
X85553551Y-44913551D01*
X85518008Y-44956860D01*
X84326860Y-46148009D01*
X84283552Y-46183551D01*
X84141717Y-46356377D01*
X84036324Y-46553553D01*
X84013291Y-46629483D01*
X83965518Y-46634188D01*
X83845820Y-46670498D01*
X83735506Y-46729463D01*
X83638815Y-46808815D01*
X83559463Y-46905506D01*
X83500498Y-47015820D01*
X83464188Y-47135518D01*
X83451928Y-47260000D01*
X83451928Y-49260000D01*
X83464188Y-49384482D01*
X83500498Y-49504180D01*
X83559463Y-49614494D01*
X83638815Y-49711185D01*
X83735506Y-49790537D01*
X83845820Y-49849502D01*
X83965518Y-49885812D01*
X84090000Y-49898072D01*
X86090000Y-49898072D01*
X86214482Y-49885812D01*
X86334180Y-49849502D01*
X86444494Y-49790537D01*
X86541185Y-49711185D01*
X86620537Y-49614494D01*
X86675976Y-49510777D01*
X86729956Y-49659814D01*
X87019571Y-49800704D01*
X87331108Y-49882384D01*
X87652595Y-49901718D01*
X87971675Y-49857961D01*
X88276088Y-49752795D01*
X88450044Y-49659814D01*
X88545808Y-49395413D01*
X87590000Y-48439605D01*
X87575858Y-48453748D01*
X87396253Y-48274143D01*
X87410395Y-48260000D01*
X87396253Y-48245858D01*
X87575858Y-48066253D01*
X87590000Y-48080395D01*
X87604143Y-48066253D01*
X87783748Y-48245858D01*
X87769605Y-48260000D01*
X88725413Y-49215808D01*
X88989814Y-49120044D01*
X89130704Y-48830429D01*
X89212384Y-48518892D01*
X89231718Y-48197405D01*
X89187961Y-47878325D01*
X89082795Y-47573912D01*
X89007026Y-47432157D01*
X91868013Y-50293146D01*
X91903551Y-50336449D01*
X91946854Y-50371987D01*
X91946856Y-50371989D01*
X92076377Y-50478284D01*
X92273553Y-50583676D01*
X92487501Y-50648577D01*
X92710000Y-50670491D01*
X92765752Y-50665000D01*
X101544249Y-50665000D01*
X101600000Y-50670491D01*
X101655751Y-50665000D01*
X101655752Y-50665000D01*
X101822499Y-50648577D01*
X102036447Y-50583676D01*
X102233623Y-50478284D01*
X102406449Y-50336449D01*
X102441996Y-50293135D01*
X103633140Y-49101992D01*
X103676449Y-49066449D01*
X103818284Y-48893623D01*
X103923676Y-48696447D01*
X103988577Y-48482499D01*
X104005000Y-48315752D01*
X104005000Y-48315745D01*
X104007568Y-48289671D01*
X104139987Y-48157252D01*
X104318918Y-47889463D01*
X104442168Y-47591912D01*
X104505000Y-47276033D01*
X104505000Y-46953967D01*
X104442168Y-46638088D01*
X104318918Y-46340537D01*
X104139987Y-46072748D01*
X103912252Y-45845013D01*
X103644463Y-45666082D01*
X103346912Y-45542832D01*
X103031033Y-45480000D01*
X102708967Y-45480000D01*
X102393088Y-45542832D01*
X102095537Y-45666082D01*
X101827748Y-45845013D01*
X101600013Y-46072748D01*
X101600000Y-46072767D01*
X101599987Y-46072748D01*
X101372252Y-45845013D01*
X101104463Y-45666082D01*
X100806912Y-45542832D01*
X100491033Y-45480000D01*
X100168967Y-45480000D01*
X99853088Y-45542832D01*
X99555537Y-45666082D01*
X99287748Y-45845013D01*
X99152761Y-45980000D01*
X98967239Y-45980000D01*
X98925000Y-45937761D01*
X98925000Y-45775751D01*
X98930491Y-45720000D01*
X98908577Y-45497501D01*
X98843676Y-45283553D01*
X98738284Y-45086377D01*
X98736023Y-45083622D01*
X98596449Y-44913551D01*
X98553141Y-44878009D01*
X94055545Y-40380413D01*
X94294192Y-40380413D01*
X94389956Y-40644814D01*
X94679571Y-40785704D01*
X94991108Y-40867384D01*
X95312595Y-40886718D01*
X95631675Y-40842961D01*
X95936088Y-40737795D01*
X96110044Y-40644814D01*
X96205808Y-40380413D01*
X95250000Y-39424605D01*
X94294192Y-40380413D01*
X94055545Y-40380413D01*
X93845000Y-40169869D01*
X93845000Y-40095342D01*
X93850186Y-40105044D01*
X94114587Y-40200808D01*
X95070395Y-39245000D01*
X94114587Y-38289192D01*
X93850186Y-38384956D01*
X93845000Y-38395616D01*
X93845000Y-35878231D01*
X93950131Y-35773100D01*
X94141033Y-35773100D01*
X94456912Y-35710268D01*
X94754463Y-35587018D01*
X95022252Y-35408087D01*
X95249987Y-35180352D01*
X95385000Y-34978290D01*
X95385000Y-36774248D01*
X95379509Y-36830000D01*
X95394423Y-36981423D01*
X95401423Y-37052498D01*
X95466324Y-37266446D01*
X95571716Y-37463623D01*
X95713551Y-37636449D01*
X95756865Y-37671996D01*
X95778055Y-37693186D01*
X95508892Y-37622616D01*
X95187405Y-37603282D01*
X94868325Y-37647039D01*
X94563912Y-37752205D01*
X94389956Y-37845186D01*
X94294192Y-38109587D01*
X95250000Y-39065395D01*
X95264143Y-39051253D01*
X95443748Y-39230858D01*
X95429605Y-39245000D01*
X96385413Y-40200808D01*
X96447280Y-40178400D01*
X96520013Y-40287252D01*
X96747748Y-40514987D01*
X97015537Y-40693918D01*
X97313088Y-40817168D01*
X97628967Y-40880000D01*
X97951033Y-40880000D01*
X98266912Y-40817168D01*
X98564463Y-40693918D01*
X98832252Y-40514987D01*
X99059987Y-40287252D01*
X99060000Y-40287233D01*
X99060013Y-40287252D01*
X99287748Y-40514987D01*
X99555537Y-40693918D01*
X99853088Y-40817168D01*
X100168967Y-40880000D01*
X100491033Y-40880000D01*
X100806912Y-40817168D01*
X101104463Y-40693918D01*
X101372252Y-40514987D01*
X101599987Y-40287252D01*
X101600000Y-40287233D01*
X101600013Y-40287252D01*
X101827748Y-40514987D01*
X102095537Y-40693918D01*
X102393088Y-40817168D01*
X102708967Y-40880000D01*
X103031033Y-40880000D01*
X103346912Y-40817168D01*
X103644463Y-40693918D01*
X103912252Y-40514987D01*
X104047239Y-40380000D01*
X104209249Y-40380000D01*
X104265000Y-40385491D01*
X104320751Y-40380000D01*
X104320752Y-40380000D01*
X104487499Y-40363577D01*
X104701447Y-40298676D01*
X104898623Y-40193284D01*
X105071449Y-40051449D01*
X105106995Y-40008136D01*
X106173146Y-38941987D01*
X106216449Y-38906449D01*
X106296791Y-38808553D01*
X106358284Y-38733623D01*
X106463676Y-38536447D01*
X106528577Y-38322499D01*
X106550491Y-38100000D01*
X106545000Y-38044248D01*
X106545000Y-37085858D01*
X106566677Y-37014399D01*
X106583100Y-36847652D01*
X106583100Y-36847651D01*
X106588591Y-36791900D01*
X106583100Y-36736148D01*
X106583100Y-26573100D01*
X107468001Y-26573100D01*
X107602988Y-26708087D01*
X107603007Y-26708100D01*
X107602988Y-26708113D01*
X107375253Y-26935848D01*
X107196322Y-27203637D01*
X107073072Y-27501188D01*
X107010240Y-27817067D01*
X107010240Y-28139133D01*
X107073072Y-28455012D01*
X107196322Y-28752563D01*
X107375253Y-29020352D01*
X107602988Y-29248087D01*
X107603007Y-29248100D01*
X107602988Y-29248113D01*
X107375253Y-29475848D01*
X107196322Y-29743637D01*
X107073072Y-30041188D01*
X107010240Y-30357067D01*
X107010240Y-30679133D01*
X107073072Y-30995012D01*
X107196322Y-31292563D01*
X107375253Y-31560352D01*
X107602988Y-31788087D01*
X107603007Y-31788100D01*
X107602988Y-31788113D01*
X107375253Y-32015848D01*
X107196322Y-32283637D01*
X107073072Y-32581188D01*
X107010240Y-32897067D01*
X107010240Y-33219133D01*
X107073072Y-33535012D01*
X107196322Y-33832563D01*
X107375253Y-34100352D01*
X107602988Y-34328087D01*
X107603007Y-34328100D01*
X107602988Y-34328113D01*
X107375253Y-34555848D01*
X107196322Y-34823637D01*
X107073072Y-35121188D01*
X107010240Y-35437067D01*
X107010240Y-35759133D01*
X107073072Y-36075012D01*
X107196322Y-36372563D01*
X107375253Y-36640352D01*
X107602988Y-36868087D01*
X107603007Y-36868100D01*
X107602988Y-36868113D01*
X107375253Y-37095848D01*
X107196322Y-37363637D01*
X107073072Y-37661188D01*
X107010240Y-37977067D01*
X107010240Y-38299133D01*
X107073072Y-38615012D01*
X107196322Y-38912563D01*
X107375253Y-39180352D01*
X107602988Y-39408087D01*
X107603007Y-39408100D01*
X107602988Y-39408113D01*
X107375253Y-39635848D01*
X107196322Y-39903637D01*
X107073072Y-40201188D01*
X107010240Y-40517067D01*
X107010240Y-40839133D01*
X107073072Y-41155012D01*
X107196322Y-41452563D01*
X107375253Y-41720352D01*
X107602988Y-41948087D01*
X107603007Y-41948100D01*
X107602988Y-41948113D01*
X107375253Y-42175848D01*
X107196322Y-42443637D01*
X107073072Y-42741188D01*
X107010240Y-43057067D01*
X107010240Y-43379133D01*
X107073072Y-43695012D01*
X107196322Y-43992563D01*
X107375253Y-44260352D01*
X107602988Y-44488087D01*
X107603007Y-44488100D01*
X107602988Y-44488113D01*
X107375253Y-44715848D01*
X107196322Y-44983637D01*
X107073072Y-45281188D01*
X107010240Y-45597067D01*
X107010240Y-45919133D01*
X107073072Y-46235012D01*
X107196322Y-46532563D01*
X107336870Y-46742909D01*
X107290746Y-46767563D01*
X107194055Y-46846915D01*
X107114703Y-46943606D01*
X107055738Y-47053920D01*
X107019428Y-47173618D01*
X107007168Y-47298100D01*
X107007168Y-49298100D01*
X107019428Y-49422582D01*
X107055738Y-49542280D01*
X107114703Y-49652594D01*
X107194055Y-49749285D01*
X107290746Y-49828637D01*
X107401060Y-49887602D01*
X107520758Y-49923912D01*
X107645240Y-49936172D01*
X109645240Y-49936172D01*
X109769722Y-49923912D01*
X109889420Y-49887602D01*
X109999734Y-49828637D01*
X110096425Y-49749285D01*
X110175777Y-49652594D01*
X110234742Y-49542280D01*
X110271052Y-49422582D01*
X110283312Y-49298100D01*
X110283312Y-47298100D01*
X110271052Y-47173618D01*
X110234742Y-47053920D01*
X110175777Y-46943606D01*
X110096425Y-46846915D01*
X109999734Y-46767563D01*
X109953610Y-46742909D01*
X110094158Y-46532563D01*
X110217408Y-46235012D01*
X110280240Y-45919133D01*
X110280240Y-45597067D01*
X110217408Y-45281188D01*
X110094158Y-44983637D01*
X109915227Y-44715848D01*
X109687492Y-44488113D01*
X109687473Y-44488100D01*
X109687492Y-44488087D01*
X109915227Y-44260352D01*
X110094158Y-43992563D01*
X110217408Y-43695012D01*
X110280240Y-43379133D01*
X110280240Y-43057067D01*
X110217408Y-42741188D01*
X110094158Y-42443637D01*
X109915227Y-42175848D01*
X109687492Y-41948113D01*
X109687473Y-41948100D01*
X109687492Y-41948087D01*
X109915227Y-41720352D01*
X110094158Y-41452563D01*
X110217408Y-41155012D01*
X110280240Y-40839133D01*
X110280240Y-40517067D01*
X110217408Y-40201188D01*
X110094158Y-39903637D01*
X109915227Y-39635848D01*
X109687492Y-39408113D01*
X109687473Y-39408100D01*
X109687492Y-39408087D01*
X109915227Y-39180352D01*
X110094158Y-38912563D01*
X110217408Y-38615012D01*
X110280240Y-38299133D01*
X110280240Y-37977067D01*
X110217408Y-37661188D01*
X110094158Y-37363637D01*
X109915227Y-37095848D01*
X109687492Y-36868113D01*
X109687473Y-36868100D01*
X109687492Y-36868087D01*
X109915227Y-36640352D01*
X110094158Y-36372563D01*
X110217408Y-36075012D01*
X110280240Y-35759133D01*
X110280240Y-35437067D01*
X110217408Y-35121188D01*
X110094158Y-34823637D01*
X109915227Y-34555848D01*
X109687492Y-34328113D01*
X109687473Y-34328100D01*
X109687492Y-34328087D01*
X109915227Y-34100352D01*
X110094158Y-33832563D01*
X110217408Y-33535012D01*
X110280240Y-33219133D01*
X110280240Y-32897067D01*
X110217408Y-32581188D01*
X110094158Y-32283637D01*
X109915227Y-32015848D01*
X109687492Y-31788113D01*
X109687473Y-31788100D01*
X109687492Y-31788087D01*
X109915227Y-31560352D01*
X110094158Y-31292563D01*
X110217408Y-30995012D01*
X110280240Y-30679133D01*
X110280240Y-30357067D01*
X110217408Y-30041188D01*
X110094158Y-29743637D01*
X109915227Y-29475848D01*
X109687492Y-29248113D01*
X109687473Y-29248100D01*
X109687492Y-29248087D01*
X109915227Y-29020352D01*
X110094158Y-28752563D01*
X110217408Y-28455012D01*
X110280240Y-28139133D01*
X110280240Y-27817067D01*
X110217408Y-27501188D01*
X110094158Y-27203637D01*
X109915227Y-26935848D01*
X109687492Y-26708113D01*
X109687473Y-26708100D01*
X109687492Y-26708087D01*
X109915227Y-26480352D01*
X110094158Y-26212563D01*
X110217408Y-25915012D01*
X110280240Y-25599133D01*
X110280240Y-25277067D01*
X110217408Y-24961188D01*
X110094158Y-24663637D01*
X109915227Y-24395848D01*
X109687492Y-24168113D01*
X109419703Y-23989182D01*
X109122152Y-23865932D01*
X108806273Y-23803100D01*
X108484207Y-23803100D01*
X108168328Y-23865932D01*
X107870777Y-23989182D01*
X107602988Y-24168113D01*
X107468001Y-24303100D01*
X105918231Y-24303100D01*
X105550096Y-23934965D01*
X105514549Y-23891651D01*
X105341723Y-23749816D01*
X105144547Y-23644424D01*
X104930599Y-23579523D01*
X104763852Y-23563100D01*
X104763851Y-23563100D01*
X104708100Y-23557609D01*
X104652349Y-23563100D01*
X104047239Y-23563100D01*
X103912252Y-23428113D01*
X103644463Y-23249182D01*
X103346912Y-23125932D01*
X103031033Y-23063100D01*
X102708967Y-23063100D01*
X102393088Y-23125932D01*
X102095537Y-23249182D01*
X101827748Y-23428113D01*
X101600013Y-23655848D01*
X101421082Y-23923637D01*
X101297832Y-24221188D01*
X101235000Y-24537067D01*
X101235000Y-24859133D01*
X101297832Y-25175012D01*
X101421082Y-25472563D01*
X101600013Y-25740352D01*
X101827748Y-25968087D01*
X102095537Y-26147018D01*
X102393088Y-26270268D01*
X102708967Y-26333100D01*
X103031033Y-26333100D01*
X103346912Y-26270268D01*
X103644463Y-26147018D01*
X103912252Y-25968087D01*
X104047239Y-25833100D01*
X104237969Y-25833100D01*
X104313100Y-25908231D01*
X104313101Y-34074931D01*
X104139987Y-33815848D01*
X103912252Y-33588113D01*
X103644463Y-33409182D01*
X103346912Y-33285932D01*
X103031033Y-33223100D01*
X102708967Y-33223100D01*
X102393088Y-33285932D01*
X102095537Y-33409182D01*
X101827748Y-33588113D01*
X101600013Y-33815848D01*
X101421082Y-34083637D01*
X101297832Y-34381188D01*
X101235000Y-34697067D01*
X101235000Y-35019133D01*
X101297832Y-35335012D01*
X101421082Y-35632563D01*
X101600013Y-35900352D01*
X101827748Y-36128087D01*
X102095537Y-36307018D01*
X102393088Y-36430268D01*
X102708967Y-36493100D01*
X103031033Y-36493100D01*
X103346912Y-36430268D01*
X103644463Y-36307018D01*
X103912252Y-36128087D01*
X104139987Y-35900352D01*
X104313101Y-35641269D01*
X104313101Y-36536040D01*
X104291423Y-36607502D01*
X104269509Y-36830000D01*
X104275000Y-36885751D01*
X104275000Y-37629868D01*
X103921054Y-37983815D01*
X103912252Y-37975013D01*
X103644463Y-37796082D01*
X103346912Y-37672832D01*
X103031033Y-37610000D01*
X102708967Y-37610000D01*
X102393088Y-37672832D01*
X102095537Y-37796082D01*
X101827748Y-37975013D01*
X101600013Y-38202748D01*
X101600000Y-38202767D01*
X101599987Y-38202748D01*
X101467568Y-38070329D01*
X101465000Y-38044255D01*
X101465000Y-38044248D01*
X101448577Y-37877501D01*
X101448488Y-37877205D01*
X101424409Y-37797832D01*
X101383676Y-37663553D01*
X101278284Y-37466377D01*
X101136449Y-37293551D01*
X101093140Y-37258008D01*
X100195000Y-36359869D01*
X100195000Y-36035339D01*
X100329987Y-35900352D01*
X100508918Y-35632563D01*
X100632168Y-35335012D01*
X100695000Y-35019133D01*
X100695000Y-34697067D01*
X100632168Y-34381188D01*
X100508918Y-34083637D01*
X100329987Y-33815848D01*
X100102252Y-33588113D01*
X99834463Y-33409182D01*
X99536912Y-33285932D01*
X99221033Y-33223100D01*
X98898967Y-33223100D01*
X98583088Y-33285932D01*
X98285537Y-33409182D01*
X98017748Y-33588113D01*
X97790013Y-33815848D01*
X97655000Y-34017909D01*
X97655000Y-33075741D01*
X97660490Y-33019999D01*
X97655000Y-32964257D01*
X97655000Y-32964248D01*
X97638577Y-32797501D01*
X97573676Y-32583553D01*
X97468284Y-32386377D01*
X97326449Y-32213551D01*
X97283140Y-32178008D01*
X95940096Y-30834965D01*
X95904549Y-30791651D01*
X95731723Y-30649816D01*
X95534547Y-30544424D01*
X95320599Y-30479523D01*
X95157609Y-30463470D01*
X95022252Y-30328113D01*
X95022233Y-30328100D01*
X95022252Y-30328087D01*
X95249987Y-30100352D01*
X95428918Y-29832563D01*
X95552168Y-29535012D01*
X95615000Y-29219133D01*
X95615000Y-28897067D01*
X95552168Y-28581188D01*
X95428918Y-28283637D01*
X95249987Y-28015848D01*
X95022252Y-27788113D01*
X94754463Y-27609182D01*
X94456912Y-27485932D01*
X94141033Y-27423100D01*
X93818967Y-27423100D01*
X93503088Y-27485932D01*
X93205537Y-27609182D01*
X92937748Y-27788113D01*
X92802391Y-27923470D01*
X92639401Y-27939523D01*
X92425453Y-28004424D01*
X92228277Y-28109816D01*
X92055451Y-28251651D01*
X92019908Y-28294960D01*
X90676865Y-29638004D01*
X90633551Y-29673551D01*
X90491716Y-29846377D01*
X90444132Y-29935402D01*
X90348918Y-29705537D01*
X90169987Y-29437748D01*
X89942252Y-29210013D01*
X89674463Y-29031082D01*
X89376912Y-28907832D01*
X89061033Y-28845000D01*
X88738967Y-28845000D01*
X88423088Y-28907832D01*
X88125537Y-29031082D01*
X87857748Y-29210013D01*
X87650000Y-29417761D01*
X87535000Y-29302761D01*
X87535000Y-28035752D01*
X87540491Y-27980000D01*
X87518577Y-27757502D01*
X87508316Y-27723676D01*
X87453676Y-27543553D01*
X87368000Y-27383263D01*
X87368000Y-26625339D01*
X87409826Y-26583513D01*
X87817192Y-26583513D01*
X87912956Y-26847914D01*
X88202571Y-26988804D01*
X88514108Y-27070484D01*
X88835595Y-27089818D01*
X89154675Y-27046061D01*
X89459088Y-26940895D01*
X89633044Y-26847914D01*
X89728808Y-26583513D01*
X88773000Y-25627705D01*
X87817192Y-26583513D01*
X87409826Y-26583513D01*
X87502987Y-26490352D01*
X87575720Y-26381500D01*
X87637587Y-26403908D01*
X88593395Y-25448100D01*
X88952605Y-25448100D01*
X89908413Y-26403908D01*
X90172814Y-26308144D01*
X90313704Y-26018529D01*
X90395384Y-25706992D01*
X90414718Y-25385505D01*
X90370961Y-25066425D01*
X90265795Y-24762012D01*
X90172814Y-24588056D01*
X90032036Y-24537067D01*
X97425000Y-24537067D01*
X97425000Y-24859133D01*
X97487832Y-25175012D01*
X97611082Y-25472563D01*
X97790013Y-25740352D01*
X98017748Y-25968087D01*
X98285537Y-26147018D01*
X98583088Y-26270268D01*
X98898967Y-26333100D01*
X99221033Y-26333100D01*
X99536912Y-26270268D01*
X99834463Y-26147018D01*
X100102252Y-25968087D01*
X100329987Y-25740352D01*
X100508918Y-25472563D01*
X100632168Y-25175012D01*
X100695000Y-24859133D01*
X100695000Y-24537067D01*
X100632168Y-24221188D01*
X100508918Y-23923637D01*
X100329987Y-23655848D01*
X100102252Y-23428113D01*
X99834463Y-23249182D01*
X99536912Y-23125932D01*
X99221033Y-23063100D01*
X98898967Y-23063100D01*
X98583088Y-23125932D01*
X98285537Y-23249182D01*
X98017748Y-23428113D01*
X97790013Y-23655848D01*
X97611082Y-23923637D01*
X97487832Y-24221188D01*
X97425000Y-24537067D01*
X90032036Y-24537067D01*
X89908413Y-24492292D01*
X88952605Y-25448100D01*
X88593395Y-25448100D01*
X87637587Y-24492292D01*
X87575720Y-24514700D01*
X87502987Y-24405848D01*
X87409826Y-24312687D01*
X87817192Y-24312687D01*
X88773000Y-25268495D01*
X89728808Y-24312687D01*
X89633044Y-24048286D01*
X89343429Y-23907396D01*
X89031892Y-23825716D01*
X88710405Y-23806382D01*
X88391325Y-23850139D01*
X88086912Y-23955305D01*
X87912956Y-24048286D01*
X87817192Y-24312687D01*
X87409826Y-24312687D01*
X87275252Y-24178113D01*
X87007463Y-23999182D01*
X86709912Y-23875932D01*
X86394033Y-23813100D01*
X86071967Y-23813100D01*
X85756088Y-23875932D01*
X85458537Y-23999182D01*
X85190748Y-24178113D01*
X84963013Y-24405848D01*
X84963000Y-24405867D01*
X84962987Y-24405848D01*
X84735252Y-24178113D01*
X84467463Y-23999182D01*
X84169912Y-23875932D01*
X83854033Y-23813100D01*
X83531967Y-23813100D01*
X83216088Y-23875932D01*
X82918537Y-23999182D01*
X82650748Y-24178113D01*
X82423013Y-24405848D01*
X82244082Y-24673637D01*
X82120832Y-24971188D01*
X82058000Y-25287067D01*
X82058000Y-25609133D01*
X82120832Y-25925012D01*
X82244082Y-26222563D01*
X82423013Y-26490352D01*
X82610661Y-26678000D01*
X79083132Y-26678000D01*
X78802270Y-26397139D01*
X78918918Y-26222563D01*
X79042168Y-25925012D01*
X79105000Y-25609133D01*
X79105000Y-25287067D01*
X79042168Y-24971188D01*
X78918918Y-24673637D01*
X78739987Y-24405848D01*
X78512252Y-24178113D01*
X78244463Y-23999182D01*
X77946912Y-23875932D01*
X77631033Y-23813100D01*
X77308967Y-23813100D01*
X76993088Y-23875932D01*
X76695537Y-23999182D01*
X76427748Y-24178113D01*
X76200013Y-24405848D01*
X76127280Y-24514700D01*
X76065413Y-24492292D01*
X75109605Y-25448100D01*
X76065413Y-26403908D01*
X76127280Y-26381500D01*
X76200013Y-26490352D01*
X76334006Y-26624345D01*
X76329509Y-26670000D01*
X76335000Y-26725751D01*
X76335000Y-26725752D01*
X76351423Y-26892499D01*
X76416324Y-27106447D01*
X76521717Y-27303623D01*
X76663552Y-27476449D01*
X76706860Y-27511991D01*
X77771008Y-28576140D01*
X77806551Y-28619449D01*
X77979377Y-28761284D01*
X78176553Y-28866676D01*
X78390501Y-28931577D01*
X78612999Y-28953491D01*
X78655870Y-28949269D01*
X78655506Y-28949463D01*
X78558815Y-29028815D01*
X78479463Y-29125506D01*
X78420498Y-29235820D01*
X78384188Y-29355518D01*
X78371928Y-29480000D01*
X78375000Y-30194250D01*
X78533750Y-30353000D01*
X79883000Y-30353000D01*
X79883000Y-30333000D01*
X80137000Y-30333000D01*
X80137000Y-30353000D01*
X81486250Y-30353000D01*
X81645000Y-30194250D01*
X81648072Y-29480000D01*
X81635812Y-29355518D01*
X81599502Y-29235820D01*
X81540537Y-29125506D01*
X81461185Y-29028815D01*
X81364494Y-28949463D01*
X81361757Y-28948000D01*
X85265000Y-28948000D01*
X85265001Y-29302760D01*
X85130013Y-29437748D01*
X84951082Y-29705537D01*
X84827832Y-30003088D01*
X84765000Y-30318967D01*
X84765000Y-30641033D01*
X84827832Y-30956912D01*
X84951082Y-31254463D01*
X85130013Y-31522252D01*
X85357748Y-31749987D01*
X85559809Y-31885000D01*
X81499088Y-31885000D01*
X81540537Y-31834494D01*
X81599502Y-31724180D01*
X81635812Y-31604482D01*
X81648072Y-31480000D01*
X81645000Y-30765750D01*
X81486250Y-30607000D01*
X80137000Y-30607000D01*
X80137000Y-30627000D01*
X79883000Y-30627000D01*
X79883000Y-30607000D01*
X78533750Y-30607000D01*
X78375000Y-30765750D01*
X78371928Y-31480000D01*
X78384188Y-31604482D01*
X78420498Y-31724180D01*
X78479463Y-31834494D01*
X78520912Y-31885000D01*
X71175743Y-31885000D01*
X71119999Y-31879510D01*
X71064255Y-31885000D01*
X71064248Y-31885000D01*
X70918493Y-31899356D01*
X70897500Y-31901423D01*
X70847705Y-31916529D01*
X70683553Y-31966324D01*
X70486377Y-32071716D01*
X70313551Y-32213551D01*
X70278011Y-32256857D01*
X69879868Y-32655000D01*
X69688967Y-32655000D01*
X69373088Y-32717832D01*
X69075537Y-32841082D01*
X68807748Y-33020013D01*
X68580013Y-33247748D01*
X68401082Y-33515537D01*
X68277832Y-33813088D01*
X68215000Y-34128967D01*
X66001200Y-34128967D01*
X66001200Y-27140132D01*
X66558232Y-26583100D01*
X71212761Y-26583100D01*
X71347748Y-26718087D01*
X71615537Y-26897018D01*
X71913088Y-27020268D01*
X72228967Y-27083100D01*
X72551033Y-27083100D01*
X72866912Y-27020268D01*
X73164463Y-26897018D01*
X73432252Y-26718087D01*
X73566826Y-26583513D01*
X73974192Y-26583513D01*
X74069956Y-26847914D01*
X74359571Y-26988804D01*
X74671108Y-27070484D01*
X74992595Y-27089818D01*
X75311675Y-27046061D01*
X75616088Y-26940895D01*
X75790044Y-26847914D01*
X75885808Y-26583513D01*
X74930000Y-25627705D01*
X73974192Y-26583513D01*
X73566826Y-26583513D01*
X73659987Y-26490352D01*
X73732720Y-26381500D01*
X73794587Y-26403908D01*
X74750395Y-25448100D01*
X73794587Y-24492292D01*
X73732720Y-24514700D01*
X73659987Y-24405848D01*
X73566826Y-24312687D01*
X73974192Y-24312687D01*
X74930000Y-25268495D01*
X75885808Y-24312687D01*
X75790044Y-24048286D01*
X75500429Y-23907396D01*
X75188892Y-23825716D01*
X74867405Y-23806382D01*
X74548325Y-23850139D01*
X74243912Y-23955305D01*
X74069956Y-24048286D01*
X73974192Y-24312687D01*
X73566826Y-24312687D01*
X73432252Y-24178113D01*
X73164463Y-23999182D01*
X72866912Y-23875932D01*
X72551033Y-23813100D01*
X72228967Y-23813100D01*
X71913088Y-23875932D01*
X71615537Y-23999182D01*
X71347748Y-24178113D01*
X71212761Y-24313100D01*
X66143852Y-24313100D01*
X66088100Y-24307609D01*
X66032348Y-24313100D01*
X65865601Y-24329523D01*
X65651653Y-24394424D01*
X65454477Y-24499816D01*
X65324956Y-24606111D01*
X65324954Y-24606113D01*
X65281651Y-24641651D01*
X65246113Y-24684954D01*
X64103064Y-25828005D01*
X64059751Y-25863551D01*
X63917916Y-26036377D01*
X63827012Y-26206449D01*
X63812524Y-26233554D01*
X63747623Y-26447502D01*
X63725709Y-26670000D01*
X63731200Y-26725752D01*
X63731200Y-27303064D01*
X63694158Y-27213637D01*
X63515227Y-26945848D01*
X63287492Y-26718113D01*
X63287473Y-26718100D01*
X63287492Y-26718087D01*
X63515227Y-26490352D01*
X63694158Y-26222563D01*
X63817408Y-25925012D01*
X63880240Y-25609133D01*
X63880240Y-25287067D01*
X63817408Y-24971188D01*
X63694158Y-24673637D01*
X63515227Y-24405848D01*
X63287492Y-24178113D01*
X63019703Y-23999182D01*
X62722152Y-23875932D01*
X62406273Y-23813100D01*
X62084207Y-23813100D01*
X61768328Y-23875932D01*
X61470777Y-23999182D01*
X61202988Y-24178113D01*
X60975253Y-24405848D01*
X60796322Y-24673637D01*
X60673072Y-24971188D01*
X60610240Y-25287067D01*
X60610240Y-25609133D01*
X60673072Y-25925012D01*
X60796322Y-26222563D01*
X60975253Y-26490352D01*
X61202988Y-26718087D01*
X61203007Y-26718100D01*
X61202988Y-26718113D01*
X60975253Y-26945848D01*
X60796322Y-27213637D01*
X60673072Y-27511188D01*
X60610240Y-27827067D01*
X60610240Y-28149133D01*
X60673072Y-28465012D01*
X60796322Y-28762563D01*
X60975253Y-29030352D01*
X61202988Y-29258087D01*
X61203007Y-29258100D01*
X61202988Y-29258113D01*
X60975253Y-29485848D01*
X60796322Y-29753637D01*
X60673072Y-30051188D01*
X60610240Y-30367067D01*
X60610240Y-30689133D01*
X60673072Y-31005012D01*
X60796322Y-31302563D01*
X60975253Y-31570352D01*
X61202988Y-31798087D01*
X61203007Y-31798100D01*
X61202988Y-31798113D01*
X60975253Y-32025848D01*
X60796322Y-32293637D01*
X60673072Y-32591188D01*
X60610240Y-32907067D01*
X60610240Y-33229133D01*
X60673072Y-33545012D01*
X60796322Y-33842563D01*
X60975253Y-34110352D01*
X61202988Y-34338087D01*
X61203007Y-34338100D01*
X61202988Y-34338113D01*
X60975253Y-34565848D01*
X60796322Y-34833637D01*
X60673072Y-35131188D01*
X60610240Y-35447067D01*
X60610240Y-35769133D01*
X60673072Y-36085012D01*
X60796322Y-36382563D01*
X60975253Y-36650352D01*
X61202988Y-36878087D01*
X61203007Y-36878100D01*
X61202988Y-36878113D01*
X61068001Y-37013100D01*
X60208232Y-37013100D01*
X58463004Y-35267873D01*
X58598918Y-35064463D01*
X58722168Y-34766912D01*
X58785000Y-34451033D01*
X58785000Y-34128967D01*
X58722168Y-33813088D01*
X58598918Y-33515537D01*
X58419987Y-33247748D01*
X58192252Y-33020013D01*
X57924463Y-32841082D01*
X57626912Y-32717832D01*
X57311033Y-32655000D01*
X56988967Y-32655000D01*
X56673088Y-32717832D01*
X56375537Y-32841082D01*
X56107748Y-33020013D01*
X55972761Y-33155000D01*
X54665741Y-33155000D01*
X54609999Y-33149510D01*
X54554257Y-33155000D01*
X54554248Y-33155000D01*
X54387501Y-33171423D01*
X54173553Y-33236324D01*
X53976377Y-33341716D01*
X53803551Y-33483551D01*
X53768011Y-33526857D01*
X51935000Y-35359869D01*
X51935000Y-34760131D01*
X55080133Y-31615000D01*
X55831339Y-31615000D01*
X56044002Y-31827663D01*
X56328169Y-32017537D01*
X56643919Y-32148325D01*
X56979117Y-32215000D01*
X57320883Y-32215000D01*
X57656081Y-32148325D01*
X57971831Y-32017537D01*
X58255998Y-31827663D01*
X58497663Y-31585998D01*
X58687537Y-31301831D01*
X58818325Y-30986081D01*
X58885000Y-30650883D01*
X58885000Y-30309117D01*
X58818325Y-29973919D01*
X58687537Y-29658169D01*
X58497663Y-29374002D01*
X58285000Y-29161339D01*
X58285000Y-26577239D01*
X58419987Y-26442252D01*
X58598918Y-26174463D01*
X58722168Y-25876912D01*
X58785000Y-25561033D01*
X58785000Y-25238967D01*
X58722168Y-24923088D01*
X58598918Y-24625537D01*
X58419987Y-24357748D01*
X58192252Y-24130013D01*
X57924463Y-23951082D01*
X57626912Y-23827832D01*
X57311033Y-23765000D01*
X56988967Y-23765000D01*
X56673088Y-23827832D01*
X56375537Y-23951082D01*
X56107748Y-24130013D01*
X55880013Y-24357748D01*
X55880000Y-24357767D01*
X55879987Y-24357748D01*
X55652252Y-24130013D01*
X55384463Y-23951082D01*
X55086912Y-23827832D01*
X54771033Y-23765000D01*
X54448967Y-23765000D01*
X54133088Y-23827832D01*
X53835537Y-23951082D01*
X53567748Y-24130013D01*
X53432761Y-24265000D01*
X50855752Y-24265000D01*
X50800000Y-24259509D01*
X50577501Y-24281423D01*
X50363553Y-24346324D01*
X50166377Y-24451716D01*
X50036856Y-24558011D01*
X50036854Y-24558013D01*
X49993551Y-24593551D01*
X49958013Y-24636854D01*
X46226865Y-28368004D01*
X46183551Y-28403551D01*
X46041716Y-28576377D01*
X45953228Y-28741928D01*
X45890000Y-28741928D01*
X45765518Y-28754188D01*
X45645820Y-28790498D01*
X45535506Y-28849463D01*
X45438815Y-28928815D01*
X45359463Y-29025506D01*
X45300498Y-29135820D01*
X45264188Y-29255518D01*
X45251928Y-29380000D01*
X44577000Y-29380000D01*
X44577000Y-22908260D01*
X111137700Y-22908260D01*
X111137700Y-50998120D01*
G37*
%TD.AperFunction*%
%TD*%
M02*
