M48
; DRILL file {KiCad (5.1.7)-1} date 12/21/20 03:00:35
; FORMAT={-:-/ absolute / inch / decimal}
; #@! TF.CreationDate,2020-12-21T03:00:35+00:00
; #@! TF.GenerationSoftware,Kicad,Pcbnew,(5.1.7)-1
; #@! TF.FileFunction,Plated,1,2,PTH
FMAT,2
INCH
T1C0.0157
T2C0.0315
T3C0.0394
%
G90
G05
T1
X3.3102Y-1.1508
X3.4406Y-1.1374
T2
X3.3102Y-1.6526
X3.4086Y-1.6526
X4.2774Y-1.0015
X4.2774Y-1.1015
X4.2774Y-1.2015
X4.2774Y-1.3015
X4.2774Y-1.4015
X4.2774Y-1.5015
X4.2774Y-1.6015
X4.2774Y-1.7015
X4.2774Y-1.8015
X2.9662Y-1.1012
X2.9662Y-1.5012
X2.7389Y-0.9999
X2.7389Y-1.0999
X3.8379Y-1.0096
X3.8379Y-1.4096
X3.1743Y-1.3058
X3.5743Y-1.3058
X3.4104Y-1.8319
X2.8179Y-1.9085
X2.9179Y-1.9085
X3.6738Y-1.5982
X3.6738Y-1.908
X3.7738Y-1.5982
X3.7738Y-1.908
X3.8738Y-1.5982
X3.8738Y-1.908
X3.9738Y-1.908
X3.395Y-0.9941
X3.495Y-0.9941
X3.1743Y-1.4286
X3.5743Y-1.4286
X3.9663Y-1.0096
X3.9663Y-1.4096
T3
X2.4506Y-1.0019
X2.4506Y-1.1019
X2.4506Y-1.2019
X2.4506Y-1.3019
X2.4506Y-1.4019
X2.4506Y-1.5019
X2.4506Y-1.6019
X2.4506Y-1.7019
X2.4506Y-1.8019
X2.4506Y-1.9019
X4.2774Y-1.9015
X2.7389Y-1.1999
X3.312Y-1.8319
X3.0179Y-1.9085
X3.9738Y-1.5982
X3.295Y-0.9941
T0
M30
