%TF.GenerationSoftware,KiCad,Pcbnew,(5.1.7)-1*%
%TF.CreationDate,2020-12-07T21:31:33+00:00*%
%TF.ProjectId,AccCirc,41636343-6972-4632-9e6b-696361645f70,rev?*%
%TF.SameCoordinates,Original*%
%TF.FileFunction,Copper,L2,Bot*%
%TF.FilePolarity,Positive*%
%FSLAX46Y46*%
G04 Gerber Fmt 4.6, Leading zero omitted, Abs format (unit mm)*
G04 Created by KiCad (PCBNEW (5.1.7)-1) date 2020-12-07 21:31:33*
%MOMM*%
%LPD*%
G01*
G04 APERTURE LIST*
%TA.AperFunction,ComponentPad*%
%ADD10O,1.700000X1.700000*%
%TD*%
%TA.AperFunction,ComponentPad*%
%ADD11R,1.700000X1.700000*%
%TD*%
%TA.AperFunction,ComponentPad*%
%ADD12C,2.000000*%
%TD*%
%TA.AperFunction,ComponentPad*%
%ADD13C,1.308000*%
%TD*%
%TA.AperFunction,ComponentPad*%
%ADD14R,1.308000X1.308000*%
%TD*%
%TA.AperFunction,ComponentPad*%
%ADD15R,1.050000X1.500000*%
%TD*%
%TA.AperFunction,ComponentPad*%
%ADD16O,1.050000X1.500000*%
%TD*%
%TA.AperFunction,ComponentPad*%
%ADD17O,1.600000X1.600000*%
%TD*%
%TA.AperFunction,ComponentPad*%
%ADD18C,1.600000*%
%TD*%
%TA.AperFunction,Conductor*%
%ADD19C,0.254000*%
%TD*%
%TA.AperFunction,Conductor*%
%ADD20C,0.100000*%
%TD*%
G04 APERTURE END LIST*
D10*
%TO.P,J4,3*%
%TO.N,VDD*%
X46863000Y-50419000D03*
%TO.P,J4,2*%
%TO.N,GND*%
X44323000Y-50419000D03*
D11*
%TO.P,J4,1*%
%TO.N,Net-(J4-Pad1)*%
X41783000Y-50419000D03*
%TD*%
D12*
%TO.P,C1,2*%
%TO.N,GND*%
X41322000Y-40767000D03*
%TO.P,C1,1*%
%TO.N,VDD*%
X36322000Y-40767000D03*
%TD*%
D13*
%TO.P,U1,7*%
%TO.N,Net-(J3-Pad3)*%
X69977000Y-49401000D03*
%TO.P,U1,6*%
X67437000Y-49401000D03*
%TO.P,U1,8*%
%TO.N,VDD*%
X72517000Y-49401000D03*
%TO.P,U1,5*%
%TO.N,Net-(R6-Pad2)*%
X64897000Y-49401000D03*
D14*
%TO.P,U1,1*%
%TO.N,Net-(J2-Pad1)*%
X72517000Y-41531000D03*
D13*
%TO.P,U1,4*%
%TO.N,GND*%
X64897000Y-41531000D03*
%TO.P,U1,2*%
%TO.N,Net-(R1-Pad1)*%
X69977000Y-41531000D03*
%TO.P,U1,3*%
%TO.N,Net-(R3-Pad2)*%
X67437000Y-41531000D03*
%TD*%
D15*
%TO.P,U3,1*%
%TO.N,N/C*%
X43942000Y-30988000D03*
D16*
%TO.P,U3,3*%
%TO.N,GND*%
X41402000Y-30988000D03*
%TO.P,U3,2*%
%TO.N,Net-(J3-Pad1)*%
X42672000Y-30988000D03*
%TD*%
D17*
%TO.P,R7,2*%
%TO.N,GND*%
X61341000Y-47752000D03*
D18*
%TO.P,R7,1*%
%TO.N,Net-(R6-Pad2)*%
X51181000Y-47752000D03*
%TD*%
D17*
%TO.P,R6,2*%
%TO.N,Net-(R6-Pad2)*%
X61341000Y-44577000D03*
D18*
%TO.P,R6,1*%
%TO.N,VDD*%
X51181000Y-44577000D03*
%TD*%
D17*
%TO.P,R5,2*%
%TO.N,Net-(J3-Pad1)*%
X37338000Y-36449000D03*
D18*
%TO.P,R5,1*%
%TO.N,VDD*%
X37338000Y-26289000D03*
%TD*%
D17*
%TO.P,R4,2*%
%TO.N,GND*%
X51054000Y-34925000D03*
D18*
%TO.P,R4,1*%
%TO.N,Net-(R3-Pad2)*%
X61214000Y-34925000D03*
%TD*%
D17*
%TO.P,R3,2*%
%TO.N,Net-(R3-Pad2)*%
X61214000Y-31750000D03*
D18*
%TO.P,R3,1*%
%TO.N,Net-(J3-Pad2)*%
X51054000Y-31750000D03*
%TD*%
D17*
%TO.P,R2,2*%
%TO.N,Net-(R1-Pad1)*%
X72390000Y-25908000D03*
D18*
%TO.P,R2,1*%
%TO.N,Net-(J2-Pad1)*%
X72390000Y-36068000D03*
%TD*%
D17*
%TO.P,R1,2*%
%TO.N,Net-(J1-Pad2)*%
X67310000Y-36068000D03*
D18*
%TO.P,R1,1*%
%TO.N,Net-(R1-Pad1)*%
X67310000Y-25908000D03*
%TD*%
D10*
%TO.P,J5,10*%
%TO.N,Net-(J5-Pad10)*%
X31369000Y-27305000D03*
%TO.P,J5,9*%
%TO.N,Net-(J5-Pad9)*%
X31369000Y-29845000D03*
%TO.P,J5,8*%
%TO.N,Net-(J5-Pad8)*%
X31369000Y-32385000D03*
%TO.P,J5,7*%
%TO.N,Net-(J5-Pad7)*%
X31369000Y-34925000D03*
%TO.P,J5,6*%
%TO.N,Net-(J5-Pad6)*%
X31369000Y-37465000D03*
%TO.P,J5,5*%
%TO.N,Net-(J5-Pad5)*%
X31369000Y-40005000D03*
%TO.P,J5,4*%
%TO.N,Net-(J4-Pad1)*%
X31369000Y-42545000D03*
%TO.P,J5,3*%
%TO.N,Net-(J5-Pad3)*%
X31369000Y-45085000D03*
%TO.P,J5,2*%
%TO.N,Net-(J5-Pad2)*%
X31369000Y-47625000D03*
D11*
%TO.P,J5,1*%
%TO.N,GND*%
X31369000Y-50165000D03*
%TD*%
D10*
%TO.P,J3,3*%
%TO.N,Net-(J3-Pad3)*%
X46863000Y-41783000D03*
%TO.P,J3,2*%
%TO.N,Net-(J3-Pad2)*%
X46863000Y-39243000D03*
D11*
%TO.P,J3,1*%
%TO.N,Net-(J3-Pad1)*%
X46863000Y-36703000D03*
%TD*%
D10*
%TO.P,J2,10*%
%TO.N,Net-(J2-Pad10)*%
X77851000Y-50165000D03*
%TO.P,J2,9*%
%TO.N,Net-(J2-Pad9)*%
X77851000Y-47625000D03*
%TO.P,J2,8*%
%TO.N,Net-(J2-Pad8)*%
X77851000Y-45085000D03*
%TO.P,J2,7*%
%TO.N,Net-(J2-Pad7)*%
X77851000Y-42545000D03*
%TO.P,J2,6*%
%TO.N,Net-(J2-Pad6)*%
X77851000Y-40005000D03*
%TO.P,J2,5*%
%TO.N,Net-(J2-Pad5)*%
X77851000Y-37465000D03*
%TO.P,J2,4*%
%TO.N,Net-(J2-Pad4)*%
X77851000Y-34925000D03*
%TO.P,J2,3*%
%TO.N,Net-(J2-Pad3)*%
X77851000Y-32385000D03*
%TO.P,J2,2*%
%TO.N,Net-(J2-Pad2)*%
X77851000Y-29845000D03*
D11*
%TO.P,J2,1*%
%TO.N,Net-(J2-Pad1)*%
X77851000Y-27305000D03*
%TD*%
D10*
%TO.P,J1,3*%
%TO.N,VDD*%
X53086000Y-26289000D03*
%TO.P,J1,2*%
%TO.N,Net-(J1-Pad2)*%
X55626000Y-26289000D03*
D11*
%TO.P,J1,1*%
%TO.N,GND*%
X58166000Y-26289000D03*
%TD*%
D18*
%TO.P,C2,2*%
%TO.N,GND*%
X38830000Y-46736000D03*
%TO.P,C2,1*%
%TO.N,VDD*%
X36830000Y-46736000D03*
%TD*%
D19*
%TO.N,GND*%
X81001001Y-53061000D02*
X28219000Y-53061000D01*
X28219000Y-51015000D01*
X29880928Y-51015000D01*
X29893188Y-51139482D01*
X29929498Y-51259180D01*
X29988463Y-51369494D01*
X30067815Y-51466185D01*
X30164506Y-51545537D01*
X30274820Y-51604502D01*
X30394518Y-51640812D01*
X30519000Y-51653072D01*
X31083250Y-51650000D01*
X31242000Y-51491250D01*
X31242000Y-50292000D01*
X31496000Y-50292000D01*
X31496000Y-51491250D01*
X31654750Y-51650000D01*
X32219000Y-51653072D01*
X32343482Y-51640812D01*
X32463180Y-51604502D01*
X32573494Y-51545537D01*
X32670185Y-51466185D01*
X32749537Y-51369494D01*
X32808502Y-51259180D01*
X32844812Y-51139482D01*
X32857072Y-51015000D01*
X32854000Y-50450750D01*
X32695250Y-50292000D01*
X31496000Y-50292000D01*
X31242000Y-50292000D01*
X30042750Y-50292000D01*
X29884000Y-50450750D01*
X29880928Y-51015000D01*
X28219000Y-51015000D01*
X28219000Y-49315000D01*
X29880928Y-49315000D01*
X29884000Y-49879250D01*
X30042750Y-50038000D01*
X31242000Y-50038000D01*
X31242000Y-50018000D01*
X31496000Y-50018000D01*
X31496000Y-50038000D01*
X32695250Y-50038000D01*
X32854000Y-49879250D01*
X32855689Y-49569000D01*
X40294928Y-49569000D01*
X40294928Y-51269000D01*
X40307188Y-51393482D01*
X40343498Y-51513180D01*
X40402463Y-51623494D01*
X40481815Y-51720185D01*
X40578506Y-51799537D01*
X40688820Y-51858502D01*
X40808518Y-51894812D01*
X40933000Y-51907072D01*
X42633000Y-51907072D01*
X42757482Y-51894812D01*
X42877180Y-51858502D01*
X42987494Y-51799537D01*
X43084185Y-51720185D01*
X43163537Y-51623494D01*
X43222502Y-51513180D01*
X43246966Y-51432534D01*
X43322731Y-51516588D01*
X43556080Y-51690641D01*
X43818901Y-51815825D01*
X43966110Y-51860476D01*
X44196000Y-51739155D01*
X44196000Y-50546000D01*
X44176000Y-50546000D01*
X44176000Y-50292000D01*
X44196000Y-50292000D01*
X44196000Y-49098845D01*
X44450000Y-49098845D01*
X44450000Y-50292000D01*
X44470000Y-50292000D01*
X44470000Y-50546000D01*
X44450000Y-50546000D01*
X44450000Y-51739155D01*
X44679890Y-51860476D01*
X44827099Y-51815825D01*
X45089920Y-51690641D01*
X45323269Y-51516588D01*
X45518178Y-51300355D01*
X45587805Y-51183466D01*
X45709525Y-51365632D01*
X45916368Y-51572475D01*
X46159589Y-51734990D01*
X46429842Y-51846932D01*
X46716740Y-51904000D01*
X47009260Y-51904000D01*
X47296158Y-51846932D01*
X47566411Y-51734990D01*
X47809632Y-51572475D01*
X48016475Y-51365632D01*
X48178990Y-51122411D01*
X48290932Y-50852158D01*
X48348000Y-50565260D01*
X48348000Y-50272740D01*
X48290932Y-49985842D01*
X48178990Y-49715589D01*
X48016475Y-49472368D01*
X47818152Y-49274045D01*
X63608000Y-49274045D01*
X63608000Y-49527955D01*
X63657535Y-49776987D01*
X63754703Y-50011570D01*
X63895768Y-50222690D01*
X64075310Y-50402232D01*
X64286430Y-50543297D01*
X64521013Y-50640465D01*
X64770045Y-50690000D01*
X65023955Y-50690000D01*
X65272987Y-50640465D01*
X65507570Y-50543297D01*
X65718690Y-50402232D01*
X65898232Y-50222690D01*
X66039297Y-50011570D01*
X66136465Y-49776987D01*
X66167000Y-49623476D01*
X66197535Y-49776987D01*
X66294703Y-50011570D01*
X66435768Y-50222690D01*
X66615310Y-50402232D01*
X66826430Y-50543297D01*
X67061013Y-50640465D01*
X67310045Y-50690000D01*
X67563955Y-50690000D01*
X67812987Y-50640465D01*
X68047570Y-50543297D01*
X68258690Y-50402232D01*
X68438232Y-50222690D01*
X68579297Y-50011570D01*
X68676465Y-49776987D01*
X68707000Y-49623476D01*
X68737535Y-49776987D01*
X68834703Y-50011570D01*
X68975768Y-50222690D01*
X69155310Y-50402232D01*
X69366430Y-50543297D01*
X69601013Y-50640465D01*
X69850045Y-50690000D01*
X70103955Y-50690000D01*
X70352987Y-50640465D01*
X70587570Y-50543297D01*
X70798690Y-50402232D01*
X70978232Y-50222690D01*
X71119297Y-50011570D01*
X71216465Y-49776987D01*
X71247000Y-49623476D01*
X71277535Y-49776987D01*
X71374703Y-50011570D01*
X71515768Y-50222690D01*
X71695310Y-50402232D01*
X71906430Y-50543297D01*
X72141013Y-50640465D01*
X72390045Y-50690000D01*
X72643955Y-50690000D01*
X72892987Y-50640465D01*
X73127570Y-50543297D01*
X73338690Y-50402232D01*
X73518232Y-50222690D01*
X73659297Y-50011570D01*
X73756465Y-49776987D01*
X73806000Y-49527955D01*
X73806000Y-49274045D01*
X73756465Y-49025013D01*
X73659297Y-48790430D01*
X73518232Y-48579310D01*
X73338690Y-48399768D01*
X73127570Y-48258703D01*
X72892987Y-48161535D01*
X72643955Y-48112000D01*
X72390045Y-48112000D01*
X72141013Y-48161535D01*
X71906430Y-48258703D01*
X71695310Y-48399768D01*
X71515768Y-48579310D01*
X71374703Y-48790430D01*
X71277535Y-49025013D01*
X71247000Y-49178524D01*
X71216465Y-49025013D01*
X71119297Y-48790430D01*
X70978232Y-48579310D01*
X70798690Y-48399768D01*
X70587570Y-48258703D01*
X70352987Y-48161535D01*
X70103955Y-48112000D01*
X69850045Y-48112000D01*
X69601013Y-48161535D01*
X69366430Y-48258703D01*
X69155310Y-48399768D01*
X68975768Y-48579310D01*
X68834703Y-48790430D01*
X68737535Y-49025013D01*
X68707000Y-49178524D01*
X68676465Y-49025013D01*
X68579297Y-48790430D01*
X68438232Y-48579310D01*
X68258690Y-48399768D01*
X68047570Y-48258703D01*
X67812987Y-48161535D01*
X67563955Y-48112000D01*
X67310045Y-48112000D01*
X67061013Y-48161535D01*
X66826430Y-48258703D01*
X66615310Y-48399768D01*
X66435768Y-48579310D01*
X66294703Y-48790430D01*
X66197535Y-49025013D01*
X66167000Y-49178524D01*
X66136465Y-49025013D01*
X66039297Y-48790430D01*
X65898232Y-48579310D01*
X65718690Y-48399768D01*
X65507570Y-48258703D01*
X65272987Y-48161535D01*
X65023955Y-48112000D01*
X64770045Y-48112000D01*
X64521013Y-48161535D01*
X64286430Y-48258703D01*
X64075310Y-48399768D01*
X63895768Y-48579310D01*
X63754703Y-48790430D01*
X63657535Y-49025013D01*
X63608000Y-49274045D01*
X47818152Y-49274045D01*
X47809632Y-49265525D01*
X47566411Y-49103010D01*
X47296158Y-48991068D01*
X47009260Y-48934000D01*
X46716740Y-48934000D01*
X46429842Y-48991068D01*
X46159589Y-49103010D01*
X45916368Y-49265525D01*
X45709525Y-49472368D01*
X45587805Y-49654534D01*
X45518178Y-49537645D01*
X45323269Y-49321412D01*
X45089920Y-49147359D01*
X44827099Y-49022175D01*
X44679890Y-48977524D01*
X44450000Y-49098845D01*
X44196000Y-49098845D01*
X43966110Y-48977524D01*
X43818901Y-49022175D01*
X43556080Y-49147359D01*
X43322731Y-49321412D01*
X43246966Y-49405466D01*
X43222502Y-49324820D01*
X43163537Y-49214506D01*
X43084185Y-49117815D01*
X42987494Y-49038463D01*
X42877180Y-48979498D01*
X42757482Y-48943188D01*
X42633000Y-48930928D01*
X40933000Y-48930928D01*
X40808518Y-48943188D01*
X40688820Y-48979498D01*
X40578506Y-49038463D01*
X40481815Y-49117815D01*
X40402463Y-49214506D01*
X40343498Y-49324820D01*
X40307188Y-49444518D01*
X40294928Y-49569000D01*
X32855689Y-49569000D01*
X32857072Y-49315000D01*
X32844812Y-49190518D01*
X32808502Y-49070820D01*
X32749537Y-48960506D01*
X32670185Y-48863815D01*
X32573494Y-48784463D01*
X32463180Y-48725498D01*
X32390620Y-48703487D01*
X32522475Y-48571632D01*
X32684990Y-48328411D01*
X32796932Y-48058158D01*
X32854000Y-47771260D01*
X32854000Y-47478740D01*
X32796932Y-47191842D01*
X32684990Y-46921589D01*
X32522475Y-46678368D01*
X32438772Y-46594665D01*
X35395000Y-46594665D01*
X35395000Y-46877335D01*
X35450147Y-47154574D01*
X35558320Y-47415727D01*
X35715363Y-47650759D01*
X35915241Y-47850637D01*
X36150273Y-48007680D01*
X36411426Y-48115853D01*
X36688665Y-48171000D01*
X36971335Y-48171000D01*
X37248574Y-48115853D01*
X37509727Y-48007680D01*
X37744759Y-47850637D01*
X37825525Y-47769872D01*
X37900630Y-47844977D01*
X38016903Y-47728704D01*
X38088486Y-47972671D01*
X38343996Y-48093571D01*
X38618184Y-48162300D01*
X38900512Y-48176217D01*
X39180130Y-48134787D01*
X39446292Y-48039603D01*
X39571514Y-47972671D01*
X39643097Y-47728702D01*
X39525060Y-47610665D01*
X49746000Y-47610665D01*
X49746000Y-47893335D01*
X49801147Y-48170574D01*
X49909320Y-48431727D01*
X50066363Y-48666759D01*
X50266241Y-48866637D01*
X50501273Y-49023680D01*
X50762426Y-49131853D01*
X51039665Y-49187000D01*
X51322335Y-49187000D01*
X51599574Y-49131853D01*
X51860727Y-49023680D01*
X52095759Y-48866637D01*
X52295637Y-48666759D01*
X52452680Y-48431727D01*
X52560853Y-48170574D01*
X52574684Y-48101039D01*
X59949096Y-48101039D01*
X59989754Y-48235087D01*
X60109963Y-48489420D01*
X60277481Y-48715414D01*
X60485869Y-48904385D01*
X60727119Y-49049070D01*
X60991960Y-49143909D01*
X61214000Y-49022624D01*
X61214000Y-47879000D01*
X61468000Y-47879000D01*
X61468000Y-49022624D01*
X61690040Y-49143909D01*
X61954881Y-49049070D01*
X62196131Y-48904385D01*
X62404519Y-48715414D01*
X62572037Y-48489420D01*
X62692246Y-48235087D01*
X62732904Y-48101039D01*
X62610915Y-47879000D01*
X61468000Y-47879000D01*
X61214000Y-47879000D01*
X60071085Y-47879000D01*
X59949096Y-48101039D01*
X52574684Y-48101039D01*
X52616000Y-47893335D01*
X52616000Y-47610665D01*
X52574685Y-47402961D01*
X59949096Y-47402961D01*
X60071085Y-47625000D01*
X61214000Y-47625000D01*
X61214000Y-46481376D01*
X61468000Y-46481376D01*
X61468000Y-47625000D01*
X62610915Y-47625000D01*
X62732904Y-47402961D01*
X62692246Y-47268913D01*
X62572037Y-47014580D01*
X62404519Y-46788586D01*
X62196131Y-46599615D01*
X61954881Y-46454930D01*
X61690040Y-46360091D01*
X61468000Y-46481376D01*
X61214000Y-46481376D01*
X60991960Y-46360091D01*
X60727119Y-46454930D01*
X60485869Y-46599615D01*
X60277481Y-46788586D01*
X60109963Y-47014580D01*
X59989754Y-47268913D01*
X59949096Y-47402961D01*
X52574685Y-47402961D01*
X52560853Y-47333426D01*
X52452680Y-47072273D01*
X52295637Y-46837241D01*
X52095759Y-46637363D01*
X51860727Y-46480320D01*
X51599574Y-46372147D01*
X51322335Y-46317000D01*
X51039665Y-46317000D01*
X50762426Y-46372147D01*
X50501273Y-46480320D01*
X50266241Y-46637363D01*
X50066363Y-46837241D01*
X49909320Y-47072273D01*
X49801147Y-47333426D01*
X49746000Y-47610665D01*
X39525060Y-47610665D01*
X38830000Y-46915605D01*
X38815858Y-46929748D01*
X38636253Y-46750143D01*
X38650395Y-46736000D01*
X39009605Y-46736000D01*
X39822702Y-47549097D01*
X40066671Y-47477514D01*
X40187571Y-47222004D01*
X40256300Y-46947816D01*
X40270217Y-46665488D01*
X40228787Y-46385870D01*
X40133603Y-46119708D01*
X40066671Y-45994486D01*
X39822702Y-45922903D01*
X39009605Y-46736000D01*
X38650395Y-46736000D01*
X38636253Y-46721858D01*
X38815858Y-46542253D01*
X38830000Y-46556395D01*
X39643097Y-45743298D01*
X39571514Y-45499329D01*
X39316004Y-45378429D01*
X39041816Y-45309700D01*
X38759488Y-45295783D01*
X38479870Y-45337213D01*
X38213708Y-45432397D01*
X38088486Y-45499329D01*
X38016903Y-45743296D01*
X37900630Y-45627023D01*
X37825525Y-45702129D01*
X37744759Y-45621363D01*
X37509727Y-45464320D01*
X37248574Y-45356147D01*
X36971335Y-45301000D01*
X36688665Y-45301000D01*
X36411426Y-45356147D01*
X36150273Y-45464320D01*
X35915241Y-45621363D01*
X35715363Y-45821241D01*
X35558320Y-46056273D01*
X35450147Y-46317426D01*
X35395000Y-46594665D01*
X32438772Y-46594665D01*
X32315632Y-46471525D01*
X32141240Y-46355000D01*
X32315632Y-46238475D01*
X32522475Y-46031632D01*
X32684990Y-45788411D01*
X32796932Y-45518158D01*
X32854000Y-45231260D01*
X32854000Y-44938740D01*
X32796932Y-44651842D01*
X32707389Y-44435665D01*
X49746000Y-44435665D01*
X49746000Y-44718335D01*
X49801147Y-44995574D01*
X49909320Y-45256727D01*
X50066363Y-45491759D01*
X50266241Y-45691637D01*
X50501273Y-45848680D01*
X50762426Y-45956853D01*
X51039665Y-46012000D01*
X51322335Y-46012000D01*
X51599574Y-45956853D01*
X51860727Y-45848680D01*
X52095759Y-45691637D01*
X52295637Y-45491759D01*
X52452680Y-45256727D01*
X52560853Y-44995574D01*
X52616000Y-44718335D01*
X52616000Y-44435665D01*
X59906000Y-44435665D01*
X59906000Y-44718335D01*
X59961147Y-44995574D01*
X60069320Y-45256727D01*
X60226363Y-45491759D01*
X60426241Y-45691637D01*
X60661273Y-45848680D01*
X60922426Y-45956853D01*
X61199665Y-46012000D01*
X61482335Y-46012000D01*
X61759574Y-45956853D01*
X62020727Y-45848680D01*
X62255759Y-45691637D01*
X62455637Y-45491759D01*
X62612680Y-45256727D01*
X62720853Y-44995574D01*
X62776000Y-44718335D01*
X62776000Y-44435665D01*
X62720853Y-44158426D01*
X62612680Y-43897273D01*
X62455637Y-43662241D01*
X62255759Y-43462363D01*
X62020727Y-43305320D01*
X61759574Y-43197147D01*
X61482335Y-43142000D01*
X61199665Y-43142000D01*
X60922426Y-43197147D01*
X60661273Y-43305320D01*
X60426241Y-43462363D01*
X60226363Y-43662241D01*
X60069320Y-43897273D01*
X59961147Y-44158426D01*
X59906000Y-44435665D01*
X52616000Y-44435665D01*
X52560853Y-44158426D01*
X52452680Y-43897273D01*
X52295637Y-43662241D01*
X52095759Y-43462363D01*
X51860727Y-43305320D01*
X51599574Y-43197147D01*
X51322335Y-43142000D01*
X51039665Y-43142000D01*
X50762426Y-43197147D01*
X50501273Y-43305320D01*
X50266241Y-43462363D01*
X50066363Y-43662241D01*
X49909320Y-43897273D01*
X49801147Y-44158426D01*
X49746000Y-44435665D01*
X32707389Y-44435665D01*
X32684990Y-44381589D01*
X32522475Y-44138368D01*
X32315632Y-43931525D01*
X32141240Y-43815000D01*
X32315632Y-43698475D01*
X32522475Y-43491632D01*
X32684990Y-43248411D01*
X32796932Y-42978158D01*
X32854000Y-42691260D01*
X32854000Y-42398740D01*
X32796932Y-42111842D01*
X32684990Y-41841589D01*
X32522475Y-41598368D01*
X32315632Y-41391525D01*
X32141240Y-41275000D01*
X32315632Y-41158475D01*
X32522475Y-40951632D01*
X32684990Y-40708411D01*
X32727423Y-40605967D01*
X34687000Y-40605967D01*
X34687000Y-40928033D01*
X34749832Y-41243912D01*
X34873082Y-41541463D01*
X35052013Y-41809252D01*
X35279748Y-42036987D01*
X35547537Y-42215918D01*
X35845088Y-42339168D01*
X36160967Y-42402000D01*
X36483033Y-42402000D01*
X36798912Y-42339168D01*
X37096463Y-42215918D01*
X37364252Y-42036987D01*
X37498826Y-41902413D01*
X40366192Y-41902413D01*
X40461956Y-42166814D01*
X40751571Y-42307704D01*
X41063108Y-42389384D01*
X41384595Y-42408718D01*
X41703675Y-42364961D01*
X42008088Y-42259795D01*
X42182044Y-42166814D01*
X42277808Y-41902413D01*
X41322000Y-40946605D01*
X40366192Y-41902413D01*
X37498826Y-41902413D01*
X37591987Y-41809252D01*
X37770918Y-41541463D01*
X37894168Y-41243912D01*
X37957000Y-40928033D01*
X37957000Y-40829595D01*
X39680282Y-40829595D01*
X39724039Y-41148675D01*
X39829205Y-41453088D01*
X39922186Y-41627044D01*
X40186587Y-41722808D01*
X41142395Y-40767000D01*
X41501605Y-40767000D01*
X42457413Y-41722808D01*
X42721814Y-41627044D01*
X42862704Y-41337429D01*
X42944384Y-41025892D01*
X42963718Y-40704405D01*
X42919961Y-40385325D01*
X42814795Y-40080912D01*
X42721814Y-39906956D01*
X42457413Y-39811192D01*
X41501605Y-40767000D01*
X41142395Y-40767000D01*
X40186587Y-39811192D01*
X39922186Y-39906956D01*
X39781296Y-40196571D01*
X39699616Y-40508108D01*
X39680282Y-40829595D01*
X37957000Y-40829595D01*
X37957000Y-40605967D01*
X37894168Y-40290088D01*
X37770918Y-39992537D01*
X37591987Y-39724748D01*
X37498826Y-39631587D01*
X40366192Y-39631587D01*
X41322000Y-40587395D01*
X42277808Y-39631587D01*
X42182044Y-39367186D01*
X41892429Y-39226296D01*
X41580892Y-39144616D01*
X41259405Y-39125282D01*
X40940325Y-39169039D01*
X40635912Y-39274205D01*
X40461956Y-39367186D01*
X40366192Y-39631587D01*
X37498826Y-39631587D01*
X37364252Y-39497013D01*
X37096463Y-39318082D01*
X36798912Y-39194832D01*
X36483033Y-39132000D01*
X36160967Y-39132000D01*
X35845088Y-39194832D01*
X35547537Y-39318082D01*
X35279748Y-39497013D01*
X35052013Y-39724748D01*
X34873082Y-39992537D01*
X34749832Y-40290088D01*
X34687000Y-40605967D01*
X32727423Y-40605967D01*
X32796932Y-40438158D01*
X32854000Y-40151260D01*
X32854000Y-39858740D01*
X32796932Y-39571842D01*
X32684990Y-39301589D01*
X32522475Y-39058368D01*
X32315632Y-38851525D01*
X32141240Y-38735000D01*
X32315632Y-38618475D01*
X32522475Y-38411632D01*
X32684990Y-38168411D01*
X32796932Y-37898158D01*
X32854000Y-37611260D01*
X32854000Y-37318740D01*
X32796932Y-37031842D01*
X32684990Y-36761589D01*
X32522475Y-36518368D01*
X32315632Y-36311525D01*
X32309856Y-36307665D01*
X35903000Y-36307665D01*
X35903000Y-36590335D01*
X35958147Y-36867574D01*
X36066320Y-37128727D01*
X36223363Y-37363759D01*
X36423241Y-37563637D01*
X36658273Y-37720680D01*
X36919426Y-37828853D01*
X37196665Y-37884000D01*
X37479335Y-37884000D01*
X37756574Y-37828853D01*
X38017727Y-37720680D01*
X38252759Y-37563637D01*
X38452637Y-37363759D01*
X38609680Y-37128727D01*
X38717853Y-36867574D01*
X38773000Y-36590335D01*
X38773000Y-36307665D01*
X38717853Y-36030426D01*
X38644361Y-35853000D01*
X45374928Y-35853000D01*
X45374928Y-37553000D01*
X45387188Y-37677482D01*
X45423498Y-37797180D01*
X45482463Y-37907494D01*
X45561815Y-38004185D01*
X45658506Y-38083537D01*
X45768820Y-38142502D01*
X45841380Y-38164513D01*
X45709525Y-38296368D01*
X45547010Y-38539589D01*
X45435068Y-38809842D01*
X45378000Y-39096740D01*
X45378000Y-39389260D01*
X45435068Y-39676158D01*
X45547010Y-39946411D01*
X45709525Y-40189632D01*
X45916368Y-40396475D01*
X46090760Y-40513000D01*
X45916368Y-40629525D01*
X45709525Y-40836368D01*
X45547010Y-41079589D01*
X45435068Y-41349842D01*
X45378000Y-41636740D01*
X45378000Y-41929260D01*
X45435068Y-42216158D01*
X45547010Y-42486411D01*
X45709525Y-42729632D01*
X45916368Y-42936475D01*
X46159589Y-43098990D01*
X46429842Y-43210932D01*
X46716740Y-43268000D01*
X47009260Y-43268000D01*
X47296158Y-43210932D01*
X47566411Y-43098990D01*
X47809632Y-42936475D01*
X48016475Y-42729632D01*
X48178990Y-42486411D01*
X48206752Y-42419387D01*
X64188218Y-42419387D01*
X64242093Y-42648468D01*
X64472684Y-42754763D01*
X64719581Y-42814028D01*
X64973296Y-42823988D01*
X65224079Y-42784259D01*
X65462293Y-42696368D01*
X65551907Y-42648468D01*
X65605782Y-42419387D01*
X64897000Y-41710605D01*
X64188218Y-42419387D01*
X48206752Y-42419387D01*
X48290932Y-42216158D01*
X48348000Y-41929260D01*
X48348000Y-41636740D01*
X48342144Y-41607296D01*
X63604012Y-41607296D01*
X63643741Y-41858079D01*
X63731632Y-42096293D01*
X63779532Y-42185907D01*
X64008613Y-42239782D01*
X64717395Y-41531000D01*
X65076605Y-41531000D01*
X65785387Y-42239782D01*
X66014468Y-42185907D01*
X66120763Y-41955316D01*
X66168003Y-41758516D01*
X66197535Y-41906987D01*
X66294703Y-42141570D01*
X66435768Y-42352690D01*
X66615310Y-42532232D01*
X66826430Y-42673297D01*
X67061013Y-42770465D01*
X67310045Y-42820000D01*
X67563955Y-42820000D01*
X67812987Y-42770465D01*
X68047570Y-42673297D01*
X68258690Y-42532232D01*
X68438232Y-42352690D01*
X68579297Y-42141570D01*
X68676465Y-41906987D01*
X68707000Y-41753476D01*
X68737535Y-41906987D01*
X68834703Y-42141570D01*
X68975768Y-42352690D01*
X69155310Y-42532232D01*
X69366430Y-42673297D01*
X69601013Y-42770465D01*
X69850045Y-42820000D01*
X70103955Y-42820000D01*
X70352987Y-42770465D01*
X70587570Y-42673297D01*
X70798690Y-42532232D01*
X70978232Y-42352690D01*
X71119297Y-42141570D01*
X71216465Y-41906987D01*
X71224928Y-41864440D01*
X71224928Y-42185000D01*
X71237188Y-42309482D01*
X71273498Y-42429180D01*
X71332463Y-42539494D01*
X71411815Y-42636185D01*
X71508506Y-42715537D01*
X71618820Y-42774502D01*
X71738518Y-42810812D01*
X71863000Y-42823072D01*
X73171000Y-42823072D01*
X73295482Y-42810812D01*
X73415180Y-42774502D01*
X73525494Y-42715537D01*
X73622185Y-42636185D01*
X73701537Y-42539494D01*
X73760502Y-42429180D01*
X73796812Y-42309482D01*
X73809072Y-42185000D01*
X73809072Y-40877000D01*
X73796812Y-40752518D01*
X73760502Y-40632820D01*
X73701537Y-40522506D01*
X73622185Y-40425815D01*
X73525494Y-40346463D01*
X73415180Y-40287498D01*
X73295482Y-40251188D01*
X73171000Y-40238928D01*
X71863000Y-40238928D01*
X71738518Y-40251188D01*
X71618820Y-40287498D01*
X71508506Y-40346463D01*
X71411815Y-40425815D01*
X71332463Y-40522506D01*
X71273498Y-40632820D01*
X71237188Y-40752518D01*
X71224928Y-40877000D01*
X71224928Y-41197560D01*
X71216465Y-41155013D01*
X71119297Y-40920430D01*
X70978232Y-40709310D01*
X70798690Y-40529768D01*
X70587570Y-40388703D01*
X70352987Y-40291535D01*
X70103955Y-40242000D01*
X69850045Y-40242000D01*
X69601013Y-40291535D01*
X69366430Y-40388703D01*
X69155310Y-40529768D01*
X68975768Y-40709310D01*
X68834703Y-40920430D01*
X68737535Y-41155013D01*
X68707000Y-41308524D01*
X68676465Y-41155013D01*
X68579297Y-40920430D01*
X68438232Y-40709310D01*
X68258690Y-40529768D01*
X68047570Y-40388703D01*
X67812987Y-40291535D01*
X67563955Y-40242000D01*
X67310045Y-40242000D01*
X67061013Y-40291535D01*
X66826430Y-40388703D01*
X66615310Y-40529768D01*
X66435768Y-40709310D01*
X66294703Y-40920430D01*
X66197535Y-41155013D01*
X66166906Y-41308999D01*
X66150259Y-41203921D01*
X66062368Y-40965707D01*
X66014468Y-40876093D01*
X65785387Y-40822218D01*
X65076605Y-41531000D01*
X64717395Y-41531000D01*
X64008613Y-40822218D01*
X63779532Y-40876093D01*
X63673237Y-41106684D01*
X63613972Y-41353581D01*
X63604012Y-41607296D01*
X48342144Y-41607296D01*
X48290932Y-41349842D01*
X48178990Y-41079589D01*
X48016475Y-40836368D01*
X47822720Y-40642613D01*
X64188218Y-40642613D01*
X64897000Y-41351395D01*
X65605782Y-40642613D01*
X65551907Y-40413532D01*
X65321316Y-40307237D01*
X65074419Y-40247972D01*
X64820704Y-40238012D01*
X64569921Y-40277741D01*
X64331707Y-40365632D01*
X64242093Y-40413532D01*
X64188218Y-40642613D01*
X47822720Y-40642613D01*
X47809632Y-40629525D01*
X47635240Y-40513000D01*
X47809632Y-40396475D01*
X48016475Y-40189632D01*
X48178990Y-39946411D01*
X48290932Y-39676158D01*
X48348000Y-39389260D01*
X48348000Y-39096740D01*
X48290932Y-38809842D01*
X48178990Y-38539589D01*
X48016475Y-38296368D01*
X47884620Y-38164513D01*
X47957180Y-38142502D01*
X48067494Y-38083537D01*
X48164185Y-38004185D01*
X48243537Y-37907494D01*
X48302502Y-37797180D01*
X48338812Y-37677482D01*
X48351072Y-37553000D01*
X48351072Y-35853000D01*
X48338812Y-35728518D01*
X48302502Y-35608820D01*
X48243537Y-35498506D01*
X48164185Y-35401815D01*
X48067494Y-35322463D01*
X47976901Y-35274039D01*
X49662096Y-35274039D01*
X49702754Y-35408087D01*
X49822963Y-35662420D01*
X49990481Y-35888414D01*
X50198869Y-36077385D01*
X50440119Y-36222070D01*
X50704960Y-36316909D01*
X50927000Y-36195624D01*
X50927000Y-35052000D01*
X51181000Y-35052000D01*
X51181000Y-36195624D01*
X51403040Y-36316909D01*
X51667881Y-36222070D01*
X51909131Y-36077385D01*
X52117519Y-35888414D01*
X52285037Y-35662420D01*
X52405246Y-35408087D01*
X52445904Y-35274039D01*
X52323915Y-35052000D01*
X51181000Y-35052000D01*
X50927000Y-35052000D01*
X49784085Y-35052000D01*
X49662096Y-35274039D01*
X47976901Y-35274039D01*
X47957180Y-35263498D01*
X47837482Y-35227188D01*
X47713000Y-35214928D01*
X46013000Y-35214928D01*
X45888518Y-35227188D01*
X45768820Y-35263498D01*
X45658506Y-35322463D01*
X45561815Y-35401815D01*
X45482463Y-35498506D01*
X45423498Y-35608820D01*
X45387188Y-35728518D01*
X45374928Y-35853000D01*
X38644361Y-35853000D01*
X38609680Y-35769273D01*
X38452637Y-35534241D01*
X38252759Y-35334363D01*
X38017727Y-35177320D01*
X37756574Y-35069147D01*
X37479335Y-35014000D01*
X37196665Y-35014000D01*
X36919426Y-35069147D01*
X36658273Y-35177320D01*
X36423241Y-35334363D01*
X36223363Y-35534241D01*
X36066320Y-35769273D01*
X35958147Y-36030426D01*
X35903000Y-36307665D01*
X32309856Y-36307665D01*
X32141240Y-36195000D01*
X32315632Y-36078475D01*
X32522475Y-35871632D01*
X32684990Y-35628411D01*
X32796932Y-35358158D01*
X32854000Y-35071260D01*
X32854000Y-34778740D01*
X32813665Y-34575961D01*
X49662096Y-34575961D01*
X49784085Y-34798000D01*
X50927000Y-34798000D01*
X50927000Y-33654376D01*
X51181000Y-33654376D01*
X51181000Y-34798000D01*
X52323915Y-34798000D01*
X52331790Y-34783665D01*
X59779000Y-34783665D01*
X59779000Y-35066335D01*
X59834147Y-35343574D01*
X59942320Y-35604727D01*
X60099363Y-35839759D01*
X60299241Y-36039637D01*
X60534273Y-36196680D01*
X60795426Y-36304853D01*
X61072665Y-36360000D01*
X61355335Y-36360000D01*
X61632574Y-36304853D01*
X61893727Y-36196680D01*
X62128759Y-36039637D01*
X62241731Y-35926665D01*
X65875000Y-35926665D01*
X65875000Y-36209335D01*
X65930147Y-36486574D01*
X66038320Y-36747727D01*
X66195363Y-36982759D01*
X66395241Y-37182637D01*
X66630273Y-37339680D01*
X66891426Y-37447853D01*
X67168665Y-37503000D01*
X67451335Y-37503000D01*
X67728574Y-37447853D01*
X67989727Y-37339680D01*
X68224759Y-37182637D01*
X68424637Y-36982759D01*
X68581680Y-36747727D01*
X68689853Y-36486574D01*
X68745000Y-36209335D01*
X68745000Y-35926665D01*
X70955000Y-35926665D01*
X70955000Y-36209335D01*
X71010147Y-36486574D01*
X71118320Y-36747727D01*
X71275363Y-36982759D01*
X71475241Y-37182637D01*
X71710273Y-37339680D01*
X71971426Y-37447853D01*
X72248665Y-37503000D01*
X72531335Y-37503000D01*
X72808574Y-37447853D01*
X73069727Y-37339680D01*
X73304759Y-37182637D01*
X73504637Y-36982759D01*
X73661680Y-36747727D01*
X73769853Y-36486574D01*
X73825000Y-36209335D01*
X73825000Y-35926665D01*
X73769853Y-35649426D01*
X73661680Y-35388273D01*
X73504637Y-35153241D01*
X73304759Y-34953363D01*
X73069727Y-34796320D01*
X72808574Y-34688147D01*
X72531335Y-34633000D01*
X72248665Y-34633000D01*
X71971426Y-34688147D01*
X71710273Y-34796320D01*
X71475241Y-34953363D01*
X71275363Y-35153241D01*
X71118320Y-35388273D01*
X71010147Y-35649426D01*
X70955000Y-35926665D01*
X68745000Y-35926665D01*
X68689853Y-35649426D01*
X68581680Y-35388273D01*
X68424637Y-35153241D01*
X68224759Y-34953363D01*
X67989727Y-34796320D01*
X67728574Y-34688147D01*
X67451335Y-34633000D01*
X67168665Y-34633000D01*
X66891426Y-34688147D01*
X66630273Y-34796320D01*
X66395241Y-34953363D01*
X66195363Y-35153241D01*
X66038320Y-35388273D01*
X65930147Y-35649426D01*
X65875000Y-35926665D01*
X62241731Y-35926665D01*
X62328637Y-35839759D01*
X62485680Y-35604727D01*
X62593853Y-35343574D01*
X62649000Y-35066335D01*
X62649000Y-34783665D01*
X62593853Y-34506426D01*
X62485680Y-34245273D01*
X62328637Y-34010241D01*
X62128759Y-33810363D01*
X61893727Y-33653320D01*
X61632574Y-33545147D01*
X61355335Y-33490000D01*
X61072665Y-33490000D01*
X60795426Y-33545147D01*
X60534273Y-33653320D01*
X60299241Y-33810363D01*
X60099363Y-34010241D01*
X59942320Y-34245273D01*
X59834147Y-34506426D01*
X59779000Y-34783665D01*
X52331790Y-34783665D01*
X52445904Y-34575961D01*
X52405246Y-34441913D01*
X52285037Y-34187580D01*
X52117519Y-33961586D01*
X51909131Y-33772615D01*
X51667881Y-33627930D01*
X51403040Y-33533091D01*
X51181000Y-33654376D01*
X50927000Y-33654376D01*
X50704960Y-33533091D01*
X50440119Y-33627930D01*
X50198869Y-33772615D01*
X49990481Y-33961586D01*
X49822963Y-34187580D01*
X49702754Y-34441913D01*
X49662096Y-34575961D01*
X32813665Y-34575961D01*
X32796932Y-34491842D01*
X32684990Y-34221589D01*
X32522475Y-33978368D01*
X32315632Y-33771525D01*
X32141240Y-33655000D01*
X32315632Y-33538475D01*
X32522475Y-33331632D01*
X32684990Y-33088411D01*
X32796932Y-32818158D01*
X32854000Y-32531260D01*
X32854000Y-32238740D01*
X32796932Y-31951842D01*
X32684990Y-31681589D01*
X32522475Y-31438368D01*
X32382614Y-31298507D01*
X40235669Y-31298507D01*
X40274761Y-31524404D01*
X40357172Y-31738334D01*
X40479736Y-31932076D01*
X40637742Y-32098184D01*
X40825118Y-32230275D01*
X41034663Y-32323272D01*
X41096190Y-32331964D01*
X41275000Y-32206163D01*
X41275000Y-31115000D01*
X40395402Y-31115000D01*
X40235669Y-31298507D01*
X32382614Y-31298507D01*
X32315632Y-31231525D01*
X32141240Y-31115000D01*
X32315632Y-30998475D01*
X32522475Y-30791632D01*
X32598740Y-30677493D01*
X40235669Y-30677493D01*
X40395402Y-30861000D01*
X41275000Y-30861000D01*
X41275000Y-30706021D01*
X41512000Y-30706021D01*
X41512000Y-31269978D01*
X41528785Y-31440399D01*
X41529000Y-31441108D01*
X41529000Y-32206163D01*
X41707810Y-32331964D01*
X41769337Y-32323272D01*
X41978882Y-32230275D01*
X42037331Y-32189071D01*
X42225940Y-32289885D01*
X42444600Y-32356215D01*
X42672000Y-32378612D01*
X42899399Y-32356215D01*
X43108098Y-32292907D01*
X43172820Y-32327502D01*
X43292518Y-32363812D01*
X43417000Y-32376072D01*
X44467000Y-32376072D01*
X44591482Y-32363812D01*
X44711180Y-32327502D01*
X44821494Y-32268537D01*
X44918185Y-32189185D01*
X44997537Y-32092494D01*
X45056502Y-31982180D01*
X45092812Y-31862482D01*
X45105072Y-31738000D01*
X45105072Y-31608665D01*
X49619000Y-31608665D01*
X49619000Y-31891335D01*
X49674147Y-32168574D01*
X49782320Y-32429727D01*
X49939363Y-32664759D01*
X50139241Y-32864637D01*
X50374273Y-33021680D01*
X50635426Y-33129853D01*
X50912665Y-33185000D01*
X51195335Y-33185000D01*
X51472574Y-33129853D01*
X51733727Y-33021680D01*
X51968759Y-32864637D01*
X52168637Y-32664759D01*
X52325680Y-32429727D01*
X52433853Y-32168574D01*
X52489000Y-31891335D01*
X52489000Y-31608665D01*
X59779000Y-31608665D01*
X59779000Y-31891335D01*
X59834147Y-32168574D01*
X59942320Y-32429727D01*
X60099363Y-32664759D01*
X60299241Y-32864637D01*
X60534273Y-33021680D01*
X60795426Y-33129853D01*
X61072665Y-33185000D01*
X61355335Y-33185000D01*
X61632574Y-33129853D01*
X61893727Y-33021680D01*
X62128759Y-32864637D01*
X62328637Y-32664759D01*
X62485680Y-32429727D01*
X62593853Y-32168574D01*
X62649000Y-31891335D01*
X62649000Y-31608665D01*
X62593853Y-31331426D01*
X62485680Y-31070273D01*
X62328637Y-30835241D01*
X62128759Y-30635363D01*
X61893727Y-30478320D01*
X61632574Y-30370147D01*
X61355335Y-30315000D01*
X61072665Y-30315000D01*
X60795426Y-30370147D01*
X60534273Y-30478320D01*
X60299241Y-30635363D01*
X60099363Y-30835241D01*
X59942320Y-31070273D01*
X59834147Y-31331426D01*
X59779000Y-31608665D01*
X52489000Y-31608665D01*
X52433853Y-31331426D01*
X52325680Y-31070273D01*
X52168637Y-30835241D01*
X51968759Y-30635363D01*
X51733727Y-30478320D01*
X51472574Y-30370147D01*
X51195335Y-30315000D01*
X50912665Y-30315000D01*
X50635426Y-30370147D01*
X50374273Y-30478320D01*
X50139241Y-30635363D01*
X49939363Y-30835241D01*
X49782320Y-31070273D01*
X49674147Y-31331426D01*
X49619000Y-31608665D01*
X45105072Y-31608665D01*
X45105072Y-30238000D01*
X45092812Y-30113518D01*
X45056502Y-29993820D01*
X44997537Y-29883506D01*
X44918185Y-29786815D01*
X44821494Y-29707463D01*
X44711180Y-29648498D01*
X44591482Y-29612188D01*
X44467000Y-29599928D01*
X43417000Y-29599928D01*
X43292518Y-29612188D01*
X43172820Y-29648498D01*
X43108098Y-29683093D01*
X42899400Y-29619785D01*
X42672000Y-29597388D01*
X42444601Y-29619785D01*
X42225941Y-29686115D01*
X42037331Y-29786929D01*
X41978882Y-29745725D01*
X41769337Y-29652728D01*
X41707810Y-29644036D01*
X41529000Y-29769837D01*
X41529000Y-30534891D01*
X41528785Y-30535600D01*
X41512000Y-30706021D01*
X41275000Y-30706021D01*
X41275000Y-29769837D01*
X41096190Y-29644036D01*
X41034663Y-29652728D01*
X40825118Y-29745725D01*
X40637742Y-29877816D01*
X40479736Y-30043924D01*
X40357172Y-30237666D01*
X40274761Y-30451596D01*
X40235669Y-30677493D01*
X32598740Y-30677493D01*
X32684990Y-30548411D01*
X32796932Y-30278158D01*
X32854000Y-29991260D01*
X32854000Y-29698740D01*
X32796932Y-29411842D01*
X32684990Y-29141589D01*
X32522475Y-28898368D01*
X32315632Y-28691525D01*
X32141240Y-28575000D01*
X32315632Y-28458475D01*
X32522475Y-28251632D01*
X32684990Y-28008411D01*
X32796932Y-27738158D01*
X32854000Y-27451260D01*
X32854000Y-27158740D01*
X32796932Y-26871842D01*
X32684990Y-26601589D01*
X32522475Y-26358368D01*
X32315632Y-26151525D01*
X32309856Y-26147665D01*
X35903000Y-26147665D01*
X35903000Y-26430335D01*
X35958147Y-26707574D01*
X36066320Y-26968727D01*
X36223363Y-27203759D01*
X36423241Y-27403637D01*
X36658273Y-27560680D01*
X36919426Y-27668853D01*
X37196665Y-27724000D01*
X37479335Y-27724000D01*
X37756574Y-27668853D01*
X38017727Y-27560680D01*
X38252759Y-27403637D01*
X38452637Y-27203759D01*
X38609680Y-26968727D01*
X38717853Y-26707574D01*
X38773000Y-26430335D01*
X38773000Y-26147665D01*
X38772021Y-26142740D01*
X51601000Y-26142740D01*
X51601000Y-26435260D01*
X51658068Y-26722158D01*
X51770010Y-26992411D01*
X51932525Y-27235632D01*
X52139368Y-27442475D01*
X52382589Y-27604990D01*
X52652842Y-27716932D01*
X52939740Y-27774000D01*
X53232260Y-27774000D01*
X53519158Y-27716932D01*
X53789411Y-27604990D01*
X54032632Y-27442475D01*
X54239475Y-27235632D01*
X54356000Y-27061240D01*
X54472525Y-27235632D01*
X54679368Y-27442475D01*
X54922589Y-27604990D01*
X55192842Y-27716932D01*
X55479740Y-27774000D01*
X55772260Y-27774000D01*
X56059158Y-27716932D01*
X56329411Y-27604990D01*
X56572632Y-27442475D01*
X56704487Y-27310620D01*
X56726498Y-27383180D01*
X56785463Y-27493494D01*
X56864815Y-27590185D01*
X56961506Y-27669537D01*
X57071820Y-27728502D01*
X57191518Y-27764812D01*
X57316000Y-27777072D01*
X57880250Y-27774000D01*
X58039000Y-27615250D01*
X58039000Y-26416000D01*
X58293000Y-26416000D01*
X58293000Y-27615250D01*
X58451750Y-27774000D01*
X59016000Y-27777072D01*
X59140482Y-27764812D01*
X59260180Y-27728502D01*
X59370494Y-27669537D01*
X59467185Y-27590185D01*
X59546537Y-27493494D01*
X59605502Y-27383180D01*
X59641812Y-27263482D01*
X59654072Y-27139000D01*
X59651000Y-26574750D01*
X59492250Y-26416000D01*
X58293000Y-26416000D01*
X58039000Y-26416000D01*
X58019000Y-26416000D01*
X58019000Y-26162000D01*
X58039000Y-26162000D01*
X58039000Y-24962750D01*
X58293000Y-24962750D01*
X58293000Y-26162000D01*
X59492250Y-26162000D01*
X59651000Y-26003250D01*
X59652288Y-25766665D01*
X65875000Y-25766665D01*
X65875000Y-26049335D01*
X65930147Y-26326574D01*
X66038320Y-26587727D01*
X66195363Y-26822759D01*
X66395241Y-27022637D01*
X66630273Y-27179680D01*
X66891426Y-27287853D01*
X67168665Y-27343000D01*
X67451335Y-27343000D01*
X67728574Y-27287853D01*
X67989727Y-27179680D01*
X68224759Y-27022637D01*
X68424637Y-26822759D01*
X68581680Y-26587727D01*
X68689853Y-26326574D01*
X68745000Y-26049335D01*
X68745000Y-25766665D01*
X70955000Y-25766665D01*
X70955000Y-26049335D01*
X71010147Y-26326574D01*
X71118320Y-26587727D01*
X71275363Y-26822759D01*
X71475241Y-27022637D01*
X71710273Y-27179680D01*
X71971426Y-27287853D01*
X72248665Y-27343000D01*
X72531335Y-27343000D01*
X72808574Y-27287853D01*
X73069727Y-27179680D01*
X73304759Y-27022637D01*
X73504637Y-26822759D01*
X73661680Y-26587727D01*
X73716657Y-26455000D01*
X76362928Y-26455000D01*
X76362928Y-28155000D01*
X76375188Y-28279482D01*
X76411498Y-28399180D01*
X76470463Y-28509494D01*
X76549815Y-28606185D01*
X76646506Y-28685537D01*
X76756820Y-28744502D01*
X76829380Y-28766513D01*
X76697525Y-28898368D01*
X76535010Y-29141589D01*
X76423068Y-29411842D01*
X76366000Y-29698740D01*
X76366000Y-29991260D01*
X76423068Y-30278158D01*
X76535010Y-30548411D01*
X76697525Y-30791632D01*
X76904368Y-30998475D01*
X77078760Y-31115000D01*
X76904368Y-31231525D01*
X76697525Y-31438368D01*
X76535010Y-31681589D01*
X76423068Y-31951842D01*
X76366000Y-32238740D01*
X76366000Y-32531260D01*
X76423068Y-32818158D01*
X76535010Y-33088411D01*
X76697525Y-33331632D01*
X76904368Y-33538475D01*
X77078760Y-33655000D01*
X76904368Y-33771525D01*
X76697525Y-33978368D01*
X76535010Y-34221589D01*
X76423068Y-34491842D01*
X76366000Y-34778740D01*
X76366000Y-35071260D01*
X76423068Y-35358158D01*
X76535010Y-35628411D01*
X76697525Y-35871632D01*
X76904368Y-36078475D01*
X77078760Y-36195000D01*
X76904368Y-36311525D01*
X76697525Y-36518368D01*
X76535010Y-36761589D01*
X76423068Y-37031842D01*
X76366000Y-37318740D01*
X76366000Y-37611260D01*
X76423068Y-37898158D01*
X76535010Y-38168411D01*
X76697525Y-38411632D01*
X76904368Y-38618475D01*
X77078760Y-38735000D01*
X76904368Y-38851525D01*
X76697525Y-39058368D01*
X76535010Y-39301589D01*
X76423068Y-39571842D01*
X76366000Y-39858740D01*
X76366000Y-40151260D01*
X76423068Y-40438158D01*
X76535010Y-40708411D01*
X76697525Y-40951632D01*
X76904368Y-41158475D01*
X77078760Y-41275000D01*
X76904368Y-41391525D01*
X76697525Y-41598368D01*
X76535010Y-41841589D01*
X76423068Y-42111842D01*
X76366000Y-42398740D01*
X76366000Y-42691260D01*
X76423068Y-42978158D01*
X76535010Y-43248411D01*
X76697525Y-43491632D01*
X76904368Y-43698475D01*
X77078760Y-43815000D01*
X76904368Y-43931525D01*
X76697525Y-44138368D01*
X76535010Y-44381589D01*
X76423068Y-44651842D01*
X76366000Y-44938740D01*
X76366000Y-45231260D01*
X76423068Y-45518158D01*
X76535010Y-45788411D01*
X76697525Y-46031632D01*
X76904368Y-46238475D01*
X77078760Y-46355000D01*
X76904368Y-46471525D01*
X76697525Y-46678368D01*
X76535010Y-46921589D01*
X76423068Y-47191842D01*
X76366000Y-47478740D01*
X76366000Y-47771260D01*
X76423068Y-48058158D01*
X76535010Y-48328411D01*
X76697525Y-48571632D01*
X76904368Y-48778475D01*
X77078760Y-48895000D01*
X76904368Y-49011525D01*
X76697525Y-49218368D01*
X76535010Y-49461589D01*
X76423068Y-49731842D01*
X76366000Y-50018740D01*
X76366000Y-50311260D01*
X76423068Y-50598158D01*
X76535010Y-50868411D01*
X76697525Y-51111632D01*
X76904368Y-51318475D01*
X77147589Y-51480990D01*
X77417842Y-51592932D01*
X77704740Y-51650000D01*
X77997260Y-51650000D01*
X78284158Y-51592932D01*
X78554411Y-51480990D01*
X78797632Y-51318475D01*
X79004475Y-51111632D01*
X79166990Y-50868411D01*
X79278932Y-50598158D01*
X79336000Y-50311260D01*
X79336000Y-50018740D01*
X79278932Y-49731842D01*
X79166990Y-49461589D01*
X79004475Y-49218368D01*
X78797632Y-49011525D01*
X78623240Y-48895000D01*
X78797632Y-48778475D01*
X79004475Y-48571632D01*
X79166990Y-48328411D01*
X79278932Y-48058158D01*
X79336000Y-47771260D01*
X79336000Y-47478740D01*
X79278932Y-47191842D01*
X79166990Y-46921589D01*
X79004475Y-46678368D01*
X78797632Y-46471525D01*
X78623240Y-46355000D01*
X78797632Y-46238475D01*
X79004475Y-46031632D01*
X79166990Y-45788411D01*
X79278932Y-45518158D01*
X79336000Y-45231260D01*
X79336000Y-44938740D01*
X79278932Y-44651842D01*
X79166990Y-44381589D01*
X79004475Y-44138368D01*
X78797632Y-43931525D01*
X78623240Y-43815000D01*
X78797632Y-43698475D01*
X79004475Y-43491632D01*
X79166990Y-43248411D01*
X79278932Y-42978158D01*
X79336000Y-42691260D01*
X79336000Y-42398740D01*
X79278932Y-42111842D01*
X79166990Y-41841589D01*
X79004475Y-41598368D01*
X78797632Y-41391525D01*
X78623240Y-41275000D01*
X78797632Y-41158475D01*
X79004475Y-40951632D01*
X79166990Y-40708411D01*
X79278932Y-40438158D01*
X79336000Y-40151260D01*
X79336000Y-39858740D01*
X79278932Y-39571842D01*
X79166990Y-39301589D01*
X79004475Y-39058368D01*
X78797632Y-38851525D01*
X78623240Y-38735000D01*
X78797632Y-38618475D01*
X79004475Y-38411632D01*
X79166990Y-38168411D01*
X79278932Y-37898158D01*
X79336000Y-37611260D01*
X79336000Y-37318740D01*
X79278932Y-37031842D01*
X79166990Y-36761589D01*
X79004475Y-36518368D01*
X78797632Y-36311525D01*
X78623240Y-36195000D01*
X78797632Y-36078475D01*
X79004475Y-35871632D01*
X79166990Y-35628411D01*
X79278932Y-35358158D01*
X79336000Y-35071260D01*
X79336000Y-34778740D01*
X79278932Y-34491842D01*
X79166990Y-34221589D01*
X79004475Y-33978368D01*
X78797632Y-33771525D01*
X78623240Y-33655000D01*
X78797632Y-33538475D01*
X79004475Y-33331632D01*
X79166990Y-33088411D01*
X79278932Y-32818158D01*
X79336000Y-32531260D01*
X79336000Y-32238740D01*
X79278932Y-31951842D01*
X79166990Y-31681589D01*
X79004475Y-31438368D01*
X78797632Y-31231525D01*
X78623240Y-31115000D01*
X78797632Y-30998475D01*
X79004475Y-30791632D01*
X79166990Y-30548411D01*
X79278932Y-30278158D01*
X79336000Y-29991260D01*
X79336000Y-29698740D01*
X79278932Y-29411842D01*
X79166990Y-29141589D01*
X79004475Y-28898368D01*
X78872620Y-28766513D01*
X78945180Y-28744502D01*
X79055494Y-28685537D01*
X79152185Y-28606185D01*
X79231537Y-28509494D01*
X79290502Y-28399180D01*
X79326812Y-28279482D01*
X79339072Y-28155000D01*
X79339072Y-26455000D01*
X79326812Y-26330518D01*
X79290502Y-26210820D01*
X79231537Y-26100506D01*
X79152185Y-26003815D01*
X79055494Y-25924463D01*
X78945180Y-25865498D01*
X78825482Y-25829188D01*
X78701000Y-25816928D01*
X77001000Y-25816928D01*
X76876518Y-25829188D01*
X76756820Y-25865498D01*
X76646506Y-25924463D01*
X76549815Y-26003815D01*
X76470463Y-26100506D01*
X76411498Y-26210820D01*
X76375188Y-26330518D01*
X76362928Y-26455000D01*
X73716657Y-26455000D01*
X73769853Y-26326574D01*
X73825000Y-26049335D01*
X73825000Y-25766665D01*
X73769853Y-25489426D01*
X73661680Y-25228273D01*
X73504637Y-24993241D01*
X73304759Y-24793363D01*
X73069727Y-24636320D01*
X72808574Y-24528147D01*
X72531335Y-24473000D01*
X72248665Y-24473000D01*
X71971426Y-24528147D01*
X71710273Y-24636320D01*
X71475241Y-24793363D01*
X71275363Y-24993241D01*
X71118320Y-25228273D01*
X71010147Y-25489426D01*
X70955000Y-25766665D01*
X68745000Y-25766665D01*
X68689853Y-25489426D01*
X68581680Y-25228273D01*
X68424637Y-24993241D01*
X68224759Y-24793363D01*
X67989727Y-24636320D01*
X67728574Y-24528147D01*
X67451335Y-24473000D01*
X67168665Y-24473000D01*
X66891426Y-24528147D01*
X66630273Y-24636320D01*
X66395241Y-24793363D01*
X66195363Y-24993241D01*
X66038320Y-25228273D01*
X65930147Y-25489426D01*
X65875000Y-25766665D01*
X59652288Y-25766665D01*
X59654072Y-25439000D01*
X59641812Y-25314518D01*
X59605502Y-25194820D01*
X59546537Y-25084506D01*
X59467185Y-24987815D01*
X59370494Y-24908463D01*
X59260180Y-24849498D01*
X59140482Y-24813188D01*
X59016000Y-24800928D01*
X58451750Y-24804000D01*
X58293000Y-24962750D01*
X58039000Y-24962750D01*
X57880250Y-24804000D01*
X57316000Y-24800928D01*
X57191518Y-24813188D01*
X57071820Y-24849498D01*
X56961506Y-24908463D01*
X56864815Y-24987815D01*
X56785463Y-25084506D01*
X56726498Y-25194820D01*
X56704487Y-25267380D01*
X56572632Y-25135525D01*
X56329411Y-24973010D01*
X56059158Y-24861068D01*
X55772260Y-24804000D01*
X55479740Y-24804000D01*
X55192842Y-24861068D01*
X54922589Y-24973010D01*
X54679368Y-25135525D01*
X54472525Y-25342368D01*
X54356000Y-25516760D01*
X54239475Y-25342368D01*
X54032632Y-25135525D01*
X53789411Y-24973010D01*
X53519158Y-24861068D01*
X53232260Y-24804000D01*
X52939740Y-24804000D01*
X52652842Y-24861068D01*
X52382589Y-24973010D01*
X52139368Y-25135525D01*
X51932525Y-25342368D01*
X51770010Y-25585589D01*
X51658068Y-25855842D01*
X51601000Y-26142740D01*
X38772021Y-26142740D01*
X38717853Y-25870426D01*
X38609680Y-25609273D01*
X38452637Y-25374241D01*
X38252759Y-25174363D01*
X38017727Y-25017320D01*
X37756574Y-24909147D01*
X37479335Y-24854000D01*
X37196665Y-24854000D01*
X36919426Y-24909147D01*
X36658273Y-25017320D01*
X36423241Y-25174363D01*
X36223363Y-25374241D01*
X36066320Y-25609273D01*
X35958147Y-25870426D01*
X35903000Y-26147665D01*
X32309856Y-26147665D01*
X32072411Y-25989010D01*
X31802158Y-25877068D01*
X31515260Y-25820000D01*
X31222740Y-25820000D01*
X30935842Y-25877068D01*
X30665589Y-25989010D01*
X30422368Y-26151525D01*
X30215525Y-26358368D01*
X30053010Y-26601589D01*
X29941068Y-26871842D01*
X29884000Y-27158740D01*
X29884000Y-27451260D01*
X29941068Y-27738158D01*
X30053010Y-28008411D01*
X30215525Y-28251632D01*
X30422368Y-28458475D01*
X30596760Y-28575000D01*
X30422368Y-28691525D01*
X30215525Y-28898368D01*
X30053010Y-29141589D01*
X29941068Y-29411842D01*
X29884000Y-29698740D01*
X29884000Y-29991260D01*
X29941068Y-30278158D01*
X30053010Y-30548411D01*
X30215525Y-30791632D01*
X30422368Y-30998475D01*
X30596760Y-31115000D01*
X30422368Y-31231525D01*
X30215525Y-31438368D01*
X30053010Y-31681589D01*
X29941068Y-31951842D01*
X29884000Y-32238740D01*
X29884000Y-32531260D01*
X29941068Y-32818158D01*
X30053010Y-33088411D01*
X30215525Y-33331632D01*
X30422368Y-33538475D01*
X30596760Y-33655000D01*
X30422368Y-33771525D01*
X30215525Y-33978368D01*
X30053010Y-34221589D01*
X29941068Y-34491842D01*
X29884000Y-34778740D01*
X29884000Y-35071260D01*
X29941068Y-35358158D01*
X30053010Y-35628411D01*
X30215525Y-35871632D01*
X30422368Y-36078475D01*
X30596760Y-36195000D01*
X30422368Y-36311525D01*
X30215525Y-36518368D01*
X30053010Y-36761589D01*
X29941068Y-37031842D01*
X29884000Y-37318740D01*
X29884000Y-37611260D01*
X29941068Y-37898158D01*
X30053010Y-38168411D01*
X30215525Y-38411632D01*
X30422368Y-38618475D01*
X30596760Y-38735000D01*
X30422368Y-38851525D01*
X30215525Y-39058368D01*
X30053010Y-39301589D01*
X29941068Y-39571842D01*
X29884000Y-39858740D01*
X29884000Y-40151260D01*
X29941068Y-40438158D01*
X30053010Y-40708411D01*
X30215525Y-40951632D01*
X30422368Y-41158475D01*
X30596760Y-41275000D01*
X30422368Y-41391525D01*
X30215525Y-41598368D01*
X30053010Y-41841589D01*
X29941068Y-42111842D01*
X29884000Y-42398740D01*
X29884000Y-42691260D01*
X29941068Y-42978158D01*
X30053010Y-43248411D01*
X30215525Y-43491632D01*
X30422368Y-43698475D01*
X30596760Y-43815000D01*
X30422368Y-43931525D01*
X30215525Y-44138368D01*
X30053010Y-44381589D01*
X29941068Y-44651842D01*
X29884000Y-44938740D01*
X29884000Y-45231260D01*
X29941068Y-45518158D01*
X30053010Y-45788411D01*
X30215525Y-46031632D01*
X30422368Y-46238475D01*
X30596760Y-46355000D01*
X30422368Y-46471525D01*
X30215525Y-46678368D01*
X30053010Y-46921589D01*
X29941068Y-47191842D01*
X29884000Y-47478740D01*
X29884000Y-47771260D01*
X29941068Y-48058158D01*
X30053010Y-48328411D01*
X30215525Y-48571632D01*
X30347380Y-48703487D01*
X30274820Y-48725498D01*
X30164506Y-48784463D01*
X30067815Y-48863815D01*
X29988463Y-48960506D01*
X29929498Y-49070820D01*
X29893188Y-49190518D01*
X29880928Y-49315000D01*
X28219000Y-49315000D01*
X28219000Y-24409000D01*
X81001000Y-24409000D01*
X81001001Y-53061000D01*
%TA.AperFunction,Conductor*%
D20*
G36*
X81001001Y-53061000D02*
G01*
X28219000Y-53061000D01*
X28219000Y-51015000D01*
X29880928Y-51015000D01*
X29893188Y-51139482D01*
X29929498Y-51259180D01*
X29988463Y-51369494D01*
X30067815Y-51466185D01*
X30164506Y-51545537D01*
X30274820Y-51604502D01*
X30394518Y-51640812D01*
X30519000Y-51653072D01*
X31083250Y-51650000D01*
X31242000Y-51491250D01*
X31242000Y-50292000D01*
X31496000Y-50292000D01*
X31496000Y-51491250D01*
X31654750Y-51650000D01*
X32219000Y-51653072D01*
X32343482Y-51640812D01*
X32463180Y-51604502D01*
X32573494Y-51545537D01*
X32670185Y-51466185D01*
X32749537Y-51369494D01*
X32808502Y-51259180D01*
X32844812Y-51139482D01*
X32857072Y-51015000D01*
X32854000Y-50450750D01*
X32695250Y-50292000D01*
X31496000Y-50292000D01*
X31242000Y-50292000D01*
X30042750Y-50292000D01*
X29884000Y-50450750D01*
X29880928Y-51015000D01*
X28219000Y-51015000D01*
X28219000Y-49315000D01*
X29880928Y-49315000D01*
X29884000Y-49879250D01*
X30042750Y-50038000D01*
X31242000Y-50038000D01*
X31242000Y-50018000D01*
X31496000Y-50018000D01*
X31496000Y-50038000D01*
X32695250Y-50038000D01*
X32854000Y-49879250D01*
X32855689Y-49569000D01*
X40294928Y-49569000D01*
X40294928Y-51269000D01*
X40307188Y-51393482D01*
X40343498Y-51513180D01*
X40402463Y-51623494D01*
X40481815Y-51720185D01*
X40578506Y-51799537D01*
X40688820Y-51858502D01*
X40808518Y-51894812D01*
X40933000Y-51907072D01*
X42633000Y-51907072D01*
X42757482Y-51894812D01*
X42877180Y-51858502D01*
X42987494Y-51799537D01*
X43084185Y-51720185D01*
X43163537Y-51623494D01*
X43222502Y-51513180D01*
X43246966Y-51432534D01*
X43322731Y-51516588D01*
X43556080Y-51690641D01*
X43818901Y-51815825D01*
X43966110Y-51860476D01*
X44196000Y-51739155D01*
X44196000Y-50546000D01*
X44176000Y-50546000D01*
X44176000Y-50292000D01*
X44196000Y-50292000D01*
X44196000Y-49098845D01*
X44450000Y-49098845D01*
X44450000Y-50292000D01*
X44470000Y-50292000D01*
X44470000Y-50546000D01*
X44450000Y-50546000D01*
X44450000Y-51739155D01*
X44679890Y-51860476D01*
X44827099Y-51815825D01*
X45089920Y-51690641D01*
X45323269Y-51516588D01*
X45518178Y-51300355D01*
X45587805Y-51183466D01*
X45709525Y-51365632D01*
X45916368Y-51572475D01*
X46159589Y-51734990D01*
X46429842Y-51846932D01*
X46716740Y-51904000D01*
X47009260Y-51904000D01*
X47296158Y-51846932D01*
X47566411Y-51734990D01*
X47809632Y-51572475D01*
X48016475Y-51365632D01*
X48178990Y-51122411D01*
X48290932Y-50852158D01*
X48348000Y-50565260D01*
X48348000Y-50272740D01*
X48290932Y-49985842D01*
X48178990Y-49715589D01*
X48016475Y-49472368D01*
X47818152Y-49274045D01*
X63608000Y-49274045D01*
X63608000Y-49527955D01*
X63657535Y-49776987D01*
X63754703Y-50011570D01*
X63895768Y-50222690D01*
X64075310Y-50402232D01*
X64286430Y-50543297D01*
X64521013Y-50640465D01*
X64770045Y-50690000D01*
X65023955Y-50690000D01*
X65272987Y-50640465D01*
X65507570Y-50543297D01*
X65718690Y-50402232D01*
X65898232Y-50222690D01*
X66039297Y-50011570D01*
X66136465Y-49776987D01*
X66167000Y-49623476D01*
X66197535Y-49776987D01*
X66294703Y-50011570D01*
X66435768Y-50222690D01*
X66615310Y-50402232D01*
X66826430Y-50543297D01*
X67061013Y-50640465D01*
X67310045Y-50690000D01*
X67563955Y-50690000D01*
X67812987Y-50640465D01*
X68047570Y-50543297D01*
X68258690Y-50402232D01*
X68438232Y-50222690D01*
X68579297Y-50011570D01*
X68676465Y-49776987D01*
X68707000Y-49623476D01*
X68737535Y-49776987D01*
X68834703Y-50011570D01*
X68975768Y-50222690D01*
X69155310Y-50402232D01*
X69366430Y-50543297D01*
X69601013Y-50640465D01*
X69850045Y-50690000D01*
X70103955Y-50690000D01*
X70352987Y-50640465D01*
X70587570Y-50543297D01*
X70798690Y-50402232D01*
X70978232Y-50222690D01*
X71119297Y-50011570D01*
X71216465Y-49776987D01*
X71247000Y-49623476D01*
X71277535Y-49776987D01*
X71374703Y-50011570D01*
X71515768Y-50222690D01*
X71695310Y-50402232D01*
X71906430Y-50543297D01*
X72141013Y-50640465D01*
X72390045Y-50690000D01*
X72643955Y-50690000D01*
X72892987Y-50640465D01*
X73127570Y-50543297D01*
X73338690Y-50402232D01*
X73518232Y-50222690D01*
X73659297Y-50011570D01*
X73756465Y-49776987D01*
X73806000Y-49527955D01*
X73806000Y-49274045D01*
X73756465Y-49025013D01*
X73659297Y-48790430D01*
X73518232Y-48579310D01*
X73338690Y-48399768D01*
X73127570Y-48258703D01*
X72892987Y-48161535D01*
X72643955Y-48112000D01*
X72390045Y-48112000D01*
X72141013Y-48161535D01*
X71906430Y-48258703D01*
X71695310Y-48399768D01*
X71515768Y-48579310D01*
X71374703Y-48790430D01*
X71277535Y-49025013D01*
X71247000Y-49178524D01*
X71216465Y-49025013D01*
X71119297Y-48790430D01*
X70978232Y-48579310D01*
X70798690Y-48399768D01*
X70587570Y-48258703D01*
X70352987Y-48161535D01*
X70103955Y-48112000D01*
X69850045Y-48112000D01*
X69601013Y-48161535D01*
X69366430Y-48258703D01*
X69155310Y-48399768D01*
X68975768Y-48579310D01*
X68834703Y-48790430D01*
X68737535Y-49025013D01*
X68707000Y-49178524D01*
X68676465Y-49025013D01*
X68579297Y-48790430D01*
X68438232Y-48579310D01*
X68258690Y-48399768D01*
X68047570Y-48258703D01*
X67812987Y-48161535D01*
X67563955Y-48112000D01*
X67310045Y-48112000D01*
X67061013Y-48161535D01*
X66826430Y-48258703D01*
X66615310Y-48399768D01*
X66435768Y-48579310D01*
X66294703Y-48790430D01*
X66197535Y-49025013D01*
X66167000Y-49178524D01*
X66136465Y-49025013D01*
X66039297Y-48790430D01*
X65898232Y-48579310D01*
X65718690Y-48399768D01*
X65507570Y-48258703D01*
X65272987Y-48161535D01*
X65023955Y-48112000D01*
X64770045Y-48112000D01*
X64521013Y-48161535D01*
X64286430Y-48258703D01*
X64075310Y-48399768D01*
X63895768Y-48579310D01*
X63754703Y-48790430D01*
X63657535Y-49025013D01*
X63608000Y-49274045D01*
X47818152Y-49274045D01*
X47809632Y-49265525D01*
X47566411Y-49103010D01*
X47296158Y-48991068D01*
X47009260Y-48934000D01*
X46716740Y-48934000D01*
X46429842Y-48991068D01*
X46159589Y-49103010D01*
X45916368Y-49265525D01*
X45709525Y-49472368D01*
X45587805Y-49654534D01*
X45518178Y-49537645D01*
X45323269Y-49321412D01*
X45089920Y-49147359D01*
X44827099Y-49022175D01*
X44679890Y-48977524D01*
X44450000Y-49098845D01*
X44196000Y-49098845D01*
X43966110Y-48977524D01*
X43818901Y-49022175D01*
X43556080Y-49147359D01*
X43322731Y-49321412D01*
X43246966Y-49405466D01*
X43222502Y-49324820D01*
X43163537Y-49214506D01*
X43084185Y-49117815D01*
X42987494Y-49038463D01*
X42877180Y-48979498D01*
X42757482Y-48943188D01*
X42633000Y-48930928D01*
X40933000Y-48930928D01*
X40808518Y-48943188D01*
X40688820Y-48979498D01*
X40578506Y-49038463D01*
X40481815Y-49117815D01*
X40402463Y-49214506D01*
X40343498Y-49324820D01*
X40307188Y-49444518D01*
X40294928Y-49569000D01*
X32855689Y-49569000D01*
X32857072Y-49315000D01*
X32844812Y-49190518D01*
X32808502Y-49070820D01*
X32749537Y-48960506D01*
X32670185Y-48863815D01*
X32573494Y-48784463D01*
X32463180Y-48725498D01*
X32390620Y-48703487D01*
X32522475Y-48571632D01*
X32684990Y-48328411D01*
X32796932Y-48058158D01*
X32854000Y-47771260D01*
X32854000Y-47478740D01*
X32796932Y-47191842D01*
X32684990Y-46921589D01*
X32522475Y-46678368D01*
X32438772Y-46594665D01*
X35395000Y-46594665D01*
X35395000Y-46877335D01*
X35450147Y-47154574D01*
X35558320Y-47415727D01*
X35715363Y-47650759D01*
X35915241Y-47850637D01*
X36150273Y-48007680D01*
X36411426Y-48115853D01*
X36688665Y-48171000D01*
X36971335Y-48171000D01*
X37248574Y-48115853D01*
X37509727Y-48007680D01*
X37744759Y-47850637D01*
X37825525Y-47769872D01*
X37900630Y-47844977D01*
X38016903Y-47728704D01*
X38088486Y-47972671D01*
X38343996Y-48093571D01*
X38618184Y-48162300D01*
X38900512Y-48176217D01*
X39180130Y-48134787D01*
X39446292Y-48039603D01*
X39571514Y-47972671D01*
X39643097Y-47728702D01*
X39525060Y-47610665D01*
X49746000Y-47610665D01*
X49746000Y-47893335D01*
X49801147Y-48170574D01*
X49909320Y-48431727D01*
X50066363Y-48666759D01*
X50266241Y-48866637D01*
X50501273Y-49023680D01*
X50762426Y-49131853D01*
X51039665Y-49187000D01*
X51322335Y-49187000D01*
X51599574Y-49131853D01*
X51860727Y-49023680D01*
X52095759Y-48866637D01*
X52295637Y-48666759D01*
X52452680Y-48431727D01*
X52560853Y-48170574D01*
X52574684Y-48101039D01*
X59949096Y-48101039D01*
X59989754Y-48235087D01*
X60109963Y-48489420D01*
X60277481Y-48715414D01*
X60485869Y-48904385D01*
X60727119Y-49049070D01*
X60991960Y-49143909D01*
X61214000Y-49022624D01*
X61214000Y-47879000D01*
X61468000Y-47879000D01*
X61468000Y-49022624D01*
X61690040Y-49143909D01*
X61954881Y-49049070D01*
X62196131Y-48904385D01*
X62404519Y-48715414D01*
X62572037Y-48489420D01*
X62692246Y-48235087D01*
X62732904Y-48101039D01*
X62610915Y-47879000D01*
X61468000Y-47879000D01*
X61214000Y-47879000D01*
X60071085Y-47879000D01*
X59949096Y-48101039D01*
X52574684Y-48101039D01*
X52616000Y-47893335D01*
X52616000Y-47610665D01*
X52574685Y-47402961D01*
X59949096Y-47402961D01*
X60071085Y-47625000D01*
X61214000Y-47625000D01*
X61214000Y-46481376D01*
X61468000Y-46481376D01*
X61468000Y-47625000D01*
X62610915Y-47625000D01*
X62732904Y-47402961D01*
X62692246Y-47268913D01*
X62572037Y-47014580D01*
X62404519Y-46788586D01*
X62196131Y-46599615D01*
X61954881Y-46454930D01*
X61690040Y-46360091D01*
X61468000Y-46481376D01*
X61214000Y-46481376D01*
X60991960Y-46360091D01*
X60727119Y-46454930D01*
X60485869Y-46599615D01*
X60277481Y-46788586D01*
X60109963Y-47014580D01*
X59989754Y-47268913D01*
X59949096Y-47402961D01*
X52574685Y-47402961D01*
X52560853Y-47333426D01*
X52452680Y-47072273D01*
X52295637Y-46837241D01*
X52095759Y-46637363D01*
X51860727Y-46480320D01*
X51599574Y-46372147D01*
X51322335Y-46317000D01*
X51039665Y-46317000D01*
X50762426Y-46372147D01*
X50501273Y-46480320D01*
X50266241Y-46637363D01*
X50066363Y-46837241D01*
X49909320Y-47072273D01*
X49801147Y-47333426D01*
X49746000Y-47610665D01*
X39525060Y-47610665D01*
X38830000Y-46915605D01*
X38815858Y-46929748D01*
X38636253Y-46750143D01*
X38650395Y-46736000D01*
X39009605Y-46736000D01*
X39822702Y-47549097D01*
X40066671Y-47477514D01*
X40187571Y-47222004D01*
X40256300Y-46947816D01*
X40270217Y-46665488D01*
X40228787Y-46385870D01*
X40133603Y-46119708D01*
X40066671Y-45994486D01*
X39822702Y-45922903D01*
X39009605Y-46736000D01*
X38650395Y-46736000D01*
X38636253Y-46721858D01*
X38815858Y-46542253D01*
X38830000Y-46556395D01*
X39643097Y-45743298D01*
X39571514Y-45499329D01*
X39316004Y-45378429D01*
X39041816Y-45309700D01*
X38759488Y-45295783D01*
X38479870Y-45337213D01*
X38213708Y-45432397D01*
X38088486Y-45499329D01*
X38016903Y-45743296D01*
X37900630Y-45627023D01*
X37825525Y-45702129D01*
X37744759Y-45621363D01*
X37509727Y-45464320D01*
X37248574Y-45356147D01*
X36971335Y-45301000D01*
X36688665Y-45301000D01*
X36411426Y-45356147D01*
X36150273Y-45464320D01*
X35915241Y-45621363D01*
X35715363Y-45821241D01*
X35558320Y-46056273D01*
X35450147Y-46317426D01*
X35395000Y-46594665D01*
X32438772Y-46594665D01*
X32315632Y-46471525D01*
X32141240Y-46355000D01*
X32315632Y-46238475D01*
X32522475Y-46031632D01*
X32684990Y-45788411D01*
X32796932Y-45518158D01*
X32854000Y-45231260D01*
X32854000Y-44938740D01*
X32796932Y-44651842D01*
X32707389Y-44435665D01*
X49746000Y-44435665D01*
X49746000Y-44718335D01*
X49801147Y-44995574D01*
X49909320Y-45256727D01*
X50066363Y-45491759D01*
X50266241Y-45691637D01*
X50501273Y-45848680D01*
X50762426Y-45956853D01*
X51039665Y-46012000D01*
X51322335Y-46012000D01*
X51599574Y-45956853D01*
X51860727Y-45848680D01*
X52095759Y-45691637D01*
X52295637Y-45491759D01*
X52452680Y-45256727D01*
X52560853Y-44995574D01*
X52616000Y-44718335D01*
X52616000Y-44435665D01*
X59906000Y-44435665D01*
X59906000Y-44718335D01*
X59961147Y-44995574D01*
X60069320Y-45256727D01*
X60226363Y-45491759D01*
X60426241Y-45691637D01*
X60661273Y-45848680D01*
X60922426Y-45956853D01*
X61199665Y-46012000D01*
X61482335Y-46012000D01*
X61759574Y-45956853D01*
X62020727Y-45848680D01*
X62255759Y-45691637D01*
X62455637Y-45491759D01*
X62612680Y-45256727D01*
X62720853Y-44995574D01*
X62776000Y-44718335D01*
X62776000Y-44435665D01*
X62720853Y-44158426D01*
X62612680Y-43897273D01*
X62455637Y-43662241D01*
X62255759Y-43462363D01*
X62020727Y-43305320D01*
X61759574Y-43197147D01*
X61482335Y-43142000D01*
X61199665Y-43142000D01*
X60922426Y-43197147D01*
X60661273Y-43305320D01*
X60426241Y-43462363D01*
X60226363Y-43662241D01*
X60069320Y-43897273D01*
X59961147Y-44158426D01*
X59906000Y-44435665D01*
X52616000Y-44435665D01*
X52560853Y-44158426D01*
X52452680Y-43897273D01*
X52295637Y-43662241D01*
X52095759Y-43462363D01*
X51860727Y-43305320D01*
X51599574Y-43197147D01*
X51322335Y-43142000D01*
X51039665Y-43142000D01*
X50762426Y-43197147D01*
X50501273Y-43305320D01*
X50266241Y-43462363D01*
X50066363Y-43662241D01*
X49909320Y-43897273D01*
X49801147Y-44158426D01*
X49746000Y-44435665D01*
X32707389Y-44435665D01*
X32684990Y-44381589D01*
X32522475Y-44138368D01*
X32315632Y-43931525D01*
X32141240Y-43815000D01*
X32315632Y-43698475D01*
X32522475Y-43491632D01*
X32684990Y-43248411D01*
X32796932Y-42978158D01*
X32854000Y-42691260D01*
X32854000Y-42398740D01*
X32796932Y-42111842D01*
X32684990Y-41841589D01*
X32522475Y-41598368D01*
X32315632Y-41391525D01*
X32141240Y-41275000D01*
X32315632Y-41158475D01*
X32522475Y-40951632D01*
X32684990Y-40708411D01*
X32727423Y-40605967D01*
X34687000Y-40605967D01*
X34687000Y-40928033D01*
X34749832Y-41243912D01*
X34873082Y-41541463D01*
X35052013Y-41809252D01*
X35279748Y-42036987D01*
X35547537Y-42215918D01*
X35845088Y-42339168D01*
X36160967Y-42402000D01*
X36483033Y-42402000D01*
X36798912Y-42339168D01*
X37096463Y-42215918D01*
X37364252Y-42036987D01*
X37498826Y-41902413D01*
X40366192Y-41902413D01*
X40461956Y-42166814D01*
X40751571Y-42307704D01*
X41063108Y-42389384D01*
X41384595Y-42408718D01*
X41703675Y-42364961D01*
X42008088Y-42259795D01*
X42182044Y-42166814D01*
X42277808Y-41902413D01*
X41322000Y-40946605D01*
X40366192Y-41902413D01*
X37498826Y-41902413D01*
X37591987Y-41809252D01*
X37770918Y-41541463D01*
X37894168Y-41243912D01*
X37957000Y-40928033D01*
X37957000Y-40829595D01*
X39680282Y-40829595D01*
X39724039Y-41148675D01*
X39829205Y-41453088D01*
X39922186Y-41627044D01*
X40186587Y-41722808D01*
X41142395Y-40767000D01*
X41501605Y-40767000D01*
X42457413Y-41722808D01*
X42721814Y-41627044D01*
X42862704Y-41337429D01*
X42944384Y-41025892D01*
X42963718Y-40704405D01*
X42919961Y-40385325D01*
X42814795Y-40080912D01*
X42721814Y-39906956D01*
X42457413Y-39811192D01*
X41501605Y-40767000D01*
X41142395Y-40767000D01*
X40186587Y-39811192D01*
X39922186Y-39906956D01*
X39781296Y-40196571D01*
X39699616Y-40508108D01*
X39680282Y-40829595D01*
X37957000Y-40829595D01*
X37957000Y-40605967D01*
X37894168Y-40290088D01*
X37770918Y-39992537D01*
X37591987Y-39724748D01*
X37498826Y-39631587D01*
X40366192Y-39631587D01*
X41322000Y-40587395D01*
X42277808Y-39631587D01*
X42182044Y-39367186D01*
X41892429Y-39226296D01*
X41580892Y-39144616D01*
X41259405Y-39125282D01*
X40940325Y-39169039D01*
X40635912Y-39274205D01*
X40461956Y-39367186D01*
X40366192Y-39631587D01*
X37498826Y-39631587D01*
X37364252Y-39497013D01*
X37096463Y-39318082D01*
X36798912Y-39194832D01*
X36483033Y-39132000D01*
X36160967Y-39132000D01*
X35845088Y-39194832D01*
X35547537Y-39318082D01*
X35279748Y-39497013D01*
X35052013Y-39724748D01*
X34873082Y-39992537D01*
X34749832Y-40290088D01*
X34687000Y-40605967D01*
X32727423Y-40605967D01*
X32796932Y-40438158D01*
X32854000Y-40151260D01*
X32854000Y-39858740D01*
X32796932Y-39571842D01*
X32684990Y-39301589D01*
X32522475Y-39058368D01*
X32315632Y-38851525D01*
X32141240Y-38735000D01*
X32315632Y-38618475D01*
X32522475Y-38411632D01*
X32684990Y-38168411D01*
X32796932Y-37898158D01*
X32854000Y-37611260D01*
X32854000Y-37318740D01*
X32796932Y-37031842D01*
X32684990Y-36761589D01*
X32522475Y-36518368D01*
X32315632Y-36311525D01*
X32309856Y-36307665D01*
X35903000Y-36307665D01*
X35903000Y-36590335D01*
X35958147Y-36867574D01*
X36066320Y-37128727D01*
X36223363Y-37363759D01*
X36423241Y-37563637D01*
X36658273Y-37720680D01*
X36919426Y-37828853D01*
X37196665Y-37884000D01*
X37479335Y-37884000D01*
X37756574Y-37828853D01*
X38017727Y-37720680D01*
X38252759Y-37563637D01*
X38452637Y-37363759D01*
X38609680Y-37128727D01*
X38717853Y-36867574D01*
X38773000Y-36590335D01*
X38773000Y-36307665D01*
X38717853Y-36030426D01*
X38644361Y-35853000D01*
X45374928Y-35853000D01*
X45374928Y-37553000D01*
X45387188Y-37677482D01*
X45423498Y-37797180D01*
X45482463Y-37907494D01*
X45561815Y-38004185D01*
X45658506Y-38083537D01*
X45768820Y-38142502D01*
X45841380Y-38164513D01*
X45709525Y-38296368D01*
X45547010Y-38539589D01*
X45435068Y-38809842D01*
X45378000Y-39096740D01*
X45378000Y-39389260D01*
X45435068Y-39676158D01*
X45547010Y-39946411D01*
X45709525Y-40189632D01*
X45916368Y-40396475D01*
X46090760Y-40513000D01*
X45916368Y-40629525D01*
X45709525Y-40836368D01*
X45547010Y-41079589D01*
X45435068Y-41349842D01*
X45378000Y-41636740D01*
X45378000Y-41929260D01*
X45435068Y-42216158D01*
X45547010Y-42486411D01*
X45709525Y-42729632D01*
X45916368Y-42936475D01*
X46159589Y-43098990D01*
X46429842Y-43210932D01*
X46716740Y-43268000D01*
X47009260Y-43268000D01*
X47296158Y-43210932D01*
X47566411Y-43098990D01*
X47809632Y-42936475D01*
X48016475Y-42729632D01*
X48178990Y-42486411D01*
X48206752Y-42419387D01*
X64188218Y-42419387D01*
X64242093Y-42648468D01*
X64472684Y-42754763D01*
X64719581Y-42814028D01*
X64973296Y-42823988D01*
X65224079Y-42784259D01*
X65462293Y-42696368D01*
X65551907Y-42648468D01*
X65605782Y-42419387D01*
X64897000Y-41710605D01*
X64188218Y-42419387D01*
X48206752Y-42419387D01*
X48290932Y-42216158D01*
X48348000Y-41929260D01*
X48348000Y-41636740D01*
X48342144Y-41607296D01*
X63604012Y-41607296D01*
X63643741Y-41858079D01*
X63731632Y-42096293D01*
X63779532Y-42185907D01*
X64008613Y-42239782D01*
X64717395Y-41531000D01*
X65076605Y-41531000D01*
X65785387Y-42239782D01*
X66014468Y-42185907D01*
X66120763Y-41955316D01*
X66168003Y-41758516D01*
X66197535Y-41906987D01*
X66294703Y-42141570D01*
X66435768Y-42352690D01*
X66615310Y-42532232D01*
X66826430Y-42673297D01*
X67061013Y-42770465D01*
X67310045Y-42820000D01*
X67563955Y-42820000D01*
X67812987Y-42770465D01*
X68047570Y-42673297D01*
X68258690Y-42532232D01*
X68438232Y-42352690D01*
X68579297Y-42141570D01*
X68676465Y-41906987D01*
X68707000Y-41753476D01*
X68737535Y-41906987D01*
X68834703Y-42141570D01*
X68975768Y-42352690D01*
X69155310Y-42532232D01*
X69366430Y-42673297D01*
X69601013Y-42770465D01*
X69850045Y-42820000D01*
X70103955Y-42820000D01*
X70352987Y-42770465D01*
X70587570Y-42673297D01*
X70798690Y-42532232D01*
X70978232Y-42352690D01*
X71119297Y-42141570D01*
X71216465Y-41906987D01*
X71224928Y-41864440D01*
X71224928Y-42185000D01*
X71237188Y-42309482D01*
X71273498Y-42429180D01*
X71332463Y-42539494D01*
X71411815Y-42636185D01*
X71508506Y-42715537D01*
X71618820Y-42774502D01*
X71738518Y-42810812D01*
X71863000Y-42823072D01*
X73171000Y-42823072D01*
X73295482Y-42810812D01*
X73415180Y-42774502D01*
X73525494Y-42715537D01*
X73622185Y-42636185D01*
X73701537Y-42539494D01*
X73760502Y-42429180D01*
X73796812Y-42309482D01*
X73809072Y-42185000D01*
X73809072Y-40877000D01*
X73796812Y-40752518D01*
X73760502Y-40632820D01*
X73701537Y-40522506D01*
X73622185Y-40425815D01*
X73525494Y-40346463D01*
X73415180Y-40287498D01*
X73295482Y-40251188D01*
X73171000Y-40238928D01*
X71863000Y-40238928D01*
X71738518Y-40251188D01*
X71618820Y-40287498D01*
X71508506Y-40346463D01*
X71411815Y-40425815D01*
X71332463Y-40522506D01*
X71273498Y-40632820D01*
X71237188Y-40752518D01*
X71224928Y-40877000D01*
X71224928Y-41197560D01*
X71216465Y-41155013D01*
X71119297Y-40920430D01*
X70978232Y-40709310D01*
X70798690Y-40529768D01*
X70587570Y-40388703D01*
X70352987Y-40291535D01*
X70103955Y-40242000D01*
X69850045Y-40242000D01*
X69601013Y-40291535D01*
X69366430Y-40388703D01*
X69155310Y-40529768D01*
X68975768Y-40709310D01*
X68834703Y-40920430D01*
X68737535Y-41155013D01*
X68707000Y-41308524D01*
X68676465Y-41155013D01*
X68579297Y-40920430D01*
X68438232Y-40709310D01*
X68258690Y-40529768D01*
X68047570Y-40388703D01*
X67812987Y-40291535D01*
X67563955Y-40242000D01*
X67310045Y-40242000D01*
X67061013Y-40291535D01*
X66826430Y-40388703D01*
X66615310Y-40529768D01*
X66435768Y-40709310D01*
X66294703Y-40920430D01*
X66197535Y-41155013D01*
X66166906Y-41308999D01*
X66150259Y-41203921D01*
X66062368Y-40965707D01*
X66014468Y-40876093D01*
X65785387Y-40822218D01*
X65076605Y-41531000D01*
X64717395Y-41531000D01*
X64008613Y-40822218D01*
X63779532Y-40876093D01*
X63673237Y-41106684D01*
X63613972Y-41353581D01*
X63604012Y-41607296D01*
X48342144Y-41607296D01*
X48290932Y-41349842D01*
X48178990Y-41079589D01*
X48016475Y-40836368D01*
X47822720Y-40642613D01*
X64188218Y-40642613D01*
X64897000Y-41351395D01*
X65605782Y-40642613D01*
X65551907Y-40413532D01*
X65321316Y-40307237D01*
X65074419Y-40247972D01*
X64820704Y-40238012D01*
X64569921Y-40277741D01*
X64331707Y-40365632D01*
X64242093Y-40413532D01*
X64188218Y-40642613D01*
X47822720Y-40642613D01*
X47809632Y-40629525D01*
X47635240Y-40513000D01*
X47809632Y-40396475D01*
X48016475Y-40189632D01*
X48178990Y-39946411D01*
X48290932Y-39676158D01*
X48348000Y-39389260D01*
X48348000Y-39096740D01*
X48290932Y-38809842D01*
X48178990Y-38539589D01*
X48016475Y-38296368D01*
X47884620Y-38164513D01*
X47957180Y-38142502D01*
X48067494Y-38083537D01*
X48164185Y-38004185D01*
X48243537Y-37907494D01*
X48302502Y-37797180D01*
X48338812Y-37677482D01*
X48351072Y-37553000D01*
X48351072Y-35853000D01*
X48338812Y-35728518D01*
X48302502Y-35608820D01*
X48243537Y-35498506D01*
X48164185Y-35401815D01*
X48067494Y-35322463D01*
X47976901Y-35274039D01*
X49662096Y-35274039D01*
X49702754Y-35408087D01*
X49822963Y-35662420D01*
X49990481Y-35888414D01*
X50198869Y-36077385D01*
X50440119Y-36222070D01*
X50704960Y-36316909D01*
X50927000Y-36195624D01*
X50927000Y-35052000D01*
X51181000Y-35052000D01*
X51181000Y-36195624D01*
X51403040Y-36316909D01*
X51667881Y-36222070D01*
X51909131Y-36077385D01*
X52117519Y-35888414D01*
X52285037Y-35662420D01*
X52405246Y-35408087D01*
X52445904Y-35274039D01*
X52323915Y-35052000D01*
X51181000Y-35052000D01*
X50927000Y-35052000D01*
X49784085Y-35052000D01*
X49662096Y-35274039D01*
X47976901Y-35274039D01*
X47957180Y-35263498D01*
X47837482Y-35227188D01*
X47713000Y-35214928D01*
X46013000Y-35214928D01*
X45888518Y-35227188D01*
X45768820Y-35263498D01*
X45658506Y-35322463D01*
X45561815Y-35401815D01*
X45482463Y-35498506D01*
X45423498Y-35608820D01*
X45387188Y-35728518D01*
X45374928Y-35853000D01*
X38644361Y-35853000D01*
X38609680Y-35769273D01*
X38452637Y-35534241D01*
X38252759Y-35334363D01*
X38017727Y-35177320D01*
X37756574Y-35069147D01*
X37479335Y-35014000D01*
X37196665Y-35014000D01*
X36919426Y-35069147D01*
X36658273Y-35177320D01*
X36423241Y-35334363D01*
X36223363Y-35534241D01*
X36066320Y-35769273D01*
X35958147Y-36030426D01*
X35903000Y-36307665D01*
X32309856Y-36307665D01*
X32141240Y-36195000D01*
X32315632Y-36078475D01*
X32522475Y-35871632D01*
X32684990Y-35628411D01*
X32796932Y-35358158D01*
X32854000Y-35071260D01*
X32854000Y-34778740D01*
X32813665Y-34575961D01*
X49662096Y-34575961D01*
X49784085Y-34798000D01*
X50927000Y-34798000D01*
X50927000Y-33654376D01*
X51181000Y-33654376D01*
X51181000Y-34798000D01*
X52323915Y-34798000D01*
X52331790Y-34783665D01*
X59779000Y-34783665D01*
X59779000Y-35066335D01*
X59834147Y-35343574D01*
X59942320Y-35604727D01*
X60099363Y-35839759D01*
X60299241Y-36039637D01*
X60534273Y-36196680D01*
X60795426Y-36304853D01*
X61072665Y-36360000D01*
X61355335Y-36360000D01*
X61632574Y-36304853D01*
X61893727Y-36196680D01*
X62128759Y-36039637D01*
X62241731Y-35926665D01*
X65875000Y-35926665D01*
X65875000Y-36209335D01*
X65930147Y-36486574D01*
X66038320Y-36747727D01*
X66195363Y-36982759D01*
X66395241Y-37182637D01*
X66630273Y-37339680D01*
X66891426Y-37447853D01*
X67168665Y-37503000D01*
X67451335Y-37503000D01*
X67728574Y-37447853D01*
X67989727Y-37339680D01*
X68224759Y-37182637D01*
X68424637Y-36982759D01*
X68581680Y-36747727D01*
X68689853Y-36486574D01*
X68745000Y-36209335D01*
X68745000Y-35926665D01*
X70955000Y-35926665D01*
X70955000Y-36209335D01*
X71010147Y-36486574D01*
X71118320Y-36747727D01*
X71275363Y-36982759D01*
X71475241Y-37182637D01*
X71710273Y-37339680D01*
X71971426Y-37447853D01*
X72248665Y-37503000D01*
X72531335Y-37503000D01*
X72808574Y-37447853D01*
X73069727Y-37339680D01*
X73304759Y-37182637D01*
X73504637Y-36982759D01*
X73661680Y-36747727D01*
X73769853Y-36486574D01*
X73825000Y-36209335D01*
X73825000Y-35926665D01*
X73769853Y-35649426D01*
X73661680Y-35388273D01*
X73504637Y-35153241D01*
X73304759Y-34953363D01*
X73069727Y-34796320D01*
X72808574Y-34688147D01*
X72531335Y-34633000D01*
X72248665Y-34633000D01*
X71971426Y-34688147D01*
X71710273Y-34796320D01*
X71475241Y-34953363D01*
X71275363Y-35153241D01*
X71118320Y-35388273D01*
X71010147Y-35649426D01*
X70955000Y-35926665D01*
X68745000Y-35926665D01*
X68689853Y-35649426D01*
X68581680Y-35388273D01*
X68424637Y-35153241D01*
X68224759Y-34953363D01*
X67989727Y-34796320D01*
X67728574Y-34688147D01*
X67451335Y-34633000D01*
X67168665Y-34633000D01*
X66891426Y-34688147D01*
X66630273Y-34796320D01*
X66395241Y-34953363D01*
X66195363Y-35153241D01*
X66038320Y-35388273D01*
X65930147Y-35649426D01*
X65875000Y-35926665D01*
X62241731Y-35926665D01*
X62328637Y-35839759D01*
X62485680Y-35604727D01*
X62593853Y-35343574D01*
X62649000Y-35066335D01*
X62649000Y-34783665D01*
X62593853Y-34506426D01*
X62485680Y-34245273D01*
X62328637Y-34010241D01*
X62128759Y-33810363D01*
X61893727Y-33653320D01*
X61632574Y-33545147D01*
X61355335Y-33490000D01*
X61072665Y-33490000D01*
X60795426Y-33545147D01*
X60534273Y-33653320D01*
X60299241Y-33810363D01*
X60099363Y-34010241D01*
X59942320Y-34245273D01*
X59834147Y-34506426D01*
X59779000Y-34783665D01*
X52331790Y-34783665D01*
X52445904Y-34575961D01*
X52405246Y-34441913D01*
X52285037Y-34187580D01*
X52117519Y-33961586D01*
X51909131Y-33772615D01*
X51667881Y-33627930D01*
X51403040Y-33533091D01*
X51181000Y-33654376D01*
X50927000Y-33654376D01*
X50704960Y-33533091D01*
X50440119Y-33627930D01*
X50198869Y-33772615D01*
X49990481Y-33961586D01*
X49822963Y-34187580D01*
X49702754Y-34441913D01*
X49662096Y-34575961D01*
X32813665Y-34575961D01*
X32796932Y-34491842D01*
X32684990Y-34221589D01*
X32522475Y-33978368D01*
X32315632Y-33771525D01*
X32141240Y-33655000D01*
X32315632Y-33538475D01*
X32522475Y-33331632D01*
X32684990Y-33088411D01*
X32796932Y-32818158D01*
X32854000Y-32531260D01*
X32854000Y-32238740D01*
X32796932Y-31951842D01*
X32684990Y-31681589D01*
X32522475Y-31438368D01*
X32382614Y-31298507D01*
X40235669Y-31298507D01*
X40274761Y-31524404D01*
X40357172Y-31738334D01*
X40479736Y-31932076D01*
X40637742Y-32098184D01*
X40825118Y-32230275D01*
X41034663Y-32323272D01*
X41096190Y-32331964D01*
X41275000Y-32206163D01*
X41275000Y-31115000D01*
X40395402Y-31115000D01*
X40235669Y-31298507D01*
X32382614Y-31298507D01*
X32315632Y-31231525D01*
X32141240Y-31115000D01*
X32315632Y-30998475D01*
X32522475Y-30791632D01*
X32598740Y-30677493D01*
X40235669Y-30677493D01*
X40395402Y-30861000D01*
X41275000Y-30861000D01*
X41275000Y-30706021D01*
X41512000Y-30706021D01*
X41512000Y-31269978D01*
X41528785Y-31440399D01*
X41529000Y-31441108D01*
X41529000Y-32206163D01*
X41707810Y-32331964D01*
X41769337Y-32323272D01*
X41978882Y-32230275D01*
X42037331Y-32189071D01*
X42225940Y-32289885D01*
X42444600Y-32356215D01*
X42672000Y-32378612D01*
X42899399Y-32356215D01*
X43108098Y-32292907D01*
X43172820Y-32327502D01*
X43292518Y-32363812D01*
X43417000Y-32376072D01*
X44467000Y-32376072D01*
X44591482Y-32363812D01*
X44711180Y-32327502D01*
X44821494Y-32268537D01*
X44918185Y-32189185D01*
X44997537Y-32092494D01*
X45056502Y-31982180D01*
X45092812Y-31862482D01*
X45105072Y-31738000D01*
X45105072Y-31608665D01*
X49619000Y-31608665D01*
X49619000Y-31891335D01*
X49674147Y-32168574D01*
X49782320Y-32429727D01*
X49939363Y-32664759D01*
X50139241Y-32864637D01*
X50374273Y-33021680D01*
X50635426Y-33129853D01*
X50912665Y-33185000D01*
X51195335Y-33185000D01*
X51472574Y-33129853D01*
X51733727Y-33021680D01*
X51968759Y-32864637D01*
X52168637Y-32664759D01*
X52325680Y-32429727D01*
X52433853Y-32168574D01*
X52489000Y-31891335D01*
X52489000Y-31608665D01*
X59779000Y-31608665D01*
X59779000Y-31891335D01*
X59834147Y-32168574D01*
X59942320Y-32429727D01*
X60099363Y-32664759D01*
X60299241Y-32864637D01*
X60534273Y-33021680D01*
X60795426Y-33129853D01*
X61072665Y-33185000D01*
X61355335Y-33185000D01*
X61632574Y-33129853D01*
X61893727Y-33021680D01*
X62128759Y-32864637D01*
X62328637Y-32664759D01*
X62485680Y-32429727D01*
X62593853Y-32168574D01*
X62649000Y-31891335D01*
X62649000Y-31608665D01*
X62593853Y-31331426D01*
X62485680Y-31070273D01*
X62328637Y-30835241D01*
X62128759Y-30635363D01*
X61893727Y-30478320D01*
X61632574Y-30370147D01*
X61355335Y-30315000D01*
X61072665Y-30315000D01*
X60795426Y-30370147D01*
X60534273Y-30478320D01*
X60299241Y-30635363D01*
X60099363Y-30835241D01*
X59942320Y-31070273D01*
X59834147Y-31331426D01*
X59779000Y-31608665D01*
X52489000Y-31608665D01*
X52433853Y-31331426D01*
X52325680Y-31070273D01*
X52168637Y-30835241D01*
X51968759Y-30635363D01*
X51733727Y-30478320D01*
X51472574Y-30370147D01*
X51195335Y-30315000D01*
X50912665Y-30315000D01*
X50635426Y-30370147D01*
X50374273Y-30478320D01*
X50139241Y-30635363D01*
X49939363Y-30835241D01*
X49782320Y-31070273D01*
X49674147Y-31331426D01*
X49619000Y-31608665D01*
X45105072Y-31608665D01*
X45105072Y-30238000D01*
X45092812Y-30113518D01*
X45056502Y-29993820D01*
X44997537Y-29883506D01*
X44918185Y-29786815D01*
X44821494Y-29707463D01*
X44711180Y-29648498D01*
X44591482Y-29612188D01*
X44467000Y-29599928D01*
X43417000Y-29599928D01*
X43292518Y-29612188D01*
X43172820Y-29648498D01*
X43108098Y-29683093D01*
X42899400Y-29619785D01*
X42672000Y-29597388D01*
X42444601Y-29619785D01*
X42225941Y-29686115D01*
X42037331Y-29786929D01*
X41978882Y-29745725D01*
X41769337Y-29652728D01*
X41707810Y-29644036D01*
X41529000Y-29769837D01*
X41529000Y-30534891D01*
X41528785Y-30535600D01*
X41512000Y-30706021D01*
X41275000Y-30706021D01*
X41275000Y-29769837D01*
X41096190Y-29644036D01*
X41034663Y-29652728D01*
X40825118Y-29745725D01*
X40637742Y-29877816D01*
X40479736Y-30043924D01*
X40357172Y-30237666D01*
X40274761Y-30451596D01*
X40235669Y-30677493D01*
X32598740Y-30677493D01*
X32684990Y-30548411D01*
X32796932Y-30278158D01*
X32854000Y-29991260D01*
X32854000Y-29698740D01*
X32796932Y-29411842D01*
X32684990Y-29141589D01*
X32522475Y-28898368D01*
X32315632Y-28691525D01*
X32141240Y-28575000D01*
X32315632Y-28458475D01*
X32522475Y-28251632D01*
X32684990Y-28008411D01*
X32796932Y-27738158D01*
X32854000Y-27451260D01*
X32854000Y-27158740D01*
X32796932Y-26871842D01*
X32684990Y-26601589D01*
X32522475Y-26358368D01*
X32315632Y-26151525D01*
X32309856Y-26147665D01*
X35903000Y-26147665D01*
X35903000Y-26430335D01*
X35958147Y-26707574D01*
X36066320Y-26968727D01*
X36223363Y-27203759D01*
X36423241Y-27403637D01*
X36658273Y-27560680D01*
X36919426Y-27668853D01*
X37196665Y-27724000D01*
X37479335Y-27724000D01*
X37756574Y-27668853D01*
X38017727Y-27560680D01*
X38252759Y-27403637D01*
X38452637Y-27203759D01*
X38609680Y-26968727D01*
X38717853Y-26707574D01*
X38773000Y-26430335D01*
X38773000Y-26147665D01*
X38772021Y-26142740D01*
X51601000Y-26142740D01*
X51601000Y-26435260D01*
X51658068Y-26722158D01*
X51770010Y-26992411D01*
X51932525Y-27235632D01*
X52139368Y-27442475D01*
X52382589Y-27604990D01*
X52652842Y-27716932D01*
X52939740Y-27774000D01*
X53232260Y-27774000D01*
X53519158Y-27716932D01*
X53789411Y-27604990D01*
X54032632Y-27442475D01*
X54239475Y-27235632D01*
X54356000Y-27061240D01*
X54472525Y-27235632D01*
X54679368Y-27442475D01*
X54922589Y-27604990D01*
X55192842Y-27716932D01*
X55479740Y-27774000D01*
X55772260Y-27774000D01*
X56059158Y-27716932D01*
X56329411Y-27604990D01*
X56572632Y-27442475D01*
X56704487Y-27310620D01*
X56726498Y-27383180D01*
X56785463Y-27493494D01*
X56864815Y-27590185D01*
X56961506Y-27669537D01*
X57071820Y-27728502D01*
X57191518Y-27764812D01*
X57316000Y-27777072D01*
X57880250Y-27774000D01*
X58039000Y-27615250D01*
X58039000Y-26416000D01*
X58293000Y-26416000D01*
X58293000Y-27615250D01*
X58451750Y-27774000D01*
X59016000Y-27777072D01*
X59140482Y-27764812D01*
X59260180Y-27728502D01*
X59370494Y-27669537D01*
X59467185Y-27590185D01*
X59546537Y-27493494D01*
X59605502Y-27383180D01*
X59641812Y-27263482D01*
X59654072Y-27139000D01*
X59651000Y-26574750D01*
X59492250Y-26416000D01*
X58293000Y-26416000D01*
X58039000Y-26416000D01*
X58019000Y-26416000D01*
X58019000Y-26162000D01*
X58039000Y-26162000D01*
X58039000Y-24962750D01*
X58293000Y-24962750D01*
X58293000Y-26162000D01*
X59492250Y-26162000D01*
X59651000Y-26003250D01*
X59652288Y-25766665D01*
X65875000Y-25766665D01*
X65875000Y-26049335D01*
X65930147Y-26326574D01*
X66038320Y-26587727D01*
X66195363Y-26822759D01*
X66395241Y-27022637D01*
X66630273Y-27179680D01*
X66891426Y-27287853D01*
X67168665Y-27343000D01*
X67451335Y-27343000D01*
X67728574Y-27287853D01*
X67989727Y-27179680D01*
X68224759Y-27022637D01*
X68424637Y-26822759D01*
X68581680Y-26587727D01*
X68689853Y-26326574D01*
X68745000Y-26049335D01*
X68745000Y-25766665D01*
X70955000Y-25766665D01*
X70955000Y-26049335D01*
X71010147Y-26326574D01*
X71118320Y-26587727D01*
X71275363Y-26822759D01*
X71475241Y-27022637D01*
X71710273Y-27179680D01*
X71971426Y-27287853D01*
X72248665Y-27343000D01*
X72531335Y-27343000D01*
X72808574Y-27287853D01*
X73069727Y-27179680D01*
X73304759Y-27022637D01*
X73504637Y-26822759D01*
X73661680Y-26587727D01*
X73716657Y-26455000D01*
X76362928Y-26455000D01*
X76362928Y-28155000D01*
X76375188Y-28279482D01*
X76411498Y-28399180D01*
X76470463Y-28509494D01*
X76549815Y-28606185D01*
X76646506Y-28685537D01*
X76756820Y-28744502D01*
X76829380Y-28766513D01*
X76697525Y-28898368D01*
X76535010Y-29141589D01*
X76423068Y-29411842D01*
X76366000Y-29698740D01*
X76366000Y-29991260D01*
X76423068Y-30278158D01*
X76535010Y-30548411D01*
X76697525Y-30791632D01*
X76904368Y-30998475D01*
X77078760Y-31115000D01*
X76904368Y-31231525D01*
X76697525Y-31438368D01*
X76535010Y-31681589D01*
X76423068Y-31951842D01*
X76366000Y-32238740D01*
X76366000Y-32531260D01*
X76423068Y-32818158D01*
X76535010Y-33088411D01*
X76697525Y-33331632D01*
X76904368Y-33538475D01*
X77078760Y-33655000D01*
X76904368Y-33771525D01*
X76697525Y-33978368D01*
X76535010Y-34221589D01*
X76423068Y-34491842D01*
X76366000Y-34778740D01*
X76366000Y-35071260D01*
X76423068Y-35358158D01*
X76535010Y-35628411D01*
X76697525Y-35871632D01*
X76904368Y-36078475D01*
X77078760Y-36195000D01*
X76904368Y-36311525D01*
X76697525Y-36518368D01*
X76535010Y-36761589D01*
X76423068Y-37031842D01*
X76366000Y-37318740D01*
X76366000Y-37611260D01*
X76423068Y-37898158D01*
X76535010Y-38168411D01*
X76697525Y-38411632D01*
X76904368Y-38618475D01*
X77078760Y-38735000D01*
X76904368Y-38851525D01*
X76697525Y-39058368D01*
X76535010Y-39301589D01*
X76423068Y-39571842D01*
X76366000Y-39858740D01*
X76366000Y-40151260D01*
X76423068Y-40438158D01*
X76535010Y-40708411D01*
X76697525Y-40951632D01*
X76904368Y-41158475D01*
X77078760Y-41275000D01*
X76904368Y-41391525D01*
X76697525Y-41598368D01*
X76535010Y-41841589D01*
X76423068Y-42111842D01*
X76366000Y-42398740D01*
X76366000Y-42691260D01*
X76423068Y-42978158D01*
X76535010Y-43248411D01*
X76697525Y-43491632D01*
X76904368Y-43698475D01*
X77078760Y-43815000D01*
X76904368Y-43931525D01*
X76697525Y-44138368D01*
X76535010Y-44381589D01*
X76423068Y-44651842D01*
X76366000Y-44938740D01*
X76366000Y-45231260D01*
X76423068Y-45518158D01*
X76535010Y-45788411D01*
X76697525Y-46031632D01*
X76904368Y-46238475D01*
X77078760Y-46355000D01*
X76904368Y-46471525D01*
X76697525Y-46678368D01*
X76535010Y-46921589D01*
X76423068Y-47191842D01*
X76366000Y-47478740D01*
X76366000Y-47771260D01*
X76423068Y-48058158D01*
X76535010Y-48328411D01*
X76697525Y-48571632D01*
X76904368Y-48778475D01*
X77078760Y-48895000D01*
X76904368Y-49011525D01*
X76697525Y-49218368D01*
X76535010Y-49461589D01*
X76423068Y-49731842D01*
X76366000Y-50018740D01*
X76366000Y-50311260D01*
X76423068Y-50598158D01*
X76535010Y-50868411D01*
X76697525Y-51111632D01*
X76904368Y-51318475D01*
X77147589Y-51480990D01*
X77417842Y-51592932D01*
X77704740Y-51650000D01*
X77997260Y-51650000D01*
X78284158Y-51592932D01*
X78554411Y-51480990D01*
X78797632Y-51318475D01*
X79004475Y-51111632D01*
X79166990Y-50868411D01*
X79278932Y-50598158D01*
X79336000Y-50311260D01*
X79336000Y-50018740D01*
X79278932Y-49731842D01*
X79166990Y-49461589D01*
X79004475Y-49218368D01*
X78797632Y-49011525D01*
X78623240Y-48895000D01*
X78797632Y-48778475D01*
X79004475Y-48571632D01*
X79166990Y-48328411D01*
X79278932Y-48058158D01*
X79336000Y-47771260D01*
X79336000Y-47478740D01*
X79278932Y-47191842D01*
X79166990Y-46921589D01*
X79004475Y-46678368D01*
X78797632Y-46471525D01*
X78623240Y-46355000D01*
X78797632Y-46238475D01*
X79004475Y-46031632D01*
X79166990Y-45788411D01*
X79278932Y-45518158D01*
X79336000Y-45231260D01*
X79336000Y-44938740D01*
X79278932Y-44651842D01*
X79166990Y-44381589D01*
X79004475Y-44138368D01*
X78797632Y-43931525D01*
X78623240Y-43815000D01*
X78797632Y-43698475D01*
X79004475Y-43491632D01*
X79166990Y-43248411D01*
X79278932Y-42978158D01*
X79336000Y-42691260D01*
X79336000Y-42398740D01*
X79278932Y-42111842D01*
X79166990Y-41841589D01*
X79004475Y-41598368D01*
X78797632Y-41391525D01*
X78623240Y-41275000D01*
X78797632Y-41158475D01*
X79004475Y-40951632D01*
X79166990Y-40708411D01*
X79278932Y-40438158D01*
X79336000Y-40151260D01*
X79336000Y-39858740D01*
X79278932Y-39571842D01*
X79166990Y-39301589D01*
X79004475Y-39058368D01*
X78797632Y-38851525D01*
X78623240Y-38735000D01*
X78797632Y-38618475D01*
X79004475Y-38411632D01*
X79166990Y-38168411D01*
X79278932Y-37898158D01*
X79336000Y-37611260D01*
X79336000Y-37318740D01*
X79278932Y-37031842D01*
X79166990Y-36761589D01*
X79004475Y-36518368D01*
X78797632Y-36311525D01*
X78623240Y-36195000D01*
X78797632Y-36078475D01*
X79004475Y-35871632D01*
X79166990Y-35628411D01*
X79278932Y-35358158D01*
X79336000Y-35071260D01*
X79336000Y-34778740D01*
X79278932Y-34491842D01*
X79166990Y-34221589D01*
X79004475Y-33978368D01*
X78797632Y-33771525D01*
X78623240Y-33655000D01*
X78797632Y-33538475D01*
X79004475Y-33331632D01*
X79166990Y-33088411D01*
X79278932Y-32818158D01*
X79336000Y-32531260D01*
X79336000Y-32238740D01*
X79278932Y-31951842D01*
X79166990Y-31681589D01*
X79004475Y-31438368D01*
X78797632Y-31231525D01*
X78623240Y-31115000D01*
X78797632Y-30998475D01*
X79004475Y-30791632D01*
X79166990Y-30548411D01*
X79278932Y-30278158D01*
X79336000Y-29991260D01*
X79336000Y-29698740D01*
X79278932Y-29411842D01*
X79166990Y-29141589D01*
X79004475Y-28898368D01*
X78872620Y-28766513D01*
X78945180Y-28744502D01*
X79055494Y-28685537D01*
X79152185Y-28606185D01*
X79231537Y-28509494D01*
X79290502Y-28399180D01*
X79326812Y-28279482D01*
X79339072Y-28155000D01*
X79339072Y-26455000D01*
X79326812Y-26330518D01*
X79290502Y-26210820D01*
X79231537Y-26100506D01*
X79152185Y-26003815D01*
X79055494Y-25924463D01*
X78945180Y-25865498D01*
X78825482Y-25829188D01*
X78701000Y-25816928D01*
X77001000Y-25816928D01*
X76876518Y-25829188D01*
X76756820Y-25865498D01*
X76646506Y-25924463D01*
X76549815Y-26003815D01*
X76470463Y-26100506D01*
X76411498Y-26210820D01*
X76375188Y-26330518D01*
X76362928Y-26455000D01*
X73716657Y-26455000D01*
X73769853Y-26326574D01*
X73825000Y-26049335D01*
X73825000Y-25766665D01*
X73769853Y-25489426D01*
X73661680Y-25228273D01*
X73504637Y-24993241D01*
X73304759Y-24793363D01*
X73069727Y-24636320D01*
X72808574Y-24528147D01*
X72531335Y-24473000D01*
X72248665Y-24473000D01*
X71971426Y-24528147D01*
X71710273Y-24636320D01*
X71475241Y-24793363D01*
X71275363Y-24993241D01*
X71118320Y-25228273D01*
X71010147Y-25489426D01*
X70955000Y-25766665D01*
X68745000Y-25766665D01*
X68689853Y-25489426D01*
X68581680Y-25228273D01*
X68424637Y-24993241D01*
X68224759Y-24793363D01*
X67989727Y-24636320D01*
X67728574Y-24528147D01*
X67451335Y-24473000D01*
X67168665Y-24473000D01*
X66891426Y-24528147D01*
X66630273Y-24636320D01*
X66395241Y-24793363D01*
X66195363Y-24993241D01*
X66038320Y-25228273D01*
X65930147Y-25489426D01*
X65875000Y-25766665D01*
X59652288Y-25766665D01*
X59654072Y-25439000D01*
X59641812Y-25314518D01*
X59605502Y-25194820D01*
X59546537Y-25084506D01*
X59467185Y-24987815D01*
X59370494Y-24908463D01*
X59260180Y-24849498D01*
X59140482Y-24813188D01*
X59016000Y-24800928D01*
X58451750Y-24804000D01*
X58293000Y-24962750D01*
X58039000Y-24962750D01*
X57880250Y-24804000D01*
X57316000Y-24800928D01*
X57191518Y-24813188D01*
X57071820Y-24849498D01*
X56961506Y-24908463D01*
X56864815Y-24987815D01*
X56785463Y-25084506D01*
X56726498Y-25194820D01*
X56704487Y-25267380D01*
X56572632Y-25135525D01*
X56329411Y-24973010D01*
X56059158Y-24861068D01*
X55772260Y-24804000D01*
X55479740Y-24804000D01*
X55192842Y-24861068D01*
X54922589Y-24973010D01*
X54679368Y-25135525D01*
X54472525Y-25342368D01*
X54356000Y-25516760D01*
X54239475Y-25342368D01*
X54032632Y-25135525D01*
X53789411Y-24973010D01*
X53519158Y-24861068D01*
X53232260Y-24804000D01*
X52939740Y-24804000D01*
X52652842Y-24861068D01*
X52382589Y-24973010D01*
X52139368Y-25135525D01*
X51932525Y-25342368D01*
X51770010Y-25585589D01*
X51658068Y-25855842D01*
X51601000Y-26142740D01*
X38772021Y-26142740D01*
X38717853Y-25870426D01*
X38609680Y-25609273D01*
X38452637Y-25374241D01*
X38252759Y-25174363D01*
X38017727Y-25017320D01*
X37756574Y-24909147D01*
X37479335Y-24854000D01*
X37196665Y-24854000D01*
X36919426Y-24909147D01*
X36658273Y-25017320D01*
X36423241Y-25174363D01*
X36223363Y-25374241D01*
X36066320Y-25609273D01*
X35958147Y-25870426D01*
X35903000Y-26147665D01*
X32309856Y-26147665D01*
X32072411Y-25989010D01*
X31802158Y-25877068D01*
X31515260Y-25820000D01*
X31222740Y-25820000D01*
X30935842Y-25877068D01*
X30665589Y-25989010D01*
X30422368Y-26151525D01*
X30215525Y-26358368D01*
X30053010Y-26601589D01*
X29941068Y-26871842D01*
X29884000Y-27158740D01*
X29884000Y-27451260D01*
X29941068Y-27738158D01*
X30053010Y-28008411D01*
X30215525Y-28251632D01*
X30422368Y-28458475D01*
X30596760Y-28575000D01*
X30422368Y-28691525D01*
X30215525Y-28898368D01*
X30053010Y-29141589D01*
X29941068Y-29411842D01*
X29884000Y-29698740D01*
X29884000Y-29991260D01*
X29941068Y-30278158D01*
X30053010Y-30548411D01*
X30215525Y-30791632D01*
X30422368Y-30998475D01*
X30596760Y-31115000D01*
X30422368Y-31231525D01*
X30215525Y-31438368D01*
X30053010Y-31681589D01*
X29941068Y-31951842D01*
X29884000Y-32238740D01*
X29884000Y-32531260D01*
X29941068Y-32818158D01*
X30053010Y-33088411D01*
X30215525Y-33331632D01*
X30422368Y-33538475D01*
X30596760Y-33655000D01*
X30422368Y-33771525D01*
X30215525Y-33978368D01*
X30053010Y-34221589D01*
X29941068Y-34491842D01*
X29884000Y-34778740D01*
X29884000Y-35071260D01*
X29941068Y-35358158D01*
X30053010Y-35628411D01*
X30215525Y-35871632D01*
X30422368Y-36078475D01*
X30596760Y-36195000D01*
X30422368Y-36311525D01*
X30215525Y-36518368D01*
X30053010Y-36761589D01*
X29941068Y-37031842D01*
X29884000Y-37318740D01*
X29884000Y-37611260D01*
X29941068Y-37898158D01*
X30053010Y-38168411D01*
X30215525Y-38411632D01*
X30422368Y-38618475D01*
X30596760Y-38735000D01*
X30422368Y-38851525D01*
X30215525Y-39058368D01*
X30053010Y-39301589D01*
X29941068Y-39571842D01*
X29884000Y-39858740D01*
X29884000Y-40151260D01*
X29941068Y-40438158D01*
X30053010Y-40708411D01*
X30215525Y-40951632D01*
X30422368Y-41158475D01*
X30596760Y-41275000D01*
X30422368Y-41391525D01*
X30215525Y-41598368D01*
X30053010Y-41841589D01*
X29941068Y-42111842D01*
X29884000Y-42398740D01*
X29884000Y-42691260D01*
X29941068Y-42978158D01*
X30053010Y-43248411D01*
X30215525Y-43491632D01*
X30422368Y-43698475D01*
X30596760Y-43815000D01*
X30422368Y-43931525D01*
X30215525Y-44138368D01*
X30053010Y-44381589D01*
X29941068Y-44651842D01*
X29884000Y-44938740D01*
X29884000Y-45231260D01*
X29941068Y-45518158D01*
X30053010Y-45788411D01*
X30215525Y-46031632D01*
X30422368Y-46238475D01*
X30596760Y-46355000D01*
X30422368Y-46471525D01*
X30215525Y-46678368D01*
X30053010Y-46921589D01*
X29941068Y-47191842D01*
X29884000Y-47478740D01*
X29884000Y-47771260D01*
X29941068Y-48058158D01*
X30053010Y-48328411D01*
X30215525Y-48571632D01*
X30347380Y-48703487D01*
X30274820Y-48725498D01*
X30164506Y-48784463D01*
X30067815Y-48863815D01*
X29988463Y-48960506D01*
X29929498Y-49070820D01*
X29893188Y-49190518D01*
X29880928Y-49315000D01*
X28219000Y-49315000D01*
X28219000Y-24409000D01*
X81001000Y-24409000D01*
X81001001Y-53061000D01*
G37*
%TD.AperFunction*%
%TD*%
M02*
