M48
; DRILL file {KiCad (5.1.7)-1} date 12/07/20 21:31:35
; FORMAT={-:-/ absolute / inch / decimal}
; #@! TF.CreationDate,2020-12-07T21:31:35+00:00
; #@! TF.GenerationSoftware,Kicad,Pcbnew,(5.1.7)-1
; #@! TF.FileFunction,Plated,1,2,PTH
FMAT,2
INCH
T1C0.0295
T2C0.0315
T3C0.0394
%
G90
G05
T1
X1.63Y-1.22
X1.68Y-1.22
X1.73Y-1.22
T2
X2.65Y-1.02
X2.65Y-1.42
X2.85Y-1.02
X2.85Y-1.42
X2.015Y-1.755
X2.415Y-1.755
X1.45Y-1.84
X1.5287Y-1.84
X2.015Y-1.88
X2.415Y-1.88
X2.01Y-1.25
X2.41Y-1.25
X1.47Y-1.035
X1.47Y-1.435
X2.555Y-1.6351
X2.555Y-1.9449
X2.655Y-1.6351
X2.655Y-1.9449
X2.755Y-1.6351
X2.755Y-1.9449
X2.855Y-1.6351
X2.855Y-1.9449
X2.01Y-1.375
X2.41Y-1.375
T3
X1.43Y-1.605
X1.6269Y-1.605
X1.235Y-1.075
X1.235Y-1.175
X1.235Y-1.275
X1.235Y-1.375
X1.235Y-1.475
X1.235Y-1.575
X1.235Y-1.675
X1.235Y-1.775
X1.235Y-1.875
X1.235Y-1.975
X3.065Y-1.075
X3.065Y-1.175
X3.065Y-1.275
X3.065Y-1.375
X3.065Y-1.475
X3.065Y-1.575
X3.065Y-1.675
X3.065Y-1.775
X3.065Y-1.875
X3.065Y-1.975
X2.09Y-1.035
X2.19Y-1.035
X2.29Y-1.035
X1.845Y-1.445
X1.845Y-1.545
X1.845Y-1.645
X1.645Y-1.985
X1.745Y-1.985
X1.845Y-1.985
T0
M30
